<svg xmlns="http://www.w3.org/2000/svg" viewBox="0 0 172 155.33"><defs><style>.cls-1{fill:#a385e8;}.cls-1,.cls-2,.cls-4{stroke:#6832d8;stroke-miterlimit:10;stroke-width:2px;}.cls-2{fill:none;}.cls-3,.cls-4{fill:#9ce181;}</style></defs><g id="Layer_2" data-name="Layer 2"><g id="Layer_1-2" data-name="Layer 1"><path class="cls-1" d="M17.67,107.67A16.65,16.65,0,0,1,26,93.24a16.66,16.66,0,1,0,0,28.86A16.66,16.66,0,0,1,17.67,107.67Z"/><path class="cls-2" d="M34.33,91A16.58,16.58,0,0,0,26,93.24a16.66,16.66,0,0,1,0,28.86A16.67,16.67,0,1,0,34.33,91Z"/><ellipse class="cls-3" cx="26" cy="47.67" rx="8.33" ry="14.43"/><path class="cls-1" d="M17.67,47.67A16.65,16.65,0,0,1,26,33.24,16.66,16.66,0,1,0,26,62.1,16.66,16.66,0,0,1,17.67,47.67Z"/><path class="cls-2" d="M34.33,31A16.58,16.58,0,0,0,26,33.24,16.66,16.66,0,0,1,26,62.1,16.67,16.67,0,1,0,34.33,31Z"/><path class="cls-2" d="M137.67,107.67A16.65,16.65,0,0,1,146,93.24a16.66,16.66,0,1,0,0,28.86A16.66,16.66,0,0,1,137.67,107.67Z"/><path class="cls-1" d="M154.33,91A16.58,16.58,0,0,0,146,93.24a16.66,16.66,0,0,1,0,28.86A16.67,16.67,0,1,0,154.33,91Z"/><path class="cls-2" d="M137.67,47.67A16.65,16.65,0,0,1,146,33.24a16.66,16.66,0,1,0,0,28.86A16.66,16.66,0,0,1,137.67,47.67Z"/><path class="cls-1" d="M154.33,31A16.58,16.58,0,0,0,146,33.24a16.66,16.66,0,0,1,0,28.86A16.67,16.67,0,1,0,154.33,31Z"/><ellipse class="cls-4" cx="146" cy="47.67" rx="8.33" ry="14.43"/><ellipse class="cls-4" cx="86" cy="77.67" rx="8.33" ry="14.43"/><path class="cls-1" d="M77.67,77.67A16.65,16.65,0,0,1,86,63.24,16.66,16.66,0,1,0,86,92.1,16.66,16.66,0,0,1,77.67,77.67Z"/><path class="cls-1" d="M94.33,61A16.58,16.58,0,0,0,86,63.24,16.66,16.66,0,0,1,86,92.1,16.67,16.67,0,1,0,94.33,61Z"/><path class="cls-2" d="M77.67,17.67A16.65,16.65,0,0,1,86,3.24a16.66,16.66,0,1,0-8.33,31.09A16.57,16.57,0,0,0,86,32.1,16.66,16.66,0,0,1,77.67,17.67Z"/><path class="cls-2" d="M94.33,1A16.58,16.58,0,0,0,86,3.24,16.66,16.66,0,0,1,86,32.1,16.67,16.67,0,1,0,94.33,1Z"/><ellipse class="cls-4" cx="86" cy="17.67" rx="8.33" ry="14.43"/><path class="cls-1" d="M77.67,137.67A16.65,16.65,0,0,1,86,123.24a16.66,16.66,0,1,0,0,28.86A16.66,16.66,0,0,1,77.67,137.67Z"/><path class="cls-1" d="M94.33,121A16.58,16.58,0,0,0,86,123.24a16.66,16.66,0,0,1,0,28.86A16.67,16.67,0,1,0,94.33,121Z"/></g></g></svg>
