<svg width="343" height="70" viewBox="0 0 245 50" version="1.1" xmlns="http://www.w3.org/2000/svg"><g id="Page-1" stroke="none" stroke-width="1" fill="none" fill-rule="evenodd"><g id="logo-lightspeed"><path d="M75.346 20.126a3.313 3.313 0 0 1 0-6.626 3.28 3.28 0 0 1 3.414 3.293 3.341 3.341 0 0 1-3.414 3.333z" id="Path" fill="#000"/><path d="M229.882 40.602c-4.04 0-7.142-3.777-7.142-8.606a9.825 9.825 0 0 1 9.886-10.081 8.78 8.78 0 0 1 3.512.784l.134.061v-3.943c0-1.833-.22-1.955-1.158-2.179l-.285-.069-1.22-.358 8.334-2.707v22.268c0 1.996.264 2.496 1.48 2.846l.74.187-.224.524-7.659 1.264v-3.752l-.17.216c-1.764 2.228-4.086 3.545-6.228 3.545zm3.008-17.622c-2.74 0-4.065 2.406-4.065 7.361 0 4.342 1.606 7.037 4.187 7.037a3.289 3.289 0 0 0 3.252-3.142v-7.87c.004-2.557-2.272-3.386-3.374-3.386z" id="Shape" fill="#000" fill-rule="nonzero"/><path d="M70.46 40.004l.089-.508 1.297-.203a.963.963 0 0 0 .894-.972V27.415c0-2.061-.943-2.582-1.764-2.805l-.488-.122 7.91-2.573v16.382a.976.976 0 0 0 .813.992l1.358.211.09.508-10.2-.004z" id="Path" fill="#000"/><path d="M158.695 49.683l.09-.508 1.296-.203a.963.963 0 0 0 .895-.972V27.577c0-1.386-.622-2.581-1.48-2.845l-.813-.208 7.955-2.622v3.769l.17-.216c1.753-2.223 3.916-3.553 6.058-3.553 4.036.013 6.809 4.167 6.809 8.992 0 6.435-4.919 9.7-9.756 9.7a7.496 7.496 0 0 1-3.187-.61l-.134-.061v8.065a.963.963 0 0 0 .898.971l1.293.204.089.508-10.183.012zm11.159-24.646a3.394 3.394 0 0 0-3.252 3.199v8.162a3.15 3.15 0 0 0 3.052 3.13c1.858 0 4.236-1.491 4.236-7.817-.012-4.341-1.455-6.674-4.036-6.674z" id="Shape" fill="#000" fill-rule="nonzero"/><path d="M116.935 38.325v-9.87a3.11 3.11 0 0 0-3.191-3.081 3.045 3.045 0 0 0-2.968 2.963v9.968a.967.967 0 0 0 .813.963l1.358.212.09.508h-9.846l.09-.508 1.004-.212a.967.967 0 0 0 .813-.95v-19.74a2.264 2.264 0 0 0-1.431-2.11l-.887-.35 8.053-2.622V25.56l.175-.264c.025-.033 2.297-3.382 6.321-3.382 1.39.033 2.716.59 3.712 1.56.93.972 1.492 2.684 1.492 4.57l.04 10.284a.967.967 0 0 0 .813.964l1.358.211.09.508h-9.826l.09-.508 1.004-.211a.967.967 0 0 0 .813-.952m-68-23.157a.963.963 0 0 0-.895-.972l-1.296-.203-.09-.508h11.187l-.097.508-1.297.203a.963.963 0 0 0-.894.972V38.06c0 1.077 1.41.915 1.41.915 4.033 0 6.533-1.513 9.236-7.403l.443-.967h1.264l-1.13 9.398H46.634l.09-.508 1.296-.203a.963.963 0 0 0 .895-.972V15.183zm85.231 25.419a5.17 5.17 0 0 1-5.11-5.183V24.984h-3.991l2.48-2.44h.84a.667.667 0 0 0 .668-.674v-2.167l5.284-1.752v4.602h5.073l-2.32 2.439h-2.737v9.793c0 2.508 1.793 3.418 3 3.418a3.358 3.358 0 0 0 1.484-.362l.07-.028.5.581c-1.444 1.289-2.9 2.208-5.24 2.208z" id="Path" fill="#000"/><path d="M188.886 29.39l10.874.167c.04-.337.049-1.415.033-1.793-.122-2.748-2.033-5.85-7.029-5.85-5.646 0-9.906 4.135-9.906 9.757 0 5.118 3.703 8.943 8.618 8.943 3.943 0 6.711-1.756 8.248-5.321l-.407-.35a5.321 5.321 0 0 1-4.602 2.455c-3.52 0-5.82-2.845-5.861-7.272a6.195 6.195 0 0 1 .032-.736zm0-1.357c.277-3.427 1.46-4.984 3.321-4.984a1.85 1.85 0 0 1 1.366.56c.773.785 1.147 2.033 1.11 4.391v.093l-5.8.041.003-.101zm19.732 1.357l10.874.167c.04-.337.049-1.415.032-1.793-.122-2.748-2.032-5.85-7.028-5.85-5.646 0-9.907 4.135-9.907 9.757 0 5.118 3.704 8.943 8.618 8.943 3.943 0 6.712-1.756 8.248-5.321l-.406-.35a5.321 5.321 0 0 1-4.626 2.48c-3.52 0-5.821-2.846-5.862-7.273.003-.254.022-.508.057-.76zm0-1.357c.276-3.427 1.46-4.984 3.321-4.984a1.85 1.85 0 0 1 1.366.56c.772.785 1.146 2.033 1.11 4.391v.093l-5.801.041.004-.101z" id="Shape" fill="#000" fill-rule="nonzero"/><path d="M150.854 28.837c-2.403-.922-4.212-1.626-4.212-3.402 0-1.626 1.134-2.573 2.769-2.573a4.38 4.38 0 0 1 2.28.642l3.04 4.415 1.041-.041-.203-5.963-1.96.638a14.427 14.427 0 0 0-4.162-.638c-4.321 0-7.203 2.28-7.203 5.841 0 3.28 2.48 4.524 5.524 5.691 2.24.882 4.325 1.512 4.325 3.773 0 1.288-1.219 2.548-3.203 2.548-2.081 0-3.162-1.04-4.52-3.04l-1.114-2.317-1.069.26-.378 4.695a21.244 21.244 0 0 0 6.971 1.236c5.362 0 7.805-2.846 7.805-5.964-.008-3.52-2.971-4.679-5.731-5.8z" id="Path" fill="#000"/><path d="M95.341 36.61H88.98a1.537 1.537 0 0 1-1.423-1.492 1.516 1.516 0 0 1 1.5-1.573c.087-.007.173-.007.26 0 .605.11 1.219.163 1.833.158 4.83 0 8.102-2.516 8.102-6.065 0-1.057-.175-1.825-.772-2.496l2.215-2.032-.536-1.565-3.79 1.56a10.57 10.57 0 0 0-4.938-1.182c-4.707 0-7.903 3.024-7.903 6.215 0 2.752 1.557 4.273 3.834 5.07v.04c-2.354.679-4.508 2.276-4.508 4.43 0 1.915 1.914 3.63 4.272 3.911-2.394.92-4.748 1.996-4.748 4.11 0 2.675 2.553 3.992 7.724 3.992 6.585 0 11.256-3.658 11.256-7.943.008-3.203-2.464-5.138-6.017-5.138zm-5.8-12.44a2.081 2.081 0 0 1 1.85-1.121c1.5 0 2.438 1.28 2.438 4.923 0 3.642-.703 4.878-2.439 4.878-1.467 0-2.313-1.452-2.313-4.923-.004-1.7.09-2.968.464-3.756zm1.09 24.147c-2.513 0-3.989-1.48-3.989-3.634 0-1.626 1.773-3.045 3.382-3.045h3.399c2.845.2 4.19.813 4.19 2.846 0 2.264-3.747 3.833-6.963 3.833h-.02z" id="Shape" fill="#000" fill-rule="nonzero"/><path id="Path" fill="#ED6D5B" d="M26.752 26.752H13.5V13.5L.244.244v39.764h39.764z"/></g></g></svg>
