<?xml version="1.0" encoding="UTF-8"?>
<svg width="154px" height="154px" viewBox="0 0 154 154" version="1.1" xmlns="http://www.w3.org/2000/svg" xmlns:xlink="http://www.w3.org/1999/xlink">
    <!-- Generator: Sketch 62 (91390) - https://sketch.com -->
    <title>burger</title>
    <desc>Created with Sketch.</desc>
    <g id="Page-1" stroke="none" stroke-width="1" fill="none" fill-rule="evenodd">
        <g id="burger" fill="#612DD3" fill-rule="nonzero">
            <path d="M131.1057,22.4946 C116.6001,7.9887 97.314,0.0003 76.7997,0.0003 C56.2854,0.0003 36.9999,7.9887 22.4943,22.4946 C7.9887,36.9999 0,56.286 0,76.8 C0,97.314 7.9887,116.6004 22.4943,131.1057 C36.9999,145.6116 56.2863,153.6 76.8003,153.6 C97.3143,153.6 116.6007,145.6113 131.106,131.1057 C145.6116,116.6004 153.6003,97.314 153.6003,76.8 C153.6003,56.286 145.6113,36.9999 131.1057,22.4946 Z M40.7127,46.728 L112.8873,46.728 C115.4424,46.728 117.5139,48.7995 117.5139,51.3543 C117.5139,53.9094 115.4424,55.9809 112.8873,55.9809 L40.7127,55.9809 C38.1576,55.9809 36.0864,53.9094 36.0864,51.3543 C36.0864,48.7995 38.1576,46.728 40.7127,46.728 Z M112.8873,106.872 L40.7127,106.872 C38.1576,106.872 36.0864,104.8005 36.0864,102.2457 C36.0864,99.6906 38.1579,97.6194 40.7127,97.6194 L112.8873,97.6194 C115.4424,97.6194 117.5139,99.6909 117.5139,102.2457 C117.5139,104.8005 115.4424,106.872 112.8873,106.872 Z M119.0559,81.4263 L34.5441,81.4263 C31.989,81.4263 29.9178,79.3548 29.9178,76.8 C29.9178,74.2449 31.9893,72.1737 34.5441,72.1737 L119.0559,72.1737 C121.611,72.1737 123.6822,74.2452 123.6822,76.8 C123.6822,79.3551 121.611,81.4263 119.0559,81.4263 Z" id="Shape"/>
        </g>
    </g>
</svg>