<?xml version="1.0" encoding="UTF-8"?>
<svg width="103px" height="103px" viewBox="0 0 103 103" version="1.1" xmlns="http://www.w3.org/2000/svg" xmlns:xlink="http://www.w3.org/1999/xlink">
    <!-- Generator: Sketch 61.2 (89653) - https://sketch.com -->
    <title>search</title>
    <desc>Created with Sketch.</desc>
    <g id="Page-1" stroke="none" stroke-width="1" fill="none" fill-rule="evenodd">
        <g id="search" fill="#612DD3" fill-rule="nonzero">
            <path d="M101.7748,95.7416 L72.0284,65.9952 C77.6704,59.0298 81.0666,50.1746 81.0666,40.5334 C81.0666,18.1834 62.8832,0 40.5332,0 C18.1832,0 0,18.1834 0,40.5334 C0,62.8834 18.1834,81.0668 40.5334,81.0668 C50.1746,81.0668 59.0298,77.6704 65.9952,72.0286 L95.7416,101.775 C96.575,102.608 97.9254,102.608 98.7588,101.775 L101.775,98.7586 C102.608,97.9254 102.608,96.5746 101.7748,95.7416 Z M40.5334,69.5334 C24.5418937,69.5334 11.5334,56.5249062 11.5334,40.5334 C11.5334,24.5418937 24.5418937,11.5334 40.5334,11.5334 C56.5249063,11.5334 69.5334,24.5418937 69.5334,40.5334 C69.5334,56.5249062 56.5249063,69.5334 40.5334,69.5334 Z" id="Shape"/>
        </g>
    </g>
</svg>