<svg xmlns="http://www.w3.org/2000/svg" width="511" height="103">
   <polygon points="9 17 1 13 1 21"/>
   <polygon points="17 17 9 13 9 21"/>
   <rect x="31" y="3" width="66" height="32" rx="10"/>
   <rect x="29"
         y="1"
         width="66"
         height="32"
         class="terminal"
         rx="10"/>
   <text class="terminal" x="39" y="21">ALTER</text>
   <rect x="117" y="3" width="166" height="32" rx="10"/>
   <rect x="115"
         y="1"
         width="166"
         height="32"
         class="terminal"
         rx="10"/>
   <text class="terminal" x="125" y="21">MATERIALIZED VIEW</text>
   <rect x="303" y="3" width="56" height="32"/>
   <rect x="301" y="1" width="56" height="32" class="nonterminal"/>
   <text class="nonterminal" x="311" y="21">name</text>
   <rect x="379" y="3" width="64" height="32" rx="10"/>
   <rect x="377"
         y="1"
         width="64"
         height="32"
         class="terminal"
         rx="10"/>
   <text class="terminal" x="387" y="21">RESET</text>
   <rect x="463" y="3" width="26" height="32" rx="10"/>
   <rect x="461"
         y="1"
         width="26"
         height="32"
         class="terminal"
         rx="10"/>
   <text class="terminal" x="471" y="21">(</text>
   <rect x="297" y="69" width="140" height="32" rx="10"/>
   <rect x="295"
         y="67"
         width="140"
         height="32"
         class="terminal"
         rx="10"/>
   <text class="terminal" x="305" y="87">RETAIN HISTORY</text>
   <rect x="457" y="69" width="26" height="32" rx="10"/>
   <rect x="455"
         y="67"
         width="26"
         height="32"
         class="terminal"
         rx="10"/>
   <text class="terminal" x="465" y="87">)</text>
   <path class="line"
         d="m17 17 h2 m0 0 h10 m66 0 h10 m0 0 h10 m166 0 h10 m0 0 h10 m56 0 h10 m0 0 h10 m64 0 h10 m0 0 h10 m26 0 h10 m2 0 l2 0 m2 0 l2 0 m2 0 l2 0 m-236 66 l2 0 m2 0 l2 0 m2 0 l2 0 m2 0 h10 m140 0 h10 m0 0 h10 m26 0 h10 m3 0 h-3"/>
   <polygon points="501 83 509 79 509 87"/>
   <polygon points="501 83 493 79 493 87"/>
</svg>
