<svg xmlns="http://www.w3.org/2000/svg" width="509" height="469">
   <polygon points="9 17 1 13 1 21"/>
   <polygon points="17 17 9 13 9 21"/>
   <rect x="31" y="3" width="66" height="32" rx="10"/>
   <rect x="29"
         y="1"
         width="66"
         height="32"
         class="terminal"
         rx="10"/>
   <text class="terminal" x="39" y="21">ALTER</text>
   <rect x="117" y="3" width="116" height="32" rx="10"/>
   <rect x="115"
         y="1"
         width="116"
         height="32"
         class="terminal"
         rx="10"/>
   <text class="terminal" x="125" y="21">CONNECTION</text>
   <rect x="273" y="35" width="86" height="32" rx="10"/>
   <rect x="271"
         y="33"
         width="86"
         height="32"
         class="terminal"
         rx="10"/>
   <text class="terminal" x="281" y="53">IF EXISTS</text>
   <rect x="399" y="3" width="56" height="32"/>
   <rect x="397" y="1" width="56" height="32" class="nonterminal"/>
   <text class="nonterminal" x="407" y="21">name</text>
   <rect x="85" y="145" width="46" height="32" rx="10"/>
   <rect x="83"
         y="143"
         width="46"
         height="32"
         class="terminal"
         rx="10"/>
   <text class="terminal" x="93" y="163">SET</text>
   <rect x="151" y="145" width="26" height="32" rx="10"/>
   <rect x="149"
         y="143"
         width="26"
         height="32"
         class="terminal"
         rx="10"/>
   <text class="terminal" x="159" y="163">(</text>
   <rect x="197" y="145" width="62" height="32"/>
   <rect x="195" y="143" width="62" height="32" class="nonterminal"/>
   <text class="nonterminal" x="205" y="163">option</text>
   <rect x="279" y="145" width="28" height="32" rx="10"/>
   <rect x="277"
         y="143"
         width="28"
         height="32"
         class="terminal"
         rx="10"/>
   <text class="terminal" x="287" y="163">=</text>
   <rect x="327" y="145" width="54" height="32"/>
   <rect x="325" y="143" width="54" height="32" class="nonterminal"/>
   <text class="nonterminal" x="335" y="163">value</text>
   <rect x="105" y="189" width="60" height="32" rx="10"/>
   <rect x="103"
         y="187"
         width="60"
         height="32"
         class="terminal"
         rx="10"/>
   <text class="terminal" x="113" y="207">DROP</text>
   <rect x="105" y="233" width="64" height="32" rx="10"/>
   <rect x="103"
         y="231"
         width="64"
         height="32"
         class="terminal"
         rx="10"/>
   <text class="terminal" x="113" y="251">RESET</text>
   <rect x="209" y="189" width="26" height="32" rx="10"/>
   <rect x="207"
         y="187"
         width="26"
         height="32"
         class="terminal"
         rx="10"/>
   <text class="terminal" x="217" y="207">(</text>
   <rect x="255" y="189" width="62" height="32"/>
   <rect x="253" y="187" width="62" height="32" class="nonterminal"/>
   <text class="nonterminal" x="263" y="207">option</text>
   <rect x="421" y="145" width="26" height="32" rx="10"/>
   <rect x="419"
         y="143"
         width="26"
         height="32"
         class="terminal"
         rx="10"/>
   <text class="terminal" x="429" y="163">)</text>
   <rect x="65" y="101" width="24" height="32" rx="10"/>
   <rect x="63"
         y="99"
         width="24"
         height="32"
         class="terminal"
         rx="10"/>
   <text class="terminal" x="73" y="119">,</text>
   <rect x="45" y="277" width="78" height="32" rx="10"/>
   <rect x="43"
         y="275"
         width="78"
         height="32"
         class="terminal"
         rx="10"/>
   <text class="terminal" x="53" y="295">ROTATE</text>
   <rect x="143" y="277" width="58" height="32" rx="10"/>
   <rect x="141"
         y="275"
         width="58"
         height="32"
         class="terminal"
         rx="10"/>
   <text class="terminal" x="151" y="295">KEYS</text>
   <rect x="125" y="419" width="58" height="32" rx="10"/>
   <rect x="123"
         y="417"
         width="58"
         height="32"
         class="terminal"
         rx="10"/>
   <text class="terminal" x="133" y="437">WITH</text>
   <rect x="223" y="387" width="26" height="32" rx="10"/>
   <rect x="221"
         y="385"
         width="26"
         height="32"
         class="terminal"
         rx="10"/>
   <text class="terminal" x="231" y="405">(</text>
   <rect x="289" y="387" width="48" height="32"/>
   <rect x="287" y="385" width="48" height="32" class="nonterminal"/>
   <text class="nonterminal" x="297" y="405">field</text>
   <rect x="357" y="387" width="38" height="32"/>
   <rect x="355" y="385" width="38" height="32" class="nonterminal"/>
   <text class="nonterminal" x="365" y="405">val</text>
   <rect x="289" y="343" width="24" height="32" rx="10"/>
   <rect x="287"
         y="341"
         width="24"
         height="32"
         class="terminal"
         rx="10"/>
   <text class="terminal" x="297" y="361">,</text>
   <rect x="435" y="387" width="26" height="32" rx="10"/>
   <rect x="433"
         y="385"
         width="26"
         height="32"
         class="terminal"
         rx="10"/>
   <text class="terminal" x="443" y="405">)</text>
   <path class="line"
         d="m17 17 h2 m0 0 h10 m66 0 h10 m0 0 h10 m116 0 h10 m20 0 h10 m0 0 h96 m-126 0 h20 m106 0 h20 m-146 0 q10 0 10 10 m126 0 q0 -10 10 -10 m-136 10 v12 m126 0 v-12 m-126 12 q0 10 10 10 m106 0 q10 0 10 -10 m-116 10 h10 m86 0 h10 m20 -32 h10 m56 0 h10 m2 0 l2 0 m2 0 l2 0 m2 0 l2 0 m-474 142 l2 0 m2 0 l2 0 m2 0 l2 0 m62 0 h10 m46 0 h10 m0 0 h10 m26 0 h10 m0 0 h10 m62 0 h10 m0 0 h10 m28 0 h10 m0 0 h10 m54 0 h10 m-336 0 h20 m316 0 h20 m-356 0 q10 0 10 10 m336 0 q0 -10 10 -10 m-346 10 v24 m336 0 v-24 m-336 24 q0 10 10 10 m316 0 q10 0 10 -10 m-306 10 h10 m60 0 h10 m0 0 h4 m-104 0 h20 m84 0 h20 m-124 0 q10 0 10 10 m104 0 q0 -10 10 -10 m-114 10 v24 m104 0 v-24 m-104 24 q0 10 10 10 m84 0 q10 0 10 -10 m-94 10 h10 m64 0 h10 m20 -44 h10 m26 0 h10 m0 0 h10 m62 0 h10 m0 0 h64 m20 -44 h10 m26 0 h10 m-422 0 l20 0 m-1 0 q-9 0 -9 -10 l0 -24 q0 -10 10 -10 m402 44 l20 0 m-20 0 q10 0 10 -10 l0 -24 q0 -10 -10 -10 m-402 0 h10 m24 0 h10 m0 0 h358 m-442 44 h20 m442 0 h20 m-482 0 q10 0 10 10 m462 0 q0 -10 10 -10 m-472 10 v112 m462 0 v-112 m-462 112 q0 10 10 10 m442 0 q10 0 10 -10 m-452 10 h10 m78 0 h10 m0 0 h10 m58 0 h10 m0 0 h266 m22 -132 l2 0 m2 0 l2 0 m2 0 l2 0 m-446 242 l2 0 m2 0 l2 0 m2 0 l2 0 m42 0 h10 m0 0 h68 m-98 0 h20 m78 0 h20 m-118 0 q10 0 10 10 m98 0 q0 -10 10 -10 m-108 10 v12 m98 0 v-12 m-98 12 q0 10 10 10 m78 0 q10 0 10 -10 m-88 10 h10 m58 0 h10 m20 -32 h10 m26 0 h10 m20 0 h10 m48 0 h10 m0 0 h10 m38 0 h10 m-146 0 l20 0 m-1 0 q-9 0 -9 -10 l0 -24 q0 -10 10 -10 m126 44 l20 0 m-20 0 q10 0 10 -10 l0 -24 q0 -10 -10 -10 m-126 0 h10 m24 0 h10 m0 0 h82 m20 44 h10 m26 0 h10 m-396 0 h20 m376 0 h20 m-416 0 q10 0 10 10 m396 0 q0 -10 10 -10 m-406 10 v46 m396 0 v-46 m-396 46 q0 10 10 10 m376 0 q10 0 10 -10 m-386 10 h10 m0 0 h366 m23 -66 h-3"/>
   <polygon points="499 401 507 397 507 405"/>
   <polygon points="499 401 491 397 491 405"/>
</svg>
