<svg xmlns="http://www.w3.org/2000/svg" width="499" height="147">
   <polygon points="9 17 1 13 1 21"/>
   <polygon points="17 17 9 13 9 21"/>
   <rect x="31" y="3" width="66" height="32" rx="10"/>
   <rect x="29"
         y="1"
         width="66"
         height="32"
         class="terminal"
         rx="10"/>
   <text class="terminal" x="39" y="21">ALTER</text>
   <rect x="137" y="3" width="84" height="32" rx="10"/>
   <rect x="135"
         y="1"
         width="84"
         height="32"
         class="terminal"
         rx="10"/>
   <text class="terminal" x="145" y="21">CLUSTER</text>
   <rect x="137" y="47" width="82" height="32" rx="10"/>
   <rect x="135"
         y="45"
         width="82"
         height="32"
         class="terminal"
         rx="10"/>
   <text class="terminal" x="145" y="65">SCHEMA</text>
   <rect x="261" y="3" width="56" height="32"/>
   <rect x="259" y="1" width="56" height="32" class="nonterminal"/>
   <text class="nonterminal" x="269" y="21">name</text>
   <rect x="337" y="3" width="62" height="32" rx="10"/>
   <rect x="335"
         y="1"
         width="62"
         height="32"
         class="terminal"
         rx="10"/>
   <text class="terminal" x="345" y="21">SWAP</text>
   <rect x="419" y="3" width="58" height="32" rx="10"/>
   <rect x="417"
         y="1"
         width="58"
         height="32"
         class="terminal"
         rx="10"/>
   <text class="terminal" x="427" y="21">WITH</text>
   <rect x="369" y="113" width="102" height="32"/>
   <rect x="367" y="111" width="102" height="32" class="nonterminal"/>
   <text class="nonterminal" x="377" y="131">target_name</text>
   <path class="line"
         d="m17 17 h2 m0 0 h10 m66 0 h10 m20 0 h10 m84 0 h10 m-124 0 h20 m104 0 h20 m-144 0 q10 0 10 10 m124 0 q0 -10 10 -10 m-134 10 v24 m124 0 v-24 m-124 24 q0 10 10 10 m104 0 q10 0 10 -10 m-114 10 h10 m82 0 h10 m0 0 h2 m20 -44 h10 m56 0 h10 m0 0 h10 m62 0 h10 m0 0 h10 m58 0 h10 m2 0 l2 0 m2 0 l2 0 m2 0 l2 0 m-152 110 l2 0 m2 0 l2 0 m2 0 l2 0 m2 0 h10 m102 0 h10 m3 0 h-3"/>
   <polygon points="489 127 497 123 497 131"/>
   <polygon points="489 127 481 123 481 131"/>
</svg>
