<svg xmlns="http://www.w3.org/2000/svg" width="575" height="69">
   <polygon points="9 17 1 13 1 21"/>
   <polygon points="17 17 9 13 9 21"/>
   <rect x="31" y="3" width="66" height="32" rx="10"/>
   <rect x="29"
         y="1"
         width="66"
         height="32"
         class="terminal"
         rx="10"/>
   <text class="terminal" x="39" y="21">ALTER</text>
   <rect x="117" y="3" width="76" height="32" rx="10"/>
   <rect x="115"
         y="1"
         width="76"
         height="32"
         class="terminal"
         rx="10"/>
   <text class="terminal" x="125" y="21">SECRET</text>
   <rect x="233" y="35" width="86" height="32" rx="10"/>
   <rect x="231"
         y="33"
         width="86"
         height="32"
         class="terminal"
         rx="10"/>
   <text class="terminal" x="241" y="53">IF EXISTS</text>
   <rect x="359" y="3" width="56" height="32"/>
   <rect x="357" y="1" width="56" height="32" class="nonterminal"/>
   <text class="nonterminal" x="367" y="21">name</text>
   <rect x="435" y="3" width="38" height="32"/>
   <rect x="433" y="1" width="38" height="32" class="nonterminal"/>
   <text class="nonterminal" x="443" y="21">AS</text>
   <rect x="493" y="3" width="54" height="32"/>
   <rect x="491" y="1" width="54" height="32" class="nonterminal"/>
   <text class="nonterminal" x="501" y="21">value</text>
   <path class="line"
         d="m17 17 h2 m0 0 h10 m66 0 h10 m0 0 h10 m76 0 h10 m20 0 h10 m0 0 h96 m-126 0 h20 m106 0 h20 m-146 0 q10 0 10 10 m126 0 q0 -10 10 -10 m-136 10 v12 m126 0 v-12 m-126 12 q0 10 10 10 m106 0 q10 0 10 -10 m-116 10 h10 m86 0 h10 m20 -32 h10 m56 0 h10 m0 0 h10 m38 0 h10 m0 0 h10 m54 0 h10 m3 0 h-3"/>
   <polygon points="565 17 573 13 573 21"/>
   <polygon points="565 17 557 13 557 21"/>
</svg>
