<svg xmlns="http://www.w3.org/2000/svg" width="439" height="223">
   <polygon points="9 17 1 13 1 21"/>
   <polygon points="17 17 9 13 9 21"/>
   <rect x="31" y="3" width="66" height="32" rx="10"/>
   <rect x="29"
         y="1"
         width="66"
         height="32"
         class="terminal"
         rx="10"/>
   <text class="terminal" x="39" y="21">ALTER</text>
   <rect x="117" y="3" width="78" height="32" rx="10"/>
   <rect x="115"
         y="1"
         width="78"
         height="32"
         class="terminal"
         rx="10"/>
   <text class="terminal" x="125" y="21">SOURCE</text>
   <rect x="235" y="35" width="86" height="32" rx="10"/>
   <rect x="233"
         y="33"
         width="86"
         height="32"
         class="terminal"
         rx="10"/>
   <text class="terminal" x="243" y="53">IF EXISTS</text>
   <rect x="361" y="3" width="56" height="32"/>
   <rect x="359" y="1" width="56" height="32" class="nonterminal"/>
   <text class="nonterminal" x="369" y="21">name</text>
   <rect x="107" y="101" width="180" height="32"/>
   <rect x="105" y="99" width="180" height="32" class="nonterminal"/>
   <text class="nonterminal" x="115" y="119">alter_source_add_clause</text>
   <rect x="107" y="145" width="272" height="32"/>
   <rect x="105" y="143" width="272" height="32" class="nonterminal"/>
   <text class="nonterminal" x="115" y="163">alter_source_set_retain_history_clause</text>
   <rect x="107" y="189" width="284" height="32"/>
   <rect x="105" y="187" width="284" height="32" class="nonterminal"/>
   <text class="nonterminal" x="115" y="207">alter_source_reset_retain_history_clause</text>
   <path class="line"
         d="m17 17 h2 m0 0 h10 m66 0 h10 m0 0 h10 m78 0 h10 m20 0 h10 m0 0 h96 m-126 0 h20 m106 0 h20 m-146 0 q10 0 10 10 m126 0 q0 -10 10 -10 m-136 10 v12 m126 0 v-12 m-126 12 q0 10 10 10 m106 0 q10 0 10 -10 m-116 10 h10 m86 0 h10 m20 -32 h10 m56 0 h10 m2 0 l2 0 m2 0 l2 0 m2 0 l2 0 m-374 98 l2 0 m2 0 l2 0 m2 0 l2 0 m22 0 h10 m180 0 h10 m0 0 h104 m-324 0 h20 m304 0 h20 m-344 0 q10 0 10 10 m324 0 q0 -10 10 -10 m-334 10 v24 m324 0 v-24 m-324 24 q0 10 10 10 m304 0 q10 0 10 -10 m-314 10 h10 m272 0 h10 m0 0 h12 m-314 -10 v20 m324 0 v-20 m-324 20 v24 m324 0 v-24 m-324 24 q0 10 10 10 m304 0 q10 0 10 -10 m-314 10 h10 m284 0 h10 m23 -88 h-3"/>
   <polygon points="429 115 437 111 437 119"/>
   <polygon points="429 115 421 111 421 119"/>
</svg>
