<svg xmlns="http://www.w3.org/2000/svg" width="519" height="81">
   <polygon points="9 17 1 13 1 21"/>
   <polygon points="17 17 9 13 9 21"/>
   <rect x="31" y="3" width="66" height="32" rx="10"/>
   <rect x="29"
         y="1"
         width="66"
         height="32"
         class="terminal"
         rx="10"/>
   <text class="terminal" x="39" y="21">ALTER</text>
   <rect x="117" y="3" width="56" height="32" rx="10"/>
   <rect x="115"
         y="1"
         width="56"
         height="32"
         class="terminal"
         rx="10"/>
   <text class="terminal" x="125" y="21">ROLE</text>
   <rect x="193" y="3" width="88" height="32"/>
   <rect x="191" y="1" width="88" height="32" class="nonterminal"/>
   <text class="nonterminal" x="201" y="21">role_name</text>
   <rect x="321" y="3" width="150" height="32"/>
   <rect x="319" y="1" width="150" height="32" class="nonterminal"/>
   <text class="nonterminal" x="329" y="21">alter_role_attributes</text>
   <rect x="321" y="47" width="108" height="32"/>
   <rect x="319" y="45" width="108" height="32" class="nonterminal"/>
   <text class="nonterminal" x="329" y="65">alter_role_set</text>
   <path class="line"
         d="m17 17 h2 m0 0 h10 m66 0 h10 m0 0 h10 m56 0 h10 m0 0 h10 m88 0 h10 m20 0 h10 m150 0 h10 m-190 0 h20 m170 0 h20 m-210 0 q10 0 10 10 m190 0 q0 -10 10 -10 m-200 10 v24 m190 0 v-24 m-190 24 q0 10 10 10 m170 0 q10 0 10 -10 m-180 10 h10 m108 0 h10 m0 0 h42 m23 -44 h-3"/>
   <polygon points="509 17 517 13 517 21"/>
   <polygon points="509 17 501 13 501 21"/>
</svg>
