<svg xmlns="http://www.w3.org/2000/svg" width="455" height="37">
   <polygon points="9 17 1 13 1 21"/>
   <polygon points="17 17 9 13 9 21"/>
   <rect x="31" y="3" width="66" height="32" rx="10"/>
   <rect x="29"
         y="1"
         width="66"
         height="32"
         class="terminal"
         rx="10"/>
   <text class="terminal" x="39" y="21">ALTER</text>
   <rect x="117" y="3" width="62" height="32" rx="10"/>
   <rect x="115"
         y="1"
         width="62"
         height="32"
         class="terminal"
         rx="10"/>
   <text class="terminal" x="125" y="21">INDEX</text>
   <rect x="199" y="3" width="56" height="32"/>
   <rect x="197" y="1" width="56" height="32" class="nonterminal"/>
   <text class="nonterminal" x="207" y="21">name</text>
   <rect x="275" y="3" width="46" height="32" rx="10"/>
   <rect x="273"
         y="1"
         width="46"
         height="32"
         class="terminal"
         rx="10"/>
   <text class="terminal" x="283" y="21">SET</text>
   <rect x="341" y="3" width="86" height="32" rx="10"/>
   <rect x="339"
         y="1"
         width="86"
         height="32"
         class="terminal"
         rx="10"/>
   <text class="terminal" x="349" y="21">ENABLED</text>
   <path class="line"
         d="m17 17 h2 m0 0 h10 m66 0 h10 m0 0 h10 m62 0 h10 m0 0 h10 m56 0 h10 m0 0 h10 m46 0 h10 m0 0 h10 m86 0 h10 m3 0 h-3"/>
   <polygon points="445 17 453 13 453 21"/>
   <polygon points="445 17 437 13 437 21"/>
</svg>
