<svg xmlns="http://www.w3.org/2000/svg" width="765" height="315">
   <polygon points="9 17 1 13 1 21"/>
   <polygon points="17 17 9 13 9 21"/>
   <rect x="31" y="3" width="58" height="32" rx="10"/>
   <rect x="29"
         y="1"
         width="58"
         height="32"
         class="terminal"
         rx="10"/>
   <text class="terminal" x="39" y="21">WITH</text>
   <rect x="109" y="3" width="26" height="32" rx="10"/>
   <rect x="107"
         y="1"
         width="26"
         height="32"
         class="terminal"
         rx="10"/>
   <text class="terminal" x="117" y="21">(</text>
   <rect x="155" y="3" width="58" height="32" rx="10"/>
   <rect x="153"
         y="1"
         width="58"
         height="32"
         class="terminal"
         rx="10"/>
   <text class="terminal" x="163" y="21">WAIT</text>
   <rect x="45" y="85" width="62" height="32" rx="10"/>
   <rect x="43"
         y="83"
         width="62"
         height="32"
         class="terminal"
         rx="10"/>
   <text class="terminal" x="53" y="103">UNTIL</text>
   <rect x="127" y="85" width="68" height="32" rx="10"/>
   <rect x="125"
         y="83"
         width="68"
         height="32"
         class="terminal"
         rx="10"/>
   <text class="terminal" x="135" y="103">READY</text>
   <rect x="215" y="85" width="26" height="32" rx="10"/>
   <rect x="213"
         y="83"
         width="26"
         height="32"
         class="terminal"
         rx="10"/>
   <text class="terminal" x="223" y="103">(</text>
   <rect x="301" y="85" width="174" height="32"/>
   <rect x="299" y="83" width="174" height="32" class="nonterminal"/>
   <text class="nonterminal" x="309" y="103">wait_until_ready_option</text>
   <rect x="515" y="117" width="28" height="32" rx="10"/>
   <rect x="513"
         y="115"
         width="28"
         height="32"
         class="terminal"
         rx="10"/>
   <text class="terminal" x="523" y="135">=</text>
   <rect x="583" y="85" width="54" height="32"/>
   <rect x="581" y="83" width="54" height="32" class="nonterminal"/>
   <text class="nonterminal" x="591" y="103">value</text>
   <rect x="697" y="85" width="26" height="32" rx="10"/>
   <rect x="695"
         y="83"
         width="26"
         height="32"
         class="terminal"
         rx="10"/>
   <text class="terminal" x="705" y="103">)</text>
   <rect x="45" y="183" width="48" height="32" rx="10"/>
   <rect x="43"
         y="181"
         width="48"
         height="32"
         class="terminal"
         rx="10"/>
   <text class="terminal" x="53" y="201">FOR</text>
   <rect x="133" y="215" width="28" height="32" rx="10"/>
   <rect x="131"
         y="213"
         width="28"
         height="32"
         class="terminal"
         rx="10"/>
   <text class="terminal" x="141" y="233">=</text>
   <rect x="201" y="183" width="74" height="32"/>
   <rect x="199" y="181" width="74" height="32" class="nonterminal"/>
   <text class="nonterminal" x="209" y="201">duration</text>
   <rect x="711" y="281" width="26" height="32" rx="10"/>
   <rect x="709"
         y="279"
         width="26"
         height="32"
         class="terminal"
         rx="10"/>
   <text class="terminal" x="719" y="299">)</text>
   <path class="line"
         d="m17 17 h2 m0 0 h10 m58 0 h10 m0 0 h10 m26 0 h10 m0 0 h10 m58 0 h10 m2 0 l2 0 m2 0 l2 0 m2 0 l2 0 m-232 82 l2 0 m2 0 l2 0 m2 0 l2 0 m22 0 h10 m62 0 h10 m0 0 h10 m68 0 h10 m0 0 h10 m26 0 h10 m40 0 h10 m174 0 h10 m20 0 h10 m0 0 h38 m-68 0 h20 m48 0 h20 m-88 0 q10 0 10 10 m68 0 q0 -10 10 -10 m-78 10 v12 m68 0 v-12 m-68 12 q0 10 10 10 m48 0 q10 0 10 -10 m-58 10 h10 m28 0 h10 m20 -32 h10 m54 0 h10 m-376 0 l20 0 m-1 0 q-9 0 -9 -10 l0 -12 q0 -10 10 -10 m356 32 l20 0 m-20 0 q10 0 10 -10 l0 -12 q0 -10 -10 -10 m-356 0 h10 m0 0 h346 m-396 32 h20 m396 0 h20 m-436 0 q10 0 10 10 m416 0 q0 -10 10 -10 m-426 10 v46 m416 0 v-46 m-416 46 q0 10 10 10 m396 0 q10 0 10 -10 m-406 10 h10 m0 0 h386 m20 -66 h10 m26 0 h10 m-718 0 h20 m698 0 h20 m-738 0 q10 0 10 10 m718 0 q0 -10 10 -10 m-728 10 v78 m718 0 v-78 m-718 78 q0 10 10 10 m698 0 q10 0 10 -10 m-708 10 h10 m48 0 h10 m20 0 h10 m0 0 h38 m-68 0 h20 m48 0 h20 m-88 0 q10 0 10 10 m68 0 q0 -10 10 -10 m-78 10 v12 m68 0 v-12 m-68 12 q0 10 10 10 m48 0 q10 0 10 -10 m-58 10 h10 m28 0 h10 m20 -32 h10 m74 0 h10 m0 0 h448 m22 -98 l2 0 m2 0 l2 0 m2 0 l2 0 m-76 196 l2 0 m2 0 l2 0 m2 0 l2 0 m2 0 h10 m26 0 h10 m3 0 h-3"/>
   <polygon points="755 295 763 291 763 299"/>
   <polygon points="755 295 747 291 747 299"/>
</svg>
