<svg xmlns="http://www.w3.org/2000/svg" width="465" height="125">
   <polygon points="9 17 1 13 1 21"/>
   <polygon points="17 17 9 13 9 21"/>
   <rect x="51" y="3" width="46" height="32" rx="10"/>
   <rect x="49"
         y="1"
         width="46"
         height="32"
         class="terminal"
         rx="10"/>
   <text class="terminal" x="59" y="21">SET</text>
   <rect x="117" y="3" width="56" height="32"/>
   <rect x="115" y="1" width="56" height="32" class="nonterminal"/>
   <text class="nonterminal" x="125" y="21">name</text>
   <rect x="213" y="3" width="40" height="32" rx="10"/>
   <rect x="211"
         y="1"
         width="40"
         height="32"
         class="terminal"
         rx="10"/>
   <text class="terminal" x="221" y="21">TO</text>
   <rect x="213" y="47" width="28" height="32" rx="10"/>
   <rect x="211"
         y="45"
         width="28"
         height="32"
         class="terminal"
         rx="10"/>
   <text class="terminal" x="221" y="65">=</text>
   <rect x="313" y="3" width="54" height="32"/>
   <rect x="311" y="1" width="54" height="32" class="nonterminal"/>
   <text class="nonterminal" x="321" y="21">value</text>
   <rect x="313" y="47" width="84" height="32" rx="10"/>
   <rect x="311"
         y="45"
         width="84"
         height="32"
         class="terminal"
         rx="10"/>
   <text class="terminal" x="321" y="65">DEFAULT</text>
   <rect x="51" y="91" width="64" height="32" rx="10"/>
   <rect x="49"
         y="89"
         width="64"
         height="32"
         class="terminal"
         rx="10"/>
   <text class="terminal" x="59" y="109">RESET</text>
   <rect x="135" y="91" width="56" height="32"/>
   <rect x="133" y="89" width="56" height="32" class="nonterminal"/>
   <text class="nonterminal" x="143" y="109">name</text>
   <path class="line"
         d="m17 17 h2 m20 0 h10 m46 0 h10 m0 0 h10 m56 0 h10 m20 0 h10 m40 0 h10 m-80 0 h20 m60 0 h20 m-100 0 q10 0 10 10 m80 0 q0 -10 10 -10 m-90 10 v24 m80 0 v-24 m-80 24 q0 10 10 10 m60 0 q10 0 10 -10 m-70 10 h10 m28 0 h10 m0 0 h12 m40 -44 h10 m54 0 h10 m0 0 h30 m-124 0 h20 m104 0 h20 m-144 0 q10 0 10 10 m124 0 q0 -10 10 -10 m-134 10 v24 m124 0 v-24 m-124 24 q0 10 10 10 m104 0 q10 0 10 -10 m-114 10 h10 m84 0 h10 m-386 -44 h20 m386 0 h20 m-426 0 q10 0 10 10 m406 0 q0 -10 10 -10 m-416 10 v68 m406 0 v-68 m-406 68 q0 10 10 10 m386 0 q10 0 10 -10 m-396 10 h10 m64 0 h10 m0 0 h10 m56 0 h10 m0 0 h226 m23 -88 h-3"/>
   <polygon points="455 17 463 13 463 21"/>
   <polygon points="455 17 447 13 447 21"/>
</svg>
