<svg xmlns="http://www.w3.org/2000/svg" width="463" height="575">
   <polygon points="9 17 1 13 1 21"/>
   <polygon points="17 17 9 13 9 21"/>
   <rect x="31" y="3" width="66" height="32" rx="10"/>
   <rect x="29"
         y="1"
         width="66"
         height="32"
         class="terminal"
         rx="10"/>
   <text class="terminal" x="39" y="21">ALTER</text>
   <rect x="117" y="3" width="84" height="32" rx="10"/>
   <rect x="115"
         y="1"
         width="84"
         height="32"
         class="terminal"
         rx="10"/>
   <text class="terminal" x="125" y="21">DEFAULT</text>
   <rect x="221" y="3" width="102" height="32" rx="10"/>
   <rect x="219"
         y="1"
         width="102"
         height="32"
         class="terminal"
         rx="10"/>
   <text class="terminal" x="229" y="21">PRIVILEGES</text>
   <rect x="56" y="113" width="48" height="32" rx="10"/>
   <rect x="54"
         y="111"
         width="48"
         height="32"
         class="terminal"
         rx="10"/>
   <text class="terminal" x="64" y="131">FOR</text>
   <rect x="164" y="113" width="56" height="32" rx="10"/>
   <rect x="162"
         y="111"
         width="56"
         height="32"
         class="terminal"
         rx="10"/>
   <text class="terminal" x="172" y="131">ROLE</text>
   <rect x="164" y="157" width="56" height="32" rx="10"/>
   <rect x="162"
         y="155"
         width="56"
         height="32"
         class="terminal"
         rx="10"/>
   <text class="terminal" x="172" y="175">USER</text>
   <rect x="280" y="113" width="90" height="32"/>
   <rect x="278" y="111" width="90" height="32" class="nonterminal"/>
   <text class="nonterminal" x="288" y="131">target_role</text>
   <rect x="280" y="69" width="24" height="32" rx="10"/>
   <rect x="278"
         y="67"
         width="24"
         height="32"
         class="terminal"
         rx="10"/>
   <text class="terminal" x="288" y="87">,</text>
   <rect x="144" y="201" width="46" height="32" rx="10"/>
   <rect x="142"
         y="199"
         width="46"
         height="32"
         class="terminal"
         rx="10"/>
   <text class="terminal" x="152" y="219">ALL</text>
   <rect x="210" y="201" width="66" height="32" rx="10"/>
   <rect x="208"
         y="199"
         width="66"
         height="32"
         class="terminal"
         rx="10"/>
   <text class="terminal" x="218" y="219">ROLES</text>
   <rect x="45" y="327" width="34" height="32" rx="10"/>
   <rect x="43"
         y="325"
         width="34"
         height="32"
         class="terminal"
         rx="10"/>
   <text class="terminal" x="53" y="345">IN</text>
   <rect x="119" y="327" width="82" height="32" rx="10"/>
   <rect x="117"
         y="325"
         width="82"
         height="32"
         class="terminal"
         rx="10"/>
   <text class="terminal" x="127" y="345">SCHEMA</text>
   <rect x="241" y="327" width="114" height="32"/>
   <rect x="239" y="325" width="114" height="32" class="nonterminal"/>
   <text class="nonterminal" x="249" y="345">schema_name</text>
   <rect x="241" y="283" width="24" height="32" rx="10"/>
   <rect x="239"
         y="281"
         width="24"
         height="32"
         class="terminal"
         rx="10"/>
   <text class="terminal" x="249" y="301">,</text>
   <rect x="119" y="415" width="98" height="32" rx="10"/>
   <rect x="117"
         y="413"
         width="98"
         height="32"
         class="terminal"
         rx="10"/>
   <text class="terminal" x="127" y="433">DATABASE</text>
   <rect x="257" y="415" width="124" height="32"/>
   <rect x="255" y="413" width="124" height="32" class="nonterminal"/>
   <text class="nonterminal" x="265" y="433">database_name</text>
   <rect x="257" y="371" width="24" height="32" rx="10"/>
   <rect x="255"
         y="369"
         width="24"
         height="32"
         class="terminal"
         rx="10"/>
   <text class="terminal" x="265" y="389">,</text>
   <rect x="265" y="497" width="140" height="32"/>
   <rect x="263" y="495" width="140" height="32" class="nonterminal"/>
   <text class="nonterminal" x="273" y="515">abbreviated_grant</text>
   <rect x="265" y="541" width="150" height="32"/>
   <rect x="263" y="539" width="150" height="32" class="nonterminal"/>
   <text class="nonterminal" x="273" y="559">abbreviated_revoke</text>
   <path class="line"
         d="m17 17 h2 m0 0 h10 m66 0 h10 m0 0 h10 m84 0 h10 m0 0 h10 m102 0 h10 m2 0 l2 0 m2 0 l2 0 m2 0 l2 0 m-331 110 l2 0 m2 0 l2 0 m2 0 l2 0 m22 0 h10 m48 0 h10 m40 0 h10 m56 0 h10 m-96 0 h20 m76 0 h20 m-116 0 q10 0 10 10 m96 0 q0 -10 10 -10 m-106 10 v24 m96 0 v-24 m-96 24 q0 10 10 10 m76 0 q10 0 10 -10 m-86 10 h10 m56 0 h10 m40 -44 h10 m90 0 h10 m-130 0 l20 0 m-1 0 q-9 0 -9 -10 l0 -24 q0 -10 10 -10 m110 44 l20 0 m-20 0 q10 0 10 -10 l0 -24 q0 -10 -10 -10 m-110 0 h10 m24 0 h10 m0 0 h66 m-266 44 h20 m266 0 h20 m-306 0 q10 0 10 10 m286 0 q0 -10 10 -10 m-296 10 v68 m286 0 v-68 m-286 68 q0 10 10 10 m266 0 q10 0 10 -10 m-276 10 h10 m46 0 h10 m0 0 h10 m66 0 h10 m0 0 h114 m-374 -88 h20 m374 0 h20 m-414 0 q10 0 10 10 m394 0 q0 -10 10 -10 m-404 10 v102 m394 0 v-102 m-394 102 q0 10 10 10 m374 0 q10 0 10 -10 m-384 10 h10 m0 0 h364 m22 -122 l2 0 m2 0 l2 0 m2 0 l2 0 m-449 214 l2 0 m2 0 l2 0 m2 0 l2 0 m22 0 h10 m34 0 h10 m20 0 h10 m82 0 h10 m20 0 h10 m114 0 h10 m-154 0 l20 0 m-1 0 q-9 0 -9 -10 l0 -24 q0 -10 10 -10 m134 44 l20 0 m-20 0 q10 0 10 -10 l0 -24 q0 -10 -10 -10 m-134 0 h10 m24 0 h10 m0 0 h90 m20 44 h26 m-322 0 h20 m302 0 h20 m-342 0 q10 0 10 10 m322 0 q0 -10 10 -10 m-332 10 v68 m322 0 v-68 m-322 68 q0 10 10 10 m302 0 q10 0 10 -10 m-312 10 h10 m98 0 h10 m20 0 h10 m124 0 h10 m-164 0 l20 0 m-1 0 q-9 0 -9 -10 l0 -24 q0 -10 10 -10 m144 44 l20 0 m-20 0 q10 0 10 -10 l0 -24 q0 -10 -10 -10 m-144 0 h10 m24 0 h10 m0 0 h100 m-376 -44 h20 m396 0 h20 m-436 0 q10 0 10 10 m416 0 q0 -10 10 -10 m-426 10 v102 m416 0 v-102 m-416 102 q0 10 10 10 m396 0 q10 0 10 -10 m-406 10 h10 m0 0 h386 m22 -122 l2 0 m2 0 l2 0 m2 0 l2 0 m-240 170 l2 0 m2 0 l2 0 m2 0 l2 0 m22 0 h10 m140 0 h10 m0 0 h10 m-190 0 h20 m170 0 h20 m-210 0 q10 0 10 10 m190 0 q0 -10 10 -10 m-200 10 v24 m190 0 v-24 m-190 24 q0 10 10 10 m170 0 q10 0 10 -10 m-180 10 h10 m150 0 h10 m23 -44 h-3"/>
   <polygon points="453 511 461 507 461 515"/>
   <polygon points="453 511 445 507 445 515"/>
</svg>
