<svg xmlns="http://www.w3.org/2000/svg" width="411" height="221">
   <polygon points="9 17 1 13 1 21"/>
   <polygon points="17 17 9 13 9 21"/>
   <rect x="31" y="3" width="66" height="32" rx="10"/>
   <rect x="29"
         y="1"
         width="66"
         height="32"
         class="terminal"
         rx="10"/>
   <text class="terminal" x="39" y="21">ALTER</text>
   <rect x="117" y="3" width="84" height="32" rx="10"/>
   <rect x="115"
         y="1"
         width="84"
         height="32"
         class="terminal"
         rx="10"/>
   <text class="terminal" x="125" y="21">CLUSTER</text>
   <rect x="221" y="3" width="56" height="32"/>
   <rect x="219" y="1" width="56" height="32" class="nonterminal"/>
   <text class="nonterminal" x="229" y="21">name</text>
   <rect x="297" y="3" width="46" height="32" rx="10"/>
   <rect x="295"
         y="1"
         width="46"
         height="32"
         class="terminal"
         rx="10"/>
   <text class="terminal" x="305" y="21">SET</text>
   <rect x="363" y="3" width="26" height="32" rx="10"/>
   <rect x="361"
         y="1"
         width="26"
         height="32"
         class="terminal"
         rx="10"/>
   <text class="terminal" x="371" y="21">(</text>
   <rect x="67" y="85" width="112" height="32"/>
   <rect x="65" y="83" width="112" height="32" class="nonterminal"/>
   <text class="nonterminal" x="75" y="103">cluster_option</text>
   <rect x="199" y="85" width="28" height="32" rx="10"/>
   <rect x="197"
         y="83"
         width="28"
         height="32"
         class="terminal"
         rx="10"/>
   <text class="terminal" x="207" y="103">=</text>
   <rect x="247" y="85" width="54" height="32"/>
   <rect x="245" y="83" width="54" height="32" class="nonterminal"/>
   <text class="nonterminal" x="255" y="103">value</text>
   <rect x="361" y="85" width="26" height="32" rx="10"/>
   <rect x="359"
         y="83"
         width="26"
         height="32"
         class="terminal"
         rx="10"/>
   <text class="terminal" x="369" y="103">)</text>
   <rect x="183" y="187" width="58" height="32" rx="10"/>
   <rect x="181"
         y="185"
         width="58"
         height="32"
         class="terminal"
         rx="10"/>
   <text class="terminal" x="191" y="205">WITH</text>
   <rect x="261" y="187" width="102" height="32"/>
   <rect x="259" y="185" width="102" height="32" class="nonterminal"/>
   <text class="nonterminal" x="269" y="205">with_options</text>
   <path class="line"
         d="m17 17 h2 m0 0 h10 m66 0 h10 m0 0 h10 m84 0 h10 m0 0 h10 m56 0 h10 m0 0 h10 m46 0 h10 m0 0 h10 m26 0 h10 m2 0 l2 0 m2 0 l2 0 m2 0 l2 0 m-406 82 l2 0 m2 0 l2 0 m2 0 l2 0 m42 0 h10 m112 0 h10 m0 0 h10 m28 0 h10 m0 0 h10 m54 0 h10 m-274 0 l20 0 m-1 0 q-9 0 -9 -10 l0 -12 q0 -10 10 -10 m254 32 l20 0 m-20 0 q10 0 10 -10 l0 -12 q0 -10 -10 -10 m-254 0 h10 m0 0 h244 m-294 32 h20 m294 0 h20 m-334 0 q10 0 10 10 m314 0 q0 -10 10 -10 m-324 10 v14 m314 0 v-14 m-314 14 q0 10 10 10 m294 0 q10 0 10 -10 m-304 10 h10 m0 0 h284 m20 -34 h10 m26 0 h10 m2 0 l2 0 m2 0 l2 0 m2 0 l2 0 m-268 70 l2 0 m2 0 l2 0 m2 0 l2 0 m22 0 h10 m0 0 h190 m-220 0 h20 m200 0 h20 m-240 0 q10 0 10 10 m220 0 q0 -10 10 -10 m-230 10 v12 m220 0 v-12 m-220 12 q0 10 10 10 m200 0 q10 0 10 -10 m-210 10 h10 m58 0 h10 m0 0 h10 m102 0 h10 m23 -32 h-3"/>
   <polygon points="401 169 409 165 409 173"/>
   <polygon points="401 169 393 165 393 173"/>
</svg>
