<svg xmlns="http://www.w3.org/2000/svg" width="595" height="135">
   <polygon points="9 17 1 13 1 21"/>
   <polygon points="17 17 9 13 9 21"/>
   <rect x="31" y="3" width="46" height="32" rx="10"/>
   <rect x="29"
         y="1"
         width="46"
         height="32"
         class="terminal"
         rx="10"/>
   <text class="terminal" x="39" y="21">SET</text>
   <rect x="97" y="3" width="26" height="32" rx="10"/>
   <rect x="95"
         y="1"
         width="26"
         height="32"
         class="terminal"
         rx="10"/>
   <text class="terminal" x="105" y="21">(</text>
   <rect x="143" y="3" width="140" height="32" rx="10"/>
   <rect x="141"
         y="1"
         width="140"
         height="32"
         class="terminal"
         rx="10"/>
   <text class="terminal" x="151" y="21">RETAIN HISTORY</text>
   <rect x="323" y="35" width="28" height="32" rx="10"/>
   <rect x="321"
         y="33"
         width="28"
         height="32"
         class="terminal"
         rx="10"/>
   <text class="terminal" x="331" y="53">=</text>
   <rect x="391" y="3" width="48" height="32" rx="10"/>
   <rect x="389"
         y="1"
         width="48"
         height="32"
         class="terminal"
         rx="10"/>
   <text class="terminal" x="399" y="21">FOR</text>
   <rect x="459" y="3" width="114" height="32"/>
   <rect x="457" y="1" width="114" height="32" class="nonterminal"/>
   <text class="nonterminal" x="467" y="21">retention_time</text>
   <rect x="541" y="101" width="26" height="32" rx="10"/>
   <rect x="539"
         y="99"
         width="26"
         height="32"
         class="terminal"
         rx="10"/>
   <text class="terminal" x="549" y="119">)</text>
   <path class="line"
         d="m17 17 h2 m0 0 h10 m46 0 h10 m0 0 h10 m26 0 h10 m0 0 h10 m140 0 h10 m20 0 h10 m0 0 h38 m-68 0 h20 m48 0 h20 m-88 0 q10 0 10 10 m68 0 q0 -10 10 -10 m-78 10 v12 m68 0 v-12 m-68 12 q0 10 10 10 m48 0 q10 0 10 -10 m-58 10 h10 m28 0 h10 m20 -32 h10 m48 0 h10 m0 0 h10 m114 0 h10 m2 0 l2 0 m2 0 l2 0 m2 0 l2 0 m-76 98 l2 0 m2 0 l2 0 m2 0 l2 0 m2 0 h10 m26 0 h10 m3 0 h-3"/>
   <polygon points="585 115 593 111 593 119"/>
   <polygon points="585 115 577 111 577 119"/>
</svg>
