<svg xmlns="http://www.w3.org/2000/svg" width="593" height="135">
   <polygon points="9 17 1 13 1 21"/>
   <polygon points="17 17 9 13 9 21"/>
   <rect x="31" y="3" width="66" height="32" rx="10"/>
   <rect x="29"
         y="1"
         width="66"
         height="32"
         class="terminal"
         rx="10"/>
   <text class="terminal" x="39" y="21">ALTER</text>
   <rect x="117" y="3" width="166" height="32" rx="10"/>
   <rect x="115"
         y="1"
         width="166"
         height="32"
         class="terminal"
         rx="10"/>
   <text class="terminal" x="125" y="21">MATERIALIZED VIEW</text>
   <rect x="323" y="35" width="86" height="32" rx="10"/>
   <rect x="321"
         y="33"
         width="86"
         height="32"
         class="terminal"
         rx="10"/>
   <text class="terminal" x="331" y="53">IF EXISTS</text>
   <rect x="449" y="3" width="56" height="32"/>
   <rect x="447" y="1" width="56" height="32" class="nonterminal"/>
   <text class="nonterminal" x="457" y="21">name</text>
   <rect x="525" y="3" width="46" height="32" rx="10"/>
   <rect x="523"
         y="1"
         width="46"
         height="32"
         class="terminal"
         rx="10"/>
   <text class="terminal" x="533" y="21">SET</text>
   <rect x="299" y="101" width="34" height="32" rx="10"/>
   <rect x="297"
         y="99"
         width="34"
         height="32"
         class="terminal"
         rx="10"/>
   <text class="terminal" x="307" y="119">IN</text>
   <rect x="353" y="101" width="84" height="32" rx="10"/>
   <rect x="351"
         y="99"
         width="84"
         height="32"
         class="terminal"
         rx="10"/>
   <text class="terminal" x="361" y="119">CLUSTER</text>
   <rect x="457" y="101" width="108" height="32"/>
   <rect x="455" y="99" width="108" height="32" class="nonterminal"/>
   <text class="nonterminal" x="465" y="119">cluster_name</text>
   <path class="line"
         d="m17 17 h2 m0 0 h10 m66 0 h10 m0 0 h10 m166 0 h10 m20 0 h10 m0 0 h96 m-126 0 h20 m106 0 h20 m-146 0 q10 0 10 10 m126 0 q0 -10 10 -10 m-136 10 v12 m126 0 v-12 m-126 12 q0 10 10 10 m106 0 q10 0 10 -10 m-116 10 h10 m86 0 h10 m20 -32 h10 m56 0 h10 m0 0 h10 m46 0 h10 m2 0 l2 0 m2 0 l2 0 m2 0 l2 0 m-316 98 l2 0 m2 0 l2 0 m2 0 l2 0 m2 0 h10 m34 0 h10 m0 0 h10 m84 0 h10 m0 0 h10 m108 0 h10 m3 0 h-3"/>
   <polygon points="583 115 591 111 591 119"/>
   <polygon points="583 115 575 111 575 119"/>
</svg>
