<svg xmlns="http://www.w3.org/2000/svg" width="485" height="279">
   <polygon points="11 17 3 13 3 21"/>
   <polygon points="19 17 11 13 11 21"/>
   <rect x="33" y="3" width="66" height="32" rx="10"/>
   <rect x="31"
         y="1"
         width="66"
         height="32"
         class="terminal"
         rx="10"/>
   <text class="terminal" x="41" y="21">ALTER</text>
   <rect x="119" y="3" width="62" height="32" rx="10"/>
   <rect x="117"
         y="1"
         width="62"
         height="32"
         class="terminal"
         rx="10"/>
   <text class="terminal" x="127" y="21">INDEX</text>
   <rect x="201" y="3" width="56" height="32"/>
   <rect x="199" y="1" width="56" height="32" class="nonterminal"/>
   <text class="nonterminal" x="209" y="21">name</text>
   <rect x="45" y="69" width="46" height="32" rx="10"/>
   <rect x="43"
         y="67"
         width="46"
         height="32"
         class="terminal"
         rx="10"/>
   <text class="terminal" x="53" y="87">SET</text>
   <rect x="131" y="69" width="86" height="32" rx="10"/>
   <rect x="129"
         y="67"
         width="86"
         height="32"
         class="terminal"
         rx="10"/>
   <text class="terminal" x="139" y="87">ENABLED</text>
   <rect x="131" y="157" width="26" height="32" rx="10"/>
   <rect x="129"
         y="155"
         width="26"
         height="32"
         class="terminal"
         rx="10"/>
   <text class="terminal" x="139" y="175">(</text>
   <rect x="197" y="157" width="48" height="32"/>
   <rect x="195" y="155" width="48" height="32" class="nonterminal"/>
   <text class="nonterminal" x="205" y="175">field</text>
   <rect x="265" y="157" width="28" height="32" rx="10"/>
   <rect x="263"
         y="155"
         width="28"
         height="32"
         class="terminal"
         rx="10"/>
   <text class="terminal" x="273" y="175">=</text>
   <rect x="313" y="157" width="38" height="32"/>
   <rect x="311" y="155" width="38" height="32" class="nonterminal"/>
   <text class="nonterminal" x="321" y="175">val</text>
   <rect x="197" y="113" width="24" height="32" rx="10"/>
   <rect x="195"
         y="111"
         width="24"
         height="32"
         class="terminal"
         rx="10"/>
   <text class="terminal" x="205" y="131">,</text>
   <rect x="391" y="157" width="26" height="32" rx="10"/>
   <rect x="389"
         y="155"
         width="26"
         height="32"
         class="terminal"
         rx="10"/>
   <text class="terminal" x="399" y="175">)</text>
   <rect x="45" y="245" width="64" height="32" rx="10"/>
   <rect x="43"
         y="243"
         width="64"
         height="32"
         class="terminal"
         rx="10"/>
   <text class="terminal" x="53" y="263">RESET</text>
   <rect x="129" y="245" width="26" height="32" rx="10"/>
   <rect x="127"
         y="243"
         width="26"
         height="32"
         class="terminal"
         rx="10"/>
   <text class="terminal" x="137" y="263">(</text>
   <rect x="195" y="245" width="48" height="32"/>
   <rect x="193" y="243" width="48" height="32" class="nonterminal"/>
   <text class="nonterminal" x="203" y="263">field</text>
   <rect x="195" y="201" width="24" height="32" rx="10"/>
   <rect x="193"
         y="199"
         width="24"
         height="32"
         class="terminal"
         rx="10"/>
   <text class="terminal" x="203" y="219">,</text>
   <rect x="283" y="245" width="26" height="32" rx="10"/>
   <rect x="281"
         y="243"
         width="26"
         height="32"
         class="terminal"
         rx="10"/>
   <text class="terminal" x="291" y="263">)</text>
   <path class="line"
         d="m19 17 h2 m0 0 h10 m66 0 h10 m0 0 h10 m62 0 h10 m0 0 h10 m56 0 h10 m2 0 l2 0 m2 0 l2 0 m2 0 l2 0 m-276 66 l2 0 m2 0 l2 0 m2 0 l2 0 m22 0 h10 m46 0 h10 m20 0 h10 m86 0 h10 m0 0 h200 m-326 0 h20 m306 0 h20 m-346 0 q10 0 10 10 m326 0 q0 -10 10 -10 m-336 10 v68 m326 0 v-68 m-326 68 q0 10 10 10 m306 0 q10 0 10 -10 m-316 10 h10 m26 0 h10 m20 0 h10 m48 0 h10 m0 0 h10 m28 0 h10 m0 0 h10 m38 0 h10 m-194 0 l20 0 m-1 0 q-9 0 -9 -10 l0 -24 q0 -10 10 -10 m174 44 l20 0 m-20 0 q10 0 10 -10 l0 -24 q0 -10 -10 -10 m-174 0 h10 m24 0 h10 m0 0 h130 m20 44 h10 m26 0 h10 m-412 -88 h20 m412 0 h20 m-452 0 q10 0 10 10 m432 0 q0 -10 10 -10 m-442 10 v156 m432 0 v-156 m-432 156 q0 10 10 10 m412 0 q10 0 10 -10 m-422 10 h10 m64 0 h10 m0 0 h10 m26 0 h10 m20 0 h10 m48 0 h10 m-88 0 l20 0 m-1 0 q-9 0 -9 -10 l0 -24 q0 -10 10 -10 m68 44 l20 0 m-20 0 q10 0 10 -10 l0 -24 q0 -10 -10 -10 m-68 0 h10 m24 0 h10 m0 0 h24 m20 44 h10 m26 0 h10 m0 0 h128 m23 -176 h-3"/>
   <polygon points="475 83 483 79 483 87"/>
   <polygon points="475 83 467 79 467 87"/>
</svg>
