<svg xmlns="http://www.w3.org/2000/svg" width="421" height="419">
   <polygon points="9 17 1 13 1 21"/>
   <polygon points="17 17 9 13 9 21"/>
   <rect x="31" y="3" width="66" height="32" rx="10"/>
   <rect x="29"
         y="1"
         width="66"
         height="32"
         class="terminal"
         rx="10"/>
   <text class="terminal" x="39" y="21">ALTER</text>
   <rect x="117" y="3" width="56" height="32" rx="10"/>
   <rect x="115"
         y="1"
         width="56"
         height="32"
         class="terminal"
         rx="10"/>
   <text class="terminal" x="125" y="21">ROLE</text>
   <rect x="193" y="3" width="88" height="32"/>
   <rect x="191" y="1" width="88" height="32" class="nonterminal"/>
   <text class="nonterminal" x="201" y="21">role_name</text>
   <rect x="321" y="35" width="58" height="32" rx="10"/>
   <rect x="319"
         y="33"
         width="58"
         height="32"
         class="terminal"
         rx="10"/>
   <text class="terminal" x="329" y="53">WITH</text>
   <rect x="211" y="365" width="76" height="32" rx="10"/>
   <rect x="209"
         y="363"
         width="76"
         height="32"
         class="terminal"
         rx="10"/>
   <text class="terminal" x="219" y="383">INHERIT</text>
   <rect x="211" y="321" width="114" height="32" rx="10"/>
   <rect x="209"
         y="319"
         width="114"
         height="32"
         class="terminal"
         rx="10"/>
   <text class="terminal" x="219" y="339">CREATEROLE</text>
   <rect x="211" y="277" width="134" height="32" rx="10"/>
   <rect x="209"
         y="275"
         width="134"
         height="32"
         class="terminal"
         rx="10"/>
   <text class="terminal" x="219" y="295">NOCREATEROLE</text>
   <rect x="211" y="233" width="96" height="32" rx="10"/>
   <rect x="209"
         y="231"
         width="96"
         height="32"
         class="terminal"
         rx="10"/>
   <text class="terminal" x="219" y="251">CREATEDB</text>
   <rect x="211" y="189" width="118" height="32" rx="10"/>
   <rect x="209"
         y="187"
         width="118"
         height="32"
         class="terminal"
         rx="10"/>
   <text class="terminal" x="219" y="207">NOCREATEDB</text>
   <rect x="211" y="145" width="142" height="32" rx="10"/>
   <rect x="209"
         y="143"
         width="142"
         height="32"
         class="terminal"
         rx="10"/>
   <text class="terminal" x="219" y="163">CREATECLUSTER</text>
   <rect x="211" y="101" width="162" height="32" rx="10"/>
   <rect x="209"
         y="99"
         width="162"
         height="32"
         class="terminal"
         rx="10"/>
   <text class="terminal" x="219" y="119">NOCREATECLUSTER</text>
   <path class="line"
         d="m17 17 h2 m0 0 h10 m66 0 h10 m0 0 h10 m56 0 h10 m0 0 h10 m88 0 h10 m20 0 h10 m0 0 h68 m-98 0 h20 m78 0 h20 m-118 0 q10 0 10 10 m98 0 q0 -10 10 -10 m-108 10 v12 m98 0 v-12 m-98 12 q0 10 10 10 m78 0 q10 0 10 -10 m-88 10 h10 m58 0 h10 m22 -32 l2 0 m2 0 l2 0 m2 0 l2 0 m-252 396 l2 0 m2 0 l2 0 m2 0 l2 0 m22 0 h10 m0 0 h172 m-202 0 l20 0 m-1 0 q-9 0 -9 -10 l0 -14 q0 -10 10 -10 m182 34 l20 0 m-20 0 q10 0 10 -10 l0 -14 q0 -10 -10 -10 m-182 0 h10 m76 0 h10 m0 0 h86 m-192 10 l0 -44 q0 -10 10 -10 m192 54 l0 -44 q0 -10 -10 -10 m-182 0 h10 m114 0 h10 m0 0 h48 m-192 10 l0 -44 q0 -10 10 -10 m192 54 l0 -44 q0 -10 -10 -10 m-182 0 h10 m134 0 h10 m0 0 h28 m-192 10 l0 -44 q0 -10 10 -10 m192 54 l0 -44 q0 -10 -10 -10 m-182 0 h10 m96 0 h10 m0 0 h66 m-192 10 l0 -44 q0 -10 10 -10 m192 54 l0 -44 q0 -10 -10 -10 m-182 0 h10 m118 0 h10 m0 0 h44 m-192 10 l0 -44 q0 -10 10 -10 m192 54 l0 -44 q0 -10 -10 -10 m-182 0 h10 m142 0 h10 m0 0 h20 m-192 10 l0 -44 q0 -10 10 -10 m192 54 l0 -44 q0 -10 -10 -10 m-182 0 h10 m162 0 h10 m23 298 h-3"/>
   <polygon points="411 413 419 409 419 417"/>
   <polygon points="411 413 403 409 403 417"/>
</svg>
