<svg xmlns="http://www.w3.org/2000/svg" width="543" height="135">
   <polygon points="11 17 3 13 3 21"/>
   <polygon points="19 17 11 13 11 21"/>
   <rect x="33" y="3" width="66" height="32" rx="10"/>
   <rect x="31"
         y="1"
         width="66"
         height="32"
         class="terminal"
         rx="10"/>
   <text class="terminal" x="41" y="21">ALTER</text>
   <rect x="119" y="3" width="166" height="32" rx="10"/>
   <rect x="117"
         y="1"
         width="166"
         height="32"
         class="terminal"
         rx="10"/>
   <text class="terminal" x="127" y="21">MATERIALIZED VIEW</text>
   <rect x="305" y="3" width="56" height="32"/>
   <rect x="303" y="1" width="56" height="32" class="nonterminal"/>
   <text class="nonterminal" x="313" y="21">name</text>
   <rect x="381" y="3" width="46" height="32" rx="10"/>
   <rect x="379"
         y="1"
         width="46"
         height="32"
         class="terminal"
         rx="10"/>
   <text class="terminal" x="389" y="21">SET</text>
   <rect x="447" y="3" width="26" height="32" rx="10"/>
   <rect x="445"
         y="1"
         width="26"
         height="32"
         class="terminal"
         rx="10"/>
   <text class="terminal" x="455" y="21">(</text>
   <rect x="25" y="69" width="140" height="32" rx="10"/>
   <rect x="23"
         y="67"
         width="140"
         height="32"
         class="terminal"
         rx="10"/>
   <text class="terminal" x="33" y="87">RETAIN HISTORY</text>
   <rect x="205" y="101" width="28" height="32" rx="10"/>
   <rect x="203"
         y="99"
         width="28"
         height="32"
         class="terminal"
         rx="10"/>
   <text class="terminal" x="213" y="119">=</text>
   <rect x="273" y="69" width="48" height="32" rx="10"/>
   <rect x="271"
         y="67"
         width="48"
         height="32"
         class="terminal"
         rx="10"/>
   <text class="terminal" x="281" y="87">FOR</text>
   <rect x="341" y="69" width="128" height="32"/>
   <rect x="339" y="67" width="128" height="32" class="nonterminal"/>
   <text class="nonterminal" x="349" y="87">retention_period</text>
   <rect x="489" y="69" width="26" height="32" rx="10"/>
   <rect x="487"
         y="67"
         width="26"
         height="32"
         class="terminal"
         rx="10"/>
   <text class="terminal" x="497" y="87">)</text>
   <path class="line"
         d="m19 17 h2 m0 0 h10 m66 0 h10 m0 0 h10 m166 0 h10 m0 0 h10 m56 0 h10 m0 0 h10 m46 0 h10 m0 0 h10 m26 0 h10 m2 0 l2 0 m2 0 l2 0 m2 0 l2 0 m-492 66 l2 0 m2 0 l2 0 m2 0 l2 0 m2 0 h10 m140 0 h10 m20 0 h10 m0 0 h38 m-68 0 h20 m48 0 h20 m-88 0 q10 0 10 10 m68 0 q0 -10 10 -10 m-78 10 v12 m68 0 v-12 m-68 12 q0 10 10 10 m48 0 q10 0 10 -10 m-58 10 h10 m28 0 h10 m20 -32 h10 m48 0 h10 m0 0 h10 m128 0 h10 m0 0 h10 m26 0 h10 m3 0 h-3"/>
   <polygon points="533 83 541 79 541 87"/>
   <polygon points="533 83 525 79 525 87"/>
</svg>
