<svg xmlns="http://www.w3.org/2000/svg" width="437" height="235">
   <polygon points="11 17 3 13 3 21"/>
   <polygon points="19 17 11 13 11 21"/>
   <rect x="33" y="3" width="64" height="32" rx="10"/>
   <rect x="31"
         y="1"
         width="64"
         height="32"
         class="terminal"
         rx="10"/>
   <text class="terminal" x="41" y="21">ALTER</text>
   <rect x="117" y="3" width="62" height="32" rx="10"/>
   <rect x="115"
         y="1"
         width="62"
         height="32"
         class="terminal"
         rx="10"/>
   <text class="terminal" x="125" y="21">INDEX</text>
   <rect x="199" y="3" width="54" height="32"/>
   <rect x="197" y="1" width="54" height="32" class="nonterminal"/>
   <text class="nonterminal" x="207" y="21">name</text>
   <rect x="45" y="113" width="46" height="32" rx="10"/>
   <rect x="43"
         y="111"
         width="46"
         height="32"
         class="terminal"
         rx="10"/>
   <text class="terminal" x="53" y="131">SET</text>
   <rect x="111" y="113" width="24" height="32" rx="10"/>
   <rect x="109"
         y="111"
         width="24"
         height="32"
         class="terminal"
         rx="10"/>
   <text class="terminal" x="119" y="131">(</text>
   <rect x="175" y="113" width="46" height="32"/>
   <rect x="173" y="111" width="46" height="32" class="nonterminal"/>
   <text class="nonterminal" x="183" y="131">field</text>
   <rect x="241" y="113" width="26" height="32" rx="10"/>
   <rect x="239"
         y="111"
         width="26"
         height="32"
         class="terminal"
         rx="10"/>
   <text class="terminal" x="249" y="131">=</text>
   <rect x="287" y="113" width="38" height="32"/>
   <rect x="285" y="111" width="38" height="32" class="nonterminal"/>
   <text class="nonterminal" x="295" y="131">val</text>
   <rect x="175" y="69" width="24" height="32" rx="10"/>
   <rect x="173"
         y="67"
         width="24"
         height="32"
         class="terminal"
         rx="10"/>
   <text class="terminal" x="183" y="87">,</text>
   <rect x="45" y="201" width="64" height="32" rx="10"/>
   <rect x="43"
         y="199"
         width="64"
         height="32"
         class="terminal"
         rx="10"/>
   <text class="terminal" x="53" y="219">RESET</text>
   <rect x="129" y="201" width="24" height="32" rx="10"/>
   <rect x="127"
         y="199"
         width="24"
         height="32"
         class="terminal"
         rx="10"/>
   <text class="terminal" x="137" y="219">(</text>
   <rect x="193" y="201" width="46" height="32"/>
   <rect x="191" y="199" width="46" height="32" class="nonterminal"/>
   <text class="nonterminal" x="201" y="219">field</text>
   <rect x="193" y="157" width="24" height="32" rx="10"/>
   <rect x="191"
         y="155"
         width="24"
         height="32"
         class="terminal"
         rx="10"/>
   <text class="terminal" x="201" y="175">,</text>
   <rect x="385" y="113" width="24" height="32" rx="10"/>
   <rect x="383"
         y="111"
         width="24"
         height="32"
         class="terminal"
         rx="10"/>
   <text class="terminal" x="393" y="131">)</text>
   <path class="line"
         d="m19 17 h2 m0 0 h10 m64 0 h10 m0 0 h10 m62 0 h10 m0 0 h10 m54 0 h10 m2 0 l2 0 m2 0 l2 0 m2 0 l2 0 m-272 110 l2 0 m2 0 l2 0 m2 0 l2 0 m22 0 h10 m46 0 h10 m0 0 h10 m24 0 h10 m20 0 h10 m46 0 h10 m0 0 h10 m26 0 h10 m0 0 h10 m38 0 h10 m-190 0 l20 0 m-1 0 q-9 0 -9 -10 l0 -24 q0 -10 10 -10 m170 44 l20 0 m-20 0 q10 0 10 -10 l0 -24 q0 -10 -10 -10 m-170 0 h10 m24 0 h10 m0 0 h126 m-320 44 h20 m320 0 h20 m-360 0 q10 0 10 10 m340 0 q0 -10 10 -10 m-350 10 v68 m340 0 v-68 m-340 68 q0 10 10 10 m320 0 q10 0 10 -10 m-330 10 h10 m64 0 h10 m0 0 h10 m24 0 h10 m20 0 h10 m46 0 h10 m-86 0 l20 0 m-1 0 q-9 0 -9 -10 l0 -24 q0 -10 10 -10 m66 44 l20 0 m-20 0 q10 0 10 -10 l0 -24 q0 -10 -10 -10 m-66 0 h10 m24 0 h10 m0 0 h22 m20 44 h86 m20 -88 h10 m24 0 h10 m3 0 h-3"/>
   <polygon points="427 127 435 123 435 131"/>
   <polygon points="427 127 419 123 419 131"/>
</svg>
