<svg xmlns="http://www.w3.org/2000/svg" width="523" height="69">
   <polygon points="9 17 1 13 1 21"/>
   <polygon points="17 17 9 13 9 21"/>
   <rect x="31" y="3" width="66" height="32" rx="10"/>
   <rect x="29"
         y="1"
         width="66"
         height="32"
         class="terminal"
         rx="10"/>
   <text class="terminal" x="39" y="21">ALTER</text>
   <rect x="117" y="3" width="56" height="32" rx="10"/>
   <rect x="115"
         y="1"
         width="56"
         height="32"
         class="terminal"
         rx="10"/>
   <text class="terminal" x="125" y="21">ROLE</text>
   <rect x="193" y="3" width="88" height="32"/>
   <rect x="191" y="1" width="88" height="32" class="nonterminal"/>
   <text class="nonterminal" x="201" y="21">role_name</text>
   <rect x="321" y="35" width="58" height="32" rx="10"/>
   <rect x="319"
         y="33"
         width="58"
         height="32"
         class="terminal"
         rx="10"/>
   <text class="terminal" x="329" y="53">WITH</text>
   <rect x="419" y="3" width="76" height="32" rx="10"/>
   <rect x="417"
         y="1"
         width="76"
         height="32"
         class="terminal"
         rx="10"/>
   <text class="terminal" x="427" y="21">INHERIT</text>
   <path class="line"
         d="m17 17 h2 m0 0 h10 m66 0 h10 m0 0 h10 m56 0 h10 m0 0 h10 m88 0 h10 m20 0 h10 m0 0 h68 m-98 0 h20 m78 0 h20 m-118 0 q10 0 10 10 m98 0 q0 -10 10 -10 m-108 10 v12 m98 0 v-12 m-98 12 q0 10 10 10 m78 0 q10 0 10 -10 m-88 10 h10 m58 0 h10 m20 -32 h10 m76 0 h10 m3 0 h-3"/>
   <polygon points="513 17 521 13 521 21"/>
   <polygon points="513 17 505 13 505 21"/>
</svg>
