<svg xmlns="http://www.w3.org/2000/svg" width="253" height="69">
   <polygon points="9 17 1 13 1 21"/>
   <polygon points="17 17 9 13 9 21"/>
   <rect x="51" y="35" width="58" height="32" rx="10"/>
   <rect x="49"
         y="33"
         width="58"
         height="32"
         class="terminal"
         rx="10"/>
   <text class="terminal" x="59" y="53">WITH</text>
   <rect x="149" y="3" width="76" height="32" rx="10"/>
   <rect x="147"
         y="1"
         width="76"
         height="32"
         class="terminal"
         rx="10"/>
   <text class="terminal" x="157" y="21">INHERIT</text>
   <path class="line"
         d="m17 17 h2 m20 0 h10 m0 0 h68 m-98 0 h20 m78 0 h20 m-118 0 q10 0 10 10 m98 0 q0 -10 10 -10 m-108 10 v12 m98 0 v-12 m-98 12 q0 10 10 10 m78 0 q10 0 10 -10 m-88 10 h10 m58 0 h10 m20 -32 h10 m76 0 h10 m3 0 h-3"/>
   <polygon points="243 17 251 13 251 21"/>
   <polygon points="243 17 235 13 235 21"/>
</svg>
