<svg xmlns="http://www.w3.org/2000/svg" width="463" height="519">
   <polygon points="9 17 1 13 1 21"/>
   <polygon points="17 17 9 13 9 21"/>
   <rect x="31" y="3" width="66" height="32" rx="10"/>
   <rect x="29"
         y="1"
         width="66"
         height="32"
         class="terminal"
         rx="10"/>
   <text class="terminal" x="39" y="21">ALTER</text>
   <rect x="117" y="3" width="84" height="32" rx="10"/>
   <rect x="115"
         y="1"
         width="84"
         height="32"
         class="terminal"
         rx="10"/>
   <text class="terminal" x="125" y="21">DEFAULT</text>
   <rect x="221" y="3" width="102" height="32" rx="10"/>
   <rect x="219"
         y="1"
         width="102"
         height="32"
         class="terminal"
         rx="10"/>
   <text class="terminal" x="229" y="21">PRIVILEGES</text>
   <rect x="119" y="85" width="48" height="32" rx="10"/>
   <rect x="117"
         y="83"
         width="48"
         height="32"
         class="terminal"
         rx="10"/>
   <text class="terminal" x="127" y="103">FOR</text>
   <rect x="207" y="117" width="56" height="32" rx="10"/>
   <rect x="205"
         y="115"
         width="56"
         height="32"
         class="terminal"
         rx="10"/>
   <text class="terminal" x="215" y="135">ROLE</text>
   <rect x="207" y="161" width="56" height="32" rx="10"/>
   <rect x="205"
         y="159"
         width="56"
         height="32"
         class="terminal"
         rx="10"/>
   <text class="terminal" x="215" y="179">USER</text>
   <rect x="303" y="85" width="44" height="32"/>
   <rect x="301" y="83" width="44" height="32" class="nonterminal"/>
   <text class="nonterminal" x="311" y="103">role</text>
   <rect x="45" y="271" width="34" height="32" rx="10"/>
   <rect x="43"
         y="269"
         width="34"
         height="32"
         class="terminal"
         rx="10"/>
   <text class="terminal" x="53" y="289">IN</text>
   <rect x="119" y="271" width="82" height="32" rx="10"/>
   <rect x="117"
         y="269"
         width="82"
         height="32"
         class="terminal"
         rx="10"/>
   <text class="terminal" x="127" y="289">SCHEMA</text>
   <rect x="241" y="271" width="114" height="32"/>
   <rect x="239" y="269" width="114" height="32" class="nonterminal"/>
   <text class="nonterminal" x="249" y="289">schema_name</text>
   <rect x="241" y="227" width="24" height="32" rx="10"/>
   <rect x="239"
         y="225"
         width="24"
         height="32"
         class="terminal"
         rx="10"/>
   <text class="terminal" x="249" y="245">,</text>
   <rect x="119" y="359" width="98" height="32" rx="10"/>
   <rect x="117"
         y="357"
         width="98"
         height="32"
         class="terminal"
         rx="10"/>
   <text class="terminal" x="127" y="377">DATABASE</text>
   <rect x="257" y="359" width="124" height="32"/>
   <rect x="255" y="357" width="124" height="32" class="nonterminal"/>
   <text class="nonterminal" x="265" y="377">database_name</text>
   <rect x="257" y="315" width="24" height="32" rx="10"/>
   <rect x="255"
         y="313"
         width="24"
         height="32"
         class="terminal"
         rx="10"/>
   <text class="terminal" x="265" y="333">,</text>
   <rect x="265" y="441" width="140" height="32"/>
   <rect x="263" y="439" width="140" height="32" class="nonterminal"/>
   <text class="nonterminal" x="273" y="459">abbreviated_grant</text>
   <rect x="265" y="485" width="150" height="32"/>
   <rect x="263" y="483" width="150" height="32" class="nonterminal"/>
   <text class="nonterminal" x="273" y="503">abbreviated_revoke</text>
   <path class="line"
         d="m17 17 h2 m0 0 h10 m66 0 h10 m0 0 h10 m84 0 h10 m0 0 h10 m102 0 h10 m2 0 l2 0 m2 0 l2 0 m2 0 l2 0 m-268 50 l2 0 m2 0 l2 0 m2 0 l2 0 m22 0 h10 m0 0 h238 m-268 0 h20 m248 0 h20 m-288 0 q10 0 10 10 m268 0 q0 -10 10 -10 m-278 10 v12 m268 0 v-12 m-268 12 q0 10 10 10 m248 0 q10 0 10 -10 m-258 10 h10 m48 0 h10 m20 0 h10 m0 0 h66 m-96 0 h20 m76 0 h20 m-116 0 q10 0 10 10 m96 0 q0 -10 10 -10 m-106 10 v12 m96 0 v-12 m-96 12 q0 10 10 10 m76 0 q10 0 10 -10 m-86 10 h10 m56 0 h10 m-86 -10 v20 m96 0 v-20 m-96 20 v24 m96 0 v-24 m-96 24 q0 10 10 10 m76 0 q10 0 10 -10 m-86 10 h10 m56 0 h10 m20 -76 h10 m44 0 h10 m22 -32 l2 0 m2 0 l2 0 m2 0 l2 0 m-386 218 l2 0 m2 0 l2 0 m2 0 l2 0 m22 0 h10 m34 0 h10 m20 0 h10 m82 0 h10 m20 0 h10 m114 0 h10 m-154 0 l20 0 m-1 0 q-9 0 -9 -10 l0 -24 q0 -10 10 -10 m134 44 l20 0 m-20 0 q10 0 10 -10 l0 -24 q0 -10 -10 -10 m-134 0 h10 m24 0 h10 m0 0 h90 m20 44 h26 m-322 0 h20 m302 0 h20 m-342 0 q10 0 10 10 m322 0 q0 -10 10 -10 m-332 10 v68 m322 0 v-68 m-322 68 q0 10 10 10 m302 0 q10 0 10 -10 m-312 10 h10 m98 0 h10 m20 0 h10 m124 0 h10 m-164 0 l20 0 m-1 0 q-9 0 -9 -10 l0 -24 q0 -10 10 -10 m144 44 l20 0 m-20 0 q10 0 10 -10 l0 -24 q0 -10 -10 -10 m-144 0 h10 m24 0 h10 m0 0 h100 m-376 -44 h20 m396 0 h20 m-436 0 q10 0 10 10 m416 0 q0 -10 10 -10 m-426 10 v102 m416 0 v-102 m-416 102 q0 10 10 10 m396 0 q10 0 10 -10 m-406 10 h10 m0 0 h386 m22 -122 l2 0 m2 0 l2 0 m2 0 l2 0 m-240 170 l2 0 m2 0 l2 0 m2 0 l2 0 m22 0 h10 m140 0 h10 m0 0 h10 m-190 0 h20 m170 0 h20 m-210 0 q10 0 10 10 m190 0 q0 -10 10 -10 m-200 10 v24 m190 0 v-24 m-190 24 q0 10 10 10 m170 0 q10 0 10 -10 m-180 10 h10 m150 0 h10 m23 -44 h-3"/>
   <polygon points="453 455 461 451 461 459"/>
   <polygon points="453 455 445 451 445 459"/>
</svg>
