<svg xmlns="http://www.w3.org/2000/svg" width="551" height="163">
   <polygon points="9 17 1 13 1 21"/>
   <polygon points="17 17 9 13 9 21"/>
   <rect x="31" y="3" width="66" height="32" rx="10"/>
   <rect x="29"
         y="1"
         width="66"
         height="32"
         class="terminal"
         rx="10"/>
   <text class="terminal" x="39" y="21">ALTER</text>
   <rect x="117" y="3" width="92" height="32" rx="10"/>
   <rect x="115"
         y="1"
         width="92"
         height="32"
         class="terminal"
         rx="10"/>
   <text class="terminal" x="125" y="21">NETWORK</text>
   <rect x="229" y="3" width="72" height="32" rx="10"/>
   <rect x="227"
         y="1"
         width="72"
         height="32"
         class="terminal"
         rx="10"/>
   <text class="terminal" x="237" y="21">POLICY</text>
   <rect x="321" y="3" width="162" height="32"/>
   <rect x="319" y="1" width="162" height="32" class="nonterminal"/>
   <text class="nonterminal" x="329" y="21">network_policy_name</text>
   <rect x="503" y="3" width="26" height="32" rx="10"/>
   <rect x="501"
         y="1"
         width="26"
         height="32"
         class="terminal"
         rx="10"/>
   <text class="terminal" x="511" y="21">(</text>
   <rect x="71" y="113" width="64" height="32" rx="10"/>
   <rect x="69"
         y="111"
         width="64"
         height="32"
         class="terminal"
         rx="10"/>
   <text class="terminal" x="79" y="131">RULES</text>
   <rect x="175" y="113" width="26" height="32" rx="10"/>
   <rect x="173"
         y="111"
         width="26"
         height="32"
         class="terminal"
         rx="10"/>
   <text class="terminal" x="183" y="131">(</text>
   <rect x="241" y="113" width="150" height="32"/>
   <rect x="239" y="111" width="150" height="32" class="nonterminal"/>
   <text class="nonterminal" x="249" y="131">network_policy_rule</text>
   <rect x="241" y="69" width="24" height="32" rx="10"/>
   <rect x="239"
         y="67"
         width="24"
         height="32"
         class="terminal"
         rx="10"/>
   <text class="terminal" x="249" y="87">,</text>
   <rect x="431" y="113" width="26" height="32" rx="10"/>
   <rect x="429"
         y="111"
         width="26"
         height="32"
         class="terminal"
         rx="10"/>
   <text class="terminal" x="439" y="131">)</text>
   <rect x="497" y="113" width="26" height="32" rx="10"/>
   <rect x="495"
         y="111"
         width="26"
         height="32"
         class="terminal"
         rx="10"/>
   <text class="terminal" x="505" y="131">)</text>
   <path class="line"
         d="m17 17 h2 m0 0 h10 m66 0 h10 m0 0 h10 m92 0 h10 m0 0 h10 m72 0 h10 m0 0 h10 m162 0 h10 m0 0 h10 m26 0 h10 m2 0 l2 0 m2 0 l2 0 m2 0 l2 0 m-502 110 l2 0 m2 0 l2 0 m2 0 l2 0 m2 0 h10 m64 0 h10 m20 0 h10 m26 0 h10 m20 0 h10 m150 0 h10 m-190 0 l20 0 m-1 0 q-9 0 -9 -10 l0 -24 q0 -10 10 -10 m170 44 l20 0 m-20 0 q10 0 10 -10 l0 -24 q0 -10 -10 -10 m-170 0 h10 m24 0 h10 m0 0 h126 m20 44 h10 m26 0 h10 m-322 0 h20 m302 0 h20 m-342 0 q10 0 10 10 m322 0 q0 -10 10 -10 m-332 10 v14 m322 0 v-14 m-322 14 q0 10 10 10 m302 0 q10 0 10 -10 m-312 10 h10 m0 0 h292 m20 -34 h10 m26 0 h10 m3 0 h-3"/>
   <polygon points="541 127 549 123 549 131"/>
   <polygon points="541 127 533 123 533 131"/>
</svg>
