<svg xmlns="http://www.w3.org/2000/svg" width="413" height="135">
   <polygon points="11 17 3 13 3 21"/>
   <polygon points="19 17 11 13 11 21"/>
   <rect x="33" y="3" width="66" height="32" rx="10"/>
   <rect x="31"
         y="1"
         width="66"
         height="32"
         class="terminal"
         rx="10"/>
   <text class="terminal" x="41" y="21">ALTER</text>
   <rect x="119" y="3" width="84" height="32" rx="10"/>
   <rect x="117"
         y="1"
         width="84"
         height="32"
         class="terminal"
         rx="10"/>
   <text class="terminal" x="127" y="21">CLUSTER</text>
   <rect x="223" y="3" width="56" height="32"/>
   <rect x="221" y="1" width="56" height="32" class="nonterminal"/>
   <text class="nonterminal" x="231" y="21">name</text>
   <rect x="299" y="3" width="46" height="32" rx="10"/>
   <rect x="297"
         y="1"
         width="46"
         height="32"
         class="terminal"
         rx="10"/>
   <text class="terminal" x="307" y="21">SET</text>
   <rect x="365" y="3" width="26" height="32" rx="10"/>
   <rect x="363"
         y="1"
         width="26"
         height="32"
         class="terminal"
         rx="10"/>
   <text class="terminal" x="373" y="21">(</text>
   <rect x="65" y="85" width="112" height="32"/>
   <rect x="63" y="83" width="112" height="32" class="nonterminal"/>
   <text class="nonterminal" x="73" y="103">cluster_option</text>
   <rect x="197" y="85" width="28" height="32" rx="10"/>
   <rect x="195"
         y="83"
         width="28"
         height="32"
         class="terminal"
         rx="10"/>
   <text class="terminal" x="205" y="103">=</text>
   <rect x="245" y="85" width="54" height="32"/>
   <rect x="243" y="83" width="54" height="32" class="nonterminal"/>
   <text class="nonterminal" x="253" y="103">value</text>
   <rect x="359" y="85" width="26" height="32" rx="10"/>
   <rect x="357"
         y="83"
         width="26"
         height="32"
         class="terminal"
         rx="10"/>
   <text class="terminal" x="367" y="103">)</text>
   <path class="line"
         d="m19 17 h2 m0 0 h10 m66 0 h10 m0 0 h10 m84 0 h10 m0 0 h10 m56 0 h10 m0 0 h10 m46 0 h10 m0 0 h10 m26 0 h10 m2 0 l2 0 m2 0 l2 0 m2 0 l2 0 m-410 82 l2 0 m2 0 l2 0 m2 0 l2 0 m42 0 h10 m112 0 h10 m0 0 h10 m28 0 h10 m0 0 h10 m54 0 h10 m-274 0 l20 0 m-1 0 q-9 0 -9 -10 l0 -12 q0 -10 10 -10 m254 32 l20 0 m-20 0 q10 0 10 -10 l0 -12 q0 -10 -10 -10 m-254 0 h10 m0 0 h244 m-294 32 h20 m294 0 h20 m-334 0 q10 0 10 10 m314 0 q0 -10 10 -10 m-324 10 v14 m314 0 v-14 m-314 14 q0 10 10 10 m294 0 q10 0 10 -10 m-304 10 h10 m0 0 h284 m20 -34 h10 m26 0 h10 m3 0 h-3"/>
   <polygon points="403 99 411 95 411 103"/>
   <polygon points="403 99 395 95 395 103"/>
</svg>
