<svg xmlns="http://www.w3.org/2000/svg" width="447" height="255">
   <polygon points="9 61 1 57 1 65"/>
   <polygon points="17 61 9 57 9 65"/>
   <rect x="31" y="47" width="60" height="32" rx="10"/>
   <rect x="29"
         y="45"
         width="60"
         height="32"
         class="terminal"
         rx="10"/>
   <text class="terminal" x="39" y="65">DROP</text>
   <rect x="131" y="47" width="108" height="32" rx="10"/>
   <rect x="129"
         y="45"
         width="108"
         height="32"
         class="terminal"
         rx="10"/>
   <text class="terminal" x="139" y="65">SUBSOURCE</text>
   <rect x="131" y="91" width="66" height="32" rx="10"/>
   <rect x="129"
         y="89"
         width="66"
         height="32"
         class="terminal"
         rx="10"/>
   <text class="terminal" x="139" y="109">TABLE</text>
   <rect x="299" y="47" width="106" height="32"/>
   <rect x="297" y="45" width="106" height="32" class="nonterminal"/>
   <text class="nonterminal" x="307" y="65">subsrc_name</text>
   <rect x="299" y="3" width="24" height="32" rx="10"/>
   <rect x="297"
         y="1"
         width="24"
         height="32"
         class="terminal"
         rx="10"/>
   <text class="terminal" x="307" y="21">,</text>
   <rect x="309" y="177" width="90" height="32" rx="10"/>
   <rect x="307"
         y="175"
         width="90"
         height="32"
         class="terminal"
         rx="10"/>
   <text class="terminal" x="317" y="195">RESTRICT</text>
   <rect x="309" y="221" width="90" height="32" rx="10"/>
   <rect x="307"
         y="219"
         width="90"
         height="32"
         class="terminal"
         rx="10"/>
   <text class="terminal" x="317" y="239">CASCADE</text>
   <path class="line"
         d="m17 61 h2 m0 0 h10 m60 0 h10 m20 0 h10 m108 0 h10 m-148 0 h20 m128 0 h20 m-168 0 q10 0 10 10 m148 0 q0 -10 10 -10 m-158 10 v24 m148 0 v-24 m-148 24 q0 10 10 10 m128 0 q10 0 10 -10 m-138 10 h10 m66 0 h10 m0 0 h42 m40 -44 h10 m106 0 h10 m-146 0 l20 0 m-1 0 q-9 0 -9 -10 l0 -24 q0 -10 10 -10 m126 44 l20 0 m-20 0 q10 0 10 -10 l0 -24 q0 -10 -10 -10 m-126 0 h10 m24 0 h10 m0 0 h82 m22 44 l2 0 m2 0 l2 0 m2 0 l2 0 m-180 98 l2 0 m2 0 l2 0 m2 0 l2 0 m22 0 h10 m0 0 h100 m-130 0 h20 m110 0 h20 m-150 0 q10 0 10 10 m130 0 q0 -10 10 -10 m-140 10 v12 m130 0 v-12 m-130 12 q0 10 10 10 m110 0 q10 0 10 -10 m-120 10 h10 m90 0 h10 m-120 -10 v20 m130 0 v-20 m-130 20 v24 m130 0 v-24 m-130 24 q0 10 10 10 m110 0 q10 0 10 -10 m-120 10 h10 m90 0 h10 m23 -76 h-3"/>
   <polygon points="437 159 445 155 445 163"/>
   <polygon points="437 159 429 155 429 163"/>
</svg>
