<svg xmlns="http://www.w3.org/2000/svg" width="429" height="137">
   <polygon points="9 17 1 13 1 21"/>
   <polygon points="17 17 9 13 9 21"/>
   <rect x="31" y="3" width="66" height="32" rx="10"/>
   <rect x="29"
         y="1"
         width="66"
         height="32"
         class="terminal"
         rx="10"/>
   <text class="terminal" x="39" y="21">ALTER</text>
   <rect x="117" y="3" width="84" height="32" rx="10"/>
   <rect x="115"
         y="1"
         width="84"
         height="32"
         class="terminal"
         rx="10"/>
   <text class="terminal" x="125" y="21">CLUSTER</text>
   <rect x="221" y="3" width="56" height="32"/>
   <rect x="219" y="1" width="56" height="32" class="nonterminal"/>
   <text class="nonterminal" x="229" y="21">name</text>
   <rect x="297" y="3" width="64" height="32" rx="10"/>
   <rect x="295"
         y="1"
         width="64"
         height="32"
         class="terminal"
         rx="10"/>
   <text class="terminal" x="305" y="21">RESET</text>
   <rect x="381" y="3" width="26" height="32" rx="10"/>
   <rect x="379"
         y="1"
         width="26"
         height="32"
         class="terminal"
         rx="10"/>
   <text class="terminal" x="389" y="21">(</text>
   <rect x="179" y="69" width="156" height="32"/>
   <rect x="177" y="67" width="156" height="32" class="nonterminal"/>
   <text class="nonterminal" x="187" y="87">cluster_option_name</text>
   <rect x="375" y="103" width="26" height="32" rx="10"/>
   <rect x="373"
         y="101"
         width="26"
         height="32"
         class="terminal"
         rx="10"/>
   <text class="terminal" x="383" y="121">)</text>
   <path class="line"
         d="m17 17 h2 m0 0 h10 m66 0 h10 m0 0 h10 m84 0 h10 m0 0 h10 m56 0 h10 m0 0 h10 m64 0 h10 m0 0 h10 m26 0 h10 m2 0 l2 0 m2 0 l2 0 m2 0 l2 0 m-292 100 l2 0 m2 0 l2 0 m2 0 l2 0 m22 0 h10 m0 0 h166 m-196 0 l20 0 m-1 0 q-9 0 -9 -10 l0 -14 q0 -10 10 -10 m176 34 l20 0 m-20 0 q10 0 10 -10 l0 -14 q0 -10 -10 -10 m-176 0 h10 m156 0 h10 m20 34 h10 m26 0 h10 m3 0 h-3"/>
   <polygon points="419 117 427 113 427 121"/>
   <polygon points="419 117 411 113 411 121"/>
</svg>
