<svg xmlns="http://www.w3.org/2000/svg" width="563" height="213">
   <polygon points="9 17 1 13 1 21"/>
   <polygon points="17 17 9 13 9 21"/>
   <rect x="31" y="3" width="64" height="32" rx="10"/>
   <rect x="29"
         y="1"
         width="64"
         height="32"
         class="terminal"
         rx="10"/>
   <text class="terminal" x="39" y="21">ALTER</text>
   <rect x="135" y="3" width="62" height="32" rx="10"/>
   <rect x="133"
         y="1"
         width="62"
         height="32"
         class="terminal"
         rx="10"/>
   <text class="terminal" x="143" y="21">INDEX</text>
   <rect x="135" y="47" width="52" height="32" rx="10"/>
   <rect x="133"
         y="45"
         width="52"
         height="32"
         class="terminal"
         rx="10"/>
   <text class="terminal" x="143" y="65">SINK</text>
   <rect x="135" y="91" width="78" height="32" rx="10"/>
   <rect x="133"
         y="89"
         width="78"
         height="32"
         class="terminal"
         rx="10"/>
   <text class="terminal" x="143" y="109">SOURCE</text>
   <rect x="135" y="135" width="54" height="32" rx="10"/>
   <rect x="133"
         y="133"
         width="54"
         height="32"
         class="terminal"
         rx="10"/>
   <text class="terminal" x="143" y="153">VIEW</text>
   <rect x="135" y="179" width="64" height="32" rx="10"/>
   <rect x="133"
         y="177"
         width="64"
         height="32"
         class="terminal"
         rx="10"/>
   <text class="terminal" x="143" y="197">TABLE</text>
   <rect x="253" y="3" width="54" height="32"/>
   <rect x="251" y="1" width="54" height="32" class="nonterminal"/>
   <text class="nonterminal" x="261" y="21">name</text>
   <rect x="327" y="3" width="102" height="32" rx="10"/>
   <rect x="325"
         y="1"
         width="102"
         height="32"
         class="terminal"
         rx="10"/>
   <text class="terminal" x="335" y="21">RENAME TO</text>
   <rect x="449" y="3" width="86" height="32"/>
   <rect x="447" y="1" width="86" height="32" class="nonterminal"/>
   <text class="nonterminal" x="457" y="21">new_name</text>
   <path class="line"
         d="m17 17 h2 m0 0 h10 m64 0 h10 m20 0 h10 m62 0 h10 m0 0 h16 m-118 0 h20 m98 0 h20 m-138 0 q10 0 10 10 m118 0 q0 -10 10 -10 m-128 10 v24 m118 0 v-24 m-118 24 q0 10 10 10 m98 0 q10 0 10 -10 m-108 10 h10 m52 0 h10 m0 0 h26 m-108 -10 v20 m118 0 v-20 m-118 20 v24 m118 0 v-24 m-118 24 q0 10 10 10 m98 0 q10 0 10 -10 m-108 10 h10 m78 0 h10 m-108 -10 v20 m118 0 v-20 m-118 20 v24 m118 0 v-24 m-118 24 q0 10 10 10 m98 0 q10 0 10 -10 m-108 10 h10 m54 0 h10 m0 0 h24 m-108 -10 v20 m118 0 v-20 m-118 20 v24 m118 0 v-24 m-118 24 q0 10 10 10 m98 0 q10 0 10 -10 m-108 10 h10 m64 0 h10 m0 0 h14 m20 -176 h10 m54 0 h10 m0 0 h10 m102 0 h10 m0 0 h10 m86 0 h10 m3 0 h-3"/>
   <polygon points="553 17 561 13 561 21"/>
   <polygon points="553 17 545 13 545 21"/>
</svg>
