<svg xmlns="http://www.w3.org/2000/svg" width="477" height="279">
   <polygon points="11 17 3 13 3 21"/>
   <polygon points="19 17 11 13 11 21"/>
   <rect x="33" y="3" width="64" height="32" rx="10"/>
   <rect x="31"
         y="1"
         width="64"
         height="32"
         class="terminal"
         rx="10"/>
   <text class="terminal" x="41" y="21">ALTER</text>
   <rect x="117" y="3" width="62" height="32" rx="10"/>
   <rect x="115"
         y="1"
         width="62"
         height="32"
         class="terminal"
         rx="10"/>
   <text class="terminal" x="125" y="21">INDEX</text>
   <rect x="199" y="3" width="54" height="32"/>
   <rect x="197" y="1" width="54" height="32" class="nonterminal"/>
   <text class="nonterminal" x="207" y="21">name</text>
   <rect x="45" y="69" width="46" height="32" rx="10"/>
   <rect x="43"
         y="67"
         width="46"
         height="32"
         class="terminal"
         rx="10"/>
   <text class="terminal" x="53" y="87">SET</text>
   <rect x="131" y="69" width="84" height="32" rx="10"/>
   <rect x="129"
         y="67"
         width="84"
         height="32"
         class="terminal"
         rx="10"/>
   <text class="terminal" x="139" y="87">ENABLED</text>
   <rect x="131" y="157" width="24" height="32" rx="10"/>
   <rect x="129"
         y="155"
         width="24"
         height="32"
         class="terminal"
         rx="10"/>
   <text class="terminal" x="139" y="175">(</text>
   <rect x="195" y="157" width="46" height="32"/>
   <rect x="193" y="155" width="46" height="32" class="nonterminal"/>
   <text class="nonterminal" x="203" y="175">field</text>
   <rect x="261" y="157" width="26" height="32" rx="10"/>
   <rect x="259"
         y="155"
         width="26"
         height="32"
         class="terminal"
         rx="10"/>
   <text class="terminal" x="269" y="175">=</text>
   <rect x="307" y="157" width="38" height="32"/>
   <rect x="305" y="155" width="38" height="32" class="nonterminal"/>
   <text class="nonterminal" x="315" y="175">val</text>
   <rect x="195" y="113" width="24" height="32" rx="10"/>
   <rect x="193"
         y="111"
         width="24"
         height="32"
         class="terminal"
         rx="10"/>
   <text class="terminal" x="203" y="131">,</text>
   <rect x="385" y="157" width="24" height="32" rx="10"/>
   <rect x="383"
         y="155"
         width="24"
         height="32"
         class="terminal"
         rx="10"/>
   <text class="terminal" x="393" y="175">)</text>
   <rect x="45" y="245" width="64" height="32" rx="10"/>
   <rect x="43"
         y="243"
         width="64"
         height="32"
         class="terminal"
         rx="10"/>
   <text class="terminal" x="53" y="263">RESET</text>
   <rect x="129" y="245" width="24" height="32" rx="10"/>
   <rect x="127"
         y="243"
         width="24"
         height="32"
         class="terminal"
         rx="10"/>
   <text class="terminal" x="137" y="263">(</text>
   <rect x="193" y="245" width="46" height="32"/>
   <rect x="191" y="243" width="46" height="32" class="nonterminal"/>
   <text class="nonterminal" x="201" y="263">field</text>
   <rect x="193" y="201" width="24" height="32" rx="10"/>
   <rect x="191"
         y="199"
         width="24"
         height="32"
         class="terminal"
         rx="10"/>
   <text class="terminal" x="201" y="219">,</text>
   <rect x="279" y="245" width="24" height="32" rx="10"/>
   <rect x="277"
         y="243"
         width="24"
         height="32"
         class="terminal"
         rx="10"/>
   <text class="terminal" x="287" y="263">)</text>
   <path class="line"
         d="m19 17 h2 m0 0 h10 m64 0 h10 m0 0 h10 m62 0 h10 m0 0 h10 m54 0 h10 m2 0 l2 0 m2 0 l2 0 m2 0 l2 0 m-272 66 l2 0 m2 0 l2 0 m2 0 l2 0 m22 0 h10 m46 0 h10 m20 0 h10 m84 0 h10 m0 0 h194 m-318 0 h20 m298 0 h20 m-338 0 q10 0 10 10 m318 0 q0 -10 10 -10 m-328 10 v68 m318 0 v-68 m-318 68 q0 10 10 10 m298 0 q10 0 10 -10 m-308 10 h10 m24 0 h10 m20 0 h10 m46 0 h10 m0 0 h10 m26 0 h10 m0 0 h10 m38 0 h10 m-190 0 l20 0 m-1 0 q-9 0 -9 -10 l0 -24 q0 -10 10 -10 m170 44 l20 0 m-20 0 q10 0 10 -10 l0 -24 q0 -10 -10 -10 m-170 0 h10 m24 0 h10 m0 0 h126 m20 44 h10 m24 0 h10 m-404 -88 h20 m404 0 h20 m-444 0 q10 0 10 10 m424 0 q0 -10 10 -10 m-434 10 v156 m424 0 v-156 m-424 156 q0 10 10 10 m404 0 q10 0 10 -10 m-414 10 h10 m64 0 h10 m0 0 h10 m24 0 h10 m20 0 h10 m46 0 h10 m-86 0 l20 0 m-1 0 q-9 0 -9 -10 l0 -24 q0 -10 10 -10 m66 44 l20 0 m-20 0 q10 0 10 -10 l0 -24 q0 -10 -10 -10 m-66 0 h10 m24 0 h10 m0 0 h22 m20 44 h10 m24 0 h10 m0 0 h126 m23 -176 h-3"/>
   <polygon points="467 83 475 79 475 87"/>
   <polygon points="467 83 459 79 459 87"/>
</svg>
