<svg xmlns="http://www.w3.org/2000/svg" width="571" height="103">
   <polygon points="9 17 1 13 1 21"/>
   <polygon points="17 17 9 13 9 21"/>
   <rect x="31" y="3" width="66" height="32" rx="10"/>
   <rect x="29"
         y="1"
         width="66"
         height="32"
         class="terminal"
         rx="10"/>
   <text class="terminal" x="39" y="21">ALTER</text>
   <rect x="117" y="3" width="66" height="32" rx="10"/>
   <rect x="115"
         y="1"
         width="66"
         height="32"
         class="terminal"
         rx="10"/>
   <text class="terminal" x="125" y="21">TABLE</text>
   <rect x="203" y="3" width="56" height="32"/>
   <rect x="201" y="1" width="56" height="32" class="nonterminal"/>
   <text class="nonterminal" x="211" y="21">name</text>
   <rect x="279" y="3" width="64" height="32" rx="10"/>
   <rect x="277"
         y="1"
         width="64"
         height="32"
         class="terminal"
         rx="10"/>
   <text class="terminal" x="287" y="21">RESET</text>
   <rect x="363" y="3" width="26" height="32" rx="10"/>
   <rect x="361"
         y="1"
         width="26"
         height="32"
         class="terminal"
         rx="10"/>
   <text class="terminal" x="371" y="21">(</text>
   <rect x="409" y="3" width="140" height="32" rx="10"/>
   <rect x="407"
         y="1"
         width="140"
         height="32"
         class="terminal"
         rx="10"/>
   <text class="terminal" x="417" y="21">RETAIN HISTORY</text>
   <rect x="517" y="69" width="26" height="32" rx="10"/>
   <rect x="515"
         y="67"
         width="26"
         height="32"
         class="terminal"
         rx="10"/>
   <text class="terminal" x="525" y="87">)</text>
   <path class="line"
         d="m17 17 h2 m0 0 h10 m66 0 h10 m0 0 h10 m66 0 h10 m0 0 h10 m56 0 h10 m0 0 h10 m64 0 h10 m0 0 h10 m26 0 h10 m0 0 h10 m140 0 h10 m2 0 l2 0 m2 0 l2 0 m2 0 l2 0 m-76 66 l2 0 m2 0 l2 0 m2 0 l2 0 m2 0 h10 m26 0 h10 m3 0 h-3"/>
   <polygon points="561 83 569 79 569 87"/>
   <polygon points="561 83 553 79 553 87"/>
</svg>
