<svg xmlns="http://www.w3.org/2000/svg" width="551" height="135">
   <polygon points="9 17 1 13 1 21"/>
   <polygon points="17 17 9 13 9 21"/>
   <rect x="31" y="3" width="66" height="32" rx="10"/>
   <rect x="29"
         y="1"
         width="66"
         height="32"
         class="terminal"
         rx="10"/>
   <text class="terminal" x="39" y="21">ALTER</text>
   <rect x="117" y="3" width="78" height="32" rx="10"/>
   <rect x="115"
         y="1"
         width="78"
         height="32"
         class="terminal"
         rx="10"/>
   <text class="terminal" x="125" y="21">SOURCE</text>
   <rect x="235" y="35" width="86" height="32" rx="10"/>
   <rect x="233"
         y="33"
         width="86"
         height="32"
         class="terminal"
         rx="10"/>
   <text class="terminal" x="243" y="53">IF EXISTS</text>
   <rect x="361" y="3" width="56" height="32"/>
   <rect x="359" y="1" width="56" height="32" class="nonterminal"/>
   <text class="nonterminal" x="369" y="21">name</text>
   <rect x="437" y="3" width="46" height="32" rx="10"/>
   <rect x="435"
         y="1"
         width="46"
         height="32"
         class="terminal"
         rx="10"/>
   <text class="terminal" x="445" y="21">SET</text>
   <rect x="503" y="3" width="26" height="32" rx="10"/>
   <rect x="501"
         y="1"
         width="26"
         height="32"
         class="terminal"
         rx="10"/>
   <text class="terminal" x="511" y="21">(</text>
   <rect x="353" y="101" width="50" height="32" rx="10"/>
   <rect x="351"
         y="99"
         width="50"
         height="32"
         class="terminal"
         rx="10"/>
   <text class="terminal" x="361" y="119">SIZE</text>
   <rect x="423" y="101" width="54" height="32"/>
   <rect x="421" y="99" width="54" height="32" class="nonterminal"/>
   <text class="nonterminal" x="431" y="119">value</text>
   <rect x="497" y="101" width="26" height="32" rx="10"/>
   <rect x="495"
         y="99"
         width="26"
         height="32"
         class="terminal"
         rx="10"/>
   <text class="terminal" x="505" y="119">)</text>
   <path class="line"
         d="m17 17 h2 m0 0 h10 m66 0 h10 m0 0 h10 m78 0 h10 m20 0 h10 m0 0 h96 m-126 0 h20 m106 0 h20 m-146 0 q10 0 10 10 m126 0 q0 -10 10 -10 m-136 10 v12 m126 0 v-12 m-126 12 q0 10 10 10 m106 0 q10 0 10 -10 m-116 10 h10 m86 0 h10 m20 -32 h10 m56 0 h10 m0 0 h10 m46 0 h10 m0 0 h10 m26 0 h10 m2 0 l2 0 m2 0 l2 0 m2 0 l2 0 m-220 98 l2 0 m2 0 l2 0 m2 0 l2 0 m2 0 h10 m50 0 h10 m0 0 h10 m54 0 h10 m0 0 h10 m26 0 h10 m3 0 h-3"/>
   <polygon points="541 115 549 111 549 119"/>
   <polygon points="541 115 533 111 533 119"/>
</svg>
