<svg xmlns="http://www.w3.org/2000/svg" width="553" height="135">
   <polygon points="9 17 1 13 1 21"/>
   <polygon points="17 17 9 13 9 21"/>
   <rect x="31" y="3" width="66" height="32" rx="10"/>
   <rect x="29"
         y="1"
         width="66"
         height="32"
         class="terminal"
         rx="10"/>
   <text class="terminal" x="39" y="21">ALTER</text>
   <rect x="117" y="3" width="66" height="32" rx="10"/>
   <rect x="115"
         y="1"
         width="66"
         height="32"
         class="terminal"
         rx="10"/>
   <text class="terminal" x="125" y="21">TABLE</text>
   <rect x="203" y="3" width="56" height="32"/>
   <rect x="201" y="1" width="56" height="32" class="nonterminal"/>
   <text class="nonterminal" x="211" y="21">name</text>
   <rect x="279" y="3" width="46" height="32" rx="10"/>
   <rect x="277"
         y="1"
         width="46"
         height="32"
         class="terminal"
         rx="10"/>
   <text class="terminal" x="287" y="21">SET</text>
   <rect x="345" y="3" width="26" height="32" rx="10"/>
   <rect x="343"
         y="1"
         width="26"
         height="32"
         class="terminal"
         rx="10"/>
   <text class="terminal" x="353" y="21">(</text>
   <rect x="391" y="3" width="140" height="32" rx="10"/>
   <rect x="389"
         y="1"
         width="140"
         height="32"
         class="terminal"
         rx="10"/>
   <text class="terminal" x="399" y="21">RETAIN HISTORY</text>
   <rect x="215" y="101" width="28" height="32" rx="10"/>
   <rect x="213"
         y="99"
         width="28"
         height="32"
         class="terminal"
         rx="10"/>
   <text class="terminal" x="223" y="119">=</text>
   <rect x="283" y="69" width="48" height="32" rx="10"/>
   <rect x="281"
         y="67"
         width="48"
         height="32"
         class="terminal"
         rx="10"/>
   <text class="terminal" x="291" y="87">FOR</text>
   <rect x="351" y="69" width="128" height="32"/>
   <rect x="349" y="67" width="128" height="32" class="nonterminal"/>
   <text class="nonterminal" x="359" y="87">retention_period</text>
   <rect x="499" y="69" width="26" height="32" rx="10"/>
   <rect x="497"
         y="67"
         width="26"
         height="32"
         class="terminal"
         rx="10"/>
   <text class="terminal" x="507" y="87">)</text>
   <path class="line"
         d="m17 17 h2 m0 0 h10 m66 0 h10 m0 0 h10 m66 0 h10 m0 0 h10 m56 0 h10 m0 0 h10 m46 0 h10 m0 0 h10 m26 0 h10 m0 0 h10 m140 0 h10 m2 0 l2 0 m2 0 l2 0 m2 0 l2 0 m-380 66 l2 0 m2 0 l2 0 m2 0 l2 0 m22 0 h10 m0 0 h38 m-68 0 h20 m48 0 h20 m-88 0 q10 0 10 10 m68 0 q0 -10 10 -10 m-78 10 v12 m68 0 v-12 m-68 12 q0 10 10 10 m48 0 q10 0 10 -10 m-58 10 h10 m28 0 h10 m20 -32 h10 m48 0 h10 m0 0 h10 m128 0 h10 m0 0 h10 m26 0 h10 m3 0 h-3"/>
   <polygon points="543 83 551 79 551 87"/>
   <polygon points="543 83 535 79 535 87"/>
</svg>
