<svg xmlns="http://www.w3.org/2000/svg" width="531" height="69">
   <polygon points="9 17 1 13 1 21"/>
   <polygon points="17 17 9 13 9 21"/>
   <rect x="31" y="3" width="40" height="32" rx="10"/>
   <rect x="29"
         y="1"
         width="40"
         height="32"
         class="terminal"
         rx="10"/>
   <text class="terminal" x="39" y="21">AS</text>
   <rect x="91" y="3" width="38" height="32" rx="10"/>
   <rect x="89"
         y="1"
         width="38"
         height="32"
         class="terminal"
         rx="10"/>
   <text class="terminal" x="99" y="21">OF</text>
   <rect x="169" y="35" width="40" height="32" rx="10"/>
   <rect x="167"
         y="33"
         width="40"
         height="32"
         class="terminal"
         rx="10"/>
   <text class="terminal" x="177" y="53">AT</text>
   <rect x="229" y="35" width="66" height="32" rx="10"/>
   <rect x="227"
         y="33"
         width="66"
         height="32"
         class="terminal"
         rx="10"/>
   <text class="terminal" x="237" y="53">LEAST</text>
   <rect x="335" y="3" width="168" height="32"/>
   <rect x="333" y="1" width="168" height="32" class="nonterminal"/>
   <text class="nonterminal" x="343" y="21">timestamp_expression</text>
   <path class="line"
         d="m17 17 h2 m0 0 h10 m40 0 h10 m0 0 h10 m38 0 h10 m20 0 h10 m0 0 h136 m-166 0 h20 m146 0 h20 m-186 0 q10 0 10 10 m166 0 q0 -10 10 -10 m-176 10 v12 m166 0 v-12 m-166 12 q0 10 10 10 m146 0 q10 0 10 -10 m-156 10 h10 m40 0 h10 m0 0 h10 m66 0 h10 m20 -32 h10 m168 0 h10 m3 0 h-3"/>
   <polygon points="521 17 529 13 529 21"/>
   <polygon points="521 17 513 13 513 21"/>
</svg>
