<svg xmlns="http://www.w3.org/2000/svg" width="359" height="97">
   <polygon points="9 61 1 57 1 65"/>
   <polygon points="17 61 9 57 9 65"/>
   <rect x="31" y="47" width="62" height="32" rx="10"/>
   <rect x="29"
         y="45"
         width="62"
         height="32"
         class="terminal"
         rx="10"/>
   <text class="terminal" x="39" y="65">BEGIN</text>
   <rect x="153" y="47" width="138" height="32"/>
   <rect x="151" y="45" width="138" height="32" class="nonterminal"/>
   <text class="nonterminal" x="161" y="65">transaction_mode</text>
   <rect x="153" y="3" width="24" height="32" rx="10"/>
   <rect x="151"
         y="1"
         width="24"
         height="32"
         class="terminal"
         rx="10"/>
   <text class="terminal" x="161" y="21">,</text>
   <path class="line"
         d="m17 61 h2 m0 0 h10 m62 0 h10 m40 0 h10 m138 0 h10 m-178 0 l20 0 m-1 0 q-9 0 -9 -10 l0 -24 q0 -10 10 -10 m158 44 l20 0 m-20 0 q10 0 10 -10 l0 -24 q0 -10 -10 -10 m-158 0 h10 m24 0 h10 m0 0 h114 m-198 44 h20 m198 0 h20 m-238 0 q10 0 10 10 m218 0 q0 -10 10 -10 m-228 10 v14 m218 0 v-14 m-218 14 q0 10 10 10 m198 0 q10 0 10 -10 m-208 10 h10 m0 0 h188 m23 -34 h-3"/>
   <polygon points="349 61 357 57 357 65"/>
   <polygon points="349 61 341 57 341 65"/>
</svg>
