<svg xmlns="http://www.w3.org/2000/svg" width="457" height="113">
   <polygon points="9 17 1 13 1 21"/>
   <polygon points="17 17 9 13 9 21"/>
   <rect x="31" y="3" width="62" height="32" rx="10"/>
   <rect x="29"
         y="1"
         width="62"
         height="32"
         class="terminal"
         rx="10"/>
   <text class="terminal" x="39" y="21">BEGIN</text>
   <rect x="133" y="35" width="144" height="32" rx="10"/>
   <rect x="131"
         y="33"
         width="144"
         height="32"
         class="terminal"
         rx="10"/>
   <text class="terminal" x="141" y="53">ISOLATION LEVEL</text>
   <rect x="297" y="35" width="112" height="32"/>
   <rect x="295" y="33" width="112" height="32" class="nonterminal"/>
   <text class="nonterminal" x="305" y="53">isolation_level</text>
   <rect x="133" y="79" width="102" height="32" rx="10"/>
   <rect x="131"
         y="77"
         width="102"
         height="32"
         class="terminal"
         rx="10"/>
   <text class="terminal" x="141" y="97">READ ONLY</text>
   <path class="line"
         d="m17 17 h2 m0 0 h10 m62 0 h10 m20 0 h10 m0 0 h286 m-316 0 h20 m296 0 h20 m-336 0 q10 0 10 10 m316 0 q0 -10 10 -10 m-326 10 v12 m316 0 v-12 m-316 12 q0 10 10 10 m296 0 q10 0 10 -10 m-306 10 h10 m144 0 h10 m0 0 h10 m112 0 h10 m-306 -10 v20 m316 0 v-20 m-316 20 v24 m316 0 v-24 m-316 24 q0 10 10 10 m296 0 q10 0 10 -10 m-306 10 h10 m102 0 h10 m0 0 h174 m23 -76 h-3"/>
   <polygon points="447 17 455 13 455 21"/>
   <polygon points="447 17 439 13 439 21"/>
</svg>
