<svg xmlns="http://www.w3.org/2000/svg" width="249" height="37">
   <polygon points="9 17 1 13 1 21"/>
   <polygon points="17 17 9 13 9 21"/>
   <rect x="31" y="3" width="66" height="32" rx="10"/>
   <rect x="29"
         y="1"
         width="66"
         height="32"
         class="terminal"
         rx="10"/>
   <text class="terminal" x="39" y="21">CLOSE</text>
   <rect x="117" y="3" width="104" height="32"/>
   <rect x="115" y="1" width="104" height="32" class="nonterminal"/>
   <text class="nonterminal" x="125" y="21">cursor_name</text>
   <path class="line"
         d="m17 17 h2 m0 0 h10 m66 0 h10 m0 0 h10 m104 0 h10 m3 0 h-3"/>
   <polygon points="239 17 247 13 247 21"/>
   <polygon points="239 17 231 13 231 21"/>
</svg>
