<svg xmlns="http://www.w3.org/2000/svg" width="551" height="81">
   <polygon points="9 61 1 57 1 65"/>
   <polygon points="17 61 9 57 9 65"/>
   <rect x="31" y="47" width="106" height="32"/>
   <rect x="29" y="45" width="106" height="32" class="nonterminal"/>
   <text class="nonterminal" x="39" y="65">replica_name</text>
   <rect x="157" y="47" width="26" height="32" rx="10"/>
   <rect x="155"
         y="45"
         width="26"
         height="32"
         class="terminal"
         rx="10"/>
   <text class="terminal" x="165" y="65">(</text>
   <rect x="223" y="47" width="112" height="32"/>
   <rect x="221" y="45" width="112" height="32" class="nonterminal"/>
   <text class="nonterminal" x="231" y="65">replica_option</text>
   <rect x="355" y="47" width="28" height="32" rx="10"/>
   <rect x="353"
         y="45"
         width="28"
         height="32"
         class="terminal"
         rx="10"/>
   <text class="terminal" x="363" y="65">=</text>
   <rect x="403" y="47" width="54" height="32"/>
   <rect x="401" y="45" width="54" height="32" class="nonterminal"/>
   <text class="nonterminal" x="411" y="65">value</text>
   <rect x="223" y="3" width="24" height="32" rx="10"/>
   <rect x="221"
         y="1"
         width="24"
         height="32"
         class="terminal"
         rx="10"/>
   <text class="terminal" x="231" y="21">,</text>
   <rect x="497" y="47" width="26" height="32" rx="10"/>
   <rect x="495"
         y="45"
         width="26"
         height="32"
         class="terminal"
         rx="10"/>
   <text class="terminal" x="505" y="65">)</text>
   <path class="line"
         d="m17 61 h2 m0 0 h10 m106 0 h10 m0 0 h10 m26 0 h10 m20 0 h10 m112 0 h10 m0 0 h10 m28 0 h10 m0 0 h10 m54 0 h10 m-274 0 l20 0 m-1 0 q-9 0 -9 -10 l0 -24 q0 -10 10 -10 m254 44 l20 0 m-20 0 q10 0 10 -10 l0 -24 q0 -10 -10 -10 m-254 0 h10 m24 0 h10 m0 0 h210 m20 44 h10 m26 0 h10 m3 0 h-3"/>
   <polygon points="541 61 549 57 549 65"/>
   <polygon points="541 61 533 57 533 65"/>
</svg>
