<svg xmlns="http://www.w3.org/2000/svg" width="247" height="81">
   <polygon points="9 17 1 13 1 21"/>
   <polygon points="17 17 9 13 9 21"/>
   <rect x="51" y="3" width="48" height="32" rx="10"/>
   <rect x="49"
         y="1"
         width="48"
         height="32"
         class="terminal"
         rx="10"/>
   <text class="terminal" x="59" y="21">NOT</text>
   <rect x="119" y="3" width="54" height="32" rx="10"/>
   <rect x="117"
         y="1"
         width="54"
         height="32"
         class="terminal"
         rx="10"/>
   <text class="terminal" x="127" y="21">NULL</text>
   <rect x="51" y="47" width="82" height="32" rx="10"/>
   <rect x="49"
         y="45"
         width="82"
         height="32"
         class="terminal"
         rx="10"/>
   <text class="terminal" x="59" y="65">DEFAULT</text>
   <rect x="153" y="47" width="46" height="32"/>
   <rect x="151" y="45" width="46" height="32" class="nonterminal"/>
   <text class="nonterminal" x="161" y="65">expr</text>
   <path class="line"
         d="m17 17 h2 m20 0 h10 m48 0 h10 m0 0 h10 m54 0 h10 m0 0 h26 m-188 0 h20 m168 0 h20 m-208 0 q10 0 10 10 m188 0 q0 -10 10 -10 m-198 10 v24 m188 0 v-24 m-188 24 q0 10 10 10 m168 0 q10 0 10 -10 m-178 10 h10 m82 0 h10 m0 0 h10 m46 0 h10 m23 -44 h-3"/>
   <polygon points="237 17 245 13 245 21"/>
   <polygon points="237 17 229 13 229 21"/>
</svg>
