<svg xmlns="http://www.w3.org/2000/svg" width="575" height="851">
   <polygon points="9 17 1 13 1 21"/>
   <polygon points="17 17 9 13 9 21"/>
   <rect x="31" y="3" width="120" height="32" rx="10"/>
   <rect x="29"
         y="1"
         width="120"
         height="32"
         class="terminal"
         rx="10"/>
   <text class="terminal" x="39" y="21">COMMENT ON</text>
   <rect x="191" y="3" width="84" height="32" rx="10"/>
   <rect x="189"
         y="1"
         width="84"
         height="32"
         class="terminal"
         rx="10"/>
   <text class="terminal" x="199" y="21">CLUSTER</text>
   <rect x="191" y="47" width="148" height="32" rx="10"/>
   <rect x="189"
         y="45"
         width="148"
         height="32"
         class="terminal"
         rx="10"/>
   <text class="terminal" x="199" y="65">CLUSTER REPLICA</text>
   <rect x="191" y="91" width="82" height="32" rx="10"/>
   <rect x="189"
         y="89"
         width="82"
         height="32"
         class="terminal"
         rx="10"/>
   <text class="terminal" x="199" y="109">COLUMN</text>
   <rect x="191" y="135" width="116" height="32" rx="10"/>
   <rect x="189"
         y="133"
         width="116"
         height="32"
         class="terminal"
         rx="10"/>
   <text class="terminal" x="199" y="153">CONNECTION</text>
   <rect x="191" y="179" width="98" height="32" rx="10"/>
   <rect x="189"
         y="177"
         width="98"
         height="32"
         class="terminal"
         rx="10"/>
   <text class="terminal" x="199" y="197">DATABASE</text>
   <rect x="191" y="223" width="94" height="32" rx="10"/>
   <rect x="189"
         y="221"
         width="94"
         height="32"
         class="terminal"
         rx="10"/>
   <text class="terminal" x="199" y="241">FUNCTION</text>
   <rect x="191" y="267" width="62" height="32" rx="10"/>
   <rect x="189"
         y="265"
         width="62"
         height="32"
         class="terminal"
         rx="10"/>
   <text class="terminal" x="199" y="285">INDEX</text>
   <rect x="191" y="311" width="166" height="32" rx="10"/>
   <rect x="189"
         y="309"
         width="166"
         height="32"
         class="terminal"
         rx="10"/>
   <text class="terminal" x="199" y="329">MATERIALIZED VIEW</text>
   <rect x="191" y="355" width="150" height="32" rx="10"/>
   <rect x="189"
         y="353"
         width="150"
         height="32"
         class="terminal"
         rx="10"/>
   <text class="terminal" x="199" y="373">NETWORK POLICY</text>
   <rect x="191" y="399" width="56" height="32" rx="10"/>
   <rect x="189"
         y="397"
         width="56"
         height="32"
         class="terminal"
         rx="10"/>
   <text class="terminal" x="199" y="417">ROLE</text>
   <rect x="191" y="443" width="82" height="32" rx="10"/>
   <rect x="189"
         y="441"
         width="82"
         height="32"
         class="terminal"
         rx="10"/>
   <text class="terminal" x="199" y="461">SCHEMA</text>
   <rect x="191" y="487" width="76" height="32" rx="10"/>
   <rect x="189"
         y="485"
         width="76"
         height="32"
         class="terminal"
         rx="10"/>
   <text class="terminal" x="199" y="505">SECRET</text>
   <rect x="191" y="531" width="52" height="32" rx="10"/>
   <rect x="189"
         y="529"
         width="52"
         height="32"
         class="terminal"
         rx="10"/>
   <text class="terminal" x="199" y="549">SINK</text>
   <rect x="191" y="575" width="78" height="32" rx="10"/>
   <rect x="189"
         y="573"
         width="78"
         height="32"
         class="terminal"
         rx="10"/>
   <text class="terminal" x="199" y="593">SOURCE</text>
   <rect x="191" y="619" width="66" height="32" rx="10"/>
   <rect x="189"
         y="617"
         width="66"
         height="32"
         class="terminal"
         rx="10"/>
   <text class="terminal" x="199" y="637">TABLE</text>
   <rect x="191" y="663" width="56" height="32" rx="10"/>
   <rect x="189"
         y="661"
         width="56"
         height="32"
         class="terminal"
         rx="10"/>
   <text class="terminal" x="199" y="681">TYPE</text>
   <rect x="191" y="707" width="58" height="32" rx="10"/>
   <rect x="189"
         y="705"
         width="58"
         height="32"
         class="terminal"
         rx="10"/>
   <text class="terminal" x="199" y="725">VIEW</text>
   <rect x="397" y="3" width="104" height="32"/>
   <rect x="395" y="1" width="104" height="32" class="nonterminal"/>
   <text class="nonterminal" x="405" y="21">object_name</text>
   <rect x="521" y="3" width="32" height="32" rx="10"/>
   <rect x="519"
         y="1"
         width="32"
         height="32"
         class="terminal"
         rx="10"/>
   <text class="terminal" x="529" y="21">IS</text>
   <rect x="427" y="773" width="100" height="32"/>
   <rect x="425" y="771" width="100" height="32" class="nonterminal"/>
   <text class="nonterminal" x="435" y="791">string_literal</text>
   <rect x="427" y="817" width="56" height="32" rx="10"/>
   <rect x="425"
         y="815"
         width="56"
         height="32"
         class="terminal"
         rx="10"/>
   <text class="terminal" x="435" y="835">NULL</text>
   <path class="line"
         d="m17 17 h2 m0 0 h10 m120 0 h10 m20 0 h10 m84 0 h10 m0 0 h82 m-206 0 h20 m186 0 h20 m-226 0 q10 0 10 10 m206 0 q0 -10 10 -10 m-216 10 v24 m206 0 v-24 m-206 24 q0 10 10 10 m186 0 q10 0 10 -10 m-196 10 h10 m148 0 h10 m0 0 h18 m-196 -10 v20 m206 0 v-20 m-206 20 v24 m206 0 v-24 m-206 24 q0 10 10 10 m186 0 q10 0 10 -10 m-196 10 h10 m82 0 h10 m0 0 h84 m-196 -10 v20 m206 0 v-20 m-206 20 v24 m206 0 v-24 m-206 24 q0 10 10 10 m186 0 q10 0 10 -10 m-196 10 h10 m116 0 h10 m0 0 h50 m-196 -10 v20 m206 0 v-20 m-206 20 v24 m206 0 v-24 m-206 24 q0 10 10 10 m186 0 q10 0 10 -10 m-196 10 h10 m98 0 h10 m0 0 h68 m-196 -10 v20 m206 0 v-20 m-206 20 v24 m206 0 v-24 m-206 24 q0 10 10 10 m186 0 q10 0 10 -10 m-196 10 h10 m94 0 h10 m0 0 h72 m-196 -10 v20 m206 0 v-20 m-206 20 v24 m206 0 v-24 m-206 24 q0 10 10 10 m186 0 q10 0 10 -10 m-196 10 h10 m62 0 h10 m0 0 h104 m-196 -10 v20 m206 0 v-20 m-206 20 v24 m206 0 v-24 m-206 24 q0 10 10 10 m186 0 q10 0 10 -10 m-196 10 h10 m166 0 h10 m-196 -10 v20 m206 0 v-20 m-206 20 v24 m206 0 v-24 m-206 24 q0 10 10 10 m186 0 q10 0 10 -10 m-196 10 h10 m150 0 h10 m0 0 h16 m-196 -10 v20 m206 0 v-20 m-206 20 v24 m206 0 v-24 m-206 24 q0 10 10 10 m186 0 q10 0 10 -10 m-196 10 h10 m56 0 h10 m0 0 h110 m-196 -10 v20 m206 0 v-20 m-206 20 v24 m206 0 v-24 m-206 24 q0 10 10 10 m186 0 q10 0 10 -10 m-196 10 h10 m82 0 h10 m0 0 h84 m-196 -10 v20 m206 0 v-20 m-206 20 v24 m206 0 v-24 m-206 24 q0 10 10 10 m186 0 q10 0 10 -10 m-196 10 h10 m76 0 h10 m0 0 h90 m-196 -10 v20 m206 0 v-20 m-206 20 v24 m206 0 v-24 m-206 24 q0 10 10 10 m186 0 q10 0 10 -10 m-196 10 h10 m52 0 h10 m0 0 h114 m-196 -10 v20 m206 0 v-20 m-206 20 v24 m206 0 v-24 m-206 24 q0 10 10 10 m186 0 q10 0 10 -10 m-196 10 h10 m78 0 h10 m0 0 h88 m-196 -10 v20 m206 0 v-20 m-206 20 v24 m206 0 v-24 m-206 24 q0 10 10 10 m186 0 q10 0 10 -10 m-196 10 h10 m66 0 h10 m0 0 h100 m-196 -10 v20 m206 0 v-20 m-206 20 v24 m206 0 v-24 m-206 24 q0 10 10 10 m186 0 q10 0 10 -10 m-196 10 h10 m56 0 h10 m0 0 h110 m-196 -10 v20 m206 0 v-20 m-206 20 v24 m206 0 v-24 m-206 24 q0 10 10 10 m186 0 q10 0 10 -10 m-196 10 h10 m58 0 h10 m0 0 h108 m20 -704 h10 m104 0 h10 m0 0 h10 m32 0 h10 m2 0 l2 0 m2 0 l2 0 m2 0 l2 0 m-190 770 l2 0 m2 0 l2 0 m2 0 l2 0 m22 0 h10 m100 0 h10 m-140 0 h20 m120 0 h20 m-160 0 q10 0 10 10 m140 0 q0 -10 10 -10 m-150 10 v24 m140 0 v-24 m-140 24 q0 10 10 10 m120 0 q10 0 10 -10 m-130 10 h10 m56 0 h10 m0 0 h44 m23 -44 h-3"/>
   <polygon points="565 787 573 783 573 791"/>
   <polygon points="565 787 557 783 557 791"/>
</svg>
