<svg xmlns="http://www.w3.org/2000/svg" width="629" height="179">
   <polygon points="9 61 1 57 1 65"/>
   <polygon points="17 61 9 57 9 65"/>
   <rect x="51" y="47" width="48" height="32" rx="10"/>
   <rect x="49"
         y="45"
         width="48"
         height="32"
         class="terminal"
         rx="10"/>
   <text class="terminal" x="59" y="65">FILE</text>
   <rect x="119" y="47" width="48" height="32"/>
   <rect x="117" y="45" width="48" height="32" class="nonterminal"/>
   <text class="nonterminal" x="127" y="65">path</text>
   <rect x="207" y="47" width="56" height="32" rx="10"/>
   <rect x="205"
         y="45"
         width="56"
         height="32"
         class="terminal"
         rx="10"/>
   <text class="terminal" x="215" y="65">WITH</text>
   <rect x="283" y="47" width="24" height="32" rx="10"/>
   <rect x="281"
         y="45"
         width="24"
         height="32"
         class="terminal"
         rx="10"/>
   <text class="terminal" x="291" y="65">(</text>
   <rect x="347" y="47" width="46" height="32"/>
   <rect x="345" y="45" width="46" height="32" class="nonterminal"/>
   <text class="nonterminal" x="355" y="65">field</text>
   <rect x="413" y="47" width="26" height="32" rx="10"/>
   <rect x="411"
         y="45"
         width="26"
         height="32"
         class="terminal"
         rx="10"/>
   <text class="terminal" x="421" y="65">=</text>
   <rect x="459" y="47" width="38" height="32"/>
   <rect x="457" y="45" width="38" height="32" class="nonterminal"/>
   <text class="nonterminal" x="467" y="65">val</text>
   <rect x="347" y="3" width="24" height="32" rx="10"/>
   <rect x="345"
         y="1"
         width="24"
         height="32"
         class="terminal"
         rx="10"/>
   <text class="terminal" x="355" y="21">,</text>
   <rect x="537" y="47" width="24" height="32" rx="10"/>
   <rect x="535"
         y="45"
         width="24"
         height="32"
         class="terminal"
         rx="10"/>
   <text class="terminal" x="545" y="65">)</text>
   <rect x="51" y="113" width="126" height="32" rx="10"/>
   <rect x="49"
         y="111"
         width="126"
         height="32"
         class="terminal"
         rx="10"/>
   <text class="terminal" x="59" y="131">KAFKA BROKER</text>
   <rect x="197" y="113" width="46" height="32"/>
   <rect x="195" y="111" width="46" height="32" class="nonterminal"/>
   <text class="nonterminal" x="205" y="131">host</text>
   <rect x="263" y="113" width="62" height="32" rx="10"/>
   <rect x="261"
         y="111"
         width="62"
         height="32"
         class="terminal"
         rx="10"/>
   <text class="terminal" x="271" y="131">TOPIC</text>
   <rect x="365" y="145" width="50" height="32"/>
   <rect x="363" y="143" width="50" height="32" class="nonterminal"/>
   <text class="nonterminal" x="373" y="163">topic</text>
   <path class="line"
         d="m17 61 h2 m20 0 h10 m48 0 h10 m0 0 h10 m48 0 h10 m20 0 h10 m56 0 h10 m0 0 h10 m24 0 h10 m20 0 h10 m46 0 h10 m0 0 h10 m26 0 h10 m0 0 h10 m38 0 h10 m-190 0 l20 0 m-1 0 q-9 0 -9 -10 l0 -24 q0 -10 10 -10 m170 44 l20 0 m-20 0 q10 0 10 -10 l0 -24 q0 -10 -10 -10 m-170 0 h10 m24 0 h10 m0 0 h126 m20 44 h10 m24 0 h10 m-394 0 h20 m374 0 h20 m-414 0 q10 0 10 10 m394 0 q0 -10 10 -10 m-404 10 v14 m394 0 v-14 m-394 14 q0 10 10 10 m374 0 q10 0 10 -10 m-384 10 h10 m0 0 h364 m-550 -34 h20 m550 0 h20 m-590 0 q10 0 10 10 m570 0 q0 -10 10 -10 m-580 10 v46 m570 0 v-46 m-570 46 q0 10 10 10 m550 0 q10 0 10 -10 m-560 10 h10 m126 0 h10 m0 0 h10 m46 0 h10 m0 0 h10 m62 0 h10 m20 0 h10 m0 0 h60 m-90 0 h20 m70 0 h20 m-110 0 q10 0 10 10 m90 0 q0 -10 10 -10 m-100 10 v12 m90 0 v-12 m-90 12 q0 10 10 10 m70 0 q10 0 10 -10 m-80 10 h10 m50 0 h10 m20 -32 h146 m23 -66 h-3"/>
   <polygon points="619 61 627 57 627 65"/>
   <polygon points="619 61 611 57 611 65"/>
</svg>
