<svg xmlns="http://www.w3.org/2000/svg" width="453" height="69">
   <polygon points="9 17 1 13 1 21"/>
   <polygon points="17 17 9 13 9 21"/>
   <rect x="31" y="3" width="130" height="32" rx="10"/>
   <rect x="29"
         y="1"
         width="130"
         height="32"
         class="terminal"
         rx="10"/>
   <text class="terminal" x="39" y="21">KAFKA BROKER</text>
   <rect x="181" y="3" width="48" height="32"/>
   <rect x="179" y="1" width="48" height="32" class="nonterminal"/>
   <text class="nonterminal" x="189" y="21">host</text>
   <rect x="249" y="3" width="64" height="32" rx="10"/>
   <rect x="247"
         y="1"
         width="64"
         height="32"
         class="terminal"
         rx="10"/>
   <text class="terminal" x="257" y="21">TOPIC</text>
   <rect x="353" y="35" width="52" height="32"/>
   <rect x="351" y="33" width="52" height="32" class="nonterminal"/>
   <text class="nonterminal" x="361" y="53">topic</text>
   <path class="line"
         d="m17 17 h2 m0 0 h10 m130 0 h10 m0 0 h10 m48 0 h10 m0 0 h10 m64 0 h10 m20 0 h10 m0 0 h62 m-92 0 h20 m72 0 h20 m-112 0 q10 0 10 10 m92 0 q0 -10 10 -10 m-102 10 v12 m92 0 v-12 m-92 12 q0 10 10 10 m72 0 q10 0 10 -10 m-82 10 h10 m52 0 h10 m23 -32 h-3"/>
   <polygon points="443 17 451 13 451 21"/>
   <polygon points="443 17 435 13 435 21"/>
</svg>
