<svg xmlns="http://www.w3.org/2000/svg" width="641" height="179">
   <polygon points="9 61 1 57 1 65"/>
   <polygon points="17 61 9 57 9 65"/>
   <rect x="51" y="47" width="48" height="32" rx="10"/>
   <rect x="49"
         y="45"
         width="48"
         height="32"
         class="terminal"
         rx="10"/>
   <text class="terminal" x="59" y="65">FILE</text>
   <rect x="119" y="47" width="50" height="32"/>
   <rect x="117" y="45" width="50" height="32" class="nonterminal"/>
   <text class="nonterminal" x="127" y="65">path</text>
   <rect x="209" y="47" width="58" height="32" rx="10"/>
   <rect x="207"
         y="45"
         width="58"
         height="32"
         class="terminal"
         rx="10"/>
   <text class="terminal" x="217" y="65">WITH</text>
   <rect x="287" y="47" width="26" height="32" rx="10"/>
   <rect x="285"
         y="45"
         width="26"
         height="32"
         class="terminal"
         rx="10"/>
   <text class="terminal" x="295" y="65">(</text>
   <rect x="353" y="47" width="48" height="32"/>
   <rect x="351" y="45" width="48" height="32" class="nonterminal"/>
   <text class="nonterminal" x="361" y="65">field</text>
   <rect x="421" y="47" width="28" height="32" rx="10"/>
   <rect x="419"
         y="45"
         width="28"
         height="32"
         class="terminal"
         rx="10"/>
   <text class="terminal" x="429" y="65">=</text>
   <rect x="469" y="47" width="38" height="32"/>
   <rect x="467" y="45" width="38" height="32" class="nonterminal"/>
   <text class="nonterminal" x="477" y="65">val</text>
   <rect x="353" y="3" width="24" height="32" rx="10"/>
   <rect x="351"
         y="1"
         width="24"
         height="32"
         class="terminal"
         rx="10"/>
   <text class="terminal" x="361" y="21">,</text>
   <rect x="547" y="47" width="26" height="32" rx="10"/>
   <rect x="545"
         y="45"
         width="26"
         height="32"
         class="terminal"
         rx="10"/>
   <text class="terminal" x="555" y="65">)</text>
   <rect x="51" y="113" width="130" height="32" rx="10"/>
   <rect x="49"
         y="111"
         width="130"
         height="32"
         class="terminal"
         rx="10"/>
   <text class="terminal" x="59" y="131">KAFKA BROKER</text>
   <rect x="201" y="113" width="48" height="32"/>
   <rect x="199" y="111" width="48" height="32" class="nonterminal"/>
   <text class="nonterminal" x="209" y="131">host</text>
   <rect x="269" y="113" width="64" height="32" rx="10"/>
   <rect x="267"
         y="111"
         width="64"
         height="32"
         class="terminal"
         rx="10"/>
   <text class="terminal" x="277" y="131">TOPIC</text>
   <rect x="373" y="145" width="52" height="32"/>
   <rect x="371" y="143" width="52" height="32" class="nonterminal"/>
   <text class="nonterminal" x="381" y="163">topic</text>
   <path class="line"
         d="m17 61 h2 m20 0 h10 m48 0 h10 m0 0 h10 m50 0 h10 m20 0 h10 m58 0 h10 m0 0 h10 m26 0 h10 m20 0 h10 m48 0 h10 m0 0 h10 m28 0 h10 m0 0 h10 m38 0 h10 m-194 0 l20 0 m-1 0 q-9 0 -9 -10 l0 -24 q0 -10 10 -10 m174 44 l20 0 m-20 0 q10 0 10 -10 l0 -24 q0 -10 -10 -10 m-174 0 h10 m24 0 h10 m0 0 h130 m20 44 h10 m26 0 h10 m-404 0 h20 m384 0 h20 m-424 0 q10 0 10 10 m404 0 q0 -10 10 -10 m-414 10 v14 m404 0 v-14 m-404 14 q0 10 10 10 m384 0 q10 0 10 -10 m-394 10 h10 m0 0 h374 m-562 -34 h20 m562 0 h20 m-602 0 q10 0 10 10 m582 0 q0 -10 10 -10 m-592 10 v46 m582 0 v-46 m-582 46 q0 10 10 10 m562 0 q10 0 10 -10 m-572 10 h10 m130 0 h10 m0 0 h10 m48 0 h10 m0 0 h10 m64 0 h10 m20 0 h10 m0 0 h62 m-92 0 h20 m72 0 h20 m-112 0 q10 0 10 10 m92 0 q0 -10 10 -10 m-102 10 v12 m92 0 v-12 m-92 12 q0 10 10 10 m72 0 q10 0 10 -10 m-82 10 h10 m52 0 h10 m20 -32 h148 m23 -66 h-3"/>
   <polygon points="631 61 639 57 639 65"/>
   <polygon points="631 61 623 57 623 65"/>
</svg>
