<svg xmlns="http://www.w3.org/2000/svg" width="485" height="123">
   <polygon points="9 17 1 13 1 21"/>
   <polygon points="17 17 9 13 9 21"/>
   <rect x="31" y="3" width="110" height="32" rx="10"/>
   <rect x="29"
         y="1"
         width="110"
         height="32"
         class="terminal"
         rx="10"/>
   <text class="terminal" x="39" y="21">AVRO USING</text>
   <rect x="161" y="3" width="246" height="32" rx="10"/>
   <rect x="159"
         y="1"
         width="246"
         height="32"
         class="terminal"
         rx="10"/>
   <text class="terminal" x="169" y="21">CONFLUENT SCHEMA REGISTRY</text>
   <rect x="427" y="3" width="36" height="32"/>
   <rect x="425" y="1" width="36" height="32" class="nonterminal"/>
   <text class="nonterminal" x="435" y="21">url</text>
   <rect x="335" y="89" width="102" height="32"/>
   <rect x="333" y="87" width="102" height="32" class="nonterminal"/>
   <text class="nonterminal" x="343" y="107">with_options</text>
   <path class="line"
         d="m17 17 h2 m0 0 h10 m110 0 h10 m0 0 h10 m246 0 h10 m0 0 h10 m36 0 h10 m2 0 l2 0 m2 0 l2 0 m2 0 l2 0 m-192 54 l2 0 m2 0 l2 0 m2 0 l2 0 m22 0 h10 m0 0 h112 m-142 0 h20 m122 0 h20 m-162 0 q10 0 10 10 m142 0 q0 -10 10 -10 m-152 10 v12 m142 0 v-12 m-142 12 q0 10 10 10 m122 0 q10 0 10 -10 m-132 10 h10 m102 0 h10 m23 -32 h-3"/>
   <polygon points="475 71 483 67 483 75"/>
   <polygon points="475 71 467 67 467 75"/>
</svg>
