<svg xmlns="http://www.w3.org/2000/svg" width="427" height="195">
   <polygon points="9 17 1 13 1 21"/>
   <polygon points="17 17 9 13 9 21"/>
   <rect x="31" y="3" width="58" height="32" rx="10"/>
   <rect x="29"
         y="1"
         width="58"
         height="32"
         class="terminal"
         rx="10"/>
   <text class="terminal" x="39" y="21">COPY</text>
   <rect x="109" y="3" width="24" height="32" rx="10"/>
   <rect x="107"
         y="1"
         width="24"
         height="32"
         class="terminal"
         rx="10"/>
   <text class="terminal" x="117" y="21">(</text>
   <rect x="153" y="3" width="54" height="32"/>
   <rect x="151" y="1" width="54" height="32" class="nonterminal"/>
   <text class="nonterminal" x="161" y="21">query</text>
   <rect x="227" y="3" width="24" height="32" rx="10"/>
   <rect x="225"
         y="1"
         width="24"
         height="32"
         class="terminal"
         rx="10"/>
   <text class="terminal" x="235" y="21">)</text>
   <rect x="271" y="3" width="38" height="32" rx="10"/>
   <rect x="269"
         y="1"
         width="38"
         height="32"
         class="terminal"
         rx="10"/>
   <text class="terminal" x="279" y="21">TO</text>
   <rect x="329" y="3" width="76" height="32" rx="10"/>
   <rect x="327"
         y="1"
         width="76"
         height="32"
         class="terminal"
         rx="10"/>
   <text class="terminal" x="337" y="21">STDOUT</text>
   <rect x="97" y="145" width="56" height="32" rx="10"/>
   <rect x="95"
         y="143"
         width="56"
         height="32"
         class="terminal"
         rx="10"/>
   <text class="terminal" x="105" y="163">WITH</text>
   <rect x="193" y="113" width="24" height="32" rx="10"/>
   <rect x="191"
         y="111"
         width="24"
         height="32"
         class="terminal"
         rx="10"/>
   <text class="terminal" x="201" y="131">(</text>
   <rect x="257" y="113" width="58" height="32"/>
   <rect x="255" y="111" width="58" height="32" class="nonterminal"/>
   <text class="nonterminal" x="265" y="131">option</text>
   <rect x="257" y="69" width="24" height="32" rx="10"/>
   <rect x="255"
         y="67"
         width="24"
         height="32"
         class="terminal"
         rx="10"/>
   <text class="terminal" x="265" y="87">,</text>
   <rect x="355" y="113" width="24" height="32" rx="10"/>
   <rect x="353"
         y="111"
         width="24"
         height="32"
         class="terminal"
         rx="10"/>
   <text class="terminal" x="363" y="131">)</text>
   <path class="line"
         d="m17 17 h2 m0 0 h10 m58 0 h10 m0 0 h10 m24 0 h10 m0 0 h10 m54 0 h10 m0 0 h10 m24 0 h10 m0 0 h10 m38 0 h10 m0 0 h10 m76 0 h10 m2 0 l2 0 m2 0 l2 0 m2 0 l2 0 m-392 110 l2 0 m2 0 l2 0 m2 0 l2 0 m42 0 h10 m0 0 h66 m-96 0 h20 m76 0 h20 m-116 0 q10 0 10 10 m96 0 q0 -10 10 -10 m-106 10 v12 m96 0 v-12 m-96 12 q0 10 10 10 m76 0 q10 0 10 -10 m-86 10 h10 m56 0 h10 m20 -32 h10 m24 0 h10 m20 0 h10 m58 0 h10 m-98 0 l20 0 m-1 0 q-9 0 -9 -10 l0 -24 q0 -10 10 -10 m78 44 l20 0 m-20 0 q10 0 10 -10 l0 -24 q0 -10 -10 -10 m-78 0 h10 m24 0 h10 m0 0 h34 m20 44 h10 m24 0 h10 m-342 0 h20 m322 0 h20 m-362 0 q10 0 10 10 m342 0 q0 -10 10 -10 m-352 10 v46 m342 0 v-46 m-342 46 q0 10 10 10 m322 0 q10 0 10 -10 m-332 10 h10 m0 0 h312 m23 -66 h-3"/>
   <polygon points="417 127 425 123 425 131"/>
   <polygon points="417 127 409 123 409 131"/>
</svg>
