<svg xmlns="http://www.w3.org/2000/svg" width="603" height="337">
   <polygon points="9 61 1 57 1 65"/>
   <polygon points="17 61 9 57 9 65"/>
   <rect x="31" y="47" width="60" height="32" rx="10"/>
   <rect x="29"
         y="45"
         width="60"
         height="32"
         class="terminal"
         rx="10"/>
   <text class="terminal" x="39" y="65">COPY</text>
   <rect x="131" y="79" width="54" height="32" rx="10"/>
   <rect x="129"
         y="77"
         width="54"
         height="32"
         class="terminal"
         rx="10"/>
   <text class="terminal" x="139" y="97">INTO</text>
   <rect x="225" y="47" width="96" height="32"/>
   <rect x="223" y="45" width="96" height="32" class="nonterminal"/>
   <text class="nonterminal" x="233" y="65">table_name</text>
   <rect x="361" y="47" width="26" height="32" rx="10"/>
   <rect x="359"
         y="45"
         width="26"
         height="32"
         class="terminal"
         rx="10"/>
   <text class="terminal" x="369" y="65">(</text>
   <rect x="427" y="47" width="68" height="32"/>
   <rect x="425" y="45" width="68" height="32" class="nonterminal"/>
   <text class="nonterminal" x="435" y="65">column</text>
   <rect x="427" y="3" width="24" height="32" rx="10"/>
   <rect x="425"
         y="1"
         width="24"
         height="32"
         class="terminal"
         rx="10"/>
   <text class="terminal" x="435" y="21">,</text>
   <rect x="535" y="47" width="26" height="32" rx="10"/>
   <rect x="533"
         y="45"
         width="26"
         height="32"
         class="terminal"
         rx="10"/>
   <text class="terminal" x="543" y="65">)</text>
   <rect x="232" y="145" width="60" height="32" rx="10"/>
   <rect x="230"
         y="143"
         width="60"
         height="32"
         class="terminal"
         rx="10"/>
   <text class="terminal" x="240" y="163">FROM</text>
   <rect x="312" y="145" width="62" height="32" rx="10"/>
   <rect x="310"
         y="143"
         width="62"
         height="32"
         class="terminal"
         rx="10"/>
   <text class="terminal" x="320" y="163">STDIN</text>
   <rect x="219" y="287" width="58" height="32" rx="10"/>
   <rect x="217"
         y="285"
         width="58"
         height="32"
         class="terminal"
         rx="10"/>
   <text class="terminal" x="227" y="305">WITH</text>
   <rect x="317" y="255" width="26" height="32" rx="10"/>
   <rect x="315"
         y="253"
         width="26"
         height="32"
         class="terminal"
         rx="10"/>
   <text class="terminal" x="325" y="273">(</text>
   <rect x="383" y="255" width="48" height="32"/>
   <rect x="381" y="253" width="48" height="32" class="nonterminal"/>
   <text class="nonterminal" x="391" y="273">field</text>
   <rect x="451" y="255" width="38" height="32"/>
   <rect x="449" y="253" width="38" height="32" class="nonterminal"/>
   <text class="nonterminal" x="459" y="273">val</text>
   <rect x="383" y="211" width="24" height="32" rx="10"/>
   <rect x="381"
         y="209"
         width="24"
         height="32"
         class="terminal"
         rx="10"/>
   <text class="terminal" x="391" y="229">,</text>
   <rect x="529" y="255" width="26" height="32" rx="10"/>
   <rect x="527"
         y="253"
         width="26"
         height="32"
         class="terminal"
         rx="10"/>
   <text class="terminal" x="537" y="273">)</text>
   <path class="line"
         d="m17 61 h2 m0 0 h10 m60 0 h10 m20 0 h10 m0 0 h64 m-94 0 h20 m74 0 h20 m-114 0 q10 0 10 10 m94 0 q0 -10 10 -10 m-104 10 v12 m94 0 v-12 m-94 12 q0 10 10 10 m74 0 q10 0 10 -10 m-84 10 h10 m54 0 h10 m20 -32 h10 m96 0 h10 m20 0 h10 m26 0 h10 m20 0 h10 m68 0 h10 m-108 0 l20 0 m-1 0 q-9 0 -9 -10 l0 -24 q0 -10 10 -10 m88 44 l20 0 m-20 0 q10 0 10 -10 l0 -24 q0 -10 -10 -10 m-88 0 h10 m24 0 h10 m0 0 h44 m20 44 h10 m26 0 h10 m-240 0 h20 m220 0 h20 m-260 0 q10 0 10 10 m240 0 q0 -10 10 -10 m-250 10 v14 m240 0 v-14 m-240 14 q0 10 10 10 m220 0 q10 0 10 -10 m-230 10 h10 m0 0 h210 m22 -34 l2 0 m2 0 l2 0 m2 0 l2 0 m-393 98 l2 0 m2 0 l2 0 m2 0 l2 0 m2 0 h10 m60 0 h10 m0 0 h10 m62 0 h10 m2 0 l2 0 m2 0 l2 0 m2 0 l2 0 m-239 110 l2 0 m2 0 l2 0 m2 0 l2 0 m42 0 h10 m0 0 h68 m-98 0 h20 m78 0 h20 m-118 0 q10 0 10 10 m98 0 q0 -10 10 -10 m-108 10 v12 m98 0 v-12 m-98 12 q0 10 10 10 m78 0 q10 0 10 -10 m-88 10 h10 m58 0 h10 m20 -32 h10 m26 0 h10 m20 0 h10 m48 0 h10 m0 0 h10 m38 0 h10 m-146 0 l20 0 m-1 0 q-9 0 -9 -10 l0 -24 q0 -10 10 -10 m126 44 l20 0 m-20 0 q10 0 10 -10 l0 -24 q0 -10 -10 -10 m-126 0 h10 m24 0 h10 m0 0 h82 m20 44 h10 m26 0 h10 m-396 0 h20 m376 0 h20 m-416 0 q10 0 10 10 m396 0 q0 -10 10 -10 m-406 10 v46 m396 0 v-46 m-396 46 q0 10 10 10 m376 0 q10 0 10 -10 m-386 10 h10 m0 0 h366 m23 -66 h-3"/>
   <polygon points="593 269 601 265 601 273"/>
   <polygon points="593 269 585 265 585 273"/>
</svg>
