<svg xmlns="http://www.w3.org/2000/svg" width="391" height="37">
   <polygon points="9 17 1 13 1 21"/>
   <polygon points="17 17 9 13 9 21"/>
   <rect x="31" y="3" width="58" height="32" rx="10"/>
   <rect x="29"
         y="1"
         width="58"
         height="32"
         class="terminal"
         rx="10"/>
   <text class="terminal" x="39" y="21">COPY</text>
   <rect x="109" y="3" width="92" height="32"/>
   <rect x="107" y="1" width="92" height="32" class="nonterminal"/>
   <text class="nonterminal" x="117" y="21">table_name</text>
   <rect x="221" y="3" width="60" height="32" rx="10"/>
   <rect x="219"
         y="1"
         width="60"
         height="32"
         class="terminal"
         rx="10"/>
   <text class="terminal" x="229" y="21">FROM</text>
   <rect x="301" y="3" width="62" height="32" rx="10"/>
   <rect x="299"
         y="1"
         width="62"
         height="32"
         class="terminal"
         rx="10"/>
   <text class="terminal" x="309" y="21">STDIN</text>
   <path class="line"
         d="m17 17 h2 m0 0 h10 m58 0 h10 m0 0 h10 m92 0 h10 m0 0 h10 m60 0 h10 m0 0 h10 m62 0 h10 m3 0 h-3"/>
   <polygon points="381 17 389 13 389 21"/>
   <polygon points="381 17 373 13 373 21"/>
</svg>
