<svg xmlns="http://www.w3.org/2000/svg" width="539" height="273">
   <polygon points="9 17 1 13 1 21"/>
   <polygon points="17 17 9 13 9 21"/>
   <rect x="31" y="3" width="60" height="32" rx="10"/>
   <rect x="29"
         y="1"
         width="60"
         height="32"
         class="terminal"
         rx="10"/>
   <text class="terminal" x="39" y="21">COPY</text>
   <rect x="131" y="3" width="58" height="32"/>
   <rect x="129" y="1" width="58" height="32" class="nonterminal"/>
   <text class="nonterminal" x="139" y="21">query</text>
   <rect x="131" y="47" width="104" height="32"/>
   <rect x="129" y="45" width="104" height="32" class="nonterminal"/>
   <text class="nonterminal" x="139" y="65">object_name</text>
   <rect x="275" y="3" width="40" height="32" rx="10"/>
   <rect x="273"
         y="1"
         width="40"
         height="32"
         class="terminal"
         rx="10"/>
   <text class="terminal" x="283" y="21">TO</text>
   <rect x="335" y="3" width="58" height="32"/>
   <rect x="333" y="1" width="58" height="32" class="nonterminal"/>
   <text class="nonterminal" x="343" y="21">s3_uri</text>
   <rect x="413" y="3" width="26" height="32" rx="10"/>
   <rect x="411"
         y="1"
         width="26"
         height="32"
         class="terminal"
         rx="10"/>
   <text class="terminal" x="421" y="21">(</text>
   <rect x="459" y="3" width="58" height="32" rx="10"/>
   <rect x="457"
         y="1"
         width="58"
         height="32"
         class="terminal"
         rx="10"/>
   <text class="terminal" x="467" y="21">WITH</text>
   <rect x="44" y="113" width="154" height="32" rx="10"/>
   <rect x="42"
         y="111"
         width="154"
         height="32"
         class="terminal"
         rx="10"/>
   <text class="terminal" x="52" y="131">AWS CONNECTION</text>
   <rect x="218" y="113" width="136" height="32"/>
   <rect x="216" y="111" width="136" height="32" class="nonterminal"/>
   <text class="nonterminal" x="226" y="131">connection_name</text>
   <rect x="374" y="113" width="24" height="32" rx="10"/>
   <rect x="372"
         y="111"
         width="24"
         height="32"
         class="terminal"
         rx="10"/>
   <text class="terminal" x="382" y="131">,</text>
   <rect x="418" y="113" width="80" height="32" rx="10"/>
   <rect x="416"
         y="111"
         width="80"
         height="32"
         class="terminal"
         rx="10"/>
   <text class="terminal" x="426" y="131">FORMAT</text>
   <rect x="125" y="195" width="42" height="32"/>
   <rect x="123" y="193" width="42" height="32" class="nonterminal"/>
   <text class="nonterminal" x="133" y="213">csv</text>
   <rect x="125" y="239" width="70" height="32"/>
   <rect x="123" y="237" width="70" height="32" class="nonterminal"/>
   <text class="nonterminal" x="133" y="257">parquet</text>
   <rect x="275" y="195" width="24" height="32" rx="10"/>
   <rect x="273"
         y="193"
         width="24"
         height="32"
         class="terminal"
         rx="10"/>
   <text class="terminal" x="283" y="213">,</text>
   <rect x="319" y="195" width="48" height="32"/>
   <rect x="317" y="193" width="48" height="32" class="nonterminal"/>
   <text class="nonterminal" x="327" y="213">field</text>
   <rect x="387" y="195" width="38" height="32"/>
   <rect x="385" y="193" width="38" height="32" class="nonterminal"/>
   <text class="nonterminal" x="395" y="213">val</text>
   <rect x="485" y="195" width="26" height="32" rx="10"/>
   <rect x="483"
         y="193"
         width="26"
         height="32"
         class="terminal"
         rx="10"/>
   <text class="terminal" x="493" y="213">)</text>
   <path class="line"
         d="m17 17 h2 m0 0 h10 m60 0 h10 m20 0 h10 m58 0 h10 m0 0 h46 m-144 0 h20 m124 0 h20 m-164 0 q10 0 10 10 m144 0 q0 -10 10 -10 m-154 10 v24 m144 0 v-24 m-144 24 q0 10 10 10 m124 0 q10 0 10 -10 m-134 10 h10 m104 0 h10 m20 -44 h10 m40 0 h10 m0 0 h10 m58 0 h10 m0 0 h10 m26 0 h10 m0 0 h10 m58 0 h10 m2 0 l2 0 m2 0 l2 0 m2 0 l2 0 m-517 110 l2 0 m2 0 l2 0 m2 0 l2 0 m2 0 h10 m154 0 h10 m0 0 h10 m136 0 h10 m0 0 h10 m24 0 h10 m0 0 h10 m80 0 h10 m2 0 l2 0 m2 0 l2 0 m2 0 l2 0 m-437 82 l2 0 m2 0 l2 0 m2 0 l2 0 m22 0 h10 m42 0 h10 m0 0 h28 m-110 0 h20 m90 0 h20 m-130 0 q10 0 10 10 m110 0 q0 -10 10 -10 m-120 10 v24 m110 0 v-24 m-110 24 q0 10 10 10 m90 0 q10 0 10 -10 m-100 10 h10 m70 0 h10 m60 -44 h10 m24 0 h10 m0 0 h10 m48 0 h10 m0 0 h10 m38 0 h10 m-190 0 l20 0 m-1 0 q-9 0 -9 -10 l0 -12 q0 -10 10 -10 m170 32 l20 0 m-20 0 q10 0 10 -10 l0 -12 q0 -10 -10 -10 m-170 0 h10 m0 0 h160 m-210 32 h20 m210 0 h20 m-250 0 q10 0 10 10 m230 0 q0 -10 10 -10 m-240 10 v14 m230 0 v-14 m-230 14 q0 10 10 10 m210 0 q10 0 10 -10 m-220 10 h10 m0 0 h200 m20 -34 h10 m26 0 h10 m3 0 h-3"/>
   <polygon points="529 209 537 205 537 213"/>
   <polygon points="529 209 521 205 521 213"/>
</svg>
