<svg xmlns="http://www.w3.org/2000/svg" width="569" height="255">
   <polygon points="9 61 1 57 1 65"/>
   <polygon points="17 61 9 57 9 65"/>
   <rect x="31" y="47" width="60" height="32" rx="10"/>
   <rect x="29"
         y="45"
         width="60"
         height="32"
         class="terminal"
         rx="10"/>
   <text class="terminal" x="39" y="65">COPY</text>
   <rect x="111" y="47" width="96" height="32"/>
   <rect x="109" y="45" width="96" height="32" class="nonterminal"/>
   <text class="nonterminal" x="119" y="65">table_name</text>
   <rect x="247" y="47" width="26" height="32" rx="10"/>
   <rect x="245"
         y="45"
         width="26"
         height="32"
         class="terminal"
         rx="10"/>
   <text class="terminal" x="255" y="65">(</text>
   <rect x="313" y="47" width="68" height="32"/>
   <rect x="311" y="45" width="68" height="32" class="nonterminal"/>
   <text class="nonterminal" x="321" y="65">column</text>
   <rect x="313" y="3" width="24" height="32" rx="10"/>
   <rect x="311"
         y="1"
         width="24"
         height="32"
         class="terminal"
         rx="10"/>
   <text class="terminal" x="321" y="21">,</text>
   <rect x="421" y="47" width="26" height="32" rx="10"/>
   <rect x="419"
         y="45"
         width="26"
         height="32"
         class="terminal"
         rx="10"/>
   <text class="terminal" x="429" y="65">)</text>
   <rect x="487" y="47" width="60" height="32" rx="10"/>
   <rect x="485"
         y="45"
         width="60"
         height="32"
         class="terminal"
         rx="10"/>
   <text class="terminal" x="495" y="65">FROM</text>
   <rect x="107" y="173" width="62" height="32" rx="10"/>
   <rect x="105"
         y="171"
         width="62"
         height="32"
         class="terminal"
         rx="10"/>
   <text class="terminal" x="115" y="191">STDIN</text>
   <rect x="229" y="205" width="58" height="32" rx="10"/>
   <rect x="227"
         y="203"
         width="58"
         height="32"
         class="terminal"
         rx="10"/>
   <text class="terminal" x="237" y="223">WITH</text>
   <rect x="327" y="173" width="26" height="32" rx="10"/>
   <rect x="325"
         y="171"
         width="26"
         height="32"
         class="terminal"
         rx="10"/>
   <text class="terminal" x="335" y="191">(</text>
   <rect x="393" y="173" width="62" height="32"/>
   <rect x="391" y="171" width="62" height="32" class="nonterminal"/>
   <text class="nonterminal" x="401" y="191">option</text>
   <rect x="393" y="129" width="24" height="32" rx="10"/>
   <rect x="391"
         y="127"
         width="24"
         height="32"
         class="terminal"
         rx="10"/>
   <text class="terminal" x="401" y="147">,</text>
   <rect x="495" y="173" width="26" height="32" rx="10"/>
   <rect x="493"
         y="171"
         width="26"
         height="32"
         class="terminal"
         rx="10"/>
   <text class="terminal" x="503" y="191">)</text>
   <path class="line"
         d="m17 61 h2 m0 0 h10 m60 0 h10 m0 0 h10 m96 0 h10 m20 0 h10 m26 0 h10 m20 0 h10 m68 0 h10 m-108 0 l20 0 m-1 0 q-9 0 -9 -10 l0 -24 q0 -10 10 -10 m88 44 l20 0 m-20 0 q10 0 10 -10 l0 -24 q0 -10 -10 -10 m-88 0 h10 m24 0 h10 m0 0 h44 m20 44 h10 m26 0 h10 m-240 0 h20 m220 0 h20 m-260 0 q10 0 10 10 m240 0 q0 -10 10 -10 m-250 10 v14 m240 0 v-14 m-240 14 q0 10 10 10 m220 0 q10 0 10 -10 m-230 10 h10 m0 0 h210 m20 -34 h10 m60 0 h10 m2 0 l2 0 m2 0 l2 0 m2 0 l2 0 m-484 126 l2 0 m2 0 l2 0 m2 0 l2 0 m2 0 h10 m62 0 h10 m40 0 h10 m0 0 h68 m-98 0 h20 m78 0 h20 m-118 0 q10 0 10 10 m98 0 q0 -10 10 -10 m-108 10 v12 m98 0 v-12 m-98 12 q0 10 10 10 m78 0 q10 0 10 -10 m-88 10 h10 m58 0 h10 m20 -32 h10 m26 0 h10 m20 0 h10 m62 0 h10 m-102 0 l20 0 m-1 0 q-9 0 -9 -10 l0 -24 q0 -10 10 -10 m82 44 l20 0 m-20 0 q10 0 10 -10 l0 -24 q0 -10 -10 -10 m-82 0 h10 m24 0 h10 m0 0 h38 m20 44 h10 m26 0 h10 m-352 0 h20 m332 0 h20 m-372 0 q10 0 10 10 m352 0 q0 -10 10 -10 m-362 10 v46 m352 0 v-46 m-352 46 q0 10 10 10 m332 0 q10 0 10 -10 m-342 10 h10 m0 0 h322 m23 -66 h-3"/>
   <polygon points="559 187 567 183 567 191"/>
   <polygon points="559 187 551 183 551 191"/>
</svg>
