<svg xmlns="http://www.w3.org/2000/svg" width="535" height="191">
   <polygon points="9 17 1 13 1 21"/>
   <polygon points="17 17 9 13 9 21"/>
   <rect x="31" y="3" width="76" height="32" rx="10"/>
   <rect x="29"
         y="1"
         width="76"
         height="32"
         class="terminal"
         rx="10"/>
   <text class="terminal" x="39" y="21">CREATE</text>
   <rect x="127" y="3" width="56" height="32" rx="10"/>
   <rect x="125"
         y="1"
         width="56"
         height="32"
         class="terminal"
         rx="10"/>
   <text class="terminal" x="135" y="21">TYPE</text>
   <rect x="203" y="3" width="92" height="32"/>
   <rect x="201" y="1" width="92" height="32" class="nonterminal"/>
   <text class="nonterminal" x="211" y="21">type_name</text>
   <rect x="315" y="3" width="40" height="32" rx="10"/>
   <rect x="313"
         y="1"
         width="40"
         height="32"
         class="terminal"
         rx="10"/>
   <text class="terminal" x="323" y="21">AS</text>
   <rect x="395" y="3" width="50" height="32" rx="10"/>
   <rect x="393"
         y="1"
         width="50"
         height="32"
         class="terminal"
         rx="10"/>
   <text class="terminal" x="403" y="21">LIST</text>
   <rect x="395" y="47" width="52" height="32" rx="10"/>
   <rect x="393"
         y="45"
         width="52"
         height="32"
         class="terminal"
         rx="10"/>
   <text class="terminal" x="403" y="65">MAP</text>
   <rect x="487" y="3" width="26" height="32" rx="10"/>
   <rect x="485"
         y="1"
         width="26"
         height="32"
         class="terminal"
         rx="10"/>
   <text class="terminal" x="495" y="21">(</text>
   <rect x="287" y="157" width="48" height="32"/>
   <rect x="285" y="155" width="48" height="32" class="nonterminal"/>
   <text class="nonterminal" x="295" y="175">field</text>
   <rect x="355" y="157" width="28" height="32" rx="10"/>
   <rect x="353"
         y="155"
         width="28"
         height="32"
         class="terminal"
         rx="10"/>
   <text class="terminal" x="363" y="175">=</text>
   <rect x="403" y="157" width="38" height="32"/>
   <rect x="401" y="155" width="38" height="32" class="nonterminal"/>
   <text class="nonterminal" x="411" y="175">val</text>
   <rect x="287" y="113" width="24" height="32" rx="10"/>
   <rect x="285"
         y="111"
         width="24"
         height="32"
         class="terminal"
         rx="10"/>
   <text class="terminal" x="295" y="131">,</text>
   <rect x="481" y="157" width="26" height="32" rx="10"/>
   <rect x="479"
         y="155"
         width="26"
         height="32"
         class="terminal"
         rx="10"/>
   <text class="terminal" x="489" y="175">)</text>
   <path class="line"
         d="m17 17 h2 m0 0 h10 m76 0 h10 m0 0 h10 m56 0 h10 m0 0 h10 m92 0 h10 m0 0 h10 m40 0 h10 m20 0 h10 m50 0 h10 m0 0 h2 m-92 0 h20 m72 0 h20 m-112 0 q10 0 10 10 m92 0 q0 -10 10 -10 m-102 10 v24 m92 0 v-24 m-92 24 q0 10 10 10 m72 0 q10 0 10 -10 m-82 10 h10 m52 0 h10 m20 -44 h10 m26 0 h10 m2 0 l2 0 m2 0 l2 0 m2 0 l2 0 m-290 154 l2 0 m2 0 l2 0 m2 0 l2 0 m22 0 h10 m48 0 h10 m0 0 h10 m28 0 h10 m0 0 h10 m38 0 h10 m-194 0 l20 0 m-1 0 q-9 0 -9 -10 l0 -24 q0 -10 10 -10 m174 44 l20 0 m-20 0 q10 0 10 -10 l0 -24 q0 -10 -10 -10 m-174 0 h10 m24 0 h10 m0 0 h130 m20 44 h10 m26 0 h10 m3 0 h-3"/>
   <polygon points="525 171 533 167 533 175"/>
   <polygon points="525 171 517 167 517 175"/>
</svg>
