<svg xmlns="http://www.w3.org/2000/svg" width="601" height="411">
   <polygon points="9 17 1 13 1 21"/>
   <polygon points="17 17 9 13 9 21"/>
   <rect x="31" y="3" width="140" height="32" rx="10"/>
   <rect x="29"
         y="1"
         width="140"
         height="32"
         class="terminal"
         rx="10"/>
   <text class="terminal" x="39" y="21">CREATE SOURCE</text>
   <rect x="211" y="35" width="120" height="32" rx="10"/>
   <rect x="209"
         y="33"
         width="120"
         height="32"
         class="terminal"
         rx="10"/>
   <text class="terminal" x="219" y="53">IF NOT EXISTS</text>
   <rect x="371" y="3" width="82" height="32"/>
   <rect x="369" y="1" width="82" height="32" class="nonterminal"/>
   <text class="nonterminal" x="379" y="21">src_name</text>
   <rect x="45" y="145" width="26" height="32" rx="10"/>
   <rect x="43"
         y="143"
         width="26"
         height="32"
         class="terminal"
         rx="10"/>
   <text class="terminal" x="53" y="163">(</text>
   <rect x="111" y="145" width="82" height="32"/>
   <rect x="109" y="143" width="82" height="32" class="nonterminal"/>
   <text class="nonterminal" x="119" y="163">col_name</text>
   <rect x="111" y="101" width="24" height="32" rx="10"/>
   <rect x="109"
         y="99"
         width="24"
         height="32"
         class="terminal"
         rx="10"/>
   <text class="terminal" x="119" y="119">,</text>
   <rect x="253" y="177" width="24" height="32" rx="10"/>
   <rect x="251"
         y="175"
         width="24"
         height="32"
         class="terminal"
         rx="10"/>
   <text class="terminal" x="261" y="195">,</text>
   <rect x="297" y="177" width="116" height="32"/>
   <rect x="295" y="175" width="116" height="32" class="nonterminal"/>
   <text class="nonterminal" x="305" y="195">key_constraint</text>
   <rect x="453" y="145" width="26" height="32" rx="10"/>
   <rect x="451"
         y="143"
         width="26"
         height="32"
         class="terminal"
         rx="10"/>
   <text class="terminal" x="461" y="163">)</text>
   <rect x="519" y="145" width="60" height="32" rx="10"/>
   <rect x="517"
         y="143"
         width="60"
         height="32"
         class="terminal"
         rx="10"/>
   <text class="terminal" x="527" y="163">FROM</text>
   <rect x="26" y="259" width="108" height="32" rx="10"/>
   <rect x="24"
         y="257"
         width="108"
         height="32"
         class="terminal"
         rx="10"/>
   <text class="terminal" x="34" y="277">KINESIS ARN</text>
   <rect x="154" y="259" width="40" height="32"/>
   <rect x="152" y="257" width="40" height="32" class="nonterminal"/>
   <text class="nonterminal" x="162" y="277">arn</text>
   <rect x="234" y="291" width="102" height="32"/>
   <rect x="232" y="289" width="102" height="32" class="nonterminal"/>
   <text class="nonterminal" x="242" y="309">with_options</text>
   <rect x="376" y="259" width="80" height="32" rx="10"/>
   <rect x="374"
         y="257"
         width="80"
         height="32"
         class="terminal"
         rx="10"/>
   <text class="terminal" x="384" y="277">FORMAT</text>
   <rect x="476" y="259" width="102" height="32"/>
   <rect x="474" y="257" width="102" height="32" class="nonterminal"/>
   <text class="nonterminal" x="484" y="277">format_spec</text>
   <rect x="415" y="377" width="138" height="32" rx="10"/>
   <rect x="413"
         y="375"
         width="138"
         height="32"
         class="terminal"
         rx="10"/>
   <text class="terminal" x="423" y="395">ENVELOPE NONE</text>
   <path class="line"
         d="m17 17 h2 m0 0 h10 m140 0 h10 m20 0 h10 m0 0 h130 m-160 0 h20 m140 0 h20 m-180 0 q10 0 10 10 m160 0 q0 -10 10 -10 m-170 10 v12 m160 0 v-12 m-160 12 q0 10 10 10 m140 0 q10 0 10 -10 m-150 10 h10 m120 0 h10 m20 -32 h10 m82 0 h10 m2 0 l2 0 m2 0 l2 0 m2 0 l2 0 m-472 142 l2 0 m2 0 l2 0 m2 0 l2 0 m22 0 h10 m26 0 h10 m20 0 h10 m82 0 h10 m-122 0 l20 0 m-1 0 q-9 0 -9 -10 l0 -24 q0 -10 10 -10 m102 44 l20 0 m-20 0 q10 0 10 -10 l0 -24 q0 -10 -10 -10 m-102 0 h10 m24 0 h10 m0 0 h58 m40 44 h10 m0 0 h170 m-200 0 h20 m180 0 h20 m-220 0 q10 0 10 10 m200 0 q0 -10 10 -10 m-210 10 v12 m200 0 v-12 m-200 12 q0 10 10 10 m180 0 q10 0 10 -10 m-190 10 h10 m24 0 h10 m0 0 h10 m116 0 h10 m20 -32 h10 m26 0 h10 m-474 0 h20 m454 0 h20 m-494 0 q10 0 10 10 m474 0 q0 -10 10 -10 m-484 10 v46 m474 0 v-46 m-474 46 q0 10 10 10 m454 0 q10 0 10 -10 m-464 10 h10 m0 0 h444 m20 -66 h10 m60 0 h10 m2 0 l2 0 m2 0 l2 0 m2 0 l2 0 m-597 114 l2 0 m2 0 l2 0 m2 0 l2 0 m2 0 h10 m108 0 h10 m0 0 h10 m40 0 h10 m20 0 h10 m0 0 h112 m-142 0 h20 m122 0 h20 m-162 0 q10 0 10 10 m142 0 q0 -10 10 -10 m-152 10 v12 m142 0 v-12 m-142 12 q0 10 10 10 m122 0 q10 0 10 -10 m-132 10 h10 m102 0 h10 m20 -32 h10 m80 0 h10 m0 0 h10 m102 0 h10 m2 0 l2 0 m2 0 l2 0 m2 0 l2 0 m-227 86 l2 0 m2 0 l2 0 m2 0 l2 0 m22 0 h10 m0 0 h148 m-178 0 h20 m158 0 h20 m-198 0 q10 0 10 10 m178 0 q0 -10 10 -10 m-188 10 v12 m178 0 v-12 m-178 12 q0 10 10 10 m158 0 q10 0 10 -10 m-168 10 h10 m138 0 h10 m23 -32 h-3"/>
   <polygon points="591 359 599 355 599 363"/>
   <polygon points="591 359 583 355 583 363"/>
</svg>
