<svg xmlns="http://www.w3.org/2000/svg" width="571" height="201">
   <polygon points="9 17 1 13 1 21"/>
   <polygon points="17 17 9 13 9 21"/>
   <rect x="31" y="3" width="140" height="32" rx="10"/>
   <rect x="29"
         y="1"
         width="140"
         height="32"
         class="terminal"
         rx="10"/>
   <text class="terminal" x="39" y="21">CREATE SOURCE</text>
   <rect x="211" y="35" width="120" height="32" rx="10"/>
   <rect x="209"
         y="33"
         width="120"
         height="32"
         class="terminal"
         rx="10"/>
   <text class="terminal" x="219" y="53">IF NOT EXISTS</text>
   <rect x="371" y="3" width="82" height="32"/>
   <rect x="369" y="1" width="82" height="32" class="nonterminal"/>
   <text class="nonterminal" x="379" y="21">src_name</text>
   <rect x="473" y="3" width="60" height="32" rx="10"/>
   <rect x="471"
         y="1"
         width="60"
         height="32"
         class="terminal"
         rx="10"/>
   <text class="terminal" x="481" y="21">FROM</text>
   <rect x="25" y="101" width="96" height="32" rx="10"/>
   <rect x="23"
         y="99"
         width="96"
         height="32"
         class="terminal"
         rx="10"/>
   <text class="terminal" x="33" y="119">POSTGRES</text>
   <rect x="141" y="101" width="116" height="32" rx="10"/>
   <rect x="139"
         y="99"
         width="116"
         height="32"
         class="terminal"
         rx="10"/>
   <text class="terminal" x="149" y="119">CONNECTION</text>
   <rect x="277" y="101" width="136" height="32"/>
   <rect x="275" y="99" width="136" height="32" class="nonterminal"/>
   <text class="nonterminal" x="285" y="119">connection_name</text>
   <rect x="433" y="101" width="116" height="32" rx="10"/>
   <rect x="431"
         y="99"
         width="116"
         height="32"
         class="terminal"
         rx="10"/>
   <text class="terminal" x="441" y="119">PUBLICATION</text>
   <rect x="409" y="167" width="134" height="32"/>
   <rect x="407" y="165" width="134" height="32" class="nonterminal"/>
   <text class="nonterminal" x="417" y="185">publication_name</text>
   <path class="line"
         d="m17 17 h2 m0 0 h10 m140 0 h10 m20 0 h10 m0 0 h130 m-160 0 h20 m140 0 h20 m-180 0 q10 0 10 10 m160 0 q0 -10 10 -10 m-170 10 v12 m160 0 v-12 m-160 12 q0 10 10 10 m140 0 q10 0 10 -10 m-150 10 h10 m120 0 h10 m20 -32 h10 m82 0 h10 m0 0 h10 m60 0 h10 m2 0 l2 0 m2 0 l2 0 m2 0 l2 0 m-552 98 l2 0 m2 0 l2 0 m2 0 l2 0 m2 0 h10 m96 0 h10 m0 0 h10 m116 0 h10 m0 0 h10 m136 0 h10 m0 0 h10 m116 0 h10 m2 0 l2 0 m2 0 l2 0 m2 0 l2 0 m-184 66 l2 0 m2 0 l2 0 m2 0 l2 0 m2 0 h10 m134 0 h10 m3 0 h-3"/>
   <polygon points="561 181 569 177 569 185"/>
   <polygon points="561 181 553 177 553 185"/>
</svg>
