<svg xmlns="http://www.w3.org/2000/svg" width="583" height="475">
   <polygon points="9 17 1 13 1 21"/>
   <polygon points="17 17 9 13 9 21"/>
   <rect x="31" y="3" width="74" height="32" rx="10"/>
   <rect x="29"
         y="1"
         width="74"
         height="32"
         class="terminal"
         rx="10"/>
   <text class="terminal" x="39" y="21">CREATE</text>
   <rect x="145" y="35" width="120" height="32" rx="10"/>
   <rect x="143"
         y="33"
         width="120"
         height="32"
         class="terminal"
         rx="10"/>
   <text class="terminal" x="153" y="53">MATERIALIZED</text>
   <rect x="305" y="3" width="78" height="32" rx="10"/>
   <rect x="303"
         y="1"
         width="78"
         height="32"
         class="terminal"
         rx="10"/>
   <text class="terminal" x="313" y="21">SOURCE</text>
   <rect x="423" y="35" width="118" height="32" rx="10"/>
   <rect x="421"
         y="33"
         width="118"
         height="32"
         class="terminal"
         rx="10"/>
   <text class="terminal" x="431" y="53">IF NOT EXISTS</text>
   <rect x="45" y="145" width="80" height="32"/>
   <rect x="43" y="143" width="80" height="32" class="nonterminal"/>
   <text class="nonterminal" x="53" y="163">src_name</text>
   <rect x="165" y="145" width="24" height="32" rx="10"/>
   <rect x="163"
         y="143"
         width="24"
         height="32"
         class="terminal"
         rx="10"/>
   <text class="terminal" x="173" y="163">(</text>
   <rect x="229" y="145" width="80" height="32"/>
   <rect x="227" y="143" width="80" height="32" class="nonterminal"/>
   <text class="nonterminal" x="237" y="163">col_name</text>
   <rect x="229" y="101" width="24" height="32" rx="10"/>
   <rect x="227"
         y="99"
         width="24"
         height="32"
         class="terminal"
         rx="10"/>
   <text class="terminal" x="237" y="119">,</text>
   <rect x="349" y="145" width="24" height="32" rx="10"/>
   <rect x="347"
         y="143"
         width="24"
         height="32"
         class="terminal"
         rx="10"/>
   <text class="terminal" x="357" y="163">)</text>
   <rect x="413" y="145" width="60" height="32" rx="10"/>
   <rect x="411"
         y="143"
         width="60"
         height="32"
         class="terminal"
         rx="10"/>
   <text class="terminal" x="421" y="163">FROM</text>
   <rect x="493" y="145" width="48" height="32" rx="10"/>
   <rect x="491"
         y="143"
         width="48"
         height="32"
         class="terminal"
         rx="10"/>
   <text class="terminal" x="501" y="163">FILE</text>
   <rect x="62" y="271" width="48" height="32"/>
   <rect x="60" y="269" width="48" height="32" class="nonterminal"/>
   <text class="nonterminal" x="70" y="289">path</text>
   <rect x="150" y="271" width="56" height="32" rx="10"/>
   <rect x="148"
         y="269"
         width="56"
         height="32"
         class="terminal"
         rx="10"/>
   <text class="terminal" x="158" y="289">WITH</text>
   <rect x="226" y="271" width="24" height="32" rx="10"/>
   <rect x="224"
         y="269"
         width="24"
         height="32"
         class="terminal"
         rx="10"/>
   <text class="terminal" x="234" y="289">(</text>
   <rect x="290" y="271" width="46" height="32"/>
   <rect x="288" y="269" width="46" height="32" class="nonterminal"/>
   <text class="nonterminal" x="298" y="289">field</text>
   <rect x="356" y="271" width="26" height="32" rx="10"/>
   <rect x="354"
         y="269"
         width="26"
         height="32"
         class="terminal"
         rx="10"/>
   <text class="terminal" x="364" y="289">=</text>
   <rect x="402" y="271" width="38" height="32"/>
   <rect x="400" y="269" width="38" height="32" class="nonterminal"/>
   <text class="nonterminal" x="410" y="289">val</text>
   <rect x="290" y="227" width="24" height="32" rx="10"/>
   <rect x="288"
         y="225"
         width="24"
         height="32"
         class="terminal"
         rx="10"/>
   <text class="terminal" x="298" y="245">,</text>
   <rect x="480" y="271" width="24" height="32" rx="10"/>
   <rect x="478"
         y="269"
         width="24"
         height="32"
         class="terminal"
         rx="10"/>
   <text class="terminal" x="488" y="289">)</text>
   <rect x="277" y="353" width="78" height="32" rx="10"/>
   <rect x="275"
         y="351"
         width="78"
         height="32"
         class="terminal"
         rx="10"/>
   <text class="terminal" x="285" y="371">FORMAT</text>
   <rect x="395" y="353" width="66" height="32" rx="10"/>
   <rect x="393"
         y="351"
         width="66"
         height="32"
         class="terminal"
         rx="10"/>
   <text class="terminal" x="403" y="371">REGEX</text>
   <rect x="481" y="353" width="54" height="32"/>
   <rect x="479" y="351" width="54" height="32" class="nonterminal"/>
   <text class="nonterminal" x="489" y="371">regex</text>
   <rect x="395" y="397" width="54" height="32" rx="10"/>
   <rect x="393"
         y="395"
         width="54"
         height="32"
         class="terminal"
         rx="10"/>
   <text class="terminal" x="403" y="415">TEXT</text>
   <rect x="395" y="441" width="64" height="32" rx="10"/>
   <rect x="393"
         y="439"
         width="64"
         height="32"
         class="terminal"
         rx="10"/>
   <text class="terminal" x="403" y="459">BYTES</text>
   <path class="line"
         d="m17 17 h2 m0 0 h10 m74 0 h10 m20 0 h10 m0 0 h130 m-160 0 h20 m140 0 h20 m-180 0 q10 0 10 10 m160 0 q0 -10 10 -10 m-170 10 v12 m160 0 v-12 m-160 12 q0 10 10 10 m140 0 q10 0 10 -10 m-150 10 h10 m120 0 h10 m20 -32 h10 m78 0 h10 m20 0 h10 m0 0 h128 m-158 0 h20 m138 0 h20 m-178 0 q10 0 10 10 m158 0 q0 -10 10 -10 m-168 10 v12 m158 0 v-12 m-158 12 q0 10 10 10 m138 0 q10 0 10 -10 m-148 10 h10 m118 0 h10 m22 -32 l2 0 m2 0 l2 0 m2 0 l2 0 m-560 142 l2 0 m2 0 l2 0 m2 0 l2 0 m2 0 h10 m80 0 h10 m20 0 h10 m24 0 h10 m20 0 h10 m80 0 h10 m-120 0 l20 0 m-1 0 q-9 0 -9 -10 l0 -24 q0 -10 10 -10 m100 44 l20 0 m-20 0 q10 0 10 -10 l0 -24 q0 -10 -10 -10 m-100 0 h10 m24 0 h10 m0 0 h56 m20 44 h10 m24 0 h10 m-248 0 h20 m228 0 h20 m-268 0 q10 0 10 10 m248 0 q0 -10 10 -10 m-258 10 v14 m248 0 v-14 m-248 14 q0 10 10 10 m228 0 q10 0 10 -10 m-238 10 h10 m0 0 h218 m20 -34 h10 m60 0 h10 m0 0 h10 m48 0 h10 m2 0 l2 0 m2 0 l2 0 m2 0 l2 0 m-523 126 l2 0 m2 0 l2 0 m2 0 l2 0 m2 0 h10 m48 0 h10 m20 0 h10 m56 0 h10 m0 0 h10 m24 0 h10 m20 0 h10 m46 0 h10 m0 0 h10 m26 0 h10 m0 0 h10 m38 0 h10 m-190 0 l20 0 m-1 0 q-9 0 -9 -10 l0 -24 q0 -10 10 -10 m170 44 l20 0 m-20 0 q10 0 10 -10 l0 -24 q0 -10 -10 -10 m-170 0 h10 m24 0 h10 m0 0 h126 m20 44 h10 m24 0 h10 m-394 0 h20 m374 0 h20 m-414 0 q10 0 10 10 m394 0 q0 -10 10 -10 m-404 10 v14 m394 0 v-14 m-394 14 q0 10 10 10 m374 0 q10 0 10 -10 m-384 10 h10 m0 0 h364 m22 -34 l2 0 m2 0 l2 0 m2 0 l2 0 m-291 82 l2 0 m2 0 l2 0 m2 0 l2 0 m2 0 h10 m78 0 h10 m20 0 h10 m66 0 h10 m0 0 h10 m54 0 h10 m-180 0 h20 m160 0 h20 m-200 0 q10 0 10 10 m180 0 q0 -10 10 -10 m-190 10 v24 m180 0 v-24 m-180 24 q0 10 10 10 m160 0 q10 0 10 -10 m-170 10 h10 m54 0 h10 m0 0 h86 m-170 -10 v20 m180 0 v-20 m-180 20 v24 m180 0 v-24 m-180 24 q0 10 10 10 m160 0 q10 0 10 -10 m-170 10 h10 m64 0 h10 m0 0 h76 m23 -88 h-3"/>
   <polygon points="573 367 581 363 581 371"/>
   <polygon points="573 367 565 363 565 371"/>
</svg>
