<svg xmlns="http://www.w3.org/2000/svg" width="601" height="277">
   <polygon points="9 17 1 13 1 21"/>
   <polygon points="17 17 9 13 9 21"/>
   <rect x="31" y="3" width="76" height="32" rx="10"/>
   <rect x="29"
         y="1"
         width="76"
         height="32"
         class="terminal"
         rx="10"/>
   <text class="terminal" x="39" y="21">CREATE</text>
   <rect x="127" y="3" width="116" height="32" rx="10"/>
   <rect x="125"
         y="1"
         width="116"
         height="32"
         class="terminal"
         rx="10"/>
   <text class="terminal" x="135" y="21">CONNECTION</text>
   <rect x="283" y="35" width="120" height="32" rx="10"/>
   <rect x="281"
         y="33"
         width="120"
         height="32"
         class="terminal"
         rx="10"/>
   <text class="terminal" x="291" y="53">IF NOT EXISTS</text>
   <rect x="443" y="3" width="136" height="32"/>
   <rect x="441" y="1" width="136" height="32" class="nonterminal"/>
   <text class="nonterminal" x="451" y="21">connection_name</text>
   <rect x="29" y="145" width="40" height="32" rx="10"/>
   <rect x="27"
         y="143"
         width="40"
         height="32"
         class="terminal"
         rx="10"/>
   <text class="terminal" x="37" y="163">TO</text>
   <rect x="89" y="145" width="54" height="32" rx="10"/>
   <rect x="87"
         y="143"
         width="54"
         height="32"
         class="terminal"
         rx="10"/>
   <text class="terminal" x="97" y="163">AWS</text>
   <rect x="163" y="145" width="112" height="32" rx="10"/>
   <rect x="161"
         y="143"
         width="112"
         height="32"
         class="terminal"
         rx="10"/>
   <text class="terminal" x="171" y="163">PRIVATELINK</text>
   <rect x="295" y="145" width="26" height="32" rx="10"/>
   <rect x="293"
         y="143"
         width="26"
         height="32"
         class="terminal"
         rx="10"/>
   <text class="terminal" x="303" y="163">(</text>
   <rect x="361" y="145" width="48" height="32"/>
   <rect x="359" y="143" width="48" height="32" class="nonterminal"/>
   <text class="nonterminal" x="369" y="163">field</text>
   <rect x="449" y="177" width="28" height="32" rx="10"/>
   <rect x="447"
         y="175"
         width="28"
         height="32"
         class="terminal"
         rx="10"/>
   <text class="terminal" x="457" y="195">=</text>
   <rect x="517" y="145" width="38" height="32"/>
   <rect x="515" y="143" width="38" height="32" class="nonterminal"/>
   <text class="nonterminal" x="525" y="163">val</text>
   <rect x="361" y="101" width="24" height="32" rx="10"/>
   <rect x="359"
         y="99"
         width="24"
         height="32"
         class="terminal"
         rx="10"/>
   <text class="terminal" x="369" y="119">,</text>
   <rect x="547" y="243" width="26" height="32" rx="10"/>
   <rect x="545"
         y="241"
         width="26"
         height="32"
         class="terminal"
         rx="10"/>
   <text class="terminal" x="555" y="261">)</text>
   <path class="line"
         d="m17 17 h2 m0 0 h10 m76 0 h10 m0 0 h10 m116 0 h10 m20 0 h10 m0 0 h130 m-160 0 h20 m140 0 h20 m-180 0 q10 0 10 10 m160 0 q0 -10 10 -10 m-170 10 v12 m160 0 v-12 m-160 12 q0 10 10 10 m140 0 q10 0 10 -10 m-150 10 h10 m120 0 h10 m20 -32 h10 m136 0 h10 m2 0 l2 0 m2 0 l2 0 m2 0 l2 0 m-594 142 l2 0 m2 0 l2 0 m2 0 l2 0 m2 0 h10 m40 0 h10 m0 0 h10 m54 0 h10 m0 0 h10 m112 0 h10 m0 0 h10 m26 0 h10 m20 0 h10 m48 0 h10 m20 0 h10 m0 0 h38 m-68 0 h20 m48 0 h20 m-88 0 q10 0 10 10 m68 0 q0 -10 10 -10 m-78 10 v12 m68 0 v-12 m-68 12 q0 10 10 10 m48 0 q10 0 10 -10 m-58 10 h10 m28 0 h10 m20 -32 h10 m38 0 h10 m-234 0 l20 0 m-1 0 q-9 0 -9 -10 l0 -24 q0 -10 10 -10 m214 44 l20 0 m-20 0 q10 0 10 -10 l0 -24 q0 -10 -10 -10 m-214 0 h10 m24 0 h10 m0 0 h170 m22 44 l2 0 m2 0 l2 0 m2 0 l2 0 m-72 98 l2 0 m2 0 l2 0 m2 0 l2 0 m2 0 h10 m26 0 h10 m3 0 h-3"/>
   <polygon points="591 257 599 253 599 261"/>
   <polygon points="591 257 583 253 583 261"/>
</svg>
