<svg xmlns="http://www.w3.org/2000/svg" width="591" height="435">
   <polygon points="9 17 1 13 1 21"/>
   <polygon points="17 17 9 13 9 21"/>
   <rect x="31" y="3" width="76" height="32" rx="10"/>
   <rect x="29"
         y="1"
         width="76"
         height="32"
         class="terminal"
         rx="10"/>
   <text class="terminal" x="39" y="21">CREATE</text>
   <rect x="147" y="35" width="124" height="32" rx="10"/>
   <rect x="145"
         y="33"
         width="124"
         height="32"
         class="terminal"
         rx="10"/>
   <text class="terminal" x="155" y="53">MATERIALIZED</text>
   <rect x="311" y="3" width="78" height="32" rx="10"/>
   <rect x="309"
         y="1"
         width="78"
         height="32"
         class="terminal"
         rx="10"/>
   <text class="terminal" x="319" y="21">SOURCE</text>
   <rect x="429" y="35" width="120" height="32" rx="10"/>
   <rect x="427"
         y="33"
         width="120"
         height="32"
         class="terminal"
         rx="10"/>
   <text class="terminal" x="437" y="53">IF NOT EXISTS</text>
   <rect x="45" y="145" width="82" height="32"/>
   <rect x="43" y="143" width="82" height="32" class="nonterminal"/>
   <text class="nonterminal" x="53" y="163">src_name</text>
   <rect x="167" y="145" width="26" height="32" rx="10"/>
   <rect x="165"
         y="143"
         width="26"
         height="32"
         class="terminal"
         rx="10"/>
   <text class="terminal" x="175" y="163">(</text>
   <rect x="233" y="145" width="82" height="32"/>
   <rect x="231" y="143" width="82" height="32" class="nonterminal"/>
   <text class="nonterminal" x="241" y="163">col_name</text>
   <rect x="233" y="101" width="24" height="32" rx="10"/>
   <rect x="231"
         y="99"
         width="24"
         height="32"
         class="terminal"
         rx="10"/>
   <text class="terminal" x="241" y="119">,</text>
   <rect x="355" y="145" width="26" height="32" rx="10"/>
   <rect x="353"
         y="143"
         width="26"
         height="32"
         class="terminal"
         rx="10"/>
   <text class="terminal" x="363" y="163">)</text>
   <rect x="421" y="145" width="60" height="32" rx="10"/>
   <rect x="419"
         y="143"
         width="60"
         height="32"
         class="terminal"
         rx="10"/>
   <text class="terminal" x="429" y="163">FROM</text>
   <rect x="501" y="145" width="48" height="32" rx="10"/>
   <rect x="499"
         y="143"
         width="48"
         height="32"
         class="terminal"
         rx="10"/>
   <text class="terminal" x="509" y="163">FILE</text>
   <rect x="39" y="227" width="50" height="32"/>
   <rect x="37" y="225" width="50" height="32" class="nonterminal"/>
   <text class="nonterminal" x="47" y="245">path</text>
   <rect x="129" y="259" width="124" height="32" rx="10"/>
   <rect x="127"
         y="257"
         width="124"
         height="32"
         class="terminal"
         rx="10"/>
   <text class="terminal" x="137" y="277">COMPRESSION</text>
   <rect x="293" y="259" width="60" height="32" rx="10"/>
   <rect x="291"
         y="257"
         width="60"
         height="32"
         class="terminal"
         rx="10"/>
   <text class="terminal" x="301" y="277">NONE</text>
   <rect x="293" y="303" width="52" height="32" rx="10"/>
   <rect x="291"
         y="301"
         width="52"
         height="32"
         class="terminal"
         rx="10"/>
   <text class="terminal" x="301" y="321">GZIP</text>
   <rect x="433" y="259" width="102" height="32"/>
   <rect x="431" y="257" width="102" height="32" class="nonterminal"/>
   <text class="nonterminal" x="441" y="277">with_options</text>
   <rect x="199" y="369" width="80" height="32" rx="10"/>
   <rect x="197"
         y="367"
         width="80"
         height="32"
         class="terminal"
         rx="10"/>
   <text class="terminal" x="207" y="387">FORMAT</text>
   <rect x="299" y="369" width="66" height="32" rx="10"/>
   <rect x="297"
         y="367"
         width="66"
         height="32"
         class="terminal"
         rx="10"/>
   <text class="terminal" x="307" y="387">BYTES</text>
   <rect x="405" y="401" width="138" height="32" rx="10"/>
   <rect x="403"
         y="399"
         width="138"
         height="32"
         class="terminal"
         rx="10"/>
   <text class="terminal" x="413" y="419">ENVELOPE NONE</text>
   <path class="line"
         d="m17 17 h2 m0 0 h10 m76 0 h10 m20 0 h10 m0 0 h134 m-164 0 h20 m144 0 h20 m-184 0 q10 0 10 10 m164 0 q0 -10 10 -10 m-174 10 v12 m164 0 v-12 m-164 12 q0 10 10 10 m144 0 q10 0 10 -10 m-154 10 h10 m124 0 h10 m20 -32 h10 m78 0 h10 m20 0 h10 m0 0 h130 m-160 0 h20 m140 0 h20 m-180 0 q10 0 10 10 m160 0 q0 -10 10 -10 m-170 10 v12 m160 0 v-12 m-160 12 q0 10 10 10 m140 0 q10 0 10 -10 m-150 10 h10 m120 0 h10 m22 -32 l2 0 m2 0 l2 0 m2 0 l2 0 m-568 142 l2 0 m2 0 l2 0 m2 0 l2 0 m2 0 h10 m82 0 h10 m20 0 h10 m26 0 h10 m20 0 h10 m82 0 h10 m-122 0 l20 0 m-1 0 q-9 0 -9 -10 l0 -24 q0 -10 10 -10 m102 44 l20 0 m-20 0 q10 0 10 -10 l0 -24 q0 -10 -10 -10 m-102 0 h10 m24 0 h10 m0 0 h58 m20 44 h10 m26 0 h10 m-254 0 h20 m234 0 h20 m-274 0 q10 0 10 10 m254 0 q0 -10 10 -10 m-264 10 v14 m254 0 v-14 m-254 14 q0 10 10 10 m234 0 q10 0 10 -10 m-244 10 h10 m0 0 h224 m20 -34 h10 m60 0 h10 m0 0 h10 m48 0 h10 m2 0 l2 0 m2 0 l2 0 m2 0 l2 0 m-554 82 l2 0 m2 0 l2 0 m2 0 l2 0 m2 0 h10 m50 0 h10 m20 0 h10 m0 0 h254 m-284 0 h20 m264 0 h20 m-304 0 q10 0 10 10 m284 0 q0 -10 10 -10 m-294 10 v12 m284 0 v-12 m-284 12 q0 10 10 10 m264 0 q10 0 10 -10 m-274 10 h10 m124 0 h10 m20 0 h10 m60 0 h10 m-100 0 h20 m80 0 h20 m-120 0 q10 0 10 10 m100 0 q0 -10 10 -10 m-110 10 v24 m100 0 v-24 m-100 24 q0 10 10 10 m80 0 q10 0 10 -10 m-90 10 h10 m52 0 h10 m0 0 h8 m60 -76 h10 m0 0 h112 m-142 0 h20 m122 0 h20 m-162 0 q10 0 10 10 m142 0 q0 -10 10 -10 m-152 10 v12 m142 0 v-12 m-142 12 q0 10 10 10 m122 0 q10 0 10 -10 m-132 10 h10 m102 0 h10 m22 -32 l2 0 m2 0 l2 0 m2 0 l2 0 m-400 142 l2 0 m2 0 l2 0 m2 0 l2 0 m2 0 h10 m80 0 h10 m0 0 h10 m66 0 h10 m20 0 h10 m0 0 h148 m-178 0 h20 m158 0 h20 m-198 0 q10 0 10 10 m178 0 q0 -10 10 -10 m-188 10 v12 m178 0 v-12 m-178 12 q0 10 10 10 m158 0 q10 0 10 -10 m-168 10 h10 m138 0 h10 m23 -32 h-3"/>
   <polygon points="581 383 589 379 589 387"/>
   <polygon points="581 383 573 379 573 387"/>
</svg>
