<svg xmlns="http://www.w3.org/2000/svg" width="849" height="199">
   <polygon points="11 17 3 13 3 21"/>
   <polygon points="19 17 11 13 11 21"/>
   <rect x="33" y="3" width="90" height="32" rx="10"/>
   <rect x="31"
         y="1"
         width="90"
         height="32"
         class="terminal"
         rx="10"/>
   <text class="terminal" x="41" y="21">'host:port'</text>
   <rect x="45" y="89" width="64" height="32" rx="10"/>
   <rect x="43"
         y="87"
         width="64"
         height="32"
         class="terminal"
         rx="10"/>
   <text class="terminal" x="53" y="107">USING</text>
   <rect x="149" y="89" width="54" height="32" rx="10"/>
   <rect x="147"
         y="87"
         width="54"
         height="32"
         class="terminal"
         rx="10"/>
   <text class="terminal" x="157" y="107">AWS</text>
   <rect x="223" y="89" width="112" height="32" rx="10"/>
   <rect x="221"
         y="87"
         width="112"
         height="32"
         class="terminal"
         rx="10"/>
   <text class="terminal" x="231" y="107">PRIVATELINK</text>
   <rect x="355" y="89" width="126" height="32"/>
   <rect x="353" y="87" width="126" height="32" class="nonterminal"/>
   <text class="nonterminal" x="363" y="107">aws_connection</text>
   <rect x="521" y="121" width="26" height="32" rx="10"/>
   <rect x="519"
         y="119"
         width="26"
         height="32"
         class="terminal"
         rx="10"/>
   <text class="terminal" x="529" y="139">(</text>
   <rect x="567" y="121" width="58" height="32" rx="10"/>
   <rect x="565"
         y="119"
         width="58"
         height="32"
         class="terminal"
         rx="10"/>
   <text class="terminal" x="575" y="139">PORT</text>
   <rect x="645" y="121" width="70" height="32"/>
   <rect x="643" y="119" width="70" height="32" class="nonterminal"/>
   <text class="nonterminal" x="653" y="139">number</text>
   <rect x="735" y="121" width="26" height="32" rx="10"/>
   <rect x="733"
         y="119"
         width="26"
         height="32"
         class="terminal"
         rx="10"/>
   <text class="terminal" x="743" y="139">)</text>
   <rect x="149" y="165" width="48" height="32" rx="10"/>
   <rect x="147"
         y="163"
         width="48"
         height="32"
         class="terminal"
         rx="10"/>
   <text class="terminal" x="157" y="183">SSH</text>
   <rect x="217" y="165" width="76" height="32" rx="10"/>
   <rect x="215"
         y="163"
         width="76"
         height="32"
         class="terminal"
         rx="10"/>
   <text class="terminal" x="225" y="183">TUNNEL</text>
   <rect x="313" y="165" width="122" height="32"/>
   <rect x="311" y="163" width="122" height="32" class="nonterminal"/>
   <text class="nonterminal" x="321" y="183">ssh_connection</text>
   <path class="line"
         d="m19 17 h2 m0 0 h10 m90 0 h10 m2 0 l2 0 m2 0 l2 0 m2 0 l2 0 m-142 54 l2 0 m2 0 l2 0 m2 0 l2 0 m22 0 h10 m0 0 h766 m-796 0 h20 m776 0 h20 m-816 0 q10 0 10 10 m796 0 q0 -10 10 -10 m-806 10 v12 m796 0 v-12 m-796 12 q0 10 10 10 m776 0 q10 0 10 -10 m-786 10 h10 m64 0 h10 m20 0 h10 m54 0 h10 m0 0 h10 m112 0 h10 m0 0 h10 m126 0 h10 m20 0 h10 m0 0 h250 m-280 0 h20 m260 0 h20 m-300 0 q10 0 10 10 m280 0 q0 -10 10 -10 m-290 10 v12 m280 0 v-12 m-280 12 q0 10 10 10 m260 0 q10 0 10 -10 m-270 10 h10 m26 0 h10 m0 0 h10 m58 0 h10 m0 0 h10 m70 0 h10 m0 0 h10 m26 0 h10 m-652 -32 h20 m652 0 h20 m-692 0 q10 0 10 10 m672 0 q0 -10 10 -10 m-682 10 v56 m672 0 v-56 m-672 56 q0 10 10 10 m652 0 q10 0 10 -10 m-662 10 h10 m48 0 h10 m0 0 h10 m76 0 h10 m0 0 h10 m122 0 h10 m0 0 h346 m43 -108 h-3"/>
   <polygon points="839 71 847 67 847 75"/>
   <polygon points="839 71 831 67 831 75"/>
</svg>
