<svg xmlns="http://www.w3.org/2000/svg" width="593" height="639">
   <polygon points="9 17 1 13 1 21"/>
   <polygon points="17 17 9 13 9 21"/>
   <rect x="31" y="3" width="76" height="32" rx="10"/>
   <rect x="29"
         y="1"
         width="76"
         height="32"
         class="terminal"
         rx="10"/>
   <text class="terminal" x="39" y="21">CREATE</text>
   <rect x="147" y="35" width="124" height="32" rx="10"/>
   <rect x="145"
         y="33"
         width="124"
         height="32"
         class="terminal"
         rx="10"/>
   <text class="terminal" x="155" y="53">MATERIALIZED</text>
   <rect x="311" y="3" width="78" height="32" rx="10"/>
   <rect x="309"
         y="1"
         width="78"
         height="32"
         class="terminal"
         rx="10"/>
   <text class="terminal" x="319" y="21">SOURCE</text>
   <rect x="429" y="35" width="120" height="32" rx="10"/>
   <rect x="427"
         y="33"
         width="120"
         height="32"
         class="terminal"
         rx="10"/>
   <text class="terminal" x="437" y="53">IF NOT EXISTS</text>
   <rect x="97" y="101" width="82" height="32"/>
   <rect x="95" y="99" width="82" height="32" class="nonterminal"/>
   <text class="nonterminal" x="105" y="119">src_name</text>
   <rect x="199" y="101" width="60" height="32" rx="10"/>
   <rect x="197"
         y="99"
         width="60"
         height="32"
         class="terminal"
         rx="10"/>
   <text class="terminal" x="207" y="119">FROM</text>
   <rect x="279" y="101" width="38" height="32" rx="10"/>
   <rect x="277"
         y="99"
         width="38"
         height="32"
         class="terminal"
         rx="10"/>
   <text class="terminal" x="287" y="119">S3</text>
   <rect x="337" y="101" width="162" height="32" rx="10"/>
   <rect x="335"
         y="99"
         width="162"
         height="32"
         class="terminal"
         rx="10"/>
   <text class="terminal" x="345" y="119">DISCOVER OBJECTS</text>
   <rect x="163" y="199" width="98" height="32" rx="10"/>
   <rect x="161"
         y="197"
         width="98"
         height="32"
         class="terminal"
         rx="10"/>
   <text class="terminal" x="171" y="217">MATCHING</text>
   <rect x="281" y="199" width="68" height="32"/>
   <rect x="279" y="197" width="68" height="32" class="nonterminal"/>
   <text class="nonterminal" x="289" y="217">pattern</text>
   <rect x="389" y="167" width="64" height="32" rx="10"/>
   <rect x="387"
         y="165"
         width="64"
         height="32"
         class="terminal"
         rx="10"/>
   <text class="terminal" x="397" y="185">USING</text>
   <rect x="154" y="309" width="122" height="32" rx="10"/>
   <rect x="152"
         y="307"
         width="122"
         height="32"
         class="terminal"
         rx="10"/>
   <text class="terminal" x="162" y="327">BUCKET SCAN</text>
   <rect x="296" y="309" width="108" height="32"/>
   <rect x="294" y="307" width="108" height="32" class="nonterminal"/>
   <text class="nonterminal" x="304" y="327">bucket_name</text>
   <rect x="154" y="353" width="164" height="32" rx="10"/>
   <rect x="152"
         y="351"
         width="164"
         height="32"
         class="terminal"
         rx="10"/>
   <text class="terminal" x="162" y="371">SQS NOTIFICATIONS</text>
   <rect x="338" y="353" width="104" height="32"/>
   <rect x="336" y="351" width="104" height="32" class="nonterminal"/>
   <text class="nonterminal" x="346" y="371">queue_name</text>
   <rect x="134" y="265" width="24" height="32" rx="10"/>
   <rect x="132"
         y="263"
         width="24"
         height="32"
         class="terminal"
         rx="10"/>
   <text class="terminal" x="142" y="283">,</text>
   <rect x="45" y="451" width="124" height="32" rx="10"/>
   <rect x="43"
         y="449"
         width="124"
         height="32"
         class="terminal"
         rx="10"/>
   <text class="terminal" x="53" y="469">COMPRESSION</text>
   <rect x="209" y="451" width="60" height="32" rx="10"/>
   <rect x="207"
         y="449"
         width="60"
         height="32"
         class="terminal"
         rx="10"/>
   <text class="terminal" x="217" y="469">NONE</text>
   <rect x="209" y="495" width="52" height="32" rx="10"/>
   <rect x="207"
         y="493"
         width="52"
         height="32"
         class="terminal"
         rx="10"/>
   <text class="terminal" x="217" y="513">GZIP</text>
   <rect x="349" y="451" width="102" height="32"/>
   <rect x="347" y="449" width="102" height="32" class="nonterminal"/>
   <text class="nonterminal" x="357" y="469">with_options</text>
   <rect x="491" y="419" width="80" height="32" rx="10"/>
   <rect x="489"
         y="417"
         width="80"
         height="32"
         class="terminal"
         rx="10"/>
   <text class="terminal" x="499" y="437">FORMAT</text>
   <rect x="281" y="561" width="56" height="32" rx="10"/>
   <rect x="279"
         y="559"
         width="56"
         height="32"
         class="terminal"
         rx="10"/>
   <text class="terminal" x="289" y="579">TEXT</text>
   <rect x="281" y="605" width="66" height="32" rx="10"/>
   <rect x="279"
         y="603"
         width="66"
         height="32"
         class="terminal"
         rx="10"/>
   <text class="terminal" x="289" y="623">BYTES</text>
   <rect x="407" y="593" width="138" height="32" rx="10"/>
   <rect x="405"
         y="591"
         width="138"
         height="32"
         class="terminal"
         rx="10"/>
   <text class="terminal" x="415" y="611">ENVELOPE NONE</text>
   <path class="line"
         d="m17 17 h2 m0 0 h10 m76 0 h10 m20 0 h10 m0 0 h134 m-164 0 h20 m144 0 h20 m-184 0 q10 0 10 10 m164 0 q0 -10 10 -10 m-174 10 v12 m164 0 v-12 m-164 12 q0 10 10 10 m144 0 q10 0 10 -10 m-154 10 h10 m124 0 h10 m20 -32 h10 m78 0 h10 m20 0 h10 m0 0 h130 m-160 0 h20 m140 0 h20 m-180 0 q10 0 10 10 m160 0 q0 -10 10 -10 m-170 10 v12 m160 0 v-12 m-160 12 q0 10 10 10 m140 0 q10 0 10 -10 m-150 10 h10 m120 0 h10 m22 -32 l2 0 m2 0 l2 0 m2 0 l2 0 m-516 98 l2 0 m2 0 l2 0 m2 0 l2 0 m2 0 h10 m82 0 h10 m0 0 h10 m60 0 h10 m0 0 h10 m38 0 h10 m0 0 h10 m162 0 h10 m2 0 l2 0 m2 0 l2 0 m2 0 l2 0 m-400 66 l2 0 m2 0 l2 0 m2 0 l2 0 m22 0 h10 m0 0 h196 m-226 0 h20 m206 0 h20 m-246 0 q10 0 10 10 m226 0 q0 -10 10 -10 m-236 10 v12 m226 0 v-12 m-226 12 q0 10 10 10 m206 0 q10 0 10 -10 m-216 10 h10 m98 0 h10 m0 0 h10 m68 0 h10 m20 -32 h10 m64 0 h10 m2 0 l2 0 m2 0 l2 0 m2 0 l2 0 m-383 142 l2 0 m2 0 l2 0 m2 0 l2 0 m42 0 h10 m122 0 h10 m0 0 h10 m108 0 h10 m0 0 h38 m-328 0 h20 m308 0 h20 m-348 0 q10 0 10 10 m328 0 q0 -10 10 -10 m-338 10 v24 m328 0 v-24 m-328 24 q0 10 10 10 m308 0 q10 0 10 -10 m-318 10 h10 m164 0 h10 m0 0 h10 m104 0 h10 m-348 -44 l20 0 m-1 0 q-9 0 -9 -10 l0 -24 q0 -10 10 -10 m348 44 l20 0 m-20 0 q10 0 10 -10 l0 -24 q0 -10 -10 -10 m-348 0 h10 m24 0 h10 m0 0 h304 m22 44 l2 0 m2 0 l2 0 m2 0 l2 0 m-501 110 l2 0 m2 0 l2 0 m2 0 l2 0 m22 0 h10 m0 0 h254 m-284 0 h20 m264 0 h20 m-304 0 q10 0 10 10 m284 0 q0 -10 10 -10 m-294 10 v12 m284 0 v-12 m-284 12 q0 10 10 10 m264 0 q10 0 10 -10 m-274 10 h10 m124 0 h10 m20 0 h10 m60 0 h10 m-100 0 h20 m80 0 h20 m-120 0 q10 0 10 10 m100 0 q0 -10 10 -10 m-110 10 v24 m100 0 v-24 m-100 24 q0 10 10 10 m80 0 q10 0 10 -10 m-90 10 h10 m52 0 h10 m0 0 h8 m60 -76 h10 m0 0 h112 m-142 0 h20 m122 0 h20 m-162 0 q10 0 10 10 m142 0 q0 -10 10 -10 m-152 10 v12 m142 0 v-12 m-142 12 q0 10 10 10 m122 0 q10 0 10 -10 m-132 10 h10 m102 0 h10 m20 -32 h10 m80 0 h10 m2 0 l2 0 m2 0 l2 0 m2 0 l2 0 m-354 142 l2 0 m2 0 l2 0 m2 0 l2 0 m22 0 h10 m56 0 h10 m0 0 h10 m-106 0 h20 m86 0 h20 m-126 0 q10 0 10 10 m106 0 q0 -10 10 -10 m-116 10 v24 m106 0 v-24 m-106 24 q0 10 10 10 m86 0 q10 0 10 -10 m-96 10 h10 m66 0 h10 m40 -44 h10 m0 0 h148 m-178 0 h20 m158 0 h20 m-198 0 q10 0 10 10 m178 0 q0 -10 10 -10 m-188 10 v12 m178 0 v-12 m-178 12 q0 10 10 10 m158 0 q10 0 10 -10 m-168 10 h10 m138 0 h10 m23 -32 h-3"/>
   <polygon points="583 575 591 571 591 579"/>
   <polygon points="583 575 575 571 575 579"/>
</svg>
