<svg xmlns="http://www.w3.org/2000/svg" width="587" height="457">
   <polygon points="9 17 1 13 1 21"/>
   <polygon points="17 17 9 13 9 21"/>
   <rect x="31" y="3" width="114" height="32" rx="10"/>
   <rect x="29"
         y="1"
         width="114"
         height="32"
         class="terminal"
         rx="10"/>
   <text class="terminal" x="39" y="21">CREATE SINK</text>
   <rect x="185" y="35" width="120" height="32" rx="10"/>
   <rect x="183"
         y="33"
         width="120"
         height="32"
         class="terminal"
         rx="10"/>
   <text class="terminal" x="193" y="53">IF NOT EXISTS</text>
   <rect x="345" y="3" width="88" height="32"/>
   <rect x="343" y="1" width="88" height="32" class="nonterminal"/>
   <text class="nonterminal" x="353" y="21">sink_name</text>
   <rect x="453" y="3" width="60" height="32" rx="10"/>
   <rect x="451"
         y="1"
         width="60"
         height="32"
         class="terminal"
         rx="10"/>
   <text class="terminal" x="461" y="21">FROM</text>
   <rect x="119" y="101" width="90" height="32"/>
   <rect x="117" y="99" width="90" height="32" class="nonterminal"/>
   <text class="nonterminal" x="127" y="119">item_name</text>
   <rect x="229" y="101" width="54" height="32" rx="10"/>
   <rect x="227"
         y="99"
         width="54"
         height="32"
         class="terminal"
         rx="10"/>
   <text class="terminal" x="237" y="119">INTO</text>
   <rect x="303" y="101" width="168" height="32"/>
   <rect x="301" y="99" width="168" height="32" class="nonterminal"/>
   <text class="nonterminal" x="311" y="119">kafka_sink_connection</text>
   <rect x="146" y="211" width="48" height="32" rx="10"/>
   <rect x="144"
         y="209"
         width="48"
         height="32"
         class="terminal"
         rx="10"/>
   <text class="terminal" x="154" y="229">KEY</text>
   <rect x="214" y="211" width="26" height="32" rx="10"/>
   <rect x="212"
         y="209"
         width="26"
         height="32"
         class="terminal"
         rx="10"/>
   <text class="terminal" x="222" y="229">(</text>
   <rect x="280" y="211" width="98" height="32"/>
   <rect x="278" y="209" width="98" height="32" class="nonterminal"/>
   <text class="nonterminal" x="288" y="229">key_column</text>
   <rect x="280" y="167" width="24" height="32" rx="10"/>
   <rect x="278"
         y="165"
         width="24"
         height="32"
         class="terminal"
         rx="10"/>
   <text class="terminal" x="288" y="185">,</text>
   <rect x="418" y="211" width="26" height="32" rx="10"/>
   <rect x="416"
         y="209"
         width="26"
         height="32"
         class="terminal"
         rx="10"/>
   <text class="terminal" x="426" y="229">)</text>
   <rect x="45" y="325" width="80" height="32" rx="10"/>
   <rect x="43"
         y="323"
         width="80"
         height="32"
         class="terminal"
         rx="10"/>
   <text class="terminal" x="53" y="343">FORMAT</text>
   <rect x="145" y="325" width="134" height="32"/>
   <rect x="143" y="323" width="134" height="32" class="nonterminal"/>
   <text class="nonterminal" x="153" y="343">sink_format_spec</text>
   <rect x="319" y="293" width="94" height="32" rx="10"/>
   <rect x="317"
         y="291"
         width="94"
         height="32"
         class="terminal"
         rx="10"/>
   <text class="terminal" x="327" y="311">ENVELOPE</text>
   <rect x="453" y="293" width="92" height="32" rx="10"/>
   <rect x="451"
         y="291"
         width="92"
         height="32"
         class="terminal"
         rx="10"/>
   <text class="terminal" x="461" y="311">DEBEZIUM</text>
   <rect x="453" y="337" width="76" height="32" rx="10"/>
   <rect x="451"
         y="335"
         width="76"
         height="32"
         class="terminal"
         rx="10"/>
   <text class="terminal" x="461" y="355">UPSERT</text>
   <rect x="359" y="423" width="58" height="32" rx="10"/>
   <rect x="357"
         y="421"
         width="58"
         height="32"
         class="terminal"
         rx="10"/>
   <text class="terminal" x="367" y="441">WITH</text>
   <rect x="437" y="423" width="102" height="32"/>
   <rect x="435" y="421" width="102" height="32" class="nonterminal"/>
   <text class="nonterminal" x="445" y="441">with_options</text>
   <path class="line"
         d="m17 17 h2 m0 0 h10 m114 0 h10 m20 0 h10 m0 0 h130 m-160 0 h20 m140 0 h20 m-180 0 q10 0 10 10 m160 0 q0 -10 10 -10 m-170 10 v12 m160 0 v-12 m-160 12 q0 10 10 10 m140 0 q10 0 10 -10 m-150 10 h10 m120 0 h10 m20 -32 h10 m88 0 h10 m0 0 h10 m60 0 h10 m2 0 l2 0 m2 0 l2 0 m2 0 l2 0 m-438 98 l2 0 m2 0 l2 0 m2 0 l2 0 m2 0 h10 m90 0 h10 m0 0 h10 m54 0 h10 m0 0 h10 m168 0 h10 m2 0 l2 0 m2 0 l2 0 m2 0 l2 0 m-389 110 l2 0 m2 0 l2 0 m2 0 l2 0 m22 0 h10 m48 0 h10 m0 0 h10 m26 0 h10 m20 0 h10 m98 0 h10 m-138 0 l20 0 m-1 0 q-9 0 -9 -10 l0 -24 q0 -10 10 -10 m118 44 l20 0 m-20 0 q10 0 10 -10 l0 -24 q0 -10 -10 -10 m-118 0 h10 m24 0 h10 m0 0 h74 m20 44 h10 m26 0 h10 m-338 0 h20 m318 0 h20 m-358 0 q10 0 10 10 m338 0 q0 -10 10 -10 m-348 10 v14 m338 0 v-14 m-338 14 q0 10 10 10 m318 0 q10 0 10 -10 m-328 10 h10 m0 0 h308 m22 -34 l2 0 m2 0 l2 0 m2 0 l2 0 m-483 82 l2 0 m2 0 l2 0 m2 0 l2 0 m22 0 h10 m0 0 h244 m-274 0 h20 m254 0 h20 m-294 0 q10 0 10 10 m274 0 q0 -10 10 -10 m-284 10 v12 m274 0 v-12 m-274 12 q0 10 10 10 m254 0 q10 0 10 -10 m-264 10 h10 m80 0 h10 m0 0 h10 m134 0 h10 m20 -32 h10 m94 0 h10 m20 0 h10 m92 0 h10 m-132 0 h20 m112 0 h20 m-152 0 q10 0 10 10 m132 0 q0 -10 10 -10 m-142 10 v24 m132 0 v-24 m-132 24 q0 10 10 10 m112 0 q10 0 10 -10 m-122 10 h10 m76 0 h10 m0 0 h16 m22 -44 l2 0 m2 0 l2 0 m2 0 l2 0 m-270 98 l2 0 m2 0 l2 0 m2 0 l2 0 m22 0 h10 m0 0 h190 m-220 0 h20 m200 0 h20 m-240 0 q10 0 10 10 m220 0 q0 -10 10 -10 m-230 10 v12 m220 0 v-12 m-220 12 q0 10 10 10 m200 0 q10 0 10 -10 m-210 10 h10 m58 0 h10 m0 0 h10 m102 0 h10 m23 -32 h-3"/>
   <polygon points="577 405 585 401 585 409"/>
   <polygon points="577 405 569 401 569 409"/>
</svg>
