<svg xmlns="http://www.w3.org/2000/svg" width="541" height="135">
   <polygon points="9 17 1 13 1 21"/>
   <polygon points="17 17 9 13 9 21"/>
   <rect x="31" y="3" width="76" height="32" rx="10"/>
   <rect x="29"
         y="1"
         width="76"
         height="32"
         class="terminal"
         rx="10"/>
   <text class="terminal" x="39" y="21">CREATE</text>
   <rect x="127" y="3" width="76" height="32" rx="10"/>
   <rect x="125"
         y="1"
         width="76"
         height="32"
         class="terminal"
         rx="10"/>
   <text class="terminal" x="135" y="21">SECRET</text>
   <rect x="243" y="35" width="120" height="32" rx="10"/>
   <rect x="241"
         y="33"
         width="120"
         height="32"
         class="terminal"
         rx="10"/>
   <text class="terminal" x="251" y="53">IF NOT EXISTS</text>
   <rect x="403" y="3" width="56" height="32"/>
   <rect x="401" y="1" width="56" height="32" class="nonterminal"/>
   <text class="nonterminal" x="411" y="21">name</text>
   <rect x="479" y="3" width="40" height="32" rx="10"/>
   <rect x="477"
         y="1"
         width="40"
         height="32"
         class="terminal"
         rx="10"/>
   <text class="terminal" x="487" y="21">AS</text>
   <rect x="459" y="101" width="54" height="32"/>
   <rect x="457" y="99" width="54" height="32" class="nonterminal"/>
   <text class="nonterminal" x="467" y="119">value</text>
   <path class="line"
         d="m17 17 h2 m0 0 h10 m76 0 h10 m0 0 h10 m76 0 h10 m20 0 h10 m0 0 h130 m-160 0 h20 m140 0 h20 m-180 0 q10 0 10 10 m160 0 q0 -10 10 -10 m-170 10 v12 m160 0 v-12 m-160 12 q0 10 10 10 m140 0 q10 0 10 -10 m-150 10 h10 m120 0 h10 m20 -32 h10 m56 0 h10 m0 0 h10 m40 0 h10 m2 0 l2 0 m2 0 l2 0 m2 0 l2 0 m-104 98 l2 0 m2 0 l2 0 m2 0 l2 0 m2 0 h10 m54 0 h10 m3 0 h-3"/>
   <polygon points="531 115 539 111 539 119"/>
   <polygon points="531 115 523 111 523 119"/>
</svg>
