<svg xmlns="http://www.w3.org/2000/svg" width="589" height="201">
   <polygon points="11 17 3 13 3 21"/>
   <polygon points="19 17 11 13 11 21"/>
   <rect x="33" y="3" width="74" height="32" rx="10"/>
   <rect x="31"
         y="1"
         width="74"
         height="32"
         class="terminal"
         rx="10"/>
   <text class="terminal" x="41" y="21">CREATE</text>
   <rect x="147" y="35" width="120" height="32" rx="10"/>
   <rect x="145"
         y="33"
         width="120"
         height="32"
         class="terminal"
         rx="10"/>
   <text class="terminal" x="155" y="53">MATERIALIZED</text>
   <rect x="307" y="3" width="78" height="32" rx="10"/>
   <rect x="305"
         y="1"
         width="78"
         height="32"
         class="terminal"
         rx="10"/>
   <text class="terminal" x="315" y="21">SOURCE</text>
   <rect x="425" y="35" width="118" height="32" rx="10"/>
   <rect x="423"
         y="33"
         width="118"
         height="32"
         class="terminal"
         rx="10"/>
   <text class="terminal" x="433" y="53">IF NOT EXISTS</text>
   <rect x="53" y="101" width="26" height="32" rx="10"/>
   <rect x="51"
         y="99"
         width="26"
         height="32"
         class="terminal"
         rx="10"/>
   <text class="terminal" x="61" y="119">"</text>
   <rect x="99" y="101" width="80" height="32"/>
   <rect x="97" y="99" width="80" height="32" class="nonterminal"/>
   <text class="nonterminal" x="107" y="119">src_name</text>
   <rect x="199" y="101" width="26" height="32" rx="10"/>
   <rect x="197"
         y="99"
         width="26"
         height="32"
         class="terminal"
         rx="10"/>
   <text class="terminal" x="207" y="119">"</text>
   <rect x="245" y="101" width="60" height="32" rx="10"/>
   <rect x="243"
         y="99"
         width="60"
         height="32"
         class="terminal"
         rx="10"/>
   <text class="terminal" x="253" y="119">FROM</text>
   <rect x="325" y="101" width="94" height="32" rx="10"/>
   <rect x="323"
         y="99"
         width="94"
         height="32"
         class="terminal"
         rx="10"/>
   <text class="terminal" x="333" y="119">POSTGRES</text>
   <rect x="439" y="101" width="58" height="32" rx="10"/>
   <rect x="437"
         y="99"
         width="58"
         height="32"
         class="terminal"
         rx="10"/>
   <text class="terminal" x="447" y="119">HOST</text>
   <rect x="517" y="101" width="24" height="32" rx="10"/>
   <rect x="515"
         y="99"
         width="24"
         height="32"
         class="terminal"
         rx="10"/>
   <text class="terminal" x="525" y="119">(</text>
   <rect x="25" y="167" width="118" height="32"/>
   <rect x="23" y="165" width="118" height="32" class="nonterminal"/>
   <text class="nonterminal" x="33" y="185">connection_info</text>
   <rect x="163" y="167" width="24" height="32" rx="10"/>
   <rect x="161"
         y="165"
         width="24"
         height="32"
         class="terminal"
         rx="10"/>
   <text class="terminal" x="171" y="185">)</text>
   <rect x="207" y="167" width="112" height="32" rx="10"/>
   <rect x="205"
         y="165"
         width="112"
         height="32"
         class="terminal"
         rx="10"/>
   <text class="terminal" x="215" y="185">PUBLICATION</text>
   <rect x="339" y="167" width="26" height="32" rx="10"/>
   <rect x="337"
         y="165"
         width="26"
         height="32"
         class="terminal"
         rx="10"/>
   <text class="terminal" x="347" y="185">"</text>
   <rect x="385" y="167" width="130" height="32"/>
   <rect x="383" y="165" width="130" height="32" class="nonterminal"/>
   <text class="nonterminal" x="393" y="185">publication_name</text>
   <rect x="535" y="167" width="26" height="32" rx="10"/>
   <rect x="533"
         y="165"
         width="26"
         height="32"
         class="terminal"
         rx="10"/>
   <text class="terminal" x="543" y="185">"</text>
   <path class="line"
         d="m19 17 h2 m0 0 h10 m74 0 h10 m20 0 h10 m0 0 h130 m-160 0 h20 m140 0 h20 m-180 0 q10 0 10 10 m160 0 q0 -10 10 -10 m-170 10 v12 m160 0 v-12 m-160 12 q0 10 10 10 m140 0 q10 0 10 -10 m-150 10 h10 m120 0 h10 m20 -32 h10 m78 0 h10 m20 0 h10 m0 0 h128 m-158 0 h20 m138 0 h20 m-178 0 q10 0 10 10 m158 0 q0 -10 10 -10 m-168 10 v12 m158 0 v-12 m-158 12 q0 10 10 10 m138 0 q10 0 10 -10 m-148 10 h10 m118 0 h10 m22 -32 l2 0 m2 0 l2 0 m2 0 l2 0 m-554 98 l2 0 m2 0 l2 0 m2 0 l2 0 m2 0 h10 m26 0 h10 m0 0 h10 m80 0 h10 m0 0 h10 m26 0 h10 m0 0 h10 m60 0 h10 m0 0 h10 m94 0 h10 m0 0 h10 m58 0 h10 m0 0 h10 m24 0 h10 m2 0 l2 0 m2 0 l2 0 m2 0 l2 0 m-560 66 l2 0 m2 0 l2 0 m2 0 l2 0 m2 0 h10 m118 0 h10 m0 0 h10 m24 0 h10 m0 0 h10 m112 0 h10 m0 0 h10 m26 0 h10 m0 0 h10 m130 0 h10 m0 0 h10 m26 0 h10 m3 0 h-3"/>
   <polygon points="579 181 587 177 587 185"/>
   <polygon points="579 181 571 177 571 185"/>
</svg>
