<svg xmlns="http://www.w3.org/2000/svg" width="1195" height="381">
   <polygon points="9 17 1 13 1 21"/>
   <polygon points="17 17 9 13 9 21"/>
   <rect x="31" y="3" width="76" height="32" rx="10"/>
   <rect x="29"
         y="1"
         width="76"
         height="32"
         class="terminal"
         rx="10"/>
   <text class="terminal" x="39" y="21">CREATE</text>
   <rect x="45" y="113" width="62" height="32" rx="10"/>
   <rect x="43"
         y="111"
         width="62"
         height="32"
         class="terminal"
         rx="10"/>
   <text class="terminal" x="53" y="131">INDEX</text>
   <rect x="127" y="113" width="98" height="32"/>
   <rect x="125" y="111" width="98" height="32" class="nonterminal"/>
   <text class="nonterminal" x="135" y="131">index_name</text>
   <rect x="245" y="113" width="40" height="32" rx="10"/>
   <rect x="243"
         y="111"
         width="40"
         height="32"
         class="terminal"
         rx="10"/>
   <text class="terminal" x="253" y="131">ON</text>
   <rect x="305" y="113" width="82" height="32"/>
   <rect x="303" y="111" width="82" height="32" class="nonterminal"/>
   <text class="nonterminal" x="313" y="131">obj_name</text>
   <rect x="427" y="145" width="34" height="32" rx="10"/>
   <rect x="425"
         y="143"
         width="34"
         height="32"
         class="terminal"
         rx="10"/>
   <text class="terminal" x="435" y="163">IN</text>
   <rect x="481" y="145" width="84" height="32" rx="10"/>
   <rect x="479"
         y="143"
         width="84"
         height="32"
         class="terminal"
         rx="10"/>
   <text class="terminal" x="489" y="163">CLUSTER</text>
   <rect x="585" y="145" width="108" height="32"/>
   <rect x="583" y="143" width="108" height="32" class="nonterminal"/>
   <text class="nonterminal" x="593" y="163">cluster_name</text>
   <rect x="753" y="145" width="64" height="32" rx="10"/>
   <rect x="751"
         y="143"
         width="64"
         height="32"
         class="terminal"
         rx="10"/>
   <text class="terminal" x="761" y="163">USING</text>
   <rect x="837" y="145" width="70" height="32"/>
   <rect x="835" y="143" width="70" height="32" class="nonterminal"/>
   <text class="nonterminal" x="845" y="163">method</text>
   <rect x="947" y="113" width="26" height="32" rx="10"/>
   <rect x="945"
         y="111"
         width="26"
         height="32"
         class="terminal"
         rx="10"/>
   <text class="terminal" x="955" y="131">(</text>
   <rect x="1013" y="113" width="74" height="32"/>
   <rect x="1011" y="111" width="74" height="32" class="nonterminal"/>
   <text class="nonterminal" x="1021" y="131">col_expr</text>
   <rect x="1013" y="69" width="24" height="32" rx="10"/>
   <rect x="1011"
         y="67"
         width="24"
         height="32"
         class="terminal"
         rx="10"/>
   <text class="terminal" x="1021" y="87">,</text>
   <rect x="1127" y="113" width="26" height="32" rx="10"/>
   <rect x="1125"
         y="111"
         width="26"
         height="32"
         class="terminal"
         rx="10"/>
   <text class="terminal" x="1135" y="131">)</text>
   <rect x="45" y="189" width="158" height="32" rx="10"/>
   <rect x="43"
         y="187"
         width="158"
         height="32"
         class="terminal"
         rx="10"/>
   <text class="terminal" x="53" y="207">DEFAULT INDEX ON</text>
   <rect x="223" y="189" width="82" height="32"/>
   <rect x="221" y="187" width="82" height="32" class="nonterminal"/>
   <text class="nonterminal" x="231" y="207">obj_name</text>
   <rect x="345" y="221" width="34" height="32" rx="10"/>
   <rect x="343"
         y="219"
         width="34"
         height="32"
         class="terminal"
         rx="10"/>
   <text class="terminal" x="353" y="239">IN</text>
   <rect x="399" y="221" width="84" height="32" rx="10"/>
   <rect x="397"
         y="219"
         width="84"
         height="32"
         class="terminal"
         rx="10"/>
   <text class="terminal" x="407" y="239">CLUSTER</text>
   <rect x="503" y="221" width="108" height="32"/>
   <rect x="501" y="219" width="108" height="32" class="nonterminal"/>
   <text class="nonterminal" x="511" y="239">cluster_name</text>
   <rect x="671" y="221" width="64" height="32" rx="10"/>
   <rect x="669"
         y="219"
         width="64"
         height="32"
         class="terminal"
         rx="10"/>
   <text class="terminal" x="679" y="239">USING</text>
   <rect x="755" y="221" width="70" height="32"/>
   <rect x="753" y="219" width="70" height="32" class="nonterminal"/>
   <text class="nonterminal" x="763" y="239">method</text>
   <rect x="783" y="331" width="58" height="32" rx="10"/>
   <rect x="781"
         y="329"
         width="58"
         height="32"
         class="terminal"
         rx="10"/>
   <text class="terminal" x="791" y="349">WITH</text>
   <rect x="861" y="331" width="26" height="32" rx="10"/>
   <rect x="859"
         y="329"
         width="26"
         height="32"
         class="terminal"
         rx="10"/>
   <text class="terminal" x="869" y="349">(</text>
   <rect x="927" y="331" width="48" height="32"/>
   <rect x="925" y="329" width="48" height="32" class="nonterminal"/>
   <text class="nonterminal" x="935" y="349">field</text>
   <rect x="995" y="331" width="28" height="32" rx="10"/>
   <rect x="993"
         y="329"
         width="28"
         height="32"
         class="terminal"
         rx="10"/>
   <text class="terminal" x="1003" y="349">=</text>
   <rect x="1043" y="331" width="38" height="32"/>
   <rect x="1041" y="329" width="38" height="32" class="nonterminal"/>
   <text class="nonterminal" x="1051" y="349">val</text>
   <rect x="927" y="287" width="24" height="32" rx="10"/>
   <rect x="925"
         y="285"
         width="24"
         height="32"
         class="terminal"
         rx="10"/>
   <text class="terminal" x="935" y="305">,</text>
   <rect x="1121" y="331" width="26" height="32" rx="10"/>
   <rect x="1119"
         y="329"
         width="26"
         height="32"
         class="terminal"
         rx="10"/>
   <text class="terminal" x="1129" y="349">)</text>
   <path class="line"
         d="m17 17 h2 m0 0 h10 m76 0 h10 m2 0 l2 0 m2 0 l2 0 m2 0 l2 0 m-126 110 l2 0 m2 0 l2 0 m2 0 l2 0 m22 0 h10 m62 0 h10 m0 0 h10 m98 0 h10 m0 0 h10 m40 0 h10 m0 0 h10 m82 0 h10 m20 0 h10 m0 0 h276 m-306 0 h20 m286 0 h20 m-326 0 q10 0 10 10 m306 0 q0 -10 10 -10 m-316 10 v12 m306 0 v-12 m-306 12 q0 10 10 10 m286 0 q10 0 10 -10 m-296 10 h10 m34 0 h10 m0 0 h10 m84 0 h10 m0 0 h10 m108 0 h10 m40 -32 h10 m0 0 h164 m-194 0 h20 m174 0 h20 m-214 0 q10 0 10 10 m194 0 q0 -10 10 -10 m-204 10 v12 m194 0 v-12 m-194 12 q0 10 10 10 m174 0 q10 0 10 -10 m-184 10 h10 m64 0 h10 m0 0 h10 m70 0 h10 m20 -32 h10 m26 0 h10 m20 0 h10 m74 0 h10 m-114 0 l20 0 m-1 0 q-9 0 -9 -10 l0 -24 q0 -10 10 -10 m94 44 l20 0 m-20 0 q10 0 10 -10 l0 -24 q0 -10 -10 -10 m-94 0 h10 m24 0 h10 m0 0 h50 m20 44 h10 m26 0 h10 m-1148 0 h20 m1128 0 h20 m-1168 0 q10 0 10 10 m1148 0 q0 -10 10 -10 m-1158 10 v56 m1148 0 v-56 m-1148 56 q0 10 10 10 m1128 0 q10 0 10 -10 m-1138 10 h10 m158 0 h10 m0 0 h10 m82 0 h10 m20 0 h10 m0 0 h276 m-306 0 h20 m286 0 h20 m-326 0 q10 0 10 10 m306 0 q0 -10 10 -10 m-316 10 v12 m306 0 v-12 m-306 12 q0 10 10 10 m286 0 q10 0 10 -10 m-296 10 h10 m34 0 h10 m0 0 h10 m84 0 h10 m0 0 h10 m108 0 h10 m40 -32 h10 m0 0 h164 m-194 0 h20 m174 0 h20 m-214 0 q10 0 10 10 m194 0 q0 -10 10 -10 m-204 10 v12 m194 0 v-12 m-194 12 q0 10 10 10 m174 0 q10 0 10 -10 m-184 10 h10 m64 0 h10 m0 0 h10 m70 0 h10 m20 -32 h308 m22 -76 l2 0 m2 0 l2 0 m2 0 l2 0 m-454 218 l2 0 m2 0 l2 0 m2 0 l2 0 m22 0 h10 m58 0 h10 m0 0 h10 m26 0 h10 m20 0 h10 m48 0 h10 m0 0 h10 m28 0 h10 m0 0 h10 m38 0 h10 m-194 0 l20 0 m-1 0 q-9 0 -9 -10 l0 -24 q0 -10 10 -10 m174 44 l20 0 m-20 0 q10 0 10 -10 l0 -24 q0 -10 -10 -10 m-174 0 h10 m24 0 h10 m0 0 h130 m20 44 h10 m26 0 h10 m-404 0 h20 m384 0 h20 m-424 0 q10 0 10 10 m404 0 q0 -10 10 -10 m-414 10 v14 m404 0 v-14 m-404 14 q0 10 10 10 m384 0 q10 0 10 -10 m-394 10 h10 m0 0 h374 m23 -34 h-3"/>
   <polygon points="1185 345 1193 341 1193 349"/>
   <polygon points="1185 345 1177 341 1177 349"/>
</svg>
