<svg xmlns="http://www.w3.org/2000/svg" width="433" height="287">
   <polygon points="9 17 1 13 1 21"/>
   <polygon points="17 17 9 13 9 21"/>
   <rect x="31" y="3" width="76" height="32" rx="10"/>
   <rect x="29"
         y="1"
         width="76"
         height="32"
         class="terminal"
         rx="10"/>
   <text class="terminal" x="39" y="21">CREATE</text>
   <rect x="127" y="3" width="56" height="32" rx="10"/>
   <rect x="125"
         y="1"
         width="56"
         height="32"
         class="terminal"
         rx="10"/>
   <text class="terminal" x="135" y="21">USER</text>
   <rect x="203" y="3" width="90" height="32"/>
   <rect x="201" y="1" width="90" height="32" class="nonterminal"/>
   <text class="nonterminal" x="211" y="21">user_name</text>
   <rect x="333" y="35" width="58" height="32" rx="10"/>
   <rect x="331"
         y="33"
         width="58"
         height="32"
         class="terminal"
         rx="10"/>
   <text class="terminal" x="341" y="53">WITH</text>
   <rect x="261" y="233" width="64" height="32" rx="10"/>
   <rect x="259"
         y="231"
         width="64"
         height="32"
         class="terminal"
         rx="10"/>
   <text class="terminal" x="269" y="251">LOGIN</text>
   <rect x="261" y="189" width="84" height="32" rx="10"/>
   <rect x="259"
         y="187"
         width="84"
         height="32"
         class="terminal"
         rx="10"/>
   <text class="terminal" x="269" y="207">NOLOGIN</text>
   <rect x="261" y="145" width="104" height="32" rx="10"/>
   <rect x="259"
         y="143"
         width="104"
         height="32"
         class="terminal"
         rx="10"/>
   <text class="terminal" x="269" y="163">SUPERUSER</text>
   <rect x="261" y="101" width="124" height="32" rx="10"/>
   <rect x="259"
         y="99"
         width="124"
         height="32"
         class="terminal"
         rx="10"/>
   <text class="terminal" x="269" y="119">NOSUPERUSER</text>
   <path class="line"
         d="m17 17 h2 m0 0 h10 m76 0 h10 m0 0 h10 m56 0 h10 m0 0 h10 m90 0 h10 m20 0 h10 m0 0 h68 m-98 0 h20 m78 0 h20 m-118 0 q10 0 10 10 m98 0 q0 -10 10 -10 m-108 10 v12 m98 0 v-12 m-98 12 q0 10 10 10 m78 0 q10 0 10 -10 m-88 10 h10 m58 0 h10 m22 -32 l2 0 m2 0 l2 0 m2 0 l2 0 m-214 264 l2 0 m2 0 l2 0 m2 0 l2 0 m22 0 h10 m0 0 h134 m-164 0 l20 0 m-1 0 q-9 0 -9 -10 l0 -14 q0 -10 10 -10 m144 34 l20 0 m-20 0 q10 0 10 -10 l0 -14 q0 -10 -10 -10 m-144 0 h10 m64 0 h10 m0 0 h60 m-154 10 l0 -44 q0 -10 10 -10 m154 54 l0 -44 q0 -10 -10 -10 m-144 0 h10 m84 0 h10 m0 0 h40 m-154 10 l0 -44 q0 -10 10 -10 m154 54 l0 -44 q0 -10 -10 -10 m-144 0 h10 m104 0 h10 m0 0 h20 m-154 10 l0 -44 q0 -10 10 -10 m154 54 l0 -44 q0 -10 -10 -10 m-144 0 h10 m124 0 h10 m23 166 h-3"/>
   <polygon points="423 281 431 277 431 285"/>
   <polygon points="423 281 415 277 415 285"/>
</svg>
