<svg xmlns="http://www.w3.org/2000/svg" width="579" height="163">
   <polygon points="9 17 1 13 1 21"/>
   <polygon points="17 17 9 13 9 21"/>
   <rect x="31" y="3" width="90" height="32" rx="10"/>
   <rect x="29"
         y="1"
         width="90"
         height="32"
         class="terminal"
         rx="10"/>
   <text class="terminal" x="39" y="21">'host:port'</text>
   <rect x="141" y="3" width="64" height="32" rx="10"/>
   <rect x="139"
         y="1"
         width="64"
         height="32"
         class="terminal"
         rx="10"/>
   <text class="terminal" x="149" y="21">USING</text>
   <rect x="225" y="3" width="54" height="32" rx="10"/>
   <rect x="223"
         y="1"
         width="54"
         height="32"
         class="terminal"
         rx="10"/>
   <text class="terminal" x="233" y="21">AWS</text>
   <rect x="299" y="3" width="112" height="32" rx="10"/>
   <rect x="297"
         y="1"
         width="112"
         height="32"
         class="terminal"
         rx="10"/>
   <text class="terminal" x="307" y="21">PRIVATELINK</text>
   <rect x="431" y="3" width="126" height="32"/>
   <rect x="429" y="1" width="126" height="32" class="nonterminal"/>
   <text class="nonterminal" x="439" y="21">aws_connection</text>
   <rect x="289" y="113" width="26" height="32" rx="10"/>
   <rect x="287"
         y="111"
         width="26"
         height="32"
         class="terminal"
         rx="10"/>
   <text class="terminal" x="297" y="131">(</text>
   <rect x="355" y="113" width="110" height="32"/>
   <rect x="353" y="111" width="110" height="32" class="nonterminal"/>
   <text class="nonterminal" x="363" y="131">broker_option</text>
   <rect x="355" y="69" width="24" height="32" rx="10"/>
   <rect x="353"
         y="67"
         width="24"
         height="32"
         class="terminal"
         rx="10"/>
   <text class="terminal" x="363" y="87">,</text>
   <rect x="505" y="113" width="26" height="32" rx="10"/>
   <rect x="503"
         y="111"
         width="26"
         height="32"
         class="terminal"
         rx="10"/>
   <text class="terminal" x="513" y="131">)</text>
   <path class="line"
         d="m17 17 h2 m0 0 h10 m90 0 h10 m0 0 h10 m64 0 h10 m0 0 h10 m54 0 h10 m0 0 h10 m112 0 h10 m0 0 h10 m126 0 h10 m2 0 l2 0 m2 0 l2 0 m2 0 l2 0 m-332 110 l2 0 m2 0 l2 0 m2 0 l2 0 m22 0 h10 m26 0 h10 m20 0 h10 m110 0 h10 m-150 0 l20 0 m-1 0 q-9 0 -9 -10 l0 -24 q0 -10 10 -10 m130 44 l20 0 m-20 0 q10 0 10 -10 l0 -24 q0 -10 -10 -10 m-130 0 h10 m24 0 h10 m0 0 h86 m20 44 h10 m26 0 h10 m-282 0 h20 m262 0 h20 m-302 0 q10 0 10 10 m282 0 q0 -10 10 -10 m-292 10 v14 m282 0 v-14 m-282 14 q0 10 10 10 m262 0 q10 0 10 -10 m-272 10 h10 m0 0 h252 m23 -34 h-3"/>
   <polygon points="569 127 577 123 577 131"/>
   <polygon points="569 127 561 123 561 131"/>
</svg>
