<svg xmlns="http://www.w3.org/2000/svg" width="583" height="659">
   <polygon points="9 17 1 13 1 21"/>
   <polygon points="17 17 9 13 9 21"/>
   <rect x="31" y="3" width="74" height="32" rx="10"/>
   <rect x="29"
         y="1"
         width="74"
         height="32"
         class="terminal"
         rx="10"/>
   <text class="terminal" x="39" y="21">CREATE</text>
   <rect x="145" y="35" width="120" height="32" rx="10"/>
   <rect x="143"
         y="33"
         width="120"
         height="32"
         class="terminal"
         rx="10"/>
   <text class="terminal" x="153" y="53">MATERIALIZED</text>
   <rect x="305" y="3" width="78" height="32" rx="10"/>
   <rect x="303"
         y="1"
         width="78"
         height="32"
         class="terminal"
         rx="10"/>
   <text class="terminal" x="313" y="21">SOURCE</text>
   <rect x="423" y="35" width="118" height="32" rx="10"/>
   <rect x="421"
         y="33"
         width="118"
         height="32"
         class="terminal"
         rx="10"/>
   <text class="terminal" x="431" y="53">IF NOT EXISTS</text>
   <rect x="79" y="145" width="80" height="32"/>
   <rect x="77" y="143" width="80" height="32" class="nonterminal"/>
   <text class="nonterminal" x="87" y="163">src_name</text>
   <rect x="199" y="145" width="24" height="32" rx="10"/>
   <rect x="197"
         y="143"
         width="24"
         height="32"
         class="terminal"
         rx="10"/>
   <text class="terminal" x="207" y="163">(</text>
   <rect x="263" y="145" width="80" height="32"/>
   <rect x="261" y="143" width="80" height="32" class="nonterminal"/>
   <text class="nonterminal" x="271" y="163">col_name</text>
   <rect x="263" y="101" width="24" height="32" rx="10"/>
   <rect x="261"
         y="99"
         width="24"
         height="32"
         class="terminal"
         rx="10"/>
   <text class="terminal" x="271" y="119">,</text>
   <rect x="383" y="145" width="24" height="32" rx="10"/>
   <rect x="381"
         y="143"
         width="24"
         height="32"
         class="terminal"
         rx="10"/>
   <text class="terminal" x="391" y="163">)</text>
   <rect x="447" y="145" width="60" height="32" rx="10"/>
   <rect x="445"
         y="143"
         width="60"
         height="32"
         class="terminal"
         rx="10"/>
   <text class="terminal" x="455" y="163">FROM</text>
   <rect x="121" y="227" width="126" height="32" rx="10"/>
   <rect x="119"
         y="225"
         width="126"
         height="32"
         class="terminal"
         rx="10"/>
   <text class="terminal" x="129" y="245">KAFKA BROKER</text>
   <rect x="267" y="227" width="46" height="32"/>
   <rect x="265" y="225" width="46" height="32" class="nonterminal"/>
   <text class="nonterminal" x="275" y="245">host</text>
   <rect x="333" y="227" width="62" height="32" rx="10"/>
   <rect x="331"
         y="225"
         width="62"
         height="32"
         class="terminal"
         rx="10"/>
   <text class="terminal" x="341" y="245">TOPIC</text>
   <rect x="415" y="227" width="50" height="32"/>
   <rect x="413" y="225" width="50" height="32" class="nonterminal"/>
   <text class="nonterminal" x="423" y="245">topic</text>
   <rect x="67" y="337" width="56" height="32" rx="10"/>
   <rect x="65"
         y="335"
         width="56"
         height="32"
         class="terminal"
         rx="10"/>
   <text class="terminal" x="75" y="355">WITH</text>
   <rect x="143" y="337" width="24" height="32" rx="10"/>
   <rect x="141"
         y="335"
         width="24"
         height="32"
         class="terminal"
         rx="10"/>
   <text class="terminal" x="151" y="355">(</text>
   <rect x="207" y="337" width="46" height="32"/>
   <rect x="205" y="335" width="46" height="32" class="nonterminal"/>
   <text class="nonterminal" x="215" y="355">field</text>
   <rect x="273" y="337" width="26" height="32" rx="10"/>
   <rect x="271"
         y="335"
         width="26"
         height="32"
         class="terminal"
         rx="10"/>
   <text class="terminal" x="281" y="355">=</text>
   <rect x="319" y="337" width="38" height="32"/>
   <rect x="317" y="335" width="38" height="32" class="nonterminal"/>
   <text class="nonterminal" x="327" y="355">val</text>
   <rect x="207" y="293" width="24" height="32" rx="10"/>
   <rect x="205"
         y="291"
         width="24"
         height="32"
         class="terminal"
         rx="10"/>
   <text class="terminal" x="215" y="311">,</text>
   <rect x="397" y="337" width="24" height="32" rx="10"/>
   <rect x="395"
         y="335"
         width="24"
         height="32"
         class="terminal"
         rx="10"/>
   <text class="terminal" x="405" y="355">)</text>
   <rect x="461" y="337" width="78" height="32" rx="10"/>
   <rect x="459"
         y="335"
         width="78"
         height="32"
         class="terminal"
         rx="10"/>
   <text class="terminal" x="469" y="355">FORMAT</text>
   <rect x="245" y="419" width="96" height="32"/>
   <rect x="243" y="417" width="96" height="32" class="nonterminal"/>
   <text class="nonterminal" x="253" y="437">format_spec</text>
   <rect x="55" y="505" width="92" height="32" rx="10"/>
   <rect x="53"
         y="503"
         width="92"
         height="32"
         class="terminal"
         rx="10"/>
   <text class="terminal" x="63" y="523">ENVELOPE</text>
   <rect x="187" y="505" width="60" height="32" rx="10"/>
   <rect x="185"
         y="503"
         width="60"
         height="32"
         class="terminal"
         rx="10"/>
   <text class="terminal" x="195" y="523">NONE</text>
   <rect x="187" y="549" width="92" height="32" rx="10"/>
   <rect x="185"
         y="547"
         width="92"
         height="32"
         class="terminal"
         rx="10"/>
   <text class="terminal" x="195" y="567">DEBEZIUM</text>
   <rect x="187" y="593" width="74" height="32" rx="10"/>
   <rect x="185"
         y="591"
         width="74"
         height="32"
         class="terminal"
         rx="10"/>
   <text class="terminal" x="195" y="611">UPSERT</text>
   <rect x="301" y="625" width="78" height="32" rx="10"/>
   <rect x="299"
         y="623"
         width="78"
         height="32"
         class="terminal"
         rx="10"/>
   <text class="terminal" x="309" y="643">FORMAT</text>
   <rect x="399" y="625" width="96" height="32"/>
   <rect x="397" y="623" width="96" height="32" class="nonterminal"/>
   <text class="nonterminal" x="407" y="643">format_spec</text>
   <path class="line"
         d="m17 17 h2 m0 0 h10 m74 0 h10 m20 0 h10 m0 0 h130 m-160 0 h20 m140 0 h20 m-180 0 q10 0 10 10 m160 0 q0 -10 10 -10 m-170 10 v12 m160 0 v-12 m-160 12 q0 10 10 10 m140 0 q10 0 10 -10 m-150 10 h10 m120 0 h10 m20 -32 h10 m78 0 h10 m20 0 h10 m0 0 h128 m-158 0 h20 m138 0 h20 m-178 0 q10 0 10 10 m158 0 q0 -10 10 -10 m-168 10 v12 m158 0 v-12 m-158 12 q0 10 10 10 m138 0 q10 0 10 -10 m-148 10 h10 m118 0 h10 m22 -32 l2 0 m2 0 l2 0 m2 0 l2 0 m-526 142 l2 0 m2 0 l2 0 m2 0 l2 0 m2 0 h10 m80 0 h10 m20 0 h10 m24 0 h10 m20 0 h10 m80 0 h10 m-120 0 l20 0 m-1 0 q-9 0 -9 -10 l0 -24 q0 -10 10 -10 m100 44 l20 0 m-20 0 q10 0 10 -10 l0 -24 q0 -10 -10 -10 m-100 0 h10 m24 0 h10 m0 0 h56 m20 44 h10 m24 0 h10 m-248 0 h20 m228 0 h20 m-268 0 q10 0 10 10 m248 0 q0 -10 10 -10 m-258 10 v14 m248 0 v-14 m-248 14 q0 10 10 10 m228 0 q10 0 10 -10 m-238 10 h10 m0 0 h218 m20 -34 h10 m60 0 h10 m2 0 l2 0 m2 0 l2 0 m2 0 l2 0 m-430 82 l2 0 m2 0 l2 0 m2 0 l2 0 m2 0 h10 m126 0 h10 m0 0 h10 m46 0 h10 m0 0 h10 m62 0 h10 m0 0 h10 m50 0 h10 m2 0 l2 0 m2 0 l2 0 m2 0 l2 0 m-462 110 l2 0 m2 0 l2 0 m2 0 l2 0 m22 0 h10 m56 0 h10 m0 0 h10 m24 0 h10 m20 0 h10 m46 0 h10 m0 0 h10 m26 0 h10 m0 0 h10 m38 0 h10 m-190 0 l20 0 m-1 0 q-9 0 -9 -10 l0 -24 q0 -10 10 -10 m170 44 l20 0 m-20 0 q10 0 10 -10 l0 -24 q0 -10 -10 -10 m-170 0 h10 m24 0 h10 m0 0 h126 m20 44 h10 m24 0 h10 m-394 0 h20 m374 0 h20 m-414 0 q10 0 10 10 m394 0 q0 -10 10 -10 m-404 10 v14 m394 0 v-14 m-394 14 q0 10 10 10 m374 0 q10 0 10 -10 m-384 10 h10 m0 0 h364 m20 -34 h10 m78 0 h10 m2 0 l2 0 m2 0 l2 0 m2 0 l2 0 m-338 82 l2 0 m2 0 l2 0 m2 0 l2 0 m2 0 h10 m96 0 h10 m2 0 l2 0 m2 0 l2 0 m2 0 l2 0 m-350 54 l2 0 m2 0 l2 0 m2 0 l2 0 m22 0 h10 m0 0 h490 m-520 0 h20 m500 0 h20 m-540 0 q10 0 10 10 m520 0 q0 -10 10 -10 m-530 10 v12 m520 0 v-12 m-520 12 q0 10 10 10 m500 0 q10 0 10 -10 m-510 10 h10 m92 0 h10 m20 0 h10 m60 0 h10 m0 0 h268 m-368 0 h20 m348 0 h20 m-388 0 q10 0 10 10 m368 0 q0 -10 10 -10 m-378 10 v24 m368 0 v-24 m-368 24 q0 10 10 10 m348 0 q10 0 10 -10 m-358 10 h10 m92 0 h10 m0 0 h236 m-358 -10 v20 m368 0 v-20 m-368 20 v24 m368 0 v-24 m-368 24 q0 10 10 10 m348 0 q10 0 10 -10 m-358 10 h10 m74 0 h10 m20 0 h10 m0 0 h204 m-234 0 h20 m214 0 h20 m-254 0 q10 0 10 10 m234 0 q0 -10 10 -10 m-244 10 v12 m234 0 v-12 m-234 12 q0 10 10 10 m214 0 q10 0 10 -10 m-224 10 h10 m78 0 h10 m0 0 h10 m96 0 h10 m63 -152 h-3"/>
   <polygon points="573 487 581 483 581 491"/>
   <polygon points="573 487 565 483 565 491"/>
</svg>
