<svg xmlns="http://www.w3.org/2000/svg" width="805" height="391">
   <polygon points="11 17 3 13 3 21"/>
   <polygon points="19 17 11 13 11 21"/>
   <rect x="33" y="3" width="140" height="32" rx="10"/>
   <rect x="31"
         y="1"
         width="140"
         height="32"
         class="terminal"
         rx="10"/>
   <text class="terminal" x="41" y="21">CREATE SOURCE</text>
   <rect x="213" y="35" width="120" height="32" rx="10"/>
   <rect x="211"
         y="33"
         width="120"
         height="32"
         class="terminal"
         rx="10"/>
   <text class="terminal" x="221" y="53">IF NOT EXISTS</text>
   <rect x="373" y="3" width="82" height="32"/>
   <rect x="371" y="1" width="82" height="32" class="nonterminal"/>
   <text class="nonterminal" x="381" y="21">src_name</text>
   <rect x="475" y="3" width="104" height="32" rx="10"/>
   <rect x="473"
         y="1"
         width="104"
         height="32"
         class="terminal"
         rx="10"/>
   <text class="terminal" x="483" y="21">IN CLUSTER</text>
   <rect x="181" y="101" width="108" height="32"/>
   <rect x="179" y="99" width="108" height="32" class="nonterminal"/>
   <text class="nonterminal" x="189" y="119">cluster_name</text>
   <rect x="309" y="101" width="60" height="32" rx="10"/>
   <rect x="307"
         y="99"
         width="60"
         height="32"
         class="terminal"
         rx="10"/>
   <text class="terminal" x="317" y="119">FROM</text>
   <rect x="389" y="101" width="94" height="32" rx="10"/>
   <rect x="387"
         y="99"
         width="94"
         height="32"
         class="terminal"
         rx="10"/>
   <text class="terminal" x="397" y="119">WEBHOOK</text>
   <rect x="503" y="101" width="126" height="32" rx="10"/>
   <rect x="501"
         y="99"
         width="126"
         height="32"
         class="terminal"
         rx="10"/>
   <text class="terminal" x="511" y="119">BODY FORMAT</text>
   <rect x="214" y="167" width="170" height="32"/>
   <rect x="212" y="165" width="170" height="32" class="nonterminal"/>
   <text class="nonterminal" x="222" y="185">webhook_body_format</text>
   <rect x="424" y="199" width="152" height="32" rx="10"/>
   <rect x="422"
         y="197"
         width="152"
         height="32"
         class="terminal"
         rx="10"/>
   <text class="terminal" x="432" y="217">INCLUDE HEADERS</text>
   <rect x="45" y="309" width="70" height="32" rx="10"/>
   <rect x="43"
         y="307"
         width="70"
         height="32"
         class="terminal"
         rx="10"/>
   <text class="terminal" x="53" y="327">CHECK</text>
   <rect x="155" y="309" width="58" height="32" rx="10"/>
   <rect x="153"
         y="307"
         width="58"
         height="32"
         class="terminal"
         rx="10"/>
   <text class="terminal" x="163" y="327">WITH</text>
   <rect x="233" y="309" width="26" height="32" rx="10"/>
   <rect x="231"
         y="307"
         width="26"
         height="32"
         class="terminal"
         rx="10"/>
   <text class="terminal" x="241" y="327">(</text>
   <rect x="319" y="309" width="174" height="32"/>
   <rect x="317" y="307" width="174" height="32" class="nonterminal"/>
   <text class="nonterminal" x="327" y="327">webhook_check_option</text>
   <rect x="319" y="265" width="24" height="32" rx="10"/>
   <rect x="317"
         y="263"
         width="24"
         height="32"
         class="terminal"
         rx="10"/>
   <text class="terminal" x="327" y="283">,</text>
   <rect x="553" y="309" width="26" height="32" rx="10"/>
   <rect x="551"
         y="307"
         width="26"
         height="32"
         class="terminal"
         rx="10"/>
   <text class="terminal" x="561" y="327">)</text>
   <rect x="619" y="309" width="138" height="32"/>
   <rect x="617" y="307" width="138" height="32" class="nonterminal"/>
   <text class="nonterminal" x="627" y="327">check_expression</text>
   <path class="line"
         d="m19 17 h2 m0 0 h10 m140 0 h10 m20 0 h10 m0 0 h130 m-160 0 h20 m140 0 h20 m-180 0 q10 0 10 10 m160 0 q0 -10 10 -10 m-170 10 v12 m160 0 v-12 m-160 12 q0 10 10 10 m140 0 q10 0 10 -10 m-150 10 h10 m120 0 h10 m20 -32 h10 m82 0 h10 m0 0 h10 m104 0 h10 m2 0 l2 0 m2 0 l2 0 m2 0 l2 0 m-442 98 l2 0 m2 0 l2 0 m2 0 l2 0 m2 0 h10 m108 0 h10 m0 0 h10 m60 0 h10 m0 0 h10 m94 0 h10 m0 0 h10 m126 0 h10 m2 0 l2 0 m2 0 l2 0 m2 0 l2 0 m-459 66 l2 0 m2 0 l2 0 m2 0 l2 0 m2 0 h10 m170 0 h10 m20 0 h10 m0 0 h162 m-192 0 h20 m172 0 h20 m-212 0 q10 0 10 10 m192 0 q0 -10 10 -10 m-202 10 v12 m192 0 v-12 m-192 12 q0 10 10 10 m172 0 q10 0 10 -10 m-182 10 h10 m152 0 h10 m22 -32 l2 0 m2 0 l2 0 m2 0 l2 0 m-615 142 l2 0 m2 0 l2 0 m2 0 l2 0 m22 0 h10 m70 0 h10 m20 0 h10 m58 0 h10 m0 0 h10 m26 0 h10 m40 0 h10 m174 0 h10 m-214 0 l20 0 m-1 0 q-9 0 -9 -10 l0 -24 q0 -10 10 -10 m194 44 l20 0 m-20 0 q10 0 10 -10 l0 -24 q0 -10 -10 -10 m-194 0 h10 m24 0 h10 m0 0 h150 m-234 44 h20 m234 0 h20 m-274 0 q10 0 10 10 m254 0 q0 -10 10 -10 m-264 10 v14 m254 0 v-14 m-254 14 q0 10 10 10 m234 0 q10 0 10 -10 m-244 10 h10 m0 0 h224 m20 -34 h10 m26 0 h10 m-464 0 h20 m444 0 h20 m-484 0 q10 0 10 10 m464 0 q0 -10 10 -10 m-474 10 v30 m464 0 v-30 m-464 30 q0 10 10 10 m444 0 q10 0 10 -10 m-454 10 h10 m0 0 h434 m20 -50 h10 m138 0 h10 m-752 0 h20 m732 0 h20 m-772 0 q10 0 10 10 m752 0 q0 -10 10 -10 m-762 10 v46 m752 0 v-46 m-752 46 q0 10 10 10 m732 0 q10 0 10 -10 m-742 10 h10 m0 0 h722 m23 -66 h-3"/>
   <polygon points="795 323 803 319 803 327"/>
   <polygon points="795 323 787 319 787 327"/>
</svg>
