<svg xmlns="http://www.w3.org/2000/svg" width="591" height="687">
   <polygon points="9 17 1 13 1 21"/>
   <polygon points="17 17 9 13 9 21"/>
   <rect x="31" y="3" width="76" height="32" rx="10"/>
   <rect x="29"
         y="1"
         width="76"
         height="32"
         class="terminal"
         rx="10"/>
   <text class="terminal" x="39" y="21">CREATE</text>
   <rect x="147" y="35" width="124" height="32" rx="10"/>
   <rect x="145"
         y="33"
         width="124"
         height="32"
         class="terminal"
         rx="10"/>
   <text class="terminal" x="155" y="53">MATERIALIZED</text>
   <rect x="311" y="3" width="78" height="32" rx="10"/>
   <rect x="309"
         y="1"
         width="78"
         height="32"
         class="terminal"
         rx="10"/>
   <text class="terminal" x="319" y="21">SOURCE</text>
   <rect x="429" y="35" width="120" height="32" rx="10"/>
   <rect x="427"
         y="33"
         width="120"
         height="32"
         class="terminal"
         rx="10"/>
   <text class="terminal" x="437" y="53">IF NOT EXISTS</text>
   <rect x="79" y="145" width="82" height="32"/>
   <rect x="77" y="143" width="82" height="32" class="nonterminal"/>
   <text class="nonterminal" x="87" y="163">src_name</text>
   <rect x="201" y="145" width="26" height="32" rx="10"/>
   <rect x="199"
         y="143"
         width="26"
         height="32"
         class="terminal"
         rx="10"/>
   <text class="terminal" x="209" y="163">(</text>
   <rect x="267" y="145" width="82" height="32"/>
   <rect x="265" y="143" width="82" height="32" class="nonterminal"/>
   <text class="nonterminal" x="275" y="163">col_name</text>
   <rect x="267" y="101" width="24" height="32" rx="10"/>
   <rect x="265"
         y="99"
         width="24"
         height="32"
         class="terminal"
         rx="10"/>
   <text class="terminal" x="275" y="119">,</text>
   <rect x="389" y="145" width="26" height="32" rx="10"/>
   <rect x="387"
         y="143"
         width="26"
         height="32"
         class="terminal"
         rx="10"/>
   <text class="terminal" x="397" y="163">)</text>
   <rect x="455" y="145" width="60" height="32" rx="10"/>
   <rect x="453"
         y="143"
         width="60"
         height="32"
         class="terminal"
         rx="10"/>
   <text class="terminal" x="463" y="163">FROM</text>
   <rect x="39" y="227" width="130" height="32" rx="10"/>
   <rect x="37"
         y="225"
         width="130"
         height="32"
         class="terminal"
         rx="10"/>
   <text class="terminal" x="47" y="245">KAFKA BROKER</text>
   <rect x="189" y="227" width="48" height="32"/>
   <rect x="187" y="225" width="48" height="32" class="nonterminal"/>
   <text class="nonterminal" x="197" y="245">host</text>
   <rect x="257" y="227" width="64" height="32" rx="10"/>
   <rect x="255"
         y="225"
         width="64"
         height="32"
         class="terminal"
         rx="10"/>
   <text class="terminal" x="265" y="245">TOPIC</text>
   <rect x="341" y="227" width="52" height="32"/>
   <rect x="339" y="225" width="52" height="32" class="nonterminal"/>
   <text class="nonterminal" x="349" y="245">topic</text>
   <rect x="433" y="259" width="102" height="32"/>
   <rect x="431" y="257" width="102" height="32" class="nonterminal"/>
   <text class="nonterminal" x="441" y="277">with_options</text>
   <rect x="103" y="325" width="114" height="32" rx="10"/>
   <rect x="101"
         y="323"
         width="114"
         height="32"
         class="terminal"
         rx="10"/>
   <text class="terminal" x="111" y="343">KEY FORMAT</text>
   <rect x="237" y="325" width="102" height="32"/>
   <rect x="235" y="323" width="102" height="32" class="nonterminal"/>
   <text class="nonterminal" x="245" y="343">format_spec</text>
   <rect x="359" y="325" width="132" height="32" rx="10"/>
   <rect x="357"
         y="323"
         width="132"
         height="32"
         class="terminal"
         rx="10"/>
   <text class="terminal" x="367" y="343">VALUE FORMAT</text>
   <rect x="103" y="369" width="80" height="32" rx="10"/>
   <rect x="101"
         y="367"
         width="80"
         height="32"
         class="terminal"
         rx="10"/>
   <text class="terminal" x="111" y="387">FORMAT</text>
   <rect x="56" y="435" width="66" height="32" rx="10"/>
   <rect x="54"
         y="433"
         width="66"
         height="32"
         class="terminal"
         rx="10"/>
   <text class="terminal" x="64" y="453">BYTES</text>
   <rect x="56" y="479" width="56" height="32" rx="10"/>
   <rect x="54"
         y="477"
         width="56"
         height="32"
         class="terminal"
         rx="10"/>
   <text class="terminal" x="64" y="497">TEXT</text>
   <rect x="56" y="523" width="102" height="32"/>
   <rect x="54" y="521" width="102" height="32" class="nonterminal"/>
   <text class="nonterminal" x="64" y="541">format_spec</text>
   <rect x="218" y="467" width="114" height="32" rx="10"/>
   <rect x="216"
         y="465"
         width="114"
         height="32"
         class="terminal"
         rx="10"/>
   <text class="terminal" x="226" y="485">INCLUDE KEY</text>
   <rect x="372" y="499" width="40" height="32" rx="10"/>
   <rect x="370"
         y="497"
         width="40"
         height="32"
         class="terminal"
         rx="10"/>
   <text class="terminal" x="380" y="517">AS</text>
   <rect x="432" y="499" width="86" height="32"/>
   <rect x="430" y="497" width="86" height="32" class="nonterminal"/>
   <text class="nonterminal" x="440" y="517">key_name</text>
   <rect x="313" y="609" width="94" height="32" rx="10"/>
   <rect x="311"
         y="607"
         width="94"
         height="32"
         class="terminal"
         rx="10"/>
   <text class="terminal" x="321" y="627">ENVELOPE</text>
   <rect x="447" y="609" width="60" height="32" rx="10"/>
   <rect x="445"
         y="607"
         width="60"
         height="32"
         class="terminal"
         rx="10"/>
   <text class="terminal" x="455" y="627">NONE</text>
   <rect x="447" y="653" width="76" height="32" rx="10"/>
   <rect x="445"
         y="651"
         width="76"
         height="32"
         class="terminal"
         rx="10"/>
   <text class="terminal" x="455" y="671">UPSERT</text>
   <path class="line"
         d="m17 17 h2 m0 0 h10 m76 0 h10 m20 0 h10 m0 0 h134 m-164 0 h20 m144 0 h20 m-184 0 q10 0 10 10 m164 0 q0 -10 10 -10 m-174 10 v12 m164 0 v-12 m-164 12 q0 10 10 10 m144 0 q10 0 10 -10 m-154 10 h10 m124 0 h10 m20 -32 h10 m78 0 h10 m20 0 h10 m0 0 h130 m-160 0 h20 m140 0 h20 m-180 0 q10 0 10 10 m160 0 q0 -10 10 -10 m-170 10 v12 m160 0 v-12 m-160 12 q0 10 10 10 m140 0 q10 0 10 -10 m-150 10 h10 m120 0 h10 m22 -32 l2 0 m2 0 l2 0 m2 0 l2 0 m-534 142 l2 0 m2 0 l2 0 m2 0 l2 0 m2 0 h10 m82 0 h10 m20 0 h10 m26 0 h10 m20 0 h10 m82 0 h10 m-122 0 l20 0 m-1 0 q-9 0 -9 -10 l0 -24 q0 -10 10 -10 m102 44 l20 0 m-20 0 q10 0 10 -10 l0 -24 q0 -10 -10 -10 m-102 0 h10 m24 0 h10 m0 0 h58 m20 44 h10 m26 0 h10 m-254 0 h20 m234 0 h20 m-274 0 q10 0 10 10 m254 0 q0 -10 10 -10 m-264 10 v14 m254 0 v-14 m-254 14 q0 10 10 10 m234 0 q10 0 10 -10 m-244 10 h10 m0 0 h224 m20 -34 h10 m60 0 h10 m2 0 l2 0 m2 0 l2 0 m2 0 l2 0 m-520 82 l2 0 m2 0 l2 0 m2 0 l2 0 m2 0 h10 m130 0 h10 m0 0 h10 m48 0 h10 m0 0 h10 m64 0 h10 m0 0 h10 m52 0 h10 m20 0 h10 m0 0 h112 m-142 0 h20 m122 0 h20 m-162 0 q10 0 10 10 m142 0 q0 -10 10 -10 m-152 10 v12 m142 0 v-12 m-142 12 q0 10 10 10 m122 0 q10 0 10 -10 m-132 10 h10 m102 0 h10 m22 -32 l2 0 m2 0 l2 0 m2 0 l2 0 m-516 98 l2 0 m2 0 l2 0 m2 0 l2 0 m22 0 h10 m114 0 h10 m0 0 h10 m102 0 h10 m0 0 h10 m132 0 h10 m-428 0 h20 m408 0 h20 m-448 0 q10 0 10 10 m428 0 q0 -10 10 -10 m-438 10 v24 m428 0 v-24 m-428 24 q0 10 10 10 m408 0 q10 0 10 -10 m-418 10 h10 m80 0 h10 m0 0 h308 m22 -44 l2 0 m2 0 l2 0 m2 0 l2 0 m-519 110 l2 0 m2 0 l2 0 m2 0 l2 0 m22 0 h10 m66 0 h10 m0 0 h36 m-142 0 h20 m122 0 h20 m-162 0 q10 0 10 10 m142 0 q0 -10 10 -10 m-152 10 v24 m142 0 v-24 m-142 24 q0 10 10 10 m122 0 q10 0 10 -10 m-132 10 h10 m56 0 h10 m0 0 h46 m-132 -10 v20 m142 0 v-20 m-142 20 v24 m142 0 v-24 m-142 24 q0 10 10 10 m122 0 q10 0 10 -10 m-132 10 h10 m102 0 h10 m40 -88 h10 m0 0 h330 m-360 0 h20 m340 0 h20 m-380 0 q10 0 10 10 m360 0 q0 -10 10 -10 m-370 10 v12 m360 0 v-12 m-360 12 q0 10 10 10 m340 0 q10 0 10 -10 m-350 10 h10 m114 0 h10 m20 0 h10 m0 0 h156 m-186 0 h20 m166 0 h20 m-206 0 q10 0 10 10 m186 0 q0 -10 10 -10 m-196 10 v12 m186 0 v-12 m-186 12 q0 10 10 10 m166 0 q10 0 10 -10 m-176 10 h10 m40 0 h10 m0 0 h10 m86 0 h10 m42 -64 l2 0 m2 0 l2 0 m2 0 l2 0 m-309 142 l2 0 m2 0 l2 0 m2 0 l2 0 m22 0 h10 m0 0 h240 m-270 0 h20 m250 0 h20 m-290 0 q10 0 10 10 m270 0 q0 -10 10 -10 m-280 10 v12 m270 0 v-12 m-270 12 q0 10 10 10 m250 0 q10 0 10 -10 m-260 10 h10 m94 0 h10 m20 0 h10 m60 0 h10 m0 0 h16 m-116 0 h20 m96 0 h20 m-136 0 q10 0 10 10 m116 0 q0 -10 10 -10 m-126 10 v24 m116 0 v-24 m-116 24 q0 10 10 10 m96 0 q10 0 10 -10 m-106 10 h10 m76 0 h10 m43 -76 h-3"/>
   <polygon points="581 591 589 587 589 595"/>
   <polygon points="581 591 573 587 573 595"/>
</svg>
