<svg xmlns="http://www.w3.org/2000/svg" width="585" height="529">
   <polygon points="9 17 1 13 1 21"/>
   <polygon points="17 17 9 13 9 21"/>
   <rect x="31" y="3" width="76" height="32" rx="10"/>
   <rect x="29"
         y="1"
         width="76"
         height="32"
         class="terminal"
         rx="10"/>
   <text class="terminal" x="39" y="21">CREATE</text>
   <rect x="147" y="3" width="166" height="32" rx="10"/>
   <rect x="145"
         y="1"
         width="166"
         height="32"
         class="terminal"
         rx="10"/>
   <text class="terminal" x="155" y="21">MATERIALIZED VIEW</text>
   <rect x="353" y="35" width="120" height="32" rx="10"/>
   <rect x="351"
         y="33"
         width="120"
         height="32"
         class="terminal"
         rx="10"/>
   <text class="terminal" x="361" y="53">IF NOT EXISTS</text>
   <rect x="147" y="79" width="108" height="32" rx="10"/>
   <rect x="145"
         y="77"
         width="108"
         height="32"
         class="terminal"
         rx="10"/>
   <text class="terminal" x="155" y="97">OR REPLACE</text>
   <rect x="275" y="79" width="166" height="32" rx="10"/>
   <rect x="273"
         y="77"
         width="166"
         height="32"
         class="terminal"
         rx="10"/>
   <text class="terminal" x="283" y="97">MATERIALIZED VIEW</text>
   <rect x="113" y="189" width="92" height="32"/>
   <rect x="111" y="187" width="92" height="32" class="nonterminal"/>
   <text class="nonterminal" x="121" y="207">view_name</text>
   <rect x="245" y="189" width="26" height="32" rx="10"/>
   <rect x="243"
         y="187"
         width="26"
         height="32"
         class="terminal"
         rx="10"/>
   <text class="terminal" x="253" y="207">(</text>
   <rect x="311" y="189" width="78" height="32"/>
   <rect x="309" y="187" width="78" height="32" class="nonterminal"/>
   <text class="nonterminal" x="319" y="207">col_ident</text>
   <rect x="311" y="145" width="24" height="32" rx="10"/>
   <rect x="309"
         y="143"
         width="24"
         height="32"
         class="terminal"
         rx="10"/>
   <text class="terminal" x="319" y="163">,</text>
   <rect x="429" y="189" width="26" height="32" rx="10"/>
   <rect x="427"
         y="187"
         width="26"
         height="32"
         class="terminal"
         rx="10"/>
   <text class="terminal" x="437" y="207">)</text>
   <rect x="178" y="287" width="104" height="32" rx="10"/>
   <rect x="176"
         y="285"
         width="104"
         height="32"
         class="terminal"
         rx="10"/>
   <text class="terminal" x="186" y="305">IN CLUSTER</text>
   <rect x="302" y="287" width="108" height="32"/>
   <rect x="300" y="285" width="108" height="32" class="nonterminal"/>
   <text class="nonterminal" x="310" y="305">cluster_name</text>
   <rect x="45" y="397" width="58" height="32" rx="10"/>
   <rect x="43"
         y="395"
         width="58"
         height="32"
         class="terminal"
         rx="10"/>
   <text class="terminal" x="53" y="415">WITH</text>
   <rect x="123" y="397" width="26" height="32" rx="10"/>
   <rect x="121"
         y="395"
         width="26"
         height="32"
         class="terminal"
         rx="10"/>
   <text class="terminal" x="131" y="415">(</text>
   <rect x="209" y="397" width="150" height="32" rx="10"/>
   <rect x="207"
         y="395"
         width="150"
         height="32"
         class="terminal"
         rx="10"/>
   <text class="terminal" x="217" y="415">ASSERT NOT NULL</text>
   <rect x="379" y="397" width="78" height="32"/>
   <rect x="377" y="395" width="78" height="32" class="nonterminal"/>
   <text class="nonterminal" x="387" y="415">col_ident</text>
   <rect x="209" y="353" width="24" height="32" rx="10"/>
   <rect x="207"
         y="351"
         width="24"
         height="32"
         class="terminal"
         rx="10"/>
   <text class="terminal" x="217" y="371">,</text>
   <rect x="517" y="397" width="26" height="32" rx="10"/>
   <rect x="515"
         y="395"
         width="26"
         height="32"
         class="terminal"
         rx="10"/>
   <text class="terminal" x="525" y="415">)</text>
   <rect x="401" y="495" width="40" height="32" rx="10"/>
   <rect x="399"
         y="493"
         width="40"
         height="32"
         class="terminal"
         rx="10"/>
   <text class="terminal" x="409" y="513">AS</text>
   <rect x="461" y="495" width="96" height="32"/>
   <rect x="459" y="493" width="96" height="32" class="nonterminal"/>
   <text class="nonterminal" x="469" y="513">select_stmt</text>
   <path class="line"
         d="m17 17 h2 m0 0 h10 m76 0 h10 m20 0 h10 m166 0 h10 m20 0 h10 m0 0 h130 m-160 0 h20 m140 0 h20 m-180 0 q10 0 10 10 m160 0 q0 -10 10 -10 m-170 10 v12 m160 0 v-12 m-160 12 q0 10 10 10 m140 0 q10 0 10 -10 m-150 10 h10 m120 0 h10 m-366 -32 h20 m366 0 h20 m-406 0 q10 0 10 10 m386 0 q0 -10 10 -10 m-396 10 v56 m386 0 v-56 m-386 56 q0 10 10 10 m366 0 q10 0 10 -10 m-376 10 h10 m108 0 h10 m0 0 h10 m166 0 h10 m0 0 h52 m22 -76 l2 0 m2 0 l2 0 m2 0 l2 0 m-444 186 l2 0 m2 0 l2 0 m2 0 l2 0 m2 0 h10 m92 0 h10 m20 0 h10 m26 0 h10 m20 0 h10 m78 0 h10 m-118 0 l20 0 m-1 0 q-9 0 -9 -10 l0 -24 q0 -10 10 -10 m98 44 l20 0 m-20 0 q10 0 10 -10 l0 -24 q0 -10 -10 -10 m-98 0 h10 m24 0 h10 m0 0 h54 m20 44 h10 m26 0 h10 m-250 0 h20 m230 0 h20 m-270 0 q10 0 10 10 m250 0 q0 -10 10 -10 m-260 10 v14 m250 0 v-14 m-250 14 q0 10 10 10 m230 0 q10 0 10 -10 m-240 10 h10 m0 0 h220 m22 -34 l2 0 m2 0 l2 0 m2 0 l2 0 m-361 66 l2 0 m2 0 l2 0 m2 0 l2 0 m22 0 h10 m0 0 h242 m-272 0 h20 m252 0 h20 m-292 0 q10 0 10 10 m272 0 q0 -10 10 -10 m-282 10 v12 m272 0 v-12 m-272 12 q0 10 10 10 m252 0 q10 0 10 -10 m-262 10 h10 m104 0 h10 m0 0 h10 m108 0 h10 m22 -32 l2 0 m2 0 l2 0 m2 0 l2 0 m-449 142 l2 0 m2 0 l2 0 m2 0 l2 0 m22 0 h10 m58 0 h10 m0 0 h10 m26 0 h10 m40 0 h10 m150 0 h10 m0 0 h10 m78 0 h10 m-288 0 l20 0 m-1 0 q-9 0 -9 -10 l0 -24 q0 -10 10 -10 m268 44 l20 0 m-20 0 q10 0 10 -10 l0 -24 q0 -10 -10 -10 m-268 0 h10 m24 0 h10 m0 0 h224 m-308 44 h20 m308 0 h20 m-348 0 q10 0 10 10 m328 0 q0 -10 10 -10 m-338 10 v14 m328 0 v-14 m-328 14 q0 10 10 10 m308 0 q10 0 10 -10 m-318 10 h10 m0 0 h298 m20 -34 h10 m26 0 h10 m-538 0 h20 m518 0 h20 m-558 0 q10 0 10 10 m538 0 q0 -10 10 -10 m-548 10 v30 m538 0 v-30 m-538 30 q0 10 10 10 m518 0 q10 0 10 -10 m-528 10 h10 m0 0 h508 m22 -50 l2 0 m2 0 l2 0 m2 0 l2 0 m-206 98 l2 0 m2 0 l2 0 m2 0 l2 0 m2 0 h10 m40 0 h10 m0 0 h10 m96 0 h10 m3 0 h-3"/>
   <polygon points="575 509 583 505 583 513"/>
   <polygon points="575 509 567 505 567 513"/>
</svg>
