<svg xmlns="http://www.w3.org/2000/svg" width="603" height="347">
   <polygon points="9 17 1 13 1 21"/>
   <polygon points="17 17 9 13 9 21"/>
   <rect x="31" y="3" width="74" height="32" rx="10"/>
   <rect x="29"
         y="1"
         width="74"
         height="32"
         class="terminal"
         rx="10"/>
   <text class="terminal" x="39" y="21">CREATE</text>
   <rect x="145" y="35" width="120" height="32" rx="10"/>
   <rect x="143"
         y="33"
         width="120"
         height="32"
         class="terminal"
         rx="10"/>
   <text class="terminal" x="153" y="53">MATERIALIZED</text>
   <rect x="305" y="3" width="78" height="32" rx="10"/>
   <rect x="303"
         y="1"
         width="78"
         height="32"
         class="terminal"
         rx="10"/>
   <text class="terminal" x="313" y="21">SOURCE</text>
   <rect x="423" y="35" width="118" height="32" rx="10"/>
   <rect x="421"
         y="33"
         width="118"
         height="32"
         class="terminal"
         rx="10"/>
   <text class="terminal" x="431" y="53">IF NOT EXISTS</text>
   <rect x="40" y="145" width="80" height="32"/>
   <rect x="38" y="143" width="80" height="32" class="nonterminal"/>
   <text class="nonterminal" x="48" y="163">src_name</text>
   <rect x="160" y="145" width="24" height="32" rx="10"/>
   <rect x="158"
         y="143"
         width="24"
         height="32"
         class="terminal"
         rx="10"/>
   <text class="terminal" x="168" y="163">(</text>
   <rect x="224" y="145" width="80" height="32"/>
   <rect x="222" y="143" width="80" height="32" class="nonterminal"/>
   <text class="nonterminal" x="232" y="163">col_name</text>
   <rect x="224" y="101" width="24" height="32" rx="10"/>
   <rect x="222"
         y="99"
         width="24"
         height="32"
         class="terminal"
         rx="10"/>
   <text class="terminal" x="232" y="119">,</text>
   <rect x="344" y="145" width="24" height="32" rx="10"/>
   <rect x="342"
         y="143"
         width="24"
         height="32"
         class="terminal"
         rx="10"/>
   <text class="terminal" x="352" y="163">)</text>
   <rect x="408" y="145" width="60" height="32" rx="10"/>
   <rect x="406"
         y="143"
         width="60"
         height="32"
         class="terminal"
         rx="10"/>
   <text class="terminal" x="416" y="163">FROM</text>
   <rect x="488" y="145" width="78" height="32" rx="10"/>
   <rect x="486"
         y="143"
         width="78"
         height="32"
         class="terminal"
         rx="10"/>
   <text class="terminal" x="496" y="163">PUBNUB</text>
   <rect x="25" y="227" width="130" height="32" rx="10"/>
   <rect x="23"
         y="225"
         width="130"
         height="32"
         class="terminal"
         rx="10"/>
   <text class="terminal" x="33" y="245">SUBSCRIBE KEY</text>
   <rect x="175" y="227" width="40" height="32"/>
   <rect x="173" y="225" width="40" height="32" class="nonterminal"/>
   <text class="nonterminal" x="183" y="245">key</text>
   <rect x="235" y="227" width="86" height="32" rx="10"/>
   <rect x="233"
         y="225"
         width="86"
         height="32"
         class="terminal"
         rx="10"/>
   <text class="terminal" x="243" y="245">CHANNEL</text>
   <rect x="341" y="227" width="68" height="32"/>
   <rect x="339" y="225" width="68" height="32" class="nonterminal"/>
   <text class="nonterminal" x="349" y="245">channel</text>
   <rect x="429" y="227" width="78" height="32" rx="10"/>
   <rect x="427"
         y="225"
         width="78"
         height="32"
         class="terminal"
         rx="10"/>
   <text class="terminal" x="437" y="245">FORMAT</text>
   <rect x="527" y="227" width="54" height="32" rx="10"/>
   <rect x="525"
         y="225"
         width="54"
         height="32"
         class="terminal"
         rx="10"/>
   <text class="terminal" x="535" y="245">TEXT</text>
   <rect x="383" y="313" width="92" height="32" rx="10"/>
   <rect x="381"
         y="311"
         width="92"
         height="32"
         class="terminal"
         rx="10"/>
   <text class="terminal" x="391" y="331">ENVELOPE</text>
   <rect x="495" y="313" width="60" height="32" rx="10"/>
   <rect x="493"
         y="311"
         width="60"
         height="32"
         class="terminal"
         rx="10"/>
   <text class="terminal" x="503" y="331">NONE</text>
   <path class="line"
         d="m17 17 h2 m0 0 h10 m74 0 h10 m20 0 h10 m0 0 h130 m-160 0 h20 m140 0 h20 m-180 0 q10 0 10 10 m160 0 q0 -10 10 -10 m-170 10 v12 m160 0 v-12 m-160 12 q0 10 10 10 m140 0 q10 0 10 -10 m-150 10 h10 m120 0 h10 m20 -32 h10 m78 0 h10 m20 0 h10 m0 0 h128 m-158 0 h20 m138 0 h20 m-178 0 q10 0 10 10 m158 0 q0 -10 10 -10 m-168 10 v12 m158 0 v-12 m-158 12 q0 10 10 10 m138 0 q10 0 10 -10 m-148 10 h10 m118 0 h10 m22 -32 l2 0 m2 0 l2 0 m2 0 l2 0 m-565 142 l2 0 m2 0 l2 0 m2 0 l2 0 m2 0 h10 m80 0 h10 m20 0 h10 m24 0 h10 m20 0 h10 m80 0 h10 m-120 0 l20 0 m-1 0 q-9 0 -9 -10 l0 -24 q0 -10 10 -10 m100 44 l20 0 m-20 0 q10 0 10 -10 l0 -24 q0 -10 -10 -10 m-100 0 h10 m24 0 h10 m0 0 h56 m20 44 h10 m24 0 h10 m-248 0 h20 m228 0 h20 m-268 0 q10 0 10 10 m248 0 q0 -10 10 -10 m-258 10 v14 m248 0 v-14 m-248 14 q0 10 10 10 m228 0 q10 0 10 -10 m-238 10 h10 m0 0 h218 m20 -34 h10 m60 0 h10 m0 0 h10 m78 0 h10 m2 0 l2 0 m2 0 l2 0 m2 0 l2 0 m-585 82 l2 0 m2 0 l2 0 m2 0 l2 0 m2 0 h10 m130 0 h10 m0 0 h10 m40 0 h10 m0 0 h10 m86 0 h10 m0 0 h10 m68 0 h10 m0 0 h10 m78 0 h10 m0 0 h10 m54 0 h10 m2 0 l2 0 m2 0 l2 0 m2 0 l2 0 m-262 54 l2 0 m2 0 l2 0 m2 0 l2 0 m22 0 h10 m0 0 h182 m-212 0 h20 m192 0 h20 m-232 0 q10 0 10 10 m212 0 q0 -10 10 -10 m-222 10 v12 m212 0 v-12 m-212 12 q0 10 10 10 m192 0 q10 0 10 -10 m-202 10 h10 m92 0 h10 m0 0 h10 m60 0 h10 m23 -32 h-3"/>
   <polygon points="593 295 601 291 601 299"/>
   <polygon points="593 295 585 291 585 299"/>
</svg>
