<svg xmlns="http://www.w3.org/2000/svg" width="583" height="485">
   <polygon points="9 17 1 13 1 21"/>
   <polygon points="17 17 9 13 9 21"/>
   <rect x="31" y="3" width="74" height="32" rx="10"/>
   <rect x="29"
         y="1"
         width="74"
         height="32"
         class="terminal"
         rx="10"/>
   <text class="terminal" x="39" y="21">CREATE</text>
   <rect x="145" y="35" width="120" height="32" rx="10"/>
   <rect x="143"
         y="33"
         width="120"
         height="32"
         class="terminal"
         rx="10"/>
   <text class="terminal" x="153" y="53">MATERIALIZED</text>
   <rect x="305" y="3" width="78" height="32" rx="10"/>
   <rect x="303"
         y="1"
         width="78"
         height="32"
         class="terminal"
         rx="10"/>
   <text class="terminal" x="313" y="21">SOURCE</text>
   <rect x="423" y="35" width="118" height="32" rx="10"/>
   <rect x="421"
         y="33"
         width="118"
         height="32"
         class="terminal"
         rx="10"/>
   <text class="terminal" x="431" y="53">IF NOT EXISTS</text>
   <rect x="145" y="101" width="80" height="32"/>
   <rect x="143" y="99" width="80" height="32" class="nonterminal"/>
   <text class="nonterminal" x="153" y="119">src_name</text>
   <rect x="245" y="101" width="196" height="32" rx="10"/>
   <rect x="243"
         y="99"
         width="196"
         height="32"
         class="terminal"
         rx="10"/>
   <text class="terminal" x="253" y="119">FROM S3 OBJECTS FROM </text>
   <rect x="54" y="211" width="118" height="32" rx="10"/>
   <rect x="52"
         y="209"
         width="118"
         height="32"
         class="terminal"
         rx="10"/>
   <text class="terminal" x="62" y="229">SCAN BUCKET</text>
   <rect x="192" y="211" width="102" height="32"/>
   <rect x="190" y="209" width="102" height="32" class="nonterminal"/>
   <text class="nonterminal" x="200" y="229">bucket_name</text>
   <rect x="54" y="167" width="24" height="32" rx="10"/>
   <rect x="52"
         y="165"
         width="24"
         height="32"
         class="terminal"
         rx="10"/>
   <text class="terminal" x="62" y="185">,</text>
   <rect x="354" y="243" width="94" height="32" rx="10"/>
   <rect x="352"
         y="241"
         width="94"
         height="32"
         class="terminal"
         rx="10"/>
   <text class="terminal" x="362" y="261">MATCHING</text>
   <rect x="468" y="243" width="64" height="32"/>
   <rect x="466" y="241" width="64" height="32" class="nonterminal"/>
   <text class="nonterminal" x="476" y="261">pattern</text>
   <rect x="48" y="309" width="56" height="32" rx="10"/>
   <rect x="46"
         y="307"
         width="56"
         height="32"
         class="terminal"
         rx="10"/>
   <text class="terminal" x="56" y="327">WITH</text>
   <rect x="124" y="309" width="24" height="32" rx="10"/>
   <rect x="122"
         y="307"
         width="24"
         height="32"
         class="terminal"
         rx="10"/>
   <text class="terminal" x="132" y="327">(</text>
   <rect x="168" y="309" width="70" height="32" rx="10"/>
   <rect x="166"
         y="307"
         width="70"
         height="32"
         class="terminal"
         rx="10"/>
   <text class="terminal" x="176" y="327">region =</text>
   <rect x="258" y="309" width="58" height="32"/>
   <rect x="256" y="307" width="58" height="32" class="nonterminal"/>
   <text class="nonterminal" x="266" y="327">region</text>
   <rect x="356" y="341" width="118" height="32"/>
   <rect x="354" y="339" width="118" height="32" class="nonterminal"/>
   <text class="nonterminal" x="364" y="359">aws_credentials</text>
   <rect x="514" y="309" width="24" height="32" rx="10"/>
   <rect x="512"
         y="307"
         width="24"
         height="32"
         class="terminal"
         rx="10"/>
   <text class="terminal" x="522" y="327">)</text>
   <rect x="353" y="407" width="78" height="32" rx="10"/>
   <rect x="351"
         y="405"
         width="78"
         height="32"
         class="terminal"
         rx="10"/>
   <text class="terminal" x="361" y="425">FORMAT</text>
   <rect x="471" y="407" width="54" height="32" rx="10"/>
   <rect x="469"
         y="405"
         width="54"
         height="32"
         class="terminal"
         rx="10"/>
   <text class="terminal" x="479" y="425">TEXT</text>
   <rect x="471" y="451" width="64" height="32" rx="10"/>
   <rect x="469"
         y="449"
         width="64"
         height="32"
         class="terminal"
         rx="10"/>
   <text class="terminal" x="479" y="469">BYTES</text>
   <path class="line"
         d="m17 17 h2 m0 0 h10 m74 0 h10 m20 0 h10 m0 0 h130 m-160 0 h20 m140 0 h20 m-180 0 q10 0 10 10 m160 0 q0 -10 10 -10 m-170 10 v12 m160 0 v-12 m-160 12 q0 10 10 10 m140 0 q10 0 10 -10 m-150 10 h10 m120 0 h10 m20 -32 h10 m78 0 h10 m20 0 h10 m0 0 h128 m-158 0 h20 m138 0 h20 m-178 0 q10 0 10 10 m158 0 q0 -10 10 -10 m-168 10 v12 m158 0 v-12 m-158 12 q0 10 10 10 m138 0 q10 0 10 -10 m-148 10 h10 m118 0 h10 m22 -32 l2 0 m2 0 l2 0 m2 0 l2 0 m-460 98 l2 0 m2 0 l2 0 m2 0 l2 0 m2 0 h10 m80 0 h10 m0 0 h10 m196 0 h10 m2 0 l2 0 m2 0 l2 0 m2 0 l2 0 m-451 110 l2 0 m2 0 l2 0 m2 0 l2 0 m22 0 h10 m118 0 h10 m0 0 h10 m102 0 h10 m-280 0 l20 0 m-1 0 q-9 0 -9 -10 l0 -24 q0 -10 10 -10 m260 44 l20 0 m-20 0 q10 0 10 -10 l0 -24 q0 -10 -10 -10 m-260 0 h10 m24 0 h10 m0 0 h216 m40 44 h10 m0 0 h188 m-218 0 h20 m198 0 h20 m-238 0 q10 0 10 10 m218 0 q0 -10 10 -10 m-228 10 v12 m218 0 v-12 m-218 12 q0 10 10 10 m198 0 q10 0 10 -10 m-208 10 h10 m94 0 h10 m0 0 h10 m64 0 h10 m22 -32 l2 0 m2 0 l2 0 m2 0 l2 0 m-548 98 l2 0 m2 0 l2 0 m2 0 l2 0 m2 0 h10 m56 0 h10 m0 0 h10 m24 0 h10 m0 0 h10 m70 0 h10 m0 0 h10 m58 0 h10 m20 0 h10 m0 0 h128 m-158 0 h20 m138 0 h20 m-178 0 q10 0 10 10 m158 0 q0 -10 10 -10 m-168 10 v12 m158 0 v-12 m-158 12 q0 10 10 10 m138 0 q10 0 10 -10 m-148 10 h10 m118 0 h10 m20 -32 h10 m24 0 h10 m2 0 l2 0 m2 0 l2 0 m2 0 l2 0 m-229 98 l2 0 m2 0 l2 0 m2 0 l2 0 m2 0 h10 m78 0 h10 m20 0 h10 m54 0 h10 m0 0 h10 m-104 0 h20 m84 0 h20 m-124 0 q10 0 10 10 m104 0 q0 -10 10 -10 m-114 10 v24 m104 0 v-24 m-104 24 q0 10 10 10 m84 0 q10 0 10 -10 m-94 10 h10 m64 0 h10 m23 -44 h-3"/>
   <polygon points="573 421 581 417 581 425"/>
   <polygon points="573 421 565 417 565 425"/>
</svg>
