<svg xmlns="http://www.w3.org/2000/svg" width="597" height="843">
   <polygon points="9 17 1 13 1 21"/>
   <polygon points="17 17 9 13 9 21"/>
   <rect x="31" y="3" width="74" height="32" rx="10"/>
   <rect x="29"
         y="1"
         width="74"
         height="32"
         class="terminal"
         rx="10"/>
   <text class="terminal" x="39" y="21">CREATE</text>
   <rect x="145" y="35" width="120" height="32" rx="10"/>
   <rect x="143"
         y="33"
         width="120"
         height="32"
         class="terminal"
         rx="10"/>
   <text class="terminal" x="153" y="53">MATERIALIZED</text>
   <rect x="305" y="3" width="78" height="32" rx="10"/>
   <rect x="303"
         y="1"
         width="78"
         height="32"
         class="terminal"
         rx="10"/>
   <text class="terminal" x="313" y="21">SOURCE</text>
   <rect x="423" y="35" width="118" height="32" rx="10"/>
   <rect x="421"
         y="33"
         width="118"
         height="32"
         class="terminal"
         rx="10"/>
   <text class="terminal" x="431" y="53">IF NOT EXISTS</text>
   <rect x="260" y="101" width="80" height="32"/>
   <rect x="258" y="99" width="80" height="32" class="nonterminal"/>
   <text class="nonterminal" x="268" y="119">src_name</text>
   <rect x="49" y="211" width="24" height="32" rx="10"/>
   <rect x="47"
         y="209"
         width="24"
         height="32"
         class="terminal"
         rx="10"/>
   <text class="terminal" x="57" y="229">(</text>
   <rect x="113" y="211" width="80" height="32"/>
   <rect x="111" y="209" width="80" height="32" class="nonterminal"/>
   <text class="nonterminal" x="121" y="229">col_name</text>
   <rect x="113" y="167" width="24" height="32" rx="10"/>
   <rect x="111"
         y="165"
         width="24"
         height="32"
         class="terminal"
         rx="10"/>
   <text class="terminal" x="121" y="185">,</text>
   <rect x="253" y="243" width="24" height="32" rx="10"/>
   <rect x="251"
         y="241"
         width="24"
         height="32"
         class="terminal"
         rx="10"/>
   <text class="terminal" x="261" y="261">,</text>
   <rect x="297" y="243" width="110" height="32"/>
   <rect x="295" y="241" width="110" height="32" class="nonterminal"/>
   <text class="nonterminal" x="305" y="261">key_constraint</text>
   <rect x="447" y="211" width="24" height="32" rx="10"/>
   <rect x="445"
         y="209"
         width="24"
         height="32"
         class="terminal"
         rx="10"/>
   <text class="terminal" x="455" y="229">)</text>
   <rect x="511" y="211" width="60" height="32" rx="10"/>
   <rect x="509"
         y="209"
         width="60"
         height="32"
         class="terminal"
         rx="10"/>
   <text class="terminal" x="519" y="229">FROM</text>
   <rect x="108" y="325" width="126" height="32" rx="10"/>
   <rect x="106"
         y="323"
         width="126"
         height="32"
         class="terminal"
         rx="10"/>
   <text class="terminal" x="116" y="343">KAFKA BROKER</text>
   <rect x="254" y="325" width="46" height="32"/>
   <rect x="252" y="323" width="46" height="32" class="nonterminal"/>
   <text class="nonterminal" x="262" y="343">host</text>
   <rect x="320" y="325" width="62" height="32" rx="10"/>
   <rect x="318"
         y="323"
         width="62"
         height="32"
         class="terminal"
         rx="10"/>
   <text class="terminal" x="328" y="343">TOPIC</text>
   <rect x="422" y="357" width="50" height="32"/>
   <rect x="420" y="355" width="50" height="32" class="nonterminal"/>
   <text class="nonterminal" x="430" y="375">topic</text>
   <rect x="123" y="467" width="56" height="32" rx="10"/>
   <rect x="121"
         y="465"
         width="56"
         height="32"
         class="terminal"
         rx="10"/>
   <text class="terminal" x="131" y="485">WITH</text>
   <rect x="199" y="467" width="24" height="32" rx="10"/>
   <rect x="197"
         y="465"
         width="24"
         height="32"
         class="terminal"
         rx="10"/>
   <text class="terminal" x="207" y="485">(</text>
   <rect x="263" y="467" width="46" height="32"/>
   <rect x="261" y="465" width="46" height="32" class="nonterminal"/>
   <text class="nonterminal" x="271" y="485">field</text>
   <rect x="329" y="467" width="26" height="32" rx="10"/>
   <rect x="327"
         y="465"
         width="26"
         height="32"
         class="terminal"
         rx="10"/>
   <text class="terminal" x="337" y="485">=</text>
   <rect x="375" y="467" width="38" height="32"/>
   <rect x="373" y="465" width="38" height="32" class="nonterminal"/>
   <text class="nonterminal" x="383" y="485">val</text>
   <rect x="263" y="423" width="24" height="32" rx="10"/>
   <rect x="261"
         y="421"
         width="24"
         height="32"
         class="terminal"
         rx="10"/>
   <text class="terminal" x="271" y="441">,</text>
   <rect x="453" y="467" width="24" height="32" rx="10"/>
   <rect x="451"
         y="465"
         width="24"
         height="32"
         class="terminal"
         rx="10"/>
   <text class="terminal" x="461" y="485">)</text>
   <rect x="61" y="549" width="108" height="32" rx="10"/>
   <rect x="59"
         y="547"
         width="108"
         height="32"
         class="terminal"
         rx="10"/>
   <text class="terminal" x="69" y="567">KEY FORMAT</text>
   <rect x="189" y="549" width="96" height="32"/>
   <rect x="187" y="547" width="96" height="32" class="nonterminal"/>
   <text class="nonterminal" x="197" y="567">format_spec</text>
   <rect x="305" y="549" width="126" height="32" rx="10"/>
   <rect x="303"
         y="547"
         width="126"
         height="32"
         class="terminal"
         rx="10"/>
   <text class="terminal" x="313" y="567">VALUE FORMAT</text>
   <rect x="61" y="593" width="78" height="32" rx="10"/>
   <rect x="59"
         y="591"
         width="78"
         height="32"
         class="terminal"
         rx="10"/>
   <text class="terminal" x="69" y="611">FORMAT</text>
   <rect x="471" y="549" width="88" height="32" rx="10"/>
   <rect x="469"
         y="547"
         width="88"
         height="32"
         class="terminal"
         rx="10"/>
   <text class="terminal" x="479" y="567">CSV WITH</text>
   <rect x="45" y="659" width="76" height="32" rx="10"/>
   <rect x="43"
         y="657"
         width="76"
         height="32"
         class="terminal"
         rx="10"/>
   <text class="terminal" x="53" y="677">HEADER</text>
   <rect x="45" y="703" width="28" height="32"/>
   <rect x="43" y="701" width="28" height="32" class="nonterminal"/>
   <text class="nonterminal" x="53" y="721">n</text>
   <rect x="93" y="703" width="90" height="32" rx="10"/>
   <rect x="91"
         y="701"
         width="90"
         height="32"
         class="terminal"
         rx="10"/>
   <text class="terminal" x="101" y="721">COLUMNS</text>
   <rect x="243" y="691" width="112" height="32" rx="10"/>
   <rect x="241"
         y="689"
         width="112"
         height="32"
         class="terminal"
         rx="10"/>
   <text class="terminal" x="251" y="709">INCLUDE KEY</text>
   <rect x="395" y="723" width="38" height="32" rx="10"/>
   <rect x="393"
         y="721"
         width="38"
         height="32"
         class="terminal"
         rx="10"/>
   <text class="terminal" x="403" y="741">AS</text>
   <rect x="453" y="723" width="82" height="32"/>
   <rect x="451" y="721" width="82" height="32" class="nonterminal"/>
   <text class="nonterminal" x="461" y="741">key_name</text>
   <rect x="367" y="809" width="116" height="32" rx="10"/>
   <rect x="365"
         y="807"
         width="116"
         height="32"
         class="terminal"
         rx="10"/>
   <text class="terminal" x="375" y="827">DELIMITED BY</text>
   <rect x="503" y="809" width="46" height="32"/>
   <rect x="501" y="807" width="46" height="32" class="nonterminal"/>
   <text class="nonterminal" x="511" y="827">char</text>
   <path class="line"
         d="m17 17 h2 m0 0 h10 m74 0 h10 m20 0 h10 m0 0 h130 m-160 0 h20 m140 0 h20 m-180 0 q10 0 10 10 m160 0 q0 -10 10 -10 m-170 10 v12 m160 0 v-12 m-160 12 q0 10 10 10 m140 0 q10 0 10 -10 m-150 10 h10 m120 0 h10 m20 -32 h10 m78 0 h10 m20 0 h10 m0 0 h128 m-158 0 h20 m138 0 h20 m-178 0 q10 0 10 10 m158 0 q0 -10 10 -10 m-168 10 v12 m158 0 v-12 m-158 12 q0 10 10 10 m138 0 q10 0 10 -10 m-148 10 h10 m118 0 h10 m22 -32 l2 0 m2 0 l2 0 m2 0 l2 0 m-345 98 l2 0 m2 0 l2 0 m2 0 l2 0 m2 0 h10 m80 0 h10 m2 0 l2 0 m2 0 l2 0 m2 0 l2 0 m-355 110 l2 0 m2 0 l2 0 m2 0 l2 0 m22 0 h10 m24 0 h10 m20 0 h10 m80 0 h10 m-120 0 l20 0 m-1 0 q-9 0 -9 -10 l0 -24 q0 -10 10 -10 m100 44 l20 0 m-20 0 q10 0 10 -10 l0 -24 q0 -10 -10 -10 m-100 0 h10 m24 0 h10 m0 0 h56 m40 44 h10 m0 0 h164 m-194 0 h20 m174 0 h20 m-214 0 q10 0 10 10 m194 0 q0 -10 10 -10 m-204 10 v12 m194 0 v-12 m-194 12 q0 10 10 10 m174 0 q10 0 10 -10 m-184 10 h10 m24 0 h10 m0 0 h10 m110 0 h10 m20 -32 h10 m24 0 h10 m-462 0 h20 m442 0 h20 m-482 0 q10 0 10 10 m462 0 q0 -10 10 -10 m-472 10 v46 m462 0 v-46 m-462 46 q0 10 10 10 m442 0 q10 0 10 -10 m-452 10 h10 m0 0 h432 m20 -66 h10 m60 0 h10 m2 0 l2 0 m2 0 l2 0 m2 0 l2 0 m-507 114 l2 0 m2 0 l2 0 m2 0 l2 0 m2 0 h10 m126 0 h10 m0 0 h10 m46 0 h10 m0 0 h10 m62 0 h10 m20 0 h10 m0 0 h60 m-90 0 h20 m70 0 h20 m-110 0 q10 0 10 10 m90 0 q0 -10 10 -10 m-100 10 v12 m90 0 v-12 m-90 12 q0 10 10 10 m70 0 q10 0 10 -10 m-80 10 h10 m50 0 h10 m22 -32 l2 0 m2 0 l2 0 m2 0 l2 0 m-433 142 l2 0 m2 0 l2 0 m2 0 l2 0 m22 0 h10 m56 0 h10 m0 0 h10 m24 0 h10 m20 0 h10 m46 0 h10 m0 0 h10 m26 0 h10 m0 0 h10 m38 0 h10 m-190 0 l20 0 m-1 0 q-9 0 -9 -10 l0 -24 q0 -10 10 -10 m170 44 l20 0 m-20 0 q10 0 10 -10 l0 -24 q0 -10 -10 -10 m-170 0 h10 m24 0 h10 m0 0 h126 m20 44 h10 m24 0 h10 m-394 0 h20 m374 0 h20 m-414 0 q10 0 10 10 m394 0 q0 -10 10 -10 m-404 10 v14 m394 0 v-14 m-394 14 q0 10 10 10 m374 0 q10 0 10 -10 m-384 10 h10 m0 0 h364 m22 -34 l2 0 m2 0 l2 0 m2 0 l2 0 m-500 82 l2 0 m2 0 l2 0 m2 0 l2 0 m22 0 h10 m108 0 h10 m0 0 h10 m96 0 h10 m0 0 h10 m126 0 h10 m-410 0 h20 m390 0 h20 m-430 0 q10 0 10 10 m410 0 q0 -10 10 -10 m-420 10 v24 m410 0 v-24 m-410 24 q0 10 10 10 m390 0 q10 0 10 -10 m-400 10 h10 m78 0 h10 m0 0 h292 m20 -44 h10 m88 0 h10 m2 0 l2 0 m2 0 l2 0 m2 0 l2 0 m-578 110 l2 0 m2 0 l2 0 m2 0 l2 0 m22 0 h10 m76 0 h10 m0 0 h62 m-178 0 h20 m158 0 h20 m-198 0 q10 0 10 10 m178 0 q0 -10 10 -10 m-188 10 v24 m178 0 v-24 m-178 24 q0 10 10 10 m158 0 q10 0 10 -10 m-168 10 h10 m28 0 h10 m0 0 h10 m90 0 h10 m40 -44 h10 m0 0 h322 m-352 0 h20 m332 0 h20 m-372 0 q10 0 10 10 m352 0 q0 -10 10 -10 m-362 10 v12 m352 0 v-12 m-352 12 q0 10 10 10 m332 0 q10 0 10 -10 m-342 10 h10 m112 0 h10 m20 0 h10 m0 0 h150 m-180 0 h20 m160 0 h20 m-200 0 q10 0 10 10 m180 0 q0 -10 10 -10 m-190 10 v12 m180 0 v-12 m-180 12 q0 10 10 10 m160 0 q10 0 10 -10 m-170 10 h10 m38 0 h10 m0 0 h10 m82 0 h10 m42 -64 l2 0 m2 0 l2 0 m2 0 l2 0 m-272 118 l2 0 m2 0 l2 0 m2 0 l2 0 m22 0 h10 m0 0 h192 m-222 0 h20 m202 0 h20 m-242 0 q10 0 10 10 m222 0 q0 -10 10 -10 m-232 10 v12 m222 0 v-12 m-222 12 q0 10 10 10 m202 0 q10 0 10 -10 m-212 10 h10 m116 0 h10 m0 0 h10 m46 0 h10 m23 -32 h-3"/>
   <polygon points="587 791 595 787 595 795"/>
   <polygon points="587 791 579 787 579 795"/>
</svg>
