<svg xmlns="http://www.w3.org/2000/svg" width="541" height="69">
   <polygon points="9 17 1 13 1 21"/>
   <polygon points="17 17 9 13 9 21"/>
   <rect x="31" y="3" width="74" height="32" rx="10"/>
   <rect x="29"
         y="1"
         width="74"
         height="32"
         class="terminal"
         rx="10"/>
   <text class="terminal" x="39" y="21">CREATE</text>
   <rect x="125" y="3" width="80" height="32" rx="10"/>
   <rect x="123"
         y="1"
         width="80"
         height="32"
         class="terminal"
         rx="10"/>
   <text class="terminal" x="133" y="21">SCHEMA</text>
   <rect x="245" y="35" width="118" height="32" rx="10"/>
   <rect x="243"
         y="33"
         width="118"
         height="32"
         class="terminal"
         rx="10"/>
   <text class="terminal" x="253" y="53">IF NOT EXISTS</text>
   <rect x="403" y="3" width="110" height="32"/>
   <rect x="401" y="1" width="110" height="32" class="nonterminal"/>
   <text class="nonterminal" x="411" y="21">schema_name</text>
   <path class="line"
         d="m17 17 h2 m0 0 h10 m74 0 h10 m0 0 h10 m80 0 h10 m20 0 h10 m0 0 h128 m-158 0 h20 m138 0 h20 m-178 0 q10 0 10 10 m158 0 q0 -10 10 -10 m-168 10 v12 m158 0 v-12 m-158 12 q0 10 10 10 m138 0 q10 0 10 -10 m-148 10 h10 m118 0 h10 m20 -32 h10 m110 0 h10 m3 0 h-3"/>
   <polygon points="531 17 539 13 539 21"/>
   <polygon points="531 17 523 13 523 21"/>
</svg>
