<svg xmlns="http://www.w3.org/2000/svg" width="543" height="359">
   <polygon points="9 17 1 13 1 21"/>
   <polygon points="17 17 9 13 9 21"/>
   <rect x="31" y="3" width="140" height="32" rx="10"/>
   <rect x="29"
         y="1"
         width="140"
         height="32"
         class="terminal"
         rx="10"/>
   <text class="terminal" x="39" y="21">CREATE SOURCE</text>
   <rect x="211" y="35" width="120" height="32" rx="10"/>
   <rect x="209"
         y="33"
         width="120"
         height="32"
         class="terminal"
         rx="10"/>
   <text class="terminal" x="219" y="53">IF NOT EXISTS</text>
   <rect x="371" y="3" width="82" height="32"/>
   <rect x="369" y="1" width="82" height="32" class="nonterminal"/>
   <text class="nonterminal" x="379" y="21">src_name</text>
   <rect x="77" y="145" width="26" height="32" rx="10"/>
   <rect x="75"
         y="143"
         width="26"
         height="32"
         class="terminal"
         rx="10"/>
   <text class="terminal" x="85" y="163">(</text>
   <rect x="143" y="145" width="82" height="32"/>
   <rect x="141" y="143" width="82" height="32" class="nonterminal"/>
   <text class="nonterminal" x="151" y="163">col_name</text>
   <rect x="143" y="101" width="24" height="32" rx="10"/>
   <rect x="141"
         y="99"
         width="24"
         height="32"
         class="terminal"
         rx="10"/>
   <text class="terminal" x="151" y="119">,</text>
   <rect x="265" y="145" width="26" height="32" rx="10"/>
   <rect x="263"
         y="143"
         width="26"
         height="32"
         class="terminal"
         rx="10"/>
   <text class="terminal" x="273" y="163">)</text>
   <rect x="331" y="145" width="60" height="32" rx="10"/>
   <rect x="329"
         y="143"
         width="60"
         height="32"
         class="terminal"
         rx="10"/>
   <text class="terminal" x="339" y="163">FROM</text>
   <rect x="411" y="145" width="78" height="32" rx="10"/>
   <rect x="409"
         y="143"
         width="78"
         height="32"
         class="terminal"
         rx="10"/>
   <text class="terminal" x="419" y="163">PUBNUB</text>
   <rect x="25" y="227" width="132" height="32" rx="10"/>
   <rect x="23"
         y="225"
         width="132"
         height="32"
         class="terminal"
         rx="10"/>
   <text class="terminal" x="33" y="245">SUBSCRIBE KEY</text>
   <rect x="177" y="227" width="44" height="32"/>
   <rect x="175" y="225" width="44" height="32" class="nonterminal"/>
   <text class="nonterminal" x="185" y="245">key</text>
   <rect x="241" y="227" width="88" height="32" rx="10"/>
   <rect x="239"
         y="225"
         width="88"
         height="32"
         class="terminal"
         rx="10"/>
   <text class="terminal" x="249" y="245">CHANNEL</text>
   <rect x="349" y="227" width="72" height="32"/>
   <rect x="347" y="225" width="72" height="32" class="nonterminal"/>
   <text class="nonterminal" x="357" y="245">channel</text>
   <rect x="441" y="227" width="80" height="32" rx="10"/>
   <rect x="439"
         y="225"
         width="80"
         height="32"
         class="terminal"
         rx="10"/>
   <text class="terminal" x="449" y="245">FORMAT</text>
   <rect x="225" y="293" width="56" height="32" rx="10"/>
   <rect x="223"
         y="291"
         width="56"
         height="32"
         class="terminal"
         rx="10"/>
   <text class="terminal" x="233" y="311">TEXT</text>
   <rect x="321" y="325" width="94" height="32" rx="10"/>
   <rect x="319"
         y="323"
         width="94"
         height="32"
         class="terminal"
         rx="10"/>
   <text class="terminal" x="329" y="343">ENVELOPE</text>
   <rect x="435" y="325" width="60" height="32" rx="10"/>
   <rect x="433"
         y="323"
         width="60"
         height="32"
         class="terminal"
         rx="10"/>
   <text class="terminal" x="443" y="343">NONE</text>
   <path class="line"
         d="m17 17 h2 m0 0 h10 m140 0 h10 m20 0 h10 m0 0 h130 m-160 0 h20 m140 0 h20 m-180 0 q10 0 10 10 m160 0 q0 -10 10 -10 m-170 10 v12 m160 0 v-12 m-160 12 q0 10 10 10 m140 0 q10 0 10 -10 m-150 10 h10 m120 0 h10 m20 -32 h10 m82 0 h10 m2 0 l2 0 m2 0 l2 0 m2 0 l2 0 m-440 142 l2 0 m2 0 l2 0 m2 0 l2 0 m22 0 h10 m26 0 h10 m20 0 h10 m82 0 h10 m-122 0 l20 0 m-1 0 q-9 0 -9 -10 l0 -24 q0 -10 10 -10 m102 44 l20 0 m-20 0 q10 0 10 -10 l0 -24 q0 -10 -10 -10 m-102 0 h10 m24 0 h10 m0 0 h58 m20 44 h10 m26 0 h10 m-254 0 h20 m234 0 h20 m-274 0 q10 0 10 10 m254 0 q0 -10 10 -10 m-264 10 v14 m254 0 v-14 m-254 14 q0 10 10 10 m234 0 q10 0 10 -10 m-244 10 h10 m0 0 h224 m20 -34 h10 m60 0 h10 m0 0 h10 m78 0 h10 m2 0 l2 0 m2 0 l2 0 m2 0 l2 0 m-508 82 l2 0 m2 0 l2 0 m2 0 l2 0 m2 0 h10 m132 0 h10 m0 0 h10 m44 0 h10 m0 0 h10 m88 0 h10 m0 0 h10 m72 0 h10 m0 0 h10 m80 0 h10 m2 0 l2 0 m2 0 l2 0 m2 0 l2 0 m-340 66 l2 0 m2 0 l2 0 m2 0 l2 0 m2 0 h10 m56 0 h10 m20 0 h10 m0 0 h184 m-214 0 h20 m194 0 h20 m-234 0 q10 0 10 10 m214 0 q0 -10 10 -10 m-224 10 v12 m214 0 v-12 m-214 12 q0 10 10 10 m194 0 q10 0 10 -10 m-204 10 h10 m94 0 h10 m0 0 h10 m60 0 h10 m23 -32 h-3"/>
   <polygon points="533 307 541 303 541 311"/>
   <polygon points="533 307 525 303 525 311"/>
</svg>
