<svg xmlns="http://www.w3.org/2000/svg" width="555" height="327">
   <polygon points="9 17 1 13 1 21"/>
   <polygon points="17 17 9 13 9 21"/>
   <rect x="31" y="3" width="140" height="32" rx="10"/>
   <rect x="29"
         y="1"
         width="140"
         height="32"
         class="terminal"
         rx="10"/>
   <text class="terminal" x="39" y="21">CREATE SOURCE</text>
   <rect x="211" y="35" width="120" height="32" rx="10"/>
   <rect x="209"
         y="33"
         width="120"
         height="32"
         class="terminal"
         rx="10"/>
   <text class="terminal" x="219" y="53">IF NOT EXISTS</text>
   <rect x="371" y="3" width="82" height="32"/>
   <rect x="369" y="1" width="82" height="32" class="nonterminal"/>
   <text class="nonterminal" x="379" y="21">src_name</text>
   <rect x="473" y="3" width="60" height="32" rx="10"/>
   <rect x="471"
         y="1"
         width="60"
         height="32"
         class="terminal"
         rx="10"/>
   <text class="terminal" x="481" y="21">FROM</text>
   <rect x="62" y="101" width="96" height="32" rx="10"/>
   <rect x="60"
         y="99"
         width="96"
         height="32"
         class="terminal"
         rx="10"/>
   <text class="terminal" x="70" y="119">POSTGRES</text>
   <rect x="178" y="101" width="116" height="32" rx="10"/>
   <rect x="176"
         y="99"
         width="116"
         height="32"
         class="terminal"
         rx="10"/>
   <text class="terminal" x="186" y="119">CONNECTION</text>
   <rect x="314" y="101" width="136" height="32"/>
   <rect x="312" y="99" width="136" height="32" class="nonterminal"/>
   <text class="nonterminal" x="322" y="119">connection_name</text>
   <rect x="470" y="101" width="26" height="32" rx="10"/>
   <rect x="468"
         y="99"
         width="26"
         height="32"
         class="terminal"
         rx="10"/>
   <text class="terminal" x="478" y="119">(</text>
   <rect x="121" y="167" width="116" height="32" rx="10"/>
   <rect x="119"
         y="165"
         width="116"
         height="32"
         class="terminal"
         rx="10"/>
   <text class="terminal" x="129" y="185">PUBLICATION</text>
   <rect x="257" y="167" width="134" height="32"/>
   <rect x="255" y="165" width="134" height="32" class="nonterminal"/>
   <text class="nonterminal" x="265" y="185">publication_name</text>
   <rect x="411" y="167" width="26" height="32" rx="10"/>
   <rect x="409"
         y="165"
         width="26"
         height="32"
         class="terminal"
         rx="10"/>
   <text class="terminal" x="419" y="185">)</text>
   <rect x="143" y="277" width="58" height="32" rx="10"/>
   <rect x="141"
         y="275"
         width="58"
         height="32"
         class="terminal"
         rx="10"/>
   <text class="terminal" x="151" y="295">WITH</text>
   <rect x="221" y="277" width="26" height="32" rx="10"/>
   <rect x="219"
         y="275"
         width="26"
         height="32"
         class="terminal"
         rx="10"/>
   <text class="terminal" x="229" y="295">(</text>
   <rect x="287" y="277" width="48" height="32"/>
   <rect x="285" y="275" width="48" height="32" class="nonterminal"/>
   <text class="nonterminal" x="295" y="295">field</text>
   <rect x="355" y="277" width="28" height="32" rx="10"/>
   <rect x="353"
         y="275"
         width="28"
         height="32"
         class="terminal"
         rx="10"/>
   <text class="terminal" x="363" y="295">=</text>
   <rect x="403" y="277" width="38" height="32"/>
   <rect x="401" y="275" width="38" height="32" class="nonterminal"/>
   <text class="nonterminal" x="411" y="295">val</text>
   <rect x="287" y="233" width="24" height="32" rx="10"/>
   <rect x="285"
         y="231"
         width="24"
         height="32"
         class="terminal"
         rx="10"/>
   <text class="terminal" x="295" y="251">,</text>
   <rect x="481" y="277" width="26" height="32" rx="10"/>
   <rect x="479"
         y="275"
         width="26"
         height="32"
         class="terminal"
         rx="10"/>
   <text class="terminal" x="489" y="295">)</text>
   <path class="line"
         d="m17 17 h2 m0 0 h10 m140 0 h10 m20 0 h10 m0 0 h130 m-160 0 h20 m140 0 h20 m-180 0 q10 0 10 10 m160 0 q0 -10 10 -10 m-170 10 v12 m160 0 v-12 m-160 12 q0 10 10 10 m140 0 q10 0 10 -10 m-150 10 h10 m120 0 h10 m20 -32 h10 m82 0 h10 m0 0 h10 m60 0 h10 m2 0 l2 0 m2 0 l2 0 m2 0 l2 0 m-515 98 l2 0 m2 0 l2 0 m2 0 l2 0 m2 0 h10 m96 0 h10 m0 0 h10 m116 0 h10 m0 0 h10 m136 0 h10 m0 0 h10 m26 0 h10 m2 0 l2 0 m2 0 l2 0 m2 0 l2 0 m-419 66 l2 0 m2 0 l2 0 m2 0 l2 0 m2 0 h10 m116 0 h10 m0 0 h10 m134 0 h10 m0 0 h10 m26 0 h10 m2 0 l2 0 m2 0 l2 0 m2 0 l2 0 m-358 110 l2 0 m2 0 l2 0 m2 0 l2 0 m22 0 h10 m58 0 h10 m0 0 h10 m26 0 h10 m20 0 h10 m48 0 h10 m0 0 h10 m28 0 h10 m0 0 h10 m38 0 h10 m-194 0 l20 0 m-1 0 q-9 0 -9 -10 l0 -24 q0 -10 10 -10 m174 44 l20 0 m-20 0 q10 0 10 -10 l0 -24 q0 -10 -10 -10 m-174 0 h10 m24 0 h10 m0 0 h130 m20 44 h10 m26 0 h10 m-404 0 h20 m384 0 h20 m-424 0 q10 0 10 10 m404 0 q0 -10 10 -10 m-414 10 v14 m404 0 v-14 m-404 14 q0 10 10 10 m384 0 q10 0 10 -10 m-394 10 h10 m0 0 h374 m23 -34 h-3"/>
   <polygon points="545 291 553 287 553 295"/>
   <polygon points="545 291 537 287 537 295"/>
</svg>
