<svg xmlns="http://www.w3.org/2000/svg" width="529" height="211">
   <polygon points="9 17 1 13 1 21"/>
   <polygon points="17 17 9 13 9 21"/>
   <rect x="51" y="35" width="48" height="32" rx="10"/>
   <rect x="49"
         y="33"
         width="48"
         height="32"
         class="terminal"
         rx="10"/>
   <text class="terminal" x="59" y="53">KEY</text>
   <rect x="51" y="79" width="68" height="32" rx="10"/>
   <rect x="49"
         y="77"
         width="68"
         height="32"
         class="terminal"
         rx="10"/>
   <text class="terminal" x="59" y="97">VALUE</text>
   <rect x="159" y="3" width="76" height="32" rx="10"/>
   <rect x="157"
         y="1"
         width="76"
         height="32"
         class="terminal"
         rx="10"/>
   <text class="terminal" x="167" y="21">DOC ON</text>
   <rect x="275" y="3" width="56" height="32" rx="10"/>
   <rect x="273"
         y="1"
         width="56"
         height="32"
         class="terminal"
         rx="10"/>
   <text class="terminal" x="283" y="21">TYPE</text>
   <rect x="351" y="3" width="92" height="32"/>
   <rect x="349" y="1" width="92" height="32" class="nonterminal"/>
   <text class="nonterminal" x="359" y="21">type_name</text>
   <rect x="275" y="47" width="82" height="32" rx="10"/>
   <rect x="273"
         y="45"
         width="82"
         height="32"
         class="terminal"
         rx="10"/>
   <text class="terminal" x="283" y="65">COLUMN</text>
   <rect x="377" y="47" width="110" height="32"/>
   <rect x="375" y="45" width="110" height="32" class="nonterminal"/>
   <text class="nonterminal" x="385" y="65">column_name</text>
   <rect x="375" y="177" width="28" height="32" rx="10"/>
   <rect x="373"
         y="175"
         width="28"
         height="32"
         class="terminal"
         rx="10"/>
   <text class="terminal" x="383" y="195">=</text>
   <rect x="443" y="145" width="58" height="32"/>
   <rect x="441" y="143" width="58" height="32" class="nonterminal"/>
   <text class="nonterminal" x="451" y="163">string</text>
   <path class="line"
         d="m17 17 h2 m20 0 h10 m0 0 h78 m-108 0 h20 m88 0 h20 m-128 0 q10 0 10 10 m108 0 q0 -10 10 -10 m-118 10 v12 m108 0 v-12 m-108 12 q0 10 10 10 m88 0 q10 0 10 -10 m-98 10 h10 m48 0 h10 m0 0 h20 m-98 -10 v20 m108 0 v-20 m-108 20 v24 m108 0 v-24 m-108 24 q0 10 10 10 m88 0 q10 0 10 -10 m-98 10 h10 m68 0 h10 m20 -76 h10 m76 0 h10 m20 0 h10 m56 0 h10 m0 0 h10 m92 0 h10 m0 0 h44 m-252 0 h20 m232 0 h20 m-272 0 q10 0 10 10 m252 0 q0 -10 10 -10 m-262 10 v24 m252 0 v-24 m-252 24 q0 10 10 10 m232 0 q10 0 10 -10 m-242 10 h10 m82 0 h10 m0 0 h10 m110 0 h10 m22 -44 l2 0 m2 0 l2 0 m2 0 l2 0 m-196 142 l2 0 m2 0 l2 0 m2 0 l2 0 m22 0 h10 m0 0 h38 m-68 0 h20 m48 0 h20 m-88 0 q10 0 10 10 m68 0 q0 -10 10 -10 m-78 10 v12 m68 0 v-12 m-68 12 q0 10 10 10 m48 0 q10 0 10 -10 m-58 10 h10 m28 0 h10 m20 -32 h10 m58 0 h10 m3 0 h-3"/>
   <polygon points="519 159 527 155 527 163"/>
   <polygon points="519 159 511 155 511 163"/>
</svg>
