<svg xmlns="http://www.w3.org/2000/svg" width="587" height="591">
   <polygon points="9 17 1 13 1 21"/>
   <polygon points="17 17 9 13 9 21"/>
   <rect x="31" y="3" width="140" height="32" rx="10"/>
   <rect x="29"
         y="1"
         width="140"
         height="32"
         class="terminal"
         rx="10"/>
   <text class="terminal" x="39" y="21">CREATE SOURCE</text>
   <rect x="211" y="35" width="120" height="32" rx="10"/>
   <rect x="209"
         y="33"
         width="120"
         height="32"
         class="terminal"
         rx="10"/>
   <text class="terminal" x="219" y="53">IF NOT EXISTS</text>
   <rect x="371" y="3" width="82" height="32"/>
   <rect x="369" y="1" width="82" height="32" class="nonterminal"/>
   <text class="nonterminal" x="379" y="21">src_name</text>
   <rect x="78" y="145" width="26" height="32" rx="10"/>
   <rect x="76"
         y="143"
         width="26"
         height="32"
         class="terminal"
         rx="10"/>
   <text class="terminal" x="86" y="163">(</text>
   <rect x="144" y="145" width="82" height="32"/>
   <rect x="142" y="143" width="82" height="32" class="nonterminal"/>
   <text class="nonterminal" x="152" y="163">col_name</text>
   <rect x="144" y="101" width="24" height="32" rx="10"/>
   <rect x="142"
         y="99"
         width="24"
         height="32"
         class="terminal"
         rx="10"/>
   <text class="terminal" x="152" y="119">,</text>
   <rect x="286" y="177" width="24" height="32" rx="10"/>
   <rect x="284"
         y="175"
         width="24"
         height="32"
         class="terminal"
         rx="10"/>
   <text class="terminal" x="294" y="195">,</text>
   <rect x="330" y="177" width="116" height="32"/>
   <rect x="328" y="175" width="116" height="32" class="nonterminal"/>
   <text class="nonterminal" x="338" y="195">key_constraint</text>
   <rect x="486" y="145" width="26" height="32" rx="10"/>
   <rect x="484"
         y="143"
         width="26"
         height="32"
         class="terminal"
         rx="10"/>
   <text class="terminal" x="494" y="163">)</text>
   <rect x="45" y="291" width="104" height="32" rx="10"/>
   <rect x="43"
         y="289"
         width="104"
         height="32"
         class="terminal"
         rx="10"/>
   <text class="terminal" x="53" y="309">IN CLUSTER</text>
   <rect x="169" y="291" width="108" height="32"/>
   <rect x="167" y="289" width="108" height="32" class="nonterminal"/>
   <text class="nonterminal" x="177" y="309">cluster_name</text>
   <rect x="317" y="259" width="60" height="32" rx="10"/>
   <rect x="315"
         y="257"
         width="60"
         height="32"
         class="terminal"
         rx="10"/>
   <text class="terminal" x="325" y="277">FROM</text>
   <rect x="397" y="259" width="108" height="32" rx="10"/>
   <rect x="395"
         y="257"
         width="108"
         height="32"
         class="terminal"
         rx="10"/>
   <text class="terminal" x="405" y="277">KINESIS ARN</text>
   <rect x="525" y="259" width="40" height="32"/>
   <rect x="523" y="257" width="40" height="32" class="nonterminal"/>
   <text class="nonterminal" x="533" y="277">arn</text>
   <rect x="133" y="389" width="102" height="32"/>
   <rect x="131" y="387" width="102" height="32" class="nonterminal"/>
   <text class="nonterminal" x="141" y="407">with_options</text>
   <rect x="275" y="357" width="80" height="32" rx="10"/>
   <rect x="273"
         y="355"
         width="80"
         height="32"
         class="terminal"
         rx="10"/>
   <text class="terminal" x="283" y="375">FORMAT</text>
   <rect x="375" y="357" width="102" height="32"/>
   <rect x="373" y="355" width="102" height="32" class="nonterminal"/>
   <text class="nonterminal" x="383" y="375">format_spec</text>
   <rect x="226" y="471" width="138" height="32" rx="10"/>
   <rect x="224"
         y="469"
         width="138"
         height="32"
         class="terminal"
         rx="10"/>
   <text class="terminal" x="234" y="489">ENVELOPE NONE</text>
   <rect x="71" y="557" width="76" height="32" rx="10"/>
   <rect x="69"
         y="555"
         width="76"
         height="32"
         class="terminal"
         rx="10"/>
   <text class="terminal" x="79" y="575">EXPOSE</text>
   <rect x="167" y="557" width="96" height="32" rx="10"/>
   <rect x="165"
         y="555"
         width="96"
         height="32"
         class="terminal"
         rx="10"/>
   <text class="terminal" x="175" y="575">PROGRESS</text>
   <rect x="283" y="557" width="40" height="32" rx="10"/>
   <rect x="281"
         y="555"
         width="40"
         height="32"
         class="terminal"
         rx="10"/>
   <text class="terminal" x="291" y="575">AS</text>
   <rect x="343" y="557" width="196" height="32"/>
   <rect x="341" y="555" width="196" height="32" class="nonterminal"/>
   <text class="nonterminal" x="351" y="575">progress_subsource_name</text>
   <path class="line"
         d="m17 17 h2 m0 0 h10 m140 0 h10 m20 0 h10 m0 0 h130 m-160 0 h20 m140 0 h20 m-180 0 q10 0 10 10 m160 0 q0 -10 10 -10 m-170 10 v12 m160 0 v-12 m-160 12 q0 10 10 10 m140 0 q10 0 10 -10 m-150 10 h10 m120 0 h10 m20 -32 h10 m82 0 h10 m2 0 l2 0 m2 0 l2 0 m2 0 l2 0 m-439 142 l2 0 m2 0 l2 0 m2 0 l2 0 m22 0 h10 m26 0 h10 m20 0 h10 m82 0 h10 m-122 0 l20 0 m-1 0 q-9 0 -9 -10 l0 -24 q0 -10 10 -10 m102 44 l20 0 m-20 0 q10 0 10 -10 l0 -24 q0 -10 -10 -10 m-102 0 h10 m24 0 h10 m0 0 h58 m40 44 h10 m0 0 h170 m-200 0 h20 m180 0 h20 m-220 0 q10 0 10 10 m200 0 q0 -10 10 -10 m-210 10 v12 m200 0 v-12 m-200 12 q0 10 10 10 m180 0 q10 0 10 -10 m-190 10 h10 m24 0 h10 m0 0 h10 m116 0 h10 m20 -32 h10 m26 0 h10 m-474 0 h20 m454 0 h20 m-494 0 q10 0 10 10 m474 0 q0 -10 10 -10 m-484 10 v46 m474 0 v-46 m-474 46 q0 10 10 10 m454 0 q10 0 10 -10 m-464 10 h10 m0 0 h444 m22 -66 l2 0 m2 0 l2 0 m2 0 l2 0 m-551 114 l2 0 m2 0 l2 0 m2 0 l2 0 m22 0 h10 m0 0 h242 m-272 0 h20 m252 0 h20 m-292 0 q10 0 10 10 m272 0 q0 -10 10 -10 m-282 10 v12 m272 0 v-12 m-272 12 q0 10 10 10 m252 0 q10 0 10 -10 m-262 10 h10 m104 0 h10 m0 0 h10 m108 0 h10 m20 -32 h10 m60 0 h10 m0 0 h10 m108 0 h10 m0 0 h10 m40 0 h10 m2 0 l2 0 m2 0 l2 0 m2 0 l2 0 m-496 98 l2 0 m2 0 l2 0 m2 0 l2 0 m22 0 h10 m0 0 h112 m-142 0 h20 m122 0 h20 m-162 0 q10 0 10 10 m142 0 q0 -10 10 -10 m-152 10 v12 m142 0 v-12 m-142 12 q0 10 10 10 m122 0 q10 0 10 -10 m-132 10 h10 m102 0 h10 m20 -32 h10 m80 0 h10 m0 0 h10 m102 0 h10 m2 0 l2 0 m2 0 l2 0 m2 0 l2 0 m-315 82 l2 0 m2 0 l2 0 m2 0 l2 0 m22 0 h10 m0 0 h148 m-178 0 h20 m158 0 h20 m-198 0 q10 0 10 10 m178 0 q0 -10 10 -10 m-188 10 v12 m178 0 v-12 m-178 12 q0 10 10 10 m158 0 q10 0 10 -10 m-168 10 h10 m138 0 h10 m22 -32 l2 0 m2 0 l2 0 m2 0 l2 0 m-377 86 l2 0 m2 0 l2 0 m2 0 l2 0 m22 0 h10 m0 0 h478 m-508 0 h20 m488 0 h20 m-528 0 q10 0 10 10 m508 0 q0 -10 10 -10 m-518 10 v12 m508 0 v-12 m-508 12 q0 10 10 10 m488 0 q10 0 10 -10 m-498 10 h10 m76 0 h10 m0 0 h10 m96 0 h10 m0 0 h10 m40 0 h10 m0 0 h10 m196 0 h10 m23 -32 h-3"/>
   <polygon points="577 539 585 535 585 543"/>
   <polygon points="577 539 569 535 569 543"/>
</svg>
