<svg xmlns="http://www.w3.org/2000/svg" width="525" height="179">
   <polygon points="9 17 1 13 1 21"/>
   <polygon points="17 17 9 13 9 21"/>
   <rect x="31" y="3" width="74" height="32" rx="10"/>
   <rect x="29"
         y="1"
         width="74"
         height="32"
         class="terminal"
         rx="10"/>
   <text class="terminal" x="39" y="21">CREATE</text>
   <rect x="145" y="3" width="160" height="32" rx="10"/>
   <rect x="143"
         y="1"
         width="160"
         height="32"
         class="terminal"
         rx="10"/>
   <text class="terminal" x="153" y="21">MATERIALIZED VIEW</text>
   <rect x="345" y="35" width="118" height="32" rx="10"/>
   <rect x="343"
         y="33"
         width="118"
         height="32"
         class="terminal"
         rx="10"/>
   <text class="terminal" x="353" y="53">IF NOT EXISTS</text>
   <rect x="145" y="79" width="108" height="32" rx="10"/>
   <rect x="143"
         y="77"
         width="108"
         height="32"
         class="terminal"
         rx="10"/>
   <text class="terminal" x="153" y="97">OR REPLACE</text>
   <rect x="273" y="79" width="160" height="32" rx="10"/>
   <rect x="271"
         y="77"
         width="160"
         height="32"
         class="terminal"
         rx="10"/>
   <text class="terminal" x="281" y="97">MATERIALIZED VIEW</text>
   <a xmlns:xlink="http://www.w3.org/1999/xlink"
      xlink:href="#view_name"
      xlink:title="view_name">
      <rect x="241" y="145" width="88" height="32"/>
      <rect x="239" y="143" width="88" height="32" class="nonterminal"/>
      <text class="nonterminal" x="249" y="163">view_name</text>
   </a>
   <rect x="349" y="145" width="38" height="32" rx="10"/>
   <rect x="347"
         y="143"
         width="38"
         height="32"
         class="terminal"
         rx="10"/>
   <text class="terminal" x="357" y="163">AS</text>
   <a xmlns:xlink="http://www.w3.org/1999/xlink"
      xlink:href="#select_stmt"
      xlink:title="select_stmt">
      <rect x="407" y="145" width="90" height="32"/>
      <rect x="405" y="143" width="90" height="32" class="nonterminal"/>
      <text class="nonterminal" x="415" y="163">select_stmt</text>
   </a>
   <path class="line"
         d="m17 17 h2 m0 0 h10 m74 0 h10 m20 0 h10 m160 0 h10 m20 0 h10 m0 0 h128 m-158 0 h20 m138 0 h20 m-178 0 q10 0 10 10 m158 0 q0 -10 10 -10 m-168 10 v12 m158 0 v-12 m-158 12 q0 10 10 10 m138 0 q10 0 10 -10 m-148 10 h10 m118 0 h10 m-358 -32 h20 m358 0 h20 m-398 0 q10 0 10 10 m378 0 q0 -10 10 -10 m-388 10 v56 m378 0 v-56 m-378 56 q0 10 10 10 m358 0 q10 0 10 -10 m-368 10 h10 m108 0 h10 m0 0 h10 m160 0 h10 m0 0 h50 m22 -76 l2 0 m2 0 l2 0 m2 0 l2 0 m-306 142 l2 0 m2 0 l2 0 m2 0 l2 0 m2 0 h10 m88 0 h10 m0 0 h10 m38 0 h10 m0 0 h10 m90 0 h10 m3 0 h-3"/>
   <polygon points="515 159 523 155 523 163"/>
   <polygon points="515 159 507 155 507 163"/>
</svg>
