<svg xmlns="http://www.w3.org/2000/svg" width="599" height="387">
   <polygon points="9 17 1 13 1 21"/>
   <polygon points="17 17 9 13 9 21"/>
   <rect x="31" y="3" width="74" height="32" rx="10"/>
   <rect x="29"
         y="1"
         width="74"
         height="32"
         class="terminal"
         rx="10"/>
   <text class="terminal" x="39" y="21">CREATE</text>
   <rect x="145" y="35" width="120" height="32" rx="10"/>
   <rect x="143"
         y="33"
         width="120"
         height="32"
         class="terminal"
         rx="10"/>
   <text class="terminal" x="153" y="53">MATERIALIZED</text>
   <rect x="305" y="3" width="78" height="32" rx="10"/>
   <rect x="303"
         y="1"
         width="78"
         height="32"
         class="terminal"
         rx="10"/>
   <text class="terminal" x="313" y="21">SOURCE</text>
   <rect x="423" y="35" width="118" height="32" rx="10"/>
   <rect x="421"
         y="33"
         width="118"
         height="32"
         class="terminal"
         rx="10"/>
   <text class="terminal" x="431" y="53">IF NOT EXISTS</text>
   <rect x="25" y="101" width="80" height="32"/>
   <rect x="23" y="99" width="80" height="32" class="nonterminal"/>
   <text class="nonterminal" x="33" y="119">src_name</text>
   <rect x="125" y="101" width="142" height="32" rx="10"/>
   <rect x="123"
         y="99"
         width="142"
         height="32"
         class="terminal"
         rx="10"/>
   <text class="terminal" x="133" y="119">FROM S3 BUCKET</text>
   <rect x="287" y="101" width="102" height="32"/>
   <rect x="285" y="99" width="102" height="32" class="nonterminal"/>
   <text class="nonterminal" x="295" y="119">bucket_name</text>
   <rect x="409" y="101" width="168" height="32" rx="10"/>
   <rect x="407"
         y="99"
         width="168"
         height="32"
         class="terminal"
         rx="10"/>
   <text class="terminal" x="417" y="119">OBJECTS FROM SCAN</text>
   <rect x="68" y="199" width="94" height="32" rx="10"/>
   <rect x="66"
         y="197"
         width="94"
         height="32"
         class="terminal"
         rx="10"/>
   <text class="terminal" x="76" y="217">MATCHING</text>
   <rect x="182" y="199" width="64" height="32"/>
   <rect x="180" y="197" width="64" height="32" class="nonterminal"/>
   <text class="nonterminal" x="190" y="217">pattern</text>
   <rect x="286" y="167" width="56" height="32" rx="10"/>
   <rect x="284"
         y="165"
         width="56"
         height="32"
         class="terminal"
         rx="10"/>
   <text class="terminal" x="294" y="185">WITH</text>
   <rect x="362" y="167" width="24" height="32" rx="10"/>
   <rect x="360"
         y="165"
         width="24"
         height="32"
         class="terminal"
         rx="10"/>
   <text class="terminal" x="370" y="185">(</text>
   <rect x="406" y="167" width="70" height="32" rx="10"/>
   <rect x="404"
         y="165"
         width="70"
         height="32"
         class="terminal"
         rx="10"/>
   <text class="terminal" x="414" y="185">region =</text>
   <rect x="496" y="167" width="58" height="32"/>
   <rect x="494" y="165" width="58" height="32" class="nonterminal"/>
   <text class="nonterminal" x="504" y="185">region</text>
   <rect x="91" y="297" width="118" height="32"/>
   <rect x="89" y="295" width="118" height="32" class="nonterminal"/>
   <text class="nonterminal" x="99" y="315">aws_credentials</text>
   <rect x="249" y="265" width="24" height="32" rx="10"/>
   <rect x="247"
         y="263"
         width="24"
         height="32"
         class="terminal"
         rx="10"/>
   <text class="terminal" x="257" y="283">)</text>
   <rect x="293" y="265" width="78" height="32" rx="10"/>
   <rect x="291"
         y="263"
         width="78"
         height="32"
         class="terminal"
         rx="10"/>
   <text class="terminal" x="301" y="283">FORMAT</text>
   <rect x="411" y="265" width="66" height="32" rx="10"/>
   <rect x="409"
         y="263"
         width="66"
         height="32"
         class="terminal"
         rx="10"/>
   <text class="terminal" x="419" y="283">REGEX</text>
   <rect x="497" y="265" width="54" height="32"/>
   <rect x="495" y="263" width="54" height="32" class="nonterminal"/>
   <text class="nonterminal" x="505" y="283">regex</text>
   <rect x="411" y="309" width="54" height="32" rx="10"/>
   <rect x="409"
         y="307"
         width="54"
         height="32"
         class="terminal"
         rx="10"/>
   <text class="terminal" x="419" y="327">TEXT</text>
   <rect x="411" y="353" width="64" height="32" rx="10"/>
   <rect x="409"
         y="351"
         width="64"
         height="32"
         class="terminal"
         rx="10"/>
   <text class="terminal" x="419" y="371">BYTES</text>
   <path class="line"
         d="m17 17 h2 m0 0 h10 m74 0 h10 m20 0 h10 m0 0 h130 m-160 0 h20 m140 0 h20 m-180 0 q10 0 10 10 m160 0 q0 -10 10 -10 m-170 10 v12 m160 0 v-12 m-160 12 q0 10 10 10 m140 0 q10 0 10 -10 m-150 10 h10 m120 0 h10 m20 -32 h10 m78 0 h10 m20 0 h10 m0 0 h128 m-158 0 h20 m138 0 h20 m-178 0 q10 0 10 10 m158 0 q0 -10 10 -10 m-168 10 v12 m158 0 v-12 m-158 12 q0 10 10 10 m138 0 q10 0 10 -10 m-148 10 h10 m118 0 h10 m22 -32 l2 0 m2 0 l2 0 m2 0 l2 0 m-580 98 l2 0 m2 0 l2 0 m2 0 l2 0 m2 0 h10 m80 0 h10 m0 0 h10 m142 0 h10 m0 0 h10 m102 0 h10 m0 0 h10 m168 0 h10 m2 0 l2 0 m2 0 l2 0 m2 0 l2 0 m-573 66 l2 0 m2 0 l2 0 m2 0 l2 0 m22 0 h10 m0 0 h188 m-218 0 h20 m198 0 h20 m-238 0 q10 0 10 10 m218 0 q0 -10 10 -10 m-228 10 v12 m218 0 v-12 m-218 12 q0 10 10 10 m198 0 q10 0 10 -10 m-208 10 h10 m94 0 h10 m0 0 h10 m64 0 h10 m20 -32 h10 m56 0 h10 m0 0 h10 m24 0 h10 m0 0 h10 m70 0 h10 m0 0 h10 m58 0 h10 m2 0 l2 0 m2 0 l2 0 m2 0 l2 0 m-527 98 l2 0 m2 0 l2 0 m2 0 l2 0 m22 0 h10 m0 0 h128 m-158 0 h20 m138 0 h20 m-178 0 q10 0 10 10 m158 0 q0 -10 10 -10 m-168 10 v12 m158 0 v-12 m-158 12 q0 10 10 10 m138 0 q10 0 10 -10 m-148 10 h10 m118 0 h10 m20 -32 h10 m24 0 h10 m0 0 h10 m78 0 h10 m20 0 h10 m66 0 h10 m0 0 h10 m54 0 h10 m-180 0 h20 m160 0 h20 m-200 0 q10 0 10 10 m180 0 q0 -10 10 -10 m-190 10 v24 m180 0 v-24 m-180 24 q0 10 10 10 m160 0 q10 0 10 -10 m-170 10 h10 m54 0 h10 m0 0 h86 m-170 -10 v20 m180 0 v-20 m-180 20 v24 m180 0 v-24 m-180 24 q0 10 10 10 m160 0 q10 0 10 -10 m-170 10 h10 m64 0 h10 m0 0 h76 m23 -88 h-3"/>
   <polygon points="589 279 597 275 597 283"/>
   <polygon points="589 279 581 275 581 283"/>
</svg>
