<svg xmlns="http://www.w3.org/2000/svg" width="589" height="615">
   <polygon points="9 17 1 13 1 21"/>
   <polygon points="17 17 9 13 9 21"/>
   <rect x="31" y="3" width="74" height="32" rx="10"/>
   <rect x="29"
         y="1"
         width="74"
         height="32"
         class="terminal"
         rx="10"/>
   <text class="terminal" x="39" y="21">CREATE</text>
   <rect x="145" y="35" width="120" height="32" rx="10"/>
   <rect x="143"
         y="33"
         width="120"
         height="32"
         class="terminal"
         rx="10"/>
   <text class="terminal" x="153" y="53">MATERIALIZED</text>
   <rect x="305" y="3" width="78" height="32" rx="10"/>
   <rect x="303"
         y="1"
         width="78"
         height="32"
         class="terminal"
         rx="10"/>
   <text class="terminal" x="313" y="21">SOURCE</text>
   <rect x="423" y="35" width="118" height="32" rx="10"/>
   <rect x="421"
         y="33"
         width="118"
         height="32"
         class="terminal"
         rx="10"/>
   <text class="terminal" x="431" y="53">IF NOT EXISTS</text>
   <rect x="256" y="101" width="80" height="32"/>
   <rect x="254" y="99" width="80" height="32" class="nonterminal"/>
   <text class="nonterminal" x="264" y="119">src_name</text>
   <rect x="45" y="211" width="24" height="32" rx="10"/>
   <rect x="43"
         y="209"
         width="24"
         height="32"
         class="terminal"
         rx="10"/>
   <text class="terminal" x="53" y="229">(</text>
   <rect x="109" y="211" width="80" height="32"/>
   <rect x="107" y="209" width="80" height="32" class="nonterminal"/>
   <text class="nonterminal" x="117" y="229">col_name</text>
   <rect x="109" y="167" width="24" height="32" rx="10"/>
   <rect x="107"
         y="165"
         width="24"
         height="32"
         class="terminal"
         rx="10"/>
   <text class="terminal" x="117" y="185">,</text>
   <rect x="249" y="243" width="24" height="32" rx="10"/>
   <rect x="247"
         y="241"
         width="24"
         height="32"
         class="terminal"
         rx="10"/>
   <text class="terminal" x="257" y="261">,</text>
   <rect x="293" y="243" width="110" height="32"/>
   <rect x="291" y="241" width="110" height="32" class="nonterminal"/>
   <text class="nonterminal" x="301" y="261">key_constraint</text>
   <rect x="443" y="211" width="24" height="32" rx="10"/>
   <rect x="441"
         y="209"
         width="24"
         height="32"
         class="terminal"
         rx="10"/>
   <text class="terminal" x="451" y="229">)</text>
   <rect x="507" y="211" width="60" height="32" rx="10"/>
   <rect x="505"
         y="209"
         width="60"
         height="32"
         class="terminal"
         rx="10"/>
   <text class="terminal" x="515" y="229">FROM</text>
   <rect x="216" y="325" width="92" height="32" rx="10"/>
   <rect x="214"
         y="323"
         width="92"
         height="32"
         class="terminal"
         rx="10"/>
   <text class="terminal" x="224" y="343">AVRO OCF</text>
   <rect x="328" y="325" width="48" height="32"/>
   <rect x="326" y="323" width="48" height="32" class="nonterminal"/>
   <text class="nonterminal" x="336" y="343">path</text>
   <rect x="119" y="435" width="56" height="32" rx="10"/>
   <rect x="117"
         y="433"
         width="56"
         height="32"
         class="terminal"
         rx="10"/>
   <text class="terminal" x="127" y="453">WITH</text>
   <rect x="195" y="435" width="24" height="32" rx="10"/>
   <rect x="193"
         y="433"
         width="24"
         height="32"
         class="terminal"
         rx="10"/>
   <text class="terminal" x="203" y="453">(</text>
   <rect x="259" y="435" width="46" height="32"/>
   <rect x="257" y="433" width="46" height="32" class="nonterminal"/>
   <text class="nonterminal" x="267" y="453">field</text>
   <rect x="325" y="435" width="26" height="32" rx="10"/>
   <rect x="323"
         y="433"
         width="26"
         height="32"
         class="terminal"
         rx="10"/>
   <text class="terminal" x="333" y="453">=</text>
   <rect x="371" y="435" width="38" height="32"/>
   <rect x="369" y="433" width="38" height="32" class="nonterminal"/>
   <text class="nonterminal" x="379" y="453">val</text>
   <rect x="259" y="391" width="24" height="32" rx="10"/>
   <rect x="257"
         y="389"
         width="24"
         height="32"
         class="terminal"
         rx="10"/>
   <text class="terminal" x="267" y="409">,</text>
   <rect x="449" y="435" width="24" height="32" rx="10"/>
   <rect x="447"
         y="433"
         width="24"
         height="32"
         class="terminal"
         rx="10"/>
   <text class="terminal" x="457" y="453">)</text>
   <rect x="297" y="537" width="92" height="32" rx="10"/>
   <rect x="295"
         y="535"
         width="92"
         height="32"
         class="terminal"
         rx="10"/>
   <text class="terminal" x="305" y="555">ENVELOPE</text>
   <rect x="429" y="537" width="60" height="32" rx="10"/>
   <rect x="427"
         y="535"
         width="60"
         height="32"
         class="terminal"
         rx="10"/>
   <text class="terminal" x="437" y="555">NONE</text>
   <rect x="429" y="581" width="92" height="32" rx="10"/>
   <rect x="427"
         y="579"
         width="92"
         height="32"
         class="terminal"
         rx="10"/>
   <text class="terminal" x="437" y="599">DEBEZIUM</text>
   <path class="line"
         d="m17 17 h2 m0 0 h10 m74 0 h10 m20 0 h10 m0 0 h130 m-160 0 h20 m140 0 h20 m-180 0 q10 0 10 10 m160 0 q0 -10 10 -10 m-170 10 v12 m160 0 v-12 m-160 12 q0 10 10 10 m140 0 q10 0 10 -10 m-150 10 h10 m120 0 h10 m20 -32 h10 m78 0 h10 m20 0 h10 m0 0 h128 m-158 0 h20 m138 0 h20 m-178 0 q10 0 10 10 m158 0 q0 -10 10 -10 m-168 10 v12 m158 0 v-12 m-158 12 q0 10 10 10 m138 0 q10 0 10 -10 m-148 10 h10 m118 0 h10 m22 -32 l2 0 m2 0 l2 0 m2 0 l2 0 m-349 98 l2 0 m2 0 l2 0 m2 0 l2 0 m2 0 h10 m80 0 h10 m2 0 l2 0 m2 0 l2 0 m2 0 l2 0 m-355 110 l2 0 m2 0 l2 0 m2 0 l2 0 m22 0 h10 m24 0 h10 m20 0 h10 m80 0 h10 m-120 0 l20 0 m-1 0 q-9 0 -9 -10 l0 -24 q0 -10 10 -10 m100 44 l20 0 m-20 0 q10 0 10 -10 l0 -24 q0 -10 -10 -10 m-100 0 h10 m24 0 h10 m0 0 h56 m40 44 h10 m0 0 h164 m-194 0 h20 m174 0 h20 m-214 0 q10 0 10 10 m194 0 q0 -10 10 -10 m-204 10 v12 m194 0 v-12 m-194 12 q0 10 10 10 m174 0 q10 0 10 -10 m-184 10 h10 m24 0 h10 m0 0 h10 m110 0 h10 m20 -32 h10 m24 0 h10 m-462 0 h20 m442 0 h20 m-482 0 q10 0 10 10 m462 0 q0 -10 10 -10 m-472 10 v46 m462 0 v-46 m-462 46 q0 10 10 10 m442 0 q10 0 10 -10 m-452 10 h10 m0 0 h432 m20 -66 h10 m60 0 h10 m2 0 l2 0 m2 0 l2 0 m2 0 l2 0 m-395 114 l2 0 m2 0 l2 0 m2 0 l2 0 m2 0 h10 m92 0 h10 m0 0 h10 m48 0 h10 m2 0 l2 0 m2 0 l2 0 m2 0 l2 0 m-321 110 l2 0 m2 0 l2 0 m2 0 l2 0 m22 0 h10 m56 0 h10 m0 0 h10 m24 0 h10 m20 0 h10 m46 0 h10 m0 0 h10 m26 0 h10 m0 0 h10 m38 0 h10 m-190 0 l20 0 m-1 0 q-9 0 -9 -10 l0 -24 q0 -10 10 -10 m170 44 l20 0 m-20 0 q10 0 10 -10 l0 -24 q0 -10 -10 -10 m-170 0 h10 m24 0 h10 m0 0 h126 m20 44 h10 m24 0 h10 m-394 0 h20 m374 0 h20 m-414 0 q10 0 10 10 m394 0 q0 -10 10 -10 m-404 10 v14 m394 0 v-14 m-394 14 q0 10 10 10 m374 0 q10 0 10 -10 m-384 10 h10 m0 0 h364 m22 -34 l2 0 m2 0 l2 0 m2 0 l2 0 m-260 70 l2 0 m2 0 l2 0 m2 0 l2 0 m22 0 h10 m0 0 h254 m-284 0 h20 m264 0 h20 m-304 0 q10 0 10 10 m284 0 q0 -10 10 -10 m-294 10 v12 m284 0 v-12 m-284 12 q0 10 10 10 m264 0 q10 0 10 -10 m-274 10 h10 m92 0 h10 m20 0 h10 m60 0 h10 m0 0 h32 m-132 0 h20 m112 0 h20 m-152 0 q10 0 10 10 m132 0 q0 -10 10 -10 m-142 10 v24 m132 0 v-24 m-132 24 q0 10 10 10 m112 0 q10 0 10 -10 m-122 10 h10 m92 0 h10 m43 -76 h-3"/>
   <polygon points="579 519 587 515 587 523"/>
   <polygon points="579 519 571 515 571 523"/>
</svg>
