<svg xmlns="http://www.w3.org/2000/svg" width="603" height="917">
   <polygon points="9 17 1 13 1 21"/>
   <polygon points="17 17 9 13 9 21"/>
   <rect x="31" y="3" width="76" height="32" rx="10"/>
   <rect x="29"
         y="1"
         width="76"
         height="32"
         class="terminal"
         rx="10"/>
   <text class="terminal" x="39" y="21">CREATE</text>
   <rect x="147" y="35" width="124" height="32" rx="10"/>
   <rect x="145"
         y="33"
         width="124"
         height="32"
         class="terminal"
         rx="10"/>
   <text class="terminal" x="155" y="53">MATERIALIZED</text>
   <rect x="311" y="3" width="78" height="32" rx="10"/>
   <rect x="309"
         y="1"
         width="78"
         height="32"
         class="terminal"
         rx="10"/>
   <text class="terminal" x="319" y="21">SOURCE</text>
   <rect x="429" y="35" width="120" height="32" rx="10"/>
   <rect x="427"
         y="33"
         width="120"
         height="32"
         class="terminal"
         rx="10"/>
   <text class="terminal" x="437" y="53">IF NOT EXISTS</text>
   <rect x="85" y="145" width="82" height="32"/>
   <rect x="83" y="143" width="82" height="32" class="nonterminal"/>
   <text class="nonterminal" x="93" y="163">src_name</text>
   <rect x="207" y="145" width="26" height="32" rx="10"/>
   <rect x="205"
         y="143"
         width="26"
         height="32"
         class="terminal"
         rx="10"/>
   <text class="terminal" x="215" y="163">(</text>
   <rect x="273" y="145" width="82" height="32"/>
   <rect x="271" y="143" width="82" height="32" class="nonterminal"/>
   <text class="nonterminal" x="281" y="163">col_name</text>
   <rect x="273" y="101" width="24" height="32" rx="10"/>
   <rect x="271"
         y="99"
         width="24"
         height="32"
         class="terminal"
         rx="10"/>
   <text class="terminal" x="281" y="119">,</text>
   <rect x="395" y="145" width="26" height="32" rx="10"/>
   <rect x="393"
         y="143"
         width="26"
         height="32"
         class="terminal"
         rx="10"/>
   <text class="terminal" x="403" y="163">)</text>
   <rect x="461" y="145" width="60" height="32" rx="10"/>
   <rect x="459"
         y="143"
         width="60"
         height="32"
         class="terminal"
         rx="10"/>
   <text class="terminal" x="469" y="163">FROM</text>
   <rect x="25" y="227" width="130" height="32" rx="10"/>
   <rect x="23"
         y="225"
         width="130"
         height="32"
         class="terminal"
         rx="10"/>
   <text class="terminal" x="33" y="245">KAFKA BROKER</text>
   <rect x="175" y="227" width="48" height="32"/>
   <rect x="173" y="225" width="48" height="32" class="nonterminal"/>
   <text class="nonterminal" x="183" y="245">host</text>
   <rect x="243" y="227" width="64" height="32" rx="10"/>
   <rect x="241"
         y="225"
         width="64"
         height="32"
         class="terminal"
         rx="10"/>
   <text class="terminal" x="251" y="245">TOPIC</text>
   <rect x="347" y="259" width="52" height="32"/>
   <rect x="345" y="257" width="52" height="32" class="nonterminal"/>
   <text class="nonterminal" x="355" y="277">topic</text>
   <rect x="459" y="259" width="102" height="32"/>
   <rect x="457" y="257" width="102" height="32" class="nonterminal"/>
   <text class="nonterminal" x="467" y="277">with_options</text>
   <rect x="109" y="325" width="114" height="32" rx="10"/>
   <rect x="107"
         y="323"
         width="114"
         height="32"
         class="terminal"
         rx="10"/>
   <text class="terminal" x="117" y="343">KEY FORMAT</text>
   <rect x="243" y="325" width="102" height="32"/>
   <rect x="241" y="323" width="102" height="32" class="nonterminal"/>
   <text class="nonterminal" x="251" y="343">format_spec</text>
   <rect x="365" y="325" width="132" height="32" rx="10"/>
   <rect x="363"
         y="323"
         width="132"
         height="32"
         class="terminal"
         rx="10"/>
   <text class="terminal" x="373" y="343">VALUE FORMAT</text>
   <rect x="109" y="369" width="80" height="32" rx="10"/>
   <rect x="107"
         y="367"
         width="80"
         height="32"
         class="terminal"
         rx="10"/>
   <text class="terminal" x="117" y="387">FORMAT</text>
   <rect x="252" y="435" width="56" height="32" rx="10"/>
   <rect x="250"
         y="433"
         width="56"
         height="32"
         class="terminal"
         rx="10"/>
   <text class="terminal" x="260" y="453">TEXT</text>
   <rect x="252" y="479" width="66" height="32" rx="10"/>
   <rect x="250"
         y="477"
         width="66"
         height="32"
         class="terminal"
         rx="10"/>
   <text class="terminal" x="260" y="497">BYTES</text>
   <rect x="252" y="523" width="102" height="32"/>
   <rect x="250" y="521" width="102" height="32" class="nonterminal"/>
   <text class="nonterminal" x="260" y="541">format_spec</text>
   <rect x="71" y="605" width="82" height="32" rx="10"/>
   <rect x="69"
         y="603"
         width="82"
         height="32"
         class="terminal"
         rx="10"/>
   <text class="terminal" x="79" y="623">INCLUDE</text>
   <rect x="213" y="605" width="48" height="32" rx="10"/>
   <rect x="211"
         y="603"
         width="48"
         height="32"
         class="terminal"
         rx="10"/>
   <text class="terminal" x="221" y="623">KEY</text>
   <rect x="213" y="649" width="96" height="32" rx="10"/>
   <rect x="211"
         y="647"
         width="96"
         height="32"
         class="terminal"
         rx="10"/>
   <text class="terminal" x="221" y="667">PARTITION</text>
   <rect x="213" y="693" width="74" height="32" rx="10"/>
   <rect x="211"
         y="691"
         width="74"
         height="32"
         class="terminal"
         rx="10"/>
   <text class="terminal" x="221" y="711">OFFSET</text>
   <rect x="213" y="737" width="106" height="32" rx="10"/>
   <rect x="211"
         y="735"
         width="106"
         height="32"
         class="terminal"
         rx="10"/>
   <text class="terminal" x="221" y="755">TIMESTAMP</text>
   <rect x="379" y="637" width="40" height="32" rx="10"/>
   <rect x="377"
         y="635"
         width="40"
         height="32"
         class="terminal"
         rx="10"/>
   <text class="terminal" x="387" y="655">AS</text>
   <rect x="439" y="637" width="56" height="32"/>
   <rect x="437" y="635" width="56" height="32" class="nonterminal"/>
   <text class="nonterminal" x="447" y="655">name</text>
   <rect x="325" y="839" width="94" height="32" rx="10"/>
   <rect x="323"
         y="837"
         width="94"
         height="32"
         class="terminal"
         rx="10"/>
   <text class="terminal" x="333" y="857">ENVELOPE</text>
   <rect x="459" y="839" width="60" height="32" rx="10"/>
   <rect x="457"
         y="837"
         width="60"
         height="32"
         class="terminal"
         rx="10"/>
   <text class="terminal" x="467" y="857">NONE</text>
   <rect x="459" y="883" width="76" height="32" rx="10"/>
   <rect x="457"
         y="881"
         width="76"
         height="32"
         class="terminal"
         rx="10"/>
   <text class="terminal" x="467" y="901">UPSERT</text>
   <path class="line"
         d="m17 17 h2 m0 0 h10 m76 0 h10 m20 0 h10 m0 0 h134 m-164 0 h20 m144 0 h20 m-184 0 q10 0 10 10 m164 0 q0 -10 10 -10 m-174 10 v12 m164 0 v-12 m-164 12 q0 10 10 10 m144 0 q10 0 10 -10 m-154 10 h10 m124 0 h10 m20 -32 h10 m78 0 h10 m20 0 h10 m0 0 h130 m-160 0 h20 m140 0 h20 m-180 0 q10 0 10 10 m160 0 q0 -10 10 -10 m-170 10 v12 m160 0 v-12 m-160 12 q0 10 10 10 m140 0 q10 0 10 -10 m-150 10 h10 m120 0 h10 m22 -32 l2 0 m2 0 l2 0 m2 0 l2 0 m-528 142 l2 0 m2 0 l2 0 m2 0 l2 0 m2 0 h10 m82 0 h10 m20 0 h10 m26 0 h10 m20 0 h10 m82 0 h10 m-122 0 l20 0 m-1 0 q-9 0 -9 -10 l0 -24 q0 -10 10 -10 m102 44 l20 0 m-20 0 q10 0 10 -10 l0 -24 q0 -10 -10 -10 m-102 0 h10 m24 0 h10 m0 0 h58 m20 44 h10 m26 0 h10 m-254 0 h20 m234 0 h20 m-274 0 q10 0 10 10 m254 0 q0 -10 10 -10 m-264 10 v14 m254 0 v-14 m-254 14 q0 10 10 10 m234 0 q10 0 10 -10 m-244 10 h10 m0 0 h224 m20 -34 h10 m60 0 h10 m2 0 l2 0 m2 0 l2 0 m2 0 l2 0 m-540 82 l2 0 m2 0 l2 0 m2 0 l2 0 m2 0 h10 m130 0 h10 m0 0 h10 m48 0 h10 m0 0 h10 m64 0 h10 m20 0 h10 m0 0 h62 m-92 0 h20 m72 0 h20 m-112 0 q10 0 10 10 m92 0 q0 -10 10 -10 m-102 10 v12 m92 0 v-12 m-92 12 q0 10 10 10 m72 0 q10 0 10 -10 m-82 10 h10 m52 0 h10 m40 -32 h10 m0 0 h112 m-142 0 h20 m122 0 h20 m-162 0 q10 0 10 10 m142 0 q0 -10 10 -10 m-152 10 v12 m142 0 v-12 m-142 12 q0 10 10 10 m122 0 q10 0 10 -10 m-132 10 h10 m102 0 h10 m22 -32 l2 0 m2 0 l2 0 m2 0 l2 0 m-536 98 l2 0 m2 0 l2 0 m2 0 l2 0 m22 0 h10 m114 0 h10 m0 0 h10 m102 0 h10 m0 0 h10 m132 0 h10 m-428 0 h20 m408 0 h20 m-448 0 q10 0 10 10 m428 0 q0 -10 10 -10 m-438 10 v24 m428 0 v-24 m-428 24 q0 10 10 10 m408 0 q10 0 10 -10 m-418 10 h10 m80 0 h10 m0 0 h308 m22 -44 l2 0 m2 0 l2 0 m2 0 l2 0 m-329 110 l2 0 m2 0 l2 0 m2 0 l2 0 m22 0 h10 m56 0 h10 m0 0 h46 m-142 0 h20 m122 0 h20 m-162 0 q10 0 10 10 m142 0 q0 -10 10 -10 m-152 10 v24 m142 0 v-24 m-142 24 q0 10 10 10 m122 0 q10 0 10 -10 m-132 10 h10 m66 0 h10 m0 0 h36 m-132 -10 v20 m142 0 v-20 m-142 20 v24 m142 0 v-24 m-142 24 q0 10 10 10 m122 0 q10 0 10 -10 m-132 10 h10 m102 0 h10 m22 -88 l2 0 m2 0 l2 0 m2 0 l2 0 m-367 170 l2 0 m2 0 l2 0 m2 0 l2 0 m22 0 h10 m82 0 h10 m40 0 h10 m48 0 h10 m0 0 h58 m-146 0 h20 m126 0 h20 m-166 0 q10 0 10 10 m146 0 q0 -10 10 -10 m-156 10 v24 m146 0 v-24 m-146 24 q0 10 10 10 m126 0 q10 0 10 -10 m-136 10 h10 m96 0 h10 m0 0 h10 m-136 -10 v20 m146 0 v-20 m-146 20 v24 m146 0 v-24 m-146 24 q0 10 10 10 m126 0 q10 0 10 -10 m-136 10 h10 m74 0 h10 m0 0 h32 m-136 -10 v20 m146 0 v-20 m-146 20 v24 m146 0 v-24 m-146 24 q0 10 10 10 m126 0 q10 0 10 -10 m-136 10 h10 m106 0 h10 m40 -132 h10 m0 0 h126 m-156 0 h20 m136 0 h20 m-176 0 q10 0 10 10 m156 0 q0 -10 10 -10 m-166 10 v12 m156 0 v-12 m-156 12 q0 10 10 10 m136 0 q10 0 10 -10 m-146 10 h10 m40 0 h10 m0 0 h10 m56 0 h10 m-342 -32 l20 0 m-1 0 q-9 0 -9 -10 l0 -12 q0 -10 10 -10 m342 32 l20 0 m-20 0 q10 0 10 -10 l0 -12 q0 -10 -10 -10 m-342 0 h10 m0 0 h332 m-484 32 h20 m484 0 h20 m-524 0 q10 0 10 10 m504 0 q0 -10 10 -10 m-514 10 v146 m504 0 v-146 m-504 146 q0 10 10 10 m484 0 q10 0 10 -10 m-494 10 h10 m0 0 h474 m22 -166 l2 0 m2 0 l2 0 m2 0 l2 0 m-294 202 l2 0 m2 0 l2 0 m2 0 l2 0 m22 0 h10 m0 0 h240 m-270 0 h20 m250 0 h20 m-290 0 q10 0 10 10 m270 0 q0 -10 10 -10 m-280 10 v12 m270 0 v-12 m-270 12 q0 10 10 10 m250 0 q10 0 10 -10 m-260 10 h10 m94 0 h10 m20 0 h10 m60 0 h10 m0 0 h16 m-116 0 h20 m96 0 h20 m-136 0 q10 0 10 10 m116 0 q0 -10 10 -10 m-126 10 v24 m116 0 v-24 m-116 24 q0 10 10 10 m96 0 q10 0 10 -10 m-106 10 h10 m76 0 h10 m43 -76 h-3"/>
   <polygon points="593 821 601 817 601 825"/>
   <polygon points="593 821 585 817 585 825"/>
</svg>
