<svg xmlns="http://www.w3.org/2000/svg" width="583" height="529">
   <polygon points="9 17 1 13 1 21"/>
   <polygon points="17 17 9 13 9 21"/>
   <rect x="31" y="3" width="74" height="32" rx="10"/>
   <rect x="29"
         y="1"
         width="74"
         height="32"
         class="terminal"
         rx="10"/>
   <text class="terminal" x="39" y="21">CREATE</text>
   <rect x="145" y="35" width="120" height="32" rx="10"/>
   <rect x="143"
         y="33"
         width="120"
         height="32"
         class="terminal"
         rx="10"/>
   <text class="terminal" x="153" y="53">MATERIALIZED</text>
   <rect x="305" y="3" width="78" height="32" rx="10"/>
   <rect x="303"
         y="1"
         width="78"
         height="32"
         class="terminal"
         rx="10"/>
   <text class="terminal" x="313" y="21">SOURCE</text>
   <rect x="423" y="35" width="118" height="32" rx="10"/>
   <rect x="421"
         y="33"
         width="118"
         height="32"
         class="terminal"
         rx="10"/>
   <text class="terminal" x="431" y="53">IF NOT EXISTS</text>
   <rect x="79" y="145" width="80" height="32"/>
   <rect x="77" y="143" width="80" height="32" class="nonterminal"/>
   <text class="nonterminal" x="87" y="163">src_name</text>
   <rect x="199" y="145" width="24" height="32" rx="10"/>
   <rect x="197"
         y="143"
         width="24"
         height="32"
         class="terminal"
         rx="10"/>
   <text class="terminal" x="207" y="163">(</text>
   <rect x="263" y="145" width="80" height="32"/>
   <rect x="261" y="143" width="80" height="32" class="nonterminal"/>
   <text class="nonterminal" x="271" y="163">col_name</text>
   <rect x="263" y="101" width="24" height="32" rx="10"/>
   <rect x="261"
         y="99"
         width="24"
         height="32"
         class="terminal"
         rx="10"/>
   <text class="terminal" x="271" y="119">,</text>
   <rect x="383" y="145" width="24" height="32" rx="10"/>
   <rect x="381"
         y="143"
         width="24"
         height="32"
         class="terminal"
         rx="10"/>
   <text class="terminal" x="391" y="163">)</text>
   <rect x="447" y="145" width="60" height="32" rx="10"/>
   <rect x="445"
         y="143"
         width="60"
         height="32"
         class="terminal"
         rx="10"/>
   <text class="terminal" x="455" y="163">FROM</text>
   <rect x="101" y="227" width="126" height="32" rx="10"/>
   <rect x="99"
         y="225"
         width="126"
         height="32"
         class="terminal"
         rx="10"/>
   <text class="terminal" x="109" y="245">KAFKA BROKER</text>
   <rect x="247" y="227" width="46" height="32"/>
   <rect x="245" y="225" width="46" height="32" class="nonterminal"/>
   <text class="nonterminal" x="255" y="245">host</text>
   <rect x="313" y="227" width="62" height="32" rx="10"/>
   <rect x="311"
         y="225"
         width="62"
         height="32"
         class="terminal"
         rx="10"/>
   <text class="terminal" x="321" y="245">TOPIC</text>
   <rect x="415" y="259" width="50" height="32"/>
   <rect x="413" y="257" width="50" height="32" class="nonterminal"/>
   <text class="nonterminal" x="423" y="277">topic</text>
   <rect x="67" y="369" width="56" height="32" rx="10"/>
   <rect x="65"
         y="367"
         width="56"
         height="32"
         class="terminal"
         rx="10"/>
   <text class="terminal" x="75" y="387">WITH</text>
   <rect x="143" y="369" width="24" height="32" rx="10"/>
   <rect x="141"
         y="367"
         width="24"
         height="32"
         class="terminal"
         rx="10"/>
   <text class="terminal" x="151" y="387">(</text>
   <rect x="207" y="369" width="46" height="32"/>
   <rect x="205" y="367" width="46" height="32" class="nonterminal"/>
   <text class="nonterminal" x="215" y="387">field</text>
   <rect x="273" y="369" width="26" height="32" rx="10"/>
   <rect x="271"
         y="367"
         width="26"
         height="32"
         class="terminal"
         rx="10"/>
   <text class="terminal" x="281" y="387">=</text>
   <rect x="319" y="369" width="38" height="32"/>
   <rect x="317" y="367" width="38" height="32" class="nonterminal"/>
   <text class="nonterminal" x="327" y="387">val</text>
   <rect x="207" y="325" width="24" height="32" rx="10"/>
   <rect x="205"
         y="323"
         width="24"
         height="32"
         class="terminal"
         rx="10"/>
   <text class="terminal" x="215" y="343">,</text>
   <rect x="397" y="369" width="24" height="32" rx="10"/>
   <rect x="395"
         y="367"
         width="24"
         height="32"
         class="terminal"
         rx="10"/>
   <text class="terminal" x="405" y="387">)</text>
   <rect x="461" y="369" width="78" height="32" rx="10"/>
   <rect x="459"
         y="367"
         width="78"
         height="32"
         class="terminal"
         rx="10"/>
   <text class="terminal" x="469" y="387">FORMAT</text>
   <rect x="27" y="451" width="88" height="32" rx="10"/>
   <rect x="25"
         y="449"
         width="88"
         height="32"
         class="terminal"
         rx="10"/>
   <text class="terminal" x="35" y="469">CSV WITH</text>
   <rect x="155" y="451" width="76" height="32" rx="10"/>
   <rect x="153"
         y="449"
         width="76"
         height="32"
         class="terminal"
         rx="10"/>
   <text class="terminal" x="163" y="469">HEADER</text>
   <rect x="155" y="495" width="28" height="32"/>
   <rect x="153" y="493" width="28" height="32" class="nonterminal"/>
   <text class="nonterminal" x="163" y="513">n</text>
   <rect x="203" y="495" width="90" height="32" rx="10"/>
   <rect x="201"
         y="493"
         width="90"
         height="32"
         class="terminal"
         rx="10"/>
   <text class="terminal" x="211" y="513">COLUMNS</text>
   <rect x="353" y="483" width="116" height="32" rx="10"/>
   <rect x="351"
         y="481"
         width="116"
         height="32"
         class="terminal"
         rx="10"/>
   <text class="terminal" x="361" y="501">DELIMITED BY</text>
   <rect x="489" y="483" width="46" height="32"/>
   <rect x="487" y="481" width="46" height="32" class="nonterminal"/>
   <text class="nonterminal" x="497" y="501">char</text>
   <path class="line"
         d="m17 17 h2 m0 0 h10 m74 0 h10 m20 0 h10 m0 0 h130 m-160 0 h20 m140 0 h20 m-180 0 q10 0 10 10 m160 0 q0 -10 10 -10 m-170 10 v12 m160 0 v-12 m-160 12 q0 10 10 10 m140 0 q10 0 10 -10 m-150 10 h10 m120 0 h10 m20 -32 h10 m78 0 h10 m20 0 h10 m0 0 h128 m-158 0 h20 m138 0 h20 m-178 0 q10 0 10 10 m158 0 q0 -10 10 -10 m-168 10 v12 m158 0 v-12 m-158 12 q0 10 10 10 m138 0 q10 0 10 -10 m-148 10 h10 m118 0 h10 m22 -32 l2 0 m2 0 l2 0 m2 0 l2 0 m-526 142 l2 0 m2 0 l2 0 m2 0 l2 0 m2 0 h10 m80 0 h10 m20 0 h10 m24 0 h10 m20 0 h10 m80 0 h10 m-120 0 l20 0 m-1 0 q-9 0 -9 -10 l0 -24 q0 -10 10 -10 m100 44 l20 0 m-20 0 q10 0 10 -10 l0 -24 q0 -10 -10 -10 m-100 0 h10 m24 0 h10 m0 0 h56 m20 44 h10 m24 0 h10 m-248 0 h20 m228 0 h20 m-268 0 q10 0 10 10 m248 0 q0 -10 10 -10 m-258 10 v14 m248 0 v-14 m-248 14 q0 10 10 10 m228 0 q10 0 10 -10 m-238 10 h10 m0 0 h218 m20 -34 h10 m60 0 h10 m2 0 l2 0 m2 0 l2 0 m2 0 l2 0 m-450 82 l2 0 m2 0 l2 0 m2 0 l2 0 m2 0 h10 m126 0 h10 m0 0 h10 m46 0 h10 m0 0 h10 m62 0 h10 m20 0 h10 m0 0 h60 m-90 0 h20 m70 0 h20 m-110 0 q10 0 10 10 m90 0 q0 -10 10 -10 m-100 10 v12 m90 0 v-12 m-90 12 q0 10 10 10 m70 0 q10 0 10 -10 m-80 10 h10 m50 0 h10 m22 -32 l2 0 m2 0 l2 0 m2 0 l2 0 m-482 142 l2 0 m2 0 l2 0 m2 0 l2 0 m22 0 h10 m56 0 h10 m0 0 h10 m24 0 h10 m20 0 h10 m46 0 h10 m0 0 h10 m26 0 h10 m0 0 h10 m38 0 h10 m-190 0 l20 0 m-1 0 q-9 0 -9 -10 l0 -24 q0 -10 10 -10 m170 44 l20 0 m-20 0 q10 0 10 -10 l0 -24 q0 -10 -10 -10 m-170 0 h10 m24 0 h10 m0 0 h126 m20 44 h10 m24 0 h10 m-394 0 h20 m374 0 h20 m-414 0 q10 0 10 10 m394 0 q0 -10 10 -10 m-404 10 v14 m394 0 v-14 m-394 14 q0 10 10 10 m374 0 q10 0 10 -10 m-384 10 h10 m0 0 h364 m20 -34 h10 m78 0 h10 m2 0 l2 0 m2 0 l2 0 m2 0 l2 0 m-556 82 l2 0 m2 0 l2 0 m2 0 l2 0 m2 0 h10 m88 0 h10 m20 0 h10 m76 0 h10 m0 0 h62 m-178 0 h20 m158 0 h20 m-198 0 q10 0 10 10 m178 0 q0 -10 10 -10 m-188 10 v24 m178 0 v-24 m-178 24 q0 10 10 10 m158 0 q10 0 10 -10 m-168 10 h10 m28 0 h10 m0 0 h10 m90 0 h10 m40 -44 h10 m0 0 h192 m-222 0 h20 m202 0 h20 m-242 0 q10 0 10 10 m222 0 q0 -10 10 -10 m-232 10 v12 m222 0 v-12 m-222 12 q0 10 10 10 m202 0 q10 0 10 -10 m-212 10 h10 m116 0 h10 m0 0 h10 m46 0 h10 m23 -32 h-3"/>
   <polygon points="573 465 581 461 581 469"/>
   <polygon points="573 465 565 461 565 469"/>
</svg>
