<svg xmlns="http://www.w3.org/2000/svg" width="633" height="317">
   <polygon points="9 17 1 13 1 21"/>
   <polygon points="17 17 9 13 9 21"/>
   <rect x="31" y="3" width="74" height="32" rx="10"/>
   <rect x="29"
         y="1"
         width="74"
         height="32"
         class="terminal"
         rx="10"/>
   <text class="terminal" x="39" y="21">CREATE</text>
   <rect x="45" y="113" width="62" height="32" rx="10"/>
   <rect x="43"
         y="111"
         width="62"
         height="32"
         class="terminal"
         rx="10"/>
   <text class="terminal" x="53" y="131">INDEX</text>
   <rect x="127" y="113" width="94" height="32"/>
   <rect x="125" y="111" width="94" height="32" class="nonterminal"/>
   <text class="nonterminal" x="135" y="131">index_name</text>
   <rect x="241" y="113" width="40" height="32" rx="10"/>
   <rect x="239"
         y="111"
         width="40"
         height="32"
         class="terminal"
         rx="10"/>
   <text class="terminal" x="249" y="131">ON</text>
   <rect x="301" y="113" width="80" height="32"/>
   <rect x="299" y="111" width="80" height="32" class="nonterminal"/>
   <text class="nonterminal" x="309" y="131">obj_name</text>
   <rect x="401" y="113" width="24" height="32" rx="10"/>
   <rect x="399"
         y="111"
         width="24"
         height="32"
         class="terminal"
         rx="10"/>
   <text class="terminal" x="409" y="131">(</text>
   <rect x="465" y="113" width="62" height="32"/>
   <rect x="463" y="111" width="62" height="32" class="nonterminal"/>
   <text class="nonterminal" x="473" y="131">col_ref</text>
   <rect x="465" y="69" width="24" height="32" rx="10"/>
   <rect x="463"
         y="67"
         width="24"
         height="32"
         class="terminal"
         rx="10"/>
   <text class="terminal" x="473" y="87">,</text>
   <rect x="567" y="113" width="24" height="32" rx="10"/>
   <rect x="565"
         y="111"
         width="24"
         height="32"
         class="terminal"
         rx="10"/>
   <text class="terminal" x="575" y="131">)</text>
   <rect x="45" y="157" width="154" height="32" rx="10"/>
   <rect x="43"
         y="155"
         width="154"
         height="32"
         class="terminal"
         rx="10"/>
   <text class="terminal" x="53" y="175">DEFAULT INDEX ON</text>
   <rect x="219" y="157" width="80" height="32"/>
   <rect x="217" y="155" width="80" height="32" class="nonterminal"/>
   <text class="nonterminal" x="227" y="175">obj_name</text>
   <rect x="231" y="267" width="56" height="32" rx="10"/>
   <rect x="229"
         y="265"
         width="56"
         height="32"
         class="terminal"
         rx="10"/>
   <text class="terminal" x="239" y="285">WITH</text>
   <rect x="307" y="267" width="24" height="32" rx="10"/>
   <rect x="305"
         y="265"
         width="24"
         height="32"
         class="terminal"
         rx="10"/>
   <text class="terminal" x="315" y="285">(</text>
   <rect x="371" y="267" width="46" height="32"/>
   <rect x="369" y="265" width="46" height="32" class="nonterminal"/>
   <text class="nonterminal" x="379" y="285">field</text>
   <rect x="437" y="267" width="26" height="32" rx="10"/>
   <rect x="435"
         y="265"
         width="26"
         height="32"
         class="terminal"
         rx="10"/>
   <text class="terminal" x="445" y="285">=</text>
   <rect x="483" y="267" width="38" height="32"/>
   <rect x="481" y="265" width="38" height="32" class="nonterminal"/>
   <text class="nonterminal" x="491" y="285">val</text>
   <rect x="371" y="223" width="24" height="32" rx="10"/>
   <rect x="369"
         y="221"
         width="24"
         height="32"
         class="terminal"
         rx="10"/>
   <text class="terminal" x="379" y="241">,</text>
   <rect x="561" y="267" width="24" height="32" rx="10"/>
   <rect x="559"
         y="265"
         width="24"
         height="32"
         class="terminal"
         rx="10"/>
   <text class="terminal" x="569" y="285">)</text>
   <path class="line"
         d="m17 17 h2 m0 0 h10 m74 0 h10 m2 0 l2 0 m2 0 l2 0 m2 0 l2 0 m-124 110 l2 0 m2 0 l2 0 m2 0 l2 0 m22 0 h10 m62 0 h10 m0 0 h10 m94 0 h10 m0 0 h10 m40 0 h10 m0 0 h10 m80 0 h10 m0 0 h10 m24 0 h10 m20 0 h10 m62 0 h10 m-102 0 l20 0 m-1 0 q-9 0 -9 -10 l0 -24 q0 -10 10 -10 m82 44 l20 0 m-20 0 q10 0 10 -10 l0 -24 q0 -10 -10 -10 m-82 0 h10 m24 0 h10 m0 0 h38 m20 44 h10 m24 0 h10 m-586 0 h20 m566 0 h20 m-606 0 q10 0 10 10 m586 0 q0 -10 10 -10 m-596 10 v24 m586 0 v-24 m-586 24 q0 10 10 10 m566 0 q10 0 10 -10 m-576 10 h10 m154 0 h10 m0 0 h10 m80 0 h10 m0 0 h292 m22 -44 l2 0 m2 0 l2 0 m2 0 l2 0 m-444 154 l2 0 m2 0 l2 0 m2 0 l2 0 m22 0 h10 m56 0 h10 m0 0 h10 m24 0 h10 m20 0 h10 m46 0 h10 m0 0 h10 m26 0 h10 m0 0 h10 m38 0 h10 m-190 0 l20 0 m-1 0 q-9 0 -9 -10 l0 -24 q0 -10 10 -10 m170 44 l20 0 m-20 0 q10 0 10 -10 l0 -24 q0 -10 -10 -10 m-170 0 h10 m24 0 h10 m0 0 h126 m20 44 h10 m24 0 h10 m-394 0 h20 m374 0 h20 m-414 0 q10 0 10 10 m394 0 q0 -10 10 -10 m-404 10 v14 m394 0 v-14 m-394 14 q0 10 10 10 m374 0 q10 0 10 -10 m-384 10 h10 m0 0 h364 m23 -34 h-3"/>
   <polygon points="623 281 631 277 631 285"/>
   <polygon points="623 281 615 277 615 285"/>
</svg>
