<svg xmlns="http://www.w3.org/2000/svg" width="601" height="497">
   <polygon points="9 17 1 13 1 21"/>
   <polygon points="17 17 9 13 9 21"/>
   <rect x="31" y="3" width="74" height="32" rx="10"/>
   <rect x="29"
         y="1"
         width="74"
         height="32"
         class="terminal"
         rx="10"/>
   <text class="terminal" x="39" y="21">CREATE</text>
   <rect x="145" y="35" width="120" height="32" rx="10"/>
   <rect x="143"
         y="33"
         width="120"
         height="32"
         class="terminal"
         rx="10"/>
   <text class="terminal" x="153" y="53">MATERIALIZED</text>
   <rect x="305" y="3" width="78" height="32" rx="10"/>
   <rect x="303"
         y="1"
         width="78"
         height="32"
         class="terminal"
         rx="10"/>
   <text class="terminal" x="313" y="21">SOURCE</text>
   <rect x="423" y="35" width="118" height="32" rx="10"/>
   <rect x="421"
         y="33"
         width="118"
         height="32"
         class="terminal"
         rx="10"/>
   <text class="terminal" x="431" y="53">IF NOT EXISTS</text>
   <rect x="25" y="145" width="80" height="32"/>
   <rect x="23" y="143" width="80" height="32" class="nonterminal"/>
   <text class="nonterminal" x="33" y="163">src_name</text>
   <rect x="145" y="145" width="24" height="32" rx="10"/>
   <rect x="143"
         y="143"
         width="24"
         height="32"
         class="terminal"
         rx="10"/>
   <text class="terminal" x="153" y="163">(</text>
   <rect x="209" y="145" width="80" height="32"/>
   <rect x="207" y="143" width="80" height="32" class="nonterminal"/>
   <text class="nonterminal" x="217" y="163">col_name</text>
   <rect x="209" y="101" width="24" height="32" rx="10"/>
   <rect x="207"
         y="99"
         width="24"
         height="32"
         class="terminal"
         rx="10"/>
   <text class="terminal" x="217" y="119">,</text>
   <rect x="329" y="145" width="24" height="32" rx="10"/>
   <rect x="327"
         y="143"
         width="24"
         height="32"
         class="terminal"
         rx="10"/>
   <text class="terminal" x="337" y="163">)</text>
   <rect x="393" y="145" width="60" height="32" rx="10"/>
   <rect x="391"
         y="143"
         width="60"
         height="32"
         class="terminal"
         rx="10"/>
   <text class="terminal" x="401" y="163">FROM</text>
   <rect x="473" y="145" width="106" height="32" rx="10"/>
   <rect x="471"
         y="143"
         width="106"
         height="32"
         class="terminal"
         rx="10"/>
   <text class="terminal" x="481" y="163">KINESIS ARN</text>
   <rect x="26" y="271" width="40" height="32"/>
   <rect x="24" y="269" width="40" height="32" class="nonterminal"/>
   <text class="nonterminal" x="34" y="289">arn</text>
   <rect x="106" y="271" width="56" height="32" rx="10"/>
   <rect x="104"
         y="269"
         width="56"
         height="32"
         class="terminal"
         rx="10"/>
   <text class="terminal" x="114" y="289">WITH</text>
   <rect x="182" y="271" width="24" height="32" rx="10"/>
   <rect x="180"
         y="269"
         width="24"
         height="32"
         class="terminal"
         rx="10"/>
   <text class="terminal" x="190" y="289">(</text>
   <rect x="246" y="271" width="46" height="32"/>
   <rect x="244" y="269" width="46" height="32" class="nonterminal"/>
   <text class="nonterminal" x="254" y="289">field</text>
   <rect x="312" y="271" width="26" height="32" rx="10"/>
   <rect x="310"
         y="269"
         width="26"
         height="32"
         class="terminal"
         rx="10"/>
   <text class="terminal" x="320" y="289">=</text>
   <rect x="358" y="271" width="38" height="32"/>
   <rect x="356" y="269" width="38" height="32" class="nonterminal"/>
   <text class="nonterminal" x="366" y="289">val</text>
   <rect x="246" y="227" width="24" height="32" rx="10"/>
   <rect x="244"
         y="225"
         width="24"
         height="32"
         class="terminal"
         rx="10"/>
   <text class="terminal" x="254" y="245">,</text>
   <rect x="436" y="271" width="24" height="32" rx="10"/>
   <rect x="434"
         y="269"
         width="24"
         height="32"
         class="terminal"
         rx="10"/>
   <text class="terminal" x="444" y="289">)</text>
   <rect x="500" y="271" width="78" height="32" rx="10"/>
   <rect x="498"
         y="269"
         width="78"
         height="32"
         class="terminal"
         rx="10"/>
   <text class="terminal" x="508" y="289">FORMAT</text>
   <rect x="77" y="353" width="168" height="32" rx="10"/>
   <rect x="75"
         y="351"
         width="168"
         height="32"
         class="terminal"
         rx="10"/>
   <text class="terminal" x="85" y="371">PROTOBUF MESSAGE</text>
   <rect x="265" y="353" width="116" height="32"/>
   <rect x="263" y="351" width="116" height="32" class="nonterminal"/>
   <text class="nonterminal" x="273" y="371">message_name</text>
   <rect x="401" y="353" width="126" height="32" rx="10"/>
   <rect x="399"
         y="351"
         width="126"
         height="32"
         class="terminal"
         rx="10"/>
   <text class="terminal" x="409" y="371">USING SCHEMA</text>
   <rect x="357" y="419" width="48" height="32" rx="10"/>
   <rect x="355"
         y="417"
         width="48"
         height="32"
         class="terminal"
         rx="10"/>
   <text class="terminal" x="365" y="437">FILE</text>
   <rect x="425" y="419" width="128" height="32"/>
   <rect x="423" y="417" width="128" height="32" class="nonterminal"/>
   <text class="nonterminal" x="433" y="437">schema_file_path</text>
   <rect x="357" y="463" width="108" height="32"/>
   <rect x="355" y="461" width="108" height="32" class="nonterminal"/>
   <text class="nonterminal" x="365" y="481">inline_schema</text>
   <path class="line"
         d="m17 17 h2 m0 0 h10 m74 0 h10 m20 0 h10 m0 0 h130 m-160 0 h20 m140 0 h20 m-180 0 q10 0 10 10 m160 0 q0 -10 10 -10 m-170 10 v12 m160 0 v-12 m-160 12 q0 10 10 10 m140 0 q10 0 10 -10 m-150 10 h10 m120 0 h10 m20 -32 h10 m78 0 h10 m20 0 h10 m0 0 h128 m-158 0 h20 m138 0 h20 m-178 0 q10 0 10 10 m158 0 q0 -10 10 -10 m-168 10 v12 m158 0 v-12 m-158 12 q0 10 10 10 m138 0 q10 0 10 -10 m-148 10 h10 m118 0 h10 m22 -32 l2 0 m2 0 l2 0 m2 0 l2 0 m-580 142 l2 0 m2 0 l2 0 m2 0 l2 0 m2 0 h10 m80 0 h10 m20 0 h10 m24 0 h10 m20 0 h10 m80 0 h10 m-120 0 l20 0 m-1 0 q-9 0 -9 -10 l0 -24 q0 -10 10 -10 m100 44 l20 0 m-20 0 q10 0 10 -10 l0 -24 q0 -10 -10 -10 m-100 0 h10 m24 0 h10 m0 0 h56 m20 44 h10 m24 0 h10 m-248 0 h20 m228 0 h20 m-268 0 q10 0 10 10 m248 0 q0 -10 10 -10 m-258 10 v14 m248 0 v-14 m-248 14 q0 10 10 10 m228 0 q10 0 10 -10 m-238 10 h10 m0 0 h218 m20 -34 h10 m60 0 h10 m0 0 h10 m106 0 h10 m2 0 l2 0 m2 0 l2 0 m2 0 l2 0 m-597 126 l2 0 m2 0 l2 0 m2 0 l2 0 m2 0 h10 m40 0 h10 m20 0 h10 m56 0 h10 m0 0 h10 m24 0 h10 m20 0 h10 m46 0 h10 m0 0 h10 m26 0 h10 m0 0 h10 m38 0 h10 m-190 0 l20 0 m-1 0 q-9 0 -9 -10 l0 -24 q0 -10 10 -10 m170 44 l20 0 m-20 0 q10 0 10 -10 l0 -24 q0 -10 -10 -10 m-170 0 h10 m24 0 h10 m0 0 h126 m20 44 h10 m24 0 h10 m-394 0 h20 m374 0 h20 m-414 0 q10 0 10 10 m394 0 q0 -10 10 -10 m-404 10 v14 m394 0 v-14 m-394 14 q0 10 10 10 m374 0 q10 0 10 -10 m-384 10 h10 m0 0 h364 m20 -34 h10 m78 0 h10 m2 0 l2 0 m2 0 l2 0 m2 0 l2 0 m-545 82 l2 0 m2 0 l2 0 m2 0 l2 0 m2 0 h10 m168 0 h10 m0 0 h10 m116 0 h10 m0 0 h10 m126 0 h10 m2 0 l2 0 m2 0 l2 0 m2 0 l2 0 m-234 66 l2 0 m2 0 l2 0 m2 0 l2 0 m22 0 h10 m48 0 h10 m0 0 h10 m128 0 h10 m-236 0 h20 m216 0 h20 m-256 0 q10 0 10 10 m236 0 q0 -10 10 -10 m-246 10 v24 m236 0 v-24 m-236 24 q0 10 10 10 m216 0 q10 0 10 -10 m-226 10 h10 m108 0 h10 m0 0 h88 m23 -44 h-3"/>
   <polygon points="591 433 599 429 599 437"/>
   <polygon points="591 433 583 429 583 437"/>
</svg>
