<svg xmlns="http://www.w3.org/2000/svg" width="601" height="785">
   <polygon points="9 17 1 13 1 21"/>
   <polygon points="17 17 9 13 9 21"/>
   <rect x="31" y="3" width="76" height="32" rx="10"/>
   <rect x="29"
         y="1"
         width="76"
         height="32"
         class="terminal"
         rx="10"/>
   <text class="terminal" x="39" y="21">CREATE</text>
   <rect x="147" y="35" width="124" height="32" rx="10"/>
   <rect x="145"
         y="33"
         width="124"
         height="32"
         class="terminal"
         rx="10"/>
   <text class="terminal" x="155" y="53">MATERIALIZED</text>
   <rect x="311" y="3" width="78" height="32" rx="10"/>
   <rect x="309"
         y="1"
         width="78"
         height="32"
         class="terminal"
         rx="10"/>
   <text class="terminal" x="319" y="21">SOURCE</text>
   <rect x="429" y="35" width="120" height="32" rx="10"/>
   <rect x="427"
         y="33"
         width="120"
         height="32"
         class="terminal"
         rx="10"/>
   <text class="terminal" x="437" y="53">IF NOT EXISTS</text>
   <rect x="261" y="101" width="82" height="32"/>
   <rect x="259" y="99" width="82" height="32" class="nonterminal"/>
   <text class="nonterminal" x="269" y="119">src_name</text>
   <rect x="45" y="211" width="26" height="32" rx="10"/>
   <rect x="43"
         y="209"
         width="26"
         height="32"
         class="terminal"
         rx="10"/>
   <text class="terminal" x="53" y="229">(</text>
   <rect x="111" y="211" width="82" height="32"/>
   <rect x="109" y="209" width="82" height="32" class="nonterminal"/>
   <text class="nonterminal" x="119" y="229">col_name</text>
   <rect x="111" y="167" width="24" height="32" rx="10"/>
   <rect x="109"
         y="165"
         width="24"
         height="32"
         class="terminal"
         rx="10"/>
   <text class="terminal" x="119" y="185">,</text>
   <rect x="253" y="243" width="24" height="32" rx="10"/>
   <rect x="251"
         y="241"
         width="24"
         height="32"
         class="terminal"
         rx="10"/>
   <text class="terminal" x="261" y="261">,</text>
   <rect x="297" y="243" width="116" height="32"/>
   <rect x="295" y="241" width="116" height="32" class="nonterminal"/>
   <text class="nonterminal" x="305" y="261">key_constraint</text>
   <rect x="453" y="211" width="26" height="32" rx="10"/>
   <rect x="451"
         y="209"
         width="26"
         height="32"
         class="terminal"
         rx="10"/>
   <text class="terminal" x="461" y="229">)</text>
   <rect x="519" y="211" width="60" height="32" rx="10"/>
   <rect x="517"
         y="209"
         width="60"
         height="32"
         class="terminal"
         rx="10"/>
   <text class="terminal" x="527" y="229">FROM</text>
   <rect x="27" y="325" width="38" height="32" rx="10"/>
   <rect x="25"
         y="323"
         width="38"
         height="32"
         class="terminal"
         rx="10"/>
   <text class="terminal" x="35" y="343">S3</text>
   <rect x="85" y="325" width="162" height="32" rx="10"/>
   <rect x="83"
         y="323"
         width="162"
         height="32"
         class="terminal"
         rx="10"/>
   <text class="terminal" x="93" y="343">DISCOVER OBJECTS</text>
   <rect x="287" y="357" width="98" height="32" rx="10"/>
   <rect x="285"
         y="355"
         width="98"
         height="32"
         class="terminal"
         rx="10"/>
   <text class="terminal" x="295" y="375">MATCHING</text>
   <rect x="405" y="357" width="68" height="32"/>
   <rect x="403" y="355" width="68" height="32" class="nonterminal"/>
   <text class="nonterminal" x="413" y="375">pattern</text>
   <rect x="513" y="325" width="64" height="32" rx="10"/>
   <rect x="511"
         y="323"
         width="64"
         height="32"
         class="terminal"
         rx="10"/>
   <text class="terminal" x="521" y="343">USING</text>
   <rect x="158" y="467" width="122" height="32" rx="10"/>
   <rect x="156"
         y="465"
         width="122"
         height="32"
         class="terminal"
         rx="10"/>
   <text class="terminal" x="166" y="485">BUCKET SCAN</text>
   <rect x="300" y="467" width="108" height="32"/>
   <rect x="298" y="465" width="108" height="32" class="nonterminal"/>
   <text class="nonterminal" x="308" y="485">bucket_name</text>
   <rect x="158" y="511" width="164" height="32" rx="10"/>
   <rect x="156"
         y="509"
         width="164"
         height="32"
         class="terminal"
         rx="10"/>
   <text class="terminal" x="166" y="529">SQS NOTIFICATIONS</text>
   <rect x="342" y="511" width="104" height="32"/>
   <rect x="340" y="509" width="104" height="32" class="nonterminal"/>
   <text class="nonterminal" x="350" y="529">queue_name</text>
   <rect x="138" y="423" width="24" height="32" rx="10"/>
   <rect x="136"
         y="421"
         width="24"
         height="32"
         class="terminal"
         rx="10"/>
   <text class="terminal" x="146" y="441">,</text>
   <rect x="49" y="609" width="124" height="32" rx="10"/>
   <rect x="47"
         y="607"
         width="124"
         height="32"
         class="terminal"
         rx="10"/>
   <text class="terminal" x="57" y="627">COMPRESSION</text>
   <rect x="213" y="609" width="60" height="32" rx="10"/>
   <rect x="211"
         y="607"
         width="60"
         height="32"
         class="terminal"
         rx="10"/>
   <text class="terminal" x="221" y="627">NONE</text>
   <rect x="213" y="653" width="52" height="32" rx="10"/>
   <rect x="211"
         y="651"
         width="52"
         height="32"
         class="terminal"
         rx="10"/>
   <text class="terminal" x="221" y="671">GZIP</text>
   <rect x="353" y="609" width="102" height="32"/>
   <rect x="351" y="607" width="102" height="32" class="nonterminal"/>
   <text class="nonterminal" x="361" y="627">with_options</text>
   <rect x="495" y="577" width="80" height="32" rx="10"/>
   <rect x="493"
         y="575"
         width="80"
         height="32"
         class="terminal"
         rx="10"/>
   <text class="terminal" x="503" y="595">FORMAT</text>
   <rect x="273" y="719" width="102" height="32"/>
   <rect x="271" y="717" width="102" height="32" class="nonterminal"/>
   <text class="nonterminal" x="281" y="737">format_spec</text>
   <rect x="415" y="751" width="138" height="32" rx="10"/>
   <rect x="413"
         y="749"
         width="138"
         height="32"
         class="terminal"
         rx="10"/>
   <text class="terminal" x="423" y="769">ENVELOPE NONE</text>
   <path class="line"
         d="m17 17 h2 m0 0 h10 m76 0 h10 m20 0 h10 m0 0 h134 m-164 0 h20 m144 0 h20 m-184 0 q10 0 10 10 m164 0 q0 -10 10 -10 m-174 10 v12 m164 0 v-12 m-164 12 q0 10 10 10 m144 0 q10 0 10 -10 m-154 10 h10 m124 0 h10 m20 -32 h10 m78 0 h10 m20 0 h10 m0 0 h130 m-160 0 h20 m140 0 h20 m-180 0 q10 0 10 10 m160 0 q0 -10 10 -10 m-170 10 v12 m160 0 v-12 m-160 12 q0 10 10 10 m140 0 q10 0 10 -10 m-150 10 h10 m120 0 h10 m22 -32 l2 0 m2 0 l2 0 m2 0 l2 0 m-352 98 l2 0 m2 0 l2 0 m2 0 l2 0 m2 0 h10 m82 0 h10 m2 0 l2 0 m2 0 l2 0 m2 0 l2 0 m-362 110 l2 0 m2 0 l2 0 m2 0 l2 0 m22 0 h10 m26 0 h10 m20 0 h10 m82 0 h10 m-122 0 l20 0 m-1 0 q-9 0 -9 -10 l0 -24 q0 -10 10 -10 m102 44 l20 0 m-20 0 q10 0 10 -10 l0 -24 q0 -10 -10 -10 m-102 0 h10 m24 0 h10 m0 0 h58 m40 44 h10 m0 0 h170 m-200 0 h20 m180 0 h20 m-220 0 q10 0 10 10 m200 0 q0 -10 10 -10 m-210 10 v12 m200 0 v-12 m-200 12 q0 10 10 10 m180 0 q10 0 10 -10 m-190 10 h10 m24 0 h10 m0 0 h10 m116 0 h10 m20 -32 h10 m26 0 h10 m-474 0 h20 m454 0 h20 m-494 0 q10 0 10 10 m474 0 q0 -10 10 -10 m-484 10 v46 m474 0 v-46 m-474 46 q0 10 10 10 m454 0 q10 0 10 -10 m-464 10 h10 m0 0 h444 m20 -66 h10 m60 0 h10 m2 0 l2 0 m2 0 l2 0 m2 0 l2 0 m-596 114 l2 0 m2 0 l2 0 m2 0 l2 0 m2 0 h10 m38 0 h10 m0 0 h10 m162 0 h10 m20 0 h10 m0 0 h196 m-226 0 h20 m206 0 h20 m-246 0 q10 0 10 10 m226 0 q0 -10 10 -10 m-236 10 v12 m226 0 v-12 m-226 12 q0 10 10 10 m206 0 q10 0 10 -10 m-216 10 h10 m98 0 h10 m0 0 h10 m68 0 h10 m20 -32 h10 m64 0 h10 m2 0 l2 0 m2 0 l2 0 m2 0 l2 0 m-503 142 l2 0 m2 0 l2 0 m2 0 l2 0 m42 0 h10 m122 0 h10 m0 0 h10 m108 0 h10 m0 0 h38 m-328 0 h20 m308 0 h20 m-348 0 q10 0 10 10 m328 0 q0 -10 10 -10 m-338 10 v24 m328 0 v-24 m-328 24 q0 10 10 10 m308 0 q10 0 10 -10 m-318 10 h10 m164 0 h10 m0 0 h10 m104 0 h10 m-348 -44 l20 0 m-1 0 q-9 0 -9 -10 l0 -24 q0 -10 10 -10 m348 44 l20 0 m-20 0 q10 0 10 -10 l0 -24 q0 -10 -10 -10 m-348 0 h10 m24 0 h10 m0 0 h304 m22 44 l2 0 m2 0 l2 0 m2 0 l2 0 m-501 110 l2 0 m2 0 l2 0 m2 0 l2 0 m22 0 h10 m0 0 h254 m-284 0 h20 m264 0 h20 m-304 0 q10 0 10 10 m284 0 q0 -10 10 -10 m-294 10 v12 m284 0 v-12 m-284 12 q0 10 10 10 m264 0 q10 0 10 -10 m-274 10 h10 m124 0 h10 m20 0 h10 m60 0 h10 m-100 0 h20 m80 0 h20 m-120 0 q10 0 10 10 m100 0 q0 -10 10 -10 m-110 10 v24 m100 0 v-24 m-100 24 q0 10 10 10 m80 0 q10 0 10 -10 m-90 10 h10 m52 0 h10 m0 0 h8 m60 -76 h10 m0 0 h112 m-142 0 h20 m122 0 h20 m-162 0 q10 0 10 10 m142 0 q0 -10 10 -10 m-152 10 v12 m142 0 v-12 m-142 12 q0 10 10 10 m122 0 q10 0 10 -10 m-132 10 h10 m102 0 h10 m20 -32 h10 m80 0 h10 m2 0 l2 0 m2 0 l2 0 m2 0 l2 0 m-346 142 l2 0 m2 0 l2 0 m2 0 l2 0 m2 0 h10 m102 0 h10 m20 0 h10 m0 0 h148 m-178 0 h20 m158 0 h20 m-198 0 q10 0 10 10 m178 0 q0 -10 10 -10 m-188 10 v12 m178 0 v-12 m-178 12 q0 10 10 10 m158 0 q10 0 10 -10 m-168 10 h10 m138 0 h10 m23 -32 h-3"/>
   <polygon points="591 733 599 729 599 737"/>
   <polygon points="591 733 583 729 583 737"/>
</svg>
