<svg xmlns="http://www.w3.org/2000/svg" width="535" height="147">
   <polygon points="9 17 1 13 1 21"/>
   <polygon points="17 17 9 13 9 21"/>
   <rect x="31" y="3" width="74" height="32" rx="10"/>
   <rect x="29"
         y="1"
         width="74"
         height="32"
         class="terminal"
         rx="10"/>
   <text class="terminal" x="39" y="21">CREATE</text>
   <rect x="125" y="3" width="62" height="32" rx="10"/>
   <rect x="123"
         y="1"
         width="62"
         height="32"
         class="terminal"
         rx="10"/>
   <text class="terminal" x="133" y="21">INDEX</text>
   <rect x="207" y="3" width="94" height="32"/>
   <rect x="205" y="1" width="94" height="32" class="nonterminal"/>
   <text class="nonterminal" x="215" y="21">index_name</text>
   <rect x="321" y="3" width="40" height="32" rx="10"/>
   <rect x="319"
         y="1"
         width="40"
         height="32"
         class="terminal"
         rx="10"/>
   <text class="terminal" x="329" y="21">ON</text>
   <rect x="381" y="3" width="88" height="32"/>
   <rect x="379" y="1" width="88" height="32" class="nonterminal"/>
   <text class="nonterminal" x="389" y="21">view_name</text>
   <rect x="489" y="3" width="24" height="32" rx="10"/>
   <rect x="487"
         y="1"
         width="24"
         height="32"
         class="terminal"
         rx="10"/>
   <text class="terminal" x="497" y="21">(</text>
   <rect x="381" y="113" width="62" height="32"/>
   <rect x="379" y="111" width="62" height="32" class="nonterminal"/>
   <text class="nonterminal" x="389" y="131">col_ref</text>
   <rect x="381" y="69" width="24" height="32" rx="10"/>
   <rect x="379"
         y="67"
         width="24"
         height="32"
         class="terminal"
         rx="10"/>
   <text class="terminal" x="389" y="87">,</text>
   <rect x="483" y="113" width="24" height="32" rx="10"/>
   <rect x="481"
         y="111"
         width="24"
         height="32"
         class="terminal"
         rx="10"/>
   <text class="terminal" x="491" y="131">)</text>
   <path class="line"
         d="m17 17 h2 m0 0 h10 m74 0 h10 m0 0 h10 m62 0 h10 m0 0 h10 m94 0 h10 m0 0 h10 m40 0 h10 m0 0 h10 m88 0 h10 m0 0 h10 m24 0 h10 m2 0 l2 0 m2 0 l2 0 m2 0 l2 0 m-196 110 l2 0 m2 0 l2 0 m2 0 l2 0 m22 0 h10 m62 0 h10 m-102 0 l20 0 m-1 0 q-9 0 -9 -10 l0 -24 q0 -10 10 -10 m82 44 l20 0 m-20 0 q10 0 10 -10 l0 -24 q0 -10 -10 -10 m-82 0 h10 m24 0 h10 m0 0 h38 m20 44 h10 m24 0 h10 m3 0 h-3"/>
   <polygon points="525 127 533 123 533 131"/>
   <polygon points="525 127 517 123 517 131"/>
</svg>
