<svg xmlns="http://www.w3.org/2000/svg" width="775" height="155">
   <polygon points="11 17 3 13 3 21"/>
   <polygon points="19 17 11 13 11 21"/>
   <rect x="33" y="3" width="90" height="32" rx="10"/>
   <rect x="31"
         y="1"
         width="90"
         height="32"
         class="terminal"
         rx="10"/>
   <text class="terminal" x="41" y="21">'host:port'</text>
   <rect x="45" y="89" width="64" height="32" rx="10"/>
   <rect x="43"
         y="87"
         width="64"
         height="32"
         class="terminal"
         rx="10"/>
   <text class="terminal" x="53" y="107">USING</text>
   <rect x="129" y="89" width="54" height="32" rx="10"/>
   <rect x="127"
         y="87"
         width="54"
         height="32"
         class="terminal"
         rx="10"/>
   <text class="terminal" x="137" y="107">AWS</text>
   <rect x="203" y="89" width="112" height="32" rx="10"/>
   <rect x="201"
         y="87"
         width="112"
         height="32"
         class="terminal"
         rx="10"/>
   <text class="terminal" x="211" y="107">PRIVATELINK</text>
   <rect x="335" y="89" width="92" height="32"/>
   <rect x="333" y="87" width="92" height="32" class="nonterminal"/>
   <text class="nonterminal" x="343" y="107">connection</text>
   <rect x="467" y="121" width="26" height="32" rx="10"/>
   <rect x="465"
         y="119"
         width="26"
         height="32"
         class="terminal"
         rx="10"/>
   <text class="terminal" x="475" y="139">(</text>
   <rect x="513" y="121" width="58" height="32" rx="10"/>
   <rect x="511"
         y="119"
         width="58"
         height="32"
         class="terminal"
         rx="10"/>
   <text class="terminal" x="521" y="139">PORT</text>
   <rect x="591" y="121" width="70" height="32"/>
   <rect x="589" y="119" width="70" height="32" class="nonterminal"/>
   <text class="nonterminal" x="599" y="139">number</text>
   <rect x="681" y="121" width="26" height="32" rx="10"/>
   <rect x="679"
         y="119"
         width="26"
         height="32"
         class="terminal"
         rx="10"/>
   <text class="terminal" x="689" y="139">)</text>
   <path class="line"
         d="m19 17 h2 m0 0 h10 m90 0 h10 m2 0 l2 0 m2 0 l2 0 m2 0 l2 0 m-142 54 l2 0 m2 0 l2 0 m2 0 l2 0 m22 0 h10 m0 0 h692 m-722 0 h20 m702 0 h20 m-742 0 q10 0 10 10 m722 0 q0 -10 10 -10 m-732 10 v12 m722 0 v-12 m-722 12 q0 10 10 10 m702 0 q10 0 10 -10 m-712 10 h10 m64 0 h10 m0 0 h10 m54 0 h10 m0 0 h10 m112 0 h10 m0 0 h10 m92 0 h10 m20 0 h10 m0 0 h250 m-280 0 h20 m260 0 h20 m-300 0 q10 0 10 10 m280 0 q0 -10 10 -10 m-290 10 v12 m280 0 v-12 m-280 12 q0 10 10 10 m260 0 q10 0 10 -10 m-270 10 h10 m26 0 h10 m0 0 h10 m58 0 h10 m0 0 h10 m70 0 h10 m0 0 h10 m26 0 h10 m43 -64 h-3"/>
   <polygon points="765 71 773 67 773 75"/>
   <polygon points="765 71 757 67 757 75"/>
</svg>
