<svg xmlns="http://www.w3.org/2000/svg" width="535" height="337">
   <polygon points="9 17 1 13 1 21"/>
   <polygon points="17 17 9 13 9 21"/>
   <rect x="31" y="3" width="76" height="32" rx="10"/>
   <rect x="29"
         y="1"
         width="76"
         height="32"
         class="terminal"
         rx="10"/>
   <text class="terminal" x="39" y="21">CREATE</text>
   <rect x="147" y="3" width="166" height="32" rx="10"/>
   <rect x="145"
         y="1"
         width="166"
         height="32"
         class="terminal"
         rx="10"/>
   <text class="terminal" x="155" y="21">MATERIALIZED VIEW</text>
   <rect x="353" y="35" width="120" height="32" rx="10"/>
   <rect x="351"
         y="33"
         width="120"
         height="32"
         class="terminal"
         rx="10"/>
   <text class="terminal" x="361" y="53">IF NOT EXISTS</text>
   <rect x="147" y="79" width="108" height="32" rx="10"/>
   <rect x="145"
         y="77"
         width="108"
         height="32"
         class="terminal"
         rx="10"/>
   <text class="terminal" x="155" y="97">OR REPLACE</text>
   <rect x="275" y="79" width="166" height="32" rx="10"/>
   <rect x="273"
         y="77"
         width="166"
         height="32"
         class="terminal"
         rx="10"/>
   <text class="terminal" x="283" y="97">MATERIALIZED VIEW</text>
   <rect x="88" y="189" width="92" height="32"/>
   <rect x="86" y="187" width="92" height="32" class="nonterminal"/>
   <text class="nonterminal" x="96" y="207">view_name</text>
   <rect x="220" y="189" width="26" height="32" rx="10"/>
   <rect x="218"
         y="187"
         width="26"
         height="32"
         class="terminal"
         rx="10"/>
   <text class="terminal" x="228" y="207">(</text>
   <rect x="286" y="189" width="78" height="32"/>
   <rect x="284" y="187" width="78" height="32" class="nonterminal"/>
   <text class="nonterminal" x="294" y="207">col_ident</text>
   <rect x="286" y="145" width="24" height="32" rx="10"/>
   <rect x="284"
         y="143"
         width="24"
         height="32"
         class="terminal"
         rx="10"/>
   <text class="terminal" x="294" y="163">,</text>
   <rect x="404" y="189" width="26" height="32" rx="10"/>
   <rect x="402"
         y="187"
         width="26"
         height="32"
         class="terminal"
         rx="10"/>
   <text class="terminal" x="412" y="207">)</text>
   <rect x="79" y="303" width="104" height="32" rx="10"/>
   <rect x="77"
         y="301"
         width="104"
         height="32"
         class="terminal"
         rx="10"/>
   <text class="terminal" x="87" y="321">IN CLUSTER</text>
   <rect x="203" y="303" width="108" height="32"/>
   <rect x="201" y="301" width="108" height="32" class="nonterminal"/>
   <text class="nonterminal" x="211" y="321">cluster_name</text>
   <rect x="351" y="271" width="40" height="32" rx="10"/>
   <rect x="349"
         y="269"
         width="40"
         height="32"
         class="terminal"
         rx="10"/>
   <text class="terminal" x="359" y="289">AS</text>
   <rect x="411" y="271" width="96" height="32"/>
   <rect x="409" y="269" width="96" height="32" class="nonterminal"/>
   <text class="nonterminal" x="419" y="289">select_stmt</text>
   <path class="line"
         d="m17 17 h2 m0 0 h10 m76 0 h10 m20 0 h10 m166 0 h10 m20 0 h10 m0 0 h130 m-160 0 h20 m140 0 h20 m-180 0 q10 0 10 10 m160 0 q0 -10 10 -10 m-170 10 v12 m160 0 v-12 m-160 12 q0 10 10 10 m140 0 q10 0 10 -10 m-150 10 h10 m120 0 h10 m-366 -32 h20 m366 0 h20 m-406 0 q10 0 10 10 m386 0 q0 -10 10 -10 m-396 10 v56 m386 0 v-56 m-386 56 q0 10 10 10 m366 0 q10 0 10 -10 m-376 10 h10 m108 0 h10 m0 0 h10 m166 0 h10 m0 0 h52 m22 -76 l2 0 m2 0 l2 0 m2 0 l2 0 m-469 186 l2 0 m2 0 l2 0 m2 0 l2 0 m2 0 h10 m92 0 h10 m20 0 h10 m26 0 h10 m20 0 h10 m78 0 h10 m-118 0 l20 0 m-1 0 q-9 0 -9 -10 l0 -24 q0 -10 10 -10 m98 44 l20 0 m-20 0 q10 0 10 -10 l0 -24 q0 -10 -10 -10 m-98 0 h10 m24 0 h10 m0 0 h54 m20 44 h10 m26 0 h10 m-250 0 h20 m230 0 h20 m-270 0 q10 0 10 10 m250 0 q0 -10 10 -10 m-260 10 v14 m250 0 v-14 m-250 14 q0 10 10 10 m230 0 q10 0 10 -10 m-240 10 h10 m0 0 h220 m22 -34 l2 0 m2 0 l2 0 m2 0 l2 0 m-435 82 l2 0 m2 0 l2 0 m2 0 l2 0 m22 0 h10 m0 0 h242 m-272 0 h20 m252 0 h20 m-292 0 q10 0 10 10 m272 0 q0 -10 10 -10 m-282 10 v12 m272 0 v-12 m-272 12 q0 10 10 10 m252 0 q10 0 10 -10 m-262 10 h10 m104 0 h10 m0 0 h10 m108 0 h10 m20 -32 h10 m40 0 h10 m0 0 h10 m96 0 h10 m3 0 h-3"/>
   <polygon points="525 285 533 281 533 289"/>
   <polygon points="525 285 517 281 517 289"/>
</svg>
