<svg xmlns="http://www.w3.org/2000/svg" width="603" height="993">
   <polygon points="9 17 1 13 1 21"/>
   <polygon points="17 17 9 13 9 21"/>
   <rect x="31" y="3" width="76" height="32" rx="10"/>
   <rect x="29"
         y="1"
         width="76"
         height="32"
         class="terminal"
         rx="10"/>
   <text class="terminal" x="39" y="21">CREATE</text>
   <rect x="147" y="35" width="124" height="32" rx="10"/>
   <rect x="145"
         y="33"
         width="124"
         height="32"
         class="terminal"
         rx="10"/>
   <text class="terminal" x="155" y="53">MATERIALIZED</text>
   <rect x="311" y="3" width="78" height="32" rx="10"/>
   <rect x="309"
         y="1"
         width="78"
         height="32"
         class="terminal"
         rx="10"/>
   <text class="terminal" x="319" y="21">SOURCE</text>
   <rect x="429" y="35" width="120" height="32" rx="10"/>
   <rect x="427"
         y="33"
         width="120"
         height="32"
         class="terminal"
         rx="10"/>
   <text class="terminal" x="437" y="53">IF NOT EXISTS</text>
   <rect x="262" y="101" width="82" height="32"/>
   <rect x="260" y="99" width="82" height="32" class="nonterminal"/>
   <text class="nonterminal" x="270" y="119">src_name</text>
   <rect x="46" y="211" width="26" height="32" rx="10"/>
   <rect x="44"
         y="209"
         width="26"
         height="32"
         class="terminal"
         rx="10"/>
   <text class="terminal" x="54" y="229">(</text>
   <rect x="112" y="211" width="82" height="32"/>
   <rect x="110" y="209" width="82" height="32" class="nonterminal"/>
   <text class="nonterminal" x="120" y="229">col_name</text>
   <rect x="112" y="167" width="24" height="32" rx="10"/>
   <rect x="110"
         y="165"
         width="24"
         height="32"
         class="terminal"
         rx="10"/>
   <text class="terminal" x="120" y="185">,</text>
   <rect x="254" y="243" width="24" height="32" rx="10"/>
   <rect x="252"
         y="241"
         width="24"
         height="32"
         class="terminal"
         rx="10"/>
   <text class="terminal" x="262" y="261">,</text>
   <rect x="298" y="243" width="116" height="32"/>
   <rect x="296" y="241" width="116" height="32" class="nonterminal"/>
   <text class="nonterminal" x="306" y="261">key_constraint</text>
   <rect x="454" y="211" width="26" height="32" rx="10"/>
   <rect x="452"
         y="209"
         width="26"
         height="32"
         class="terminal"
         rx="10"/>
   <text class="terminal" x="462" y="229">)</text>
   <rect x="520" y="211" width="60" height="32" rx="10"/>
   <rect x="518"
         y="209"
         width="60"
         height="32"
         class="terminal"
         rx="10"/>
   <text class="terminal" x="528" y="229">FROM</text>
   <rect x="25" y="325" width="130" height="32" rx="10"/>
   <rect x="23"
         y="323"
         width="130"
         height="32"
         class="terminal"
         rx="10"/>
   <text class="terminal" x="33" y="343">KAFKA BROKER</text>
   <rect x="175" y="325" width="48" height="32"/>
   <rect x="173" y="323" width="48" height="32" class="nonterminal"/>
   <text class="nonterminal" x="183" y="343">host</text>
   <rect x="243" y="325" width="64" height="32" rx="10"/>
   <rect x="241"
         y="323"
         width="64"
         height="32"
         class="terminal"
         rx="10"/>
   <text class="terminal" x="251" y="343">TOPIC</text>
   <rect x="347" y="357" width="52" height="32"/>
   <rect x="345" y="355" width="52" height="32" class="nonterminal"/>
   <text class="nonterminal" x="355" y="375">topic</text>
   <rect x="459" y="357" width="102" height="32"/>
   <rect x="457" y="355" width="102" height="32" class="nonterminal"/>
   <text class="nonterminal" x="467" y="375">with_options</text>
   <rect x="109" y="423" width="114" height="32" rx="10"/>
   <rect x="107"
         y="421"
         width="114"
         height="32"
         class="terminal"
         rx="10"/>
   <text class="terminal" x="117" y="441">KEY FORMAT</text>
   <rect x="243" y="423" width="102" height="32"/>
   <rect x="241" y="421" width="102" height="32" class="nonterminal"/>
   <text class="nonterminal" x="251" y="441">format_spec</text>
   <rect x="365" y="423" width="132" height="32" rx="10"/>
   <rect x="363"
         y="421"
         width="132"
         height="32"
         class="terminal"
         rx="10"/>
   <text class="terminal" x="373" y="441">VALUE FORMAT</text>
   <rect x="109" y="467" width="80" height="32" rx="10"/>
   <rect x="107"
         y="465"
         width="80"
         height="32"
         class="terminal"
         rx="10"/>
   <text class="terminal" x="117" y="485">FORMAT</text>
   <rect x="38" y="533" width="170" height="32" rx="10"/>
   <rect x="36"
         y="531"
         width="170"
         height="32"
         class="terminal"
         rx="10"/>
   <text class="terminal" x="46" y="551">PROTOBUF MESSAGE</text>
   <rect x="228" y="533" width="122" height="32"/>
   <rect x="226" y="531" width="122" height="32" class="nonterminal"/>
   <text class="nonterminal" x="236" y="551">message_name</text>
   <rect x="370" y="533" width="130" height="32" rx="10"/>
   <rect x="368"
         y="531"
         width="130"
         height="32"
         class="terminal"
         rx="10"/>
   <text class="terminal" x="378" y="551">USING SCHEMA</text>
   <rect x="520" y="533" width="48" height="32" rx="10"/>
   <rect x="518"
         y="531"
         width="48"
         height="32"
         class="terminal"
         rx="10"/>
   <text class="terminal" x="528" y="551">FILE</text>
   <rect x="237" y="599" width="132" height="32"/>
   <rect x="235" y="597" width="132" height="32" class="nonterminal"/>
   <text class="nonterminal" x="245" y="617">schema_file_path</text>
   <rect x="71" y="681" width="82" height="32" rx="10"/>
   <rect x="69"
         y="679"
         width="82"
         height="32"
         class="terminal"
         rx="10"/>
   <text class="terminal" x="79" y="699">INCLUDE</text>
   <rect x="213" y="681" width="48" height="32" rx="10"/>
   <rect x="211"
         y="679"
         width="48"
         height="32"
         class="terminal"
         rx="10"/>
   <text class="terminal" x="221" y="699">KEY</text>
   <rect x="213" y="725" width="96" height="32" rx="10"/>
   <rect x="211"
         y="723"
         width="96"
         height="32"
         class="terminal"
         rx="10"/>
   <text class="terminal" x="221" y="743">PARTITION</text>
   <rect x="213" y="769" width="74" height="32" rx="10"/>
   <rect x="211"
         y="767"
         width="74"
         height="32"
         class="terminal"
         rx="10"/>
   <text class="terminal" x="221" y="787">OFFSET</text>
   <rect x="213" y="813" width="106" height="32" rx="10"/>
   <rect x="211"
         y="811"
         width="106"
         height="32"
         class="terminal"
         rx="10"/>
   <text class="terminal" x="221" y="831">TIMESTAMP</text>
   <rect x="379" y="713" width="40" height="32" rx="10"/>
   <rect x="377"
         y="711"
         width="40"
         height="32"
         class="terminal"
         rx="10"/>
   <text class="terminal" x="387" y="731">AS</text>
   <rect x="439" y="713" width="56" height="32"/>
   <rect x="437" y="711" width="56" height="32" class="nonterminal"/>
   <text class="nonterminal" x="447" y="731">name</text>
   <rect x="325" y="915" width="94" height="32" rx="10"/>
   <rect x="323"
         y="913"
         width="94"
         height="32"
         class="terminal"
         rx="10"/>
   <text class="terminal" x="333" y="933">ENVELOPE</text>
   <rect x="459" y="915" width="60" height="32" rx="10"/>
   <rect x="457"
         y="913"
         width="60"
         height="32"
         class="terminal"
         rx="10"/>
   <text class="terminal" x="467" y="933">NONE</text>
   <rect x="459" y="959" width="76" height="32" rx="10"/>
   <rect x="457"
         y="957"
         width="76"
         height="32"
         class="terminal"
         rx="10"/>
   <text class="terminal" x="467" y="977">UPSERT</text>
   <path class="line"
         d="m17 17 h2 m0 0 h10 m76 0 h10 m20 0 h10 m0 0 h134 m-164 0 h20 m144 0 h20 m-184 0 q10 0 10 10 m164 0 q0 -10 10 -10 m-174 10 v12 m164 0 v-12 m-164 12 q0 10 10 10 m144 0 q10 0 10 -10 m-154 10 h10 m124 0 h10 m20 -32 h10 m78 0 h10 m20 0 h10 m0 0 h130 m-160 0 h20 m140 0 h20 m-180 0 q10 0 10 10 m160 0 q0 -10 10 -10 m-170 10 v12 m160 0 v-12 m-160 12 q0 10 10 10 m140 0 q10 0 10 -10 m-150 10 h10 m120 0 h10 m22 -32 l2 0 m2 0 l2 0 m2 0 l2 0 m-351 98 l2 0 m2 0 l2 0 m2 0 l2 0 m2 0 h10 m82 0 h10 m2 0 l2 0 m2 0 l2 0 m2 0 l2 0 m-362 110 l2 0 m2 0 l2 0 m2 0 l2 0 m22 0 h10 m26 0 h10 m20 0 h10 m82 0 h10 m-122 0 l20 0 m-1 0 q-9 0 -9 -10 l0 -24 q0 -10 10 -10 m102 44 l20 0 m-20 0 q10 0 10 -10 l0 -24 q0 -10 -10 -10 m-102 0 h10 m24 0 h10 m0 0 h58 m40 44 h10 m0 0 h170 m-200 0 h20 m180 0 h20 m-220 0 q10 0 10 10 m200 0 q0 -10 10 -10 m-210 10 v12 m200 0 v-12 m-200 12 q0 10 10 10 m180 0 q10 0 10 -10 m-190 10 h10 m24 0 h10 m0 0 h10 m116 0 h10 m20 -32 h10 m26 0 h10 m-474 0 h20 m454 0 h20 m-494 0 q10 0 10 10 m474 0 q0 -10 10 -10 m-484 10 v46 m474 0 v-46 m-474 46 q0 10 10 10 m454 0 q10 0 10 -10 m-464 10 h10 m0 0 h444 m20 -66 h10 m60 0 h10 m2 0 l2 0 m2 0 l2 0 m2 0 l2 0 m-599 114 l2 0 m2 0 l2 0 m2 0 l2 0 m2 0 h10 m130 0 h10 m0 0 h10 m48 0 h10 m0 0 h10 m64 0 h10 m20 0 h10 m0 0 h62 m-92 0 h20 m72 0 h20 m-112 0 q10 0 10 10 m92 0 q0 -10 10 -10 m-102 10 v12 m92 0 v-12 m-92 12 q0 10 10 10 m72 0 q10 0 10 -10 m-82 10 h10 m52 0 h10 m40 -32 h10 m0 0 h112 m-142 0 h20 m122 0 h20 m-162 0 q10 0 10 10 m142 0 q0 -10 10 -10 m-152 10 v12 m142 0 v-12 m-142 12 q0 10 10 10 m122 0 q10 0 10 -10 m-132 10 h10 m102 0 h10 m22 -32 l2 0 m2 0 l2 0 m2 0 l2 0 m-536 98 l2 0 m2 0 l2 0 m2 0 l2 0 m22 0 h10 m114 0 h10 m0 0 h10 m102 0 h10 m0 0 h10 m132 0 h10 m-428 0 h20 m408 0 h20 m-448 0 q10 0 10 10 m428 0 q0 -10 10 -10 m-438 10 v24 m428 0 v-24 m-428 24 q0 10 10 10 m408 0 q10 0 10 -10 m-418 10 h10 m80 0 h10 m0 0 h308 m22 -44 l2 0 m2 0 l2 0 m2 0 l2 0 m-523 110 l2 0 m2 0 l2 0 m2 0 l2 0 m2 0 h10 m170 0 h10 m0 0 h10 m122 0 h10 m0 0 h10 m130 0 h10 m0 0 h10 m48 0 h10 m2 0 l2 0 m2 0 l2 0 m2 0 l2 0 m-375 66 l2 0 m2 0 l2 0 m2 0 l2 0 m2 0 h10 m132 0 h10 m2 0 l2 0 m2 0 l2 0 m2 0 l2 0 m-362 82 l2 0 m2 0 l2 0 m2 0 l2 0 m22 0 h10 m82 0 h10 m40 0 h10 m48 0 h10 m0 0 h58 m-146 0 h20 m126 0 h20 m-166 0 q10 0 10 10 m146 0 q0 -10 10 -10 m-156 10 v24 m146 0 v-24 m-146 24 q0 10 10 10 m126 0 q10 0 10 -10 m-136 10 h10 m96 0 h10 m0 0 h10 m-136 -10 v20 m146 0 v-20 m-146 20 v24 m146 0 v-24 m-146 24 q0 10 10 10 m126 0 q10 0 10 -10 m-136 10 h10 m74 0 h10 m0 0 h32 m-136 -10 v20 m146 0 v-20 m-146 20 v24 m146 0 v-24 m-146 24 q0 10 10 10 m126 0 q10 0 10 -10 m-136 10 h10 m106 0 h10 m40 -132 h10 m0 0 h126 m-156 0 h20 m136 0 h20 m-176 0 q10 0 10 10 m156 0 q0 -10 10 -10 m-166 10 v12 m156 0 v-12 m-156 12 q0 10 10 10 m136 0 q10 0 10 -10 m-146 10 h10 m40 0 h10 m0 0 h10 m56 0 h10 m-342 -32 l20 0 m-1 0 q-9 0 -9 -10 l0 -12 q0 -10 10 -10 m342 32 l20 0 m-20 0 q10 0 10 -10 l0 -12 q0 -10 -10 -10 m-342 0 h10 m0 0 h332 m-484 32 h20 m484 0 h20 m-524 0 q10 0 10 10 m504 0 q0 -10 10 -10 m-514 10 v146 m504 0 v-146 m-504 146 q0 10 10 10 m484 0 q10 0 10 -10 m-494 10 h10 m0 0 h474 m22 -166 l2 0 m2 0 l2 0 m2 0 l2 0 m-294 202 l2 0 m2 0 l2 0 m2 0 l2 0 m22 0 h10 m0 0 h240 m-270 0 h20 m250 0 h20 m-290 0 q10 0 10 10 m270 0 q0 -10 10 -10 m-280 10 v12 m270 0 v-12 m-270 12 q0 10 10 10 m250 0 q10 0 10 -10 m-260 10 h10 m94 0 h10 m20 0 h10 m60 0 h10 m0 0 h16 m-116 0 h20 m96 0 h20 m-136 0 q10 0 10 10 m116 0 q0 -10 10 -10 m-126 10 v24 m116 0 v-24 m-116 24 q0 10 10 10 m96 0 q10 0 10 -10 m-106 10 h10 m76 0 h10 m43 -76 h-3"/>
   <polygon points="593 897 601 893 601 901"/>
   <polygon points="593 897 585 893 585 901"/>
</svg>
