<svg xmlns="http://www.w3.org/2000/svg" width="735" height="297">
   <polygon points="11 17 3 13 3 21"/>
   <polygon points="19 17 11 13 11 21"/>
   <rect x="33" y="3" width="76" height="32" rx="10"/>
   <rect x="31"
         y="1"
         width="76"
         height="32"
         class="terminal"
         rx="10"/>
   <text class="terminal" x="41" y="21">CREATE</text>
   <rect x="149" y="35" width="60" height="32" rx="10"/>
   <rect x="147"
         y="33"
         width="60"
         height="32"
         class="terminal"
         rx="10"/>
   <text class="terminal" x="157" y="53">TEMP</text>
   <rect x="149" y="79" width="110" height="32" rx="10"/>
   <rect x="147"
         y="77"
         width="110"
         height="32"
         class="terminal"
         rx="10"/>
   <text class="terminal" x="157" y="97">TEMPORARY</text>
   <rect x="299" y="3" width="66" height="32" rx="10"/>
   <rect x="297"
         y="1"
         width="66"
         height="32"
         class="terminal"
         rx="10"/>
   <text class="terminal" x="307" y="21">VIEWS</text>
   <rect x="405" y="35" width="120" height="32" rx="10"/>
   <rect x="403"
         y="33"
         width="120"
         height="32"
         class="terminal"
         rx="10"/>
   <text class="terminal" x="413" y="53">IF NOT EXISTS</text>
   <rect x="194" y="145" width="60" height="32" rx="10"/>
   <rect x="192"
         y="143"
         width="60"
         height="32"
         class="terminal"
         rx="10"/>
   <text class="terminal" x="202" y="163">FROM</text>
   <rect x="274" y="145" width="78" height="32" rx="10"/>
   <rect x="272"
         y="143"
         width="78"
         height="32"
         class="terminal"
         rx="10"/>
   <text class="terminal" x="282" y="163">SOURCE</text>
   <rect x="372" y="145" width="26" height="32" rx="10"/>
   <rect x="370"
         y="143"
         width="26"
         height="32"
         class="terminal"
         rx="10"/>
   <text class="terminal" x="380" y="163">"</text>
   <rect x="418" y="145" width="82" height="32"/>
   <rect x="416" y="143" width="82" height="32" class="nonterminal"/>
   <text class="nonterminal" x="426" y="163">src_name</text>
   <rect x="520" y="145" width="26" height="32" rx="10"/>
   <rect x="518"
         y="143"
         width="26"
         height="32"
         class="terminal"
         rx="10"/>
   <text class="terminal" x="528" y="163">"</text>
   <rect x="45" y="231" width="26" height="32" rx="10"/>
   <rect x="43"
         y="229"
         width="26"
         height="32"
         class="terminal"
         rx="10"/>
   <text class="terminal" x="53" y="249">(</text>
   <rect x="91" y="231" width="26" height="32" rx="10"/>
   <rect x="89"
         y="229"
         width="26"
         height="32"
         class="terminal"
         rx="10"/>
   <text class="terminal" x="99" y="249">"</text>
   <rect x="137" y="231" width="122" height="32"/>
   <rect x="135" y="229" width="122" height="32" class="nonterminal"/>
   <text class="nonterminal" x="145" y="249">upstream_table</text>
   <rect x="279" y="231" width="26" height="32" rx="10"/>
   <rect x="277"
         y="229"
         width="26"
         height="32"
         class="terminal"
         rx="10"/>
   <text class="terminal" x="287" y="249">"</text>
   <rect x="345" y="263" width="38" height="32"/>
   <rect x="343" y="261" width="38" height="32" class="nonterminal"/>
   <text class="nonterminal" x="353" y="281">AS</text>
   <rect x="403" y="263" width="26" height="32" rx="10"/>
   <rect x="401"
         y="261"
         width="26"
         height="32"
         class="terminal"
         rx="10"/>
   <text class="terminal" x="411" y="281">"</text>
   <rect x="449" y="263" width="126" height="32"/>
   <rect x="447" y="261" width="126" height="32" class="nonterminal"/>
   <text class="nonterminal" x="457" y="281">new_view_name</text>
   <rect x="595" y="263" width="26" height="32" rx="10"/>
   <rect x="593"
         y="261"
         width="26"
         height="32"
         class="terminal"
         rx="10"/>
   <text class="terminal" x="603" y="281">"</text>
   <rect x="661" y="231" width="26" height="32" rx="10"/>
   <rect x="659"
         y="229"
         width="26"
         height="32"
         class="terminal"
         rx="10"/>
   <text class="terminal" x="669" y="249">)</text>
   <path class="line"
         d="m19 17 h2 m0 0 h10 m76 0 h10 m20 0 h10 m0 0 h120 m-150 0 h20 m130 0 h20 m-170 0 q10 0 10 10 m150 0 q0 -10 10 -10 m-160 10 v12 m150 0 v-12 m-150 12 q0 10 10 10 m130 0 q10 0 10 -10 m-140 10 h10 m60 0 h10 m0 0 h50 m-140 -10 v20 m150 0 v-20 m-150 20 v24 m150 0 v-24 m-150 24 q0 10 10 10 m130 0 q10 0 10 -10 m-140 10 h10 m110 0 h10 m20 -76 h10 m66 0 h10 m20 0 h10 m0 0 h130 m-160 0 h20 m140 0 h20 m-180 0 q10 0 10 10 m160 0 q0 -10 10 -10 m-170 10 v12 m160 0 v-12 m-160 12 q0 10 10 10 m140 0 q10 0 10 -10 m-150 10 h10 m120 0 h10 m22 -32 l2 0 m2 0 l2 0 m2 0 l2 0 m-395 142 l2 0 m2 0 l2 0 m2 0 l2 0 m2 0 h10 m60 0 h10 m0 0 h10 m78 0 h10 m0 0 h10 m26 0 h10 m0 0 h10 m82 0 h10 m0 0 h10 m26 0 h10 m2 0 l2 0 m2 0 l2 0 m2 0 l2 0 m-565 54 l2 0 m2 0 l2 0 m2 0 l2 0 m22 0 h10 m0 0 h652 m-682 0 h20 m662 0 h20 m-702 0 q10 0 10 10 m682 0 q0 -10 10 -10 m-692 10 v12 m682 0 v-12 m-682 12 q0 10 10 10 m662 0 q10 0 10 -10 m-672 10 h10 m26 0 h10 m0 0 h10 m26 0 h10 m0 0 h10 m122 0 h10 m0 0 h10 m26 0 h10 m20 0 h10 m0 0 h286 m-316 0 h20 m296 0 h20 m-336 0 q10 0 10 10 m316 0 q0 -10 10 -10 m-326 10 v12 m316 0 v-12 m-316 12 q0 10 10 10 m296 0 q10 0 10 -10 m-306 10 h10 m38 0 h10 m0 0 h10 m26 0 h10 m0 0 h10 m126 0 h10 m0 0 h10 m26 0 h10 m20 -32 h10 m26 0 h10 m23 -32 h-3"/>
   <polygon points="725 213 733 209 733 217"/>
   <polygon points="725 213 717 209 717 217"/>
</svg>
