<svg xmlns="http://www.w3.org/2000/svg" width="597" height="1267">
   <polygon points="9 17 1 13 1 21"/>
   <polygon points="17 17 9 13 9 21"/>
   <rect x="31" y="3" width="140" height="32" rx="10"/>
   <rect x="29"
         y="1"
         width="140"
         height="32"
         class="terminal"
         rx="10"/>
   <text class="terminal" x="39" y="21">CREATE SOURCE</text>
   <rect x="211" y="35" width="120" height="32" rx="10"/>
   <rect x="209"
         y="33"
         width="120"
         height="32"
         class="terminal"
         rx="10"/>
   <text class="terminal" x="219" y="53">IF NOT EXISTS</text>
   <rect x="371" y="3" width="82" height="32"/>
   <rect x="369" y="1" width="82" height="32" class="nonterminal"/>
   <text class="nonterminal" x="379" y="21">src_name</text>
   <rect x="83" y="145" width="26" height="32" rx="10"/>
   <rect x="81"
         y="143"
         width="26"
         height="32"
         class="terminal"
         rx="10"/>
   <text class="terminal" x="91" y="163">(</text>
   <rect x="149" y="145" width="82" height="32"/>
   <rect x="147" y="143" width="82" height="32" class="nonterminal"/>
   <text class="nonterminal" x="157" y="163">col_name</text>
   <rect x="149" y="101" width="24" height="32" rx="10"/>
   <rect x="147"
         y="99"
         width="24"
         height="32"
         class="terminal"
         rx="10"/>
   <text class="terminal" x="157" y="119">,</text>
   <rect x="291" y="177" width="24" height="32" rx="10"/>
   <rect x="289"
         y="175"
         width="24"
         height="32"
         class="terminal"
         rx="10"/>
   <text class="terminal" x="299" y="195">,</text>
   <rect x="335" y="177" width="116" height="32"/>
   <rect x="333" y="175" width="116" height="32" class="nonterminal"/>
   <text class="nonterminal" x="343" y="195">key_constraint</text>
   <rect x="491" y="145" width="26" height="32" rx="10"/>
   <rect x="489"
         y="143"
         width="26"
         height="32"
         class="terminal"
         rx="10"/>
   <text class="terminal" x="499" y="163">)</text>
   <rect x="100" y="291" width="104" height="32" rx="10"/>
   <rect x="98"
         y="289"
         width="104"
         height="32"
         class="terminal"
         rx="10"/>
   <text class="terminal" x="108" y="309">IN CLUSTER</text>
   <rect x="224" y="291" width="108" height="32"/>
   <rect x="222" y="289" width="108" height="32" class="nonterminal"/>
   <text class="nonterminal" x="232" y="309">cluster_name</text>
   <rect x="372" y="259" width="60" height="32" rx="10"/>
   <rect x="370"
         y="257"
         width="60"
         height="32"
         class="terminal"
         rx="10"/>
   <text class="terminal" x="380" y="277">FROM</text>
   <rect x="452" y="259" width="68" height="32" rx="10"/>
   <rect x="450"
         y="257"
         width="68"
         height="32"
         class="terminal"
         rx="10"/>
   <text class="terminal" x="460" y="277">KAFKA</text>
   <rect x="63" y="357" width="116" height="32" rx="10"/>
   <rect x="61"
         y="355"
         width="116"
         height="32"
         class="terminal"
         rx="10"/>
   <text class="terminal" x="71" y="375">CONNECTION</text>
   <rect x="199" y="357" width="136" height="32"/>
   <rect x="197" y="355" width="136" height="32" class="nonterminal"/>
   <text class="nonterminal" x="207" y="375">connection_name</text>
   <rect x="355" y="357" width="26" height="32" rx="10"/>
   <rect x="353"
         y="355"
         width="26"
         height="32"
         class="terminal"
         rx="10"/>
   <text class="terminal" x="363" y="375">(</text>
   <rect x="401" y="357" width="64" height="32" rx="10"/>
   <rect x="399"
         y="355"
         width="64"
         height="32"
         class="terminal"
         rx="10"/>
   <text class="terminal" x="409" y="375">TOPIC</text>
   <rect x="485" y="357" width="52" height="32"/>
   <rect x="483" y="355" width="52" height="32" class="nonterminal"/>
   <text class="nonterminal" x="493" y="375">topic</text>
   <rect x="185" y="455" width="24" height="32" rx="10"/>
   <rect x="183"
         y="453"
         width="24"
         height="32"
         class="terminal"
         rx="10"/>
   <text class="terminal" x="193" y="473">,</text>
   <rect x="229" y="455" width="140" height="32"/>
   <rect x="227" y="453" width="140" height="32" class="nonterminal"/>
   <text class="nonterminal" x="237" y="473">connection_option</text>
   <rect x="409" y="423" width="26" height="32" rx="10"/>
   <rect x="407"
         y="421"
         width="26"
         height="32"
         class="terminal"
         rx="10"/>
   <text class="terminal" x="417" y="441">)</text>
   <rect x="45" y="521" width="114" height="32" rx="10"/>
   <rect x="43"
         y="519"
         width="114"
         height="32"
         class="terminal"
         rx="10"/>
   <text class="terminal" x="53" y="539">KEY FORMAT</text>
   <rect x="179" y="521" width="102" height="32"/>
   <rect x="177" y="519" width="102" height="32" class="nonterminal"/>
   <text class="nonterminal" x="187" y="539">format_spec</text>
   <rect x="301" y="521" width="132" height="32" rx="10"/>
   <rect x="299"
         y="519"
         width="132"
         height="32"
         class="terminal"
         rx="10"/>
   <text class="terminal" x="309" y="539">VALUE FORMAT</text>
   <rect x="45" y="565" width="80" height="32" rx="10"/>
   <rect x="43"
         y="563"
         width="80"
         height="32"
         class="terminal"
         rx="10"/>
   <text class="terminal" x="53" y="583">FORMAT</text>
   <rect x="473" y="521" width="102" height="32"/>
   <rect x="471" y="519" width="102" height="32" class="nonterminal"/>
   <text class="nonterminal" x="481" y="539">format_spec</text>
   <rect x="48" y="647" width="82" height="32" rx="10"/>
   <rect x="46"
         y="645"
         width="82"
         height="32"
         class="terminal"
         rx="10"/>
   <text class="terminal" x="56" y="665">INCLUDE</text>
   <rect x="210" y="647" width="48" height="32" rx="10"/>
   <rect x="208"
         y="645"
         width="48"
         height="32"
         class="terminal"
         rx="10"/>
   <text class="terminal" x="218" y="665">KEY</text>
   <rect x="210" y="691" width="96" height="32" rx="10"/>
   <rect x="208"
         y="689"
         width="96"
         height="32"
         class="terminal"
         rx="10"/>
   <text class="terminal" x="218" y="709">PARTITION</text>
   <rect x="210" y="735" width="74" height="32" rx="10"/>
   <rect x="208"
         y="733"
         width="74"
         height="32"
         class="terminal"
         rx="10"/>
   <text class="terminal" x="218" y="753">OFFSET</text>
   <rect x="210" y="779" width="106" height="32" rx="10"/>
   <rect x="208"
         y="777"
         width="106"
         height="32"
         class="terminal"
         rx="10"/>
   <text class="terminal" x="218" y="797">TIMESTAMP</text>
   <rect x="210" y="823" width="86" height="32" rx="10"/>
   <rect x="208"
         y="821"
         width="86"
         height="32"
         class="terminal"
         rx="10"/>
   <text class="terminal" x="218" y="841">HEADERS</text>
   <rect x="376" y="679" width="40" height="32" rx="10"/>
   <rect x="374"
         y="677"
         width="40"
         height="32"
         class="terminal"
         rx="10"/>
   <text class="terminal" x="384" y="697">AS</text>
   <rect x="436" y="679" width="56" height="32"/>
   <rect x="434" y="677" width="56" height="32" class="nonterminal"/>
   <text class="nonterminal" x="444" y="697">name</text>
   <rect x="177" y="937" width="94" height="32" rx="10"/>
   <rect x="175"
         y="935"
         width="94"
         height="32"
         class="terminal"
         rx="10"/>
   <text class="terminal" x="185" y="955">ENVELOPE</text>
   <rect x="311" y="937" width="60" height="32" rx="10"/>
   <rect x="309"
         y="935"
         width="60"
         height="32"
         class="terminal"
         rx="10"/>
   <text class="terminal" x="319" y="955">NONE</text>
   <rect x="311" y="981" width="92" height="32" rx="10"/>
   <rect x="309"
         y="979"
         width="92"
         height="32"
         class="terminal"
         rx="10"/>
   <text class="terminal" x="319" y="999">DEBEZIUM</text>
   <rect x="311" y="1025" width="76" height="32" rx="10"/>
   <rect x="309"
         y="1023"
         width="76"
         height="32"
         class="terminal"
         rx="10"/>
   <text class="terminal" x="319" y="1043">UPSERT</text>
   <rect x="66" y="1107" width="76" height="32" rx="10"/>
   <rect x="64"
         y="1105"
         width="76"
         height="32"
         class="terminal"
         rx="10"/>
   <text class="terminal" x="74" y="1125">EXPOSE</text>
   <rect x="162" y="1107" width="96" height="32" rx="10"/>
   <rect x="160"
         y="1105"
         width="96"
         height="32"
         class="terminal"
         rx="10"/>
   <text class="terminal" x="170" y="1125">PROGRESS</text>
   <rect x="278" y="1107" width="40" height="32" rx="10"/>
   <rect x="276"
         y="1105"
         width="40"
         height="32"
         class="terminal"
         rx="10"/>
   <text class="terminal" x="286" y="1125">AS</text>
   <rect x="338" y="1107" width="196" height="32"/>
   <rect x="336"
         y="1105"
         width="196"
         height="32"
         class="nonterminal"/>
   <text class="nonterminal" x="346" y="1125">progress_subsource_name</text>
   <rect x="185" y="1217" width="58" height="32" rx="10"/>
   <rect x="183"
         y="1215"
         width="58"
         height="32"
         class="terminal"
         rx="10"/>
   <text class="terminal" x="193" y="1235">WITH</text>
   <rect x="263" y="1217" width="26" height="32" rx="10"/>
   <rect x="261"
         y="1215"
         width="26"
         height="32"
         class="terminal"
         rx="10"/>
   <text class="terminal" x="271" y="1235">(</text>
   <rect x="329" y="1217" width="48" height="32"/>
   <rect x="327" y="1215" width="48" height="32" class="nonterminal"/>
   <text class="nonterminal" x="337" y="1235">field</text>
   <rect x="397" y="1217" width="28" height="32" rx="10"/>
   <rect x="395"
         y="1215"
         width="28"
         height="32"
         class="terminal"
         rx="10"/>
   <text class="terminal" x="405" y="1235">=</text>
   <rect x="445" y="1217" width="38" height="32"/>
   <rect x="443" y="1215" width="38" height="32" class="nonterminal"/>
   <text class="nonterminal" x="453" y="1235">val</text>
   <rect x="329" y="1173" width="24" height="32" rx="10"/>
   <rect x="327"
         y="1171"
         width="24"
         height="32"
         class="terminal"
         rx="10"/>
   <text class="terminal" x="337" y="1191">,</text>
   <rect x="523" y="1217" width="26" height="32" rx="10"/>
   <rect x="521"
         y="1215"
         width="26"
         height="32"
         class="terminal"
         rx="10"/>
   <text class="terminal" x="531" y="1235">)</text>
   <path class="line"
         d="m17 17 h2 m0 0 h10 m140 0 h10 m20 0 h10 m0 0 h130 m-160 0 h20 m140 0 h20 m-180 0 q10 0 10 10 m160 0 q0 -10 10 -10 m-170 10 v12 m160 0 v-12 m-160 12 q0 10 10 10 m140 0 q10 0 10 -10 m-150 10 h10 m120 0 h10 m20 -32 h10 m82 0 h10 m2 0 l2 0 m2 0 l2 0 m2 0 l2 0 m-434 142 l2 0 m2 0 l2 0 m2 0 l2 0 m22 0 h10 m26 0 h10 m20 0 h10 m82 0 h10 m-122 0 l20 0 m-1 0 q-9 0 -9 -10 l0 -24 q0 -10 10 -10 m102 44 l20 0 m-20 0 q10 0 10 -10 l0 -24 q0 -10 -10 -10 m-102 0 h10 m24 0 h10 m0 0 h58 m40 44 h10 m0 0 h170 m-200 0 h20 m180 0 h20 m-220 0 q10 0 10 10 m200 0 q0 -10 10 -10 m-210 10 v12 m200 0 v-12 m-200 12 q0 10 10 10 m180 0 q10 0 10 -10 m-190 10 h10 m24 0 h10 m0 0 h10 m116 0 h10 m20 -32 h10 m26 0 h10 m-474 0 h20 m454 0 h20 m-494 0 q10 0 10 10 m474 0 q0 -10 10 -10 m-484 10 v46 m474 0 v-46 m-474 46 q0 10 10 10 m454 0 q10 0 10 -10 m-464 10 h10 m0 0 h444 m22 -66 l2 0 m2 0 l2 0 m2 0 l2 0 m-501 114 l2 0 m2 0 l2 0 m2 0 l2 0 m22 0 h10 m0 0 h242 m-272 0 h20 m252 0 h20 m-292 0 q10 0 10 10 m272 0 q0 -10 10 -10 m-282 10 v12 m272 0 v-12 m-272 12 q0 10 10 10 m252 0 q10 0 10 -10 m-262 10 h10 m104 0 h10 m0 0 h10 m108 0 h10 m20 -32 h10 m60 0 h10 m0 0 h10 m68 0 h10 m2 0 l2 0 m2 0 l2 0 m2 0 l2 0 m-501 98 l2 0 m2 0 l2 0 m2 0 l2 0 m2 0 h10 m116 0 h10 m0 0 h10 m136 0 h10 m0 0 h10 m26 0 h10 m0 0 h10 m64 0 h10 m0 0 h10 m52 0 h10 m2 0 l2 0 m2 0 l2 0 m2 0 l2 0 m-416 66 l2 0 m2 0 l2 0 m2 0 l2 0 m22 0 h10 m0 0 h194 m-224 0 h20 m204 0 h20 m-244 0 q10 0 10 10 m224 0 q0 -10 10 -10 m-234 10 v12 m224 0 v-12 m-224 12 q0 10 10 10 m204 0 q10 0 10 -10 m-214 10 h10 m24 0 h10 m0 0 h10 m140 0 h10 m20 -32 h10 m26 0 h10 m2 0 l2 0 m2 0 l2 0 m2 0 l2 0 m-454 98 l2 0 m2 0 l2 0 m2 0 l2 0 m22 0 h10 m114 0 h10 m0 0 h10 m102 0 h10 m0 0 h10 m132 0 h10 m-428 0 h20 m408 0 h20 m-448 0 q10 0 10 10 m428 0 q0 -10 10 -10 m-438 10 v24 m428 0 v-24 m-428 24 q0 10 10 10 m408 0 q10 0 10 -10 m-418 10 h10 m80 0 h10 m0 0 h308 m20 -44 h10 m102 0 h10 m2 0 l2 0 m2 0 l2 0 m2 0 l2 0 m-591 126 l2 0 m2 0 l2 0 m2 0 l2 0 m22 0 h10 m82 0 h10 m60 0 h10 m48 0 h10 m0 0 h58 m-146 0 h20 m126 0 h20 m-166 0 q10 0 10 10 m146 0 q0 -10 10 -10 m-156 10 v24 m146 0 v-24 m-146 24 q0 10 10 10 m126 0 q10 0 10 -10 m-136 10 h10 m96 0 h10 m0 0 h10 m-136 -10 v20 m146 0 v-20 m-146 20 v24 m146 0 v-24 m-146 24 q0 10 10 10 m126 0 q10 0 10 -10 m-136 10 h10 m74 0 h10 m0 0 h32 m-136 -10 v20 m146 0 v-20 m-146 20 v24 m146 0 v-24 m-146 24 q0 10 10 10 m126 0 q10 0 10 -10 m-136 10 h10 m106 0 h10 m-136 -10 v20 m146 0 v-20 m-146 20 v24 m146 0 v-24 m-146 24 q0 10 10 10 m126 0 q10 0 10 -10 m-136 10 h10 m86 0 h10 m0 0 h20 m40 -176 h10 m0 0 h126 m-156 0 h20 m136 0 h20 m-176 0 q10 0 10 10 m156 0 q0 -10 10 -10 m-166 10 v12 m156 0 v-12 m-156 12 q0 10 10 10 m136 0 q10 0 10 -10 m-146 10 h10 m40 0 h10 m0 0 h10 m56 0 h10 m-342 -32 l20 0 m-1 0 q-9 0 -9 -10 l0 -12 q0 -10 10 -10 m342 32 l20 0 m-20 0 q10 0 10 -10 l0 -12 q0 -10 -10 -10 m-342 0 h10 m0 0 h332 m-382 32 h20 m382 0 h20 m-422 0 q10 0 10 10 m402 0 q0 -10 10 -10 m-412 10 v190 m402 0 v-190 m-402 190 q0 10 10 10 m382 0 q10 0 10 -10 m-392 10 h10 m0 0 h372 m-524 -210 h20 m524 0 h20 m-564 0 q10 0 10 10 m544 0 q0 -10 10 -10 m-554 10 v206 m544 0 v-206 m-544 206 q0 10 10 10 m524 0 q10 0 10 -10 m-534 10 h10 m0 0 h514 m22 -226 l2 0 m2 0 l2 0 m2 0 l2 0 m-459 258 l2 0 m2 0 l2 0 m2 0 l2 0 m22 0 h10 m0 0 h256 m-286 0 h20 m266 0 h20 m-306 0 q10 0 10 10 m286 0 q0 -10 10 -10 m-296 10 v12 m286 0 v-12 m-286 12 q0 10 10 10 m266 0 q10 0 10 -10 m-276 10 h10 m94 0 h10 m20 0 h10 m60 0 h10 m0 0 h32 m-132 0 h20 m112 0 h20 m-152 0 q10 0 10 10 m132 0 q0 -10 10 -10 m-142 10 v24 m132 0 v-24 m-132 24 q0 10 10 10 m112 0 q10 0 10 -10 m-122 10 h10 m92 0 h10 m-122 -10 v20 m132 0 v-20 m-132 20 v24 m132 0 v-24 m-132 24 q0 10 10 10 m112 0 q10 0 10 -10 m-122 10 h10 m76 0 h10 m0 0 h16 m42 -120 l2 0 m2 0 l2 0 m2 0 l2 0 m-441 170 l2 0 m2 0 l2 0 m2 0 l2 0 m22 0 h10 m0 0 h478 m-508 0 h20 m488 0 h20 m-528 0 q10 0 10 10 m508 0 q0 -10 10 -10 m-518 10 v12 m508 0 v-12 m-508 12 q0 10 10 10 m488 0 q10 0 10 -10 m-498 10 h10 m76 0 h10 m0 0 h10 m96 0 h10 m0 0 h10 m40 0 h10 m0 0 h10 m196 0 h10 m22 -32 l2 0 m2 0 l2 0 m2 0 l2 0 m-433 142 l2 0 m2 0 l2 0 m2 0 l2 0 m22 0 h10 m58 0 h10 m0 0 h10 m26 0 h10 m20 0 h10 m48 0 h10 m0 0 h10 m28 0 h10 m0 0 h10 m38 0 h10 m-194 0 l20 0 m-1 0 q-9 0 -9 -10 l0 -24 q0 -10 10 -10 m174 44 l20 0 m-20 0 q10 0 10 -10 l0 -24 q0 -10 -10 -10 m-174 0 h10 m24 0 h10 m0 0 h130 m20 44 h10 m26 0 h10 m-404 0 h20 m384 0 h20 m-424 0 q10 0 10 10 m404 0 q0 -10 10 -10 m-414 10 v14 m404 0 v-14 m-404 14 q0 10 10 10 m384 0 q10 0 10 -10 m-394 10 h10 m0 0 h374 m23 -34 h-3"/>
   <polygon points="587 1231 595 1227 595 1235"/>
   <polygon points="587 1231 579 1227 579 1235"/>
</svg>
