<svg xmlns="http://www.w3.org/2000/svg" width="385" height="123">
   <polygon points="9 17 1 13 1 21"/>
   <polygon points="17 17 9 13 9 21"/>
   <rect x="31" y="3" width="54" height="32" rx="10"/>
   <rect x="29"
         y="1"
         width="54"
         height="32"
         class="terminal"
         rx="10"/>
   <text class="terminal" x="39" y="21">AWS</text>
   <rect x="105" y="3" width="112" height="32" rx="10"/>
   <rect x="103"
         y="1"
         width="112"
         height="32"
         class="terminal"
         rx="10"/>
   <text class="terminal" x="113" y="21">PRIVATELINK</text>
   <rect x="237" y="3" width="126" height="32"/>
   <rect x="235" y="1" width="126" height="32" class="nonterminal"/>
   <text class="nonterminal" x="245" y="21">aws_connection</text>
   <rect x="121" y="89" width="26" height="32" rx="10"/>
   <rect x="119"
         y="87"
         width="26"
         height="32"
         class="terminal"
         rx="10"/>
   <text class="terminal" x="129" y="107">(</text>
   <rect x="167" y="89" width="58" height="32" rx="10"/>
   <rect x="165"
         y="87"
         width="58"
         height="32"
         class="terminal"
         rx="10"/>
   <text class="terminal" x="175" y="107">PORT</text>
   <rect x="245" y="89" width="46" height="32"/>
   <rect x="243" y="87" width="46" height="32" class="nonterminal"/>
   <text class="nonterminal" x="253" y="107">port</text>
   <rect x="311" y="89" width="26" height="32" rx="10"/>
   <rect x="309"
         y="87"
         width="26"
         height="32"
         class="terminal"
         rx="10"/>
   <text class="terminal" x="319" y="107">)</text>
   <path class="line"
         d="m17 17 h2 m0 0 h10 m54 0 h10 m0 0 h10 m112 0 h10 m0 0 h10 m126 0 h10 m2 0 l2 0 m2 0 l2 0 m2 0 l2 0 m-306 54 l2 0 m2 0 l2 0 m2 0 l2 0 m22 0 h10 m0 0 h226 m-256 0 h20 m236 0 h20 m-276 0 q10 0 10 10 m256 0 q0 -10 10 -10 m-266 10 v12 m256 0 v-12 m-256 12 q0 10 10 10 m236 0 q10 0 10 -10 m-246 10 h10 m26 0 h10 m0 0 h10 m58 0 h10 m0 0 h10 m46 0 h10 m0 0 h10 m26 0 h10 m23 -32 h-3"/>
   <polygon points="375 71 383 67 383 75"/>
   <polygon points="375 71 367 67 367 75"/>
</svg>
