<svg xmlns="http://www.w3.org/2000/svg" width="493" height="197">
   <polygon points="11 17 3 13 3 21"/>
   <polygon points="19 17 11 13 11 21"/>
   <rect x="33" y="3" width="74" height="32" rx="10"/>
   <rect x="31"
         y="1"
         width="74"
         height="32"
         class="terminal"
         rx="10"/>
   <text class="terminal" x="41" y="21">CREATE</text>
   <rect x="127" y="3" width="64" height="32" rx="10"/>
   <rect x="125"
         y="1"
         width="64"
         height="32"
         class="terminal"
         rx="10"/>
   <text class="terminal" x="135" y="21">TABLE</text>
   <rect x="211" y="3" width="92" height="32"/>
   <rect x="209" y="1" width="92" height="32" class="nonterminal"/>
   <text class="nonterminal" x="219" y="21">table_name</text>
   <rect x="323" y="3" width="24" height="32" rx="10"/>
   <rect x="321"
         y="1"
         width="24"
         height="32"
         class="terminal"
         rx="10"/>
   <text class="terminal" x="331" y="21">(</text>
   <rect x="65" y="147" width="80" height="32"/>
   <rect x="63" y="145" width="80" height="32" class="nonterminal"/>
   <text class="nonterminal" x="73" y="165">col_name</text>
   <rect x="165" y="147" width="72" height="32"/>
   <rect x="163" y="145" width="72" height="32" class="nonterminal"/>
   <text class="nonterminal" x="173" y="165">col_type</text>
   <rect x="277" y="113" width="84" height="32"/>
   <rect x="275" y="111" width="84" height="32" class="nonterminal"/>
   <text class="nonterminal" x="285" y="131">col_option</text>
   <rect x="65" y="69" width="24" height="32" rx="10"/>
   <rect x="63"
         y="67"
         width="24"
         height="32"
         class="terminal"
         rx="10"/>
   <text class="terminal" x="73" y="87">,</text>
   <rect x="441" y="147" width="24" height="32" rx="10"/>
   <rect x="439"
         y="145"
         width="24"
         height="32"
         class="terminal"
         rx="10"/>
   <text class="terminal" x="449" y="165">)</text>
   <path class="line"
         d="m19 17 h2 m0 0 h10 m74 0 h10 m0 0 h10 m64 0 h10 m0 0 h10 m92 0 h10 m0 0 h10 m24 0 h10 m2 0 l2 0 m2 0 l2 0 m2 0 l2 0 m-366 144 l2 0 m2 0 l2 0 m2 0 l2 0 m42 0 h10 m80 0 h10 m0 0 h10 m72 0 h10 m20 0 h10 m0 0 h94 m-124 0 l20 0 m-1 0 q-9 0 -9 -10 l0 -14 q0 -10 10 -10 m104 34 l20 0 m-20 0 q10 0 10 -10 l0 -14 q0 -10 -10 -10 m-104 0 h10 m84 0 h10 m-336 34 l20 0 m-1 0 q-9 0 -9 -10 l0 -58 q0 -10 10 -10 m336 78 l20 0 m-20 0 q10 0 10 -10 l0 -58 q0 -10 -10 -10 m-336 0 h10 m24 0 h10 m0 0 h292 m-376 78 h20 m376 0 h20 m-416 0 q10 0 10 10 m396 0 q0 -10 10 -10 m-406 10 v14 m396 0 v-14 m-396 14 q0 10 10 10 m376 0 q10 0 10 -10 m-386 10 h10 m0 0 h366 m20 -34 h10 m24 0 h10 m3 0 h-3"/>
   <polygon points="483 161 491 157 491 165"/>
   <polygon points="483 161 475 157 475 165"/>
</svg>
