<svg xmlns="http://www.w3.org/2000/svg" width="589" height="939">
   <polygon points="9 17 1 13 1 21"/>
   <polygon points="17 17 9 13 9 21"/>
   <rect x="31" y="3" width="74" height="32" rx="10"/>
   <rect x="29"
         y="1"
         width="74"
         height="32"
         class="terminal"
         rx="10"/>
   <text class="terminal" x="39" y="21">CREATE</text>
   <rect x="145" y="35" width="120" height="32" rx="10"/>
   <rect x="143"
         y="33"
         width="120"
         height="32"
         class="terminal"
         rx="10"/>
   <text class="terminal" x="153" y="53">MATERIALIZED</text>
   <rect x="305" y="3" width="78" height="32" rx="10"/>
   <rect x="303"
         y="1"
         width="78"
         height="32"
         class="terminal"
         rx="10"/>
   <text class="terminal" x="313" y="21">SOURCE</text>
   <rect x="423" y="35" width="118" height="32" rx="10"/>
   <rect x="421"
         y="33"
         width="118"
         height="32"
         class="terminal"
         rx="10"/>
   <text class="terminal" x="431" y="53">IF NOT EXISTS</text>
   <rect x="256" y="101" width="80" height="32"/>
   <rect x="254" y="99" width="80" height="32" class="nonterminal"/>
   <text class="nonterminal" x="264" y="119">src_name</text>
   <rect x="45" y="211" width="24" height="32" rx="10"/>
   <rect x="43"
         y="209"
         width="24"
         height="32"
         class="terminal"
         rx="10"/>
   <text class="terminal" x="53" y="229">(</text>
   <rect x="109" y="211" width="80" height="32"/>
   <rect x="107" y="209" width="80" height="32" class="nonterminal"/>
   <text class="nonterminal" x="117" y="229">col_name</text>
   <rect x="109" y="167" width="24" height="32" rx="10"/>
   <rect x="107"
         y="165"
         width="24"
         height="32"
         class="terminal"
         rx="10"/>
   <text class="terminal" x="117" y="185">,</text>
   <rect x="249" y="243" width="24" height="32" rx="10"/>
   <rect x="247"
         y="241"
         width="24"
         height="32"
         class="terminal"
         rx="10"/>
   <text class="terminal" x="257" y="261">,</text>
   <rect x="293" y="243" width="110" height="32"/>
   <rect x="291" y="241" width="110" height="32" class="nonterminal"/>
   <text class="nonterminal" x="301" y="261">key_constraint</text>
   <rect x="443" y="211" width="24" height="32" rx="10"/>
   <rect x="441"
         y="209"
         width="24"
         height="32"
         class="terminal"
         rx="10"/>
   <text class="terminal" x="451" y="229">)</text>
   <rect x="507" y="211" width="60" height="32" rx="10"/>
   <rect x="505"
         y="209"
         width="60"
         height="32"
         class="terminal"
         rx="10"/>
   <text class="terminal" x="515" y="229">FROM</text>
   <rect x="28" y="325" width="36" height="32" rx="10"/>
   <rect x="26"
         y="323"
         width="36"
         height="32"
         class="terminal"
         rx="10"/>
   <text class="terminal" x="36" y="343">S3</text>
   <rect x="84" y="325" width="158" height="32" rx="10"/>
   <rect x="82"
         y="323"
         width="158"
         height="32"
         class="terminal"
         rx="10"/>
   <text class="terminal" x="92" y="343">DISCOVER OBJECTS</text>
   <rect x="282" y="357" width="94" height="32" rx="10"/>
   <rect x="280"
         y="355"
         width="94"
         height="32"
         class="terminal"
         rx="10"/>
   <text class="terminal" x="290" y="375">MATCHING</text>
   <rect x="396" y="357" width="64" height="32"/>
   <rect x="394" y="355" width="64" height="32" class="nonterminal"/>
   <text class="nonterminal" x="404" y="375">pattern</text>
   <rect x="500" y="325" width="64" height="32" rx="10"/>
   <rect x="498"
         y="323"
         width="64"
         height="32"
         class="terminal"
         rx="10"/>
   <text class="terminal" x="508" y="343">USING</text>
   <rect x="156" y="467" width="118" height="32" rx="10"/>
   <rect x="154"
         y="465"
         width="118"
         height="32"
         class="terminal"
         rx="10"/>
   <text class="terminal" x="164" y="485">BUCKET SCAN</text>
   <rect x="294" y="467" width="102" height="32"/>
   <rect x="292" y="465" width="102" height="32" class="nonterminal"/>
   <text class="nonterminal" x="302" y="485">bucket_name</text>
   <rect x="156" y="511" width="160" height="32" rx="10"/>
   <rect x="154"
         y="509"
         width="160"
         height="32"
         class="terminal"
         rx="10"/>
   <text class="terminal" x="164" y="529">SQS NOTIFICATIONS</text>
   <rect x="336" y="511" width="100" height="32"/>
   <rect x="334" y="509" width="100" height="32" class="nonterminal"/>
   <text class="nonterminal" x="344" y="529">queue_name</text>
   <rect x="136" y="423" width="24" height="32" rx="10"/>
   <rect x="134"
         y="421"
         width="24"
         height="32"
         class="terminal"
         rx="10"/>
   <text class="terminal" x="144" y="441">,</text>
   <rect x="70" y="609" width="122" height="32" rx="10"/>
   <rect x="68"
         y="607"
         width="122"
         height="32"
         class="terminal"
         rx="10"/>
   <text class="terminal" x="78" y="627">COMPRESSION</text>
   <rect x="232" y="609" width="60" height="32" rx="10"/>
   <rect x="230"
         y="607"
         width="60"
         height="32"
         class="terminal"
         rx="10"/>
   <text class="terminal" x="240" y="627">NONE</text>
   <rect x="232" y="653" width="52" height="32" rx="10"/>
   <rect x="230"
         y="651"
         width="52"
         height="32"
         class="terminal"
         rx="10"/>
   <text class="terminal" x="240" y="671">GZIP</text>
   <rect x="352" y="577" width="56" height="32" rx="10"/>
   <rect x="350"
         y="575"
         width="56"
         height="32"
         class="terminal"
         rx="10"/>
   <text class="terminal" x="360" y="595">WITH</text>
   <rect x="428" y="577" width="24" height="32" rx="10"/>
   <rect x="426"
         y="575"
         width="24"
         height="32"
         class="terminal"
         rx="10"/>
   <text class="terminal" x="436" y="595">(</text>
   <rect x="472" y="577" width="70" height="32" rx="10"/>
   <rect x="470"
         y="575"
         width="70"
         height="32"
         class="terminal"
         rx="10"/>
   <text class="terminal" x="480" y="595">region =</text>
   <rect x="107" y="719" width="58" height="32"/>
   <rect x="105" y="717" width="58" height="32" class="nonterminal"/>
   <text class="nonterminal" x="115" y="737">region</text>
   <rect x="205" y="751" width="118" height="32"/>
   <rect x="203" y="749" width="118" height="32" class="nonterminal"/>
   <text class="nonterminal" x="213" y="769">aws_credentials</text>
   <rect x="363" y="719" width="24" height="32" rx="10"/>
   <rect x="361"
         y="717"
         width="24"
         height="32"
         class="terminal"
         rx="10"/>
   <text class="terminal" x="371" y="737">)</text>
   <rect x="407" y="719" width="78" height="32" rx="10"/>
   <rect x="405"
         y="717"
         width="78"
         height="32"
         class="terminal"
         rx="10"/>
   <text class="terminal" x="415" y="737">FORMAT</text>
   <rect x="401" y="817" width="66" height="32" rx="10"/>
   <rect x="399"
         y="815"
         width="66"
         height="32"
         class="terminal"
         rx="10"/>
   <text class="terminal" x="409" y="835">REGEX</text>
   <rect x="487" y="817" width="54" height="32"/>
   <rect x="485" y="815" width="54" height="32" class="nonterminal"/>
   <text class="nonterminal" x="495" y="835">regex</text>
   <rect x="401" y="861" width="54" height="32" rx="10"/>
   <rect x="399"
         y="859"
         width="54"
         height="32"
         class="terminal"
         rx="10"/>
   <text class="terminal" x="409" y="879">TEXT</text>
   <rect x="401" y="905" width="64" height="32" rx="10"/>
   <rect x="399"
         y="903"
         width="64"
         height="32"
         class="terminal"
         rx="10"/>
   <text class="terminal" x="409" y="923">BYTES</text>
   <path class="line"
         d="m17 17 h2 m0 0 h10 m74 0 h10 m20 0 h10 m0 0 h130 m-160 0 h20 m140 0 h20 m-180 0 q10 0 10 10 m160 0 q0 -10 10 -10 m-170 10 v12 m160 0 v-12 m-160 12 q0 10 10 10 m140 0 q10 0 10 -10 m-150 10 h10 m120 0 h10 m20 -32 h10 m78 0 h10 m20 0 h10 m0 0 h128 m-158 0 h20 m138 0 h20 m-178 0 q10 0 10 10 m158 0 q0 -10 10 -10 m-168 10 v12 m158 0 v-12 m-158 12 q0 10 10 10 m138 0 q10 0 10 -10 m-148 10 h10 m118 0 h10 m22 -32 l2 0 m2 0 l2 0 m2 0 l2 0 m-349 98 l2 0 m2 0 l2 0 m2 0 l2 0 m2 0 h10 m80 0 h10 m2 0 l2 0 m2 0 l2 0 m2 0 l2 0 m-355 110 l2 0 m2 0 l2 0 m2 0 l2 0 m22 0 h10 m24 0 h10 m20 0 h10 m80 0 h10 m-120 0 l20 0 m-1 0 q-9 0 -9 -10 l0 -24 q0 -10 10 -10 m100 44 l20 0 m-20 0 q10 0 10 -10 l0 -24 q0 -10 -10 -10 m-100 0 h10 m24 0 h10 m0 0 h56 m40 44 h10 m0 0 h164 m-194 0 h20 m174 0 h20 m-214 0 q10 0 10 10 m194 0 q0 -10 10 -10 m-204 10 v12 m194 0 v-12 m-194 12 q0 10 10 10 m174 0 q10 0 10 -10 m-184 10 h10 m24 0 h10 m0 0 h10 m110 0 h10 m20 -32 h10 m24 0 h10 m-462 0 h20 m442 0 h20 m-482 0 q10 0 10 10 m462 0 q0 -10 10 -10 m-472 10 v46 m462 0 v-46 m-462 46 q0 10 10 10 m442 0 q10 0 10 -10 m-452 10 h10 m0 0 h432 m20 -66 h10 m60 0 h10 m2 0 l2 0 m2 0 l2 0 m2 0 l2 0 m-583 114 l2 0 m2 0 l2 0 m2 0 l2 0 m2 0 h10 m36 0 h10 m0 0 h10 m158 0 h10 m20 0 h10 m0 0 h188 m-218 0 h20 m198 0 h20 m-238 0 q10 0 10 10 m218 0 q0 -10 10 -10 m-228 10 v12 m218 0 v-12 m-218 12 q0 10 10 10 m198 0 q10 0 10 -10 m-208 10 h10 m94 0 h10 m0 0 h10 m64 0 h10 m20 -32 h10 m64 0 h10 m2 0 l2 0 m2 0 l2 0 m2 0 l2 0 m-492 142 l2 0 m2 0 l2 0 m2 0 l2 0 m42 0 h10 m118 0 h10 m0 0 h10 m102 0 h10 m0 0 h40 m-320 0 h20 m300 0 h20 m-340 0 q10 0 10 10 m320 0 q0 -10 10 -10 m-330 10 v24 m320 0 v-24 m-320 24 q0 10 10 10 m300 0 q10 0 10 -10 m-310 10 h10 m160 0 h10 m0 0 h10 m100 0 h10 m-340 -44 l20 0 m-1 0 q-9 0 -9 -10 l0 -24 q0 -10 10 -10 m340 44 l20 0 m-20 0 q10 0 10 -10 l0 -24 q0 -10 -10 -10 m-340 0 h10 m24 0 h10 m0 0 h296 m22 44 l2 0 m2 0 l2 0 m2 0 l2 0 m-470 110 l2 0 m2 0 l2 0 m2 0 l2 0 m22 0 h10 m0 0 h252 m-282 0 h20 m262 0 h20 m-302 0 q10 0 10 10 m282 0 q0 -10 10 -10 m-292 10 v12 m282 0 v-12 m-282 12 q0 10 10 10 m262 0 q10 0 10 -10 m-272 10 h10 m122 0 h10 m20 0 h10 m60 0 h10 m-100 0 h20 m80 0 h20 m-120 0 q10 0 10 10 m100 0 q0 -10 10 -10 m-110 10 v24 m100 0 v-24 m-100 24 q0 10 10 10 m80 0 q10 0 10 -10 m-90 10 h10 m52 0 h10 m0 0 h8 m40 -76 h10 m56 0 h10 m0 0 h10 m24 0 h10 m0 0 h10 m70 0 h10 m2 0 l2 0 m2 0 l2 0 m2 0 l2 0 m-479 142 l2 0 m2 0 l2 0 m2 0 l2 0 m2 0 h10 m58 0 h10 m20 0 h10 m0 0 h128 m-158 0 h20 m138 0 h20 m-178 0 q10 0 10 10 m158 0 q0 -10 10 -10 m-168 10 v12 m158 0 v-12 m-158 12 q0 10 10 10 m138 0 q10 0 10 -10 m-148 10 h10 m118 0 h10 m20 -32 h10 m24 0 h10 m0 0 h10 m78 0 h10 m2 0 l2 0 m2 0 l2 0 m2 0 l2 0 m-148 98 l2 0 m2 0 l2 0 m2 0 l2 0 m22 0 h10 m66 0 h10 m0 0 h10 m54 0 h10 m-180 0 h20 m160 0 h20 m-200 0 q10 0 10 10 m180 0 q0 -10 10 -10 m-190 10 v24 m180 0 v-24 m-180 24 q0 10 10 10 m160 0 q10 0 10 -10 m-170 10 h10 m54 0 h10 m0 0 h86 m-170 -10 v20 m180 0 v-20 m-180 20 v24 m180 0 v-24 m-180 24 q0 10 10 10 m160 0 q10 0 10 -10 m-170 10 h10 m64 0 h10 m0 0 h76 m23 -88 h-3"/>
   <polygon points="579 831 587 827 587 835"/>
   <polygon points="579 831 571 827 571 835"/>
</svg>
