<svg xmlns="http://www.w3.org/2000/svg" width="583" height="741">
   <polygon points="9 17 1 13 1 21"/>
   <polygon points="17 17 9 13 9 21"/>
   <rect x="31" y="3" width="74" height="32" rx="10"/>
   <rect x="29"
         y="1"
         width="74"
         height="32"
         class="terminal"
         rx="10"/>
   <text class="terminal" x="39" y="21">CREATE</text>
   <rect x="145" y="35" width="120" height="32" rx="10"/>
   <rect x="143"
         y="33"
         width="120"
         height="32"
         class="terminal"
         rx="10"/>
   <text class="terminal" x="153" y="53">MATERIALIZED</text>
   <rect x="305" y="3" width="78" height="32" rx="10"/>
   <rect x="303"
         y="1"
         width="78"
         height="32"
         class="terminal"
         rx="10"/>
   <text class="terminal" x="313" y="21">SOURCE</text>
   <rect x="423" y="35" width="118" height="32" rx="10"/>
   <rect x="421"
         y="33"
         width="118"
         height="32"
         class="terminal"
         rx="10"/>
   <text class="terminal" x="431" y="53">IF NOT EXISTS</text>
   <rect x="79" y="145" width="80" height="32"/>
   <rect x="77" y="143" width="80" height="32" class="nonterminal"/>
   <text class="nonterminal" x="87" y="163">src_name</text>
   <rect x="199" y="145" width="24" height="32" rx="10"/>
   <rect x="197"
         y="143"
         width="24"
         height="32"
         class="terminal"
         rx="10"/>
   <text class="terminal" x="207" y="163">(</text>
   <rect x="263" y="145" width="80" height="32"/>
   <rect x="261" y="143" width="80" height="32" class="nonterminal"/>
   <text class="nonterminal" x="271" y="163">col_name</text>
   <rect x="263" y="101" width="24" height="32" rx="10"/>
   <rect x="261"
         y="99"
         width="24"
         height="32"
         class="terminal"
         rx="10"/>
   <text class="terminal" x="271" y="119">,</text>
   <rect x="383" y="145" width="24" height="32" rx="10"/>
   <rect x="381"
         y="143"
         width="24"
         height="32"
         class="terminal"
         rx="10"/>
   <text class="terminal" x="391" y="163">)</text>
   <rect x="447" y="145" width="60" height="32" rx="10"/>
   <rect x="445"
         y="143"
         width="60"
         height="32"
         class="terminal"
         rx="10"/>
   <text class="terminal" x="455" y="163">FROM</text>
   <rect x="121" y="227" width="126" height="32" rx="10"/>
   <rect x="119"
         y="225"
         width="126"
         height="32"
         class="terminal"
         rx="10"/>
   <text class="terminal" x="129" y="245">KAFKA BROKER</text>
   <rect x="267" y="227" width="46" height="32"/>
   <rect x="265" y="225" width="46" height="32" class="nonterminal"/>
   <text class="nonterminal" x="275" y="245">host</text>
   <rect x="333" y="227" width="62" height="32" rx="10"/>
   <rect x="331"
         y="225"
         width="62"
         height="32"
         class="terminal"
         rx="10"/>
   <text class="terminal" x="341" y="245">TOPIC</text>
   <rect x="415" y="227" width="50" height="32"/>
   <rect x="413" y="225" width="50" height="32" class="nonterminal"/>
   <text class="nonterminal" x="423" y="245">topic</text>
   <rect x="116" y="337" width="56" height="32" rx="10"/>
   <rect x="114"
         y="335"
         width="56"
         height="32"
         class="terminal"
         rx="10"/>
   <text class="terminal" x="124" y="355">WITH</text>
   <rect x="192" y="337" width="24" height="32" rx="10"/>
   <rect x="190"
         y="335"
         width="24"
         height="32"
         class="terminal"
         rx="10"/>
   <text class="terminal" x="200" y="355">(</text>
   <rect x="256" y="337" width="46" height="32"/>
   <rect x="254" y="335" width="46" height="32" class="nonterminal"/>
   <text class="nonterminal" x="264" y="355">field</text>
   <rect x="322" y="337" width="26" height="32" rx="10"/>
   <rect x="320"
         y="335"
         width="26"
         height="32"
         class="terminal"
         rx="10"/>
   <text class="terminal" x="330" y="355">=</text>
   <rect x="368" y="337" width="38" height="32"/>
   <rect x="366" y="335" width="38" height="32" class="nonterminal"/>
   <text class="nonterminal" x="376" y="355">val</text>
   <rect x="256" y="293" width="24" height="32" rx="10"/>
   <rect x="254"
         y="291"
         width="24"
         height="32"
         class="terminal"
         rx="10"/>
   <text class="terminal" x="264" y="311">,</text>
   <rect x="446" y="337" width="24" height="32" rx="10"/>
   <rect x="444"
         y="335"
         width="24"
         height="32"
         class="terminal"
         rx="10"/>
   <text class="terminal" x="454" y="355">)</text>
   <rect x="46" y="419" width="108" height="32" rx="10"/>
   <rect x="44"
         y="417"
         width="108"
         height="32"
         class="terminal"
         rx="10"/>
   <text class="terminal" x="54" y="437">KEY FORMAT</text>
   <rect x="174" y="419" width="96" height="32"/>
   <rect x="172" y="417" width="96" height="32" class="nonterminal"/>
   <text class="nonterminal" x="182" y="437">format_spec</text>
   <rect x="290" y="419" width="126" height="32" rx="10"/>
   <rect x="288"
         y="417"
         width="126"
         height="32"
         class="terminal"
         rx="10"/>
   <text class="terminal" x="298" y="437">VALUE FORMAT</text>
   <rect x="46" y="463" width="78" height="32" rx="10"/>
   <rect x="44"
         y="461"
         width="78"
         height="32"
         class="terminal"
         rx="10"/>
   <text class="terminal" x="54" y="481">FORMAT</text>
   <rect x="476" y="419" width="64" height="32" rx="10"/>
   <rect x="474"
         y="417"
         width="64"
         height="32"
         class="terminal"
         rx="10"/>
   <text class="terminal" x="484" y="437">BYTES</text>
   <rect x="476" y="463" width="54" height="32" rx="10"/>
   <rect x="474"
         y="461"
         width="54"
         height="32"
         class="terminal"
         rx="10"/>
   <text class="terminal" x="484" y="481">TEXT</text>
   <rect x="137" y="545" width="112" height="32" rx="10"/>
   <rect x="135"
         y="543"
         width="112"
         height="32"
         class="terminal"
         rx="10"/>
   <text class="terminal" x="145" y="563">INCLUDE KEY</text>
   <rect x="289" y="577" width="38" height="32" rx="10"/>
   <rect x="287"
         y="575"
         width="38"
         height="32"
         class="terminal"
         rx="10"/>
   <text class="terminal" x="297" y="595">AS</text>
   <rect x="347" y="577" width="82" height="32"/>
   <rect x="345" y="575" width="82" height="32" class="nonterminal"/>
   <text class="nonterminal" x="355" y="595">key_name</text>
   <rect x="309" y="663" width="92" height="32" rx="10"/>
   <rect x="307"
         y="661"
         width="92"
         height="32"
         class="terminal"
         rx="10"/>
   <text class="terminal" x="317" y="681">ENVELOPE</text>
   <rect x="441" y="663" width="60" height="32" rx="10"/>
   <rect x="439"
         y="661"
         width="60"
         height="32"
         class="terminal"
         rx="10"/>
   <text class="terminal" x="449" y="681">NONE</text>
   <rect x="441" y="707" width="74" height="32" rx="10"/>
   <rect x="439"
         y="705"
         width="74"
         height="32"
         class="terminal"
         rx="10"/>
   <text class="terminal" x="449" y="725">UPSERT</text>
   <path class="line"
         d="m17 17 h2 m0 0 h10 m74 0 h10 m20 0 h10 m0 0 h130 m-160 0 h20 m140 0 h20 m-180 0 q10 0 10 10 m160 0 q0 -10 10 -10 m-170 10 v12 m160 0 v-12 m-160 12 q0 10 10 10 m140 0 q10 0 10 -10 m-150 10 h10 m120 0 h10 m20 -32 h10 m78 0 h10 m20 0 h10 m0 0 h128 m-158 0 h20 m138 0 h20 m-178 0 q10 0 10 10 m158 0 q0 -10 10 -10 m-168 10 v12 m158 0 v-12 m-158 12 q0 10 10 10 m138 0 q10 0 10 -10 m-148 10 h10 m118 0 h10 m22 -32 l2 0 m2 0 l2 0 m2 0 l2 0 m-526 142 l2 0 m2 0 l2 0 m2 0 l2 0 m2 0 h10 m80 0 h10 m20 0 h10 m24 0 h10 m20 0 h10 m80 0 h10 m-120 0 l20 0 m-1 0 q-9 0 -9 -10 l0 -24 q0 -10 10 -10 m100 44 l20 0 m-20 0 q10 0 10 -10 l0 -24 q0 -10 -10 -10 m-100 0 h10 m24 0 h10 m0 0 h56 m20 44 h10 m24 0 h10 m-248 0 h20 m228 0 h20 m-268 0 q10 0 10 10 m248 0 q0 -10 10 -10 m-258 10 v14 m248 0 v-14 m-248 14 q0 10 10 10 m228 0 q10 0 10 -10 m-238 10 h10 m0 0 h218 m20 -34 h10 m60 0 h10 m2 0 l2 0 m2 0 l2 0 m2 0 l2 0 m-430 82 l2 0 m2 0 l2 0 m2 0 l2 0 m2 0 h10 m126 0 h10 m0 0 h10 m46 0 h10 m0 0 h10 m62 0 h10 m0 0 h10 m50 0 h10 m2 0 l2 0 m2 0 l2 0 m2 0 l2 0 m-413 110 l2 0 m2 0 l2 0 m2 0 l2 0 m22 0 h10 m56 0 h10 m0 0 h10 m24 0 h10 m20 0 h10 m46 0 h10 m0 0 h10 m26 0 h10 m0 0 h10 m38 0 h10 m-190 0 l20 0 m-1 0 q-9 0 -9 -10 l0 -24 q0 -10 10 -10 m170 44 l20 0 m-20 0 q10 0 10 -10 l0 -24 q0 -10 -10 -10 m-170 0 h10 m24 0 h10 m0 0 h126 m20 44 h10 m24 0 h10 m-394 0 h20 m374 0 h20 m-414 0 q10 0 10 10 m394 0 q0 -10 10 -10 m-404 10 v14 m394 0 v-14 m-394 14 q0 10 10 10 m374 0 q10 0 10 -10 m-384 10 h10 m0 0 h364 m22 -34 l2 0 m2 0 l2 0 m2 0 l2 0 m-508 82 l2 0 m2 0 l2 0 m2 0 l2 0 m22 0 h10 m108 0 h10 m0 0 h10 m96 0 h10 m0 0 h10 m126 0 h10 m-410 0 h20 m390 0 h20 m-430 0 q10 0 10 10 m410 0 q0 -10 10 -10 m-420 10 v24 m410 0 v-24 m-410 24 q0 10 10 10 m390 0 q10 0 10 -10 m-400 10 h10 m78 0 h10 m0 0 h292 m40 -44 h10 m64 0 h10 m-104 0 h20 m84 0 h20 m-124 0 q10 0 10 10 m104 0 q0 -10 10 -10 m-114 10 v24 m104 0 v-24 m-104 24 q0 10 10 10 m84 0 q10 0 10 -10 m-94 10 h10 m54 0 h10 m0 0 h10 m22 -44 l2 0 m2 0 l2 0 m2 0 l2 0 m-487 94 l2 0 m2 0 l2 0 m2 0 l2 0 m22 0 h10 m0 0 h322 m-352 0 h20 m332 0 h20 m-372 0 q10 0 10 10 m352 0 q0 -10 10 -10 m-362 10 v12 m352 0 v-12 m-352 12 q0 10 10 10 m332 0 q10 0 10 -10 m-342 10 h10 m112 0 h10 m20 0 h10 m0 0 h150 m-180 0 h20 m160 0 h20 m-200 0 q10 0 10 10 m180 0 q0 -10 10 -10 m-190 10 v12 m180 0 v-12 m-180 12 q0 10 10 10 m160 0 q10 0 10 -10 m-170 10 h10 m38 0 h10 m0 0 h10 m82 0 h10 m42 -64 l2 0 m2 0 l2 0 m2 0 l2 0 m-224 118 l2 0 m2 0 l2 0 m2 0 l2 0 m22 0 h10 m0 0 h236 m-266 0 h20 m246 0 h20 m-286 0 q10 0 10 10 m266 0 q0 -10 10 -10 m-276 10 v12 m266 0 v-12 m-266 12 q0 10 10 10 m246 0 q10 0 10 -10 m-256 10 h10 m92 0 h10 m20 0 h10 m60 0 h10 m0 0 h14 m-114 0 h20 m94 0 h20 m-134 0 q10 0 10 10 m114 0 q0 -10 10 -10 m-124 10 v24 m114 0 v-24 m-114 24 q0 10 10 10 m94 0 q10 0 10 -10 m-104 10 h10 m74 0 h10 m43 -76 h-3"/>
   <polygon points="573 645 581 641 581 649"/>
   <polygon points="573 645 565 641 565 649"/>
</svg>
