<svg xmlns="http://www.w3.org/2000/svg" width="587" height="595">
   <polygon points="9 17 1 13 1 21"/>
   <polygon points="17 17 9 13 9 21"/>
   <rect x="31" y="3" width="136" height="32" rx="10"/>
   <rect x="29"
         y="1"
         width="136"
         height="32"
         class="terminal"
         rx="10"/>
   <text class="terminal" x="39" y="21">CREATE SOURCE</text>
   <rect x="207" y="35" width="118" height="32" rx="10"/>
   <rect x="205"
         y="33"
         width="118"
         height="32"
         class="terminal"
         rx="10"/>
   <text class="terminal" x="215" y="53">IF NOT EXISTS</text>
   <a xmlns:xlink="http://www.w3.org/1999/xlink"
      xlink:href="#src_name"
      xlink:title="src_name">
      <rect x="365" y="3" width="80" height="32"/>
      <rect x="363" y="1" width="80" height="32" class="nonterminal"/>
      <text class="nonterminal" x="373" y="21">src_name</text>
   </a>
   <rect x="45" y="145" width="24" height="32" rx="10"/>
   <rect x="43"
         y="143"
         width="24"
         height="32"
         class="terminal"
         rx="10"/>
   <text class="terminal" x="53" y="163">(</text>
   <a xmlns:xlink="http://www.w3.org/1999/xlink"
      xlink:href="#col_name"
      xlink:title="col_name">
      <rect x="109" y="145" width="80" height="32"/>
      <rect x="107" y="143" width="80" height="32" class="nonterminal"/>
      <text class="nonterminal" x="117" y="163">col_name</text>
   </a>
   <rect x="109" y="101" width="24" height="32" rx="10"/>
   <rect x="107"
         y="99"
         width="24"
         height="32"
         class="terminal"
         rx="10"/>
   <text class="terminal" x="117" y="119">,</text>
   <rect x="229" y="145" width="24" height="32" rx="10"/>
   <rect x="227"
         y="143"
         width="24"
         height="32"
         class="terminal"
         rx="10"/>
   <text class="terminal" x="237" y="163">)</text>
   <rect x="293" y="145" width="60" height="32" rx="10"/>
   <rect x="291"
         y="143"
         width="60"
         height="32"
         class="terminal"
         rx="10"/>
   <text class="terminal" x="301" y="163">FROM</text>
   <rect x="373" y="145" width="126" height="32" rx="10"/>
   <rect x="371"
         y="143"
         width="126"
         height="32"
         class="terminal"
         rx="10"/>
   <text class="terminal" x="381" y="163">KAFKA BROKER</text>
   <a xmlns:xlink="http://www.w3.org/1999/xlink"
      xlink:href="#host"
      xlink:title="host">
      <rect x="519" y="145" width="46" height="32"/>
      <rect x="517" y="143" width="46" height="32" class="nonterminal"/>
      <text class="nonterminal" x="527" y="163">host</text>
   </a>
   <rect x="209" y="227" width="62" height="32" rx="10"/>
   <rect x="207"
         y="225"
         width="62"
         height="32"
         class="terminal"
         rx="10"/>
   <text class="terminal" x="217" y="245">TOPIC</text>
   <a xmlns:xlink="http://www.w3.org/1999/xlink"
      xlink:href="#topic"
      xlink:title="topic">
      <rect x="311" y="259" width="50" height="32"/>
      <rect x="309" y="257" width="50" height="32" class="nonterminal"/>
      <text class="nonterminal" x="319" y="277">topic</text>
   </a>
   <rect x="69" y="369" width="56" height="32" rx="10"/>
   <rect x="67"
         y="367"
         width="56"
         height="32"
         class="terminal"
         rx="10"/>
   <text class="terminal" x="77" y="387">WITH</text>
   <rect x="145" y="369" width="24" height="32" rx="10"/>
   <rect x="143"
         y="367"
         width="24"
         height="32"
         class="terminal"
         rx="10"/>
   <text class="terminal" x="153" y="387">(</text>
   <a xmlns:xlink="http://www.w3.org/1999/xlink"
      xlink:href="#field"
      xlink:title="field">
      <rect x="209" y="369" width="46" height="32"/>
      <rect x="207" y="367" width="46" height="32" class="nonterminal"/>
      <text class="nonterminal" x="217" y="387">field</text>
   </a>
   <rect x="275" y="369" width="26" height="32" rx="10"/>
   <rect x="273"
         y="367"
         width="26"
         height="32"
         class="terminal"
         rx="10"/>
   <text class="terminal" x="283" y="387">=</text>
   <a xmlns:xlink="http://www.w3.org/1999/xlink"
      xlink:href="#val"
      xlink:title="val">
      <rect x="321" y="369" width="38" height="32"/>
      <rect x="319" y="367" width="38" height="32" class="nonterminal"/>
      <text class="nonterminal" x="329" y="387">val</text>
   </a>
   <rect x="209" y="325" width="24" height="32" rx="10"/>
   <rect x="207"
         y="323"
         width="24"
         height="32"
         class="terminal"
         rx="10"/>
   <text class="terminal" x="217" y="343">,</text>
   <rect x="399" y="369" width="24" height="32" rx="10"/>
   <rect x="397"
         y="367"
         width="24"
         height="32"
         class="terminal"
         rx="10"/>
   <text class="terminal" x="407" y="387">)</text>
   <rect x="463" y="369" width="78" height="32" rx="10"/>
   <rect x="461"
         y="367"
         width="78"
         height="32"
         class="terminal"
         rx="10"/>
   <text class="terminal" x="471" y="387">FORMAT</text>
   <rect x="70" y="451" width="168" height="32" rx="10"/>
   <rect x="68"
         y="449"
         width="168"
         height="32"
         class="terminal"
         rx="10"/>
   <text class="terminal" x="78" y="469">PROTOBUF MESSAGE</text>
   <a xmlns:xlink="http://www.w3.org/1999/xlink"
      xlink:href="#message_name"
      xlink:title="message_name">
      <rect x="258" y="451" width="116" height="32"/>
      <rect x="256" y="449" width="116" height="32" class="nonterminal"/>
      <text class="nonterminal" x="266" y="469">message_name</text>
   </a>
   <rect x="394" y="451" width="126" height="32" rx="10"/>
   <rect x="392"
         y="449"
         width="126"
         height="32"
         class="terminal"
         rx="10"/>
   <text class="terminal" x="402" y="469">USING SCHEMA</text>
   <rect x="343" y="517" width="48" height="32" rx="10"/>
   <rect x="341"
         y="515"
         width="48"
         height="32"
         class="terminal"
         rx="10"/>
   <text class="terminal" x="351" y="535">FILE</text>
   <a xmlns:xlink="http://www.w3.org/1999/xlink"
      xlink:href="#schema_file_path"
      xlink:title="schema_file_path">
      <rect x="411" y="517" width="128" height="32"/>
      <rect x="409" y="515" width="128" height="32" class="nonterminal"/>
      <text class="nonterminal" x="419" y="535">schema_file_path</text>
   </a>
   <a xmlns:xlink="http://www.w3.org/1999/xlink"
      xlink:href="#inline_schema"
      xlink:title="inline_schema">
      <rect x="343" y="561" width="108" height="32"/>
      <rect x="341" y="559" width="108" height="32" class="nonterminal"/>
      <text class="nonterminal" x="351" y="579">inline_schema</text>
   </a>
   <path class="line"
         d="m17 17 h2 m0 0 h10 m136 0 h10 m20 0 h10 m0 0 h128 m-158 0 h20 m138 0 h20 m-178 0 q10 0 10 10 m158 0 q0 -10 10 -10 m-168 10 v12 m158 0 v-12 m-158 12 q0 10 10 10 m138 0 q10 0 10 -10 m-148 10 h10 m118 0 h10 m20 -32 h10 m80 0 h10 m2 0 l2 0 m2 0 l2 0 m2 0 l2 0 m-464 142 l2 0 m2 0 l2 0 m2 0 l2 0 m22 0 h10 m24 0 h10 m20 0 h10 m80 0 h10 m-120 0 l20 0 m-1 0 q-9 0 -9 -10 l0 -24 q0 -10 10 -10 m100 44 l20 0 m-20 0 q10 0 10 -10 l0 -24 q0 -10 -10 -10 m-100 0 h10 m24 0 h10 m0 0 h56 m20 44 h10 m24 0 h10 m-248 0 h20 m228 0 h20 m-268 0 q10 0 10 10 m248 0 q0 -10 10 -10 m-258 10 v14 m248 0 v-14 m-248 14 q0 10 10 10 m228 0 q10 0 10 -10 m-238 10 h10 m0 0 h218 m20 -34 h10 m60 0 h10 m0 0 h10 m126 0 h10 m0 0 h10 m46 0 h10 m2 0 l2 0 m2 0 l2 0 m2 0 l2 0 m-400 82 l2 0 m2 0 l2 0 m2 0 l2 0 m2 0 h10 m62 0 h10 m20 0 h10 m0 0 h60 m-90 0 h20 m70 0 h20 m-110 0 q10 0 10 10 m90 0 q0 -10 10 -10 m-100 10 v12 m90 0 v-12 m-90 12 q0 10 10 10 m70 0 q10 0 10 -10 m-80 10 h10 m50 0 h10 m22 -32 l2 0 m2 0 l2 0 m2 0 l2 0 m-376 142 l2 0 m2 0 l2 0 m2 0 l2 0 m22 0 h10 m56 0 h10 m0 0 h10 m24 0 h10 m20 0 h10 m46 0 h10 m0 0 h10 m26 0 h10 m0 0 h10 m38 0 h10 m-190 0 l20 0 m-1 0 q-9 0 -9 -10 l0 -24 q0 -10 10 -10 m170 44 l20 0 m-20 0 q10 0 10 -10 l0 -24 q0 -10 -10 -10 m-170 0 h10 m24 0 h10 m0 0 h126 m20 44 h10 m24 0 h10 m-394 0 h20 m374 0 h20 m-414 0 q10 0 10 10 m394 0 q0 -10 10 -10 m-404 10 v14 m394 0 v-14 m-394 14 q0 10 10 10 m374 0 q10 0 10 -10 m-384 10 h10 m0 0 h364 m20 -34 h10 m78 0 h10 m2 0 l2 0 m2 0 l2 0 m2 0 l2 0 m-515 82 l2 0 m2 0 l2 0 m2 0 l2 0 m2 0 h10 m168 0 h10 m0 0 h10 m116 0 h10 m0 0 h10 m126 0 h10 m2 0 l2 0 m2 0 l2 0 m2 0 l2 0 m-241 66 l2 0 m2 0 l2 0 m2 0 l2 0 m22 0 h10 m48 0 h10 m0 0 h10 m128 0 h10 m-236 0 h20 m216 0 h20 m-256 0 q10 0 10 10 m236 0 q0 -10 10 -10 m-246 10 v24 m236 0 v-24 m-236 24 q0 10 10 10 m216 0 q10 0 10 -10 m-226 10 h10 m108 0 h10 m0 0 h88 m23 -44 h-3"/>
   <polygon points="577 531 585 527 585 535"/>
   <polygon points="577 531 569 527 569 535"/>
</svg>
