<svg xmlns="http://www.w3.org/2000/svg" width="587" height="451">
   <polygon points="9 17 1 13 1 21"/>
   <polygon points="17 17 9 13 9 21"/>
   <rect x="31" y="3" width="74" height="32" rx="10"/>
   <rect x="29"
         y="1"
         width="74"
         height="32"
         class="terminal"
         rx="10"/>
   <text class="terminal" x="39" y="21">CREATE</text>
   <rect x="145" y="35" width="120" height="32" rx="10"/>
   <rect x="143"
         y="33"
         width="120"
         height="32"
         class="terminal"
         rx="10"/>
   <text class="terminal" x="153" y="53">MATERIALIZED</text>
   <rect x="305" y="3" width="78" height="32" rx="10"/>
   <rect x="303"
         y="1"
         width="78"
         height="32"
         class="terminal"
         rx="10"/>
   <text class="terminal" x="313" y="21">SOURCE</text>
   <rect x="423" y="35" width="118" height="32" rx="10"/>
   <rect x="421"
         y="33"
         width="118"
         height="32"
         class="terminal"
         rx="10"/>
   <text class="terminal" x="431" y="53">IF NOT EXISTS</text>
   <rect x="25" y="145" width="80" height="32"/>
   <rect x="23" y="143" width="80" height="32" class="nonterminal"/>
   <text class="nonterminal" x="33" y="163">src_name</text>
   <rect x="145" y="145" width="24" height="32" rx="10"/>
   <rect x="143"
         y="143"
         width="24"
         height="32"
         class="terminal"
         rx="10"/>
   <text class="terminal" x="153" y="163">(</text>
   <rect x="209" y="145" width="80" height="32"/>
   <rect x="207" y="143" width="80" height="32" class="nonterminal"/>
   <text class="nonterminal" x="217" y="163">col_name</text>
   <rect x="209" y="101" width="24" height="32" rx="10"/>
   <rect x="207"
         y="99"
         width="24"
         height="32"
         class="terminal"
         rx="10"/>
   <text class="terminal" x="217" y="119">,</text>
   <rect x="329" y="145" width="24" height="32" rx="10"/>
   <rect x="327"
         y="143"
         width="24"
         height="32"
         class="terminal"
         rx="10"/>
   <text class="terminal" x="337" y="163">)</text>
   <rect x="393" y="145" width="60" height="32" rx="10"/>
   <rect x="391"
         y="143"
         width="60"
         height="32"
         class="terminal"
         rx="10"/>
   <text class="terminal" x="401" y="163">FROM</text>
   <rect x="473" y="145" width="92" height="32" rx="10"/>
   <rect x="471"
         y="143"
         width="92"
         height="32"
         class="terminal"
         rx="10"/>
   <text class="terminal" x="481" y="163">AVRO OCF</text>
   <rect x="64" y="271" width="48" height="32"/>
   <rect x="62" y="269" width="48" height="32" class="nonterminal"/>
   <text class="nonterminal" x="72" y="289">path</text>
   <rect x="152" y="271" width="56" height="32" rx="10"/>
   <rect x="150"
         y="269"
         width="56"
         height="32"
         class="terminal"
         rx="10"/>
   <text class="terminal" x="160" y="289">WITH</text>
   <rect x="228" y="271" width="24" height="32" rx="10"/>
   <rect x="226"
         y="269"
         width="24"
         height="32"
         class="terminal"
         rx="10"/>
   <text class="terminal" x="236" y="289">(</text>
   <rect x="292" y="271" width="46" height="32"/>
   <rect x="290" y="269" width="46" height="32" class="nonterminal"/>
   <text class="nonterminal" x="300" y="289">field</text>
   <rect x="358" y="271" width="26" height="32" rx="10"/>
   <rect x="356"
         y="269"
         width="26"
         height="32"
         class="terminal"
         rx="10"/>
   <text class="terminal" x="366" y="289">=</text>
   <rect x="404" y="271" width="38" height="32"/>
   <rect x="402" y="269" width="38" height="32" class="nonterminal"/>
   <text class="nonterminal" x="412" y="289">val</text>
   <rect x="292" y="227" width="24" height="32" rx="10"/>
   <rect x="290"
         y="225"
         width="24"
         height="32"
         class="terminal"
         rx="10"/>
   <text class="terminal" x="300" y="245">,</text>
   <rect x="482" y="271" width="24" height="32" rx="10"/>
   <rect x="480"
         y="269"
         width="24"
         height="32"
         class="terminal"
         rx="10"/>
   <text class="terminal" x="490" y="289">)</text>
   <rect x="295" y="373" width="92" height="32" rx="10"/>
   <rect x="293"
         y="371"
         width="92"
         height="32"
         class="terminal"
         rx="10"/>
   <text class="terminal" x="303" y="391">ENVELOPE</text>
   <rect x="427" y="373" width="60" height="32" rx="10"/>
   <rect x="425"
         y="371"
         width="60"
         height="32"
         class="terminal"
         rx="10"/>
   <text class="terminal" x="435" y="391">NONE</text>
   <rect x="427" y="417" width="92" height="32" rx="10"/>
   <rect x="425"
         y="415"
         width="92"
         height="32"
         class="terminal"
         rx="10"/>
   <text class="terminal" x="435" y="435">DEBEZIUM</text>
   <path class="line"
         d="m17 17 h2 m0 0 h10 m74 0 h10 m20 0 h10 m0 0 h130 m-160 0 h20 m140 0 h20 m-180 0 q10 0 10 10 m160 0 q0 -10 10 -10 m-170 10 v12 m160 0 v-12 m-160 12 q0 10 10 10 m140 0 q10 0 10 -10 m-150 10 h10 m120 0 h10 m20 -32 h10 m78 0 h10 m20 0 h10 m0 0 h128 m-158 0 h20 m138 0 h20 m-178 0 q10 0 10 10 m158 0 q0 -10 10 -10 m-168 10 v12 m158 0 v-12 m-158 12 q0 10 10 10 m138 0 q10 0 10 -10 m-148 10 h10 m118 0 h10 m22 -32 l2 0 m2 0 l2 0 m2 0 l2 0 m-580 142 l2 0 m2 0 l2 0 m2 0 l2 0 m2 0 h10 m80 0 h10 m20 0 h10 m24 0 h10 m20 0 h10 m80 0 h10 m-120 0 l20 0 m-1 0 q-9 0 -9 -10 l0 -24 q0 -10 10 -10 m100 44 l20 0 m-20 0 q10 0 10 -10 l0 -24 q0 -10 -10 -10 m-100 0 h10 m24 0 h10 m0 0 h56 m20 44 h10 m24 0 h10 m-248 0 h20 m228 0 h20 m-268 0 q10 0 10 10 m248 0 q0 -10 10 -10 m-258 10 v14 m248 0 v-14 m-248 14 q0 10 10 10 m228 0 q10 0 10 -10 m-238 10 h10 m0 0 h218 m20 -34 h10 m60 0 h10 m0 0 h10 m92 0 h10 m2 0 l2 0 m2 0 l2 0 m2 0 l2 0 m-545 126 l2 0 m2 0 l2 0 m2 0 l2 0 m2 0 h10 m48 0 h10 m20 0 h10 m56 0 h10 m0 0 h10 m24 0 h10 m20 0 h10 m46 0 h10 m0 0 h10 m26 0 h10 m0 0 h10 m38 0 h10 m-190 0 l20 0 m-1 0 q-9 0 -9 -10 l0 -24 q0 -10 10 -10 m170 44 l20 0 m-20 0 q10 0 10 -10 l0 -24 q0 -10 -10 -10 m-170 0 h10 m24 0 h10 m0 0 h126 m20 44 h10 m24 0 h10 m-394 0 h20 m374 0 h20 m-414 0 q10 0 10 10 m394 0 q0 -10 10 -10 m-404 10 v14 m394 0 v-14 m-394 14 q0 10 10 10 m374 0 q10 0 10 -10 m-384 10 h10 m0 0 h364 m22 -34 l2 0 m2 0 l2 0 m2 0 l2 0 m-295 70 l2 0 m2 0 l2 0 m2 0 l2 0 m22 0 h10 m0 0 h254 m-284 0 h20 m264 0 h20 m-304 0 q10 0 10 10 m284 0 q0 -10 10 -10 m-294 10 v12 m284 0 v-12 m-284 12 q0 10 10 10 m264 0 q10 0 10 -10 m-274 10 h10 m92 0 h10 m20 0 h10 m60 0 h10 m0 0 h32 m-132 0 h20 m112 0 h20 m-152 0 q10 0 10 10 m132 0 q0 -10 10 -10 m-142 10 v24 m132 0 v-24 m-132 24 q0 10 10 10 m112 0 q10 0 10 -10 m-122 10 h10 m92 0 h10 m43 -76 h-3"/>
   <polygon points="577 355 585 351 585 359"/>
   <polygon points="577 355 569 351 569 359"/>
</svg>
