<svg xmlns="http://www.w3.org/2000/svg" width="915" height="1265">
   <polygon points="9 17 1 13 1 21"/>
   <polygon points="17 17 9 13 9 21"/>
   <rect x="31" y="3" width="140" height="32" rx="10"/>
   <rect x="29"
         y="1"
         width="140"
         height="32"
         class="terminal"
         rx="10"/>
   <text class="terminal" x="39" y="21">CREATE SOURCE</text>
   <rect x="211" y="35" width="120" height="32" rx="10"/>
   <rect x="209"
         y="33"
         width="120"
         height="32"
         class="terminal"
         rx="10"/>
   <text class="terminal" x="219" y="53">IF NOT EXISTS</text>
   <rect x="371" y="3" width="82" height="32"/>
   <rect x="369" y="1" width="82" height="32" class="nonterminal"/>
   <text class="nonterminal" x="379" y="21">src_name</text>
   <rect x="206" y="145" width="26" height="32" rx="10"/>
   <rect x="204"
         y="143"
         width="26"
         height="32"
         class="terminal"
         rx="10"/>
   <text class="terminal" x="214" y="163">(</text>
   <rect x="272" y="145" width="82" height="32"/>
   <rect x="270" y="143" width="82" height="32" class="nonterminal"/>
   <text class="nonterminal" x="280" y="163">col_name</text>
   <rect x="272" y="101" width="24" height="32" rx="10"/>
   <rect x="270"
         y="99"
         width="24"
         height="32"
         class="terminal"
         rx="10"/>
   <text class="terminal" x="280" y="119">,</text>
   <rect x="394" y="145" width="26" height="32" rx="10"/>
   <rect x="392"
         y="143"
         width="26"
         height="32"
         class="terminal"
         rx="10"/>
   <text class="terminal" x="402" y="163">)</text>
   <rect x="480" y="177" width="104" height="32" rx="10"/>
   <rect x="478"
         y="175"
         width="104"
         height="32"
         class="terminal"
         rx="10"/>
   <text class="terminal" x="488" y="195">IN CLUSTER</text>
   <rect x="604" y="177" width="108" height="32"/>
   <rect x="602" y="175" width="108" height="32" class="nonterminal"/>
   <text class="nonterminal" x="612" y="195">cluster_name</text>
   <rect x="216" y="243" width="60" height="32" rx="10"/>
   <rect x="214"
         y="241"
         width="60"
         height="32"
         class="terminal"
         rx="10"/>
   <text class="terminal" x="224" y="261">FROM</text>
   <rect x="296" y="243" width="68" height="32" rx="10"/>
   <rect x="294"
         y="241"
         width="68"
         height="32"
         class="terminal"
         rx="10"/>
   <text class="terminal" x="304" y="261">KAFKA</text>
   <rect x="384" y="243" width="116" height="32" rx="10"/>
   <rect x="382"
         y="241"
         width="116"
         height="32"
         class="terminal"
         rx="10"/>
   <text class="terminal" x="392" y="261">CONNECTION</text>
   <rect x="520" y="243" width="136" height="32"/>
   <rect x="518" y="241" width="136" height="32" class="nonterminal"/>
   <text class="nonterminal" x="528" y="261">connection_name</text>
   <rect x="676" y="243" width="26" height="32" rx="10"/>
   <rect x="674"
         y="241"
         width="26"
         height="32"
         class="terminal"
         rx="10"/>
   <text class="terminal" x="684" y="261">(</text>
   <rect x="246" y="309" width="64" height="32" rx="10"/>
   <rect x="244"
         y="307"
         width="64"
         height="32"
         class="terminal"
         rx="10"/>
   <text class="terminal" x="254" y="327">TOPIC</text>
   <rect x="330" y="309" width="52" height="32"/>
   <rect x="328" y="307" width="52" height="32" class="nonterminal"/>
   <text class="nonterminal" x="338" y="327">topic</text>
   <rect x="422" y="341" width="24" height="32" rx="10"/>
   <rect x="420"
         y="339"
         width="24"
         height="32"
         class="terminal"
         rx="10"/>
   <text class="terminal" x="430" y="359">,</text>
   <rect x="466" y="341" width="140" height="32"/>
   <rect x="464" y="339" width="140" height="32" class="nonterminal"/>
   <text class="nonterminal" x="474" y="359">connection_option</text>
   <rect x="646" y="309" width="26" height="32" rx="10"/>
   <rect x="644"
         y="307"
         width="26"
         height="32"
         class="terminal"
         rx="10"/>
   <text class="terminal" x="654" y="327">)</text>
   <rect x="204" y="407" width="114" height="32" rx="10"/>
   <rect x="202"
         y="405"
         width="114"
         height="32"
         class="terminal"
         rx="10"/>
   <text class="terminal" x="212" y="425">KEY FORMAT</text>
   <rect x="338" y="407" width="102" height="32"/>
   <rect x="336" y="405" width="102" height="32" class="nonterminal"/>
   <text class="nonterminal" x="346" y="425">format_spec</text>
   <rect x="460" y="407" width="132" height="32" rx="10"/>
   <rect x="458"
         y="405"
         width="132"
         height="32"
         class="terminal"
         rx="10"/>
   <text class="terminal" x="468" y="425">VALUE FORMAT</text>
   <rect x="204" y="451" width="80" height="32" rx="10"/>
   <rect x="202"
         y="449"
         width="80"
         height="32"
         class="terminal"
         rx="10"/>
   <text class="terminal" x="212" y="469">FORMAT</text>
   <rect x="632" y="407" width="102" height="32"/>
   <rect x="630" y="405" width="102" height="32" class="nonterminal"/>
   <text class="nonterminal" x="640" y="425">format_spec</text>
   <rect x="166" y="561" width="82" height="32" rx="10"/>
   <rect x="164"
         y="559"
         width="82"
         height="32"
         class="terminal"
         rx="10"/>
   <text class="terminal" x="174" y="579">INCLUDE</text>
   <rect x="328" y="561" width="48" height="32" rx="10"/>
   <rect x="326"
         y="559"
         width="48"
         height="32"
         class="terminal"
         rx="10"/>
   <text class="terminal" x="336" y="579">KEY</text>
   <rect x="328" y="605" width="96" height="32" rx="10"/>
   <rect x="326"
         y="603"
         width="96"
         height="32"
         class="terminal"
         rx="10"/>
   <text class="terminal" x="336" y="623">PARTITION</text>
   <rect x="328" y="649" width="74" height="32" rx="10"/>
   <rect x="326"
         y="647"
         width="74"
         height="32"
         class="terminal"
         rx="10"/>
   <text class="terminal" x="336" y="667">OFFSET</text>
   <rect x="328" y="693" width="106" height="32" rx="10"/>
   <rect x="326"
         y="691"
         width="106"
         height="32"
         class="terminal"
         rx="10"/>
   <text class="terminal" x="336" y="711">TIMESTAMP</text>
   <rect x="328" y="737" width="86" height="32" rx="10"/>
   <rect x="326"
         y="735"
         width="86"
         height="32"
         class="terminal"
         rx="10"/>
   <text class="terminal" x="336" y="755">HEADERS</text>
   <rect x="494" y="593" width="40" height="32" rx="10"/>
   <rect x="492"
         y="591"
         width="40"
         height="32"
         class="terminal"
         rx="10"/>
   <text class="terminal" x="502" y="611">AS</text>
   <rect x="554" y="593" width="56" height="32"/>
   <rect x="552" y="591" width="56" height="32" class="nonterminal"/>
   <text class="nonterminal" x="562" y="611">name</text>
   <rect x="308" y="781" width="78" height="32" rx="10"/>
   <rect x="306"
         y="779"
         width="78"
         height="32"
         class="terminal"
         rx="10"/>
   <text class="terminal" x="316" y="799">HEADER</text>
   <rect x="406" y="781" width="44" height="32"/>
   <rect x="404" y="779" width="44" height="32" class="nonterminal"/>
   <text class="nonterminal" x="414" y="799">key</text>
   <rect x="470" y="781" width="40" height="32" rx="10"/>
   <rect x="468"
         y="779"
         width="40"
         height="32"
         class="terminal"
         rx="10"/>
   <text class="terminal" x="478" y="799">AS</text>
   <rect x="530" y="781" width="56" height="32"/>
   <rect x="528" y="779" width="56" height="32" class="nonterminal"/>
   <text class="nonterminal" x="538" y="799">name</text>
   <rect x="626" y="813" width="66" height="32" rx="10"/>
   <rect x="624"
         y="811"
         width="66"
         height="32"
         class="terminal"
         rx="10"/>
   <text class="terminal" x="634" y="831">BYTES</text>
   <rect x="288" y="517" width="24" height="32" rx="10"/>
   <rect x="286"
         y="515"
         width="24"
         height="32"
         class="terminal"
         rx="10"/>
   <text class="terminal" x="296" y="535">,</text>
   <rect x="45" y="911" width="94" height="32" rx="10"/>
   <rect x="43"
         y="909"
         width="94"
         height="32"
         class="terminal"
         rx="10"/>
   <text class="terminal" x="53" y="929">ENVELOPE</text>
   <rect x="179" y="911" width="60" height="32" rx="10"/>
   <rect x="177"
         y="909"
         width="60"
         height="32"
         class="terminal"
         rx="10"/>
   <text class="terminal" x="187" y="929">NONE</text>
   <rect x="179" y="955" width="92" height="32" rx="10"/>
   <rect x="177"
         y="953"
         width="92"
         height="32"
         class="terminal"
         rx="10"/>
   <text class="terminal" x="187" y="973">DEBEZIUM</text>
   <rect x="179" y="999" width="76" height="32" rx="10"/>
   <rect x="177"
         y="997"
         width="76"
         height="32"
         class="terminal"
         rx="10"/>
   <text class="terminal" x="187" y="1017">UPSERT</text>
   <rect x="295" y="1031" width="26" height="32" rx="10"/>
   <rect x="293"
         y="1029"
         width="26"
         height="32"
         class="terminal"
         rx="10"/>
   <text class="terminal" x="303" y="1049">(</text>
   <rect x="341" y="1031" width="270" height="32" rx="10"/>
   <rect x="339"
         y="1029"
         width="270"
         height="32"
         class="terminal"
         rx="10"/>
   <text class="terminal" x="349" y="1049">VALUE DECODING ERRORS = INLINE</text>
   <rect x="651" y="1063" width="40" height="32" rx="10"/>
   <rect x="649"
         y="1061"
         width="40"
         height="32"
         class="terminal"
         rx="10"/>
   <text class="terminal" x="659" y="1081">AS</text>
   <rect x="711" y="1063" width="56" height="32"/>
   <rect x="709" y="1061" width="56" height="32" class="nonterminal"/>
   <text class="nonterminal" x="719" y="1081">name</text>
   <rect x="807" y="1031" width="26" height="32" rx="10"/>
   <rect x="805"
         y="1029"
         width="26"
         height="32"
         class="terminal"
         rx="10"/>
   <text class="terminal" x="815" y="1049">)</text>
   <rect x="225" y="1145" width="76" height="32" rx="10"/>
   <rect x="223"
         y="1143"
         width="76"
         height="32"
         class="terminal"
         rx="10"/>
   <text class="terminal" x="233" y="1163">EXPOSE</text>
   <rect x="321" y="1145" width="96" height="32" rx="10"/>
   <rect x="319"
         y="1143"
         width="96"
         height="32"
         class="terminal"
         rx="10"/>
   <text class="terminal" x="329" y="1163">PROGRESS</text>
   <rect x="437" y="1145" width="40" height="32" rx="10"/>
   <rect x="435"
         y="1143"
         width="40"
         height="32"
         class="terminal"
         rx="10"/>
   <text class="terminal" x="445" y="1163">AS</text>
   <rect x="497" y="1145" width="196" height="32"/>
   <rect x="495"
         y="1143"
         width="196"
         height="32"
         class="nonterminal"/>
   <text class="nonterminal" x="505" y="1163">progress_subsource_name</text>
   <rect x="765" y="1231" width="102" height="32"/>
   <rect x="763"
         y="1229"
         width="102"
         height="32"
         class="nonterminal"/>
   <text class="nonterminal" x="773" y="1249">with_options</text>
   <path class="line"
         d="m17 17 h2 m0 0 h10 m140 0 h10 m20 0 h10 m0 0 h130 m-160 0 h20 m140 0 h20 m-180 0 q10 0 10 10 m160 0 q0 -10 10 -10 m-170 10 v12 m160 0 v-12 m-160 12 q0 10 10 10 m140 0 q10 0 10 -10 m-150 10 h10 m120 0 h10 m20 -32 h10 m82 0 h10 m2 0 l2 0 m2 0 l2 0 m2 0 l2 0 m-311 142 l2 0 m2 0 l2 0 m2 0 l2 0 m22 0 h10 m26 0 h10 m20 0 h10 m82 0 h10 m-122 0 l20 0 m-1 0 q-9 0 -9 -10 l0 -24 q0 -10 10 -10 m102 44 l20 0 m-20 0 q10 0 10 -10 l0 -24 q0 -10 -10 -10 m-102 0 h10 m24 0 h10 m0 0 h58 m20 44 h10 m26 0 h10 m-254 0 h20 m234 0 h20 m-274 0 q10 0 10 10 m254 0 q0 -10 10 -10 m-264 10 v14 m254 0 v-14 m-254 14 q0 10 10 10 m234 0 q10 0 10 -10 m-244 10 h10 m0 0 h224 m40 -34 h10 m0 0 h242 m-272 0 h20 m252 0 h20 m-292 0 q10 0 10 10 m272 0 q0 -10 10 -10 m-282 10 v12 m272 0 v-12 m-272 12 q0 10 10 10 m252 0 q10 0 10 -10 m-262 10 h10 m104 0 h10 m0 0 h10 m108 0 h10 m22 -32 l2 0 m2 0 l2 0 m2 0 l2 0 m-560 98 l2 0 m2 0 l2 0 m2 0 l2 0 m2 0 h10 m60 0 h10 m0 0 h10 m68 0 h10 m0 0 h10 m116 0 h10 m0 0 h10 m136 0 h10 m0 0 h10 m26 0 h10 m2 0 l2 0 m2 0 l2 0 m2 0 l2 0 m-500 66 l2 0 m2 0 l2 0 m2 0 l2 0 m2 0 h10 m64 0 h10 m0 0 h10 m52 0 h10 m20 0 h10 m0 0 h194 m-224 0 h20 m204 0 h20 m-244 0 q10 0 10 10 m224 0 q0 -10 10 -10 m-234 10 v12 m224 0 v-12 m-224 12 q0 10 10 10 m204 0 q10 0 10 -10 m-214 10 h10 m24 0 h10 m0 0 h10 m140 0 h10 m20 -32 h10 m26 0 h10 m2 0 l2 0 m2 0 l2 0 m2 0 l2 0 m-532 98 l2 0 m2 0 l2 0 m2 0 l2 0 m22 0 h10 m114 0 h10 m0 0 h10 m102 0 h10 m0 0 h10 m132 0 h10 m-428 0 h20 m408 0 h20 m-448 0 q10 0 10 10 m428 0 q0 -10 10 -10 m-438 10 v24 m428 0 v-24 m-428 24 q0 10 10 10 m408 0 q10 0 10 -10 m-418 10 h10 m80 0 h10 m0 0 h308 m20 -44 h10 m102 0 h10 m2 0 l2 0 m2 0 l2 0 m2 0 l2 0 m-632 154 l2 0 m2 0 l2 0 m2 0 l2 0 m22 0 h10 m82 0 h10 m60 0 h10 m48 0 h10 m0 0 h58 m-146 0 h20 m126 0 h20 m-166 0 q10 0 10 10 m146 0 q0 -10 10 -10 m-156 10 v24 m146 0 v-24 m-146 24 q0 10 10 10 m126 0 q10 0 10 -10 m-136 10 h10 m96 0 h10 m0 0 h10 m-136 -10 v20 m146 0 v-20 m-146 20 v24 m146 0 v-24 m-146 24 q0 10 10 10 m126 0 q10 0 10 -10 m-136 10 h10 m74 0 h10 m0 0 h32 m-136 -10 v20 m146 0 v-20 m-146 20 v24 m146 0 v-24 m-146 24 q0 10 10 10 m126 0 q10 0 10 -10 m-136 10 h10 m106 0 h10 m-136 -10 v20 m146 0 v-20 m-146 20 v24 m146 0 v-24 m-146 24 q0 10 10 10 m126 0 q10 0 10 -10 m-136 10 h10 m86 0 h10 m0 0 h20 m40 -176 h10 m0 0 h126 m-156 0 h20 m136 0 h20 m-176 0 q10 0 10 10 m156 0 q0 -10 10 -10 m-166 10 v12 m156 0 v-12 m-156 12 q0 10 10 10 m136 0 q10 0 10 -10 m-146 10 h10 m40 0 h10 m0 0 h10 m56 0 h10 m20 -32 h82 m-444 0 h20 m424 0 h20 m-464 0 q10 0 10 10 m444 0 q0 -10 10 -10 m-454 10 v200 m444 0 v-200 m-444 200 q0 10 10 10 m424 0 q10 0 10 -10 m-434 10 h10 m78 0 h10 m0 0 h10 m44 0 h10 m0 0 h10 m40 0 h10 m0 0 h10 m56 0 h10 m20 0 h10 m0 0 h76 m-106 0 h20 m86 0 h20 m-126 0 q10 0 10 10 m106 0 q0 -10 10 -10 m-116 10 v12 m106 0 v-12 m-106 12 q0 10 10 10 m86 0 q10 0 10 -10 m-96 10 h10 m66 0 h10 m-444 -252 l20 0 m-1 0 q-9 0 -9 -10 l0 -24 q0 -10 10 -10 m464 44 l20 0 m-20 0 q10 0 10 -10 l0 -24 q0 -10 -10 -10 m-464 0 h10 m24 0 h10 m0 0 h420 m-606 44 h20 m606 0 h20 m-646 0 q10 0 10 10 m626 0 q0 -10 10 -10 m-636 10 v266 m626 0 v-266 m-626 266 q0 10 10 10 m606 0 q10 0 10 -10 m-616 10 h10 m0 0 h596 m22 -286 l2 0 m2 0 l2 0 m2 0 l2 0 m-791 318 l2 0 m2 0 l2 0 m2 0 l2 0 m22 0 h10 m0 0 h838 m-868 0 h20 m848 0 h20 m-888 0 q10 0 10 10 m868 0 q0 -10 10 -10 m-878 10 v12 m868 0 v-12 m-868 12 q0 10 10 10 m848 0 q10 0 10 -10 m-858 10 h10 m94 0 h10 m20 0 h10 m60 0 h10 m0 0 h614 m-714 0 h20 m694 0 h20 m-734 0 q10 0 10 10 m714 0 q0 -10 10 -10 m-724 10 v24 m714 0 v-24 m-714 24 q0 10 10 10 m694 0 q10 0 10 -10 m-704 10 h10 m92 0 h10 m0 0 h582 m-704 -10 v20 m714 0 v-20 m-714 20 v24 m714 0 v-24 m-714 24 q0 10 10 10 m694 0 q10 0 10 -10 m-704 10 h10 m76 0 h10 m20 0 h10 m0 0 h548 m-578 0 h20 m558 0 h20 m-598 0 q10 0 10 10 m578 0 q0 -10 10 -10 m-588 10 v12 m578 0 v-12 m-578 12 q0 10 10 10 m558 0 q10 0 10 -10 m-568 10 h10 m26 0 h10 m0 0 h10 m270 0 h10 m20 0 h10 m0 0 h126 m-156 0 h20 m136 0 h20 m-176 0 q10 0 10 10 m156 0 q0 -10 10 -10 m-166 10 v12 m156 0 v-12 m-156 12 q0 10 10 10 m136 0 q10 0 10 -10 m-146 10 h10 m40 0 h10 m0 0 h10 m56 0 h10 m20 -32 h10 m26 0 h10 m62 -152 l2 0 m2 0 l2 0 m2 0 l2 0 m-732 234 l2 0 m2 0 l2 0 m2 0 l2 0 m22 0 h10 m0 0 h478 m-508 0 h20 m488 0 h20 m-528 0 q10 0 10 10 m508 0 q0 -10 10 -10 m-518 10 v12 m508 0 v-12 m-508 12 q0 10 10 10 m488 0 q10 0 10 -10 m-498 10 h10 m76 0 h10 m0 0 h10 m96 0 h10 m0 0 h10 m40 0 h10 m0 0 h10 m196 0 h10 m22 -32 l2 0 m2 0 l2 0 m2 0 l2 0 m-12 86 l2 0 m2 0 l2 0 m2 0 l2 0 m22 0 h10 m0 0 h112 m-142 0 h20 m122 0 h20 m-162 0 q10 0 10 10 m142 0 q0 -10 10 -10 m-152 10 v12 m142 0 v-12 m-142 12 q0 10 10 10 m122 0 q10 0 10 -10 m-132 10 h10 m102 0 h10 m23 -32 h-3"/>
   <polygon points="905 1213 913 1209 913 1217"/>
   <polygon points="905 1213 897 1209 897 1217"/>
</svg>
