<svg xmlns="http://www.w3.org/2000/svg" width="601" height="453">
   <polygon points="9 17 1 13 1 21"/>
   <polygon points="17 17 9 13 9 21"/>
   <rect x="31" y="3" width="76" height="32" rx="10"/>
   <rect x="29"
         y="1"
         width="76"
         height="32"
         class="terminal"
         rx="10"/>
   <text class="terminal" x="39" y="21">CREATE</text>
   <rect x="127" y="3" width="116" height="32" rx="10"/>
   <rect x="125"
         y="1"
         width="116"
         height="32"
         class="terminal"
         rx="10"/>
   <text class="terminal" x="135" y="21">CONNECTION</text>
   <rect x="283" y="35" width="120" height="32" rx="10"/>
   <rect x="281"
         y="33"
         width="120"
         height="32"
         class="terminal"
         rx="10"/>
   <text class="terminal" x="291" y="53">IF NOT EXISTS</text>
   <rect x="443" y="3" width="136" height="32"/>
   <rect x="441" y="1" width="136" height="32" class="nonterminal"/>
   <text class="nonterminal" x="451" y="21">connection_name</text>
   <rect x="70" y="101" width="40" height="32" rx="10"/>
   <rect x="68"
         y="99"
         width="40"
         height="32"
         class="terminal"
         rx="10"/>
   <text class="terminal" x="78" y="119">TO</text>
   <rect x="150" y="101" width="54" height="32" rx="10"/>
   <rect x="148"
         y="99"
         width="54"
         height="32"
         class="terminal"
         rx="10"/>
   <text class="terminal" x="158" y="119">AWS</text>
   <rect x="224" y="101" width="112" height="32" rx="10"/>
   <rect x="222"
         y="99"
         width="112"
         height="32"
         class="terminal"
         rx="10"/>
   <text class="terminal" x="232" y="119">PRIVATELINK</text>
   <rect x="150" y="145" width="106" height="32" rx="10"/>
   <rect x="148"
         y="143"
         width="106"
         height="32"
         class="terminal"
         rx="10"/>
   <text class="terminal" x="158" y="163">CONFLUENT</text>
   <rect x="276" y="145" width="82" height="32" rx="10"/>
   <rect x="274"
         y="143"
         width="82"
         height="32"
         class="terminal"
         rx="10"/>
   <text class="terminal" x="284" y="163">SCHEMA</text>
   <rect x="378" y="145" width="90" height="32" rx="10"/>
   <rect x="376"
         y="143"
         width="90"
         height="32"
         class="terminal"
         rx="10"/>
   <text class="terminal" x="386" y="163">REGISTRY</text>
   <rect x="150" y="189" width="68" height="32" rx="10"/>
   <rect x="148"
         y="187"
         width="68"
         height="32"
         class="terminal"
         rx="10"/>
   <text class="terminal" x="158" y="207">KAFKA</text>
   <rect x="150" y="233" width="96" height="32" rx="10"/>
   <rect x="148"
         y="231"
         width="96"
         height="32"
         class="terminal"
         rx="10"/>
   <text class="terminal" x="158" y="251">POSTGRES</text>
   <rect x="150" y="277" width="48" height="32" rx="10"/>
   <rect x="148"
         y="275"
         width="48"
         height="32"
         class="terminal"
         rx="10"/>
   <text class="terminal" x="158" y="295">SSH</text>
   <rect x="218" y="277" width="76" height="32" rx="10"/>
   <rect x="216"
         y="275"
         width="76"
         height="32"
         class="terminal"
         rx="10"/>
   <text class="terminal" x="226" y="295">TUNNEL</text>
   <rect x="508" y="101" width="26" height="32" rx="10"/>
   <rect x="506"
         y="99"
         width="26"
         height="32"
         class="terminal"
         rx="10"/>
   <text class="terminal" x="516" y="119">(</text>
   <rect x="313" y="387" width="48" height="32"/>
   <rect x="311" y="385" width="48" height="32" class="nonterminal"/>
   <text class="nonterminal" x="321" y="405">field</text>
   <rect x="401" y="419" width="28" height="32" rx="10"/>
   <rect x="399"
         y="417"
         width="28"
         height="32"
         class="terminal"
         rx="10"/>
   <text class="terminal" x="409" y="437">=</text>
   <rect x="469" y="387" width="38" height="32"/>
   <rect x="467" y="385" width="38" height="32" class="nonterminal"/>
   <text class="nonterminal" x="477" y="405">val</text>
   <rect x="313" y="343" width="24" height="32" rx="10"/>
   <rect x="311"
         y="341"
         width="24"
         height="32"
         class="terminal"
         rx="10"/>
   <text class="terminal" x="321" y="361">,</text>
   <rect x="547" y="387" width="26" height="32" rx="10"/>
   <rect x="545"
         y="385"
         width="26"
         height="32"
         class="terminal"
         rx="10"/>
   <text class="terminal" x="555" y="405">)</text>
   <path class="line"
         d="m17 17 h2 m0 0 h10 m76 0 h10 m0 0 h10 m116 0 h10 m20 0 h10 m0 0 h130 m-160 0 h20 m140 0 h20 m-180 0 q10 0 10 10 m160 0 q0 -10 10 -10 m-170 10 v12 m160 0 v-12 m-160 12 q0 10 10 10 m140 0 q10 0 10 -10 m-150 10 h10 m120 0 h10 m20 -32 h10 m136 0 h10 m2 0 l2 0 m2 0 l2 0 m2 0 l2 0 m-553 98 l2 0 m2 0 l2 0 m2 0 l2 0 m2 0 h10 m40 0 h10 m20 0 h10 m54 0 h10 m0 0 h10 m112 0 h10 m0 0 h132 m-358 0 h20 m338 0 h20 m-378 0 q10 0 10 10 m358 0 q0 -10 10 -10 m-368 10 v24 m358 0 v-24 m-358 24 q0 10 10 10 m338 0 q10 0 10 -10 m-348 10 h10 m106 0 h10 m0 0 h10 m82 0 h10 m0 0 h10 m90 0 h10 m-348 -10 v20 m358 0 v-20 m-358 20 v24 m358 0 v-24 m-358 24 q0 10 10 10 m338 0 q10 0 10 -10 m-348 10 h10 m68 0 h10 m0 0 h250 m-348 -10 v20 m358 0 v-20 m-358 20 v24 m358 0 v-24 m-358 24 q0 10 10 10 m338 0 q10 0 10 -10 m-348 10 h10 m96 0 h10 m0 0 h222 m-348 -10 v20 m358 0 v-20 m-358 20 v24 m358 0 v-24 m-358 24 q0 10 10 10 m338 0 q10 0 10 -10 m-348 10 h10 m48 0 h10 m0 0 h10 m76 0 h10 m0 0 h174 m20 -176 h10 m26 0 h10 m2 0 l2 0 m2 0 l2 0 m2 0 l2 0 m-285 286 l2 0 m2 0 l2 0 m2 0 l2 0 m22 0 h10 m48 0 h10 m20 0 h10 m0 0 h38 m-68 0 h20 m48 0 h20 m-88 0 q10 0 10 10 m68 0 q0 -10 10 -10 m-78 10 v12 m68 0 v-12 m-68 12 q0 10 10 10 m48 0 q10 0 10 -10 m-58 10 h10 m28 0 h10 m20 -32 h10 m38 0 h10 m-234 0 l20 0 m-1 0 q-9 0 -9 -10 l0 -24 q0 -10 10 -10 m214 44 l20 0 m-20 0 q10 0 10 -10 l0 -24 q0 -10 -10 -10 m-214 0 h10 m24 0 h10 m0 0 h170 m20 44 h10 m26 0 h10 m3 0 h-3"/>
   <polygon points="591 401 599 397 599 405"/>
   <polygon points="591 401 583 397 583 405"/>
</svg>
