<svg xmlns="http://www.w3.org/2000/svg" width="603" height="827">
   <polygon points="9 17 1 13 1 21"/>
   <polygon points="17 17 9 13 9 21"/>
   <rect x="31" y="3" width="76" height="32" rx="10"/>
   <rect x="29"
         y="1"
         width="76"
         height="32"
         class="terminal"
         rx="10"/>
   <text class="terminal" x="39" y="21">CREATE</text>
   <rect x="147" y="35" width="124" height="32" rx="10"/>
   <rect x="145"
         y="33"
         width="124"
         height="32"
         class="terminal"
         rx="10"/>
   <text class="terminal" x="155" y="53">MATERIALIZED</text>
   <rect x="311" y="3" width="78" height="32" rx="10"/>
   <rect x="309"
         y="1"
         width="78"
         height="32"
         class="terminal"
         rx="10"/>
   <text class="terminal" x="319" y="21">SOURCE</text>
   <rect x="429" y="35" width="120" height="32" rx="10"/>
   <rect x="427"
         y="33"
         width="120"
         height="32"
         class="terminal"
         rx="10"/>
   <text class="terminal" x="437" y="53">IF NOT EXISTS</text>
   <rect x="262" y="101" width="82" height="32"/>
   <rect x="260" y="99" width="82" height="32" class="nonterminal"/>
   <text class="nonterminal" x="270" y="119">src_name</text>
   <rect x="46" y="211" width="26" height="32" rx="10"/>
   <rect x="44"
         y="209"
         width="26"
         height="32"
         class="terminal"
         rx="10"/>
   <text class="terminal" x="54" y="229">(</text>
   <rect x="112" y="211" width="82" height="32"/>
   <rect x="110" y="209" width="82" height="32" class="nonterminal"/>
   <text class="nonterminal" x="120" y="229">col_name</text>
   <rect x="112" y="167" width="24" height="32" rx="10"/>
   <rect x="110"
         y="165"
         width="24"
         height="32"
         class="terminal"
         rx="10"/>
   <text class="terminal" x="120" y="185">,</text>
   <rect x="254" y="243" width="24" height="32" rx="10"/>
   <rect x="252"
         y="241"
         width="24"
         height="32"
         class="terminal"
         rx="10"/>
   <text class="terminal" x="262" y="261">,</text>
   <rect x="298" y="243" width="116" height="32"/>
   <rect x="296" y="241" width="116" height="32" class="nonterminal"/>
   <text class="nonterminal" x="306" y="261">key_constraint</text>
   <rect x="454" y="211" width="26" height="32" rx="10"/>
   <rect x="452"
         y="209"
         width="26"
         height="32"
         class="terminal"
         rx="10"/>
   <text class="terminal" x="462" y="229">)</text>
   <rect x="520" y="211" width="60" height="32" rx="10"/>
   <rect x="518"
         y="209"
         width="60"
         height="32"
         class="terminal"
         rx="10"/>
   <text class="terminal" x="528" y="229">FROM</text>
   <rect x="25" y="325" width="130" height="32" rx="10"/>
   <rect x="23"
         y="323"
         width="130"
         height="32"
         class="terminal"
         rx="10"/>
   <text class="terminal" x="33" y="343">KAFKA BROKER</text>
   <rect x="175" y="325" width="48" height="32"/>
   <rect x="173" y="323" width="48" height="32" class="nonterminal"/>
   <text class="nonterminal" x="183" y="343">host</text>
   <rect x="243" y="325" width="64" height="32" rx="10"/>
   <rect x="241"
         y="323"
         width="64"
         height="32"
         class="terminal"
         rx="10"/>
   <text class="terminal" x="251" y="343">TOPIC</text>
   <rect x="347" y="357" width="52" height="32"/>
   <rect x="345" y="355" width="52" height="32" class="nonterminal"/>
   <text class="nonterminal" x="355" y="375">topic</text>
   <rect x="459" y="357" width="102" height="32"/>
   <rect x="457" y="355" width="102" height="32" class="nonterminal"/>
   <text class="nonterminal" x="467" y="375">with_options</text>
   <rect x="109" y="423" width="114" height="32" rx="10"/>
   <rect x="107"
         y="421"
         width="114"
         height="32"
         class="terminal"
         rx="10"/>
   <text class="terminal" x="117" y="441">KEY FORMAT</text>
   <rect x="243" y="423" width="102" height="32"/>
   <rect x="241" y="421" width="102" height="32" class="nonterminal"/>
   <text class="nonterminal" x="251" y="441">format_spec</text>
   <rect x="365" y="423" width="132" height="32" rx="10"/>
   <rect x="363"
         y="421"
         width="132"
         height="32"
         class="terminal"
         rx="10"/>
   <text class="terminal" x="373" y="441">VALUE FORMAT</text>
   <rect x="109" y="467" width="80" height="32" rx="10"/>
   <rect x="107"
         y="465"
         width="80"
         height="32"
         class="terminal"
         rx="10"/>
   <text class="terminal" x="117" y="485">FORMAT</text>
   <rect x="38" y="533" width="170" height="32" rx="10"/>
   <rect x="36"
         y="531"
         width="170"
         height="32"
         class="terminal"
         rx="10"/>
   <text class="terminal" x="46" y="551">PROTOBUF MESSAGE</text>
   <rect x="228" y="533" width="122" height="32"/>
   <rect x="226" y="531" width="122" height="32" class="nonterminal"/>
   <text class="nonterminal" x="236" y="551">message_name</text>
   <rect x="370" y="533" width="130" height="32" rx="10"/>
   <rect x="368"
         y="531"
         width="130"
         height="32"
         class="terminal"
         rx="10"/>
   <text class="terminal" x="378" y="551">USING SCHEMA</text>
   <rect x="520" y="533" width="48" height="32" rx="10"/>
   <rect x="518"
         y="531"
         width="48"
         height="32"
         class="terminal"
         rx="10"/>
   <text class="terminal" x="528" y="551">FILE</text>
   <rect x="47" y="599" width="132" height="32"/>
   <rect x="45" y="597" width="132" height="32" class="nonterminal"/>
   <text class="nonterminal" x="55" y="617">schema_file_path</text>
   <rect x="219" y="631" width="114" height="32" rx="10"/>
   <rect x="217"
         y="629"
         width="114"
         height="32"
         class="terminal"
         rx="10"/>
   <text class="terminal" x="227" y="649">INCLUDE KEY</text>
   <rect x="373" y="663" width="40" height="32" rx="10"/>
   <rect x="371"
         y="661"
         width="40"
         height="32"
         class="terminal"
         rx="10"/>
   <text class="terminal" x="381" y="681">AS</text>
   <rect x="433" y="663" width="86" height="32"/>
   <rect x="431" y="661" width="86" height="32" class="nonterminal"/>
   <text class="nonterminal" x="441" y="681">key_name</text>
   <rect x="325" y="749" width="94" height="32" rx="10"/>
   <rect x="323"
         y="747"
         width="94"
         height="32"
         class="terminal"
         rx="10"/>
   <text class="terminal" x="333" y="767">ENVELOPE</text>
   <rect x="459" y="749" width="60" height="32" rx="10"/>
   <rect x="457"
         y="747"
         width="60"
         height="32"
         class="terminal"
         rx="10"/>
   <text class="terminal" x="467" y="767">NONE</text>
   <rect x="459" y="793" width="76" height="32" rx="10"/>
   <rect x="457"
         y="791"
         width="76"
         height="32"
         class="terminal"
         rx="10"/>
   <text class="terminal" x="467" y="811">UPSERT</text>
   <path class="line"
         d="m17 17 h2 m0 0 h10 m76 0 h10 m20 0 h10 m0 0 h134 m-164 0 h20 m144 0 h20 m-184 0 q10 0 10 10 m164 0 q0 -10 10 -10 m-174 10 v12 m164 0 v-12 m-164 12 q0 10 10 10 m144 0 q10 0 10 -10 m-154 10 h10 m124 0 h10 m20 -32 h10 m78 0 h10 m20 0 h10 m0 0 h130 m-160 0 h20 m140 0 h20 m-180 0 q10 0 10 10 m160 0 q0 -10 10 -10 m-170 10 v12 m160 0 v-12 m-160 12 q0 10 10 10 m140 0 q10 0 10 -10 m-150 10 h10 m120 0 h10 m22 -32 l2 0 m2 0 l2 0 m2 0 l2 0 m-351 98 l2 0 m2 0 l2 0 m2 0 l2 0 m2 0 h10 m82 0 h10 m2 0 l2 0 m2 0 l2 0 m2 0 l2 0 m-362 110 l2 0 m2 0 l2 0 m2 0 l2 0 m22 0 h10 m26 0 h10 m20 0 h10 m82 0 h10 m-122 0 l20 0 m-1 0 q-9 0 -9 -10 l0 -24 q0 -10 10 -10 m102 44 l20 0 m-20 0 q10 0 10 -10 l0 -24 q0 -10 -10 -10 m-102 0 h10 m24 0 h10 m0 0 h58 m40 44 h10 m0 0 h170 m-200 0 h20 m180 0 h20 m-220 0 q10 0 10 10 m200 0 q0 -10 10 -10 m-210 10 v12 m200 0 v-12 m-200 12 q0 10 10 10 m180 0 q10 0 10 -10 m-190 10 h10 m24 0 h10 m0 0 h10 m116 0 h10 m20 -32 h10 m26 0 h10 m-474 0 h20 m454 0 h20 m-494 0 q10 0 10 10 m474 0 q0 -10 10 -10 m-484 10 v46 m474 0 v-46 m-474 46 q0 10 10 10 m454 0 q10 0 10 -10 m-464 10 h10 m0 0 h444 m20 -66 h10 m60 0 h10 m2 0 l2 0 m2 0 l2 0 m2 0 l2 0 m-599 114 l2 0 m2 0 l2 0 m2 0 l2 0 m2 0 h10 m130 0 h10 m0 0 h10 m48 0 h10 m0 0 h10 m64 0 h10 m20 0 h10 m0 0 h62 m-92 0 h20 m72 0 h20 m-112 0 q10 0 10 10 m92 0 q0 -10 10 -10 m-102 10 v12 m92 0 v-12 m-92 12 q0 10 10 10 m72 0 q10 0 10 -10 m-82 10 h10 m52 0 h10 m40 -32 h10 m0 0 h112 m-142 0 h20 m122 0 h20 m-162 0 q10 0 10 10 m142 0 q0 -10 10 -10 m-152 10 v12 m142 0 v-12 m-142 12 q0 10 10 10 m122 0 q10 0 10 -10 m-132 10 h10 m102 0 h10 m22 -32 l2 0 m2 0 l2 0 m2 0 l2 0 m-536 98 l2 0 m2 0 l2 0 m2 0 l2 0 m22 0 h10 m114 0 h10 m0 0 h10 m102 0 h10 m0 0 h10 m132 0 h10 m-428 0 h20 m408 0 h20 m-448 0 q10 0 10 10 m428 0 q0 -10 10 -10 m-438 10 v24 m428 0 v-24 m-428 24 q0 10 10 10 m408 0 q10 0 10 -10 m-418 10 h10 m80 0 h10 m0 0 h308 m22 -44 l2 0 m2 0 l2 0 m2 0 l2 0 m-523 110 l2 0 m2 0 l2 0 m2 0 l2 0 m2 0 h10 m170 0 h10 m0 0 h10 m122 0 h10 m0 0 h10 m130 0 h10 m0 0 h10 m48 0 h10 m2 0 l2 0 m2 0 l2 0 m2 0 l2 0 m-565 66 l2 0 m2 0 l2 0 m2 0 l2 0 m2 0 h10 m132 0 h10 m20 0 h10 m0 0 h330 m-360 0 h20 m340 0 h20 m-380 0 q10 0 10 10 m360 0 q0 -10 10 -10 m-370 10 v12 m360 0 v-12 m-360 12 q0 10 10 10 m340 0 q10 0 10 -10 m-350 10 h10 m114 0 h10 m20 0 h10 m0 0 h156 m-186 0 h20 m166 0 h20 m-206 0 q10 0 10 10 m186 0 q0 -10 10 -10 m-196 10 v12 m186 0 v-12 m-186 12 q0 10 10 10 m166 0 q10 0 10 -10 m-176 10 h10 m40 0 h10 m0 0 h10 m86 0 h10 m42 -64 l2 0 m2 0 l2 0 m2 0 l2 0 m-298 118 l2 0 m2 0 l2 0 m2 0 l2 0 m22 0 h10 m0 0 h240 m-270 0 h20 m250 0 h20 m-290 0 q10 0 10 10 m270 0 q0 -10 10 -10 m-280 10 v12 m270 0 v-12 m-270 12 q0 10 10 10 m250 0 q10 0 10 -10 m-260 10 h10 m94 0 h10 m20 0 h10 m60 0 h10 m0 0 h16 m-116 0 h20 m96 0 h20 m-136 0 q10 0 10 10 m116 0 q0 -10 10 -10 m-126 10 v24 m116 0 v-24 m-116 24 q0 10 10 10 m96 0 q10 0 10 -10 m-106 10 h10 m76 0 h10 m43 -76 h-3"/>
   <polygon points="593 731 601 727 601 735"/>
   <polygon points="593 731 585 727 585 735"/>
</svg>
