<svg xmlns="http://www.w3.org/2000/svg" width="535" height="163">
   <polygon points="11 17 3 13 3 21"/>
   <polygon points="19 17 11 13 11 21"/>
   <rect x="33" y="3" width="76" height="32" rx="10"/>
   <rect x="31"
         y="1"
         width="76"
         height="32"
         class="terminal"
         rx="10"/>
   <text class="terminal" x="41" y="21">CREATE</text>
   <rect x="129" y="3" width="84" height="32" rx="10"/>
   <rect x="127"
         y="1"
         width="84"
         height="32"
         class="terminal"
         rx="10"/>
   <text class="terminal" x="137" y="21">CLUSTER</text>
   <rect x="233" y="3" width="80" height="32" rx="10"/>
   <rect x="231"
         y="1"
         width="80"
         height="32"
         class="terminal"
         rx="10"/>
   <text class="terminal" x="241" y="21">REPLICA</text>
   <rect x="333" y="3" width="108" height="32"/>
   <rect x="331" y="1" width="108" height="32" class="nonterminal"/>
   <text class="nonterminal" x="341" y="21">cluster_name</text>
   <rect x="461" y="3" width="24" height="32" rx="10"/>
   <rect x="459"
         y="1"
         width="24"
         height="32"
         class="terminal"
         rx="10"/>
   <text class="terminal" x="469" y="21">.</text>
   <rect x="25" y="113" width="106" height="32"/>
   <rect x="23" y="111" width="106" height="32" class="nonterminal"/>
   <text class="nonterminal" x="33" y="131">replica_name</text>
   <rect x="151" y="113" width="26" height="32" rx="10"/>
   <rect x="149"
         y="111"
         width="26"
         height="32"
         class="terminal"
         rx="10"/>
   <text class="terminal" x="159" y="131">(</text>
   <rect x="237" y="113" width="62" height="32"/>
   <rect x="235" y="111" width="62" height="32" class="nonterminal"/>
   <text class="nonterminal" x="245" y="131">option</text>
   <rect x="319" y="113" width="28" height="32" rx="10"/>
   <rect x="317"
         y="111"
         width="28"
         height="32"
         class="terminal"
         rx="10"/>
   <text class="terminal" x="327" y="131">=</text>
   <rect x="367" y="113" width="54" height="32"/>
   <rect x="365" y="111" width="54" height="32" class="nonterminal"/>
   <text class="nonterminal" x="375" y="131">value</text>
   <rect x="237" y="69" width="24" height="32" rx="10"/>
   <rect x="235"
         y="67"
         width="24"
         height="32"
         class="terminal"
         rx="10"/>
   <text class="terminal" x="245" y="87">,</text>
   <rect x="481" y="113" width="26" height="32" rx="10"/>
   <rect x="479"
         y="111"
         width="26"
         height="32"
         class="terminal"
         rx="10"/>
   <text class="terminal" x="489" y="131">)</text>
   <path class="line"
         d="m19 17 h2 m0 0 h10 m76 0 h10 m0 0 h10 m84 0 h10 m0 0 h10 m80 0 h10 m0 0 h10 m108 0 h10 m0 0 h10 m24 0 h10 m2 0 l2 0 m2 0 l2 0 m2 0 l2 0 m-504 110 l2 0 m2 0 l2 0 m2 0 l2 0 m2 0 h10 m106 0 h10 m0 0 h10 m26 0 h10 m40 0 h10 m62 0 h10 m0 0 h10 m28 0 h10 m0 0 h10 m54 0 h10 m-224 0 l20 0 m-1 0 q-9 0 -9 -10 l0 -24 q0 -10 10 -10 m204 44 l20 0 m-20 0 q10 0 10 -10 l0 -24 q0 -10 -10 -10 m-204 0 h10 m24 0 h10 m0 0 h160 m-244 44 h20 m244 0 h20 m-284 0 q10 0 10 10 m264 0 q0 -10 10 -10 m-274 10 v14 m264 0 v-14 m-264 14 q0 10 10 10 m244 0 q10 0 10 -10 m-254 10 h10 m0 0 h234 m20 -34 h10 m26 0 h10 m3 0 h-3"/>
   <polygon points="525 127 533 123 533 131"/>
   <polygon points="525 127 517 123 517 131"/>
</svg>
