<svg xmlns="http://www.w3.org/2000/svg" width="547" height="359">
   <polygon points="9 17 1 13 1 21"/>
   <polygon points="17 17 9 13 9 21"/>
   <rect x="31" y="3" width="76" height="32" rx="10"/>
   <rect x="29"
         y="1"
         width="76"
         height="32"
         class="terminal"
         rx="10"/>
   <text class="terminal" x="39" y="21">CREATE</text>
   <rect x="147" y="35" width="60" height="32" rx="10"/>
   <rect x="145"
         y="33"
         width="60"
         height="32"
         class="terminal"
         rx="10"/>
   <text class="terminal" x="155" y="53">TEMP</text>
   <rect x="147" y="79" width="110" height="32" rx="10"/>
   <rect x="145"
         y="77"
         width="110"
         height="32"
         class="terminal"
         rx="10"/>
   <text class="terminal" x="155" y="97">TEMPORARY</text>
   <rect x="297" y="3" width="66" height="32" rx="10"/>
   <rect x="295"
         y="1"
         width="66"
         height="32"
         class="terminal"
         rx="10"/>
   <text class="terminal" x="305" y="21">TABLE</text>
   <rect x="383" y="3" width="96" height="32"/>
   <rect x="381" y="1" width="96" height="32" class="nonterminal"/>
   <text class="nonterminal" x="391" y="21">table_name</text>
   <rect x="499" y="3" width="26" height="32" rx="10"/>
   <rect x="497"
         y="1"
         width="26"
         height="32"
         class="terminal"
         rx="10"/>
   <text class="terminal" x="507" y="21">(</text>
   <rect x="91" y="223" width="82" height="32"/>
   <rect x="89" y="221" width="82" height="32" class="nonterminal"/>
   <text class="nonterminal" x="99" y="241">col_name</text>
   <rect x="193" y="223" width="74" height="32"/>
   <rect x="191" y="221" width="74" height="32" class="nonterminal"/>
   <text class="nonterminal" x="201" y="241">col_type</text>
   <rect x="307" y="189" width="86" height="32"/>
   <rect x="305" y="187" width="86" height="32" class="nonterminal"/>
   <text class="nonterminal" x="315" y="207">col_option</text>
   <rect x="91" y="145" width="24" height="32" rx="10"/>
   <rect x="89"
         y="143"
         width="24"
         height="32"
         class="terminal"
         rx="10"/>
   <text class="terminal" x="99" y="163">,</text>
   <rect x="473" y="223" width="26" height="32" rx="10"/>
   <rect x="471"
         y="221"
         width="26"
         height="32"
         class="terminal"
         rx="10"/>
   <text class="terminal" x="481" y="241">)</text>
   <rect x="397" y="325" width="102" height="32"/>
   <rect x="395" y="323" width="102" height="32" class="nonterminal"/>
   <text class="nonterminal" x="405" y="343">with_options</text>
   <path class="line"
         d="m17 17 h2 m0 0 h10 m76 0 h10 m20 0 h10 m0 0 h120 m-150 0 h20 m130 0 h20 m-170 0 q10 0 10 10 m150 0 q0 -10 10 -10 m-160 10 v12 m150 0 v-12 m-150 12 q0 10 10 10 m130 0 q10 0 10 -10 m-140 10 h10 m60 0 h10 m0 0 h50 m-140 -10 v20 m150 0 v-20 m-150 20 v24 m150 0 v-24 m-150 24 q0 10 10 10 m130 0 q10 0 10 -10 m-140 10 h10 m110 0 h10 m20 -76 h10 m66 0 h10 m0 0 h10 m96 0 h10 m0 0 h10 m26 0 h10 m2 0 l2 0 m2 0 l2 0 m2 0 l2 0 m-518 220 l2 0 m2 0 l2 0 m2 0 l2 0 m42 0 h10 m82 0 h10 m0 0 h10 m74 0 h10 m20 0 h10 m0 0 h96 m-126 0 l20 0 m-1 0 q-9 0 -9 -10 l0 -14 q0 -10 10 -10 m106 34 l20 0 m-20 0 q10 0 10 -10 l0 -14 q0 -10 -10 -10 m-106 0 h10 m86 0 h10 m-342 34 l20 0 m-1 0 q-9 0 -9 -10 l0 -58 q0 -10 10 -10 m342 78 l20 0 m-20 0 q10 0 10 -10 l0 -58 q0 -10 -10 -10 m-342 0 h10 m24 0 h10 m0 0 h298 m-382 78 h20 m382 0 h20 m-422 0 q10 0 10 10 m402 0 q0 -10 10 -10 m-412 10 v14 m402 0 v-14 m-402 14 q0 10 10 10 m382 0 q10 0 10 -10 m-392 10 h10 m0 0 h372 m20 -34 h10 m26 0 h10 m2 0 l2 0 m2 0 l2 0 m2 0 l2 0 m-166 70 l2 0 m2 0 l2 0 m2 0 l2 0 m22 0 h10 m0 0 h112 m-142 0 h20 m122 0 h20 m-162 0 q10 0 10 10 m142 0 q0 -10 10 -10 m-152 10 v12 m142 0 v-12 m-142 12 q0 10 10 10 m122 0 q10 0 10 -10 m-132 10 h10 m102 0 h10 m23 -32 h-3"/>
   <polygon points="537 307 545 303 545 311"/>
   <polygon points="537 307 529 303 529 311"/>
</svg>
