<svg xmlns="http://www.w3.org/2000/svg" width="603" height="391">
   <polygon points="9 17 1 13 1 21"/>
   <polygon points="17 17 9 13 9 21"/>
   <rect x="31" y="3" width="76" height="32" rx="10"/>
   <rect x="29"
         y="1"
         width="76"
         height="32"
         class="terminal"
         rx="10"/>
   <text class="terminal" x="39" y="21">CREATE</text>
   <rect x="147" y="35" width="124" height="32" rx="10"/>
   <rect x="145"
         y="33"
         width="124"
         height="32"
         class="terminal"
         rx="10"/>
   <text class="terminal" x="155" y="53">MATERIALIZED</text>
   <rect x="311" y="3" width="78" height="32" rx="10"/>
   <rect x="309"
         y="1"
         width="78"
         height="32"
         class="terminal"
         rx="10"/>
   <text class="terminal" x="319" y="21">SOURCE</text>
   <rect x="429" y="35" width="120" height="32" rx="10"/>
   <rect x="427"
         y="33"
         width="120"
         height="32"
         class="terminal"
         rx="10"/>
   <text class="terminal" x="437" y="53">IF NOT EXISTS</text>
   <rect x="85" y="145" width="82" height="32"/>
   <rect x="83" y="143" width="82" height="32" class="nonterminal"/>
   <text class="nonterminal" x="93" y="163">src_name</text>
   <rect x="207" y="145" width="26" height="32" rx="10"/>
   <rect x="205"
         y="143"
         width="26"
         height="32"
         class="terminal"
         rx="10"/>
   <text class="terminal" x="215" y="163">(</text>
   <rect x="273" y="145" width="82" height="32"/>
   <rect x="271" y="143" width="82" height="32" class="nonterminal"/>
   <text class="nonterminal" x="281" y="163">col_name</text>
   <rect x="273" y="101" width="24" height="32" rx="10"/>
   <rect x="271"
         y="99"
         width="24"
         height="32"
         class="terminal"
         rx="10"/>
   <text class="terminal" x="281" y="119">,</text>
   <rect x="395" y="145" width="26" height="32" rx="10"/>
   <rect x="393"
         y="143"
         width="26"
         height="32"
         class="terminal"
         rx="10"/>
   <text class="terminal" x="403" y="163">)</text>
   <rect x="461" y="145" width="60" height="32" rx="10"/>
   <rect x="459"
         y="143"
         width="60"
         height="32"
         class="terminal"
         rx="10"/>
   <text class="terminal" x="469" y="163">FROM</text>
   <rect x="25" y="227" width="108" height="32" rx="10"/>
   <rect x="23"
         y="225"
         width="108"
         height="32"
         class="terminal"
         rx="10"/>
   <text class="terminal" x="33" y="245">KINESIS ARN</text>
   <rect x="153" y="227" width="40" height="32"/>
   <rect x="151" y="225" width="40" height="32" class="nonterminal"/>
   <text class="nonterminal" x="161" y="245">arn</text>
   <rect x="233" y="259" width="102" height="32"/>
   <rect x="231" y="257" width="102" height="32" class="nonterminal"/>
   <text class="nonterminal" x="241" y="277">with_options</text>
   <rect x="375" y="227" width="80" height="32" rx="10"/>
   <rect x="373"
         y="225"
         width="80"
         height="32"
         class="terminal"
         rx="10"/>
   <text class="terminal" x="383" y="245">FORMAT</text>
   <rect x="495" y="227" width="66" height="32" rx="10"/>
   <rect x="493"
         y="225"
         width="66"
         height="32"
         class="terminal"
         rx="10"/>
   <text class="terminal" x="503" y="245">BYTES</text>
   <rect x="495" y="271" width="56" height="32" rx="10"/>
   <rect x="493"
         y="269"
         width="56"
         height="32"
         class="terminal"
         rx="10"/>
   <text class="terminal" x="503" y="289">TEXT</text>
   <rect x="381" y="357" width="94" height="32" rx="10"/>
   <rect x="379"
         y="355"
         width="94"
         height="32"
         class="terminal"
         rx="10"/>
   <text class="terminal" x="389" y="375">ENVELOPE</text>
   <rect x="495" y="357" width="60" height="32" rx="10"/>
   <rect x="493"
         y="355"
         width="60"
         height="32"
         class="terminal"
         rx="10"/>
   <text class="terminal" x="503" y="375">NONE</text>
   <path class="line"
         d="m17 17 h2 m0 0 h10 m76 0 h10 m20 0 h10 m0 0 h134 m-164 0 h20 m144 0 h20 m-184 0 q10 0 10 10 m164 0 q0 -10 10 -10 m-174 10 v12 m164 0 v-12 m-164 12 q0 10 10 10 m144 0 q10 0 10 -10 m-154 10 h10 m124 0 h10 m20 -32 h10 m78 0 h10 m20 0 h10 m0 0 h130 m-160 0 h20 m140 0 h20 m-180 0 q10 0 10 10 m160 0 q0 -10 10 -10 m-170 10 v12 m160 0 v-12 m-160 12 q0 10 10 10 m140 0 q10 0 10 -10 m-150 10 h10 m120 0 h10 m22 -32 l2 0 m2 0 l2 0 m2 0 l2 0 m-528 142 l2 0 m2 0 l2 0 m2 0 l2 0 m2 0 h10 m82 0 h10 m20 0 h10 m26 0 h10 m20 0 h10 m82 0 h10 m-122 0 l20 0 m-1 0 q-9 0 -9 -10 l0 -24 q0 -10 10 -10 m102 44 l20 0 m-20 0 q10 0 10 -10 l0 -24 q0 -10 -10 -10 m-102 0 h10 m24 0 h10 m0 0 h58 m20 44 h10 m26 0 h10 m-254 0 h20 m234 0 h20 m-274 0 q10 0 10 10 m254 0 q0 -10 10 -10 m-264 10 v14 m254 0 v-14 m-254 14 q0 10 10 10 m234 0 q10 0 10 -10 m-244 10 h10 m0 0 h224 m20 -34 h10 m60 0 h10 m2 0 l2 0 m2 0 l2 0 m2 0 l2 0 m-540 82 l2 0 m2 0 l2 0 m2 0 l2 0 m2 0 h10 m108 0 h10 m0 0 h10 m40 0 h10 m20 0 h10 m0 0 h112 m-142 0 h20 m122 0 h20 m-162 0 q10 0 10 10 m142 0 q0 -10 10 -10 m-152 10 v12 m142 0 v-12 m-142 12 q0 10 10 10 m122 0 q10 0 10 -10 m-132 10 h10 m102 0 h10 m20 -32 h10 m80 0 h10 m20 0 h10 m66 0 h10 m-106 0 h20 m86 0 h20 m-126 0 q10 0 10 10 m106 0 q0 -10 10 -10 m-116 10 v24 m106 0 v-24 m-106 24 q0 10 10 10 m86 0 q10 0 10 -10 m-96 10 h10 m56 0 h10 m0 0 h10 m22 -44 l2 0 m2 0 l2 0 m2 0 l2 0 m-264 98 l2 0 m2 0 l2 0 m2 0 l2 0 m22 0 h10 m0 0 h184 m-214 0 h20 m194 0 h20 m-234 0 q10 0 10 10 m214 0 q0 -10 10 -10 m-224 10 v12 m214 0 v-12 m-214 12 q0 10 10 10 m194 0 q10 0 10 -10 m-204 10 h10 m94 0 h10 m0 0 h10 m60 0 h10 m23 -32 h-3"/>
   <polygon points="593 339 601 335 601 343"/>
   <polygon points="593 339 585 335 585 343"/>
</svg>
