<svg xmlns="http://www.w3.org/2000/svg" width="555" height="683">
   <polygon points="9 17 1 13 1 21"/>
   <polygon points="17 17 9 13 9 21"/>
   <rect x="31" y="3" width="140" height="32" rx="10"/>
   <rect x="29"
         y="1"
         width="140"
         height="32"
         class="terminal"
         rx="10"/>
   <text class="terminal" x="39" y="21">CREATE SOURCE</text>
   <rect x="211" y="35" width="120" height="32" rx="10"/>
   <rect x="209"
         y="33"
         width="120"
         height="32"
         class="terminal"
         rx="10"/>
   <text class="terminal" x="219" y="53">IF NOT EXISTS</text>
   <rect x="371" y="3" width="82" height="32"/>
   <rect x="369" y="1" width="82" height="32" class="nonterminal"/>
   <text class="nonterminal" x="379" y="21">src_name</text>
   <rect x="55" y="133" width="104" height="32" rx="10"/>
   <rect x="53"
         y="131"
         width="104"
         height="32"
         class="terminal"
         rx="10"/>
   <text class="terminal" x="63" y="151">IN CLUSTER</text>
   <rect x="179" y="133" width="108" height="32"/>
   <rect x="177" y="131" width="108" height="32" class="nonterminal"/>
   <text class="nonterminal" x="187" y="151">cluster_name</text>
   <rect x="327" y="101" width="196" height="32" rx="10"/>
   <rect x="325"
         y="99"
         width="196"
         height="32"
         class="terminal"
         rx="10"/>
   <text class="terminal" x="335" y="119">FROM LOAD GENERATOR</text>
   <rect x="48" y="243" width="86" height="32" rx="10"/>
   <rect x="46"
         y="241"
         width="86"
         height="32"
         class="terminal"
         rx="10"/>
   <text class="terminal" x="56" y="261">AUCTION</text>
   <rect x="48" y="287" width="88" height="32" rx="10"/>
   <rect x="46"
         y="285"
         width="88"
         height="32"
         class="terminal"
         rx="10"/>
   <text class="terminal" x="56" y="305">COUNTER</text>
   <rect x="48" y="331" width="104" height="32" rx="10"/>
   <rect x="46"
         y="329"
         width="104"
         height="32"
         class="terminal"
         rx="10"/>
   <text class="terminal" x="56" y="349">MARKETING</text>
   <rect x="48" y="375" width="60" height="32" rx="10"/>
   <rect x="46"
         y="373"
         width="60"
         height="32"
         class="terminal"
         rx="10"/>
   <text class="terminal" x="56" y="393">TPCH</text>
   <rect x="212" y="243" width="26" height="32" rx="10"/>
   <rect x="210"
         y="241"
         width="26"
         height="32"
         class="terminal"
         rx="10"/>
   <text class="terminal" x="220" y="261">(</text>
   <rect x="278" y="243" width="166" height="32"/>
   <rect x="276" y="241" width="166" height="32" class="nonterminal"/>
   <text class="nonterminal" x="286" y="261">load_generator_option</text>
   <rect x="278" y="199" width="24" height="32" rx="10"/>
   <rect x="276"
         y="197"
         width="24"
         height="32"
         class="terminal"
         rx="10"/>
   <text class="terminal" x="286" y="217">,</text>
   <rect x="484" y="243" width="26" height="32" rx="10"/>
   <rect x="482"
         y="241"
         width="26"
         height="32"
         class="terminal"
         rx="10"/>
   <text class="terminal" x="492" y="261">)</text>
   <rect x="210" y="441" width="138" height="32" rx="10"/>
   <rect x="208"
         y="439"
         width="138"
         height="32"
         class="terminal"
         rx="10"/>
   <text class="terminal" x="218" y="459">FOR ALL TABLES</text>
   <rect x="45" y="523" width="76" height="32" rx="10"/>
   <rect x="43"
         y="521"
         width="76"
         height="32"
         class="terminal"
         rx="10"/>
   <text class="terminal" x="53" y="541">EXPOSE</text>
   <rect x="141" y="523" width="96" height="32" rx="10"/>
   <rect x="139"
         y="521"
         width="96"
         height="32"
         class="terminal"
         rx="10"/>
   <text class="terminal" x="149" y="541">PROGRESS</text>
   <rect x="257" y="523" width="40" height="32" rx="10"/>
   <rect x="255"
         y="521"
         width="40"
         height="32"
         class="terminal"
         rx="10"/>
   <text class="terminal" x="265" y="541">AS</text>
   <rect x="317" y="523" width="196" height="32"/>
   <rect x="315" y="521" width="196" height="32" class="nonterminal"/>
   <text class="nonterminal" x="325" y="541">progress_subsource_name</text>
   <rect x="143" y="633" width="58" height="32" rx="10"/>
   <rect x="141"
         y="631"
         width="58"
         height="32"
         class="terminal"
         rx="10"/>
   <text class="terminal" x="151" y="651">WITH</text>
   <rect x="221" y="633" width="26" height="32" rx="10"/>
   <rect x="219"
         y="631"
         width="26"
         height="32"
         class="terminal"
         rx="10"/>
   <text class="terminal" x="229" y="651">(</text>
   <rect x="287" y="633" width="48" height="32"/>
   <rect x="285" y="631" width="48" height="32" class="nonterminal"/>
   <text class="nonterminal" x="295" y="651">field</text>
   <rect x="355" y="633" width="28" height="32" rx="10"/>
   <rect x="353"
         y="631"
         width="28"
         height="32"
         class="terminal"
         rx="10"/>
   <text class="terminal" x="363" y="651">=</text>
   <rect x="403" y="633" width="38" height="32"/>
   <rect x="401" y="631" width="38" height="32" class="nonterminal"/>
   <text class="nonterminal" x="411" y="651">val</text>
   <rect x="287" y="589" width="24" height="32" rx="10"/>
   <rect x="285"
         y="587"
         width="24"
         height="32"
         class="terminal"
         rx="10"/>
   <text class="terminal" x="295" y="607">,</text>
   <rect x="481" y="633" width="26" height="32" rx="10"/>
   <rect x="479"
         y="631"
         width="26"
         height="32"
         class="terminal"
         rx="10"/>
   <text class="terminal" x="489" y="651">)</text>
   <path class="line"
         d="m17 17 h2 m0 0 h10 m140 0 h10 m20 0 h10 m0 0 h130 m-160 0 h20 m140 0 h20 m-180 0 q10 0 10 10 m160 0 q0 -10 10 -10 m-170 10 v12 m160 0 v-12 m-160 12 q0 10 10 10 m140 0 q10 0 10 -10 m-150 10 h10 m120 0 h10 m20 -32 h10 m82 0 h10 m2 0 l2 0 m2 0 l2 0 m2 0 l2 0 m-462 98 l2 0 m2 0 l2 0 m2 0 l2 0 m22 0 h10 m0 0 h242 m-272 0 h20 m252 0 h20 m-292 0 q10 0 10 10 m272 0 q0 -10 10 -10 m-282 10 v12 m272 0 v-12 m-272 12 q0 10 10 10 m252 0 q10 0 10 -10 m-262 10 h10 m104 0 h10 m0 0 h10 m108 0 h10 m20 -32 h10 m196 0 h10 m2 0 l2 0 m2 0 l2 0 m2 0 l2 0 m-539 142 l2 0 m2 0 l2 0 m2 0 l2 0 m22 0 h10 m86 0 h10 m0 0 h18 m-144 0 h20 m124 0 h20 m-164 0 q10 0 10 10 m144 0 q0 -10 10 -10 m-154 10 v24 m144 0 v-24 m-144 24 q0 10 10 10 m124 0 q10 0 10 -10 m-134 10 h10 m88 0 h10 m0 0 h16 m-134 -10 v20 m144 0 v-20 m-144 20 v24 m144 0 v-24 m-144 24 q0 10 10 10 m124 0 q10 0 10 -10 m-134 10 h10 m104 0 h10 m-134 -10 v20 m144 0 v-20 m-144 20 v24 m144 0 v-24 m-144 24 q0 10 10 10 m124 0 q10 0 10 -10 m-134 10 h10 m60 0 h10 m0 0 h44 m40 -132 h10 m26 0 h10 m20 0 h10 m166 0 h10 m-206 0 l20 0 m-1 0 q-9 0 -9 -10 l0 -24 q0 -10 10 -10 m186 44 l20 0 m-20 0 q10 0 10 -10 l0 -24 q0 -10 -10 -10 m-186 0 h10 m24 0 h10 m0 0 h142 m20 44 h10 m26 0 h10 m-338 0 h20 m318 0 h20 m-358 0 q10 0 10 10 m338 0 q0 -10 10 -10 m-348 10 v14 m338 0 v-14 m-338 14 q0 10 10 10 m318 0 q10 0 10 -10 m-328 10 h10 m0 0 h308 m22 -34 l2 0 m2 0 l2 0 m2 0 l2 0 m-364 198 l2 0 m2 0 l2 0 m2 0 l2 0 m2 0 h10 m138 0 h10 m2 0 l2 0 m2 0 l2 0 m2 0 l2 0 m-367 50 l2 0 m2 0 l2 0 m2 0 l2 0 m22 0 h10 m0 0 h478 m-508 0 h20 m488 0 h20 m-528 0 q10 0 10 10 m508 0 q0 -10 10 -10 m-518 10 v12 m508 0 v-12 m-508 12 q0 10 10 10 m488 0 q10 0 10 -10 m-498 10 h10 m76 0 h10 m0 0 h10 m96 0 h10 m0 0 h10 m40 0 h10 m0 0 h10 m196 0 h10 m22 -32 l2 0 m2 0 l2 0 m2 0 l2 0 m-454 142 l2 0 m2 0 l2 0 m2 0 l2 0 m22 0 h10 m58 0 h10 m0 0 h10 m26 0 h10 m20 0 h10 m48 0 h10 m0 0 h10 m28 0 h10 m0 0 h10 m38 0 h10 m-194 0 l20 0 m-1 0 q-9 0 -9 -10 l0 -24 q0 -10 10 -10 m174 44 l20 0 m-20 0 q10 0 10 -10 l0 -24 q0 -10 -10 -10 m-174 0 h10 m24 0 h10 m0 0 h130 m20 44 h10 m26 0 h10 m-404 0 h20 m384 0 h20 m-424 0 q10 0 10 10 m404 0 q0 -10 10 -10 m-414 10 v14 m404 0 v-14 m-404 14 q0 10 10 10 m384 0 q10 0 10 -10 m-394 10 h10 m0 0 h374 m23 -34 h-3"/>
   <polygon points="545 647 553 643 553 651"/>
   <polygon points="545 647 537 643 537 651"/>
</svg>
