<svg xmlns="http://www.w3.org/2000/svg" width="533" height="475">
   <polygon points="9 17 1 13 1 21"/>
   <polygon points="17 17 9 13 9 21"/>
   <rect x="31" y="3" width="140" height="32" rx="10"/>
   <rect x="29"
         y="1"
         width="140"
         height="32"
         class="terminal"
         rx="10"/>
   <text class="terminal" x="39" y="21">CREATE SOURCE</text>
   <rect x="211" y="35" width="120" height="32" rx="10"/>
   <rect x="209"
         y="33"
         width="120"
         height="32"
         class="terminal"
         rx="10"/>
   <text class="terminal" x="219" y="53">IF NOT EXISTS</text>
   <rect x="371" y="3" width="82" height="32"/>
   <rect x="369" y="1" width="82" height="32" class="nonterminal"/>
   <text class="nonterminal" x="379" y="21">src_name</text>
   <rect x="76" y="145" width="26" height="32" rx="10"/>
   <rect x="74"
         y="143"
         width="26"
         height="32"
         class="terminal"
         rx="10"/>
   <text class="terminal" x="84" y="163">(</text>
   <rect x="142" y="145" width="82" height="32"/>
   <rect x="140" y="143" width="82" height="32" class="nonterminal"/>
   <text class="nonterminal" x="150" y="163">col_name</text>
   <rect x="142" y="101" width="24" height="32" rx="10"/>
   <rect x="140"
         y="99"
         width="24"
         height="32"
         class="terminal"
         rx="10"/>
   <text class="terminal" x="150" y="119">,</text>
   <rect x="284" y="145" width="196" height="32" rx="10"/>
   <rect x="282"
         y="143"
         width="196"
         height="32"
         class="terminal"
         rx="10"/>
   <text class="terminal" x="292" y="163">FROM LOAD GENERATOR</text>
   <rect x="45" y="271" width="86" height="32" rx="10"/>
   <rect x="43"
         y="269"
         width="86"
         height="32"
         class="terminal"
         rx="10"/>
   <text class="terminal" x="53" y="289">AUCTION</text>
   <rect x="45" y="315" width="88" height="32" rx="10"/>
   <rect x="43"
         y="313"
         width="88"
         height="32"
         class="terminal"
         rx="10"/>
   <text class="terminal" x="53" y="333">COUNTER</text>
   <rect x="193" y="271" width="26" height="32" rx="10"/>
   <rect x="191"
         y="269"
         width="26"
         height="32"
         class="terminal"
         rx="10"/>
   <text class="terminal" x="201" y="289">(</text>
   <rect x="259" y="271" width="166" height="32"/>
   <rect x="257" y="269" width="166" height="32" class="nonterminal"/>
   <text class="nonterminal" x="267" y="289">load_generator_option</text>
   <rect x="259" y="227" width="24" height="32" rx="10"/>
   <rect x="257"
         y="225"
         width="24"
         height="32"
         class="terminal"
         rx="10"/>
   <text class="terminal" x="267" y="245">,</text>
   <rect x="465" y="271" width="26" height="32" rx="10"/>
   <rect x="463"
         y="269"
         width="26"
         height="32"
         class="terminal"
         rx="10"/>
   <text class="terminal" x="473" y="289">)</text>
   <rect x="121" y="425" width="58" height="32" rx="10"/>
   <rect x="119"
         y="423"
         width="58"
         height="32"
         class="terminal"
         rx="10"/>
   <text class="terminal" x="129" y="443">WITH</text>
   <rect x="199" y="425" width="26" height="32" rx="10"/>
   <rect x="197"
         y="423"
         width="26"
         height="32"
         class="terminal"
         rx="10"/>
   <text class="terminal" x="207" y="443">(</text>
   <rect x="265" y="425" width="48" height="32"/>
   <rect x="263" y="423" width="48" height="32" class="nonterminal"/>
   <text class="nonterminal" x="273" y="443">field</text>
   <rect x="333" y="425" width="28" height="32" rx="10"/>
   <rect x="331"
         y="423"
         width="28"
         height="32"
         class="terminal"
         rx="10"/>
   <text class="terminal" x="341" y="443">=</text>
   <rect x="381" y="425" width="38" height="32"/>
   <rect x="379" y="423" width="38" height="32" class="nonterminal"/>
   <text class="nonterminal" x="389" y="443">val</text>
   <rect x="265" y="381" width="24" height="32" rx="10"/>
   <rect x="263"
         y="379"
         width="24"
         height="32"
         class="terminal"
         rx="10"/>
   <text class="terminal" x="273" y="399">,</text>
   <rect x="459" y="425" width="26" height="32" rx="10"/>
   <rect x="457"
         y="423"
         width="26"
         height="32"
         class="terminal"
         rx="10"/>
   <text class="terminal" x="467" y="443">)</text>
   <path class="line"
         d="m17 17 h2 m0 0 h10 m140 0 h10 m20 0 h10 m0 0 h130 m-160 0 h20 m140 0 h20 m-180 0 q10 0 10 10 m160 0 q0 -10 10 -10 m-170 10 v12 m160 0 v-12 m-160 12 q0 10 10 10 m140 0 q10 0 10 -10 m-150 10 h10 m120 0 h10 m20 -32 h10 m82 0 h10 m2 0 l2 0 m2 0 l2 0 m2 0 l2 0 m-441 142 l2 0 m2 0 l2 0 m2 0 l2 0 m22 0 h10 m26 0 h10 m20 0 h10 m82 0 h10 m-122 0 l20 0 m-1 0 q-9 0 -9 -10 l0 -24 q0 -10 10 -10 m102 44 l20 0 m-20 0 q10 0 10 -10 l0 -24 q0 -10 -10 -10 m-102 0 h10 m24 0 h10 m0 0 h58 m-188 44 h20 m188 0 h20 m-228 0 q10 0 10 10 m208 0 q0 -10 10 -10 m-218 10 v14 m208 0 v-14 m-208 14 q0 10 10 10 m188 0 q10 0 10 -10 m-198 10 h10 m0 0 h178 m20 -34 h10 m196 0 h10 m2 0 l2 0 m2 0 l2 0 m2 0 l2 0 m-499 126 l2 0 m2 0 l2 0 m2 0 l2 0 m22 0 h10 m86 0 h10 m0 0 h2 m-128 0 h20 m108 0 h20 m-148 0 q10 0 10 10 m128 0 q0 -10 10 -10 m-138 10 v24 m128 0 v-24 m-128 24 q0 10 10 10 m108 0 q10 0 10 -10 m-118 10 h10 m88 0 h10 m40 -44 h10 m26 0 h10 m20 0 h10 m166 0 h10 m-206 0 l20 0 m-1 0 q-9 0 -9 -10 l0 -24 q0 -10 10 -10 m186 44 l20 0 m-20 0 q10 0 10 -10 l0 -24 q0 -10 -10 -10 m-186 0 h10 m24 0 h10 m0 0 h142 m20 44 h10 m26 0 h10 m-338 0 h20 m318 0 h20 m-358 0 q10 0 10 10 m338 0 q0 -10 10 -10 m-348 10 v14 m338 0 v-14 m-338 14 q0 10 10 10 m318 0 q10 0 10 -10 m-328 10 h10 m0 0 h308 m22 -34 l2 0 m2 0 l2 0 m2 0 l2 0 m-454 154 l2 0 m2 0 l2 0 m2 0 l2 0 m22 0 h10 m58 0 h10 m0 0 h10 m26 0 h10 m20 0 h10 m48 0 h10 m0 0 h10 m28 0 h10 m0 0 h10 m38 0 h10 m-194 0 l20 0 m-1 0 q-9 0 -9 -10 l0 -24 q0 -10 10 -10 m174 44 l20 0 m-20 0 q10 0 10 -10 l0 -24 q0 -10 -10 -10 m-174 0 h10 m24 0 h10 m0 0 h130 m20 44 h10 m26 0 h10 m-404 0 h20 m384 0 h20 m-424 0 q10 0 10 10 m404 0 q0 -10 10 -10 m-414 10 v14 m404 0 v-14 m-404 14 q0 10 10 10 m384 0 q10 0 10 -10 m-394 10 h10 m0 0 h374 m23 -34 h-3"/>
   <polygon points="523 439 531 435 531 443"/>
   <polygon points="523 439 515 435 515 443"/>
</svg>
