<svg xmlns="http://www.w3.org/2000/svg" width="667" height="513">
   <polygon points="9 17 1 13 1 21"/>
   <polygon points="17 17 9 13 9 21"/>
   <rect x="31" y="3" width="140" height="32" rx="10"/>
   <rect x="29"
         y="1"
         width="140"
         height="32"
         class="terminal"
         rx="10"/>
   <text class="terminal" x="39" y="21">CREATE SOURCE</text>
   <rect x="211" y="35" width="120" height="32" rx="10"/>
   <rect x="209"
         y="33"
         width="120"
         height="32"
         class="terminal"
         rx="10"/>
   <text class="terminal" x="219" y="53">IF NOT EXISTS</text>
   <rect x="371" y="3" width="82" height="32"/>
   <rect x="369" y="1" width="82" height="32" class="nonterminal"/>
   <text class="nonterminal" x="379" y="21">src_name</text>
   <rect x="473" y="3" width="60" height="32" rx="10"/>
   <rect x="471"
         y="1"
         width="60"
         height="32"
         class="terminal"
         rx="10"/>
   <text class="terminal" x="481" y="21">FROM</text>
   <rect x="118" y="101" width="96" height="32" rx="10"/>
   <rect x="116"
         y="99"
         width="96"
         height="32"
         class="terminal"
         rx="10"/>
   <text class="terminal" x="126" y="119">POSTGRES</text>
   <rect x="234" y="101" width="116" height="32" rx="10"/>
   <rect x="232"
         y="99"
         width="116"
         height="32"
         class="terminal"
         rx="10"/>
   <text class="terminal" x="242" y="119">CONNECTION</text>
   <rect x="370" y="101" width="136" height="32"/>
   <rect x="368" y="99" width="136" height="32" class="nonterminal"/>
   <text class="nonterminal" x="378" y="119">connection_name</text>
   <rect x="526" y="101" width="26" height="32" rx="10"/>
   <rect x="524"
         y="99"
         width="26"
         height="32"
         class="terminal"
         rx="10"/>
   <text class="terminal" x="534" y="119">(</text>
   <rect x="177" y="167" width="116" height="32" rx="10"/>
   <rect x="175"
         y="165"
         width="116"
         height="32"
         class="terminal"
         rx="10"/>
   <text class="terminal" x="185" y="185">PUBLICATION</text>
   <rect x="313" y="167" width="134" height="32"/>
   <rect x="311" y="165" width="134" height="32" class="nonterminal"/>
   <text class="nonterminal" x="321" y="185">publication_name</text>
   <rect x="467" y="167" width="26" height="32" rx="10"/>
   <rect x="465"
         y="165"
         width="26"
         height="32"
         class="terminal"
         rx="10"/>
   <text class="terminal" x="475" y="185">)</text>
   <rect x="45" y="233" width="138" height="32" rx="10"/>
   <rect x="43"
         y="231"
         width="138"
         height="32"
         class="terminal"
         rx="10"/>
   <text class="terminal" x="53" y="251">FOR ALL TABLES</text>
   <rect x="45" y="321" width="106" height="32" rx="10"/>
   <rect x="43"
         y="319"
         width="106"
         height="32"
         class="terminal"
         rx="10"/>
   <text class="terminal" x="53" y="339">FOR TABLES</text>
   <rect x="171" y="321" width="26" height="32" rx="10"/>
   <rect x="169"
         y="319"
         width="26"
         height="32"
         class="terminal"
         rx="10"/>
   <text class="terminal" x="179" y="339">(</text>
   <rect x="237" y="321" width="96" height="32"/>
   <rect x="235" y="319" width="96" height="32" class="nonterminal"/>
   <text class="nonterminal" x="245" y="339">table_name</text>
   <rect x="373" y="353" width="40" height="32" rx="10"/>
   <rect x="371"
         y="351"
         width="40"
         height="32"
         class="terminal"
         rx="10"/>
   <text class="terminal" x="381" y="371">AS</text>
   <rect x="433" y="353" width="106" height="32"/>
   <rect x="431" y="351" width="106" height="32" class="nonterminal"/>
   <text class="nonterminal" x="441" y="371">subsrc_name</text>
   <rect x="237" y="277" width="24" height="32" rx="10"/>
   <rect x="235"
         y="275"
         width="24"
         height="32"
         class="terminal"
         rx="10"/>
   <text class="terminal" x="245" y="295">,</text>
   <rect x="599" y="321" width="26" height="32" rx="10"/>
   <rect x="597"
         y="319"
         width="26"
         height="32"
         class="terminal"
         rx="10"/>
   <text class="terminal" x="607" y="339">)</text>
   <rect x="255" y="463" width="58" height="32" rx="10"/>
   <rect x="253"
         y="461"
         width="58"
         height="32"
         class="terminal"
         rx="10"/>
   <text class="terminal" x="263" y="481">WITH</text>
   <rect x="333" y="463" width="26" height="32" rx="10"/>
   <rect x="331"
         y="461"
         width="26"
         height="32"
         class="terminal"
         rx="10"/>
   <text class="terminal" x="341" y="481">(</text>
   <rect x="399" y="463" width="48" height="32"/>
   <rect x="397" y="461" width="48" height="32" class="nonterminal"/>
   <text class="nonterminal" x="407" y="481">field</text>
   <rect x="467" y="463" width="28" height="32" rx="10"/>
   <rect x="465"
         y="461"
         width="28"
         height="32"
         class="terminal"
         rx="10"/>
   <text class="terminal" x="475" y="481">=</text>
   <rect x="515" y="463" width="38" height="32"/>
   <rect x="513" y="461" width="38" height="32" class="nonterminal"/>
   <text class="nonterminal" x="523" y="481">val</text>
   <rect x="399" y="419" width="24" height="32" rx="10"/>
   <rect x="397"
         y="417"
         width="24"
         height="32"
         class="terminal"
         rx="10"/>
   <text class="terminal" x="407" y="437">,</text>
   <rect x="593" y="463" width="26" height="32" rx="10"/>
   <rect x="591"
         y="461"
         width="26"
         height="32"
         class="terminal"
         rx="10"/>
   <text class="terminal" x="601" y="481">)</text>
   <path class="line"
         d="m17 17 h2 m0 0 h10 m140 0 h10 m20 0 h10 m0 0 h130 m-160 0 h20 m140 0 h20 m-180 0 q10 0 10 10 m160 0 q0 -10 10 -10 m-170 10 v12 m160 0 v-12 m-160 12 q0 10 10 10 m140 0 q10 0 10 -10 m-150 10 h10 m120 0 h10 m20 -32 h10 m82 0 h10 m0 0 h10 m60 0 h10 m2 0 l2 0 m2 0 l2 0 m2 0 l2 0 m-459 98 l2 0 m2 0 l2 0 m2 0 l2 0 m2 0 h10 m96 0 h10 m0 0 h10 m116 0 h10 m0 0 h10 m136 0 h10 m0 0 h10 m26 0 h10 m2 0 l2 0 m2 0 l2 0 m2 0 l2 0 m-419 66 l2 0 m2 0 l2 0 m2 0 l2 0 m2 0 h10 m116 0 h10 m0 0 h10 m134 0 h10 m0 0 h10 m26 0 h10 m2 0 l2 0 m2 0 l2 0 m2 0 l2 0 m-512 66 l2 0 m2 0 l2 0 m2 0 l2 0 m22 0 h10 m138 0 h10 m0 0 h442 m-620 0 h20 m600 0 h20 m-640 0 q10 0 10 10 m620 0 q0 -10 10 -10 m-630 10 v68 m620 0 v-68 m-620 68 q0 10 10 10 m600 0 q10 0 10 -10 m-610 10 h10 m106 0 h10 m0 0 h10 m26 0 h10 m20 0 h10 m96 0 h10 m20 0 h10 m0 0 h176 m-206 0 h20 m186 0 h20 m-226 0 q10 0 10 10 m206 0 q0 -10 10 -10 m-216 10 v12 m206 0 v-12 m-206 12 q0 10 10 10 m186 0 q10 0 10 -10 m-196 10 h10 m40 0 h10 m0 0 h10 m106 0 h10 m-342 -32 l20 0 m-1 0 q-9 0 -9 -10 l0 -24 q0 -10 10 -10 m342 44 l20 0 m-20 0 q10 0 10 -10 l0 -24 q0 -10 -10 -10 m-342 0 h10 m24 0 h10 m0 0 h298 m20 44 h10 m26 0 h10 m22 -88 l2 0 m2 0 l2 0 m2 0 l2 0 m-454 230 l2 0 m2 0 l2 0 m2 0 l2 0 m22 0 h10 m58 0 h10 m0 0 h10 m26 0 h10 m20 0 h10 m48 0 h10 m0 0 h10 m28 0 h10 m0 0 h10 m38 0 h10 m-194 0 l20 0 m-1 0 q-9 0 -9 -10 l0 -24 q0 -10 10 -10 m174 44 l20 0 m-20 0 q10 0 10 -10 l0 -24 q0 -10 -10 -10 m-174 0 h10 m24 0 h10 m0 0 h130 m20 44 h10 m26 0 h10 m-404 0 h20 m384 0 h20 m-424 0 q10 0 10 10 m404 0 q0 -10 10 -10 m-414 10 v14 m404 0 v-14 m-404 14 q0 10 10 10 m384 0 q10 0 10 -10 m-394 10 h10 m0 0 h374 m23 -34 h-3"/>
   <polygon points="657 477 665 473 665 481"/>
   <polygon points="657 477 649 473 649 481"/>
</svg>
