<svg xmlns="http://www.w3.org/2000/svg" width="589" height="693">
   <polygon points="9 17 1 13 1 21"/>
   <polygon points="17 17 9 13 9 21"/>
   <rect x="31" y="3" width="74" height="32" rx="10"/>
   <rect x="29"
         y="1"
         width="74"
         height="32"
         class="terminal"
         rx="10"/>
   <text class="terminal" x="39" y="21">CREATE</text>
   <rect x="145" y="35" width="120" height="32" rx="10"/>
   <rect x="143"
         y="33"
         width="120"
         height="32"
         class="terminal"
         rx="10"/>
   <text class="terminal" x="153" y="53">MATERIALIZED</text>
   <rect x="305" y="3" width="78" height="32" rx="10"/>
   <rect x="303"
         y="1"
         width="78"
         height="32"
         class="terminal"
         rx="10"/>
   <text class="terminal" x="313" y="21">SOURCE</text>
   <rect x="423" y="35" width="118" height="32" rx="10"/>
   <rect x="421"
         y="33"
         width="118"
         height="32"
         class="terminal"
         rx="10"/>
   <text class="terminal" x="431" y="53">IF NOT EXISTS</text>
   <rect x="256" y="101" width="80" height="32"/>
   <rect x="254" y="99" width="80" height="32" class="nonterminal"/>
   <text class="nonterminal" x="264" y="119">src_name</text>
   <rect x="45" y="211" width="24" height="32" rx="10"/>
   <rect x="43"
         y="209"
         width="24"
         height="32"
         class="terminal"
         rx="10"/>
   <text class="terminal" x="53" y="229">(</text>
   <rect x="109" y="211" width="80" height="32"/>
   <rect x="107" y="209" width="80" height="32" class="nonterminal"/>
   <text class="nonterminal" x="117" y="229">col_name</text>
   <rect x="109" y="167" width="24" height="32" rx="10"/>
   <rect x="107"
         y="165"
         width="24"
         height="32"
         class="terminal"
         rx="10"/>
   <text class="terminal" x="117" y="185">,</text>
   <rect x="249" y="243" width="24" height="32" rx="10"/>
   <rect x="247"
         y="241"
         width="24"
         height="32"
         class="terminal"
         rx="10"/>
   <text class="terminal" x="257" y="261">,</text>
   <rect x="293" y="243" width="110" height="32"/>
   <rect x="291" y="241" width="110" height="32" class="nonterminal"/>
   <text class="nonterminal" x="301" y="261">key_constraint</text>
   <rect x="443" y="211" width="24" height="32" rx="10"/>
   <rect x="441"
         y="209"
         width="24"
         height="32"
         class="terminal"
         rx="10"/>
   <text class="terminal" x="451" y="229">)</text>
   <rect x="507" y="211" width="60" height="32" rx="10"/>
   <rect x="505"
         y="209"
         width="60"
         height="32"
         class="terminal"
         rx="10"/>
   <text class="terminal" x="515" y="229">FROM</text>
   <rect x="104" y="325" width="126" height="32" rx="10"/>
   <rect x="102"
         y="323"
         width="126"
         height="32"
         class="terminal"
         rx="10"/>
   <text class="terminal" x="112" y="343">KAFKA BROKER</text>
   <rect x="250" y="325" width="46" height="32"/>
   <rect x="248" y="323" width="46" height="32" class="nonterminal"/>
   <text class="nonterminal" x="258" y="343">host</text>
   <rect x="316" y="325" width="62" height="32" rx="10"/>
   <rect x="314"
         y="323"
         width="62"
         height="32"
         class="terminal"
         rx="10"/>
   <text class="terminal" x="324" y="343">TOPIC</text>
   <rect x="418" y="357" width="50" height="32"/>
   <rect x="416" y="355" width="50" height="32" class="nonterminal"/>
   <text class="nonterminal" x="426" y="375">topic</text>
   <rect x="70" y="467" width="56" height="32" rx="10"/>
   <rect x="68"
         y="465"
         width="56"
         height="32"
         class="terminal"
         rx="10"/>
   <text class="terminal" x="78" y="485">WITH</text>
   <rect x="146" y="467" width="24" height="32" rx="10"/>
   <rect x="144"
         y="465"
         width="24"
         height="32"
         class="terminal"
         rx="10"/>
   <text class="terminal" x="154" y="485">(</text>
   <rect x="210" y="467" width="46" height="32"/>
   <rect x="208" y="465" width="46" height="32" class="nonterminal"/>
   <text class="nonterminal" x="218" y="485">field</text>
   <rect x="276" y="467" width="26" height="32" rx="10"/>
   <rect x="274"
         y="465"
         width="26"
         height="32"
         class="terminal"
         rx="10"/>
   <text class="terminal" x="284" y="485">=</text>
   <rect x="322" y="467" width="38" height="32"/>
   <rect x="320" y="465" width="38" height="32" class="nonterminal"/>
   <text class="nonterminal" x="330" y="485">val</text>
   <rect x="210" y="423" width="24" height="32" rx="10"/>
   <rect x="208"
         y="421"
         width="24"
         height="32"
         class="terminal"
         rx="10"/>
   <text class="terminal" x="218" y="441">,</text>
   <rect x="400" y="467" width="24" height="32" rx="10"/>
   <rect x="398"
         y="465"
         width="24"
         height="32"
         class="terminal"
         rx="10"/>
   <text class="terminal" x="408" y="485">)</text>
   <rect x="464" y="467" width="78" height="32" rx="10"/>
   <rect x="462"
         y="465"
         width="78"
         height="32"
         class="terminal"
         rx="10"/>
   <text class="terminal" x="472" y="485">FORMAT</text>
   <rect x="71" y="549" width="168" height="32" rx="10"/>
   <rect x="69"
         y="547"
         width="168"
         height="32"
         class="terminal"
         rx="10"/>
   <text class="terminal" x="79" y="567">PROTOBUF MESSAGE</text>
   <rect x="259" y="549" width="116" height="32"/>
   <rect x="257" y="547" width="116" height="32" class="nonterminal"/>
   <text class="nonterminal" x="267" y="567">message_name</text>
   <rect x="395" y="549" width="126" height="32" rx="10"/>
   <rect x="393"
         y="547"
         width="126"
         height="32"
         class="terminal"
         rx="10"/>
   <text class="terminal" x="403" y="567">USING SCHEMA</text>
   <rect x="345" y="615" width="48" height="32" rx="10"/>
   <rect x="343"
         y="613"
         width="48"
         height="32"
         class="terminal"
         rx="10"/>
   <text class="terminal" x="353" y="633">FILE</text>
   <rect x="413" y="615" width="128" height="32"/>
   <rect x="411" y="613" width="128" height="32" class="nonterminal"/>
   <text class="nonterminal" x="421" y="633">schema_file_path</text>
   <rect x="345" y="659" width="108" height="32"/>
   <rect x="343" y="657" width="108" height="32" class="nonterminal"/>
   <text class="nonterminal" x="353" y="677">inline_schema</text>
   <path class="line"
         d="m17 17 h2 m0 0 h10 m74 0 h10 m20 0 h10 m0 0 h130 m-160 0 h20 m140 0 h20 m-180 0 q10 0 10 10 m160 0 q0 -10 10 -10 m-170 10 v12 m160 0 v-12 m-160 12 q0 10 10 10 m140 0 q10 0 10 -10 m-150 10 h10 m120 0 h10 m20 -32 h10 m78 0 h10 m20 0 h10 m0 0 h128 m-158 0 h20 m138 0 h20 m-178 0 q10 0 10 10 m158 0 q0 -10 10 -10 m-168 10 v12 m158 0 v-12 m-158 12 q0 10 10 10 m138 0 q10 0 10 -10 m-148 10 h10 m118 0 h10 m22 -32 l2 0 m2 0 l2 0 m2 0 l2 0 m-349 98 l2 0 m2 0 l2 0 m2 0 l2 0 m2 0 h10 m80 0 h10 m2 0 l2 0 m2 0 l2 0 m2 0 l2 0 m-355 110 l2 0 m2 0 l2 0 m2 0 l2 0 m22 0 h10 m24 0 h10 m20 0 h10 m80 0 h10 m-120 0 l20 0 m-1 0 q-9 0 -9 -10 l0 -24 q0 -10 10 -10 m100 44 l20 0 m-20 0 q10 0 10 -10 l0 -24 q0 -10 -10 -10 m-100 0 h10 m24 0 h10 m0 0 h56 m40 44 h10 m0 0 h164 m-194 0 h20 m174 0 h20 m-214 0 q10 0 10 10 m194 0 q0 -10 10 -10 m-204 10 v12 m194 0 v-12 m-194 12 q0 10 10 10 m174 0 q10 0 10 -10 m-184 10 h10 m24 0 h10 m0 0 h10 m110 0 h10 m20 -32 h10 m24 0 h10 m-462 0 h20 m442 0 h20 m-482 0 q10 0 10 10 m462 0 q0 -10 10 -10 m-472 10 v46 m462 0 v-46 m-462 46 q0 10 10 10 m442 0 q10 0 10 -10 m-452 10 h10 m0 0 h432 m20 -66 h10 m60 0 h10 m2 0 l2 0 m2 0 l2 0 m2 0 l2 0 m-507 114 l2 0 m2 0 l2 0 m2 0 l2 0 m2 0 h10 m126 0 h10 m0 0 h10 m46 0 h10 m0 0 h10 m62 0 h10 m20 0 h10 m0 0 h60 m-90 0 h20 m70 0 h20 m-110 0 q10 0 10 10 m90 0 q0 -10 10 -10 m-100 10 v12 m90 0 v-12 m-90 12 q0 10 10 10 m70 0 q10 0 10 -10 m-80 10 h10 m50 0 h10 m22 -32 l2 0 m2 0 l2 0 m2 0 l2 0 m-482 142 l2 0 m2 0 l2 0 m2 0 l2 0 m22 0 h10 m56 0 h10 m0 0 h10 m24 0 h10 m20 0 h10 m46 0 h10 m0 0 h10 m26 0 h10 m0 0 h10 m38 0 h10 m-190 0 l20 0 m-1 0 q-9 0 -9 -10 l0 -24 q0 -10 10 -10 m170 44 l20 0 m-20 0 q10 0 10 -10 l0 -24 q0 -10 -10 -10 m-170 0 h10 m24 0 h10 m0 0 h126 m20 44 h10 m24 0 h10 m-394 0 h20 m374 0 h20 m-414 0 q10 0 10 10 m394 0 q0 -10 10 -10 m-404 10 v14 m394 0 v-14 m-394 14 q0 10 10 10 m374 0 q10 0 10 -10 m-384 10 h10 m0 0 h364 m20 -34 h10 m78 0 h10 m2 0 l2 0 m2 0 l2 0 m2 0 l2 0 m-515 82 l2 0 m2 0 l2 0 m2 0 l2 0 m2 0 h10 m168 0 h10 m0 0 h10 m116 0 h10 m0 0 h10 m126 0 h10 m2 0 l2 0 m2 0 l2 0 m2 0 l2 0 m-240 66 l2 0 m2 0 l2 0 m2 0 l2 0 m22 0 h10 m48 0 h10 m0 0 h10 m128 0 h10 m-236 0 h20 m216 0 h20 m-256 0 q10 0 10 10 m236 0 q0 -10 10 -10 m-246 10 v24 m236 0 v-24 m-236 24 q0 10 10 10 m216 0 q10 0 10 -10 m-226 10 h10 m108 0 h10 m0 0 h88 m23 -44 h-3"/>
   <polygon points="579 629 587 625 587 633"/>
   <polygon points="579 629 571 625 571 633"/>
</svg>
