<svg xmlns="http://www.w3.org/2000/svg" width="673" height="1241">
   <polygon points="9 17 1 13 1 21"/>
   <polygon points="17 17 9 13 9 21"/>
   <rect x="31" y="3" width="140" height="32" rx="10"/>
   <rect x="29"
         y="1"
         width="140"
         height="32"
         class="terminal"
         rx="10"/>
   <text class="terminal" x="39" y="21">CREATE SOURCE</text>
   <rect x="211" y="35" width="120" height="32" rx="10"/>
   <rect x="209"
         y="33"
         width="120"
         height="32"
         class="terminal"
         rx="10"/>
   <text class="terminal" x="219" y="53">IF NOT EXISTS</text>
   <rect x="371" y="3" width="82" height="32"/>
   <rect x="369" y="1" width="82" height="32" class="nonterminal"/>
   <text class="nonterminal" x="379" y="21">src_name</text>
   <rect x="85" y="145" width="26" height="32" rx="10"/>
   <rect x="83"
         y="143"
         width="26"
         height="32"
         class="terminal"
         rx="10"/>
   <text class="terminal" x="93" y="163">(</text>
   <rect x="151" y="145" width="82" height="32"/>
   <rect x="149" y="143" width="82" height="32" class="nonterminal"/>
   <text class="nonterminal" x="159" y="163">col_name</text>
   <rect x="151" y="101" width="24" height="32" rx="10"/>
   <rect x="149"
         y="99"
         width="24"
         height="32"
         class="terminal"
         rx="10"/>
   <text class="terminal" x="159" y="119">,</text>
   <rect x="273" y="145" width="26" height="32" rx="10"/>
   <rect x="271"
         y="143"
         width="26"
         height="32"
         class="terminal"
         rx="10"/>
   <text class="terminal" x="281" y="163">)</text>
   <rect x="359" y="177" width="104" height="32" rx="10"/>
   <rect x="357"
         y="175"
         width="104"
         height="32"
         class="terminal"
         rx="10"/>
   <text class="terminal" x="367" y="195">IN CLUSTER</text>
   <rect x="483" y="177" width="108" height="32"/>
   <rect x="481" y="175" width="108" height="32" class="nonterminal"/>
   <text class="nonterminal" x="491" y="195">cluster_name</text>
   <rect x="95" y="243" width="60" height="32" rx="10"/>
   <rect x="93"
         y="241"
         width="60"
         height="32"
         class="terminal"
         rx="10"/>
   <text class="terminal" x="103" y="261">FROM</text>
   <rect x="175" y="243" width="68" height="32" rx="10"/>
   <rect x="173"
         y="241"
         width="68"
         height="32"
         class="terminal"
         rx="10"/>
   <text class="terminal" x="183" y="261">KAFKA</text>
   <rect x="263" y="243" width="116" height="32" rx="10"/>
   <rect x="261"
         y="241"
         width="116"
         height="32"
         class="terminal"
         rx="10"/>
   <text class="terminal" x="271" y="261">CONNECTION</text>
   <rect x="399" y="243" width="136" height="32"/>
   <rect x="397" y="241" width="136" height="32" class="nonterminal"/>
   <text class="nonterminal" x="407" y="261">connection_name</text>
   <rect x="555" y="243" width="26" height="32" rx="10"/>
   <rect x="553"
         y="241"
         width="26"
         height="32"
         class="terminal"
         rx="10"/>
   <text class="terminal" x="563" y="261">(</text>
   <rect x="125" y="309" width="64" height="32" rx="10"/>
   <rect x="123"
         y="307"
         width="64"
         height="32"
         class="terminal"
         rx="10"/>
   <text class="terminal" x="133" y="327">TOPIC</text>
   <rect x="209" y="309" width="52" height="32"/>
   <rect x="207" y="307" width="52" height="32" class="nonterminal"/>
   <text class="nonterminal" x="217" y="327">topic</text>
   <rect x="301" y="341" width="24" height="32" rx="10"/>
   <rect x="299"
         y="339"
         width="24"
         height="32"
         class="terminal"
         rx="10"/>
   <text class="terminal" x="309" y="359">,</text>
   <rect x="345" y="341" width="140" height="32"/>
   <rect x="343" y="339" width="140" height="32" class="nonterminal"/>
   <text class="nonterminal" x="353" y="359">connection_option</text>
   <rect x="525" y="309" width="26" height="32" rx="10"/>
   <rect x="523"
         y="307"
         width="26"
         height="32"
         class="terminal"
         rx="10"/>
   <text class="terminal" x="533" y="327">)</text>
   <rect x="83" y="407" width="114" height="32" rx="10"/>
   <rect x="81"
         y="405"
         width="114"
         height="32"
         class="terminal"
         rx="10"/>
   <text class="terminal" x="91" y="425">KEY FORMAT</text>
   <rect x="217" y="407" width="102" height="32"/>
   <rect x="215" y="405" width="102" height="32" class="nonterminal"/>
   <text class="nonterminal" x="225" y="425">format_spec</text>
   <rect x="339" y="407" width="132" height="32" rx="10"/>
   <rect x="337"
         y="405"
         width="132"
         height="32"
         class="terminal"
         rx="10"/>
   <text class="terminal" x="347" y="425">VALUE FORMAT</text>
   <rect x="83" y="451" width="80" height="32" rx="10"/>
   <rect x="81"
         y="449"
         width="80"
         height="32"
         class="terminal"
         rx="10"/>
   <text class="terminal" x="91" y="469">FORMAT</text>
   <rect x="511" y="407" width="102" height="32"/>
   <rect x="509" y="405" width="102" height="32" class="nonterminal"/>
   <text class="nonterminal" x="519" y="425">format_spec</text>
   <rect x="45" y="561" width="82" height="32" rx="10"/>
   <rect x="43"
         y="559"
         width="82"
         height="32"
         class="terminal"
         rx="10"/>
   <text class="terminal" x="53" y="579">INCLUDE</text>
   <rect x="207" y="561" width="48" height="32" rx="10"/>
   <rect x="205"
         y="559"
         width="48"
         height="32"
         class="terminal"
         rx="10"/>
   <text class="terminal" x="215" y="579">KEY</text>
   <rect x="207" y="605" width="96" height="32" rx="10"/>
   <rect x="205"
         y="603"
         width="96"
         height="32"
         class="terminal"
         rx="10"/>
   <text class="terminal" x="215" y="623">PARTITION</text>
   <rect x="207" y="649" width="74" height="32" rx="10"/>
   <rect x="205"
         y="647"
         width="74"
         height="32"
         class="terminal"
         rx="10"/>
   <text class="terminal" x="215" y="667">OFFSET</text>
   <rect x="207" y="693" width="106" height="32" rx="10"/>
   <rect x="205"
         y="691"
         width="106"
         height="32"
         class="terminal"
         rx="10"/>
   <text class="terminal" x="215" y="711">TIMESTAMP</text>
   <rect x="207" y="737" width="86" height="32" rx="10"/>
   <rect x="205"
         y="735"
         width="86"
         height="32"
         class="terminal"
         rx="10"/>
   <text class="terminal" x="215" y="755">HEADERS</text>
   <rect x="373" y="593" width="40" height="32" rx="10"/>
   <rect x="371"
         y="591"
         width="40"
         height="32"
         class="terminal"
         rx="10"/>
   <text class="terminal" x="381" y="611">AS</text>
   <rect x="433" y="593" width="56" height="32"/>
   <rect x="431" y="591" width="56" height="32" class="nonterminal"/>
   <text class="nonterminal" x="441" y="611">name</text>
   <rect x="187" y="781" width="78" height="32" rx="10"/>
   <rect x="185"
         y="779"
         width="78"
         height="32"
         class="terminal"
         rx="10"/>
   <text class="terminal" x="195" y="799">HEADER</text>
   <rect x="285" y="781" width="44" height="32"/>
   <rect x="283" y="779" width="44" height="32" class="nonterminal"/>
   <text class="nonterminal" x="293" y="799">key</text>
   <rect x="349" y="781" width="40" height="32" rx="10"/>
   <rect x="347"
         y="779"
         width="40"
         height="32"
         class="terminal"
         rx="10"/>
   <text class="terminal" x="357" y="799">AS</text>
   <rect x="409" y="781" width="56" height="32"/>
   <rect x="407" y="779" width="56" height="32" class="nonterminal"/>
   <text class="nonterminal" x="417" y="799">name</text>
   <rect x="505" y="813" width="66" height="32" rx="10"/>
   <rect x="503"
         y="811"
         width="66"
         height="32"
         class="terminal"
         rx="10"/>
   <text class="terminal" x="513" y="831">BYTES</text>
   <rect x="167" y="517" width="24" height="32" rx="10"/>
   <rect x="165"
         y="515"
         width="24"
         height="32"
         class="terminal"
         rx="10"/>
   <text class="terminal" x="175" y="535">,</text>
   <rect x="215" y="911" width="94" height="32" rx="10"/>
   <rect x="213"
         y="909"
         width="94"
         height="32"
         class="terminal"
         rx="10"/>
   <text class="terminal" x="223" y="929">ENVELOPE</text>
   <rect x="349" y="911" width="60" height="32" rx="10"/>
   <rect x="347"
         y="909"
         width="60"
         height="32"
         class="terminal"
         rx="10"/>
   <text class="terminal" x="357" y="929">NONE</text>
   <rect x="349" y="955" width="92" height="32" rx="10"/>
   <rect x="347"
         y="953"
         width="92"
         height="32"
         class="terminal"
         rx="10"/>
   <text class="terminal" x="357" y="973">DEBEZIUM</text>
   <rect x="349" y="999" width="76" height="32" rx="10"/>
   <rect x="347"
         y="997"
         width="76"
         height="32"
         class="terminal"
         rx="10"/>
   <text class="terminal" x="357" y="1017">UPSERT</text>
   <rect x="104" y="1081" width="76" height="32" rx="10"/>
   <rect x="102"
         y="1079"
         width="76"
         height="32"
         class="terminal"
         rx="10"/>
   <text class="terminal" x="112" y="1099">EXPOSE</text>
   <rect x="200" y="1081" width="96" height="32" rx="10"/>
   <rect x="198"
         y="1079"
         width="96"
         height="32"
         class="terminal"
         rx="10"/>
   <text class="terminal" x="208" y="1099">PROGRESS</text>
   <rect x="316" y="1081" width="40" height="32" rx="10"/>
   <rect x="314"
         y="1079"
         width="40"
         height="32"
         class="terminal"
         rx="10"/>
   <text class="terminal" x="324" y="1099">AS</text>
   <rect x="376" y="1081" width="196" height="32"/>
   <rect x="374"
         y="1079"
         width="196"
         height="32"
         class="nonterminal"/>
   <text class="nonterminal" x="384" y="1099">progress_subsource_name</text>
   <rect x="261" y="1191" width="58" height="32" rx="10"/>
   <rect x="259"
         y="1189"
         width="58"
         height="32"
         class="terminal"
         rx="10"/>
   <text class="terminal" x="269" y="1209">WITH</text>
   <rect x="339" y="1191" width="26" height="32" rx="10"/>
   <rect x="337"
         y="1189"
         width="26"
         height="32"
         class="terminal"
         rx="10"/>
   <text class="terminal" x="347" y="1209">(</text>
   <rect x="405" y="1191" width="48" height="32"/>
   <rect x="403" y="1189" width="48" height="32" class="nonterminal"/>
   <text class="nonterminal" x="413" y="1209">field</text>
   <rect x="473" y="1191" width="28" height="32" rx="10"/>
   <rect x="471"
         y="1189"
         width="28"
         height="32"
         class="terminal"
         rx="10"/>
   <text class="terminal" x="481" y="1209">=</text>
   <rect x="521" y="1191" width="38" height="32"/>
   <rect x="519" y="1189" width="38" height="32" class="nonterminal"/>
   <text class="nonterminal" x="529" y="1209">val</text>
   <rect x="405" y="1147" width="24" height="32" rx="10"/>
   <rect x="403"
         y="1145"
         width="24"
         height="32"
         class="terminal"
         rx="10"/>
   <text class="terminal" x="413" y="1165">,</text>
   <rect x="599" y="1191" width="26" height="32" rx="10"/>
   <rect x="597"
         y="1189"
         width="26"
         height="32"
         class="terminal"
         rx="10"/>
   <text class="terminal" x="607" y="1209">)</text>
   <path class="line"
         d="m17 17 h2 m0 0 h10 m140 0 h10 m20 0 h10 m0 0 h130 m-160 0 h20 m140 0 h20 m-180 0 q10 0 10 10 m160 0 q0 -10 10 -10 m-170 10 v12 m160 0 v-12 m-160 12 q0 10 10 10 m140 0 q10 0 10 -10 m-150 10 h10 m120 0 h10 m20 -32 h10 m82 0 h10 m2 0 l2 0 m2 0 l2 0 m2 0 l2 0 m-432 142 l2 0 m2 0 l2 0 m2 0 l2 0 m22 0 h10 m26 0 h10 m20 0 h10 m82 0 h10 m-122 0 l20 0 m-1 0 q-9 0 -9 -10 l0 -24 q0 -10 10 -10 m102 44 l20 0 m-20 0 q10 0 10 -10 l0 -24 q0 -10 -10 -10 m-102 0 h10 m24 0 h10 m0 0 h58 m20 44 h10 m26 0 h10 m-254 0 h20 m234 0 h20 m-274 0 q10 0 10 10 m254 0 q0 -10 10 -10 m-264 10 v14 m254 0 v-14 m-254 14 q0 10 10 10 m234 0 q10 0 10 -10 m-244 10 h10 m0 0 h224 m40 -34 h10 m0 0 h242 m-272 0 h20 m252 0 h20 m-292 0 q10 0 10 10 m272 0 q0 -10 10 -10 m-282 10 v12 m272 0 v-12 m-272 12 q0 10 10 10 m252 0 q10 0 10 -10 m-262 10 h10 m104 0 h10 m0 0 h10 m108 0 h10 m22 -32 l2 0 m2 0 l2 0 m2 0 l2 0 m-560 98 l2 0 m2 0 l2 0 m2 0 l2 0 m2 0 h10 m60 0 h10 m0 0 h10 m68 0 h10 m0 0 h10 m116 0 h10 m0 0 h10 m136 0 h10 m0 0 h10 m26 0 h10 m2 0 l2 0 m2 0 l2 0 m2 0 l2 0 m-500 66 l2 0 m2 0 l2 0 m2 0 l2 0 m2 0 h10 m64 0 h10 m0 0 h10 m52 0 h10 m20 0 h10 m0 0 h194 m-224 0 h20 m204 0 h20 m-244 0 q10 0 10 10 m224 0 q0 -10 10 -10 m-234 10 v12 m224 0 v-12 m-224 12 q0 10 10 10 m204 0 q10 0 10 -10 m-214 10 h10 m24 0 h10 m0 0 h10 m140 0 h10 m20 -32 h10 m26 0 h10 m2 0 l2 0 m2 0 l2 0 m2 0 l2 0 m-532 98 l2 0 m2 0 l2 0 m2 0 l2 0 m22 0 h10 m114 0 h10 m0 0 h10 m102 0 h10 m0 0 h10 m132 0 h10 m-428 0 h20 m408 0 h20 m-448 0 q10 0 10 10 m428 0 q0 -10 10 -10 m-438 10 v24 m428 0 v-24 m-428 24 q0 10 10 10 m408 0 q10 0 10 -10 m-418 10 h10 m80 0 h10 m0 0 h308 m20 -44 h10 m102 0 h10 m2 0 l2 0 m2 0 l2 0 m2 0 l2 0 m-632 154 l2 0 m2 0 l2 0 m2 0 l2 0 m22 0 h10 m82 0 h10 m60 0 h10 m48 0 h10 m0 0 h58 m-146 0 h20 m126 0 h20 m-166 0 q10 0 10 10 m146 0 q0 -10 10 -10 m-156 10 v24 m146 0 v-24 m-146 24 q0 10 10 10 m126 0 q10 0 10 -10 m-136 10 h10 m96 0 h10 m0 0 h10 m-136 -10 v20 m146 0 v-20 m-146 20 v24 m146 0 v-24 m-146 24 q0 10 10 10 m126 0 q10 0 10 -10 m-136 10 h10 m74 0 h10 m0 0 h32 m-136 -10 v20 m146 0 v-20 m-146 20 v24 m146 0 v-24 m-146 24 q0 10 10 10 m126 0 q10 0 10 -10 m-136 10 h10 m106 0 h10 m-136 -10 v20 m146 0 v-20 m-146 20 v24 m146 0 v-24 m-146 24 q0 10 10 10 m126 0 q10 0 10 -10 m-136 10 h10 m86 0 h10 m0 0 h20 m40 -176 h10 m0 0 h126 m-156 0 h20 m136 0 h20 m-176 0 q10 0 10 10 m156 0 q0 -10 10 -10 m-166 10 v12 m156 0 v-12 m-156 12 q0 10 10 10 m136 0 q10 0 10 -10 m-146 10 h10 m40 0 h10 m0 0 h10 m56 0 h10 m20 -32 h82 m-444 0 h20 m424 0 h20 m-464 0 q10 0 10 10 m444 0 q0 -10 10 -10 m-454 10 v200 m444 0 v-200 m-444 200 q0 10 10 10 m424 0 q10 0 10 -10 m-434 10 h10 m78 0 h10 m0 0 h10 m44 0 h10 m0 0 h10 m40 0 h10 m0 0 h10 m56 0 h10 m20 0 h10 m0 0 h76 m-106 0 h20 m86 0 h20 m-126 0 q10 0 10 10 m106 0 q0 -10 10 -10 m-116 10 v12 m106 0 v-12 m-106 12 q0 10 10 10 m86 0 q10 0 10 -10 m-96 10 h10 m66 0 h10 m-444 -252 l20 0 m-1 0 q-9 0 -9 -10 l0 -24 q0 -10 10 -10 m464 44 l20 0 m-20 0 q10 0 10 -10 l0 -24 q0 -10 -10 -10 m-464 0 h10 m24 0 h10 m0 0 h420 m-606 44 h20 m606 0 h20 m-646 0 q10 0 10 10 m626 0 q0 -10 10 -10 m-636 10 v266 m626 0 v-266 m-626 266 q0 10 10 10 m606 0 q10 0 10 -10 m-616 10 h10 m0 0 h596 m22 -286 l2 0 m2 0 l2 0 m2 0 l2 0 m-500 318 l2 0 m2 0 l2 0 m2 0 l2 0 m22 0 h10 m0 0 h256 m-286 0 h20 m266 0 h20 m-306 0 q10 0 10 10 m286 0 q0 -10 10 -10 m-296 10 v12 m286 0 v-12 m-286 12 q0 10 10 10 m266 0 q10 0 10 -10 m-276 10 h10 m94 0 h10 m20 0 h10 m60 0 h10 m0 0 h32 m-132 0 h20 m112 0 h20 m-152 0 q10 0 10 10 m132 0 q0 -10 10 -10 m-142 10 v24 m132 0 v-24 m-132 24 q0 10 10 10 m112 0 q10 0 10 -10 m-122 10 h10 m92 0 h10 m-122 -10 v20 m132 0 v-20 m-132 20 v24 m132 0 v-24 m-132 24 q0 10 10 10 m112 0 q10 0 10 -10 m-122 10 h10 m76 0 h10 m0 0 h16 m42 -120 l2 0 m2 0 l2 0 m2 0 l2 0 m-441 170 l2 0 m2 0 l2 0 m2 0 l2 0 m22 0 h10 m0 0 h478 m-508 0 h20 m488 0 h20 m-528 0 q10 0 10 10 m508 0 q0 -10 10 -10 m-518 10 v12 m508 0 v-12 m-508 12 q0 10 10 10 m488 0 q10 0 10 -10 m-498 10 h10 m76 0 h10 m0 0 h10 m96 0 h10 m0 0 h10 m40 0 h10 m0 0 h10 m196 0 h10 m22 -32 l2 0 m2 0 l2 0 m2 0 l2 0 m-395 142 l2 0 m2 0 l2 0 m2 0 l2 0 m22 0 h10 m58 0 h10 m0 0 h10 m26 0 h10 m20 0 h10 m48 0 h10 m0 0 h10 m28 0 h10 m0 0 h10 m38 0 h10 m-194 0 l20 0 m-1 0 q-9 0 -9 -10 l0 -24 q0 -10 10 -10 m174 44 l20 0 m-20 0 q10 0 10 -10 l0 -24 q0 -10 -10 -10 m-174 0 h10 m24 0 h10 m0 0 h130 m20 44 h10 m26 0 h10 m-404 0 h20 m384 0 h20 m-424 0 q10 0 10 10 m404 0 q0 -10 10 -10 m-414 10 v14 m404 0 v-14 m-404 14 q0 10 10 10 m384 0 q10 0 10 -10 m-394 10 h10 m0 0 h374 m23 -34 h-3"/>
   <polygon points="663 1205 671 1201 671 1209"/>
   <polygon points="663 1205 655 1201 655 1209"/>
</svg>
