<svg xmlns="http://www.w3.org/2000/svg" width="589" height="915">
   <polygon points="9 17 1 13 1 21"/>
   <polygon points="17 17 9 13 9 21"/>
   <rect x="31" y="3" width="74" height="32" rx="10"/>
   <rect x="29"
         y="1"
         width="74"
         height="32"
         class="terminal"
         rx="10"/>
   <text class="terminal" x="39" y="21">CREATE</text>
   <rect x="145" y="35" width="120" height="32" rx="10"/>
   <rect x="143"
         y="33"
         width="120"
         height="32"
         class="terminal"
         rx="10"/>
   <text class="terminal" x="153" y="53">MATERIALIZED</text>
   <rect x="305" y="3" width="78" height="32" rx="10"/>
   <rect x="303"
         y="1"
         width="78"
         height="32"
         class="terminal"
         rx="10"/>
   <text class="terminal" x="313" y="21">SOURCE</text>
   <rect x="423" y="35" width="118" height="32" rx="10"/>
   <rect x="421"
         y="33"
         width="118"
         height="32"
         class="terminal"
         rx="10"/>
   <text class="terminal" x="431" y="53">IF NOT EXISTS</text>
   <rect x="256" y="101" width="80" height="32"/>
   <rect x="254" y="99" width="80" height="32" class="nonterminal"/>
   <text class="nonterminal" x="264" y="119">src_name</text>
   <rect x="45" y="211" width="24" height="32" rx="10"/>
   <rect x="43"
         y="209"
         width="24"
         height="32"
         class="terminal"
         rx="10"/>
   <text class="terminal" x="53" y="229">(</text>
   <rect x="109" y="211" width="80" height="32"/>
   <rect x="107" y="209" width="80" height="32" class="nonterminal"/>
   <text class="nonterminal" x="117" y="229">col_name</text>
   <rect x="109" y="167" width="24" height="32" rx="10"/>
   <rect x="107"
         y="165"
         width="24"
         height="32"
         class="terminal"
         rx="10"/>
   <text class="terminal" x="117" y="185">,</text>
   <rect x="249" y="243" width="24" height="32" rx="10"/>
   <rect x="247"
         y="241"
         width="24"
         height="32"
         class="terminal"
         rx="10"/>
   <text class="terminal" x="257" y="261">,</text>
   <rect x="293" y="243" width="110" height="32"/>
   <rect x="291" y="241" width="110" height="32" class="nonterminal"/>
   <text class="nonterminal" x="301" y="261">key_constraint</text>
   <rect x="443" y="211" width="24" height="32" rx="10"/>
   <rect x="441"
         y="209"
         width="24"
         height="32"
         class="terminal"
         rx="10"/>
   <text class="terminal" x="451" y="229">)</text>
   <rect x="507" y="211" width="60" height="32" rx="10"/>
   <rect x="505"
         y="209"
         width="60"
         height="32"
         class="terminal"
         rx="10"/>
   <text class="terminal" x="515" y="229">FROM</text>
   <rect x="124" y="325" width="126" height="32" rx="10"/>
   <rect x="122"
         y="323"
         width="126"
         height="32"
         class="terminal"
         rx="10"/>
   <text class="terminal" x="132" y="343">KAFKA BROKER</text>
   <rect x="270" y="325" width="46" height="32"/>
   <rect x="268" y="323" width="46" height="32" class="nonterminal"/>
   <text class="nonterminal" x="278" y="343">host</text>
   <rect x="336" y="325" width="62" height="32" rx="10"/>
   <rect x="334"
         y="323"
         width="62"
         height="32"
         class="terminal"
         rx="10"/>
   <text class="terminal" x="344" y="343">TOPIC</text>
   <rect x="418" y="325" width="50" height="32"/>
   <rect x="416" y="323" width="50" height="32" class="nonterminal"/>
   <text class="nonterminal" x="426" y="343">topic</text>
   <rect x="119" y="435" width="56" height="32" rx="10"/>
   <rect x="117"
         y="433"
         width="56"
         height="32"
         class="terminal"
         rx="10"/>
   <text class="terminal" x="127" y="453">WITH</text>
   <rect x="195" y="435" width="24" height="32" rx="10"/>
   <rect x="193"
         y="433"
         width="24"
         height="32"
         class="terminal"
         rx="10"/>
   <text class="terminal" x="203" y="453">(</text>
   <rect x="259" y="435" width="46" height="32"/>
   <rect x="257" y="433" width="46" height="32" class="nonterminal"/>
   <text class="nonterminal" x="267" y="453">field</text>
   <rect x="325" y="435" width="26" height="32" rx="10"/>
   <rect x="323"
         y="433"
         width="26"
         height="32"
         class="terminal"
         rx="10"/>
   <text class="terminal" x="333" y="453">=</text>
   <rect x="371" y="435" width="38" height="32"/>
   <rect x="369" y="433" width="38" height="32" class="nonterminal"/>
   <text class="nonterminal" x="379" y="453">val</text>
   <rect x="259" y="391" width="24" height="32" rx="10"/>
   <rect x="257"
         y="389"
         width="24"
         height="32"
         class="terminal"
         rx="10"/>
   <text class="terminal" x="267" y="409">,</text>
   <rect x="449" y="435" width="24" height="32" rx="10"/>
   <rect x="447"
         y="433"
         width="24"
         height="32"
         class="terminal"
         rx="10"/>
   <text class="terminal" x="457" y="453">)</text>
   <rect x="53" y="517" width="108" height="32" rx="10"/>
   <rect x="51"
         y="515"
         width="108"
         height="32"
         class="terminal"
         rx="10"/>
   <text class="terminal" x="61" y="535">KEY FORMAT</text>
   <rect x="181" y="517" width="96" height="32"/>
   <rect x="179" y="515" width="96" height="32" class="nonterminal"/>
   <text class="nonterminal" x="189" y="535">format_spec</text>
   <rect x="297" y="517" width="126" height="32" rx="10"/>
   <rect x="295"
         y="515"
         width="126"
         height="32"
         class="terminal"
         rx="10"/>
   <text class="terminal" x="305" y="535">VALUE FORMAT</text>
   <rect x="53" y="561" width="78" height="32" rx="10"/>
   <rect x="51"
         y="559"
         width="78"
         height="32"
         class="terminal"
         rx="10"/>
   <text class="terminal" x="61" y="579">FORMAT</text>
   <rect x="463" y="517" width="96" height="32"/>
   <rect x="461" y="515" width="96" height="32" class="nonterminal"/>
   <text class="nonterminal" x="471" y="535">format_spec</text>
   <rect x="140" y="643" width="112" height="32" rx="10"/>
   <rect x="138"
         y="641"
         width="112"
         height="32"
         class="terminal"
         rx="10"/>
   <text class="terminal" x="148" y="661">INCLUDE KEY</text>
   <rect x="292" y="675" width="38" height="32" rx="10"/>
   <rect x="290"
         y="673"
         width="38"
         height="32"
         class="terminal"
         rx="10"/>
   <text class="terminal" x="300" y="693">AS</text>
   <rect x="350" y="675" width="82" height="32"/>
   <rect x="348" y="673" width="82" height="32" class="nonterminal"/>
   <text class="nonterminal" x="358" y="693">key_name</text>
   <rect x="163" y="761" width="92" height="32" rx="10"/>
   <rect x="161"
         y="759"
         width="92"
         height="32"
         class="terminal"
         rx="10"/>
   <text class="terminal" x="171" y="779">ENVELOPE</text>
   <rect x="295" y="761" width="60" height="32" rx="10"/>
   <rect x="293"
         y="759"
         width="60"
         height="32"
         class="terminal"
         rx="10"/>
   <text class="terminal" x="303" y="779">NONE</text>
   <rect x="295" y="805" width="92" height="32" rx="10"/>
   <rect x="293"
         y="803"
         width="92"
         height="32"
         class="terminal"
         rx="10"/>
   <text class="terminal" x="303" y="823">DEBEZIUM</text>
   <rect x="427" y="837" width="74" height="32" rx="10"/>
   <rect x="425"
         y="835"
         width="74"
         height="32"
         class="terminal"
         rx="10"/>
   <text class="terminal" x="435" y="855">UPSERT</text>
   <rect x="295" y="881" width="74" height="32" rx="10"/>
   <rect x="293"
         y="879"
         width="74"
         height="32"
         class="terminal"
         rx="10"/>
   <text class="terminal" x="303" y="899">UPSERT</text>
   <path class="line"
         d="m17 17 h2 m0 0 h10 m74 0 h10 m20 0 h10 m0 0 h130 m-160 0 h20 m140 0 h20 m-180 0 q10 0 10 10 m160 0 q0 -10 10 -10 m-170 10 v12 m160 0 v-12 m-160 12 q0 10 10 10 m140 0 q10 0 10 -10 m-150 10 h10 m120 0 h10 m20 -32 h10 m78 0 h10 m20 0 h10 m0 0 h128 m-158 0 h20 m138 0 h20 m-178 0 q10 0 10 10 m158 0 q0 -10 10 -10 m-168 10 v12 m158 0 v-12 m-158 12 q0 10 10 10 m138 0 q10 0 10 -10 m-148 10 h10 m118 0 h10 m22 -32 l2 0 m2 0 l2 0 m2 0 l2 0 m-349 98 l2 0 m2 0 l2 0 m2 0 l2 0 m2 0 h10 m80 0 h10 m2 0 l2 0 m2 0 l2 0 m2 0 l2 0 m-355 110 l2 0 m2 0 l2 0 m2 0 l2 0 m22 0 h10 m24 0 h10 m20 0 h10 m80 0 h10 m-120 0 l20 0 m-1 0 q-9 0 -9 -10 l0 -24 q0 -10 10 -10 m100 44 l20 0 m-20 0 q10 0 10 -10 l0 -24 q0 -10 -10 -10 m-100 0 h10 m24 0 h10 m0 0 h56 m40 44 h10 m0 0 h164 m-194 0 h20 m174 0 h20 m-214 0 q10 0 10 10 m194 0 q0 -10 10 -10 m-204 10 v12 m194 0 v-12 m-194 12 q0 10 10 10 m174 0 q10 0 10 -10 m-184 10 h10 m24 0 h10 m0 0 h10 m110 0 h10 m20 -32 h10 m24 0 h10 m-462 0 h20 m442 0 h20 m-482 0 q10 0 10 10 m462 0 q0 -10 10 -10 m-472 10 v46 m462 0 v-46 m-462 46 q0 10 10 10 m442 0 q10 0 10 -10 m-452 10 h10 m0 0 h432 m20 -66 h10 m60 0 h10 m2 0 l2 0 m2 0 l2 0 m2 0 l2 0 m-487 114 l2 0 m2 0 l2 0 m2 0 l2 0 m2 0 h10 m126 0 h10 m0 0 h10 m46 0 h10 m0 0 h10 m62 0 h10 m0 0 h10 m50 0 h10 m2 0 l2 0 m2 0 l2 0 m2 0 l2 0 m-413 110 l2 0 m2 0 l2 0 m2 0 l2 0 m22 0 h10 m56 0 h10 m0 0 h10 m24 0 h10 m20 0 h10 m46 0 h10 m0 0 h10 m26 0 h10 m0 0 h10 m38 0 h10 m-190 0 l20 0 m-1 0 q-9 0 -9 -10 l0 -24 q0 -10 10 -10 m170 44 l20 0 m-20 0 q10 0 10 -10 l0 -24 q0 -10 -10 -10 m-170 0 h10 m24 0 h10 m0 0 h126 m20 44 h10 m24 0 h10 m-394 0 h20 m374 0 h20 m-414 0 q10 0 10 10 m394 0 q0 -10 10 -10 m-404 10 v14 m394 0 v-14 m-394 14 q0 10 10 10 m374 0 q10 0 10 -10 m-384 10 h10 m0 0 h364 m22 -34 l2 0 m2 0 l2 0 m2 0 l2 0 m-504 82 l2 0 m2 0 l2 0 m2 0 l2 0 m22 0 h10 m108 0 h10 m0 0 h10 m96 0 h10 m0 0 h10 m126 0 h10 m-410 0 h20 m390 0 h20 m-430 0 q10 0 10 10 m410 0 q0 -10 10 -10 m-420 10 v24 m410 0 v-24 m-410 24 q0 10 10 10 m390 0 q10 0 10 -10 m-400 10 h10 m78 0 h10 m0 0 h292 m20 -44 h10 m96 0 h10 m2 0 l2 0 m2 0 l2 0 m2 0 l2 0 m-483 94 l2 0 m2 0 l2 0 m2 0 l2 0 m22 0 h10 m0 0 h322 m-352 0 h20 m332 0 h20 m-372 0 q10 0 10 10 m352 0 q0 -10 10 -10 m-362 10 v12 m352 0 v-12 m-352 12 q0 10 10 10 m332 0 q10 0 10 -10 m-342 10 h10 m112 0 h10 m20 0 h10 m0 0 h150 m-180 0 h20 m160 0 h20 m-200 0 q10 0 10 10 m180 0 q0 -10 10 -10 m-190 10 v12 m180 0 v-12 m-180 12 q0 10 10 10 m160 0 q10 0 10 -10 m-170 10 h10 m38 0 h10 m0 0 h10 m82 0 h10 m42 -64 l2 0 m2 0 l2 0 m2 0 l2 0 m-373 118 l2 0 m2 0 l2 0 m2 0 l2 0 m22 0 h10 m0 0 h388 m-418 0 h20 m398 0 h20 m-438 0 q10 0 10 10 m418 0 q0 -10 10 -10 m-428 10 v12 m418 0 v-12 m-418 12 q0 10 10 10 m398 0 q10 0 10 -10 m-408 10 h10 m92 0 h10 m20 0 h10 m60 0 h10 m0 0 h166 m-266 0 h20 m246 0 h20 m-286 0 q10 0 10 10 m266 0 q0 -10 10 -10 m-276 10 v24 m266 0 v-24 m-266 24 q0 10 10 10 m246 0 q10 0 10 -10 m-256 10 h10 m92 0 h10 m20 0 h10 m0 0 h84 m-114 0 h20 m94 0 h20 m-134 0 q10 0 10 10 m114 0 q0 -10 10 -10 m-124 10 v12 m114 0 v-12 m-114 12 q0 10 10 10 m94 0 q10 0 10 -10 m-104 10 h10 m74 0 h10 m-236 -42 v20 m266 0 v-20 m-266 20 v56 m266 0 v-56 m-266 56 q0 10 10 10 m246 0 q10 0 10 -10 m-256 10 h10 m74 0 h10 m0 0 h152 m43 -152 h-3"/>
   <polygon points="579 743 587 739 587 747"/>
   <polygon points="579 743 571 739 571 747"/>
</svg>
