<svg xmlns="http://www.w3.org/2000/svg" width="583" height="567">
   <polygon points="9 17 1 13 1 21"/>
   <polygon points="17 17 9 13 9 21"/>
   <rect x="31" y="3" width="74" height="32" rx="10"/>
   <rect x="29"
         y="1"
         width="74"
         height="32"
         class="terminal"
         rx="10"/>
   <text class="terminal" x="39" y="21">CREATE</text>
   <rect x="145" y="35" width="120" height="32" rx="10"/>
   <rect x="143"
         y="33"
         width="120"
         height="32"
         class="terminal"
         rx="10"/>
   <text class="terminal" x="153" y="53">MATERIALIZED</text>
   <rect x="305" y="3" width="78" height="32" rx="10"/>
   <rect x="303"
         y="1"
         width="78"
         height="32"
         class="terminal"
         rx="10"/>
   <text class="terminal" x="313" y="21">SOURCE</text>
   <rect x="423" y="35" width="118" height="32" rx="10"/>
   <rect x="421"
         y="33"
         width="118"
         height="32"
         class="terminal"
         rx="10"/>
   <text class="terminal" x="431" y="53">IF NOT EXISTS</text>
   <rect x="119" y="145" width="80" height="32"/>
   <rect x="117" y="143" width="80" height="32" class="nonterminal"/>
   <text class="nonterminal" x="127" y="163">src_name</text>
   <rect x="239" y="145" width="24" height="32" rx="10"/>
   <rect x="237"
         y="143"
         width="24"
         height="32"
         class="terminal"
         rx="10"/>
   <text class="terminal" x="247" y="163">(</text>
   <rect x="303" y="145" width="80" height="32"/>
   <rect x="301" y="143" width="80" height="32" class="nonterminal"/>
   <text class="nonterminal" x="311" y="163">col_name</text>
   <rect x="303" y="101" width="24" height="32" rx="10"/>
   <rect x="301"
         y="99"
         width="24"
         height="32"
         class="terminal"
         rx="10"/>
   <text class="terminal" x="311" y="119">,</text>
   <rect x="423" y="145" width="24" height="32" rx="10"/>
   <rect x="421"
         y="143"
         width="24"
         height="32"
         class="terminal"
         rx="10"/>
   <text class="terminal" x="431" y="163">)</text>
   <rect x="45" y="271" width="196" height="32" rx="10"/>
   <rect x="43"
         y="269"
         width="196"
         height="32"
         class="terminal"
         rx="10"/>
   <text class="terminal" x="53" y="289">FROM S3 OBJECTS FROM </text>
   <rect x="281" y="271" width="118" height="32" rx="10"/>
   <rect x="279"
         y="269"
         width="118"
         height="32"
         class="terminal"
         rx="10"/>
   <text class="terminal" x="289" y="289">SCAN BUCKET</text>
   <rect x="419" y="271" width="102" height="32"/>
   <rect x="417" y="269" width="102" height="32" class="nonterminal"/>
   <text class="nonterminal" x="427" y="289">bucket_name</text>
   <rect x="281" y="227" width="24" height="32" rx="10"/>
   <rect x="279"
         y="225"
         width="24"
         height="32"
         class="terminal"
         rx="10"/>
   <text class="terminal" x="289" y="245">,</text>
   <rect x="60" y="369" width="94" height="32" rx="10"/>
   <rect x="58"
         y="367"
         width="94"
         height="32"
         class="terminal"
         rx="10"/>
   <text class="terminal" x="68" y="387">MATCHING</text>
   <rect x="174" y="369" width="64" height="32"/>
   <rect x="172" y="367" width="64" height="32" class="nonterminal"/>
   <text class="nonterminal" x="182" y="387">pattern</text>
   <rect x="278" y="337" width="56" height="32" rx="10"/>
   <rect x="276"
         y="335"
         width="56"
         height="32"
         class="terminal"
         rx="10"/>
   <text class="terminal" x="286" y="355">WITH</text>
   <rect x="354" y="337" width="24" height="32" rx="10"/>
   <rect x="352"
         y="335"
         width="24"
         height="32"
         class="terminal"
         rx="10"/>
   <text class="terminal" x="362" y="355">(</text>
   <rect x="398" y="337" width="70" height="32" rx="10"/>
   <rect x="396"
         y="335"
         width="70"
         height="32"
         class="terminal"
         rx="10"/>
   <text class="terminal" x="406" y="355">region =</text>
   <rect x="488" y="337" width="58" height="32"/>
   <rect x="486" y="335" width="58" height="32" class="nonterminal"/>
   <text class="nonterminal" x="496" y="355">region</text>
   <rect x="91" y="467" width="118" height="32"/>
   <rect x="89" y="465" width="118" height="32" class="nonterminal"/>
   <text class="nonterminal" x="99" y="485">aws_credentials</text>
   <rect x="249" y="435" width="24" height="32" rx="10"/>
   <rect x="247"
         y="433"
         width="24"
         height="32"
         class="terminal"
         rx="10"/>
   <text class="terminal" x="257" y="453">)</text>
   <rect x="293" y="435" width="78" height="32" rx="10"/>
   <rect x="291"
         y="433"
         width="78"
         height="32"
         class="terminal"
         rx="10"/>
   <text class="terminal" x="301" y="453">FORMAT</text>
   <rect x="391" y="435" width="48" height="32" rx="10"/>
   <rect x="389"
         y="433"
         width="48"
         height="32"
         class="terminal"
         rx="10"/>
   <text class="terminal" x="399" y="453">CSV</text>
   <rect x="459" y="435" width="56" height="32" rx="10"/>
   <rect x="457"
         y="433"
         width="56"
         height="32"
         class="terminal"
         rx="10"/>
   <text class="terminal" x="467" y="453">WITH</text>
   <rect x="337" y="533" width="108" height="32"/>
   <rect x="335" y="531" width="108" height="32" class="nonterminal"/>
   <text class="nonterminal" x="345" y="551">column_count</text>
   <rect x="465" y="533" width="90" height="32" rx="10"/>
   <rect x="463"
         y="531"
         width="90"
         height="32"
         class="terminal"
         rx="10"/>
   <text class="terminal" x="473" y="551">COLUMNS</text>
   <path class="line"
         d="m17 17 h2 m0 0 h10 m74 0 h10 m20 0 h10 m0 0 h130 m-160 0 h20 m140 0 h20 m-180 0 q10 0 10 10 m160 0 q0 -10 10 -10 m-170 10 v12 m160 0 v-12 m-160 12 q0 10 10 10 m140 0 q10 0 10 -10 m-150 10 h10 m120 0 h10 m20 -32 h10 m78 0 h10 m20 0 h10 m0 0 h128 m-158 0 h20 m138 0 h20 m-178 0 q10 0 10 10 m158 0 q0 -10 10 -10 m-168 10 v12 m158 0 v-12 m-158 12 q0 10 10 10 m138 0 q10 0 10 -10 m-148 10 h10 m118 0 h10 m22 -32 l2 0 m2 0 l2 0 m2 0 l2 0 m-486 142 l2 0 m2 0 l2 0 m2 0 l2 0 m2 0 h10 m80 0 h10 m20 0 h10 m24 0 h10 m20 0 h10 m80 0 h10 m-120 0 l20 0 m-1 0 q-9 0 -9 -10 l0 -24 q0 -10 10 -10 m100 44 l20 0 m-20 0 q10 0 10 -10 l0 -24 q0 -10 -10 -10 m-100 0 h10 m24 0 h10 m0 0 h56 m20 44 h10 m24 0 h10 m-248 0 h20 m228 0 h20 m-268 0 q10 0 10 10 m248 0 q0 -10 10 -10 m-258 10 v14 m248 0 v-14 m-248 14 q0 10 10 10 m228 0 q10 0 10 -10 m-238 10 h10 m0 0 h218 m22 -34 l2 0 m2 0 l2 0 m2 0 l2 0 m-466 126 l2 0 m2 0 l2 0 m2 0 l2 0 m2 0 h10 m196 0 h10 m20 0 h10 m118 0 h10 m0 0 h10 m102 0 h10 m-280 0 l20 0 m-1 0 q-9 0 -9 -10 l0 -24 q0 -10 10 -10 m260 44 l20 0 m-20 0 q10 0 10 -10 l0 -24 q0 -10 -10 -10 m-260 0 h10 m24 0 h10 m0 0 h216 m22 44 l2 0 m2 0 l2 0 m2 0 l2 0 m-545 66 l2 0 m2 0 l2 0 m2 0 l2 0 m22 0 h10 m0 0 h188 m-218 0 h20 m198 0 h20 m-238 0 q10 0 10 10 m218 0 q0 -10 10 -10 m-228 10 v12 m218 0 v-12 m-218 12 q0 10 10 10 m198 0 q10 0 10 -10 m-208 10 h10 m94 0 h10 m0 0 h10 m64 0 h10 m20 -32 h10 m56 0 h10 m0 0 h10 m24 0 h10 m0 0 h10 m70 0 h10 m0 0 h10 m58 0 h10 m2 0 l2 0 m2 0 l2 0 m2 0 l2 0 m-519 98 l2 0 m2 0 l2 0 m2 0 l2 0 m22 0 h10 m0 0 h128 m-158 0 h20 m138 0 h20 m-178 0 q10 0 10 10 m158 0 q0 -10 10 -10 m-168 10 v12 m158 0 v-12 m-158 12 q0 10 10 10 m138 0 q10 0 10 -10 m-148 10 h10 m118 0 h10 m20 -32 h10 m24 0 h10 m0 0 h10 m78 0 h10 m0 0 h10 m48 0 h10 m0 0 h10 m56 0 h10 m2 0 l2 0 m2 0 l2 0 m2 0 l2 0 m-222 98 l2 0 m2 0 l2 0 m2 0 l2 0 m2 0 h10 m108 0 h10 m0 0 h10 m90 0 h10 m3 0 h-3"/>
   <polygon points="573 547 581 543 581 551"/>
   <polygon points="573 547 565 543 565 551"/>
</svg>
