<svg xmlns="http://www.w3.org/2000/svg" width="437" height="69">
   <polygon points="9 17 1 13 1 21"/>
   <polygon points="17 17 9 13 9 21"/>
   <rect x="31" y="3" width="76" height="32" rx="10"/>
   <rect x="29"
         y="1"
         width="76"
         height="32"
         class="terminal"
         rx="10"/>
   <text class="terminal" x="39" y="21">CREATE</text>
   <rect x="127" y="3" width="56" height="32" rx="10"/>
   <rect x="125"
         y="1"
         width="56"
         height="32"
         class="terminal"
         rx="10"/>
   <text class="terminal" x="135" y="21">ROLE</text>
   <rect x="203" y="3" width="88" height="32"/>
   <rect x="201" y="1" width="88" height="32" class="nonterminal"/>
   <text class="nonterminal" x="211" y="21">role_name</text>
   <rect x="331" y="35" width="58" height="32" rx="10"/>
   <rect x="329"
         y="33"
         width="58"
         height="32"
         class="terminal"
         rx="10"/>
   <text class="terminal" x="339" y="53">WITH</text>
   <path class="line"
         d="m17 17 h2 m0 0 h10 m76 0 h10 m0 0 h10 m56 0 h10 m0 0 h10 m88 0 h10 m20 0 h10 m0 0 h68 m-98 0 h20 m78 0 h20 m-118 0 q10 0 10 10 m98 0 q0 -10 10 -10 m-108 10 v12 m98 0 v-12 m-98 12 q0 10 10 10 m78 0 q10 0 10 -10 m-88 10 h10 m58 0 h10 m23 -32 h-3"/>
   <polygon points="427 17 435 13 435 21"/>
   <polygon points="427 17 419 13 419 21"/>
</svg>
