<svg xmlns="http://www.w3.org/2000/svg" width="837" height="1081">
   <polygon points="9 17 1 13 1 21"/>
   <polygon points="17 17 9 13 9 21"/>
   <rect x="31" y="3" width="76" height="32" rx="10"/>
   <rect x="29"
         y="1"
         width="76"
         height="32"
         class="terminal"
         rx="10"/>
   <text class="terminal" x="39" y="21">CREATE</text>
   <rect x="147" y="35" width="124" height="32" rx="10"/>
   <rect x="145"
         y="33"
         width="124"
         height="32"
         class="terminal"
         rx="10"/>
   <text class="terminal" x="155" y="53">MATERIALIZED</text>
   <rect x="311" y="3" width="78" height="32" rx="10"/>
   <rect x="309"
         y="1"
         width="78"
         height="32"
         class="terminal"
         rx="10"/>
   <text class="terminal" x="319" y="21">SOURCE</text>
   <rect x="429" y="35" width="120" height="32" rx="10"/>
   <rect x="427"
         y="33"
         width="120"
         height="32"
         class="terminal"
         rx="10"/>
   <text class="terminal" x="437" y="53">IF NOT EXISTS</text>
   <rect x="379" y="101" width="82" height="32"/>
   <rect x="377" y="99" width="82" height="32" class="nonterminal"/>
   <text class="nonterminal" x="387" y="119">src_name</text>
   <rect x="163" y="211" width="26" height="32" rx="10"/>
   <rect x="161"
         y="209"
         width="26"
         height="32"
         class="terminal"
         rx="10"/>
   <text class="terminal" x="171" y="229">(</text>
   <rect x="229" y="211" width="82" height="32"/>
   <rect x="227" y="209" width="82" height="32" class="nonterminal"/>
   <text class="nonterminal" x="237" y="229">col_name</text>
   <rect x="229" y="167" width="24" height="32" rx="10"/>
   <rect x="227"
         y="165"
         width="24"
         height="32"
         class="terminal"
         rx="10"/>
   <text class="terminal" x="237" y="185">,</text>
   <rect x="371" y="243" width="24" height="32" rx="10"/>
   <rect x="369"
         y="241"
         width="24"
         height="32"
         class="terminal"
         rx="10"/>
   <text class="terminal" x="379" y="261">,</text>
   <rect x="415" y="243" width="116" height="32"/>
   <rect x="413" y="241" width="116" height="32" class="nonterminal"/>
   <text class="nonterminal" x="423" y="261">key_constraint</text>
   <rect x="571" y="211" width="26" height="32" rx="10"/>
   <rect x="569"
         y="209"
         width="26"
         height="32"
         class="terminal"
         rx="10"/>
   <text class="terminal" x="579" y="229">)</text>
   <rect x="637" y="211" width="60" height="32" rx="10"/>
   <rect x="635"
         y="209"
         width="60"
         height="32"
         class="terminal"
         rx="10"/>
   <text class="terminal" x="645" y="229">FROM</text>
   <rect x="142" y="325" width="130" height="32" rx="10"/>
   <rect x="140"
         y="323"
         width="130"
         height="32"
         class="terminal"
         rx="10"/>
   <text class="terminal" x="150" y="343">KAFKA BROKER</text>
   <rect x="292" y="325" width="48" height="32"/>
   <rect x="290" y="323" width="48" height="32" class="nonterminal"/>
   <text class="nonterminal" x="300" y="343">host</text>
   <rect x="360" y="325" width="64" height="32" rx="10"/>
   <rect x="358"
         y="323"
         width="64"
         height="32"
         class="terminal"
         rx="10"/>
   <text class="terminal" x="368" y="343">TOPIC</text>
   <rect x="464" y="357" width="52" height="32"/>
   <rect x="462" y="355" width="52" height="32" class="nonterminal"/>
   <text class="nonterminal" x="472" y="375">topic</text>
   <rect x="576" y="357" width="102" height="32"/>
   <rect x="574" y="355" width="102" height="32" class="nonterminal"/>
   <text class="nonterminal" x="584" y="375">with_options</text>
   <rect x="226" y="423" width="114" height="32" rx="10"/>
   <rect x="224"
         y="421"
         width="114"
         height="32"
         class="terminal"
         rx="10"/>
   <text class="terminal" x="234" y="441">KEY FORMAT</text>
   <rect x="360" y="423" width="102" height="32"/>
   <rect x="358" y="421" width="102" height="32" class="nonterminal"/>
   <text class="nonterminal" x="368" y="441">format_spec</text>
   <rect x="482" y="423" width="132" height="32" rx="10"/>
   <rect x="480"
         y="421"
         width="132"
         height="32"
         class="terminal"
         rx="10"/>
   <text class="terminal" x="490" y="441">VALUE FORMAT</text>
   <rect x="226" y="467" width="80" height="32" rx="10"/>
   <rect x="224"
         y="465"
         width="80"
         height="32"
         class="terminal"
         rx="10"/>
   <text class="terminal" x="234" y="485">FORMAT</text>
   <rect x="45" y="577" width="92" height="32" rx="10"/>
   <rect x="43"
         y="575"
         width="92"
         height="32"
         class="terminal"
         rx="10"/>
   <text class="terminal" x="53" y="595">CSV WITH</text>
   <rect x="177" y="577" width="78" height="32" rx="10"/>
   <rect x="175"
         y="575"
         width="78"
         height="32"
         class="terminal"
         rx="10"/>
   <text class="terminal" x="185" y="595">HEADER</text>
   <rect x="295" y="577" width="26" height="32" rx="10"/>
   <rect x="293"
         y="575"
         width="26"
         height="32"
         class="terminal"
         rx="10"/>
   <text class="terminal" x="303" y="595">(</text>
   <rect x="361" y="577" width="82" height="32"/>
   <rect x="359" y="575" width="82" height="32" class="nonterminal"/>
   <text class="nonterminal" x="369" y="595">col_name</text>
   <rect x="361" y="533" width="24" height="32" rx="10"/>
   <rect x="359"
         y="531"
         width="24"
         height="32"
         class="terminal"
         rx="10"/>
   <text class="terminal" x="369" y="551">,</text>
   <rect x="483" y="577" width="26" height="32" rx="10"/>
   <rect x="481"
         y="575"
         width="26"
         height="32"
         class="terminal"
         rx="10"/>
   <text class="terminal" x="491" y="595">)</text>
   <rect x="177" y="643" width="28" height="32"/>
   <rect x="175" y="641" width="28" height="32" class="nonterminal"/>
   <text class="nonterminal" x="185" y="661">n</text>
   <rect x="225" y="643" width="92" height="32" rx="10"/>
   <rect x="223"
         y="641"
         width="92"
         height="32"
         class="terminal"
         rx="10"/>
   <text class="terminal" x="233" y="661">COLUMNS</text>
   <rect x="589" y="609" width="118" height="32" rx="10"/>
   <rect x="587"
         y="607"
         width="118"
         height="32"
         class="terminal"
         rx="10"/>
   <text class="terminal" x="597" y="627">DELIMITED BY</text>
   <rect x="727" y="609" width="48" height="32"/>
   <rect x="725" y="607" width="48" height="32" class="nonterminal"/>
   <text class="nonterminal" x="735" y="627">char</text>
   <rect x="45" y="687" width="102" height="32"/>
   <rect x="43" y="685" width="102" height="32" class="nonterminal"/>
   <text class="nonterminal" x="53" y="705">format_spec</text>
   <rect x="188" y="769" width="82" height="32" rx="10"/>
   <rect x="186"
         y="767"
         width="82"
         height="32"
         class="terminal"
         rx="10"/>
   <text class="terminal" x="196" y="787">INCLUDE</text>
   <rect x="330" y="769" width="48" height="32" rx="10"/>
   <rect x="328"
         y="767"
         width="48"
         height="32"
         class="terminal"
         rx="10"/>
   <text class="terminal" x="338" y="787">KEY</text>
   <rect x="330" y="813" width="96" height="32" rx="10"/>
   <rect x="328"
         y="811"
         width="96"
         height="32"
         class="terminal"
         rx="10"/>
   <text class="terminal" x="338" y="831">PARTITION</text>
   <rect x="330" y="857" width="74" height="32" rx="10"/>
   <rect x="328"
         y="855"
         width="74"
         height="32"
         class="terminal"
         rx="10"/>
   <text class="terminal" x="338" y="875">OFFSET</text>
   <rect x="330" y="901" width="106" height="32" rx="10"/>
   <rect x="328"
         y="899"
         width="106"
         height="32"
         class="terminal"
         rx="10"/>
   <text class="terminal" x="338" y="919">TIMESTAMP</text>
   <rect x="496" y="801" width="40" height="32" rx="10"/>
   <rect x="494"
         y="799"
         width="40"
         height="32"
         class="terminal"
         rx="10"/>
   <text class="terminal" x="504" y="819">AS</text>
   <rect x="556" y="801" width="56" height="32"/>
   <rect x="554" y="799" width="56" height="32" class="nonterminal"/>
   <text class="nonterminal" x="564" y="819">name</text>
   <rect x="559" y="1003" width="94" height="32" rx="10"/>
   <rect x="557"
         y="1001"
         width="94"
         height="32"
         class="terminal"
         rx="10"/>
   <text class="terminal" x="567" y="1021">ENVELOPE</text>
   <rect x="693" y="1003" width="60" height="32" rx="10"/>
   <rect x="691"
         y="1001"
         width="60"
         height="32"
         class="terminal"
         rx="10"/>
   <text class="terminal" x="701" y="1021">NONE</text>
   <rect x="693" y="1047" width="76" height="32" rx="10"/>
   <rect x="691"
         y="1045"
         width="76"
         height="32"
         class="terminal"
         rx="10"/>
   <text class="terminal" x="701" y="1065">UPSERT</text>
   <path class="line"
         d="m17 17 h2 m0 0 h10 m76 0 h10 m20 0 h10 m0 0 h134 m-164 0 h20 m144 0 h20 m-184 0 q10 0 10 10 m164 0 q0 -10 10 -10 m-174 10 v12 m164 0 v-12 m-164 12 q0 10 10 10 m144 0 q10 0 10 -10 m-154 10 h10 m124 0 h10 m20 -32 h10 m78 0 h10 m20 0 h10 m0 0 h130 m-160 0 h20 m140 0 h20 m-180 0 q10 0 10 10 m160 0 q0 -10 10 -10 m-170 10 v12 m160 0 v-12 m-160 12 q0 10 10 10 m140 0 q10 0 10 -10 m-150 10 h10 m120 0 h10 m22 -32 l2 0 m2 0 l2 0 m2 0 l2 0 m-234 98 l2 0 m2 0 l2 0 m2 0 l2 0 m2 0 h10 m82 0 h10 m2 0 l2 0 m2 0 l2 0 m2 0 l2 0 m-362 110 l2 0 m2 0 l2 0 m2 0 l2 0 m22 0 h10 m26 0 h10 m20 0 h10 m82 0 h10 m-122 0 l20 0 m-1 0 q-9 0 -9 -10 l0 -24 q0 -10 10 -10 m102 44 l20 0 m-20 0 q10 0 10 -10 l0 -24 q0 -10 -10 -10 m-102 0 h10 m24 0 h10 m0 0 h58 m40 44 h10 m0 0 h170 m-200 0 h20 m180 0 h20 m-220 0 q10 0 10 10 m200 0 q0 -10 10 -10 m-210 10 v12 m200 0 v-12 m-200 12 q0 10 10 10 m180 0 q10 0 10 -10 m-190 10 h10 m24 0 h10 m0 0 h10 m116 0 h10 m20 -32 h10 m26 0 h10 m-474 0 h20 m454 0 h20 m-494 0 q10 0 10 10 m474 0 q0 -10 10 -10 m-484 10 v46 m474 0 v-46 m-474 46 q0 10 10 10 m454 0 q10 0 10 -10 m-464 10 h10 m0 0 h444 m20 -66 h10 m60 0 h10 m2 0 l2 0 m2 0 l2 0 m2 0 l2 0 m-599 114 l2 0 m2 0 l2 0 m2 0 l2 0 m2 0 h10 m130 0 h10 m0 0 h10 m48 0 h10 m0 0 h10 m64 0 h10 m20 0 h10 m0 0 h62 m-92 0 h20 m72 0 h20 m-112 0 q10 0 10 10 m92 0 q0 -10 10 -10 m-102 10 v12 m92 0 v-12 m-92 12 q0 10 10 10 m72 0 q10 0 10 -10 m-82 10 h10 m52 0 h10 m40 -32 h10 m0 0 h112 m-142 0 h20 m122 0 h20 m-162 0 q10 0 10 10 m142 0 q0 -10 10 -10 m-152 10 v12 m142 0 v-12 m-142 12 q0 10 10 10 m122 0 q10 0 10 -10 m-132 10 h10 m102 0 h10 m22 -32 l2 0 m2 0 l2 0 m2 0 l2 0 m-536 98 l2 0 m2 0 l2 0 m2 0 l2 0 m22 0 h10 m114 0 h10 m0 0 h10 m102 0 h10 m0 0 h10 m132 0 h10 m-428 0 h20 m408 0 h20 m-448 0 q10 0 10 10 m428 0 q0 -10 10 -10 m-438 10 v24 m428 0 v-24 m-428 24 q0 10 10 10 m408 0 q10 0 10 -10 m-418 10 h10 m80 0 h10 m0 0 h308 m22 -44 l2 0 m2 0 l2 0 m2 0 l2 0 m-653 154 l2 0 m2 0 l2 0 m2 0 l2 0 m22 0 h10 m92 0 h10 m20 0 h10 m78 0 h10 m20 0 h10 m26 0 h10 m20 0 h10 m82 0 h10 m-122 0 l20 0 m-1 0 q-9 0 -9 -10 l0 -24 q0 -10 10 -10 m102 44 l20 0 m-20 0 q10 0 10 -10 l0 -24 q0 -10 -10 -10 m-102 0 h10 m24 0 h10 m0 0 h58 m20 44 h10 m26 0 h10 m-254 0 h20 m234 0 h20 m-274 0 q10 0 10 10 m254 0 q0 -10 10 -10 m-264 10 v14 m254 0 v-14 m-254 14 q0 10 10 10 m234 0 q10 0 10 -10 m-244 10 h10 m0 0 h224 m-372 -34 h20 m372 0 h20 m-412 0 q10 0 10 10 m392 0 q0 -10 10 -10 m-402 10 v46 m392 0 v-46 m-392 46 q0 10 10 10 m372 0 q10 0 10 -10 m-382 10 h10 m28 0 h10 m0 0 h10 m92 0 h10 m0 0 h212 m40 -66 h10 m0 0 h196 m-226 0 h20 m206 0 h20 m-246 0 q10 0 10 10 m226 0 q0 -10 10 -10 m-236 10 v12 m226 0 v-12 m-226 12 q0 10 10 10 m206 0 q10 0 10 -10 m-216 10 h10 m118 0 h10 m0 0 h10 m48 0 h10 m-770 -32 h20 m770 0 h20 m-810 0 q10 0 10 10 m790 0 q0 -10 10 -10 m-800 10 v90 m790 0 v-90 m-790 90 q0 10 10 10 m770 0 q10 0 10 -10 m-780 10 h10 m102 0 h10 m0 0 h648 m22 -110 l2 0 m2 0 l2 0 m2 0 l2 0 m-691 192 l2 0 m2 0 l2 0 m2 0 l2 0 m22 0 h10 m82 0 h10 m40 0 h10 m48 0 h10 m0 0 h58 m-146 0 h20 m126 0 h20 m-166 0 q10 0 10 10 m146 0 q0 -10 10 -10 m-156 10 v24 m146 0 v-24 m-146 24 q0 10 10 10 m126 0 q10 0 10 -10 m-136 10 h10 m96 0 h10 m0 0 h10 m-136 -10 v20 m146 0 v-20 m-146 20 v24 m146 0 v-24 m-146 24 q0 10 10 10 m126 0 q10 0 10 -10 m-136 10 h10 m74 0 h10 m0 0 h32 m-136 -10 v20 m146 0 v-20 m-146 20 v24 m146 0 v-24 m-146 24 q0 10 10 10 m126 0 q10 0 10 -10 m-136 10 h10 m106 0 h10 m40 -132 h10 m0 0 h126 m-156 0 h20 m136 0 h20 m-176 0 q10 0 10 10 m156 0 q0 -10 10 -10 m-166 10 v12 m156 0 v-12 m-156 12 q0 10 10 10 m136 0 q10 0 10 -10 m-146 10 h10 m40 0 h10 m0 0 h10 m56 0 h10 m-342 -32 l20 0 m-1 0 q-9 0 -9 -10 l0 -12 q0 -10 10 -10 m342 32 l20 0 m-20 0 q10 0 10 -10 l0 -12 q0 -10 -10 -10 m-342 0 h10 m0 0 h332 m-484 32 h20 m484 0 h20 m-524 0 q10 0 10 10 m504 0 q0 -10 10 -10 m-514 10 v146 m504 0 v-146 m-504 146 q0 10 10 10 m484 0 q10 0 10 -10 m-494 10 h10 m0 0 h474 m22 -166 l2 0 m2 0 l2 0 m2 0 l2 0 m-177 202 l2 0 m2 0 l2 0 m2 0 l2 0 m22 0 h10 m0 0 h240 m-270 0 h20 m250 0 h20 m-290 0 q10 0 10 10 m270 0 q0 -10 10 -10 m-280 10 v12 m270 0 v-12 m-270 12 q0 10 10 10 m250 0 q10 0 10 -10 m-260 10 h10 m94 0 h10 m20 0 h10 m60 0 h10 m0 0 h16 m-116 0 h20 m96 0 h20 m-136 0 q10 0 10 10 m116 0 q0 -10 10 -10 m-126 10 v24 m116 0 v-24 m-116 24 q0 10 10 10 m96 0 q10 0 10 -10 m-106 10 h10 m76 0 h10 m43 -76 h-3"/>
   <polygon points="827 985 835 981 835 989"/>
   <polygon points="827 985 819 981 819 989"/>
</svg>
