<svg xmlns="http://www.w3.org/2000/svg" width="555" height="179">
   <polygon points="9 17 1 13 1 21"/>
   <polygon points="17 17 9 13 9 21"/>
   <rect x="31" y="3" width="74" height="32" rx="10"/>
   <rect x="29"
         y="1"
         width="74"
         height="32"
         class="terminal"
         rx="10"/>
   <text class="terminal" x="39" y="21">CREATE</text>
   <rect x="145" y="35" width="58" height="32" rx="10"/>
   <rect x="143"
         y="33"
         width="58"
         height="32"
         class="terminal"
         rx="10"/>
   <text class="terminal" x="153" y="53">TEMP</text>
   <rect x="145" y="79" width="106" height="32" rx="10"/>
   <rect x="143"
         y="77"
         width="106"
         height="32"
         class="terminal"
         rx="10"/>
   <text class="terminal" x="153" y="97">TEMPORARY</text>
   <rect x="291" y="3" width="64" height="32" rx="10"/>
   <rect x="289"
         y="1"
         width="64"
         height="32"
         class="terminal"
         rx="10"/>
   <text class="terminal" x="299" y="21">VIEWS</text>
   <rect x="395" y="35" width="118" height="32" rx="10"/>
   <rect x="393"
         y="33"
         width="118"
         height="32"
         class="terminal"
         rx="10"/>
   <text class="terminal" x="403" y="53">IF NOT EXISTS</text>
   <rect x="269" y="145" width="60" height="32" rx="10"/>
   <rect x="267"
         y="143"
         width="60"
         height="32"
         class="terminal"
         rx="10"/>
   <text class="terminal" x="277" y="163">FROM</text>
   <rect x="349" y="145" width="78" height="32" rx="10"/>
   <rect x="347"
         y="143"
         width="78"
         height="32"
         class="terminal"
         rx="10"/>
   <text class="terminal" x="357" y="163">SOURCE</text>
   <rect x="447" y="145" width="80" height="32"/>
   <rect x="445" y="143" width="80" height="32" class="nonterminal"/>
   <text class="nonterminal" x="455" y="163">src_name</text>
   <path class="line"
         d="m17 17 h2 m0 0 h10 m74 0 h10 m20 0 h10 m0 0 h116 m-146 0 h20 m126 0 h20 m-166 0 q10 0 10 10 m146 0 q0 -10 10 -10 m-156 10 v12 m146 0 v-12 m-146 12 q0 10 10 10 m126 0 q10 0 10 -10 m-136 10 h10 m58 0 h10 m0 0 h48 m-136 -10 v20 m146 0 v-20 m-146 20 v24 m146 0 v-24 m-146 24 q0 10 10 10 m126 0 q10 0 10 -10 m-136 10 h10 m106 0 h10 m20 -76 h10 m64 0 h10 m20 0 h10 m0 0 h128 m-158 0 h20 m138 0 h20 m-178 0 q10 0 10 10 m158 0 q0 -10 10 -10 m-168 10 v12 m158 0 v-12 m-158 12 q0 10 10 10 m138 0 q10 0 10 -10 m-148 10 h10 m118 0 h10 m22 -32 l2 0 m2 0 l2 0 m2 0 l2 0 m-308 142 l2 0 m2 0 l2 0 m2 0 l2 0 m2 0 h10 m60 0 h10 m0 0 h10 m78 0 h10 m0 0 h10 m80 0 h10 m3 0 h-3"/>
   <polygon points="545 159 553 155 553 163"/>
   <polygon points="545 159 537 155 537 163"/>
</svg>
