<svg xmlns="http://www.w3.org/2000/svg" width="401" height="81">
   <polygon points="9 61 1 57 1 65"/>
   <polygon points="17 61 9 57 9 65"/>
   <rect x="31" y="47" width="86" height="32" rx="10"/>
   <rect x="29"
         y="45"
         width="86"
         height="32"
         class="terminal"
         rx="10"/>
   <text class="terminal" x="39" y="65">BROKERS</text>
   <rect x="137" y="47" width="26" height="32" rx="10"/>
   <rect x="135"
         y="45"
         width="26"
         height="32"
         class="terminal"
         rx="10"/>
   <text class="terminal" x="145" y="65">(</text>
   <rect x="203" y="47" width="104" height="32"/>
   <rect x="201" y="45" width="104" height="32" class="nonterminal"/>
   <text class="nonterminal" x="211" y="65">kafka_broker</text>
   <rect x="203" y="3" width="24" height="32" rx="10"/>
   <rect x="201"
         y="1"
         width="24"
         height="32"
         class="terminal"
         rx="10"/>
   <text class="terminal" x="211" y="21">,</text>
   <rect x="347" y="47" width="26" height="32" rx="10"/>
   <rect x="345"
         y="45"
         width="26"
         height="32"
         class="terminal"
         rx="10"/>
   <text class="terminal" x="355" y="65">)</text>
   <path class="line"
         d="m17 61 h2 m0 0 h10 m86 0 h10 m0 0 h10 m26 0 h10 m20 0 h10 m104 0 h10 m-144 0 l20 0 m-1 0 q-9 0 -9 -10 l0 -24 q0 -10 10 -10 m124 44 l20 0 m-20 0 q10 0 10 -10 l0 -24 q0 -10 -10 -10 m-124 0 h10 m24 0 h10 m0 0 h80 m20 44 h10 m26 0 h10 m3 0 h-3"/>
   <polygon points="391 61 399 57 399 65"/>
   <polygon points="391 61 383 57 383 65"/>
</svg>
