<svg xmlns="http://www.w3.org/2000/svg" width="539" height="475">
   <polygon points="9 17 1 13 1 21"/>
   <polygon points="17 17 9 13 9 21"/>
   <rect x="31" y="3" width="136" height="32" rx="10"/>
   <rect x="29"
         y="1"
         width="136"
         height="32"
         class="terminal"
         rx="10"/>
   <text class="terminal" x="39" y="21">CREATE SOURCE</text>
   <rect x="207" y="35" width="118" height="32" rx="10"/>
   <rect x="205"
         y="33"
         width="118"
         height="32"
         class="terminal"
         rx="10"/>
   <text class="terminal" x="215" y="53">IF NOT EXISTS</text>
   <a xmlns:xlink="http://www.w3.org/1999/xlink"
      xlink:href="#src_name"
      xlink:title="src_name">
      <rect x="365" y="3" width="80" height="32"/>
      <rect x="363" y="1" width="80" height="32" class="nonterminal"/>
      <text class="nonterminal" x="373" y="21">src_name</text>
   </a>
   <rect x="59" y="145" width="24" height="32" rx="10"/>
   <rect x="57"
         y="143"
         width="24"
         height="32"
         class="terminal"
         rx="10"/>
   <text class="terminal" x="67" y="163">(</text>
   <a xmlns:xlink="http://www.w3.org/1999/xlink"
      xlink:href="#col_name"
      xlink:title="col_name">
      <rect x="123" y="145" width="80" height="32"/>
      <rect x="121" y="143" width="80" height="32" class="nonterminal"/>
      <text class="nonterminal" x="131" y="163">col_name</text>
   </a>
   <rect x="123" y="101" width="24" height="32" rx="10"/>
   <rect x="121"
         y="99"
         width="24"
         height="32"
         class="terminal"
         rx="10"/>
   <text class="terminal" x="131" y="119">,</text>
   <rect x="243" y="145" width="24" height="32" rx="10"/>
   <rect x="241"
         y="143"
         width="24"
         height="32"
         class="terminal"
         rx="10"/>
   <text class="terminal" x="251" y="163">)</text>
   <rect x="307" y="145" width="60" height="32" rx="10"/>
   <rect x="305"
         y="143"
         width="60"
         height="32"
         class="terminal"
         rx="10"/>
   <text class="terminal" x="315" y="163">FROM</text>
   <rect x="387" y="145" width="48" height="32" rx="10"/>
   <rect x="385"
         y="143"
         width="48"
         height="32"
         class="terminal"
         rx="10"/>
   <text class="terminal" x="395" y="163">FILE</text>
   <a xmlns:xlink="http://www.w3.org/1999/xlink"
      xlink:href="#path"
      xlink:title="path">
      <rect x="455" y="145" width="48" height="32"/>
      <rect x="453" y="143" width="48" height="32" class="nonterminal"/>
      <text class="nonterminal" x="463" y="163">path</text>
   </a>
   <rect x="45" y="271" width="56" height="32" rx="10"/>
   <rect x="43"
         y="269"
         width="56"
         height="32"
         class="terminal"
         rx="10"/>
   <text class="terminal" x="53" y="289">WITH</text>
   <rect x="121" y="271" width="24" height="32" rx="10"/>
   <rect x="119"
         y="269"
         width="24"
         height="32"
         class="terminal"
         rx="10"/>
   <text class="terminal" x="129" y="289">(</text>
   <a xmlns:xlink="http://www.w3.org/1999/xlink"
      xlink:href="#field"
      xlink:title="field">
      <rect x="185" y="271" width="46" height="32"/>
      <rect x="183" y="269" width="46" height="32" class="nonterminal"/>
      <text class="nonterminal" x="193" y="289">field</text>
   </a>
   <rect x="251" y="271" width="26" height="32" rx="10"/>
   <rect x="249"
         y="269"
         width="26"
         height="32"
         class="terminal"
         rx="10"/>
   <text class="terminal" x="259" y="289">=</text>
   <a xmlns:xlink="http://www.w3.org/1999/xlink"
      xlink:href="#val"
      xlink:title="val">
      <rect x="297" y="271" width="38" height="32"/>
      <rect x="295" y="269" width="38" height="32" class="nonterminal"/>
      <text class="nonterminal" x="305" y="289">val</text>
   </a>
   <rect x="185" y="227" width="24" height="32" rx="10"/>
   <rect x="183"
         y="225"
         width="24"
         height="32"
         class="terminal"
         rx="10"/>
   <text class="terminal" x="193" y="245">,</text>
   <rect x="375" y="271" width="24" height="32" rx="10"/>
   <rect x="373"
         y="269"
         width="24"
         height="32"
         class="terminal"
         rx="10"/>
   <text class="terminal" x="383" y="289">)</text>
   <rect x="439" y="271" width="78" height="32" rx="10"/>
   <rect x="437"
         y="269"
         width="78"
         height="32"
         class="terminal"
         rx="10"/>
   <text class="terminal" x="447" y="289">FORMAT</text>
   <rect x="351" y="353" width="66" height="32" rx="10"/>
   <rect x="349"
         y="351"
         width="66"
         height="32"
         class="terminal"
         rx="10"/>
   <text class="terminal" x="359" y="371">REGEX</text>
   <a xmlns:xlink="http://www.w3.org/1999/xlink"
      xlink:href="#regex"
      xlink:title="regex">
      <rect x="437" y="353" width="54" height="32"/>
      <rect x="435" y="351" width="54" height="32" class="nonterminal"/>
      <text class="nonterminal" x="445" y="371">regex</text>
   </a>
   <rect x="351" y="397" width="54" height="32" rx="10"/>
   <rect x="349"
         y="395"
         width="54"
         height="32"
         class="terminal"
         rx="10"/>
   <text class="terminal" x="359" y="415">TEXT</text>
   <rect x="351" y="441" width="64" height="32" rx="10"/>
   <rect x="349"
         y="439"
         width="64"
         height="32"
         class="terminal"
         rx="10"/>
   <text class="terminal" x="359" y="459">BYTES</text>
   <path class="line"
         d="m17 17 h2 m0 0 h10 m136 0 h10 m20 0 h10 m0 0 h128 m-158 0 h20 m138 0 h20 m-178 0 q10 0 10 10 m158 0 q0 -10 10 -10 m-168 10 v12 m158 0 v-12 m-158 12 q0 10 10 10 m138 0 q10 0 10 -10 m-148 10 h10 m118 0 h10 m20 -32 h10 m80 0 h10 m2 0 l2 0 m2 0 l2 0 m2 0 l2 0 m-450 142 l2 0 m2 0 l2 0 m2 0 l2 0 m22 0 h10 m24 0 h10 m20 0 h10 m80 0 h10 m-120 0 l20 0 m-1 0 q-9 0 -9 -10 l0 -24 q0 -10 10 -10 m100 44 l20 0 m-20 0 q10 0 10 -10 l0 -24 q0 -10 -10 -10 m-100 0 h10 m24 0 h10 m0 0 h56 m20 44 h10 m24 0 h10 m-248 0 h20 m228 0 h20 m-268 0 q10 0 10 10 m248 0 q0 -10 10 -10 m-258 10 v14 m248 0 v-14 m-248 14 q0 10 10 10 m228 0 q10 0 10 -10 m-238 10 h10 m0 0 h218 m20 -34 h10 m60 0 h10 m0 0 h10 m48 0 h10 m0 0 h10 m48 0 h10 m2 0 l2 0 m2 0 l2 0 m2 0 l2 0 m-522 126 l2 0 m2 0 l2 0 m2 0 l2 0 m22 0 h10 m56 0 h10 m0 0 h10 m24 0 h10 m20 0 h10 m46 0 h10 m0 0 h10 m26 0 h10 m0 0 h10 m38 0 h10 m-190 0 l20 0 m-1 0 q-9 0 -9 -10 l0 -24 q0 -10 10 -10 m170 44 l20 0 m-20 0 q10 0 10 -10 l0 -24 q0 -10 -10 -10 m-170 0 h10 m24 0 h10 m0 0 h126 m20 44 h10 m24 0 h10 m-394 0 h20 m374 0 h20 m-414 0 q10 0 10 10 m394 0 q0 -10 10 -10 m-404 10 v14 m394 0 v-14 m-394 14 q0 10 10 10 m374 0 q10 0 10 -10 m-384 10 h10 m0 0 h364 m20 -34 h10 m78 0 h10 m2 0 l2 0 m2 0 l2 0 m2 0 l2 0 m-230 82 l2 0 m2 0 l2 0 m2 0 l2 0 m22 0 h10 m66 0 h10 m0 0 h10 m54 0 h10 m-180 0 h20 m160 0 h20 m-200 0 q10 0 10 10 m180 0 q0 -10 10 -10 m-190 10 v24 m180 0 v-24 m-180 24 q0 10 10 10 m160 0 q10 0 10 -10 m-170 10 h10 m54 0 h10 m0 0 h86 m-170 -10 v20 m180 0 v-20 m-180 20 v24 m180 0 v-24 m-180 24 q0 10 10 10 m160 0 q10 0 10 -10 m-170 10 h10 m64 0 h10 m0 0 h76 m23 -88 h-3"/>
   <polygon points="529 367 537 363 537 371"/>
   <polygon points="529 367 521 363 521 371"/>
</svg>
