<svg xmlns="http://www.w3.org/2000/svg" width="851" height="229">
   <polygon points="11 17 3 13 3 21"/>
   <polygon points="19 17 11 13 11 21"/>
   <rect x="33" y="3" width="90" height="32" rx="10"/>
   <rect x="31"
         y="1"
         width="90"
         height="32"
         class="terminal"
         rx="10"/>
   <text class="terminal" x="41" y="21">'host:port'</text>
   <rect x="45" y="113" width="64" height="32" rx="10"/>
   <rect x="43"
         y="111"
         width="64"
         height="32"
         class="terminal"
         rx="10"/>
   <text class="terminal" x="53" y="131">USING</text>
   <rect x="149" y="113" width="54" height="32" rx="10"/>
   <rect x="147"
         y="111"
         width="54"
         height="32"
         class="terminal"
         rx="10"/>
   <text class="terminal" x="157" y="131">AWS</text>
   <rect x="223" y="113" width="112" height="32" rx="10"/>
   <rect x="221"
         y="111"
         width="112"
         height="32"
         class="terminal"
         rx="10"/>
   <text class="terminal" x="231" y="131">PRIVATELINK</text>
   <rect x="355" y="113" width="126" height="32"/>
   <rect x="353" y="111" width="126" height="32" class="nonterminal"/>
   <text class="nonterminal" x="363" y="131">aws_connection</text>
   <rect x="521" y="113" width="26" height="32" rx="10"/>
   <rect x="519"
         y="111"
         width="26"
         height="32"
         class="terminal"
         rx="10"/>
   <text class="terminal" x="529" y="131">(</text>
   <rect x="587" y="113" width="110" height="32"/>
   <rect x="585" y="111" width="110" height="32" class="nonterminal"/>
   <text class="nonterminal" x="595" y="131">broker_option</text>
   <rect x="587" y="69" width="24" height="32" rx="10"/>
   <rect x="585"
         y="67"
         width="24"
         height="32"
         class="terminal"
         rx="10"/>
   <text class="terminal" x="595" y="87">,</text>
   <rect x="737" y="113" width="26" height="32" rx="10"/>
   <rect x="735"
         y="111"
         width="26"
         height="32"
         class="terminal"
         rx="10"/>
   <text class="terminal" x="745" y="131">)</text>
   <rect x="149" y="179" width="48" height="32" rx="10"/>
   <rect x="147"
         y="177"
         width="48"
         height="32"
         class="terminal"
         rx="10"/>
   <text class="terminal" x="157" y="197">SSH</text>
   <rect x="217" y="179" width="76" height="32" rx="10"/>
   <rect x="215"
         y="177"
         width="76"
         height="32"
         class="terminal"
         rx="10"/>
   <text class="terminal" x="225" y="197">TUNNEL</text>
   <rect x="313" y="179" width="122" height="32"/>
   <rect x="311" y="177" width="122" height="32" class="nonterminal"/>
   <text class="nonterminal" x="321" y="197">ssh_connection</text>
   <path class="line"
         d="m19 17 h2 m0 0 h10 m90 0 h10 m2 0 l2 0 m2 0 l2 0 m2 0 l2 0 m-142 110 l2 0 m2 0 l2 0 m2 0 l2 0 m22 0 h10 m64 0 h10 m20 0 h10 m54 0 h10 m0 0 h10 m112 0 h10 m0 0 h10 m126 0 h10 m20 0 h10 m26 0 h10 m20 0 h10 m110 0 h10 m-150 0 l20 0 m-1 0 q-9 0 -9 -10 l0 -24 q0 -10 10 -10 m130 44 l20 0 m-20 0 q10 0 10 -10 l0 -24 q0 -10 -10 -10 m-130 0 h10 m24 0 h10 m0 0 h86 m20 44 h10 m26 0 h10 m-282 0 h20 m262 0 h20 m-302 0 q10 0 10 10 m282 0 q0 -10 10 -10 m-292 10 v14 m282 0 v-14 m-282 14 q0 10 10 10 m262 0 q10 0 10 -10 m-272 10 h10 m0 0 h252 m-654 -34 h20 m654 0 h20 m-694 0 q10 0 10 10 m674 0 q0 -10 10 -10 m-684 10 v46 m674 0 v-46 m-674 46 q0 10 10 10 m654 0 q10 0 10 -10 m-664 10 h10 m48 0 h10 m0 0 h10 m76 0 h10 m0 0 h10 m122 0 h10 m0 0 h348 m-778 -66 h20 m778 0 h20 m-818 0 q10 0 10 10 m798 0 q0 -10 10 -10 m-808 10 v80 m798 0 v-80 m-798 80 q0 10 10 10 m778 0 q10 0 10 -10 m-788 10 h10 m0 0 h768 m23 -100 h-3"/>
   <polygon points="841 127 849 123 849 131"/>
   <polygon points="841 127 833 123 833 131"/>
</svg>
