<svg xmlns="http://www.w3.org/2000/svg" width="587" height="587">
   <polygon points="9 17 1 13 1 21"/>
   <polygon points="17 17 9 13 9 21"/>
   <rect x="31" y="3" width="114" height="32" rx="10"/>
   <rect x="29"
         y="1"
         width="114"
         height="32"
         class="terminal"
         rx="10"/>
   <text class="terminal" x="39" y="21">CREATE SINK</text>
   <rect x="185" y="35" width="120" height="32" rx="10"/>
   <rect x="183"
         y="33"
         width="120"
         height="32"
         class="terminal"
         rx="10"/>
   <text class="terminal" x="193" y="53">IF NOT EXISTS</text>
   <rect x="345" y="3" width="88" height="32"/>
   <rect x="343" y="1" width="88" height="32" class="nonterminal"/>
   <text class="nonterminal" x="353" y="21">sink_name</text>
   <rect x="47" y="133" width="104" height="32" rx="10"/>
   <rect x="45"
         y="131"
         width="104"
         height="32"
         class="terminal"
         rx="10"/>
   <text class="terminal" x="55" y="151">IN CLUSTER</text>
   <rect x="171" y="133" width="108" height="32"/>
   <rect x="169" y="131" width="108" height="32" class="nonterminal"/>
   <text class="nonterminal" x="179" y="151">cluster_name</text>
   <rect x="319" y="101" width="60" height="32" rx="10"/>
   <rect x="317"
         y="99"
         width="60"
         height="32"
         class="terminal"
         rx="10"/>
   <text class="terminal" x="327" y="119">FROM</text>
   <rect x="399" y="101" width="90" height="32"/>
   <rect x="397" y="99" width="90" height="32" class="nonterminal"/>
   <text class="nonterminal" x="407" y="119">item_name</text>
   <rect x="509" y="101" width="54" height="32" rx="10"/>
   <rect x="507"
         y="99"
         width="54"
         height="32"
         class="terminal"
         rx="10"/>
   <text class="terminal" x="517" y="119">INTO</text>
   <rect x="211" y="199" width="168" height="32"/>
   <rect x="209" y="197" width="168" height="32" class="nonterminal"/>
   <text class="nonterminal" x="219" y="217">kafka_sink_connection</text>
   <rect x="51" y="309" width="48" height="32" rx="10"/>
   <rect x="49"
         y="307"
         width="48"
         height="32"
         class="terminal"
         rx="10"/>
   <text class="terminal" x="59" y="327">KEY</text>
   <rect x="119" y="309" width="26" height="32" rx="10"/>
   <rect x="117"
         y="307"
         width="26"
         height="32"
         class="terminal"
         rx="10"/>
   <text class="terminal" x="127" y="327">(</text>
   <rect x="185" y="309" width="98" height="32"/>
   <rect x="183" y="307" width="98" height="32" class="nonterminal"/>
   <text class="nonterminal" x="193" y="327">key_column</text>
   <rect x="185" y="265" width="24" height="32" rx="10"/>
   <rect x="183"
         y="263"
         width="24"
         height="32"
         class="terminal"
         rx="10"/>
   <text class="terminal" x="193" y="283">,</text>
   <rect x="323" y="309" width="26" height="32" rx="10"/>
   <rect x="321"
         y="307"
         width="26"
         height="32"
         class="terminal"
         rx="10"/>
   <text class="terminal" x="331" y="327">)</text>
   <rect x="389" y="341" width="130" height="32" rx="10"/>
   <rect x="387"
         y="339"
         width="130"
         height="32"
         class="terminal"
         rx="10"/>
   <text class="terminal" x="397" y="359">NOT ENFORCED</text>
   <rect x="45" y="455" width="80" height="32" rx="10"/>
   <rect x="43"
         y="453"
         width="80"
         height="32"
         class="terminal"
         rx="10"/>
   <text class="terminal" x="53" y="473">FORMAT</text>
   <rect x="145" y="455" width="134" height="32"/>
   <rect x="143" y="453" width="134" height="32" class="nonterminal"/>
   <text class="nonterminal" x="153" y="473">sink_format_spec</text>
   <rect x="319" y="423" width="94" height="32" rx="10"/>
   <rect x="317"
         y="421"
         width="94"
         height="32"
         class="terminal"
         rx="10"/>
   <text class="terminal" x="327" y="441">ENVELOPE</text>
   <rect x="453" y="423" width="92" height="32" rx="10"/>
   <rect x="451"
         y="421"
         width="92"
         height="32"
         class="terminal"
         rx="10"/>
   <text class="terminal" x="461" y="441">DEBEZIUM</text>
   <rect x="453" y="467" width="76" height="32" rx="10"/>
   <rect x="451"
         y="465"
         width="76"
         height="32"
         class="terminal"
         rx="10"/>
   <text class="terminal" x="461" y="485">UPSERT</text>
   <rect x="359" y="553" width="58" height="32" rx="10"/>
   <rect x="357"
         y="551"
         width="58"
         height="32"
         class="terminal"
         rx="10"/>
   <text class="terminal" x="367" y="571">WITH</text>
   <rect x="437" y="553" width="102" height="32"/>
   <rect x="435" y="551" width="102" height="32" class="nonterminal"/>
   <text class="nonterminal" x="445" y="571">with_options</text>
   <path class="line"
         d="m17 17 h2 m0 0 h10 m114 0 h10 m20 0 h10 m0 0 h130 m-160 0 h20 m140 0 h20 m-180 0 q10 0 10 10 m160 0 q0 -10 10 -10 m-170 10 v12 m160 0 v-12 m-160 12 q0 10 10 10 m140 0 q10 0 10 -10 m-150 10 h10 m120 0 h10 m20 -32 h10 m88 0 h10 m2 0 l2 0 m2 0 l2 0 m2 0 l2 0 m-450 98 l2 0 m2 0 l2 0 m2 0 l2 0 m22 0 h10 m0 0 h242 m-272 0 h20 m252 0 h20 m-292 0 q10 0 10 10 m272 0 q0 -10 10 -10 m-282 10 v12 m272 0 v-12 m-272 12 q0 10 10 10 m252 0 q10 0 10 -10 m-262 10 h10 m104 0 h10 m0 0 h10 m108 0 h10 m20 -32 h10 m60 0 h10 m0 0 h10 m90 0 h10 m0 0 h10 m54 0 h10 m2 0 l2 0 m2 0 l2 0 m2 0 l2 0 m-396 98 l2 0 m2 0 l2 0 m2 0 l2 0 m2 0 h10 m168 0 h10 m2 0 l2 0 m2 0 l2 0 m2 0 l2 0 m-392 110 l2 0 m2 0 l2 0 m2 0 l2 0 m22 0 h10 m48 0 h10 m0 0 h10 m26 0 h10 m20 0 h10 m98 0 h10 m-138 0 l20 0 m-1 0 q-9 0 -9 -10 l0 -24 q0 -10 10 -10 m118 44 l20 0 m-20 0 q10 0 10 -10 l0 -24 q0 -10 -10 -10 m-118 0 h10 m24 0 h10 m0 0 h74 m20 44 h10 m26 0 h10 m20 0 h10 m0 0 h140 m-170 0 h20 m150 0 h20 m-190 0 q10 0 10 10 m170 0 q0 -10 10 -10 m-180 10 v12 m170 0 v-12 m-170 12 q0 10 10 10 m150 0 q10 0 10 -10 m-160 10 h10 m130 0 h10 m-508 -32 h20 m508 0 h20 m-548 0 q10 0 10 10 m528 0 q0 -10 10 -10 m-538 10 v46 m528 0 v-46 m-528 46 q0 10 10 10 m508 0 q10 0 10 -10 m-518 10 h10 m0 0 h498 m22 -66 l2 0 m2 0 l2 0 m2 0 l2 0 m-578 114 l2 0 m2 0 l2 0 m2 0 l2 0 m22 0 h10 m0 0 h244 m-274 0 h20 m254 0 h20 m-294 0 q10 0 10 10 m274 0 q0 -10 10 -10 m-284 10 v12 m274 0 v-12 m-274 12 q0 10 10 10 m254 0 q10 0 10 -10 m-264 10 h10 m80 0 h10 m0 0 h10 m134 0 h10 m20 -32 h10 m94 0 h10 m20 0 h10 m92 0 h10 m-132 0 h20 m112 0 h20 m-152 0 q10 0 10 10 m132 0 q0 -10 10 -10 m-142 10 v24 m132 0 v-24 m-132 24 q0 10 10 10 m112 0 q10 0 10 -10 m-122 10 h10 m76 0 h10 m0 0 h16 m22 -44 l2 0 m2 0 l2 0 m2 0 l2 0 m-270 98 l2 0 m2 0 l2 0 m2 0 l2 0 m22 0 h10 m0 0 h190 m-220 0 h20 m200 0 h20 m-240 0 q10 0 10 10 m220 0 q0 -10 10 -10 m-230 10 v12 m220 0 v-12 m-220 12 q0 10 10 10 m200 0 q10 0 10 -10 m-210 10 h10 m58 0 h10 m0 0 h10 m102 0 h10 m23 -32 h-3"/>
   <polygon points="577 535 585 531 585 539"/>
   <polygon points="577 535 569 531 569 539"/>
</svg>
