<svg xmlns="http://www.w3.org/2000/svg" width="639" height="191">
   <polygon points="11 17 3 13 3 21"/>
   <polygon points="19 17 11 13 11 21"/>
   <rect x="33" y="3" width="74" height="32" rx="10"/>
   <rect x="31"
         y="1"
         width="74"
         height="32"
         class="terminal"
         rx="10"/>
   <text class="terminal" x="41" y="21">CREATE</text>
   <rect x="45" y="113" width="62" height="32" rx="10"/>
   <rect x="43"
         y="111"
         width="62"
         height="32"
         class="terminal"
         rx="10"/>
   <text class="terminal" x="53" y="131">INDEX</text>
   <rect x="127" y="113" width="94" height="32"/>
   <rect x="125" y="111" width="94" height="32" class="nonterminal"/>
   <text class="nonterminal" x="135" y="131">index_name</text>
   <rect x="241" y="113" width="40" height="32" rx="10"/>
   <rect x="239"
         y="111"
         width="40"
         height="32"
         class="terminal"
         rx="10"/>
   <text class="terminal" x="249" y="131">ON</text>
   <rect x="301" y="113" width="80" height="32"/>
   <rect x="299" y="111" width="80" height="32" class="nonterminal"/>
   <text class="nonterminal" x="309" y="131">obj_name</text>
   <rect x="401" y="113" width="24" height="32" rx="10"/>
   <rect x="399"
         y="111"
         width="24"
         height="32"
         class="terminal"
         rx="10"/>
   <text class="terminal" x="409" y="131">(</text>
   <rect x="465" y="113" width="62" height="32"/>
   <rect x="463" y="111" width="62" height="32" class="nonterminal"/>
   <text class="nonterminal" x="473" y="131">col_ref</text>
   <rect x="465" y="69" width="24" height="32" rx="10"/>
   <rect x="463"
         y="67"
         width="24"
         height="32"
         class="terminal"
         rx="10"/>
   <text class="terminal" x="473" y="87">,</text>
   <rect x="567" y="113" width="24" height="32" rx="10"/>
   <rect x="565"
         y="111"
         width="24"
         height="32"
         class="terminal"
         rx="10"/>
   <text class="terminal" x="575" y="131">)</text>
   <rect x="45" y="157" width="154" height="32" rx="10"/>
   <rect x="43"
         y="155"
         width="154"
         height="32"
         class="terminal"
         rx="10"/>
   <text class="terminal" x="53" y="175">DEFAULT INDEX ON</text>
   <rect x="219" y="157" width="80" height="32"/>
   <rect x="217" y="155" width="80" height="32" class="nonterminal"/>
   <text class="nonterminal" x="227" y="175">obj_name</text>
   <path class="line"
         d="m19 17 h2 m0 0 h10 m74 0 h10 m2 0 l2 0 m2 0 l2 0 m2 0 l2 0 m-126 110 l2 0 m2 0 l2 0 m2 0 l2 0 m22 0 h10 m62 0 h10 m0 0 h10 m94 0 h10 m0 0 h10 m40 0 h10 m0 0 h10 m80 0 h10 m0 0 h10 m24 0 h10 m20 0 h10 m62 0 h10 m-102 0 l20 0 m-1 0 q-9 0 -9 -10 l0 -24 q0 -10 10 -10 m82 44 l20 0 m-20 0 q10 0 10 -10 l0 -24 q0 -10 -10 -10 m-82 0 h10 m24 0 h10 m0 0 h38 m20 44 h10 m24 0 h10 m-586 0 h20 m566 0 h20 m-606 0 q10 0 10 10 m586 0 q0 -10 10 -10 m-596 10 v24 m586 0 v-24 m-586 24 q0 10 10 10 m566 0 q10 0 10 -10 m-576 10 h10 m154 0 h10 m0 0 h10 m80 0 h10 m0 0 h292 m23 -44 h-3"/>
   <polygon points="629 127 637 123 637 131"/>
   <polygon points="629 127 621 123 621 131"/>
</svg>
