<svg xmlns="http://www.w3.org/2000/svg" width="591" height="287">
   <polygon points="9 17 1 13 1 21"/>
   <polygon points="17 17 9 13 9 21"/>
   <rect x="31" y="3" width="76" height="32" rx="10"/>
   <rect x="29"
         y="1"
         width="76"
         height="32"
         class="terminal"
         rx="10"/>
   <text class="terminal" x="39" y="21">CREATE</text>
   <rect x="147" y="35" width="124" height="32" rx="10"/>
   <rect x="145"
         y="33"
         width="124"
         height="32"
         class="terminal"
         rx="10"/>
   <text class="terminal" x="155" y="53">MATERIALIZED</text>
   <rect x="311" y="3" width="78" height="32" rx="10"/>
   <rect x="309"
         y="1"
         width="78"
         height="32"
         class="terminal"
         rx="10"/>
   <text class="terminal" x="319" y="21">SOURCE</text>
   <rect x="429" y="35" width="120" height="32" rx="10"/>
   <rect x="427"
         y="33"
         width="120"
         height="32"
         class="terminal"
         rx="10"/>
   <text class="terminal" x="437" y="53">IF NOT EXISTS</text>
   <rect x="90" y="101" width="82" height="32"/>
   <rect x="88" y="99" width="82" height="32" class="nonterminal"/>
   <text class="nonterminal" x="98" y="119">src_name</text>
   <rect x="192" y="101" width="60" height="32" rx="10"/>
   <rect x="190"
         y="99"
         width="60"
         height="32"
         class="terminal"
         rx="10"/>
   <text class="terminal" x="200" y="119">FROM</text>
   <rect x="272" y="101" width="96" height="32" rx="10"/>
   <rect x="270"
         y="99"
         width="96"
         height="32"
         class="terminal"
         rx="10"/>
   <text class="terminal" x="280" y="119">POSTGRES</text>
   <rect x="388" y="101" width="116" height="32" rx="10"/>
   <rect x="386"
         y="99"
         width="116"
         height="32"
         class="terminal"
         rx="10"/>
   <text class="terminal" x="396" y="119">CONNECTION</text>
   <rect x="90" y="167" width="124" height="32"/>
   <rect x="88" y="165" width="124" height="32" class="nonterminal"/>
   <text class="nonterminal" x="98" y="185">connection_info</text>
   <rect x="234" y="167" width="116" height="32" rx="10"/>
   <rect x="232"
         y="165"
         width="116"
         height="32"
         class="terminal"
         rx="10"/>
   <text class="terminal" x="242" y="185">PUBLICATION</text>
   <rect x="370" y="167" width="134" height="32"/>
   <rect x="368" y="165" width="134" height="32" class="nonterminal"/>
   <text class="nonterminal" x="378" y="185">publication_name</text>
   <rect x="233" y="253" width="254" height="32" rx="10"/>
   <rect x="231"
         y="251"
         width="254"
         height="32"
         class="terminal"
         rx="10"/>
   <text class="terminal" x="241" y="271">WITH timestamp_frequency_ms =</text>
   <rect x="507" y="253" width="36" height="32"/>
   <rect x="505" y="251" width="36" height="32" class="nonterminal"/>
   <text class="nonterminal" x="515" y="271">int</text>
   <path class="line"
         d="m17 17 h2 m0 0 h10 m76 0 h10 m20 0 h10 m0 0 h134 m-164 0 h20 m144 0 h20 m-184 0 q10 0 10 10 m164 0 q0 -10 10 -10 m-174 10 v12 m164 0 v-12 m-164 12 q0 10 10 10 m144 0 q10 0 10 -10 m-154 10 h10 m124 0 h10 m20 -32 h10 m78 0 h10 m20 0 h10 m0 0 h130 m-160 0 h20 m140 0 h20 m-180 0 q10 0 10 10 m160 0 q0 -10 10 -10 m-170 10 v12 m160 0 v-12 m-160 12 q0 10 10 10 m140 0 q10 0 10 -10 m-150 10 h10 m120 0 h10 m22 -32 l2 0 m2 0 l2 0 m2 0 l2 0 m-523 98 l2 0 m2 0 l2 0 m2 0 l2 0 m2 0 h10 m82 0 h10 m0 0 h10 m60 0 h10 m0 0 h10 m96 0 h10 m0 0 h10 m116 0 h10 m2 0 l2 0 m2 0 l2 0 m2 0 l2 0 m-458 66 l2 0 m2 0 l2 0 m2 0 l2 0 m2 0 h10 m124 0 h10 m0 0 h10 m116 0 h10 m0 0 h10 m134 0 h10 m2 0 l2 0 m2 0 l2 0 m2 0 l2 0 m-335 54 l2 0 m2 0 l2 0 m2 0 l2 0 m22 0 h10 m0 0 h320 m-350 0 h20 m330 0 h20 m-370 0 q10 0 10 10 m350 0 q0 -10 10 -10 m-360 10 v12 m350 0 v-12 m-350 12 q0 10 10 10 m330 0 q10 0 10 -10 m-340 10 h10 m254 0 h10 m0 0 h10 m36 0 h10 m23 -32 h-3"/>
   <polygon points="581 235 589 231 589 239"/>
   <polygon points="581 235 573 231 573 239"/>
</svg>
