<svg xmlns="http://www.w3.org/2000/svg" width="601" height="277">
   <polygon points="9 17 1 13 1 21"/>
   <polygon points="17 17 9 13 9 21"/>
   <rect x="31" y="3" width="76" height="32" rx="10"/>
   <rect x="29"
         y="1"
         width="76"
         height="32"
         class="terminal"
         rx="10"/>
   <text class="terminal" x="39" y="21">CREATE</text>
   <rect x="127" y="3" width="116" height="32" rx="10"/>
   <rect x="125"
         y="1"
         width="116"
         height="32"
         class="terminal"
         rx="10"/>
   <text class="terminal" x="135" y="21">CONNECTION</text>
   <rect x="283" y="35" width="120" height="32" rx="10"/>
   <rect x="281"
         y="33"
         width="120"
         height="32"
         class="terminal"
         rx="10"/>
   <text class="terminal" x="291" y="53">IF NOT EXISTS</text>
   <rect x="443" y="3" width="136" height="32"/>
   <rect x="441" y="1" width="136" height="32" class="nonterminal"/>
   <text class="nonterminal" x="451" y="21">connection_name</text>
   <rect x="90" y="101" width="40" height="32" rx="10"/>
   <rect x="88"
         y="99"
         width="40"
         height="32"
         class="terminal"
         rx="10"/>
   <text class="terminal" x="98" y="119">TO</text>
   <rect x="150" y="101" width="106" height="32" rx="10"/>
   <rect x="148"
         y="99"
         width="106"
         height="32"
         class="terminal"
         rx="10"/>
   <text class="terminal" x="158" y="119">CONFLUENT</text>
   <rect x="276" y="101" width="82" height="32" rx="10"/>
   <rect x="274"
         y="99"
         width="82"
         height="32"
         class="terminal"
         rx="10"/>
   <text class="terminal" x="284" y="119">SCHEMA</text>
   <rect x="378" y="101" width="90" height="32" rx="10"/>
   <rect x="376"
         y="99"
         width="90"
         height="32"
         class="terminal"
         rx="10"/>
   <text class="terminal" x="386" y="119">REGISTRY</text>
   <rect x="488" y="101" width="26" height="32" rx="10"/>
   <rect x="486"
         y="99"
         width="26"
         height="32"
         class="terminal"
         rx="10"/>
   <text class="terminal" x="496" y="119">(</text>
   <rect x="73" y="211" width="48" height="32"/>
   <rect x="71" y="209" width="48" height="32" class="nonterminal"/>
   <text class="nonterminal" x="81" y="229">field</text>
   <rect x="161" y="243" width="28" height="32" rx="10"/>
   <rect x="159"
         y="241"
         width="28"
         height="32"
         class="terminal"
         rx="10"/>
   <text class="terminal" x="169" y="261">=</text>
   <rect x="229" y="211" width="38" height="32"/>
   <rect x="227" y="209" width="38" height="32" class="nonterminal"/>
   <text class="nonterminal" x="237" y="229">val</text>
   <rect x="73" y="167" width="24" height="32" rx="10"/>
   <rect x="71"
         y="165"
         width="24"
         height="32"
         class="terminal"
         rx="10"/>
   <text class="terminal" x="81" y="185">,</text>
   <rect x="307" y="211" width="26" height="32" rx="10"/>
   <rect x="305"
         y="209"
         width="26"
         height="32"
         class="terminal"
         rx="10"/>
   <text class="terminal" x="315" y="229">)</text>
   <rect x="373" y="243" width="58" height="32" rx="10"/>
   <rect x="371"
         y="241"
         width="58"
         height="32"
         class="terminal"
         rx="10"/>
   <text class="terminal" x="381" y="261">WITH</text>
   <rect x="451" y="243" width="102" height="32"/>
   <rect x="449" y="241" width="102" height="32" class="nonterminal"/>
   <text class="nonterminal" x="459" y="261">with_options</text>
   <path class="line"
         d="m17 17 h2 m0 0 h10 m76 0 h10 m0 0 h10 m116 0 h10 m20 0 h10 m0 0 h130 m-160 0 h20 m140 0 h20 m-180 0 q10 0 10 10 m160 0 q0 -10 10 -10 m-170 10 v12 m160 0 v-12 m-160 12 q0 10 10 10 m140 0 q10 0 10 -10 m-150 10 h10 m120 0 h10 m20 -32 h10 m136 0 h10 m2 0 l2 0 m2 0 l2 0 m2 0 l2 0 m-533 98 l2 0 m2 0 l2 0 m2 0 l2 0 m2 0 h10 m40 0 h10 m0 0 h10 m106 0 h10 m0 0 h10 m82 0 h10 m0 0 h10 m90 0 h10 m0 0 h10 m26 0 h10 m2 0 l2 0 m2 0 l2 0 m2 0 l2 0 m-505 110 l2 0 m2 0 l2 0 m2 0 l2 0 m22 0 h10 m48 0 h10 m20 0 h10 m0 0 h38 m-68 0 h20 m48 0 h20 m-88 0 q10 0 10 10 m68 0 q0 -10 10 -10 m-78 10 v12 m68 0 v-12 m-68 12 q0 10 10 10 m48 0 q10 0 10 -10 m-58 10 h10 m28 0 h10 m20 -32 h10 m38 0 h10 m-234 0 l20 0 m-1 0 q-9 0 -9 -10 l0 -24 q0 -10 10 -10 m214 44 l20 0 m-20 0 q10 0 10 -10 l0 -24 q0 -10 -10 -10 m-214 0 h10 m24 0 h10 m0 0 h170 m20 44 h10 m26 0 h10 m20 0 h10 m0 0 h190 m-220 0 h20 m200 0 h20 m-240 0 q10 0 10 10 m220 0 q0 -10 10 -10 m-230 10 v12 m220 0 v-12 m-220 12 q0 10 10 10 m200 0 q10 0 10 -10 m-210 10 h10 m58 0 h10 m0 0 h10 m102 0 h10 m23 -32 h-3"/>
   <polygon points="591 225 599 221 599 229"/>
   <polygon points="591 225 583 221 583 229"/>
</svg>
