<svg xmlns="http://www.w3.org/2000/svg" width="583" height="639">
   <polygon points="9 17 1 13 1 21"/>
   <polygon points="17 17 9 13 9 21"/>
   <rect x="31" y="3" width="74" height="32" rx="10"/>
   <rect x="29"
         y="1"
         width="74"
         height="32"
         class="terminal"
         rx="10"/>
   <text class="terminal" x="39" y="21">CREATE</text>
   <rect x="145" y="35" width="120" height="32" rx="10"/>
   <rect x="143"
         y="33"
         width="120"
         height="32"
         class="terminal"
         rx="10"/>
   <text class="terminal" x="153" y="53">MATERIALIZED</text>
   <rect x="305" y="3" width="78" height="32" rx="10"/>
   <rect x="303"
         y="1"
         width="78"
         height="32"
         class="terminal"
         rx="10"/>
   <text class="terminal" x="313" y="21">SOURCE</text>
   <rect x="423" y="35" width="118" height="32" rx="10"/>
   <rect x="421"
         y="33"
         width="118"
         height="32"
         class="terminal"
         rx="10"/>
   <text class="terminal" x="431" y="53">IF NOT EXISTS</text>
   <rect x="96" y="101" width="80" height="32"/>
   <rect x="94" y="99" width="80" height="32" class="nonterminal"/>
   <text class="nonterminal" x="104" y="119">src_name</text>
   <rect x="196" y="101" width="60" height="32" rx="10"/>
   <rect x="194"
         y="99"
         width="60"
         height="32"
         class="terminal"
         rx="10"/>
   <text class="terminal" x="204" y="119">FROM</text>
   <rect x="276" y="101" width="36" height="32" rx="10"/>
   <rect x="274"
         y="99"
         width="36"
         height="32"
         class="terminal"
         rx="10"/>
   <text class="terminal" x="284" y="119">S3</text>
   <rect x="332" y="101" width="158" height="32" rx="10"/>
   <rect x="330"
         y="99"
         width="158"
         height="32"
         class="terminal"
         rx="10"/>
   <text class="terminal" x="340" y="119">DISCOVER OBJECTS</text>
   <rect x="162" y="199" width="94" height="32" rx="10"/>
   <rect x="160"
         y="197"
         width="94"
         height="32"
         class="terminal"
         rx="10"/>
   <text class="terminal" x="170" y="217">MATCHING</text>
   <rect x="276" y="199" width="64" height="32"/>
   <rect x="274" y="197" width="64" height="32" class="nonterminal"/>
   <text class="nonterminal" x="284" y="217">pattern</text>
   <rect x="380" y="167" width="64" height="32" rx="10"/>
   <rect x="378"
         y="165"
         width="64"
         height="32"
         class="terminal"
         rx="10"/>
   <text class="terminal" x="388" y="185">USING</text>
   <rect x="153" y="309" width="118" height="32" rx="10"/>
   <rect x="151"
         y="307"
         width="118"
         height="32"
         class="terminal"
         rx="10"/>
   <text class="terminal" x="161" y="327">BUCKET SCAN</text>
   <rect x="291" y="309" width="102" height="32"/>
   <rect x="289" y="307" width="102" height="32" class="nonterminal"/>
   <text class="nonterminal" x="299" y="327">bucket_name</text>
   <rect x="153" y="353" width="160" height="32" rx="10"/>
   <rect x="151"
         y="351"
         width="160"
         height="32"
         class="terminal"
         rx="10"/>
   <text class="terminal" x="161" y="371">SQS NOTIFICATIONS</text>
   <rect x="333" y="353" width="100" height="32"/>
   <rect x="331" y="351" width="100" height="32" class="nonterminal"/>
   <text class="nonterminal" x="341" y="371">queue_name</text>
   <rect x="133" y="265" width="24" height="32" rx="10"/>
   <rect x="131"
         y="263"
         width="24"
         height="32"
         class="terminal"
         rx="10"/>
   <text class="terminal" x="141" y="283">,</text>
   <rect x="67" y="451" width="122" height="32" rx="10"/>
   <rect x="65"
         y="449"
         width="122"
         height="32"
         class="terminal"
         rx="10"/>
   <text class="terminal" x="75" y="469">COMPRESSION</text>
   <rect x="229" y="451" width="60" height="32" rx="10"/>
   <rect x="227"
         y="449"
         width="60"
         height="32"
         class="terminal"
         rx="10"/>
   <text class="terminal" x="237" y="469">NONE</text>
   <rect x="229" y="495" width="52" height="32" rx="10"/>
   <rect x="227"
         y="493"
         width="52"
         height="32"
         class="terminal"
         rx="10"/>
   <text class="terminal" x="237" y="513">GZIP</text>
   <rect x="349" y="419" width="56" height="32" rx="10"/>
   <rect x="347"
         y="417"
         width="56"
         height="32"
         class="terminal"
         rx="10"/>
   <text class="terminal" x="357" y="437">WITH</text>
   <rect x="425" y="419" width="24" height="32" rx="10"/>
   <rect x="423"
         y="417"
         width="24"
         height="32"
         class="terminal"
         rx="10"/>
   <text class="terminal" x="433" y="437">(</text>
   <rect x="469" y="419" width="70" height="32" rx="10"/>
   <rect x="467"
         y="417"
         width="70"
         height="32"
         class="terminal"
         rx="10"/>
   <text class="terminal" x="477" y="437">region =</text>
   <rect x="53" y="561" width="58" height="32"/>
   <rect x="51" y="559" width="58" height="32" class="nonterminal"/>
   <text class="nonterminal" x="61" y="579">region</text>
   <rect x="151" y="593" width="118" height="32"/>
   <rect x="149" y="591" width="118" height="32" class="nonterminal"/>
   <text class="nonterminal" x="159" y="611">aws_credentials</text>
   <rect x="309" y="561" width="24" height="32" rx="10"/>
   <rect x="307"
         y="559"
         width="24"
         height="32"
         class="terminal"
         rx="10"/>
   <text class="terminal" x="317" y="579">)</text>
   <rect x="353" y="561" width="78" height="32" rx="10"/>
   <rect x="351"
         y="559"
         width="78"
         height="32"
         class="terminal"
         rx="10"/>
   <text class="terminal" x="361" y="579">FORMAT</text>
   <rect x="471" y="561" width="54" height="32" rx="10"/>
   <rect x="469"
         y="559"
         width="54"
         height="32"
         class="terminal"
         rx="10"/>
   <text class="terminal" x="479" y="579">TEXT</text>
   <rect x="471" y="605" width="64" height="32" rx="10"/>
   <rect x="469"
         y="603"
         width="64"
         height="32"
         class="terminal"
         rx="10"/>
   <text class="terminal" x="479" y="623">BYTES</text>
   <path class="line"
         d="m17 17 h2 m0 0 h10 m74 0 h10 m20 0 h10 m0 0 h130 m-160 0 h20 m140 0 h20 m-180 0 q10 0 10 10 m160 0 q0 -10 10 -10 m-170 10 v12 m160 0 v-12 m-160 12 q0 10 10 10 m140 0 q10 0 10 -10 m-150 10 h10 m120 0 h10 m20 -32 h10 m78 0 h10 m20 0 h10 m0 0 h128 m-158 0 h20 m138 0 h20 m-178 0 q10 0 10 10 m158 0 q0 -10 10 -10 m-168 10 v12 m158 0 v-12 m-158 12 q0 10 10 10 m138 0 q10 0 10 -10 m-148 10 h10 m118 0 h10 m22 -32 l2 0 m2 0 l2 0 m2 0 l2 0 m-509 98 l2 0 m2 0 l2 0 m2 0 l2 0 m2 0 h10 m80 0 h10 m0 0 h10 m60 0 h10 m0 0 h10 m36 0 h10 m0 0 h10 m158 0 h10 m2 0 l2 0 m2 0 l2 0 m2 0 l2 0 m-392 66 l2 0 m2 0 l2 0 m2 0 l2 0 m22 0 h10 m0 0 h188 m-218 0 h20 m198 0 h20 m-238 0 q10 0 10 10 m218 0 q0 -10 10 -10 m-228 10 v12 m218 0 v-12 m-218 12 q0 10 10 10 m198 0 q10 0 10 -10 m-208 10 h10 m94 0 h10 m0 0 h10 m64 0 h10 m20 -32 h10 m64 0 h10 m2 0 l2 0 m2 0 l2 0 m2 0 l2 0 m-375 142 l2 0 m2 0 l2 0 m2 0 l2 0 m42 0 h10 m118 0 h10 m0 0 h10 m102 0 h10 m0 0 h40 m-320 0 h20 m300 0 h20 m-340 0 q10 0 10 10 m320 0 q0 -10 10 -10 m-330 10 v24 m320 0 v-24 m-320 24 q0 10 10 10 m300 0 q10 0 10 -10 m-310 10 h10 m160 0 h10 m0 0 h10 m100 0 h10 m-340 -44 l20 0 m-1 0 q-9 0 -9 -10 l0 -24 q0 -10 10 -10 m340 44 l20 0 m-20 0 q10 0 10 -10 l0 -24 q0 -10 -10 -10 m-340 0 h10 m24 0 h10 m0 0 h296 m22 44 l2 0 m2 0 l2 0 m2 0 l2 0 m-470 110 l2 0 m2 0 l2 0 m2 0 l2 0 m22 0 h10 m0 0 h252 m-282 0 h20 m262 0 h20 m-302 0 q10 0 10 10 m282 0 q0 -10 10 -10 m-292 10 v12 m282 0 v-12 m-282 12 q0 10 10 10 m262 0 q10 0 10 -10 m-272 10 h10 m122 0 h10 m20 0 h10 m60 0 h10 m-100 0 h20 m80 0 h20 m-120 0 q10 0 10 10 m100 0 q0 -10 10 -10 m-110 10 v24 m100 0 v-24 m-100 24 q0 10 10 10 m80 0 q10 0 10 -10 m-90 10 h10 m52 0 h10 m0 0 h8 m40 -76 h10 m56 0 h10 m0 0 h10 m24 0 h10 m0 0 h10 m70 0 h10 m2 0 l2 0 m2 0 l2 0 m2 0 l2 0 m-530 142 l2 0 m2 0 l2 0 m2 0 l2 0 m2 0 h10 m58 0 h10 m20 0 h10 m0 0 h128 m-158 0 h20 m138 0 h20 m-178 0 q10 0 10 10 m158 0 q0 -10 10 -10 m-168 10 v12 m158 0 v-12 m-158 12 q0 10 10 10 m138 0 q10 0 10 -10 m-148 10 h10 m118 0 h10 m20 -32 h10 m24 0 h10 m0 0 h10 m78 0 h10 m20 0 h10 m54 0 h10 m0 0 h10 m-104 0 h20 m84 0 h20 m-124 0 q10 0 10 10 m104 0 q0 -10 10 -10 m-114 10 v24 m104 0 v-24 m-104 24 q0 10 10 10 m84 0 q10 0 10 -10 m-94 10 h10 m64 0 h10 m23 -44 h-3"/>
   <polygon points="573 575 581 571 581 579"/>
   <polygon points="573 575 565 571 565 579"/>
</svg>
