<svg xmlns="http://www.w3.org/2000/svg" width="593" height="593">
   <polygon points="9 17 1 13 1 21"/>
   <polygon points="17 17 9 13 9 21"/>
   <rect x="31" y="3" width="136" height="32" rx="10"/>
   <rect x="29"
         y="1"
         width="136"
         height="32"
         class="terminal"
         rx="10"/>
   <text class="terminal" x="39" y="21">CREATE SOURCE</text>
   <rect x="207" y="35" width="118" height="32" rx="10"/>
   <rect x="205"
         y="33"
         width="118"
         height="32"
         class="terminal"
         rx="10"/>
   <text class="terminal" x="215" y="53">IF NOT EXISTS</text>
   <rect x="365" y="3" width="80" height="32"/>
   <rect x="363" y="1" width="80" height="32" class="nonterminal"/>
   <text class="nonterminal" x="373" y="21">src_name</text>
   <rect x="48" y="145" width="24" height="32" rx="10"/>
   <rect x="46"
         y="143"
         width="24"
         height="32"
         class="terminal"
         rx="10"/>
   <text class="terminal" x="56" y="163">(</text>
   <rect x="112" y="145" width="80" height="32"/>
   <rect x="110" y="143" width="80" height="32" class="nonterminal"/>
   <text class="nonterminal" x="120" y="163">col_name</text>
   <rect x="112" y="101" width="24" height="32" rx="10"/>
   <rect x="110"
         y="99"
         width="24"
         height="32"
         class="terminal"
         rx="10"/>
   <text class="terminal" x="120" y="119">,</text>
   <rect x="232" y="145" width="24" height="32" rx="10"/>
   <rect x="230"
         y="143"
         width="24"
         height="32"
         class="terminal"
         rx="10"/>
   <text class="terminal" x="240" y="163">)</text>
   <rect x="296" y="145" width="60" height="32" rx="10"/>
   <rect x="294"
         y="143"
         width="60"
         height="32"
         class="terminal"
         rx="10"/>
   <text class="terminal" x="304" y="163">FROM</text>
   <rect x="376" y="145" width="126" height="32" rx="10"/>
   <rect x="374"
         y="143"
         width="126"
         height="32"
         class="terminal"
         rx="10"/>
   <text class="terminal" x="384" y="163">KAFKA BROKER</text>
   <rect x="522" y="145" width="46" height="32"/>
   <rect x="520" y="143" width="46" height="32" class="nonterminal"/>
   <text class="nonterminal" x="530" y="163">host</text>
   <rect x="25" y="271" width="62" height="32" rx="10"/>
   <rect x="23"
         y="269"
         width="62"
         height="32"
         class="terminal"
         rx="10"/>
   <text class="terminal" x="33" y="289">TOPIC</text>
   <rect x="107" y="271" width="50" height="32"/>
   <rect x="105" y="269" width="50" height="32" class="nonterminal"/>
   <text class="nonterminal" x="115" y="289">topic</text>
   <rect x="197" y="271" width="56" height="32" rx="10"/>
   <rect x="195"
         y="269"
         width="56"
         height="32"
         class="terminal"
         rx="10"/>
   <text class="terminal" x="205" y="289">WITH</text>
   <rect x="273" y="271" width="24" height="32" rx="10"/>
   <rect x="271"
         y="269"
         width="24"
         height="32"
         class="terminal"
         rx="10"/>
   <text class="terminal" x="281" y="289">(</text>
   <rect x="337" y="271" width="46" height="32"/>
   <rect x="335" y="269" width="46" height="32" class="nonterminal"/>
   <text class="nonterminal" x="345" y="289">field</text>
   <rect x="403" y="271" width="26" height="32" rx="10"/>
   <rect x="401"
         y="269"
         width="26"
         height="32"
         class="terminal"
         rx="10"/>
   <text class="terminal" x="411" y="289">=</text>
   <rect x="449" y="271" width="38" height="32"/>
   <rect x="447" y="269" width="38" height="32" class="nonterminal"/>
   <text class="nonterminal" x="457" y="289">val</text>
   <rect x="337" y="227" width="24" height="32" rx="10"/>
   <rect x="335"
         y="225"
         width="24"
         height="32"
         class="terminal"
         rx="10"/>
   <text class="terminal" x="345" y="245">,</text>
   <rect x="527" y="271" width="24" height="32" rx="10"/>
   <rect x="525"
         y="269"
         width="24"
         height="32"
         class="terminal"
         rx="10"/>
   <text class="terminal" x="535" y="289">)</text>
   <rect x="201" y="353" width="78" height="32" rx="10"/>
   <rect x="199"
         y="351"
         width="78"
         height="32"
         class="terminal"
         rx="10"/>
   <text class="terminal" x="209" y="371">FORMAT</text>
   <rect x="299" y="353" width="96" height="32"/>
   <rect x="297" y="351" width="96" height="32" class="nonterminal"/>
   <text class="nonterminal" x="307" y="371">format_spec</text>
   <rect x="65" y="439" width="92" height="32" rx="10"/>
   <rect x="63"
         y="437"
         width="92"
         height="32"
         class="terminal"
         rx="10"/>
   <text class="terminal" x="73" y="457">ENVELOPE</text>
   <rect x="197" y="439" width="60" height="32" rx="10"/>
   <rect x="195"
         y="437"
         width="60"
         height="32"
         class="terminal"
         rx="10"/>
   <text class="terminal" x="205" y="457">NONE</text>
   <rect x="197" y="483" width="92" height="32" rx="10"/>
   <rect x="195"
         y="481"
         width="92"
         height="32"
         class="terminal"
         rx="10"/>
   <text class="terminal" x="205" y="501">DEBEZIUM</text>
   <rect x="197" y="527" width="74" height="32" rx="10"/>
   <rect x="195"
         y="525"
         width="74"
         height="32"
         class="terminal"
         rx="10"/>
   <text class="terminal" x="205" y="545">UPSERT</text>
   <rect x="311" y="559" width="78" height="32" rx="10"/>
   <rect x="309"
         y="557"
         width="78"
         height="32"
         class="terminal"
         rx="10"/>
   <text class="terminal" x="319" y="577">FORMAT</text>
   <rect x="409" y="559" width="96" height="32"/>
   <rect x="407" y="557" width="96" height="32" class="nonterminal"/>
   <text class="nonterminal" x="417" y="577">format_spec</text>
   <path class="line"
         d="m17 17 h2 m0 0 h10 m136 0 h10 m20 0 h10 m0 0 h128 m-158 0 h20 m138 0 h20 m-178 0 q10 0 10 10 m158 0 q0 -10 10 -10 m-168 10 v12 m158 0 v-12 m-158 12 q0 10 10 10 m138 0 q10 0 10 -10 m-148 10 h10 m118 0 h10 m20 -32 h10 m80 0 h10 m2 0 l2 0 m2 0 l2 0 m2 0 l2 0 m-461 142 l2 0 m2 0 l2 0 m2 0 l2 0 m22 0 h10 m24 0 h10 m20 0 h10 m80 0 h10 m-120 0 l20 0 m-1 0 q-9 0 -9 -10 l0 -24 q0 -10 10 -10 m100 44 l20 0 m-20 0 q10 0 10 -10 l0 -24 q0 -10 -10 -10 m-100 0 h10 m24 0 h10 m0 0 h56 m20 44 h10 m24 0 h10 m-248 0 h20 m228 0 h20 m-268 0 q10 0 10 10 m248 0 q0 -10 10 -10 m-258 10 v14 m248 0 v-14 m-248 14 q0 10 10 10 m228 0 q10 0 10 -10 m-238 10 h10 m0 0 h218 m20 -34 h10 m60 0 h10 m0 0 h10 m126 0 h10 m0 0 h10 m46 0 h10 m2 0 l2 0 m2 0 l2 0 m2 0 l2 0 m-587 126 l2 0 m2 0 l2 0 m2 0 l2 0 m2 0 h10 m62 0 h10 m0 0 h10 m50 0 h10 m20 0 h10 m56 0 h10 m0 0 h10 m24 0 h10 m20 0 h10 m46 0 h10 m0 0 h10 m26 0 h10 m0 0 h10 m38 0 h10 m-190 0 l20 0 m-1 0 q-9 0 -9 -10 l0 -24 q0 -10 10 -10 m170 44 l20 0 m-20 0 q10 0 10 -10 l0 -24 q0 -10 -10 -10 m-170 0 h10 m24 0 h10 m0 0 h126 m20 44 h10 m24 0 h10 m-394 0 h20 m374 0 h20 m-414 0 q10 0 10 10 m394 0 q0 -10 10 -10 m-404 10 v14 m394 0 v-14 m-394 14 q0 10 10 10 m374 0 q10 0 10 -10 m-384 10 h10 m0 0 h364 m22 -34 l2 0 m2 0 l2 0 m2 0 l2 0 m-414 82 l2 0 m2 0 l2 0 m2 0 l2 0 m2 0 h10 m78 0 h10 m0 0 h10 m96 0 h10 m2 0 l2 0 m2 0 l2 0 m2 0 l2 0 m-394 54 l2 0 m2 0 l2 0 m2 0 l2 0 m22 0 h10 m0 0 h490 m-520 0 h20 m500 0 h20 m-540 0 q10 0 10 10 m520 0 q0 -10 10 -10 m-530 10 v12 m520 0 v-12 m-520 12 q0 10 10 10 m500 0 q10 0 10 -10 m-510 10 h10 m92 0 h10 m20 0 h10 m60 0 h10 m0 0 h268 m-368 0 h20 m348 0 h20 m-388 0 q10 0 10 10 m368 0 q0 -10 10 -10 m-378 10 v24 m368 0 v-24 m-368 24 q0 10 10 10 m348 0 q10 0 10 -10 m-358 10 h10 m92 0 h10 m0 0 h236 m-358 -10 v20 m368 0 v-20 m-368 20 v24 m368 0 v-24 m-368 24 q0 10 10 10 m348 0 q10 0 10 -10 m-358 10 h10 m74 0 h10 m20 0 h10 m0 0 h204 m-234 0 h20 m214 0 h20 m-254 0 q10 0 10 10 m234 0 q0 -10 10 -10 m-244 10 v12 m234 0 v-12 m-234 12 q0 10 10 10 m214 0 q10 0 10 -10 m-224 10 h10 m78 0 h10 m0 0 h10 m96 0 h10 m63 -152 h-3"/>
   <polygon points="583 421 591 417 591 425"/>
   <polygon points="583 421 575 417 575 425"/>
</svg>
