<svg xmlns="http://www.w3.org/2000/svg" width="589" height="671">
   <polygon points="9 17 1 13 1 21"/>
   <polygon points="17 17 9 13 9 21"/>
   <rect x="31" y="3" width="74" height="32" rx="10"/>
   <rect x="29"
         y="1"
         width="74"
         height="32"
         class="terminal"
         rx="10"/>
   <text class="terminal" x="39" y="21">CREATE</text>
   <rect x="145" y="35" width="120" height="32" rx="10"/>
   <rect x="143"
         y="33"
         width="120"
         height="32"
         class="terminal"
         rx="10"/>
   <text class="terminal" x="153" y="53">MATERIALIZED</text>
   <rect x="305" y="3" width="78" height="32" rx="10"/>
   <rect x="303"
         y="1"
         width="78"
         height="32"
         class="terminal"
         rx="10"/>
   <text class="terminal" x="313" y="21">SOURCE</text>
   <rect x="423" y="35" width="118" height="32" rx="10"/>
   <rect x="421"
         y="33"
         width="118"
         height="32"
         class="terminal"
         rx="10"/>
   <text class="terminal" x="431" y="53">IF NOT EXISTS</text>
   <rect x="256" y="101" width="80" height="32"/>
   <rect x="254" y="99" width="80" height="32" class="nonterminal"/>
   <text class="nonterminal" x="264" y="119">src_name</text>
   <rect x="45" y="211" width="24" height="32" rx="10"/>
   <rect x="43"
         y="209"
         width="24"
         height="32"
         class="terminal"
         rx="10"/>
   <text class="terminal" x="53" y="229">(</text>
   <rect x="109" y="211" width="80" height="32"/>
   <rect x="107" y="209" width="80" height="32" class="nonterminal"/>
   <text class="nonterminal" x="117" y="229">col_name</text>
   <rect x="109" y="167" width="24" height="32" rx="10"/>
   <rect x="107"
         y="165"
         width="24"
         height="32"
         class="terminal"
         rx="10"/>
   <text class="terminal" x="117" y="185">,</text>
   <rect x="249" y="243" width="24" height="32" rx="10"/>
   <rect x="247"
         y="241"
         width="24"
         height="32"
         class="terminal"
         rx="10"/>
   <text class="terminal" x="257" y="261">,</text>
   <rect x="293" y="243" width="110" height="32"/>
   <rect x="291" y="241" width="110" height="32" class="nonterminal"/>
   <text class="nonterminal" x="301" y="261">key_constraint</text>
   <rect x="443" y="211" width="24" height="32" rx="10"/>
   <rect x="441"
         y="209"
         width="24"
         height="32"
         class="terminal"
         rx="10"/>
   <text class="terminal" x="451" y="229">)</text>
   <rect x="507" y="211" width="60" height="32" rx="10"/>
   <rect x="505"
         y="209"
         width="60"
         height="32"
         class="terminal"
         rx="10"/>
   <text class="terminal" x="515" y="229">FROM</text>
   <rect x="87" y="325" width="48" height="32" rx="10"/>
   <rect x="85"
         y="323"
         width="48"
         height="32"
         class="terminal"
         rx="10"/>
   <text class="terminal" x="95" y="343">FILE</text>
   <rect x="155" y="325" width="48" height="32"/>
   <rect x="153" y="323" width="48" height="32" class="nonterminal"/>
   <text class="nonterminal" x="163" y="343">path</text>
   <rect x="243" y="357" width="122" height="32" rx="10"/>
   <rect x="241"
         y="355"
         width="122"
         height="32"
         class="terminal"
         rx="10"/>
   <text class="terminal" x="251" y="375">COMPRESSION</text>
   <rect x="405" y="357" width="60" height="32" rx="10"/>
   <rect x="403"
         y="355"
         width="60"
         height="32"
         class="terminal"
         rx="10"/>
   <text class="terminal" x="413" y="375">NONE</text>
   <rect x="405" y="401" width="52" height="32" rx="10"/>
   <rect x="403"
         y="399"
         width="52"
         height="32"
         class="terminal"
         rx="10"/>
   <text class="terminal" x="413" y="419">GZIP</text>
   <rect x="70" y="511" width="56" height="32" rx="10"/>
   <rect x="68"
         y="509"
         width="56"
         height="32"
         class="terminal"
         rx="10"/>
   <text class="terminal" x="78" y="529">WITH</text>
   <rect x="146" y="511" width="24" height="32" rx="10"/>
   <rect x="144"
         y="509"
         width="24"
         height="32"
         class="terminal"
         rx="10"/>
   <text class="terminal" x="154" y="529">(</text>
   <rect x="210" y="511" width="46" height="32"/>
   <rect x="208" y="509" width="46" height="32" class="nonterminal"/>
   <text class="nonterminal" x="218" y="529">field</text>
   <rect x="276" y="511" width="26" height="32" rx="10"/>
   <rect x="274"
         y="509"
         width="26"
         height="32"
         class="terminal"
         rx="10"/>
   <text class="terminal" x="284" y="529">=</text>
   <rect x="322" y="511" width="38" height="32"/>
   <rect x="320" y="509" width="38" height="32" class="nonterminal"/>
   <text class="nonterminal" x="330" y="529">val</text>
   <rect x="210" y="467" width="24" height="32" rx="10"/>
   <rect x="208"
         y="465"
         width="24"
         height="32"
         class="terminal"
         rx="10"/>
   <text class="terminal" x="218" y="485">,</text>
   <rect x="400" y="511" width="24" height="32" rx="10"/>
   <rect x="398"
         y="509"
         width="24"
         height="32"
         class="terminal"
         rx="10"/>
   <text class="terminal" x="408" y="529">)</text>
   <rect x="464" y="511" width="78" height="32" rx="10"/>
   <rect x="462"
         y="509"
         width="78"
         height="32"
         class="terminal"
         rx="10"/>
   <text class="terminal" x="472" y="529">FORMAT</text>
   <rect x="33" y="593" width="88" height="32" rx="10"/>
   <rect x="31"
         y="591"
         width="88"
         height="32"
         class="terminal"
         rx="10"/>
   <text class="terminal" x="41" y="611">CSV WITH</text>
   <rect x="161" y="593" width="76" height="32" rx="10"/>
   <rect x="159"
         y="591"
         width="76"
         height="32"
         class="terminal"
         rx="10"/>
   <text class="terminal" x="169" y="611">HEADER</text>
   <rect x="161" y="637" width="28" height="32"/>
   <rect x="159" y="635" width="28" height="32" class="nonterminal"/>
   <text class="nonterminal" x="169" y="655">n</text>
   <rect x="209" y="637" width="90" height="32" rx="10"/>
   <rect x="207"
         y="635"
         width="90"
         height="32"
         class="terminal"
         rx="10"/>
   <text class="terminal" x="217" y="655">COLUMNS</text>
   <rect x="359" y="625" width="116" height="32" rx="10"/>
   <rect x="357"
         y="623"
         width="116"
         height="32"
         class="terminal"
         rx="10"/>
   <text class="terminal" x="367" y="643">DELIMITED BY</text>
   <rect x="495" y="625" width="46" height="32"/>
   <rect x="493" y="623" width="46" height="32" class="nonterminal"/>
   <text class="nonterminal" x="503" y="643">char</text>
   <path class="line"
         d="m17 17 h2 m0 0 h10 m74 0 h10 m20 0 h10 m0 0 h130 m-160 0 h20 m140 0 h20 m-180 0 q10 0 10 10 m160 0 q0 -10 10 -10 m-170 10 v12 m160 0 v-12 m-160 12 q0 10 10 10 m140 0 q10 0 10 -10 m-150 10 h10 m120 0 h10 m20 -32 h10 m78 0 h10 m20 0 h10 m0 0 h128 m-158 0 h20 m138 0 h20 m-178 0 q10 0 10 10 m158 0 q0 -10 10 -10 m-168 10 v12 m158 0 v-12 m-158 12 q0 10 10 10 m138 0 q10 0 10 -10 m-148 10 h10 m118 0 h10 m22 -32 l2 0 m2 0 l2 0 m2 0 l2 0 m-349 98 l2 0 m2 0 l2 0 m2 0 l2 0 m2 0 h10 m80 0 h10 m2 0 l2 0 m2 0 l2 0 m2 0 l2 0 m-355 110 l2 0 m2 0 l2 0 m2 0 l2 0 m22 0 h10 m24 0 h10 m20 0 h10 m80 0 h10 m-120 0 l20 0 m-1 0 q-9 0 -9 -10 l0 -24 q0 -10 10 -10 m100 44 l20 0 m-20 0 q10 0 10 -10 l0 -24 q0 -10 -10 -10 m-100 0 h10 m24 0 h10 m0 0 h56 m40 44 h10 m0 0 h164 m-194 0 h20 m174 0 h20 m-214 0 q10 0 10 10 m194 0 q0 -10 10 -10 m-204 10 v12 m194 0 v-12 m-194 12 q0 10 10 10 m174 0 q10 0 10 -10 m-184 10 h10 m24 0 h10 m0 0 h10 m110 0 h10 m20 -32 h10 m24 0 h10 m-462 0 h20 m442 0 h20 m-482 0 q10 0 10 10 m462 0 q0 -10 10 -10 m-472 10 v46 m462 0 v-46 m-462 46 q0 10 10 10 m442 0 q10 0 10 -10 m-452 10 h10 m0 0 h432 m20 -66 h10 m60 0 h10 m2 0 l2 0 m2 0 l2 0 m2 0 l2 0 m-524 114 l2 0 m2 0 l2 0 m2 0 l2 0 m2 0 h10 m48 0 h10 m0 0 h10 m48 0 h10 m20 0 h10 m0 0 h252 m-282 0 h20 m262 0 h20 m-302 0 q10 0 10 10 m282 0 q0 -10 10 -10 m-292 10 v12 m282 0 v-12 m-282 12 q0 10 10 10 m262 0 q10 0 10 -10 m-272 10 h10 m122 0 h10 m20 0 h10 m60 0 h10 m-100 0 h20 m80 0 h20 m-120 0 q10 0 10 10 m100 0 q0 -10 10 -10 m-110 10 v24 m100 0 v-24 m-100 24 q0 10 10 10 m80 0 q10 0 10 -10 m-90 10 h10 m52 0 h10 m0 0 h8 m42 -76 l2 0 m2 0 l2 0 m2 0 l2 0 m-499 186 l2 0 m2 0 l2 0 m2 0 l2 0 m22 0 h10 m56 0 h10 m0 0 h10 m24 0 h10 m20 0 h10 m46 0 h10 m0 0 h10 m26 0 h10 m0 0 h10 m38 0 h10 m-190 0 l20 0 m-1 0 q-9 0 -9 -10 l0 -24 q0 -10 10 -10 m170 44 l20 0 m-20 0 q10 0 10 -10 l0 -24 q0 -10 -10 -10 m-170 0 h10 m24 0 h10 m0 0 h126 m20 44 h10 m24 0 h10 m-394 0 h20 m374 0 h20 m-414 0 q10 0 10 10 m394 0 q0 -10 10 -10 m-404 10 v14 m394 0 v-14 m-394 14 q0 10 10 10 m374 0 q10 0 10 -10 m-384 10 h10 m0 0 h364 m20 -34 h10 m78 0 h10 m2 0 l2 0 m2 0 l2 0 m2 0 l2 0 m-553 82 l2 0 m2 0 l2 0 m2 0 l2 0 m2 0 h10 m88 0 h10 m20 0 h10 m76 0 h10 m0 0 h62 m-178 0 h20 m158 0 h20 m-198 0 q10 0 10 10 m178 0 q0 -10 10 -10 m-188 10 v24 m178 0 v-24 m-178 24 q0 10 10 10 m158 0 q10 0 10 -10 m-168 10 h10 m28 0 h10 m0 0 h10 m90 0 h10 m40 -44 h10 m0 0 h192 m-222 0 h20 m202 0 h20 m-242 0 q10 0 10 10 m222 0 q0 -10 10 -10 m-232 10 v12 m222 0 v-12 m-222 12 q0 10 10 10 m202 0 q10 0 10 -10 m-212 10 h10 m116 0 h10 m0 0 h10 m46 0 h10 m23 -32 h-3"/>
   <polygon points="579 607 587 603 587 611"/>
   <polygon points="579 607 571 603 571 611"/>
</svg>
