<svg xmlns="http://www.w3.org/2000/svg" width="379" height="147">
   <polygon points="9 17 1 13 1 21"/>
   <polygon points="17 17 9 13 9 21"/>
   <rect x="31" y="3" width="76" height="32" rx="10"/>
   <rect x="29"
         y="1"
         width="76"
         height="32"
         class="terminal"
         rx="10"/>
   <text class="terminal" x="39" y="21">CREATE</text>
   <rect x="127" y="3" width="84" height="32" rx="10"/>
   <rect x="125"
         y="1"
         width="84"
         height="32"
         class="terminal"
         rx="10"/>
   <text class="terminal" x="135" y="21">CLUSTER</text>
   <rect x="231" y="3" width="56" height="32"/>
   <rect x="229" y="1" width="56" height="32" class="nonterminal"/>
   <text class="nonterminal" x="239" y="21">name</text>
   <rect x="307" y="3" width="50" height="32" rx="10"/>
   <rect x="305"
         y="1"
         width="50"
         height="32"
         class="terminal"
         rx="10"/>
   <text class="terminal" x="315" y="21">SIZE</text>
   <rect x="175" y="113" width="28" height="32" rx="10"/>
   <rect x="173"
         y="111"
         width="28"
         height="32"
         class="terminal"
         rx="10"/>
   <text class="terminal" x="183" y="131">=</text>
   <rect x="223" y="113" width="54" height="32"/>
   <rect x="221" y="111" width="54" height="32" class="nonterminal"/>
   <text class="nonterminal" x="231" y="131">value</text>
   <rect x="175" y="69" width="112" height="32"/>
   <rect x="173" y="67" width="112" height="32" class="nonterminal"/>
   <text class="nonterminal" x="183" y="87">cluster_option</text>
   <rect x="307" y="69" width="24" height="32" rx="10"/>
   <rect x="305"
         y="67"
         width="24"
         height="32"
         class="terminal"
         rx="10"/>
   <text class="terminal" x="315" y="87">,</text>
   <path class="line"
         d="m17 17 h2 m0 0 h10 m76 0 h10 m0 0 h10 m84 0 h10 m0 0 h10 m56 0 h10 m0 0 h10 m50 0 h10 m2 0 l2 0 m2 0 l2 0 m2 0 l2 0 m-246 110 l2 0 m2 0 l2 0 m2 0 l2 0 m22 0 h10 m28 0 h10 m0 0 h10 m54 0 h10 m0 0 h54 m-196 0 l20 0 m-1 0 q-9 0 -9 -10 l0 -24 q0 -10 10 -10 m176 44 l20 0 m-20 0 q10 0 10 -10 l0 -24 q0 -10 -10 -10 m-176 0 h10 m112 0 h10 m0 0 h10 m24 0 h10 m23 44 h-3"/>
   <polygon points="369 127 377 123 377 131"/>
   <polygon points="369 127 361 123 361 131"/>
</svg>
