<svg xmlns="http://www.w3.org/2000/svg" width="585" height="223">
   <polygon points="9 17 1 13 1 21"/>
   <polygon points="17 17 9 13 9 21"/>
   <rect x="31" y="3" width="74" height="32" rx="10"/>
   <rect x="29"
         y="1"
         width="74"
         height="32"
         class="terminal"
         rx="10"/>
   <text class="terminal" x="39" y="21">CREATE</text>
   <rect x="165" y="35" width="58" height="32" rx="10"/>
   <rect x="163"
         y="33"
         width="58"
         height="32"
         class="terminal"
         rx="10"/>
   <text class="terminal" x="173" y="53">TEMP</text>
   <rect x="165" y="79" width="106" height="32" rx="10"/>
   <rect x="163"
         y="77"
         width="106"
         height="32"
         class="terminal"
         rx="10"/>
   <text class="terminal" x="173" y="97">TEMPORARY</text>
   <rect x="311" y="3" width="54" height="32" rx="10"/>
   <rect x="309"
         y="1"
         width="54"
         height="32"
         class="terminal"
         rx="10"/>
   <text class="terminal" x="319" y="21">VIEW</text>
   <rect x="405" y="35" width="118" height="32" rx="10"/>
   <rect x="403"
         y="33"
         width="118"
         height="32"
         class="terminal"
         rx="10"/>
   <text class="terminal" x="413" y="53">IF NOT EXISTS</text>
   <rect x="145" y="123" width="108" height="32" rx="10"/>
   <rect x="143"
         y="121"
         width="108"
         height="32"
         class="terminal"
         rx="10"/>
   <text class="terminal" x="153" y="141">OR REPLACE</text>
   <rect x="273" y="123" width="54" height="32" rx="10"/>
   <rect x="271"
         y="121"
         width="54"
         height="32"
         class="terminal"
         rx="10"/>
   <text class="terminal" x="281" y="141">VIEW</text>
   <rect x="301" y="189" width="88" height="32"/>
   <rect x="299" y="187" width="88" height="32" class="nonterminal"/>
   <text class="nonterminal" x="309" y="207">view_name</text>
   <rect x="409" y="189" width="38" height="32" rx="10"/>
   <rect x="407"
         y="187"
         width="38"
         height="32"
         class="terminal"
         rx="10"/>
   <text class="terminal" x="417" y="207">AS</text>
   <rect x="467" y="189" width="90" height="32"/>
   <rect x="465" y="187" width="90" height="32" class="nonterminal"/>
   <text class="nonterminal" x="475" y="207">select_stmt</text>
   <path class="line"
         d="m17 17 h2 m0 0 h10 m74 0 h10 m40 0 h10 m0 0 h116 m-146 0 h20 m126 0 h20 m-166 0 q10 0 10 10 m146 0 q0 -10 10 -10 m-156 10 v12 m146 0 v-12 m-146 12 q0 10 10 10 m126 0 q10 0 10 -10 m-136 10 h10 m58 0 h10 m0 0 h48 m-136 -10 v20 m146 0 v-20 m-146 20 v24 m146 0 v-24 m-146 24 q0 10 10 10 m126 0 q10 0 10 -10 m-136 10 h10 m106 0 h10 m20 -76 h10 m54 0 h10 m20 0 h10 m0 0 h128 m-158 0 h20 m138 0 h20 m-178 0 q10 0 10 10 m158 0 q0 -10 10 -10 m-168 10 v12 m158 0 v-12 m-158 12 q0 10 10 10 m138 0 q10 0 10 -10 m-148 10 h10 m118 0 h10 m-418 -32 h20 m418 0 h20 m-458 0 q10 0 10 10 m438 0 q0 -10 10 -10 m-448 10 v100 m438 0 v-100 m-438 100 q0 10 10 10 m418 0 q10 0 10 -10 m-428 10 h10 m108 0 h10 m0 0 h10 m54 0 h10 m0 0 h216 m22 -120 l2 0 m2 0 l2 0 m2 0 l2 0 m-306 186 l2 0 m2 0 l2 0 m2 0 l2 0 m2 0 h10 m88 0 h10 m0 0 h10 m38 0 h10 m0 0 h10 m90 0 h10 m3 0 h-3"/>
   <polygon points="575 203 583 199 583 207"/>
   <polygon points="575 203 567 199 567 207"/>
</svg>
