<svg xmlns="http://www.w3.org/2000/svg" width="327" height="147">
   <polygon points="11 17 3 13 3 21"/>
   <polygon points="19 17 11 13 11 21"/>
   <rect x="33" y="3" width="76" height="32" rx="10"/>
   <rect x="31"
         y="1"
         width="76"
         height="32"
         class="terminal"
         rx="10"/>
   <text class="terminal" x="41" y="21">CREATE</text>
   <rect x="129" y="3" width="84" height="32" rx="10"/>
   <rect x="127"
         y="1"
         width="84"
         height="32"
         class="terminal"
         rx="10"/>
   <text class="terminal" x="137" y="21">CLUSTER</text>
   <rect x="233" y="3" width="56" height="32"/>
   <rect x="231" y="1" width="56" height="32" class="nonterminal"/>
   <text class="nonterminal" x="241" y="21">name</text>
   <rect x="45" y="113" width="112" height="32"/>
   <rect x="43" y="111" width="112" height="32" class="nonterminal"/>
   <text class="nonterminal" x="53" y="131">cluster_option</text>
   <rect x="177" y="113" width="28" height="32" rx="10"/>
   <rect x="175"
         y="111"
         width="28"
         height="32"
         class="terminal"
         rx="10"/>
   <text class="terminal" x="185" y="131">=</text>
   <rect x="225" y="113" width="54" height="32"/>
   <rect x="223" y="111" width="54" height="32" class="nonterminal"/>
   <text class="nonterminal" x="233" y="131">value</text>
   <rect x="45" y="69" width="24" height="32" rx="10"/>
   <rect x="43"
         y="67"
         width="24"
         height="32"
         class="terminal"
         rx="10"/>
   <text class="terminal" x="53" y="87">,</text>
   <path class="line"
         d="m19 17 h2 m0 0 h10 m76 0 h10 m0 0 h10 m84 0 h10 m0 0 h10 m56 0 h10 m2 0 l2 0 m2 0 l2 0 m2 0 l2 0 m-308 110 l2 0 m2 0 l2 0 m2 0 l2 0 m22 0 h10 m112 0 h10 m0 0 h10 m28 0 h10 m0 0 h10 m54 0 h10 m-274 0 l20 0 m-1 0 q-9 0 -9 -10 l0 -24 q0 -10 10 -10 m254 44 l20 0 m-20 0 q10 0 10 -10 l0 -24 q0 -10 -10 -10 m-254 0 h10 m24 0 h10 m0 0 h210 m23 44 h-3"/>
   <polygon points="317 127 325 123 325 131"/>
   <polygon points="317 127 309 123 309 131"/>
</svg>
