<svg xmlns="http://www.w3.org/2000/svg" width="667" height="803">
   <polygon points="9 17 1 13 1 21"/>
   <polygon points="17 17 9 13 9 21"/>
   <rect x="31" y="3" width="140" height="32" rx="10"/>
   <rect x="29"
         y="1"
         width="140"
         height="32"
         class="terminal"
         rx="10"/>
   <text class="terminal" x="39" y="21">CREATE SOURCE</text>
   <rect x="211" y="35" width="120" height="32" rx="10"/>
   <rect x="209"
         y="33"
         width="120"
         height="32"
         class="terminal"
         rx="10"/>
   <text class="terminal" x="219" y="53">IF NOT EXISTS</text>
   <rect x="371" y="3" width="82" height="32"/>
   <rect x="369" y="1" width="82" height="32" class="nonterminal"/>
   <text class="nonterminal" x="379" y="21">src_name</text>
   <rect x="111" y="133" width="104" height="32" rx="10"/>
   <rect x="109"
         y="131"
         width="104"
         height="32"
         class="terminal"
         rx="10"/>
   <text class="terminal" x="119" y="151">IN CLUSTER</text>
   <rect x="235" y="133" width="108" height="32"/>
   <rect x="233" y="131" width="108" height="32" class="nonterminal"/>
   <text class="nonterminal" x="243" y="151">cluster_name</text>
   <rect x="383" y="101" width="196" height="32" rx="10"/>
   <rect x="381"
         y="99"
         width="196"
         height="32"
         class="terminal"
         rx="10"/>
   <text class="terminal" x="391" y="119">FROM LOAD GENERATOR</text>
   <rect x="104" y="243" width="86" height="32" rx="10"/>
   <rect x="102"
         y="241"
         width="86"
         height="32"
         class="terminal"
         rx="10"/>
   <text class="terminal" x="112" y="261">AUCTION</text>
   <rect x="104" y="287" width="88" height="32" rx="10"/>
   <rect x="102"
         y="285"
         width="88"
         height="32"
         class="terminal"
         rx="10"/>
   <text class="terminal" x="112" y="305">COUNTER</text>
   <rect x="104" y="331" width="104" height="32" rx="10"/>
   <rect x="102"
         y="329"
         width="104"
         height="32"
         class="terminal"
         rx="10"/>
   <text class="terminal" x="112" y="349">MARKETING</text>
   <rect x="104" y="375" width="60" height="32" rx="10"/>
   <rect x="102"
         y="373"
         width="60"
         height="32"
         class="terminal"
         rx="10"/>
   <text class="terminal" x="112" y="393">TPCH</text>
   <rect x="268" y="243" width="26" height="32" rx="10"/>
   <rect x="266"
         y="241"
         width="26"
         height="32"
         class="terminal"
         rx="10"/>
   <text class="terminal" x="276" y="261">(</text>
   <rect x="334" y="243" width="166" height="32"/>
   <rect x="332" y="241" width="166" height="32" class="nonterminal"/>
   <text class="nonterminal" x="342" y="261">load_generator_option</text>
   <rect x="334" y="199" width="24" height="32" rx="10"/>
   <rect x="332"
         y="197"
         width="24"
         height="32"
         class="terminal"
         rx="10"/>
   <text class="terminal" x="342" y="217">,</text>
   <rect x="540" y="243" width="26" height="32" rx="10"/>
   <rect x="538"
         y="241"
         width="26"
         height="32"
         class="terminal"
         rx="10"/>
   <text class="terminal" x="548" y="261">)</text>
   <rect x="45" y="441" width="138" height="32" rx="10"/>
   <rect x="43"
         y="439"
         width="138"
         height="32"
         class="terminal"
         rx="10"/>
   <text class="terminal" x="53" y="459">FOR ALL TABLES</text>
   <rect x="45" y="529" width="106" height="32" rx="10"/>
   <rect x="43"
         y="527"
         width="106"
         height="32"
         class="terminal"
         rx="10"/>
   <text class="terminal" x="53" y="547">FOR TABLES</text>
   <rect x="171" y="529" width="26" height="32" rx="10"/>
   <rect x="169"
         y="527"
         width="26"
         height="32"
         class="terminal"
         rx="10"/>
   <text class="terminal" x="179" y="547">(</text>
   <rect x="237" y="529" width="96" height="32"/>
   <rect x="235" y="527" width="96" height="32" class="nonterminal"/>
   <text class="nonterminal" x="245" y="547">table_name</text>
   <rect x="373" y="561" width="40" height="32" rx="10"/>
   <rect x="371"
         y="559"
         width="40"
         height="32"
         class="terminal"
         rx="10"/>
   <text class="terminal" x="381" y="579">AS</text>
   <rect x="433" y="561" width="106" height="32"/>
   <rect x="431" y="559" width="106" height="32" class="nonterminal"/>
   <text class="nonterminal" x="441" y="579">subsrc_name</text>
   <rect x="237" y="485" width="24" height="32" rx="10"/>
   <rect x="235"
         y="483"
         width="24"
         height="32"
         class="terminal"
         rx="10"/>
   <text class="terminal" x="245" y="503">,</text>
   <rect x="599" y="529" width="26" height="32" rx="10"/>
   <rect x="597"
         y="527"
         width="26"
         height="32"
         class="terminal"
         rx="10"/>
   <text class="terminal" x="607" y="547">)</text>
   <rect x="101" y="643" width="76" height="32" rx="10"/>
   <rect x="99"
         y="641"
         width="76"
         height="32"
         class="terminal"
         rx="10"/>
   <text class="terminal" x="109" y="661">EXPOSE</text>
   <rect x="197" y="643" width="96" height="32" rx="10"/>
   <rect x="195"
         y="641"
         width="96"
         height="32"
         class="terminal"
         rx="10"/>
   <text class="terminal" x="205" y="661">PROGRESS</text>
   <rect x="313" y="643" width="40" height="32" rx="10"/>
   <rect x="311"
         y="641"
         width="40"
         height="32"
         class="terminal"
         rx="10"/>
   <text class="terminal" x="321" y="661">AS</text>
   <rect x="373" y="643" width="196" height="32"/>
   <rect x="371" y="641" width="196" height="32" class="nonterminal"/>
   <text class="nonterminal" x="381" y="661">progress_subsource_name</text>
   <rect x="255" y="753" width="58" height="32" rx="10"/>
   <rect x="253"
         y="751"
         width="58"
         height="32"
         class="terminal"
         rx="10"/>
   <text class="terminal" x="263" y="771">WITH</text>
   <rect x="333" y="753" width="26" height="32" rx="10"/>
   <rect x="331"
         y="751"
         width="26"
         height="32"
         class="terminal"
         rx="10"/>
   <text class="terminal" x="341" y="771">(</text>
   <rect x="399" y="753" width="48" height="32"/>
   <rect x="397" y="751" width="48" height="32" class="nonterminal"/>
   <text class="nonterminal" x="407" y="771">field</text>
   <rect x="467" y="753" width="28" height="32" rx="10"/>
   <rect x="465"
         y="751"
         width="28"
         height="32"
         class="terminal"
         rx="10"/>
   <text class="terminal" x="475" y="771">=</text>
   <rect x="515" y="753" width="38" height="32"/>
   <rect x="513" y="751" width="38" height="32" class="nonterminal"/>
   <text class="nonterminal" x="523" y="771">val</text>
   <rect x="399" y="709" width="24" height="32" rx="10"/>
   <rect x="397"
         y="707"
         width="24"
         height="32"
         class="terminal"
         rx="10"/>
   <text class="terminal" x="407" y="727">,</text>
   <rect x="593" y="753" width="26" height="32" rx="10"/>
   <rect x="591"
         y="751"
         width="26"
         height="32"
         class="terminal"
         rx="10"/>
   <text class="terminal" x="601" y="771">)</text>
   <path class="line"
         d="m17 17 h2 m0 0 h10 m140 0 h10 m20 0 h10 m0 0 h130 m-160 0 h20 m140 0 h20 m-180 0 q10 0 10 10 m160 0 q0 -10 10 -10 m-170 10 v12 m160 0 v-12 m-160 12 q0 10 10 10 m140 0 q10 0 10 -10 m-150 10 h10 m120 0 h10 m20 -32 h10 m82 0 h10 m2 0 l2 0 m2 0 l2 0 m2 0 l2 0 m-406 98 l2 0 m2 0 l2 0 m2 0 l2 0 m22 0 h10 m0 0 h242 m-272 0 h20 m252 0 h20 m-292 0 q10 0 10 10 m272 0 q0 -10 10 -10 m-282 10 v12 m272 0 v-12 m-272 12 q0 10 10 10 m252 0 q10 0 10 -10 m-262 10 h10 m104 0 h10 m0 0 h10 m108 0 h10 m20 -32 h10 m196 0 h10 m2 0 l2 0 m2 0 l2 0 m2 0 l2 0 m-539 142 l2 0 m2 0 l2 0 m2 0 l2 0 m22 0 h10 m86 0 h10 m0 0 h18 m-144 0 h20 m124 0 h20 m-164 0 q10 0 10 10 m144 0 q0 -10 10 -10 m-154 10 v24 m144 0 v-24 m-144 24 q0 10 10 10 m124 0 q10 0 10 -10 m-134 10 h10 m88 0 h10 m0 0 h16 m-134 -10 v20 m144 0 v-20 m-144 20 v24 m144 0 v-24 m-144 24 q0 10 10 10 m124 0 q10 0 10 -10 m-134 10 h10 m104 0 h10 m-134 -10 v20 m144 0 v-20 m-144 20 v24 m144 0 v-24 m-144 24 q0 10 10 10 m124 0 q10 0 10 -10 m-134 10 h10 m60 0 h10 m0 0 h44 m40 -132 h10 m26 0 h10 m20 0 h10 m166 0 h10 m-206 0 l20 0 m-1 0 q-9 0 -9 -10 l0 -24 q0 -10 10 -10 m186 44 l20 0 m-20 0 q10 0 10 -10 l0 -24 q0 -10 -10 -10 m-186 0 h10 m24 0 h10 m0 0 h142 m20 44 h10 m26 0 h10 m-338 0 h20 m318 0 h20 m-358 0 q10 0 10 10 m338 0 q0 -10 10 -10 m-348 10 v14 m338 0 v-14 m-338 14 q0 10 10 10 m318 0 q10 0 10 -10 m-328 10 h10 m0 0 h308 m22 -34 l2 0 m2 0 l2 0 m2 0 l2 0 m-605 198 l2 0 m2 0 l2 0 m2 0 l2 0 m22 0 h10 m138 0 h10 m0 0 h442 m-620 0 h20 m600 0 h20 m-640 0 q10 0 10 10 m620 0 q0 -10 10 -10 m-630 10 v68 m620 0 v-68 m-620 68 q0 10 10 10 m600 0 q10 0 10 -10 m-610 10 h10 m106 0 h10 m0 0 h10 m26 0 h10 m20 0 h10 m96 0 h10 m20 0 h10 m0 0 h176 m-206 0 h20 m186 0 h20 m-226 0 q10 0 10 10 m206 0 q0 -10 10 -10 m-216 10 v12 m206 0 v-12 m-206 12 q0 10 10 10 m186 0 q10 0 10 -10 m-196 10 h10 m40 0 h10 m0 0 h10 m106 0 h10 m-342 -32 l20 0 m-1 0 q-9 0 -9 -10 l0 -24 q0 -10 10 -10 m342 44 l20 0 m-20 0 q10 0 10 -10 l0 -24 q0 -10 -10 -10 m-342 0 h10 m24 0 h10 m0 0 h298 m20 44 h10 m26 0 h10 m22 -88 l2 0 m2 0 l2 0 m2 0 l2 0 m-608 170 l2 0 m2 0 l2 0 m2 0 l2 0 m22 0 h10 m0 0 h478 m-508 0 h20 m488 0 h20 m-528 0 q10 0 10 10 m508 0 q0 -10 10 -10 m-518 10 v12 m508 0 v-12 m-508 12 q0 10 10 10 m488 0 q10 0 10 -10 m-498 10 h10 m76 0 h10 m0 0 h10 m96 0 h10 m0 0 h10 m40 0 h10 m0 0 h10 m196 0 h10 m22 -32 l2 0 m2 0 l2 0 m2 0 l2 0 m-398 142 l2 0 m2 0 l2 0 m2 0 l2 0 m22 0 h10 m58 0 h10 m0 0 h10 m26 0 h10 m20 0 h10 m48 0 h10 m0 0 h10 m28 0 h10 m0 0 h10 m38 0 h10 m-194 0 l20 0 m-1 0 q-9 0 -9 -10 l0 -24 q0 -10 10 -10 m174 44 l20 0 m-20 0 q10 0 10 -10 l0 -24 q0 -10 -10 -10 m-174 0 h10 m24 0 h10 m0 0 h130 m20 44 h10 m26 0 h10 m-404 0 h20 m384 0 h20 m-424 0 q10 0 10 10 m404 0 q0 -10 10 -10 m-414 10 v14 m404 0 v-14 m-404 14 q0 10 10 10 m384 0 q10 0 10 -10 m-394 10 h10 m0 0 h374 m23 -34 h-3"/>
   <polygon points="657 767 665 763 665 771"/>
   <polygon points="657 767 649 763 649 771"/>
</svg>
