<svg xmlns="http://www.w3.org/2000/svg" width="591" height="725">
   <polygon points="9 17 1 13 1 21"/>
   <polygon points="17 17 9 13 9 21"/>
   <rect x="31" y="3" width="76" height="32" rx="10"/>
   <rect x="29"
         y="1"
         width="76"
         height="32"
         class="terminal"
         rx="10"/>
   <text class="terminal" x="39" y="21">CREATE</text>
   <rect x="147" y="35" width="124" height="32" rx="10"/>
   <rect x="145"
         y="33"
         width="124"
         height="32"
         class="terminal"
         rx="10"/>
   <text class="terminal" x="155" y="53">MATERIALIZED</text>
   <rect x="311" y="3" width="78" height="32" rx="10"/>
   <rect x="309"
         y="1"
         width="78"
         height="32"
         class="terminal"
         rx="10"/>
   <text class="terminal" x="319" y="21">SOURCE</text>
   <rect x="429" y="35" width="120" height="32" rx="10"/>
   <rect x="427"
         y="33"
         width="120"
         height="32"
         class="terminal"
         rx="10"/>
   <text class="terminal" x="437" y="53">IF NOT EXISTS</text>
   <rect x="96" y="101" width="82" height="32"/>
   <rect x="94" y="99" width="82" height="32" class="nonterminal"/>
   <text class="nonterminal" x="104" y="119">src_name</text>
   <rect x="198" y="101" width="60" height="32" rx="10"/>
   <rect x="196"
         y="99"
         width="60"
         height="32"
         class="terminal"
         rx="10"/>
   <text class="terminal" x="206" y="119">FROM</text>
   <rect x="278" y="101" width="38" height="32" rx="10"/>
   <rect x="276"
         y="99"
         width="38"
         height="32"
         class="terminal"
         rx="10"/>
   <text class="terminal" x="286" y="119">S3</text>
   <rect x="336" y="101" width="162" height="32" rx="10"/>
   <rect x="334"
         y="99"
         width="162"
         height="32"
         class="terminal"
         rx="10"/>
   <text class="terminal" x="344" y="119">DISCOVER OBJECTS</text>
   <rect x="162" y="199" width="98" height="32" rx="10"/>
   <rect x="160"
         y="197"
         width="98"
         height="32"
         class="terminal"
         rx="10"/>
   <text class="terminal" x="170" y="217">MATCHING</text>
   <rect x="280" y="199" width="68" height="32"/>
   <rect x="278" y="197" width="68" height="32" class="nonterminal"/>
   <text class="nonterminal" x="288" y="217">pattern</text>
   <rect x="388" y="167" width="64" height="32" rx="10"/>
   <rect x="386"
         y="165"
         width="64"
         height="32"
         class="terminal"
         rx="10"/>
   <text class="terminal" x="396" y="185">USING</text>
   <rect x="153" y="309" width="122" height="32" rx="10"/>
   <rect x="151"
         y="307"
         width="122"
         height="32"
         class="terminal"
         rx="10"/>
   <text class="terminal" x="161" y="327">BUCKET SCAN</text>
   <rect x="295" y="309" width="108" height="32"/>
   <rect x="293" y="307" width="108" height="32" class="nonterminal"/>
   <text class="nonterminal" x="303" y="327">bucket_name</text>
   <rect x="153" y="353" width="164" height="32" rx="10"/>
   <rect x="151"
         y="351"
         width="164"
         height="32"
         class="terminal"
         rx="10"/>
   <text class="terminal" x="161" y="371">SQS NOTIFICATIONS</text>
   <rect x="337" y="353" width="104" height="32"/>
   <rect x="335" y="351" width="104" height="32" class="nonterminal"/>
   <text class="nonterminal" x="345" y="371">queue_name</text>
   <rect x="133" y="265" width="24" height="32" rx="10"/>
   <rect x="131"
         y="263"
         width="24"
         height="32"
         class="terminal"
         rx="10"/>
   <text class="terminal" x="141" y="283">,</text>
   <rect x="65" y="451" width="124" height="32" rx="10"/>
   <rect x="63"
         y="449"
         width="124"
         height="32"
         class="terminal"
         rx="10"/>
   <text class="terminal" x="73" y="469">COMPRESSION</text>
   <rect x="229" y="451" width="60" height="32" rx="10"/>
   <rect x="227"
         y="449"
         width="60"
         height="32"
         class="terminal"
         rx="10"/>
   <text class="terminal" x="237" y="469">NONE</text>
   <rect x="229" y="495" width="52" height="32" rx="10"/>
   <rect x="227"
         y="493"
         width="52"
         height="32"
         class="terminal"
         rx="10"/>
   <text class="terminal" x="237" y="513">GZIP</text>
   <rect x="349" y="419" width="58" height="32" rx="10"/>
   <rect x="347"
         y="417"
         width="58"
         height="32"
         class="terminal"
         rx="10"/>
   <text class="terminal" x="357" y="437">WITH</text>
   <rect x="427" y="419" width="26" height="32" rx="10"/>
   <rect x="425"
         y="417"
         width="26"
         height="32"
         class="terminal"
         rx="10"/>
   <text class="terminal" x="435" y="437">(</text>
   <rect x="473" y="419" width="76" height="32" rx="10"/>
   <rect x="471"
         y="417"
         width="76"
         height="32"
         class="terminal"
         rx="10"/>
   <text class="terminal" x="481" y="437">region =</text>
   <rect x="37" y="561" width="62" height="32"/>
   <rect x="35" y="559" width="62" height="32" class="nonterminal"/>
   <text class="nonterminal" x="45" y="579">region</text>
   <rect x="139" y="593" width="126" height="32"/>
   <rect x="137" y="591" width="126" height="32" class="nonterminal"/>
   <text class="nonterminal" x="147" y="611">aws_credentials</text>
   <rect x="305" y="561" width="26" height="32" rx="10"/>
   <rect x="303"
         y="559"
         width="26"
         height="32"
         class="terminal"
         rx="10"/>
   <text class="terminal" x="313" y="579">)</text>
   <rect x="351" y="561" width="80" height="32" rx="10"/>
   <rect x="349"
         y="559"
         width="80"
         height="32"
         class="terminal"
         rx="10"/>
   <text class="terminal" x="359" y="579">FORMAT</text>
   <rect x="471" y="561" width="56" height="32" rx="10"/>
   <rect x="469"
         y="559"
         width="56"
         height="32"
         class="terminal"
         rx="10"/>
   <text class="terminal" x="479" y="579">TEXT</text>
   <rect x="471" y="605" width="66" height="32" rx="10"/>
   <rect x="469"
         y="603"
         width="66"
         height="32"
         class="terminal"
         rx="10"/>
   <text class="terminal" x="479" y="623">BYTES</text>
   <rect x="405" y="691" width="138" height="32" rx="10"/>
   <rect x="403"
         y="689"
         width="138"
         height="32"
         class="terminal"
         rx="10"/>
   <text class="terminal" x="413" y="709">ENVELOPE NONE</text>
   <path class="line"
         d="m17 17 h2 m0 0 h10 m76 0 h10 m20 0 h10 m0 0 h134 m-164 0 h20 m144 0 h20 m-184 0 q10 0 10 10 m164 0 q0 -10 10 -10 m-174 10 v12 m164 0 v-12 m-164 12 q0 10 10 10 m144 0 q10 0 10 -10 m-154 10 h10 m124 0 h10 m20 -32 h10 m78 0 h10 m20 0 h10 m0 0 h130 m-160 0 h20 m140 0 h20 m-180 0 q10 0 10 10 m160 0 q0 -10 10 -10 m-170 10 v12 m160 0 v-12 m-160 12 q0 10 10 10 m140 0 q10 0 10 -10 m-150 10 h10 m120 0 h10 m22 -32 l2 0 m2 0 l2 0 m2 0 l2 0 m-517 98 l2 0 m2 0 l2 0 m2 0 l2 0 m2 0 h10 m82 0 h10 m0 0 h10 m60 0 h10 m0 0 h10 m38 0 h10 m0 0 h10 m162 0 h10 m2 0 l2 0 m2 0 l2 0 m2 0 l2 0 m-400 66 l2 0 m2 0 l2 0 m2 0 l2 0 m22 0 h10 m0 0 h196 m-226 0 h20 m206 0 h20 m-246 0 q10 0 10 10 m226 0 q0 -10 10 -10 m-236 10 v12 m226 0 v-12 m-226 12 q0 10 10 10 m206 0 q10 0 10 -10 m-216 10 h10 m98 0 h10 m0 0 h10 m68 0 h10 m20 -32 h10 m64 0 h10 m2 0 l2 0 m2 0 l2 0 m2 0 l2 0 m-383 142 l2 0 m2 0 l2 0 m2 0 l2 0 m42 0 h10 m122 0 h10 m0 0 h10 m108 0 h10 m0 0 h38 m-328 0 h20 m308 0 h20 m-348 0 q10 0 10 10 m328 0 q0 -10 10 -10 m-338 10 v24 m328 0 v-24 m-328 24 q0 10 10 10 m308 0 q10 0 10 -10 m-318 10 h10 m164 0 h10 m0 0 h10 m104 0 h10 m-348 -44 l20 0 m-1 0 q-9 0 -9 -10 l0 -24 q0 -10 10 -10 m348 44 l20 0 m-20 0 q10 0 10 -10 l0 -24 q0 -10 -10 -10 m-348 0 h10 m24 0 h10 m0 0 h304 m22 44 l2 0 m2 0 l2 0 m2 0 l2 0 m-480 110 l2 0 m2 0 l2 0 m2 0 l2 0 m22 0 h10 m0 0 h254 m-284 0 h20 m264 0 h20 m-304 0 q10 0 10 10 m284 0 q0 -10 10 -10 m-294 10 v12 m284 0 v-12 m-284 12 q0 10 10 10 m264 0 q10 0 10 -10 m-274 10 h10 m124 0 h10 m20 0 h10 m60 0 h10 m-100 0 h20 m80 0 h20 m-120 0 q10 0 10 10 m100 0 q0 -10 10 -10 m-110 10 v24 m100 0 v-24 m-100 24 q0 10 10 10 m80 0 q10 0 10 -10 m-90 10 h10 m52 0 h10 m0 0 h8 m40 -76 h10 m58 0 h10 m0 0 h10 m26 0 h10 m0 0 h10 m76 0 h10 m2 0 l2 0 m2 0 l2 0 m2 0 l2 0 m-556 142 l2 0 m2 0 l2 0 m2 0 l2 0 m2 0 h10 m62 0 h10 m20 0 h10 m0 0 h136 m-166 0 h20 m146 0 h20 m-186 0 q10 0 10 10 m166 0 q0 -10 10 -10 m-176 10 v12 m166 0 v-12 m-166 12 q0 10 10 10 m146 0 q10 0 10 -10 m-156 10 h10 m126 0 h10 m20 -32 h10 m26 0 h10 m0 0 h10 m80 0 h10 m20 0 h10 m56 0 h10 m0 0 h10 m-106 0 h20 m86 0 h20 m-126 0 q10 0 10 10 m106 0 q0 -10 10 -10 m-116 10 v24 m106 0 v-24 m-106 24 q0 10 10 10 m86 0 q10 0 10 -10 m-96 10 h10 m66 0 h10 m22 -44 l2 0 m2 0 l2 0 m2 0 l2 0 m-216 98 l2 0 m2 0 l2 0 m2 0 l2 0 m22 0 h10 m0 0 h148 m-178 0 h20 m158 0 h20 m-198 0 q10 0 10 10 m178 0 q0 -10 10 -10 m-188 10 v12 m178 0 v-12 m-178 12 q0 10 10 10 m158 0 q10 0 10 -10 m-168 10 h10 m138 0 h10 m23 -32 h-3"/>
   <polygon points="581 673 589 669 589 677"/>
   <polygon points="581 673 573 669 573 677"/>
</svg>
