<svg xmlns="http://www.w3.org/2000/svg" width="735" height="329">
   <polygon points="11 17 3 13 3 21"/>
   <polygon points="19 17 11 13 11 21"/>
   <rect x="33" y="3" width="76" height="32" rx="10"/>
   <rect x="31"
         y="1"
         width="76"
         height="32"
         class="terminal"
         rx="10"/>
   <text class="terminal" x="41" y="21">CREATE</text>
   <rect x="149" y="35" width="124" height="32" rx="10"/>
   <rect x="147"
         y="33"
         width="124"
         height="32"
         class="terminal"
         rx="10"/>
   <text class="terminal" x="157" y="53">MATERIALIZED</text>
   <rect x="333" y="35" width="60" height="32" rx="10"/>
   <rect x="331"
         y="33"
         width="60"
         height="32"
         class="terminal"
         rx="10"/>
   <text class="terminal" x="341" y="53">TEMP</text>
   <rect x="333" y="79" width="110" height="32" rx="10"/>
   <rect x="331"
         y="77"
         width="110"
         height="32"
         class="terminal"
         rx="10"/>
   <text class="terminal" x="341" y="97">TEMPORARY</text>
   <rect x="483" y="3" width="66" height="32" rx="10"/>
   <rect x="481"
         y="1"
         width="66"
         height="32"
         class="terminal"
         rx="10"/>
   <text class="terminal" x="491" y="21">VIEWS</text>
   <rect x="124" y="177" width="120" height="32" rx="10"/>
   <rect x="122"
         y="175"
         width="120"
         height="32"
         class="terminal"
         rx="10"/>
   <text class="terminal" x="132" y="195">IF NOT EXISTS</text>
   <rect x="284" y="145" width="60" height="32" rx="10"/>
   <rect x="282"
         y="143"
         width="60"
         height="32"
         class="terminal"
         rx="10"/>
   <text class="terminal" x="292" y="163">FROM</text>
   <rect x="364" y="145" width="78" height="32" rx="10"/>
   <rect x="362"
         y="143"
         width="78"
         height="32"
         class="terminal"
         rx="10"/>
   <text class="terminal" x="372" y="163">SOURCE</text>
   <rect x="462" y="145" width="26" height="32" rx="10"/>
   <rect x="460"
         y="143"
         width="26"
         height="32"
         class="terminal"
         rx="10"/>
   <text class="terminal" x="470" y="163">"</text>
   <rect x="508" y="145" width="82" height="32"/>
   <rect x="506" y="143" width="82" height="32" class="nonterminal"/>
   <text class="nonterminal" x="516" y="163">src_name</text>
   <rect x="610" y="145" width="26" height="32" rx="10"/>
   <rect x="608"
         y="143"
         width="26"
         height="32"
         class="terminal"
         rx="10"/>
   <text class="terminal" x="618" y="163">"</text>
   <rect x="45" y="263" width="26" height="32" rx="10"/>
   <rect x="43"
         y="261"
         width="26"
         height="32"
         class="terminal"
         rx="10"/>
   <text class="terminal" x="53" y="281">(</text>
   <rect x="91" y="263" width="26" height="32" rx="10"/>
   <rect x="89"
         y="261"
         width="26"
         height="32"
         class="terminal"
         rx="10"/>
   <text class="terminal" x="99" y="281">"</text>
   <rect x="137" y="263" width="122" height="32"/>
   <rect x="135" y="261" width="122" height="32" class="nonterminal"/>
   <text class="nonterminal" x="145" y="281">upstream_table</text>
   <rect x="279" y="263" width="26" height="32" rx="10"/>
   <rect x="277"
         y="261"
         width="26"
         height="32"
         class="terminal"
         rx="10"/>
   <text class="terminal" x="287" y="281">"</text>
   <rect x="345" y="295" width="38" height="32"/>
   <rect x="343" y="293" width="38" height="32" class="nonterminal"/>
   <text class="nonterminal" x="353" y="313">AS</text>
   <rect x="403" y="295" width="26" height="32" rx="10"/>
   <rect x="401"
         y="293"
         width="26"
         height="32"
         class="terminal"
         rx="10"/>
   <text class="terminal" x="411" y="313">"</text>
   <rect x="449" y="295" width="126" height="32"/>
   <rect x="447" y="293" width="126" height="32" class="nonterminal"/>
   <text class="nonterminal" x="457" y="313">new_view_name</text>
   <rect x="595" y="295" width="26" height="32" rx="10"/>
   <rect x="593"
         y="293"
         width="26"
         height="32"
         class="terminal"
         rx="10"/>
   <text class="terminal" x="603" y="313">"</text>
   <rect x="661" y="263" width="26" height="32" rx="10"/>
   <rect x="659"
         y="261"
         width="26"
         height="32"
         class="terminal"
         rx="10"/>
   <text class="terminal" x="669" y="281">)</text>
   <path class="line"
         d="m19 17 h2 m0 0 h10 m76 0 h10 m20 0 h10 m0 0 h134 m-164 0 h20 m144 0 h20 m-184 0 q10 0 10 10 m164 0 q0 -10 10 -10 m-174 10 v12 m164 0 v-12 m-164 12 q0 10 10 10 m144 0 q10 0 10 -10 m-154 10 h10 m124 0 h10 m40 -32 h10 m0 0 h120 m-150 0 h20 m130 0 h20 m-170 0 q10 0 10 10 m150 0 q0 -10 10 -10 m-160 10 v12 m150 0 v-12 m-150 12 q0 10 10 10 m130 0 q10 0 10 -10 m-140 10 h10 m60 0 h10 m0 0 h50 m-140 -10 v20 m150 0 v-20 m-150 20 v24 m150 0 v-24 m-150 24 q0 10 10 10 m130 0 q10 0 10 -10 m-140 10 h10 m110 0 h10 m20 -76 h10 m66 0 h10 m2 0 l2 0 m2 0 l2 0 m2 0 l2 0 m-489 142 l2 0 m2 0 l2 0 m2 0 l2 0 m22 0 h10 m0 0 h130 m-160 0 h20 m140 0 h20 m-180 0 q10 0 10 10 m160 0 q0 -10 10 -10 m-170 10 v12 m160 0 v-12 m-160 12 q0 10 10 10 m140 0 q10 0 10 -10 m-150 10 h10 m120 0 h10 m20 -32 h10 m60 0 h10 m0 0 h10 m78 0 h10 m0 0 h10 m26 0 h10 m0 0 h10 m82 0 h10 m0 0 h10 m26 0 h10 m2 0 l2 0 m2 0 l2 0 m2 0 l2 0 m-655 86 l2 0 m2 0 l2 0 m2 0 l2 0 m22 0 h10 m0 0 h652 m-682 0 h20 m662 0 h20 m-702 0 q10 0 10 10 m682 0 q0 -10 10 -10 m-692 10 v12 m682 0 v-12 m-682 12 q0 10 10 10 m662 0 q10 0 10 -10 m-672 10 h10 m26 0 h10 m0 0 h10 m26 0 h10 m0 0 h10 m122 0 h10 m0 0 h10 m26 0 h10 m20 0 h10 m0 0 h286 m-316 0 h20 m296 0 h20 m-336 0 q10 0 10 10 m316 0 q0 -10 10 -10 m-326 10 v12 m316 0 v-12 m-316 12 q0 10 10 10 m296 0 q10 0 10 -10 m-306 10 h10 m38 0 h10 m0 0 h10 m26 0 h10 m0 0 h10 m126 0 h10 m0 0 h10 m26 0 h10 m20 -32 h10 m26 0 h10 m23 -32 h-3"/>
   <polygon points="725 245 733 241 733 249"/>
   <polygon points="725 245 717 241 717 249"/>
</svg>
