<svg xmlns="http://www.w3.org/2000/svg" width="497" height="203">
   <polygon points="9 183 1 179 1 187"/>
   <polygon points="17 183 9 179 9 187"/>
   <rect x="31" y="169" width="74" height="32" rx="10"/>
   <rect x="29"
         y="167"
         width="74"
         height="32"
         class="terminal"
         rx="10"/>
   <text class="terminal" x="39" y="187">CREATE</text>
   <rect x="125" y="169" width="56" height="32" rx="10"/>
   <rect x="123"
         y="167"
         width="56"
         height="32"
         class="terminal"
         rx="10"/>
   <text class="terminal" x="133" y="187">ROLE</text>
   <rect x="201" y="169" width="84" height="32"/>
   <rect x="199" y="167" width="84" height="32" class="nonterminal"/>
   <text class="nonterminal" x="209" y="187">role_name</text>
   <rect x="325" y="135" width="62" height="32" rx="10"/>
   <rect x="323"
         y="133"
         width="62"
         height="32"
         class="terminal"
         rx="10"/>
   <text class="terminal" x="333" y="153">LOGIN</text>
   <rect x="325" y="91" width="84" height="32" rx="10"/>
   <rect x="323"
         y="89"
         width="84"
         height="32"
         class="terminal"
         rx="10"/>
   <text class="terminal" x="333" y="109">NOLOGIN</text>
   <rect x="325" y="47" width="102" height="32" rx="10"/>
   <rect x="323"
         y="45"
         width="102"
         height="32"
         class="terminal"
         rx="10"/>
   <text class="terminal" x="333" y="65">SUPERUSER</text>
   <rect x="325" y="3" width="124" height="32" rx="10"/>
   <rect x="323"
         y="1"
         width="124"
         height="32"
         class="terminal"
         rx="10"/>
   <text class="terminal" x="333" y="21">NOSUPERUSER</text>
   <path class="line"
         d="m17 183 h2 m0 0 h10 m74 0 h10 m0 0 h10 m56 0 h10 m0 0 h10 m84 0 h10 m20 0 h10 m0 0 h134 m-164 0 l20 0 m-1 0 q-9 0 -9 -10 l0 -14 q0 -10 10 -10 m144 34 l20 0 m-20 0 q10 0 10 -10 l0 -14 q0 -10 -10 -10 m-144 0 h10 m62 0 h10 m0 0 h62 m-154 10 l0 -44 q0 -10 10 -10 m154 54 l0 -44 q0 -10 -10 -10 m-144 0 h10 m84 0 h10 m0 0 h40 m-154 10 l0 -44 q0 -10 10 -10 m154 54 l0 -44 q0 -10 -10 -10 m-144 0 h10 m102 0 h10 m0 0 h22 m-154 10 l0 -44 q0 -10 10 -10 m154 54 l0 -44 q0 -10 -10 -10 m-144 0 h10 m124 0 h10 m23 166 h-3"/>
   <polygon points="487 183 495 179 495 187"/>
   <polygon points="487 183 479 179 479 187"/>
</svg>
