<svg xmlns="http://www.w3.org/2000/svg" width="667" height="901">
   <polygon points="9 17 1 13 1 21"/>
   <polygon points="17 17 9 13 9 21"/>
   <rect x="31" y="3" width="140" height="32" rx="10"/>
   <rect x="29"
         y="1"
         width="140"
         height="32"
         class="terminal"
         rx="10"/>
   <text class="terminal" x="39" y="21">CREATE SOURCE</text>
   <rect x="211" y="35" width="120" height="32" rx="10"/>
   <rect x="209"
         y="33"
         width="120"
         height="32"
         class="terminal"
         rx="10"/>
   <text class="terminal" x="219" y="53">IF NOT EXISTS</text>
   <rect x="371" y="3" width="82" height="32"/>
   <rect x="369" y="1" width="82" height="32" class="nonterminal"/>
   <text class="nonterminal" x="379" y="21">src_name</text>
   <rect x="121" y="133" width="104" height="32" rx="10"/>
   <rect x="119"
         y="131"
         width="104"
         height="32"
         class="terminal"
         rx="10"/>
   <text class="terminal" x="129" y="151">IN CLUSTER</text>
   <rect x="245" y="133" width="108" height="32"/>
   <rect x="243" y="131" width="108" height="32" class="nonterminal"/>
   <text class="nonterminal" x="253" y="151">cluster_name</text>
   <rect x="393" y="101" width="60" height="32" rx="10"/>
   <rect x="391"
         y="99"
         width="60"
         height="32"
         class="terminal"
         rx="10"/>
   <text class="terminal" x="401" y="119">FROM</text>
   <rect x="473" y="101" width="96" height="32" rx="10"/>
   <rect x="471"
         y="99"
         width="96"
         height="32"
         class="terminal"
         rx="10"/>
   <text class="terminal" x="481" y="119">POSTGRES</text>
   <rect x="108" y="199" width="116" height="32" rx="10"/>
   <rect x="106"
         y="197"
         width="116"
         height="32"
         class="terminal"
         rx="10"/>
   <text class="terminal" x="116" y="217">CONNECTION</text>
   <rect x="244" y="199" width="136" height="32"/>
   <rect x="242" y="197" width="136" height="32" class="nonterminal"/>
   <text class="nonterminal" x="252" y="217">connection_name</text>
   <rect x="400" y="199" width="26" height="32" rx="10"/>
   <rect x="398"
         y="197"
         width="26"
         height="32"
         class="terminal"
         rx="10"/>
   <text class="terminal" x="408" y="217">(</text>
   <rect x="446" y="199" width="116" height="32" rx="10"/>
   <rect x="444"
         y="197"
         width="116"
         height="32"
         class="terminal"
         rx="10"/>
   <text class="terminal" x="454" y="217">PUBLICATION</text>
   <rect x="268" y="265" width="134" height="32"/>
   <rect x="266" y="263" width="134" height="32" class="nonterminal"/>
   <text class="nonterminal" x="276" y="283">publication_name</text>
   <rect x="95" y="375" width="24" height="32" rx="10"/>
   <rect x="93"
         y="373"
         width="24"
         height="32"
         class="terminal"
         rx="10"/>
   <text class="terminal" x="103" y="393">,</text>
   <rect x="139" y="375" width="134" height="32" rx="10"/>
   <rect x="137"
         y="373"
         width="134"
         height="32"
         class="terminal"
         rx="10"/>
   <text class="terminal" x="147" y="393">TEXT COLUMNS</text>
   <rect x="313" y="375" width="26" height="32" rx="10"/>
   <rect x="311"
         y="373"
         width="26"
         height="32"
         class="terminal"
         rx="10"/>
   <text class="terminal" x="321" y="393">(</text>
   <rect x="379" y="375" width="110" height="32"/>
   <rect x="377" y="373" width="110" height="32" class="nonterminal"/>
   <text class="nonterminal" x="387" y="393">column_name</text>
   <rect x="379" y="331" width="24" height="32" rx="10"/>
   <rect x="377"
         y="329"
         width="24"
         height="32"
         class="terminal"
         rx="10"/>
   <text class="terminal" x="387" y="349">,</text>
   <rect x="529" y="375" width="26" height="32" rx="10"/>
   <rect x="527"
         y="373"
         width="26"
         height="32"
         class="terminal"
         rx="10"/>
   <text class="terminal" x="537" y="393">)</text>
   <rect x="322" y="473" width="26" height="32" rx="10"/>
   <rect x="320"
         y="471"
         width="26"
         height="32"
         class="terminal"
         rx="10"/>
   <text class="terminal" x="330" y="491">)</text>
   <rect x="45" y="539" width="138" height="32" rx="10"/>
   <rect x="43"
         y="537"
         width="138"
         height="32"
         class="terminal"
         rx="10"/>
   <text class="terminal" x="53" y="557">FOR ALL TABLES</text>
   <rect x="45" y="627" width="106" height="32" rx="10"/>
   <rect x="43"
         y="625"
         width="106"
         height="32"
         class="terminal"
         rx="10"/>
   <text class="terminal" x="53" y="645">FOR TABLES</text>
   <rect x="171" y="627" width="26" height="32" rx="10"/>
   <rect x="169"
         y="625"
         width="26"
         height="32"
         class="terminal"
         rx="10"/>
   <text class="terminal" x="179" y="645">(</text>
   <rect x="237" y="627" width="96" height="32"/>
   <rect x="235" y="625" width="96" height="32" class="nonterminal"/>
   <text class="nonterminal" x="245" y="645">table_name</text>
   <rect x="373" y="659" width="40" height="32" rx="10"/>
   <rect x="371"
         y="657"
         width="40"
         height="32"
         class="terminal"
         rx="10"/>
   <text class="terminal" x="381" y="677">AS</text>
   <rect x="433" y="659" width="106" height="32"/>
   <rect x="431" y="657" width="106" height="32" class="nonterminal"/>
   <text class="nonterminal" x="441" y="677">subsrc_name</text>
   <rect x="237" y="583" width="24" height="32" rx="10"/>
   <rect x="235"
         y="581"
         width="24"
         height="32"
         class="terminal"
         rx="10"/>
   <text class="terminal" x="245" y="601">,</text>
   <rect x="599" y="627" width="26" height="32" rx="10"/>
   <rect x="597"
         y="625"
         width="26"
         height="32"
         class="terminal"
         rx="10"/>
   <text class="terminal" x="607" y="645">)</text>
   <rect x="101" y="741" width="76" height="32" rx="10"/>
   <rect x="99"
         y="739"
         width="76"
         height="32"
         class="terminal"
         rx="10"/>
   <text class="terminal" x="109" y="759">EXPOSE</text>
   <rect x="197" y="741" width="96" height="32" rx="10"/>
   <rect x="195"
         y="739"
         width="96"
         height="32"
         class="terminal"
         rx="10"/>
   <text class="terminal" x="205" y="759">PROGRESS</text>
   <rect x="313" y="741" width="40" height="32" rx="10"/>
   <rect x="311"
         y="739"
         width="40"
         height="32"
         class="terminal"
         rx="10"/>
   <text class="terminal" x="321" y="759">AS</text>
   <rect x="373" y="741" width="196" height="32"/>
   <rect x="371" y="739" width="196" height="32" class="nonterminal"/>
   <text class="nonterminal" x="381" y="759">progress_subsource_name</text>
   <rect x="255" y="851" width="58" height="32" rx="10"/>
   <rect x="253"
         y="849"
         width="58"
         height="32"
         class="terminal"
         rx="10"/>
   <text class="terminal" x="263" y="869">WITH</text>
   <rect x="333" y="851" width="26" height="32" rx="10"/>
   <rect x="331"
         y="849"
         width="26"
         height="32"
         class="terminal"
         rx="10"/>
   <text class="terminal" x="341" y="869">(</text>
   <rect x="399" y="851" width="48" height="32"/>
   <rect x="397" y="849" width="48" height="32" class="nonterminal"/>
   <text class="nonterminal" x="407" y="869">field</text>
   <rect x="467" y="851" width="28" height="32" rx="10"/>
   <rect x="465"
         y="849"
         width="28"
         height="32"
         class="terminal"
         rx="10"/>
   <text class="terminal" x="475" y="869">=</text>
   <rect x="515" y="851" width="38" height="32"/>
   <rect x="513" y="849" width="38" height="32" class="nonterminal"/>
   <text class="nonterminal" x="523" y="869">val</text>
   <rect x="399" y="807" width="24" height="32" rx="10"/>
   <rect x="397"
         y="805"
         width="24"
         height="32"
         class="terminal"
         rx="10"/>
   <text class="terminal" x="407" y="825">,</text>
   <rect x="593" y="851" width="26" height="32" rx="10"/>
   <rect x="591"
         y="849"
         width="26"
         height="32"
         class="terminal"
         rx="10"/>
   <text class="terminal" x="601" y="869">)</text>
   <path class="line"
         d="m17 17 h2 m0 0 h10 m140 0 h10 m20 0 h10 m0 0 h130 m-160 0 h20 m140 0 h20 m-180 0 q10 0 10 10 m160 0 q0 -10 10 -10 m-170 10 v12 m160 0 v-12 m-160 12 q0 10 10 10 m140 0 q10 0 10 -10 m-150 10 h10 m120 0 h10 m20 -32 h10 m82 0 h10 m2 0 l2 0 m2 0 l2 0 m2 0 l2 0 m-396 98 l2 0 m2 0 l2 0 m2 0 l2 0 m22 0 h10 m0 0 h242 m-272 0 h20 m252 0 h20 m-292 0 q10 0 10 10 m272 0 q0 -10 10 -10 m-282 10 v12 m272 0 v-12 m-272 12 q0 10 10 10 m252 0 q10 0 10 -10 m-262 10 h10 m104 0 h10 m0 0 h10 m108 0 h10 m20 -32 h10 m60 0 h10 m0 0 h10 m96 0 h10 m2 0 l2 0 m2 0 l2 0 m2 0 l2 0 m-505 98 l2 0 m2 0 l2 0 m2 0 l2 0 m2 0 h10 m116 0 h10 m0 0 h10 m136 0 h10 m0 0 h10 m26 0 h10 m0 0 h10 m116 0 h10 m2 0 l2 0 m2 0 l2 0 m2 0 l2 0 m-338 66 l2 0 m2 0 l2 0 m2 0 l2 0 m2 0 h10 m134 0 h10 m2 0 l2 0 m2 0 l2 0 m2 0 l2 0 m-371 110 l2 0 m2 0 l2 0 m2 0 l2 0 m22 0 h10 m24 0 h10 m0 0 h10 m134 0 h10 m20 0 h10 m26 0 h10 m20 0 h10 m110 0 h10 m-150 0 l20 0 m-1 0 q-9 0 -9 -10 l0 -24 q0 -10 10 -10 m130 44 l20 0 m-20 0 q10 0 10 -10 l0 -24 q0 -10 -10 -10 m-130 0 h10 m24 0 h10 m0 0 h86 m20 44 h10 m26 0 h10 m-282 0 h20 m262 0 h20 m-302 0 q10 0 10 10 m282 0 q0 -10 10 -10 m-292 10 v14 m282 0 v-14 m-282 14 q0 10 10 10 m262 0 q10 0 10 -10 m-272 10 h10 m0 0 h252 m-500 -34 h20 m500 0 h20 m-540 0 q10 0 10 10 m520 0 q0 -10 10 -10 m-530 10 v30 m520 0 v-30 m-520 30 q0 10 10 10 m500 0 q10 0 10 -10 m-510 10 h10 m0 0 h490 m22 -50 l2 0 m2 0 l2 0 m2 0 l2 0 m-317 98 l2 0 m2 0 l2 0 m2 0 l2 0 m2 0 h10 m26 0 h10 m2 0 l2 0 m2 0 l2 0 m2 0 l2 0 m-367 66 l2 0 m2 0 l2 0 m2 0 l2 0 m22 0 h10 m138 0 h10 m0 0 h442 m-620 0 h20 m600 0 h20 m-640 0 q10 0 10 10 m620 0 q0 -10 10 -10 m-630 10 v68 m620 0 v-68 m-620 68 q0 10 10 10 m600 0 q10 0 10 -10 m-610 10 h10 m106 0 h10 m0 0 h10 m26 0 h10 m20 0 h10 m96 0 h10 m20 0 h10 m0 0 h176 m-206 0 h20 m186 0 h20 m-226 0 q10 0 10 10 m206 0 q0 -10 10 -10 m-216 10 v12 m206 0 v-12 m-206 12 q0 10 10 10 m186 0 q10 0 10 -10 m-196 10 h10 m40 0 h10 m0 0 h10 m106 0 h10 m-342 -32 l20 0 m-1 0 q-9 0 -9 -10 l0 -24 q0 -10 10 -10 m342 44 l20 0 m-20 0 q10 0 10 -10 l0 -24 q0 -10 -10 -10 m-342 0 h10 m24 0 h10 m0 0 h298 m20 44 h10 m26 0 h10 m22 -88 l2 0 m2 0 l2 0 m2 0 l2 0 m-608 170 l2 0 m2 0 l2 0 m2 0 l2 0 m22 0 h10 m0 0 h478 m-508 0 h20 m488 0 h20 m-528 0 q10 0 10 10 m508 0 q0 -10 10 -10 m-518 10 v12 m508 0 v-12 m-508 12 q0 10 10 10 m488 0 q10 0 10 -10 m-498 10 h10 m76 0 h10 m0 0 h10 m96 0 h10 m0 0 h10 m40 0 h10 m0 0 h10 m196 0 h10 m22 -32 l2 0 m2 0 l2 0 m2 0 l2 0 m-398 142 l2 0 m2 0 l2 0 m2 0 l2 0 m22 0 h10 m58 0 h10 m0 0 h10 m26 0 h10 m20 0 h10 m48 0 h10 m0 0 h10 m28 0 h10 m0 0 h10 m38 0 h10 m-194 0 l20 0 m-1 0 q-9 0 -9 -10 l0 -24 q0 -10 10 -10 m174 44 l20 0 m-20 0 q10 0 10 -10 l0 -24 q0 -10 -10 -10 m-174 0 h10 m24 0 h10 m0 0 h130 m20 44 h10 m26 0 h10 m-404 0 h20 m384 0 h20 m-424 0 q10 0 10 10 m404 0 q0 -10 10 -10 m-414 10 v14 m404 0 v-14 m-404 14 q0 10 10 10 m384 0 q10 0 10 -10 m-394 10 h10 m0 0 h374 m23 -34 h-3"/>
   <polygon points="657 865 665 861 665 869"/>
   <polygon points="657 865 649 861 649 869"/>
</svg>
