<svg xmlns="http://www.w3.org/2000/svg" width="753" height="597">
   <polygon points="9 17 1 13 1 21"/>
   <polygon points="17 17 9 13 9 21"/>
   <rect x="31" y="3" width="76" height="32" rx="10"/>
   <rect x="29"
         y="1"
         width="76"
         height="32"
         class="terminal"
         rx="10"/>
   <text class="terminal" x="39" y="21">CREATE</text>
   <rect x="147" y="35" width="124" height="32" rx="10"/>
   <rect x="145"
         y="33"
         width="124"
         height="32"
         class="terminal"
         rx="10"/>
   <text class="terminal" x="155" y="53">MATERIALIZED</text>
   <rect x="311" y="3" width="78" height="32" rx="10"/>
   <rect x="309"
         y="1"
         width="78"
         height="32"
         class="terminal"
         rx="10"/>
   <text class="terminal" x="319" y="21">SOURCE</text>
   <rect x="429" y="35" width="120" height="32" rx="10"/>
   <rect x="427"
         y="33"
         width="120"
         height="32"
         class="terminal"
         rx="10"/>
   <text class="terminal" x="437" y="53">IF NOT EXISTS</text>
   <rect x="337" y="101" width="82" height="32"/>
   <rect x="335" y="99" width="82" height="32" class="nonterminal"/>
   <text class="nonterminal" x="345" y="119">src_name</text>
   <rect x="121" y="211" width="26" height="32" rx="10"/>
   <rect x="119"
         y="209"
         width="26"
         height="32"
         class="terminal"
         rx="10"/>
   <text class="terminal" x="129" y="229">(</text>
   <rect x="187" y="211" width="82" height="32"/>
   <rect x="185" y="209" width="82" height="32" class="nonterminal"/>
   <text class="nonterminal" x="195" y="229">col_name</text>
   <rect x="187" y="167" width="24" height="32" rx="10"/>
   <rect x="185"
         y="165"
         width="24"
         height="32"
         class="terminal"
         rx="10"/>
   <text class="terminal" x="195" y="185">,</text>
   <rect x="329" y="243" width="24" height="32" rx="10"/>
   <rect x="327"
         y="241"
         width="24"
         height="32"
         class="terminal"
         rx="10"/>
   <text class="terminal" x="337" y="261">,</text>
   <rect x="373" y="243" width="116" height="32"/>
   <rect x="371" y="241" width="116" height="32" class="nonterminal"/>
   <text class="nonterminal" x="381" y="261">key_constraint</text>
   <rect x="529" y="211" width="26" height="32" rx="10"/>
   <rect x="527"
         y="209"
         width="26"
         height="32"
         class="terminal"
         rx="10"/>
   <text class="terminal" x="537" y="229">)</text>
   <rect x="595" y="211" width="60" height="32" rx="10"/>
   <rect x="593"
         y="209"
         width="60"
         height="32"
         class="terminal"
         rx="10"/>
   <text class="terminal" x="603" y="229">FROM</text>
   <rect x="45" y="325" width="48" height="32" rx="10"/>
   <rect x="43"
         y="323"
         width="48"
         height="32"
         class="terminal"
         rx="10"/>
   <text class="terminal" x="53" y="343">FILE</text>
   <rect x="113" y="325" width="50" height="32"/>
   <rect x="111" y="323" width="50" height="32" class="nonterminal"/>
   <text class="nonterminal" x="121" y="343">path</text>
   <rect x="203" y="357" width="104" height="32"/>
   <rect x="201" y="355" width="104" height="32" class="nonterminal"/>
   <text class="nonterminal" x="211" y="375">compression</text>
   <rect x="367" y="357" width="102" height="32"/>
   <rect x="365" y="355" width="102" height="32" class="nonterminal"/>
   <text class="nonterminal" x="375" y="375">with_options</text>
   <rect x="509" y="325" width="80" height="32" rx="10"/>
   <rect x="507"
         y="323"
         width="80"
         height="32"
         class="terminal"
         rx="10"/>
   <text class="terminal" x="517" y="343">FORMAT</text>
   <rect x="609" y="325" width="102" height="32"/>
   <rect x="607" y="323" width="102" height="32" class="nonterminal"/>
   <text class="nonterminal" x="617" y="343">format_spec</text>
   <rect x="45" y="401" width="94" height="32" rx="10"/>
   <rect x="43"
         y="399"
         width="94"
         height="32"
         class="terminal"
         rx="10"/>
   <text class="terminal" x="53" y="419">AVRO OCF</text>
   <rect x="159" y="401" width="50" height="32"/>
   <rect x="157" y="399" width="50" height="32" class="nonterminal"/>
   <text class="nonterminal" x="167" y="419">path</text>
   <rect x="249" y="433" width="102" height="32"/>
   <rect x="247" y="431" width="102" height="32" class="nonterminal"/>
   <text class="nonterminal" x="257" y="451">with_options</text>
   <rect x="459" y="519" width="94" height="32" rx="10"/>
   <rect x="457"
         y="517"
         width="94"
         height="32"
         class="terminal"
         rx="10"/>
   <text class="terminal" x="467" y="537">ENVELOPE</text>
   <rect x="593" y="519" width="60" height="32" rx="10"/>
   <rect x="591"
         y="517"
         width="60"
         height="32"
         class="terminal"
         rx="10"/>
   <text class="terminal" x="601" y="537">NONE</text>
   <rect x="593" y="563" width="92" height="32" rx="10"/>
   <rect x="591"
         y="561"
         width="92"
         height="32"
         class="terminal"
         rx="10"/>
   <text class="terminal" x="601" y="581">DEBEZIUM</text>
   <path class="line"
         d="m17 17 h2 m0 0 h10 m76 0 h10 m20 0 h10 m0 0 h134 m-164 0 h20 m144 0 h20 m-184 0 q10 0 10 10 m164 0 q0 -10 10 -10 m-174 10 v12 m164 0 v-12 m-164 12 q0 10 10 10 m144 0 q10 0 10 -10 m-154 10 h10 m124 0 h10 m20 -32 h10 m78 0 h10 m20 0 h10 m0 0 h130 m-160 0 h20 m140 0 h20 m-180 0 q10 0 10 10 m160 0 q0 -10 10 -10 m-170 10 v12 m160 0 v-12 m-160 12 q0 10 10 10 m140 0 q10 0 10 -10 m-150 10 h10 m120 0 h10 m22 -32 l2 0 m2 0 l2 0 m2 0 l2 0 m-276 98 l2 0 m2 0 l2 0 m2 0 l2 0 m2 0 h10 m82 0 h10 m2 0 l2 0 m2 0 l2 0 m2 0 l2 0 m-362 110 l2 0 m2 0 l2 0 m2 0 l2 0 m22 0 h10 m26 0 h10 m20 0 h10 m82 0 h10 m-122 0 l20 0 m-1 0 q-9 0 -9 -10 l0 -24 q0 -10 10 -10 m102 44 l20 0 m-20 0 q10 0 10 -10 l0 -24 q0 -10 -10 -10 m-102 0 h10 m24 0 h10 m0 0 h58 m40 44 h10 m0 0 h170 m-200 0 h20 m180 0 h20 m-220 0 q10 0 10 10 m200 0 q0 -10 10 -10 m-210 10 v12 m200 0 v-12 m-200 12 q0 10 10 10 m180 0 q10 0 10 -10 m-190 10 h10 m24 0 h10 m0 0 h10 m116 0 h10 m20 -32 h10 m26 0 h10 m-474 0 h20 m454 0 h20 m-494 0 q10 0 10 10 m474 0 q0 -10 10 -10 m-484 10 v46 m474 0 v-46 m-474 46 q0 10 10 10 m454 0 q10 0 10 -10 m-464 10 h10 m0 0 h444 m20 -66 h10 m60 0 h10 m2 0 l2 0 m2 0 l2 0 m2 0 l2 0 m-674 114 l2 0 m2 0 l2 0 m2 0 l2 0 m22 0 h10 m48 0 h10 m0 0 h10 m50 0 h10 m20 0 h10 m0 0 h114 m-144 0 h20 m124 0 h20 m-164 0 q10 0 10 10 m144 0 q0 -10 10 -10 m-154 10 v12 m144 0 v-12 m-144 12 q0 10 10 10 m124 0 q10 0 10 -10 m-134 10 h10 m104 0 h10 m40 -32 h10 m0 0 h112 m-142 0 h20 m122 0 h20 m-162 0 q10 0 10 10 m142 0 q0 -10 10 -10 m-152 10 v12 m142 0 v-12 m-142 12 q0 10 10 10 m122 0 q10 0 10 -10 m-132 10 h10 m102 0 h10 m20 -32 h10 m80 0 h10 m0 0 h10 m102 0 h10 m-706 0 h20 m686 0 h20 m-726 0 q10 0 10 10 m706 0 q0 -10 10 -10 m-716 10 v56 m706 0 v-56 m-706 56 q0 10 10 10 m686 0 q10 0 10 -10 m-696 10 h10 m94 0 h10 m0 0 h10 m50 0 h10 m20 0 h10 m0 0 h112 m-142 0 h20 m122 0 h20 m-162 0 q10 0 10 10 m142 0 q0 -10 10 -10 m-152 10 v12 m142 0 v-12 m-142 12 q0 10 10 10 m122 0 q10 0 10 -10 m-132 10 h10 m102 0 h10 m20 -32 h340 m22 -76 l2 0 m2 0 l2 0 m2 0 l2 0 m-336 162 l2 0 m2 0 l2 0 m2 0 l2 0 m22 0 h10 m0 0 h256 m-286 0 h20 m266 0 h20 m-306 0 q10 0 10 10 m286 0 q0 -10 10 -10 m-296 10 v12 m286 0 v-12 m-286 12 q0 10 10 10 m266 0 q10 0 10 -10 m-276 10 h10 m94 0 h10 m20 0 h10 m60 0 h10 m0 0 h32 m-132 0 h20 m112 0 h20 m-152 0 q10 0 10 10 m132 0 q0 -10 10 -10 m-142 10 v24 m132 0 v-24 m-132 24 q0 10 10 10 m112 0 q10 0 10 -10 m-122 10 h10 m92 0 h10 m43 -76 h-3"/>
   <polygon points="743 501 751 497 751 505"/>
   <polygon points="743 501 735 497 735 505"/>
</svg>
