<svg xmlns="http://www.w3.org/2000/svg" width="667" height="661">
   <polygon points="9 17 1 13 1 21"/>
   <polygon points="17 17 9 13 9 21"/>
   <rect x="31" y="3" width="140" height="32" rx="10"/>
   <rect x="29"
         y="1"
         width="140"
         height="32"
         class="terminal"
         rx="10"/>
   <text class="terminal" x="39" y="21">CREATE SOURCE</text>
   <rect x="211" y="35" width="120" height="32" rx="10"/>
   <rect x="209"
         y="33"
         width="120"
         height="32"
         class="terminal"
         rx="10"/>
   <text class="terminal" x="219" y="53">IF NOT EXISTS</text>
   <rect x="371" y="3" width="82" height="32"/>
   <rect x="369" y="1" width="82" height="32" class="nonterminal"/>
   <text class="nonterminal" x="379" y="21">src_name</text>
   <rect x="163" y="101" width="196" height="32" rx="10"/>
   <rect x="161"
         y="99"
         width="196"
         height="32"
         class="terminal"
         rx="10"/>
   <text class="terminal" x="171" y="119">FROM LOAD GENERATOR</text>
   <rect x="399" y="101" width="86" height="32" rx="10"/>
   <rect x="397"
         y="99"
         width="86"
         height="32"
         class="terminal"
         rx="10"/>
   <text class="terminal" x="407" y="119">AUCTION</text>
   <rect x="399" y="145" width="88" height="32" rx="10"/>
   <rect x="397"
         y="143"
         width="88"
         height="32"
         class="terminal"
         rx="10"/>
   <text class="terminal" x="407" y="163">COUNTER</text>
   <rect x="399" y="189" width="60" height="32" rx="10"/>
   <rect x="397"
         y="187"
         width="60"
         height="32"
         class="terminal"
         rx="10"/>
   <text class="terminal" x="407" y="207">TPCH</text>
   <rect x="186" y="299" width="26" height="32" rx="10"/>
   <rect x="184"
         y="297"
         width="26"
         height="32"
         class="terminal"
         rx="10"/>
   <text class="terminal" x="194" y="317">(</text>
   <rect x="252" y="299" width="166" height="32"/>
   <rect x="250" y="297" width="166" height="32" class="nonterminal"/>
   <text class="nonterminal" x="260" y="317">load_generator_option</text>
   <rect x="252" y="255" width="24" height="32" rx="10"/>
   <rect x="250"
         y="253"
         width="24"
         height="32"
         class="terminal"
         rx="10"/>
   <text class="terminal" x="260" y="273">,</text>
   <rect x="458" y="299" width="26" height="32" rx="10"/>
   <rect x="456"
         y="297"
         width="26"
         height="32"
         class="terminal"
         rx="10"/>
   <text class="terminal" x="466" y="317">)</text>
   <rect x="45" y="381" width="138" height="32" rx="10"/>
   <rect x="43"
         y="379"
         width="138"
         height="32"
         class="terminal"
         rx="10"/>
   <text class="terminal" x="53" y="399">FOR ALL TABLES</text>
   <rect x="45" y="469" width="106" height="32" rx="10"/>
   <rect x="43"
         y="467"
         width="106"
         height="32"
         class="terminal"
         rx="10"/>
   <text class="terminal" x="53" y="487">FOR TABLES</text>
   <rect x="171" y="469" width="26" height="32" rx="10"/>
   <rect x="169"
         y="467"
         width="26"
         height="32"
         class="terminal"
         rx="10"/>
   <text class="terminal" x="179" y="487">(</text>
   <rect x="237" y="469" width="96" height="32"/>
   <rect x="235" y="467" width="96" height="32" class="nonterminal"/>
   <text class="nonterminal" x="245" y="487">table_name</text>
   <rect x="373" y="501" width="40" height="32" rx="10"/>
   <rect x="371"
         y="499"
         width="40"
         height="32"
         class="terminal"
         rx="10"/>
   <text class="terminal" x="381" y="519">AS</text>
   <rect x="433" y="501" width="106" height="32"/>
   <rect x="431" y="499" width="106" height="32" class="nonterminal"/>
   <text class="nonterminal" x="441" y="519">subsrc_name</text>
   <rect x="237" y="425" width="24" height="32" rx="10"/>
   <rect x="235"
         y="423"
         width="24"
         height="32"
         class="terminal"
         rx="10"/>
   <text class="terminal" x="245" y="443">,</text>
   <rect x="599" y="469" width="26" height="32" rx="10"/>
   <rect x="597"
         y="467"
         width="26"
         height="32"
         class="terminal"
         rx="10"/>
   <text class="terminal" x="607" y="487">)</text>
   <rect x="255" y="611" width="58" height="32" rx="10"/>
   <rect x="253"
         y="609"
         width="58"
         height="32"
         class="terminal"
         rx="10"/>
   <text class="terminal" x="263" y="629">WITH</text>
   <rect x="333" y="611" width="26" height="32" rx="10"/>
   <rect x="331"
         y="609"
         width="26"
         height="32"
         class="terminal"
         rx="10"/>
   <text class="terminal" x="341" y="629">(</text>
   <rect x="399" y="611" width="48" height="32"/>
   <rect x="397" y="609" width="48" height="32" class="nonterminal"/>
   <text class="nonterminal" x="407" y="629">field</text>
   <rect x="467" y="611" width="28" height="32" rx="10"/>
   <rect x="465"
         y="609"
         width="28"
         height="32"
         class="terminal"
         rx="10"/>
   <text class="terminal" x="475" y="629">=</text>
   <rect x="515" y="611" width="38" height="32"/>
   <rect x="513" y="609" width="38" height="32" class="nonterminal"/>
   <text class="nonterminal" x="523" y="629">val</text>
   <rect x="399" y="567" width="24" height="32" rx="10"/>
   <rect x="397"
         y="565"
         width="24"
         height="32"
         class="terminal"
         rx="10"/>
   <text class="terminal" x="407" y="585">,</text>
   <rect x="593" y="611" width="26" height="32" rx="10"/>
   <rect x="591"
         y="609"
         width="26"
         height="32"
         class="terminal"
         rx="10"/>
   <text class="terminal" x="601" y="629">)</text>
   <path class="line"
         d="m17 17 h2 m0 0 h10 m140 0 h10 m20 0 h10 m0 0 h130 m-160 0 h20 m140 0 h20 m-180 0 q10 0 10 10 m160 0 q0 -10 10 -10 m-170 10 v12 m160 0 v-12 m-160 12 q0 10 10 10 m140 0 q10 0 10 -10 m-150 10 h10 m120 0 h10 m20 -32 h10 m82 0 h10 m2 0 l2 0 m2 0 l2 0 m2 0 l2 0 m-334 98 l2 0 m2 0 l2 0 m2 0 l2 0 m2 0 h10 m196 0 h10 m20 0 h10 m86 0 h10 m0 0 h2 m-128 0 h20 m108 0 h20 m-148 0 q10 0 10 10 m128 0 q0 -10 10 -10 m-138 10 v24 m128 0 v-24 m-128 24 q0 10 10 10 m108 0 q10 0 10 -10 m-118 10 h10 m88 0 h10 m-118 -10 v20 m128 0 v-20 m-128 20 v24 m128 0 v-24 m-128 24 q0 10 10 10 m108 0 q10 0 10 -10 m-118 10 h10 m60 0 h10 m0 0 h28 m22 -88 l2 0 m2 0 l2 0 m2 0 l2 0 m-385 198 l2 0 m2 0 l2 0 m2 0 l2 0 m22 0 h10 m26 0 h10 m20 0 h10 m166 0 h10 m-206 0 l20 0 m-1 0 q-9 0 -9 -10 l0 -24 q0 -10 10 -10 m186 44 l20 0 m-20 0 q10 0 10 -10 l0 -24 q0 -10 -10 -10 m-186 0 h10 m24 0 h10 m0 0 h142 m20 44 h10 m26 0 h10 m-338 0 h20 m318 0 h20 m-358 0 q10 0 10 10 m338 0 q0 -10 10 -10 m-348 10 v14 m338 0 v-14 m-338 14 q0 10 10 10 m318 0 q10 0 10 -10 m-328 10 h10 m0 0 h308 m22 -34 l2 0 m2 0 l2 0 m2 0 l2 0 m-523 82 l2 0 m2 0 l2 0 m2 0 l2 0 m22 0 h10 m138 0 h10 m0 0 h442 m-620 0 h20 m600 0 h20 m-640 0 q10 0 10 10 m620 0 q0 -10 10 -10 m-630 10 v68 m620 0 v-68 m-620 68 q0 10 10 10 m600 0 q10 0 10 -10 m-610 10 h10 m106 0 h10 m0 0 h10 m26 0 h10 m20 0 h10 m96 0 h10 m20 0 h10 m0 0 h176 m-206 0 h20 m186 0 h20 m-226 0 q10 0 10 10 m206 0 q0 -10 10 -10 m-216 10 v12 m206 0 v-12 m-206 12 q0 10 10 10 m186 0 q10 0 10 -10 m-196 10 h10 m40 0 h10 m0 0 h10 m106 0 h10 m-342 -32 l20 0 m-1 0 q-9 0 -9 -10 l0 -24 q0 -10 10 -10 m342 44 l20 0 m-20 0 q10 0 10 -10 l0 -24 q0 -10 -10 -10 m-342 0 h10 m24 0 h10 m0 0 h298 m20 44 h10 m26 0 h10 m22 -88 l2 0 m2 0 l2 0 m2 0 l2 0 m-454 230 l2 0 m2 0 l2 0 m2 0 l2 0 m22 0 h10 m58 0 h10 m0 0 h10 m26 0 h10 m20 0 h10 m48 0 h10 m0 0 h10 m28 0 h10 m0 0 h10 m38 0 h10 m-194 0 l20 0 m-1 0 q-9 0 -9 -10 l0 -24 q0 -10 10 -10 m174 44 l20 0 m-20 0 q10 0 10 -10 l0 -24 q0 -10 -10 -10 m-174 0 h10 m24 0 h10 m0 0 h130 m20 44 h10 m26 0 h10 m-404 0 h20 m384 0 h20 m-424 0 q10 0 10 10 m404 0 q0 -10 10 -10 m-414 10 v14 m404 0 v-14 m-404 14 q0 10 10 10 m384 0 q10 0 10 -10 m-394 10 h10 m0 0 h374 m23 -34 h-3"/>
   <polygon points="657 625 665 621 665 629"/>
   <polygon points="657 625 649 621 649 629"/>
</svg>
