<svg xmlns="http://www.w3.org/2000/svg" width="503" height="203">
   <polygon points="9 183 1 179 1 187"/>
   <polygon points="17 183 9 179 9 187"/>
   <rect x="31" y="169" width="76" height="32" rx="10"/>
   <rect x="29"
         y="167"
         width="76"
         height="32"
         class="terminal"
         rx="10"/>
   <text class="terminal" x="39" y="187">CREATE</text>
   <rect x="127" y="169" width="56" height="32" rx="10"/>
   <rect x="125"
         y="167"
         width="56"
         height="32"
         class="terminal"
         rx="10"/>
   <text class="terminal" x="135" y="187">ROLE</text>
   <rect x="203" y="169" width="88" height="32"/>
   <rect x="201" y="167" width="88" height="32" class="nonterminal"/>
   <text class="nonterminal" x="211" y="187">role_name</text>
   <rect x="331" y="135" width="64" height="32" rx="10"/>
   <rect x="329"
         y="133"
         width="64"
         height="32"
         class="terminal"
         rx="10"/>
   <text class="terminal" x="339" y="153">LOGIN</text>
   <rect x="331" y="91" width="84" height="32" rx="10"/>
   <rect x="329"
         y="89"
         width="84"
         height="32"
         class="terminal"
         rx="10"/>
   <text class="terminal" x="339" y="109">NOLOGIN</text>
   <rect x="331" y="47" width="104" height="32" rx="10"/>
   <rect x="329"
         y="45"
         width="104"
         height="32"
         class="terminal"
         rx="10"/>
   <text class="terminal" x="339" y="65">SUPERUSER</text>
   <rect x="331" y="3" width="124" height="32" rx="10"/>
   <rect x="329"
         y="1"
         width="124"
         height="32"
         class="terminal"
         rx="10"/>
   <text class="terminal" x="339" y="21">NOSUPERUSER</text>
   <path class="line"
         d="m17 183 h2 m0 0 h10 m76 0 h10 m0 0 h10 m56 0 h10 m0 0 h10 m88 0 h10 m20 0 h10 m0 0 h134 m-164 0 l20 0 m-1 0 q-9 0 -9 -10 l0 -14 q0 -10 10 -10 m144 34 l20 0 m-20 0 q10 0 10 -10 l0 -14 q0 -10 -10 -10 m-144 0 h10 m64 0 h10 m0 0 h60 m-154 10 l0 -44 q0 -10 10 -10 m154 54 l0 -44 q0 -10 -10 -10 m-144 0 h10 m84 0 h10 m0 0 h40 m-154 10 l0 -44 q0 -10 10 -10 m154 54 l0 -44 q0 -10 -10 -10 m-144 0 h10 m104 0 h10 m0 0 h20 m-154 10 l0 -44 q0 -10 10 -10 m154 54 l0 -44 q0 -10 -10 -10 m-144 0 h10 m124 0 h10 m23 166 h-3"/>
   <polygon points="493 183 501 179 501 187"/>
   <polygon points="493 183 485 179 485 187"/>
</svg>
