<svg xmlns="http://www.w3.org/2000/svg" width="601" height="297">
   <polygon points="9 17 1 13 1 21"/>
   <polygon points="17 17 9 13 9 21"/>
   <rect x="31" y="3" width="76" height="32" rx="10"/>
   <rect x="29"
         y="1"
         width="76"
         height="32"
         class="terminal"
         rx="10"/>
   <text class="terminal" x="39" y="21">CREATE</text>
   <rect x="127" y="3" width="116" height="32" rx="10"/>
   <rect x="125"
         y="1"
         width="116"
         height="32"
         class="terminal"
         rx="10"/>
   <text class="terminal" x="135" y="21">CONNECTION</text>
   <rect x="283" y="35" width="120" height="32" rx="10"/>
   <rect x="281"
         y="33"
         width="120"
         height="32"
         class="terminal"
         rx="10"/>
   <text class="terminal" x="291" y="53">IF NOT EXISTS</text>
   <rect x="443" y="3" width="136" height="32"/>
   <rect x="441" y="1" width="136" height="32" class="nonterminal"/>
   <text class="nonterminal" x="451" y="21">connection_name</text>
   <rect x="64" y="145" width="40" height="32" rx="10"/>
   <rect x="62"
         y="143"
         width="40"
         height="32"
         class="terminal"
         rx="10"/>
   <text class="terminal" x="72" y="163">TO</text>
   <rect x="124" y="145" width="70" height="32" rx="10"/>
   <rect x="122"
         y="143"
         width="70"
         height="32"
         class="terminal"
         rx="10"/>
   <text class="terminal" x="132" y="163">MYSQL</text>
   <rect x="214" y="145" width="26" height="32" rx="10"/>
   <rect x="212"
         y="143"
         width="26"
         height="32"
         class="terminal"
         rx="10"/>
   <text class="terminal" x="222" y="163">(</text>
   <rect x="280" y="145" width="48" height="32"/>
   <rect x="278" y="143" width="48" height="32" class="nonterminal"/>
   <text class="nonterminal" x="288" y="163">field</text>
   <rect x="368" y="177" width="28" height="32" rx="10"/>
   <rect x="366"
         y="175"
         width="28"
         height="32"
         class="terminal"
         rx="10"/>
   <text class="terminal" x="376" y="195">=</text>
   <rect x="436" y="145" width="38" height="32"/>
   <rect x="434" y="143" width="38" height="32" class="nonterminal"/>
   <text class="nonterminal" x="444" y="163">val</text>
   <rect x="280" y="101" width="24" height="32" rx="10"/>
   <rect x="278"
         y="99"
         width="24"
         height="32"
         class="terminal"
         rx="10"/>
   <text class="terminal" x="288" y="119">,</text>
   <rect x="514" y="145" width="26" height="32" rx="10"/>
   <rect x="512"
         y="143"
         width="26"
         height="32"
         class="terminal"
         rx="10"/>
   <text class="terminal" x="522" y="163">)</text>
   <rect x="373" y="263" width="58" height="32" rx="10"/>
   <rect x="371"
         y="261"
         width="58"
         height="32"
         class="terminal"
         rx="10"/>
   <text class="terminal" x="381" y="281">WITH</text>
   <rect x="451" y="263" width="102" height="32"/>
   <rect x="449" y="261" width="102" height="32" class="nonterminal"/>
   <text class="nonterminal" x="459" y="281">with_options</text>
   <path class="line"
         d="m17 17 h2 m0 0 h10 m76 0 h10 m0 0 h10 m116 0 h10 m20 0 h10 m0 0 h130 m-160 0 h20 m140 0 h20 m-180 0 q10 0 10 10 m160 0 q0 -10 10 -10 m-170 10 v12 m160 0 v-12 m-160 12 q0 10 10 10 m140 0 q10 0 10 -10 m-150 10 h10 m120 0 h10 m20 -32 h10 m136 0 h10 m2 0 l2 0 m2 0 l2 0 m2 0 l2 0 m-559 142 l2 0 m2 0 l2 0 m2 0 l2 0 m2 0 h10 m40 0 h10 m0 0 h10 m70 0 h10 m0 0 h10 m26 0 h10 m20 0 h10 m48 0 h10 m20 0 h10 m0 0 h38 m-68 0 h20 m48 0 h20 m-88 0 q10 0 10 10 m68 0 q0 -10 10 -10 m-78 10 v12 m68 0 v-12 m-68 12 q0 10 10 10 m48 0 q10 0 10 -10 m-58 10 h10 m28 0 h10 m20 -32 h10 m38 0 h10 m-234 0 l20 0 m-1 0 q-9 0 -9 -10 l0 -24 q0 -10 10 -10 m214 44 l20 0 m-20 0 q10 0 10 -10 l0 -24 q0 -10 -10 -10 m-214 0 h10 m24 0 h10 m0 0 h170 m20 44 h10 m26 0 h10 m2 0 l2 0 m2 0 l2 0 m2 0 l2 0 m-231 86 l2 0 m2 0 l2 0 m2 0 l2 0 m22 0 h10 m0 0 h190 m-220 0 h20 m200 0 h20 m-240 0 q10 0 10 10 m220 0 q0 -10 10 -10 m-230 10 v12 m220 0 v-12 m-220 12 q0 10 10 10 m200 0 q10 0 10 -10 m-210 10 h10 m58 0 h10 m0 0 h10 m102 0 h10 m23 -32 h-3"/>
   <polygon points="591 245 599 241 599 249"/>
   <polygon points="591 245 583 241 583 249"/>
</svg>
