<svg xmlns="http://www.w3.org/2000/svg" width="583" height="391">
   <polygon points="9 17 1 13 1 21"/>
   <polygon points="17 17 9 13 9 21"/>
   <rect x="31" y="3" width="74" height="32" rx="10"/>
   <rect x="29"
         y="1"
         width="74"
         height="32"
         class="terminal"
         rx="10"/>
   <text class="terminal" x="39" y="21">CREATE</text>
   <rect x="145" y="35" width="120" height="32" rx="10"/>
   <rect x="143"
         y="33"
         width="120"
         height="32"
         class="terminal"
         rx="10"/>
   <text class="terminal" x="153" y="53">MATERIALIZED</text>
   <rect x="305" y="3" width="78" height="32" rx="10"/>
   <rect x="303"
         y="1"
         width="78"
         height="32"
         class="terminal"
         rx="10"/>
   <text class="terminal" x="313" y="21">SOURCE</text>
   <rect x="423" y="35" width="118" height="32" rx="10"/>
   <rect x="421"
         y="33"
         width="118"
         height="32"
         class="terminal"
         rx="10"/>
   <text class="terminal" x="431" y="53">IF NOT EXISTS</text>
   <rect x="79" y="145" width="80" height="32"/>
   <rect x="77" y="143" width="80" height="32" class="nonterminal"/>
   <text class="nonterminal" x="87" y="163">src_name</text>
   <rect x="199" y="145" width="24" height="32" rx="10"/>
   <rect x="197"
         y="143"
         width="24"
         height="32"
         class="terminal"
         rx="10"/>
   <text class="terminal" x="207" y="163">(</text>
   <rect x="263" y="145" width="80" height="32"/>
   <rect x="261" y="143" width="80" height="32" class="nonterminal"/>
   <text class="nonterminal" x="271" y="163">col_name</text>
   <rect x="263" y="101" width="24" height="32" rx="10"/>
   <rect x="261"
         y="99"
         width="24"
         height="32"
         class="terminal"
         rx="10"/>
   <text class="terminal" x="271" y="119">,</text>
   <rect x="383" y="145" width="24" height="32" rx="10"/>
   <rect x="381"
         y="143"
         width="24"
         height="32"
         class="terminal"
         rx="10"/>
   <text class="terminal" x="391" y="163">)</text>
   <rect x="447" y="145" width="60" height="32" rx="10"/>
   <rect x="445"
         y="143"
         width="60"
         height="32"
         class="terminal"
         rx="10"/>
   <text class="terminal" x="455" y="163">FROM</text>
   <rect x="127" y="227" width="118" height="32"/>
   <rect x="125" y="225" width="118" height="32" class="nonterminal"/>
   <text class="nonterminal" x="135" y="245">connector_spec</text>
   <rect x="265" y="227" width="78" height="32" rx="10"/>
   <rect x="263"
         y="225"
         width="78"
         height="32"
         class="terminal"
         rx="10"/>
   <text class="terminal" x="273" y="245">FORMAT</text>
   <rect x="363" y="227" width="96" height="32"/>
   <rect x="361" y="225" width="96" height="32" class="nonterminal"/>
   <text class="nonterminal" x="371" y="245">format_spec</text>
   <rect x="291" y="313" width="92" height="32" rx="10"/>
   <rect x="289"
         y="311"
         width="92"
         height="32"
         class="terminal"
         rx="10"/>
   <text class="terminal" x="299" y="331">ENVELOPE</text>
   <rect x="423" y="313" width="60" height="32" rx="10"/>
   <rect x="421"
         y="311"
         width="60"
         height="32"
         class="terminal"
         rx="10"/>
   <text class="terminal" x="431" y="331">NONE</text>
   <rect x="423" y="357" width="92" height="32" rx="10"/>
   <rect x="421"
         y="355"
         width="92"
         height="32"
         class="terminal"
         rx="10"/>
   <text class="terminal" x="431" y="375">DEBEZIUM</text>
   <path class="line"
         d="m17 17 h2 m0 0 h10 m74 0 h10 m20 0 h10 m0 0 h130 m-160 0 h20 m140 0 h20 m-180 0 q10 0 10 10 m160 0 q0 -10 10 -10 m-170 10 v12 m160 0 v-12 m-160 12 q0 10 10 10 m140 0 q10 0 10 -10 m-150 10 h10 m120 0 h10 m20 -32 h10 m78 0 h10 m20 0 h10 m0 0 h128 m-158 0 h20 m138 0 h20 m-178 0 q10 0 10 10 m158 0 q0 -10 10 -10 m-168 10 v12 m158 0 v-12 m-158 12 q0 10 10 10 m138 0 q10 0 10 -10 m-148 10 h10 m118 0 h10 m22 -32 l2 0 m2 0 l2 0 m2 0 l2 0 m-526 142 l2 0 m2 0 l2 0 m2 0 l2 0 m2 0 h10 m80 0 h10 m20 0 h10 m24 0 h10 m20 0 h10 m80 0 h10 m-120 0 l20 0 m-1 0 q-9 0 -9 -10 l0 -24 q0 -10 10 -10 m100 44 l20 0 m-20 0 q10 0 10 -10 l0 -24 q0 -10 -10 -10 m-100 0 h10 m24 0 h10 m0 0 h56 m20 44 h10 m24 0 h10 m-248 0 h20 m228 0 h20 m-268 0 q10 0 10 10 m248 0 q0 -10 10 -10 m-258 10 v14 m248 0 v-14 m-248 14 q0 10 10 10 m228 0 q10 0 10 -10 m-238 10 h10 m0 0 h218 m20 -34 h10 m60 0 h10 m2 0 l2 0 m2 0 l2 0 m2 0 l2 0 m-424 82 l2 0 m2 0 l2 0 m2 0 l2 0 m2 0 h10 m118 0 h10 m0 0 h10 m78 0 h10 m0 0 h10 m96 0 h10 m2 0 l2 0 m2 0 l2 0 m2 0 l2 0 m-232 54 l2 0 m2 0 l2 0 m2 0 l2 0 m22 0 h10 m0 0 h254 m-284 0 h20 m264 0 h20 m-304 0 q10 0 10 10 m284 0 q0 -10 10 -10 m-294 10 v12 m284 0 v-12 m-284 12 q0 10 10 10 m264 0 q10 0 10 -10 m-274 10 h10 m92 0 h10 m20 0 h10 m60 0 h10 m0 0 h32 m-132 0 h20 m112 0 h20 m-152 0 q10 0 10 10 m132 0 q0 -10 10 -10 m-142 10 v24 m132 0 v-24 m-132 24 q0 10 10 10 m112 0 q10 0 10 -10 m-122 10 h10 m92 0 h10 m43 -76 h-3"/>
   <polygon points="573 295 581 291 581 299"/>
   <polygon points="573 295 565 291 565 299"/>
</svg>
