<svg xmlns="http://www.w3.org/2000/svg" width="457" height="135">
   <polygon points="11 17 3 13 3 21"/>
   <polygon points="19 17 11 13 11 21"/>
   <rect x="33" y="3" width="76" height="32" rx="10"/>
   <rect x="31"
         y="1"
         width="76"
         height="32"
         class="terminal"
         rx="10"/>
   <text class="terminal" x="41" y="21">CREATE</text>
   <rect x="129" y="3" width="84" height="32" rx="10"/>
   <rect x="127"
         y="1"
         width="84"
         height="32"
         class="terminal"
         rx="10"/>
   <text class="terminal" x="137" y="21">CLUSTER</text>
   <rect x="233" y="3" width="56" height="32"/>
   <rect x="231" y="1" width="56" height="32" class="nonterminal"/>
   <text class="nonterminal" x="241" y="21">name</text>
   <rect x="309" y="3" width="26" height="32" rx="10"/>
   <rect x="307"
         y="1"
         width="26"
         height="32"
         class="terminal"
         rx="10"/>
   <text class="terminal" x="317" y="21">(</text>
   <rect x="65" y="85" width="24" height="32" rx="10"/>
   <rect x="63"
         y="83"
         width="24"
         height="32"
         class="terminal"
         rx="10"/>
   <text class="terminal" x="73" y="103">,</text>
   <rect x="109" y="85" width="112" height="32"/>
   <rect x="107" y="83" width="112" height="32" class="nonterminal"/>
   <text class="nonterminal" x="117" y="103">cluster_option</text>
   <rect x="241" y="85" width="28" height="32" rx="10"/>
   <rect x="239"
         y="83"
         width="28"
         height="32"
         class="terminal"
         rx="10"/>
   <text class="terminal" x="249" y="103">=</text>
   <rect x="289" y="85" width="54" height="32"/>
   <rect x="287" y="83" width="54" height="32" class="nonterminal"/>
   <text class="nonterminal" x="297" y="103">value</text>
   <rect x="403" y="85" width="26" height="32" rx="10"/>
   <rect x="401"
         y="83"
         width="26"
         height="32"
         class="terminal"
         rx="10"/>
   <text class="terminal" x="411" y="103">)</text>
   <path class="line"
         d="m19 17 h2 m0 0 h10 m76 0 h10 m0 0 h10 m84 0 h10 m0 0 h10 m56 0 h10 m0 0 h10 m26 0 h10 m2 0 l2 0 m2 0 l2 0 m2 0 l2 0 m-354 82 l2 0 m2 0 l2 0 m2 0 l2 0 m42 0 h10 m24 0 h10 m0 0 h10 m112 0 h10 m0 0 h10 m28 0 h10 m0 0 h10 m54 0 h10 m-318 0 l20 0 m-1 0 q-9 0 -9 -10 l0 -12 q0 -10 10 -10 m298 32 l20 0 m-20 0 q10 0 10 -10 l0 -12 q0 -10 -10 -10 m-298 0 h10 m0 0 h288 m-338 32 h20 m338 0 h20 m-378 0 q10 0 10 10 m358 0 q0 -10 10 -10 m-368 10 v14 m358 0 v-14 m-358 14 q0 10 10 10 m338 0 q10 0 10 -10 m-348 10 h10 m0 0 h328 m20 -34 h10 m26 0 h10 m3 0 h-3"/>
   <polygon points="447 99 455 95 455 103"/>
   <polygon points="447 99 439 95 439 103"/>
</svg>
