<svg xmlns="http://www.w3.org/2000/svg" width="601" height="981">
   <polygon points="9 17 1 13 1 21"/>
   <polygon points="17 17 9 13 9 21"/>
   <rect x="31" y="3" width="76" height="32" rx="10"/>
   <rect x="29"
         y="1"
         width="76"
         height="32"
         class="terminal"
         rx="10"/>
   <text class="terminal" x="39" y="21">CREATE</text>
   <rect x="147" y="35" width="124" height="32" rx="10"/>
   <rect x="145"
         y="33"
         width="124"
         height="32"
         class="terminal"
         rx="10"/>
   <text class="terminal" x="155" y="53">MATERIALIZED</text>
   <rect x="311" y="3" width="78" height="32" rx="10"/>
   <rect x="309"
         y="1"
         width="78"
         height="32"
         class="terminal"
         rx="10"/>
   <text class="terminal" x="319" y="21">SOURCE</text>
   <rect x="429" y="35" width="120" height="32" rx="10"/>
   <rect x="427"
         y="33"
         width="120"
         height="32"
         class="terminal"
         rx="10"/>
   <text class="terminal" x="437" y="53">IF NOT EXISTS</text>
   <rect x="261" y="101" width="82" height="32"/>
   <rect x="259" y="99" width="82" height="32" class="nonterminal"/>
   <text class="nonterminal" x="269" y="119">src_name</text>
   <rect x="45" y="211" width="26" height="32" rx="10"/>
   <rect x="43"
         y="209"
         width="26"
         height="32"
         class="terminal"
         rx="10"/>
   <text class="terminal" x="53" y="229">(</text>
   <rect x="111" y="211" width="82" height="32"/>
   <rect x="109" y="209" width="82" height="32" class="nonterminal"/>
   <text class="nonterminal" x="119" y="229">col_name</text>
   <rect x="111" y="167" width="24" height="32" rx="10"/>
   <rect x="109"
         y="165"
         width="24"
         height="32"
         class="terminal"
         rx="10"/>
   <text class="terminal" x="119" y="185">,</text>
   <rect x="253" y="243" width="24" height="32" rx="10"/>
   <rect x="251"
         y="241"
         width="24"
         height="32"
         class="terminal"
         rx="10"/>
   <text class="terminal" x="261" y="261">,</text>
   <rect x="297" y="243" width="116" height="32"/>
   <rect x="295" y="241" width="116" height="32" class="nonterminal"/>
   <text class="nonterminal" x="305" y="261">key_constraint</text>
   <rect x="453" y="211" width="26" height="32" rx="10"/>
   <rect x="451"
         y="209"
         width="26"
         height="32"
         class="terminal"
         rx="10"/>
   <text class="terminal" x="461" y="229">)</text>
   <rect x="519" y="211" width="60" height="32" rx="10"/>
   <rect x="517"
         y="209"
         width="60"
         height="32"
         class="terminal"
         rx="10"/>
   <text class="terminal" x="527" y="229">FROM</text>
   <rect x="44" y="325" width="130" height="32" rx="10"/>
   <rect x="42"
         y="323"
         width="130"
         height="32"
         class="terminal"
         rx="10"/>
   <text class="terminal" x="52" y="343">KAFKA BROKER</text>
   <rect x="194" y="325" width="48" height="32"/>
   <rect x="192" y="323" width="48" height="32" class="nonterminal"/>
   <text class="nonterminal" x="202" y="343">host</text>
   <rect x="262" y="325" width="64" height="32" rx="10"/>
   <rect x="260"
         y="323"
         width="64"
         height="32"
         class="terminal"
         rx="10"/>
   <text class="terminal" x="270" y="343">TOPIC</text>
   <rect x="346" y="325" width="52" height="32"/>
   <rect x="344" y="323" width="52" height="32" class="nonterminal"/>
   <text class="nonterminal" x="354" y="343">topic</text>
   <rect x="438" y="357" width="102" height="32"/>
   <rect x="436" y="355" width="102" height="32" class="nonterminal"/>
   <text class="nonterminal" x="446" y="375">with_options</text>
   <rect x="47" y="423" width="114" height="32" rx="10"/>
   <rect x="45"
         y="421"
         width="114"
         height="32"
         class="terminal"
         rx="10"/>
   <text class="terminal" x="55" y="441">KEY FORMAT</text>
   <rect x="181" y="423" width="102" height="32"/>
   <rect x="179" y="421" width="102" height="32" class="nonterminal"/>
   <text class="nonterminal" x="189" y="441">format_spec</text>
   <rect x="303" y="423" width="132" height="32" rx="10"/>
   <rect x="301"
         y="421"
         width="132"
         height="32"
         class="terminal"
         rx="10"/>
   <text class="terminal" x="311" y="441">VALUE FORMAT</text>
   <rect x="47" y="467" width="80" height="32" rx="10"/>
   <rect x="45"
         y="465"
         width="80"
         height="32"
         class="terminal"
         rx="10"/>
   <text class="terminal" x="55" y="485">FORMAT</text>
   <rect x="475" y="423" width="102" height="32"/>
   <rect x="473" y="421" width="102" height="32" class="nonterminal"/>
   <text class="nonterminal" x="483" y="441">format_spec</text>
   <rect x="70" y="549" width="82" height="32" rx="10"/>
   <rect x="68"
         y="547"
         width="82"
         height="32"
         class="terminal"
         rx="10"/>
   <text class="terminal" x="78" y="567">INCLUDE</text>
   <rect x="212" y="549" width="48" height="32" rx="10"/>
   <rect x="210"
         y="547"
         width="48"
         height="32"
         class="terminal"
         rx="10"/>
   <text class="terminal" x="220" y="567">KEY</text>
   <rect x="212" y="593" width="96" height="32" rx="10"/>
   <rect x="210"
         y="591"
         width="96"
         height="32"
         class="terminal"
         rx="10"/>
   <text class="terminal" x="220" y="611">PARTITION</text>
   <rect x="212" y="637" width="74" height="32" rx="10"/>
   <rect x="210"
         y="635"
         width="74"
         height="32"
         class="terminal"
         rx="10"/>
   <text class="terminal" x="220" y="655">OFFSET</text>
   <rect x="212" y="681" width="106" height="32" rx="10"/>
   <rect x="210"
         y="679"
         width="106"
         height="32"
         class="terminal"
         rx="10"/>
   <text class="terminal" x="220" y="699">TIMESTAMP</text>
   <rect x="212" y="725" width="86" height="32" rx="10"/>
   <rect x="210"
         y="723"
         width="86"
         height="32"
         class="terminal"
         rx="10"/>
   <text class="terminal" x="220" y="743">HEADERS</text>
   <rect x="378" y="581" width="40" height="32" rx="10"/>
   <rect x="376"
         y="579"
         width="40"
         height="32"
         class="terminal"
         rx="10"/>
   <text class="terminal" x="386" y="599">AS</text>
   <rect x="438" y="581" width="56" height="32"/>
   <rect x="436" y="579" width="56" height="32" class="nonterminal"/>
   <text class="nonterminal" x="446" y="599">name</text>
   <rect x="171" y="827" width="94" height="32" rx="10"/>
   <rect x="169"
         y="825"
         width="94"
         height="32"
         class="terminal"
         rx="10"/>
   <text class="terminal" x="179" y="845">ENVELOPE</text>
   <rect x="305" y="827" width="60" height="32" rx="10"/>
   <rect x="303"
         y="825"
         width="60"
         height="32"
         class="terminal"
         rx="10"/>
   <text class="terminal" x="313" y="845">NONE</text>
   <rect x="305" y="871" width="92" height="32" rx="10"/>
   <rect x="303"
         y="869"
         width="92"
         height="32"
         class="terminal"
         rx="10"/>
   <text class="terminal" x="313" y="889">DEBEZIUM</text>
   <rect x="437" y="903" width="76" height="32" rx="10"/>
   <rect x="435"
         y="901"
         width="76"
         height="32"
         class="terminal"
         rx="10"/>
   <text class="terminal" x="445" y="921">UPSERT</text>
   <rect x="305" y="947" width="76" height="32" rx="10"/>
   <rect x="303"
         y="945"
         width="76"
         height="32"
         class="terminal"
         rx="10"/>
   <text class="terminal" x="313" y="965">UPSERT</text>
   <path class="line"
         d="m17 17 h2 m0 0 h10 m76 0 h10 m20 0 h10 m0 0 h134 m-164 0 h20 m144 0 h20 m-184 0 q10 0 10 10 m164 0 q0 -10 10 -10 m-174 10 v12 m164 0 v-12 m-164 12 q0 10 10 10 m144 0 q10 0 10 -10 m-154 10 h10 m124 0 h10 m20 -32 h10 m78 0 h10 m20 0 h10 m0 0 h130 m-160 0 h20 m140 0 h20 m-180 0 q10 0 10 10 m160 0 q0 -10 10 -10 m-170 10 v12 m160 0 v-12 m-160 12 q0 10 10 10 m140 0 q10 0 10 -10 m-150 10 h10 m120 0 h10 m22 -32 l2 0 m2 0 l2 0 m2 0 l2 0 m-352 98 l2 0 m2 0 l2 0 m2 0 l2 0 m2 0 h10 m82 0 h10 m2 0 l2 0 m2 0 l2 0 m2 0 l2 0 m-362 110 l2 0 m2 0 l2 0 m2 0 l2 0 m22 0 h10 m26 0 h10 m20 0 h10 m82 0 h10 m-122 0 l20 0 m-1 0 q-9 0 -9 -10 l0 -24 q0 -10 10 -10 m102 44 l20 0 m-20 0 q10 0 10 -10 l0 -24 q0 -10 -10 -10 m-102 0 h10 m24 0 h10 m0 0 h58 m40 44 h10 m0 0 h170 m-200 0 h20 m180 0 h20 m-220 0 q10 0 10 10 m200 0 q0 -10 10 -10 m-210 10 v12 m200 0 v-12 m-200 12 q0 10 10 10 m180 0 q10 0 10 -10 m-190 10 h10 m24 0 h10 m0 0 h10 m116 0 h10 m20 -32 h10 m26 0 h10 m-474 0 h20 m454 0 h20 m-494 0 q10 0 10 10 m474 0 q0 -10 10 -10 m-484 10 v46 m474 0 v-46 m-474 46 q0 10 10 10 m454 0 q10 0 10 -10 m-464 10 h10 m0 0 h444 m20 -66 h10 m60 0 h10 m2 0 l2 0 m2 0 l2 0 m2 0 l2 0 m-579 114 l2 0 m2 0 l2 0 m2 0 l2 0 m2 0 h10 m130 0 h10 m0 0 h10 m48 0 h10 m0 0 h10 m64 0 h10 m0 0 h10 m52 0 h10 m20 0 h10 m0 0 h112 m-142 0 h20 m122 0 h20 m-162 0 q10 0 10 10 m142 0 q0 -10 10 -10 m-152 10 v12 m142 0 v-12 m-142 12 q0 10 10 10 m122 0 q10 0 10 -10 m-132 10 h10 m102 0 h10 m22 -32 l2 0 m2 0 l2 0 m2 0 l2 0 m-577 98 l2 0 m2 0 l2 0 m2 0 l2 0 m22 0 h10 m114 0 h10 m0 0 h10 m102 0 h10 m0 0 h10 m132 0 h10 m-428 0 h20 m408 0 h20 m-448 0 q10 0 10 10 m428 0 q0 -10 10 -10 m-438 10 v24 m428 0 v-24 m-428 24 q0 10 10 10 m408 0 q10 0 10 -10 m-418 10 h10 m80 0 h10 m0 0 h308 m20 -44 h10 m102 0 h10 m2 0 l2 0 m2 0 l2 0 m2 0 l2 0 m-571 126 l2 0 m2 0 l2 0 m2 0 l2 0 m22 0 h10 m82 0 h10 m40 0 h10 m48 0 h10 m0 0 h58 m-146 0 h20 m126 0 h20 m-166 0 q10 0 10 10 m146 0 q0 -10 10 -10 m-156 10 v24 m146 0 v-24 m-146 24 q0 10 10 10 m126 0 q10 0 10 -10 m-136 10 h10 m96 0 h10 m0 0 h10 m-136 -10 v20 m146 0 v-20 m-146 20 v24 m146 0 v-24 m-146 24 q0 10 10 10 m126 0 q10 0 10 -10 m-136 10 h10 m74 0 h10 m0 0 h32 m-136 -10 v20 m146 0 v-20 m-146 20 v24 m146 0 v-24 m-146 24 q0 10 10 10 m126 0 q10 0 10 -10 m-136 10 h10 m106 0 h10 m-136 -10 v20 m146 0 v-20 m-146 20 v24 m146 0 v-24 m-146 24 q0 10 10 10 m126 0 q10 0 10 -10 m-136 10 h10 m86 0 h10 m0 0 h20 m40 -176 h10 m0 0 h126 m-156 0 h20 m136 0 h20 m-176 0 q10 0 10 10 m156 0 q0 -10 10 -10 m-166 10 v12 m156 0 v-12 m-156 12 q0 10 10 10 m136 0 q10 0 10 -10 m-146 10 h10 m40 0 h10 m0 0 h10 m56 0 h10 m-342 -32 l20 0 m-1 0 q-9 0 -9 -10 l0 -12 q0 -10 10 -10 m342 32 l20 0 m-20 0 q10 0 10 -10 l0 -12 q0 -10 -10 -10 m-342 0 h10 m0 0 h332 m-484 32 h20 m484 0 h20 m-524 0 q10 0 10 10 m504 0 q0 -10 10 -10 m-514 10 v190 m504 0 v-190 m-504 190 q0 10 10 10 m484 0 q10 0 10 -10 m-494 10 h10 m0 0 h474 m22 -210 l2 0 m2 0 l2 0 m2 0 l2 0 m-447 246 l2 0 m2 0 l2 0 m2 0 l2 0 m22 0 h10 m0 0 h392 m-422 0 h20 m402 0 h20 m-442 0 q10 0 10 10 m422 0 q0 -10 10 -10 m-432 10 v12 m422 0 v-12 m-422 12 q0 10 10 10 m402 0 q10 0 10 -10 m-412 10 h10 m94 0 h10 m20 0 h10 m60 0 h10 m0 0 h168 m-268 0 h20 m248 0 h20 m-288 0 q10 0 10 10 m268 0 q0 -10 10 -10 m-278 10 v24 m268 0 v-24 m-268 24 q0 10 10 10 m248 0 q10 0 10 -10 m-258 10 h10 m92 0 h10 m20 0 h10 m0 0 h86 m-116 0 h20 m96 0 h20 m-136 0 q10 0 10 10 m116 0 q0 -10 10 -10 m-126 10 v12 m116 0 v-12 m-116 12 q0 10 10 10 m96 0 q10 0 10 -10 m-106 10 h10 m76 0 h10 m-238 -42 v20 m268 0 v-20 m-268 20 v56 m268 0 v-56 m-268 56 q0 10 10 10 m248 0 q10 0 10 -10 m-258 10 h10 m76 0 h10 m0 0 h152 m43 -152 h-3"/>
   <polygon points="591 809 599 805 599 813"/>
   <polygon points="591 809 583 805 583 813"/>
</svg>
