<svg xmlns="http://www.w3.org/2000/svg" width="583" height="403">
   <polygon points="9 17 1 13 1 21"/>
   <polygon points="17 17 9 13 9 21"/>
   <rect x="31" y="3" width="74" height="32" rx="10"/>
   <rect x="29"
         y="1"
         width="74"
         height="32"
         class="terminal"
         rx="10"/>
   <text class="terminal" x="39" y="21">CREATE</text>
   <rect x="145" y="35" width="120" height="32" rx="10"/>
   <rect x="143"
         y="33"
         width="120"
         height="32"
         class="terminal"
         rx="10"/>
   <text class="terminal" x="153" y="53">MATERIALIZED</text>
   <rect x="305" y="3" width="78" height="32" rx="10"/>
   <rect x="303"
         y="1"
         width="78"
         height="32"
         class="terminal"
         rx="10"/>
   <text class="terminal" x="313" y="21">SOURCE</text>
   <rect x="423" y="35" width="118" height="32" rx="10"/>
   <rect x="421"
         y="33"
         width="118"
         height="32"
         class="terminal"
         rx="10"/>
   <text class="terminal" x="431" y="53">IF NOT EXISTS</text>
   <rect x="45" y="145" width="80" height="32"/>
   <rect x="43" y="143" width="80" height="32" class="nonterminal"/>
   <text class="nonterminal" x="53" y="163">src_name</text>
   <rect x="165" y="145" width="24" height="32" rx="10"/>
   <rect x="163"
         y="143"
         width="24"
         height="32"
         class="terminal"
         rx="10"/>
   <text class="terminal" x="173" y="163">(</text>
   <rect x="229" y="145" width="80" height="32"/>
   <rect x="227" y="143" width="80" height="32" class="nonterminal"/>
   <text class="nonterminal" x="237" y="163">col_name</text>
   <rect x="229" y="101" width="24" height="32" rx="10"/>
   <rect x="227"
         y="99"
         width="24"
         height="32"
         class="terminal"
         rx="10"/>
   <text class="terminal" x="237" y="119">,</text>
   <rect x="349" y="145" width="24" height="32" rx="10"/>
   <rect x="347"
         y="143"
         width="24"
         height="32"
         class="terminal"
         rx="10"/>
   <text class="terminal" x="357" y="163">)</text>
   <rect x="413" y="145" width="60" height="32" rx="10"/>
   <rect x="411"
         y="143"
         width="60"
         height="32"
         class="terminal"
         rx="10"/>
   <text class="terminal" x="421" y="163">FROM</text>
   <rect x="493" y="145" width="48" height="32" rx="10"/>
   <rect x="491"
         y="143"
         width="48"
         height="32"
         class="terminal"
         rx="10"/>
   <text class="terminal" x="501" y="163">FILE</text>
   <rect x="39" y="227" width="48" height="32"/>
   <rect x="37" y="225" width="48" height="32" class="nonterminal"/>
   <text class="nonterminal" x="47" y="245">path</text>
   <rect x="127" y="259" width="122" height="32" rx="10"/>
   <rect x="125"
         y="257"
         width="122"
         height="32"
         class="terminal"
         rx="10"/>
   <text class="terminal" x="135" y="277">COMPRESSION</text>
   <rect x="289" y="259" width="60" height="32" rx="10"/>
   <rect x="287"
         y="257"
         width="60"
         height="32"
         class="terminal"
         rx="10"/>
   <text class="terminal" x="297" y="277">NONE</text>
   <rect x="289" y="303" width="52" height="32" rx="10"/>
   <rect x="287"
         y="301"
         width="52"
         height="32"
         class="terminal"
         rx="10"/>
   <text class="terminal" x="297" y="321">GZIP</text>
   <rect x="429" y="259" width="98" height="32"/>
   <rect x="427" y="257" width="98" height="32" class="nonterminal"/>
   <text class="nonterminal" x="437" y="277">with_options</text>
   <rect x="393" y="369" width="78" height="32" rx="10"/>
   <rect x="391"
         y="367"
         width="78"
         height="32"
         class="terminal"
         rx="10"/>
   <text class="terminal" x="401" y="387">FORMAT</text>
   <rect x="491" y="369" width="64" height="32" rx="10"/>
   <rect x="489"
         y="367"
         width="64"
         height="32"
         class="terminal"
         rx="10"/>
   <text class="terminal" x="499" y="387">BYTES</text>
   <path class="line"
         d="m17 17 h2 m0 0 h10 m74 0 h10 m20 0 h10 m0 0 h130 m-160 0 h20 m140 0 h20 m-180 0 q10 0 10 10 m160 0 q0 -10 10 -10 m-170 10 v12 m160 0 v-12 m-160 12 q0 10 10 10 m140 0 q10 0 10 -10 m-150 10 h10 m120 0 h10 m20 -32 h10 m78 0 h10 m20 0 h10 m0 0 h128 m-158 0 h20 m138 0 h20 m-178 0 q10 0 10 10 m158 0 q0 -10 10 -10 m-168 10 v12 m158 0 v-12 m-158 12 q0 10 10 10 m138 0 q10 0 10 -10 m-148 10 h10 m118 0 h10 m22 -32 l2 0 m2 0 l2 0 m2 0 l2 0 m-560 142 l2 0 m2 0 l2 0 m2 0 l2 0 m2 0 h10 m80 0 h10 m20 0 h10 m24 0 h10 m20 0 h10 m80 0 h10 m-120 0 l20 0 m-1 0 q-9 0 -9 -10 l0 -24 q0 -10 10 -10 m100 44 l20 0 m-20 0 q10 0 10 -10 l0 -24 q0 -10 -10 -10 m-100 0 h10 m24 0 h10 m0 0 h56 m20 44 h10 m24 0 h10 m-248 0 h20 m228 0 h20 m-268 0 q10 0 10 10 m248 0 q0 -10 10 -10 m-258 10 v14 m248 0 v-14 m-248 14 q0 10 10 10 m228 0 q10 0 10 -10 m-238 10 h10 m0 0 h218 m20 -34 h10 m60 0 h10 m0 0 h10 m48 0 h10 m2 0 l2 0 m2 0 l2 0 m2 0 l2 0 m-546 82 l2 0 m2 0 l2 0 m2 0 l2 0 m2 0 h10 m48 0 h10 m20 0 h10 m0 0 h252 m-282 0 h20 m262 0 h20 m-302 0 q10 0 10 10 m282 0 q0 -10 10 -10 m-292 10 v12 m282 0 v-12 m-282 12 q0 10 10 10 m262 0 q10 0 10 -10 m-272 10 h10 m122 0 h10 m20 0 h10 m60 0 h10 m-100 0 h20 m80 0 h20 m-120 0 q10 0 10 10 m100 0 q0 -10 10 -10 m-110 10 v24 m100 0 v-24 m-100 24 q0 10 10 10 m80 0 q10 0 10 -10 m-90 10 h10 m52 0 h10 m0 0 h8 m60 -76 h10 m0 0 h108 m-138 0 h20 m118 0 h20 m-158 0 q10 0 10 10 m138 0 q0 -10 10 -10 m-148 10 v12 m138 0 v-12 m-138 12 q0 10 10 10 m118 0 q10 0 10 -10 m-128 10 h10 m98 0 h10 m22 -32 l2 0 m2 0 l2 0 m2 0 l2 0 m-198 142 l2 0 m2 0 l2 0 m2 0 l2 0 m2 0 h10 m78 0 h10 m0 0 h10 m64 0 h10 m3 0 h-3"/>
   <polygon points="573 383 581 379 581 387"/>
   <polygon points="573 383 565 379 565 387"/>
</svg>
