<svg xmlns="http://www.w3.org/2000/svg" width="589" height="795">
   <polygon points="9 17 1 13 1 21"/>
   <polygon points="17 17 9 13 9 21"/>
   <rect x="31" y="3" width="74" height="32" rx="10"/>
   <rect x="29"
         y="1"
         width="74"
         height="32"
         class="terminal"
         rx="10"/>
   <text class="terminal" x="39" y="21">CREATE</text>
   <rect x="145" y="35" width="120" height="32" rx="10"/>
   <rect x="143"
         y="33"
         width="120"
         height="32"
         class="terminal"
         rx="10"/>
   <text class="terminal" x="153" y="53">MATERIALIZED</text>
   <rect x="305" y="3" width="78" height="32" rx="10"/>
   <rect x="303"
         y="1"
         width="78"
         height="32"
         class="terminal"
         rx="10"/>
   <text class="terminal" x="313" y="21">SOURCE</text>
   <rect x="423" y="35" width="118" height="32" rx="10"/>
   <rect x="421"
         y="33"
         width="118"
         height="32"
         class="terminal"
         rx="10"/>
   <text class="terminal" x="431" y="53">IF NOT EXISTS</text>
   <rect x="256" y="101" width="80" height="32"/>
   <rect x="254" y="99" width="80" height="32" class="nonterminal"/>
   <text class="nonterminal" x="264" y="119">src_name</text>
   <rect x="45" y="211" width="24" height="32" rx="10"/>
   <rect x="43"
         y="209"
         width="24"
         height="32"
         class="terminal"
         rx="10"/>
   <text class="terminal" x="53" y="229">(</text>
   <rect x="109" y="211" width="80" height="32"/>
   <rect x="107" y="209" width="80" height="32" class="nonterminal"/>
   <text class="nonterminal" x="117" y="229">col_name</text>
   <rect x="109" y="167" width="24" height="32" rx="10"/>
   <rect x="107"
         y="165"
         width="24"
         height="32"
         class="terminal"
         rx="10"/>
   <text class="terminal" x="117" y="185">,</text>
   <rect x="249" y="243" width="24" height="32" rx="10"/>
   <rect x="247"
         y="241"
         width="24"
         height="32"
         class="terminal"
         rx="10"/>
   <text class="terminal" x="257" y="261">,</text>
   <rect x="293" y="243" width="110" height="32"/>
   <rect x="291" y="241" width="110" height="32" class="nonterminal"/>
   <text class="nonterminal" x="301" y="261">key_constraint</text>
   <rect x="443" y="211" width="24" height="32" rx="10"/>
   <rect x="441"
         y="209"
         width="24"
         height="32"
         class="terminal"
         rx="10"/>
   <text class="terminal" x="451" y="229">)</text>
   <rect x="507" y="211" width="60" height="32" rx="10"/>
   <rect x="505"
         y="209"
         width="60"
         height="32"
         class="terminal"
         rx="10"/>
   <text class="terminal" x="515" y="229">FROM</text>
   <rect x="87" y="325" width="48" height="32" rx="10"/>
   <rect x="85"
         y="323"
         width="48"
         height="32"
         class="terminal"
         rx="10"/>
   <text class="terminal" x="95" y="343">FILE</text>
   <rect x="155" y="325" width="48" height="32"/>
   <rect x="153" y="323" width="48" height="32" class="nonterminal"/>
   <text class="nonterminal" x="163" y="343">path</text>
   <rect x="243" y="357" width="122" height="32" rx="10"/>
   <rect x="241"
         y="355"
         width="122"
         height="32"
         class="terminal"
         rx="10"/>
   <text class="terminal" x="251" y="375">COMPRESSION</text>
   <rect x="405" y="357" width="60" height="32" rx="10"/>
   <rect x="403"
         y="355"
         width="60"
         height="32"
         class="terminal"
         rx="10"/>
   <text class="terminal" x="413" y="375">NONE</text>
   <rect x="405" y="401" width="52" height="32" rx="10"/>
   <rect x="403"
         y="399"
         width="52"
         height="32"
         class="terminal"
         rx="10"/>
   <text class="terminal" x="413" y="419">GZIP</text>
   <rect x="144" y="499" width="98" height="32"/>
   <rect x="142" y="497" width="98" height="32" class="nonterminal"/>
   <text class="nonterminal" x="152" y="517">with_options</text>
   <rect x="282" y="467" width="78" height="32" rx="10"/>
   <rect x="280"
         y="465"
         width="78"
         height="32"
         class="terminal"
         rx="10"/>
   <text class="terminal" x="290" y="485">FORMAT</text>
   <rect x="380" y="467" width="88" height="32" rx="10"/>
   <rect x="378"
         y="465"
         width="88"
         height="32"
         class="terminal"
         rx="10"/>
   <text class="terminal" x="388" y="485">CSV WITH</text>
   <rect x="124" y="609" width="76" height="32" rx="10"/>
   <rect x="122"
         y="607"
         width="76"
         height="32"
         class="terminal"
         rx="10"/>
   <text class="terminal" x="132" y="627">HEADER</text>
   <rect x="240" y="609" width="24" height="32" rx="10"/>
   <rect x="238"
         y="607"
         width="24"
         height="32"
         class="terminal"
         rx="10"/>
   <text class="terminal" x="248" y="627">(</text>
   <rect x="304" y="609" width="80" height="32"/>
   <rect x="302" y="607" width="80" height="32" class="nonterminal"/>
   <text class="nonterminal" x="312" y="627">col_name</text>
   <rect x="304" y="565" width="24" height="32" rx="10"/>
   <rect x="302"
         y="563"
         width="24"
         height="32"
         class="terminal"
         rx="10"/>
   <text class="terminal" x="312" y="583">,</text>
   <rect x="424" y="609" width="24" height="32" rx="10"/>
   <rect x="422"
         y="607"
         width="24"
         height="32"
         class="terminal"
         rx="10"/>
   <text class="terminal" x="432" y="627">)</text>
   <rect x="124" y="675" width="28" height="32"/>
   <rect x="122" y="673" width="28" height="32" class="nonterminal"/>
   <text class="nonterminal" x="132" y="693">n</text>
   <rect x="172" y="675" width="90" height="32" rx="10"/>
   <rect x="170"
         y="673"
         width="90"
         height="32"
         class="terminal"
         rx="10"/>
   <text class="terminal" x="180" y="693">COLUMNS</text>
   <rect x="359" y="761" width="116" height="32" rx="10"/>
   <rect x="357"
         y="759"
         width="116"
         height="32"
         class="terminal"
         rx="10"/>
   <text class="terminal" x="367" y="779">DELIMITED BY</text>
   <rect x="495" y="761" width="46" height="32"/>
   <rect x="493" y="759" width="46" height="32" class="nonterminal"/>
   <text class="nonterminal" x="503" y="779">char</text>
   <path class="line"
         d="m17 17 h2 m0 0 h10 m74 0 h10 m20 0 h10 m0 0 h130 m-160 0 h20 m140 0 h20 m-180 0 q10 0 10 10 m160 0 q0 -10 10 -10 m-170 10 v12 m160 0 v-12 m-160 12 q0 10 10 10 m140 0 q10 0 10 -10 m-150 10 h10 m120 0 h10 m20 -32 h10 m78 0 h10 m20 0 h10 m0 0 h128 m-158 0 h20 m138 0 h20 m-178 0 q10 0 10 10 m158 0 q0 -10 10 -10 m-168 10 v12 m158 0 v-12 m-158 12 q0 10 10 10 m138 0 q10 0 10 -10 m-148 10 h10 m118 0 h10 m22 -32 l2 0 m2 0 l2 0 m2 0 l2 0 m-349 98 l2 0 m2 0 l2 0 m2 0 l2 0 m2 0 h10 m80 0 h10 m2 0 l2 0 m2 0 l2 0 m2 0 l2 0 m-355 110 l2 0 m2 0 l2 0 m2 0 l2 0 m22 0 h10 m24 0 h10 m20 0 h10 m80 0 h10 m-120 0 l20 0 m-1 0 q-9 0 -9 -10 l0 -24 q0 -10 10 -10 m100 44 l20 0 m-20 0 q10 0 10 -10 l0 -24 q0 -10 -10 -10 m-100 0 h10 m24 0 h10 m0 0 h56 m40 44 h10 m0 0 h164 m-194 0 h20 m174 0 h20 m-214 0 q10 0 10 10 m194 0 q0 -10 10 -10 m-204 10 v12 m194 0 v-12 m-194 12 q0 10 10 10 m174 0 q10 0 10 -10 m-184 10 h10 m24 0 h10 m0 0 h10 m110 0 h10 m20 -32 h10 m24 0 h10 m-462 0 h20 m442 0 h20 m-482 0 q10 0 10 10 m462 0 q0 -10 10 -10 m-472 10 v46 m462 0 v-46 m-462 46 q0 10 10 10 m442 0 q10 0 10 -10 m-452 10 h10 m0 0 h432 m20 -66 h10 m60 0 h10 m2 0 l2 0 m2 0 l2 0 m2 0 l2 0 m-524 114 l2 0 m2 0 l2 0 m2 0 l2 0 m2 0 h10 m48 0 h10 m0 0 h10 m48 0 h10 m20 0 h10 m0 0 h252 m-282 0 h20 m262 0 h20 m-302 0 q10 0 10 10 m282 0 q0 -10 10 -10 m-292 10 v12 m282 0 v-12 m-282 12 q0 10 10 10 m262 0 q10 0 10 -10 m-272 10 h10 m122 0 h10 m20 0 h10 m60 0 h10 m-100 0 h20 m80 0 h20 m-120 0 q10 0 10 10 m100 0 q0 -10 10 -10 m-110 10 v24 m100 0 v-24 m-100 24 q0 10 10 10 m80 0 q10 0 10 -10 m-90 10 h10 m52 0 h10 m0 0 h8 m42 -76 l2 0 m2 0 l2 0 m2 0 l2 0 m-425 142 l2 0 m2 0 l2 0 m2 0 l2 0 m22 0 h10 m0 0 h108 m-138 0 h20 m118 0 h20 m-158 0 q10 0 10 10 m138 0 q0 -10 10 -10 m-148 10 v12 m138 0 v-12 m-138 12 q0 10 10 10 m118 0 q10 0 10 -10 m-128 10 h10 m98 0 h10 m20 -32 h10 m78 0 h10 m0 0 h10 m88 0 h10 m2 0 l2 0 m2 0 l2 0 m2 0 l2 0 m-408 142 l2 0 m2 0 l2 0 m2 0 l2 0 m22 0 h10 m76 0 h10 m20 0 h10 m24 0 h10 m20 0 h10 m80 0 h10 m-120 0 l20 0 m-1 0 q-9 0 -9 -10 l0 -24 q0 -10 10 -10 m100 44 l20 0 m-20 0 q10 0 10 -10 l0 -24 q0 -10 -10 -10 m-100 0 h10 m24 0 h10 m0 0 h56 m20 44 h10 m24 0 h10 m-248 0 h20 m228 0 h20 m-268 0 q10 0 10 10 m248 0 q0 -10 10 -10 m-258 10 v14 m248 0 v-14 m-248 14 q0 10 10 10 m228 0 q10 0 10 -10 m-238 10 h10 m0 0 h218 m-364 -34 h20 m364 0 h20 m-404 0 q10 0 10 10 m384 0 q0 -10 10 -10 m-394 10 v46 m384 0 v-46 m-384 46 q0 10 10 10 m364 0 q10 0 10 -10 m-374 10 h10 m28 0 h10 m0 0 h10 m90 0 h10 m0 0 h206 m22 -66 l2 0 m2 0 l2 0 m2 0 l2 0 m-193 120 l2 0 m2 0 l2 0 m2 0 l2 0 m22 0 h10 m0 0 h192 m-222 0 h20 m202 0 h20 m-242 0 q10 0 10 10 m222 0 q0 -10 10 -10 m-232 10 v12 m222 0 v-12 m-222 12 q0 10 10 10 m202 0 q10 0 10 -10 m-212 10 h10 m116 0 h10 m0 0 h10 m46 0 h10 m23 -32 h-3"/>
   <polygon points="579 743 587 739 587 747"/>
   <polygon points="579 743 571 739 571 747"/>
</svg>
