<svg xmlns="http://www.w3.org/2000/svg" width="519" height="279">
   <polygon points="11 17 3 13 3 21"/>
   <polygon points="19 17 11 13 11 21"/>
   <rect x="33" y="3" width="76" height="32" rx="10"/>
   <rect x="31"
         y="1"
         width="76"
         height="32"
         class="terminal"
         rx="10"/>
   <text class="terminal" x="41" y="21">CREATE</text>
   <rect x="129" y="3" width="56" height="32" rx="10"/>
   <rect x="127"
         y="1"
         width="56"
         height="32"
         class="terminal"
         rx="10"/>
   <text class="terminal" x="137" y="21">TYPE</text>
   <rect x="205" y="3" width="92" height="32"/>
   <rect x="203" y="1" width="92" height="32" class="nonterminal"/>
   <text class="nonterminal" x="213" y="21">type_name</text>
   <rect x="317" y="3" width="40" height="32" rx="10"/>
   <rect x="315"
         y="1"
         width="40"
         height="32"
         class="terminal"
         rx="10"/>
   <text class="terminal" x="325" y="21">AS</text>
   <rect x="45" y="113" width="26" height="32" rx="10"/>
   <rect x="43"
         y="111"
         width="26"
         height="32"
         class="terminal"
         rx="10"/>
   <text class="terminal" x="53" y="131">(</text>
   <rect x="111" y="113" width="90" height="32"/>
   <rect x="109" y="111" width="90" height="32" class="nonterminal"/>
   <text class="nonterminal" x="119" y="131">field_name</text>
   <rect x="221" y="113" width="84" height="32"/>
   <rect x="219" y="111" width="84" height="32" class="nonterminal"/>
   <text class="nonterminal" x="229" y="131">field_type</text>
   <rect x="111" y="69" width="24" height="32" rx="10"/>
   <rect x="109"
         y="67"
         width="24"
         height="32"
         class="terminal"
         rx="10"/>
   <text class="terminal" x="119" y="87">,</text>
   <rect x="65" y="201" width="50" height="32" rx="10"/>
   <rect x="63"
         y="199"
         width="50"
         height="32"
         class="terminal"
         rx="10"/>
   <text class="terminal" x="73" y="219">LIST</text>
   <rect x="65" y="245" width="52" height="32" rx="10"/>
   <rect x="63"
         y="243"
         width="52"
         height="32"
         class="terminal"
         rx="10"/>
   <text class="terminal" x="73" y="263">MAP</text>
   <rect x="157" y="201" width="26" height="32" rx="10"/>
   <rect x="155"
         y="199"
         width="26"
         height="32"
         class="terminal"
         rx="10"/>
   <text class="terminal" x="165" y="219">(</text>
   <rect x="223" y="201" width="76" height="32"/>
   <rect x="221" y="199" width="76" height="32" class="nonterminal"/>
   <text class="nonterminal" x="231" y="219">property</text>
   <rect x="319" y="201" width="28" height="32" rx="10"/>
   <rect x="317"
         y="199"
         width="28"
         height="32"
         class="terminal"
         rx="10"/>
   <text class="terminal" x="327" y="219">=</text>
   <rect x="367" y="201" width="38" height="32"/>
   <rect x="365" y="199" width="38" height="32" class="nonterminal"/>
   <text class="nonterminal" x="375" y="219">val</text>
   <rect x="223" y="157" width="24" height="32" rx="10"/>
   <rect x="221"
         y="155"
         width="24"
         height="32"
         class="terminal"
         rx="10"/>
   <text class="terminal" x="231" y="175">,</text>
   <rect x="465" y="113" width="26" height="32" rx="10"/>
   <rect x="463"
         y="111"
         width="26"
         height="32"
         class="terminal"
         rx="10"/>
   <text class="terminal" x="473" y="131">)</text>
   <path class="line"
         d="m19 17 h2 m0 0 h10 m76 0 h10 m0 0 h10 m56 0 h10 m0 0 h10 m92 0 h10 m0 0 h10 m40 0 h10 m2 0 l2 0 m2 0 l2 0 m2 0 l2 0 m-376 110 l2 0 m2 0 l2 0 m2 0 l2 0 m22 0 h10 m26 0 h10 m20 0 h10 m90 0 h10 m0 0 h10 m84 0 h10 m-234 0 l20 0 m-1 0 q-9 0 -9 -10 l0 -24 q0 -10 10 -10 m214 44 l20 0 m-20 0 q10 0 10 -10 l0 -24 q0 -10 -10 -10 m-214 0 h10 m24 0 h10 m0 0 h170 m20 44 h100 m-420 0 h20 m400 0 h20 m-440 0 q10 0 10 10 m420 0 q0 -10 10 -10 m-430 10 v68 m420 0 v-68 m-420 68 q0 10 10 10 m400 0 q10 0 10 -10 m-390 10 h10 m50 0 h10 m0 0 h2 m-92 0 h20 m72 0 h20 m-112 0 q10 0 10 10 m92 0 q0 -10 10 -10 m-102 10 v24 m92 0 v-24 m-92 24 q0 10 10 10 m72 0 q10 0 10 -10 m-82 10 h10 m52 0 h10 m20 -44 h10 m26 0 h10 m20 0 h10 m76 0 h10 m0 0 h10 m28 0 h10 m0 0 h10 m38 0 h10 m-222 0 l20 0 m-1 0 q-9 0 -9 -10 l0 -24 q0 -10 10 -10 m202 44 l20 0 m-20 0 q10 0 10 -10 l0 -24 q0 -10 -10 -10 m-202 0 h10 m24 0 h10 m0 0 h158 m40 -44 h10 m26 0 h10 m3 0 h-3"/>
   <polygon points="509 127 517 123 517 131"/>
   <polygon points="509 127 501 123 501 131"/>
</svg>
