<svg xmlns="http://www.w3.org/2000/svg" width="601" height="1087">
   <polygon points="9 17 1 13 1 21"/>
   <polygon points="17 17 9 13 9 21"/>
   <rect x="31" y="3" width="140" height="32" rx="10"/>
   <rect x="29"
         y="1"
         width="140"
         height="32"
         class="terminal"
         rx="10"/>
   <text class="terminal" x="39" y="21">CREATE SOURCE</text>
   <rect x="211" y="35" width="120" height="32" rx="10"/>
   <rect x="209"
         y="33"
         width="120"
         height="32"
         class="terminal"
         rx="10"/>
   <text class="terminal" x="219" y="53">IF NOT EXISTS</text>
   <rect x="371" y="3" width="82" height="32"/>
   <rect x="369" y="1" width="82" height="32" class="nonterminal"/>
   <text class="nonterminal" x="379" y="21">src_name</text>
   <rect x="45" y="145" width="26" height="32" rx="10"/>
   <rect x="43"
         y="143"
         width="26"
         height="32"
         class="terminal"
         rx="10"/>
   <text class="terminal" x="53" y="163">(</text>
   <rect x="111" y="145" width="82" height="32"/>
   <rect x="109" y="143" width="82" height="32" class="nonterminal"/>
   <text class="nonterminal" x="119" y="163">col_name</text>
   <rect x="111" y="101" width="24" height="32" rx="10"/>
   <rect x="109"
         y="99"
         width="24"
         height="32"
         class="terminal"
         rx="10"/>
   <text class="terminal" x="119" y="119">,</text>
   <rect x="253" y="177" width="24" height="32" rx="10"/>
   <rect x="251"
         y="175"
         width="24"
         height="32"
         class="terminal"
         rx="10"/>
   <text class="terminal" x="261" y="195">,</text>
   <rect x="297" y="177" width="116" height="32"/>
   <rect x="295" y="175" width="116" height="32" class="nonterminal"/>
   <text class="nonterminal" x="305" y="195">key_constraint</text>
   <rect x="453" y="145" width="26" height="32" rx="10"/>
   <rect x="451"
         y="143"
         width="26"
         height="32"
         class="terminal"
         rx="10"/>
   <text class="terminal" x="461" y="163">)</text>
   <rect x="519" y="145" width="60" height="32" rx="10"/>
   <rect x="517"
         y="143"
         width="60"
         height="32"
         class="terminal"
         rx="10"/>
   <text class="terminal" x="527" y="163">FROM</text>
   <rect x="57" y="259" width="68" height="32" rx="10"/>
   <rect x="55"
         y="257"
         width="68"
         height="32"
         class="terminal"
         rx="10"/>
   <text class="terminal" x="65" y="277">KAFKA</text>
   <rect x="145" y="259" width="116" height="32" rx="10"/>
   <rect x="143"
         y="257"
         width="116"
         height="32"
         class="terminal"
         rx="10"/>
   <text class="terminal" x="153" y="277">CONNECTION</text>
   <rect x="281" y="259" width="136" height="32"/>
   <rect x="279" y="257" width="136" height="32" class="nonterminal"/>
   <text class="nonterminal" x="289" y="277">connection_name</text>
   <rect x="437" y="259" width="26" height="32" rx="10"/>
   <rect x="435"
         y="257"
         width="26"
         height="32"
         class="terminal"
         rx="10"/>
   <text class="terminal" x="445" y="277">(</text>
   <rect x="483" y="259" width="64" height="32" rx="10"/>
   <rect x="481"
         y="257"
         width="64"
         height="32"
         class="terminal"
         rx="10"/>
   <text class="terminal" x="491" y="277">TOPIC</text>
   <rect x="127" y="325" width="52" height="32"/>
   <rect x="125" y="323" width="52" height="32" class="nonterminal"/>
   <text class="nonterminal" x="135" y="343">topic</text>
   <rect x="219" y="357" width="24" height="32" rx="10"/>
   <rect x="217"
         y="355"
         width="24"
         height="32"
         class="terminal"
         rx="10"/>
   <text class="terminal" x="227" y="375">,</text>
   <rect x="263" y="357" width="148" height="32"/>
   <rect x="261" y="355" width="148" height="32" class="nonterminal"/>
   <text class="nonterminal" x="271" y="375">connection_options</text>
   <rect x="451" y="325" width="26" height="32" rx="10"/>
   <rect x="449"
         y="323"
         width="26"
         height="32"
         class="terminal"
         rx="10"/>
   <text class="terminal" x="459" y="343">)</text>
   <rect x="47" y="423" width="114" height="32" rx="10"/>
   <rect x="45"
         y="421"
         width="114"
         height="32"
         class="terminal"
         rx="10"/>
   <text class="terminal" x="55" y="441">KEY FORMAT</text>
   <rect x="181" y="423" width="102" height="32"/>
   <rect x="179" y="421" width="102" height="32" class="nonterminal"/>
   <text class="nonterminal" x="189" y="441">format_spec</text>
   <rect x="303" y="423" width="132" height="32" rx="10"/>
   <rect x="301"
         y="421"
         width="132"
         height="32"
         class="terminal"
         rx="10"/>
   <text class="terminal" x="311" y="441">VALUE FORMAT</text>
   <rect x="47" y="467" width="80" height="32" rx="10"/>
   <rect x="45"
         y="465"
         width="80"
         height="32"
         class="terminal"
         rx="10"/>
   <text class="terminal" x="55" y="485">FORMAT</text>
   <rect x="475" y="423" width="102" height="32"/>
   <rect x="473" y="421" width="102" height="32" class="nonterminal"/>
   <text class="nonterminal" x="483" y="441">format_spec</text>
   <rect x="50" y="549" width="82" height="32" rx="10"/>
   <rect x="48"
         y="547"
         width="82"
         height="32"
         class="terminal"
         rx="10"/>
   <text class="terminal" x="58" y="567">INCLUDE</text>
   <rect x="212" y="549" width="48" height="32" rx="10"/>
   <rect x="210"
         y="547"
         width="48"
         height="32"
         class="terminal"
         rx="10"/>
   <text class="terminal" x="220" y="567">KEY</text>
   <rect x="212" y="593" width="96" height="32" rx="10"/>
   <rect x="210"
         y="591"
         width="96"
         height="32"
         class="terminal"
         rx="10"/>
   <text class="terminal" x="220" y="611">PARTITION</text>
   <rect x="212" y="637" width="74" height="32" rx="10"/>
   <rect x="210"
         y="635"
         width="74"
         height="32"
         class="terminal"
         rx="10"/>
   <text class="terminal" x="220" y="655">OFFSET</text>
   <rect x="212" y="681" width="106" height="32" rx="10"/>
   <rect x="210"
         y="679"
         width="106"
         height="32"
         class="terminal"
         rx="10"/>
   <text class="terminal" x="220" y="699">TIMESTAMP</text>
   <rect x="212" y="725" width="86" height="32" rx="10"/>
   <rect x="210"
         y="723"
         width="86"
         height="32"
         class="terminal"
         rx="10"/>
   <text class="terminal" x="220" y="743">HEADERS</text>
   <rect x="378" y="581" width="40" height="32" rx="10"/>
   <rect x="376"
         y="579"
         width="40"
         height="32"
         class="terminal"
         rx="10"/>
   <text class="terminal" x="386" y="599">AS</text>
   <rect x="438" y="581" width="56" height="32"/>
   <rect x="436" y="579" width="56" height="32" class="nonterminal"/>
   <text class="nonterminal" x="446" y="599">name</text>
   <rect x="179" y="839" width="94" height="32" rx="10"/>
   <rect x="177"
         y="837"
         width="94"
         height="32"
         class="terminal"
         rx="10"/>
   <text class="terminal" x="187" y="857">ENVELOPE</text>
   <rect x="313" y="839" width="60" height="32" rx="10"/>
   <rect x="311"
         y="837"
         width="60"
         height="32"
         class="terminal"
         rx="10"/>
   <text class="terminal" x="321" y="857">NONE</text>
   <rect x="313" y="883" width="92" height="32" rx="10"/>
   <rect x="311"
         y="881"
         width="92"
         height="32"
         class="terminal"
         rx="10"/>
   <text class="terminal" x="321" y="901">DEBEZIUM</text>
   <rect x="313" y="927" width="76" height="32" rx="10"/>
   <rect x="311"
         y="925"
         width="76"
         height="32"
         class="terminal"
         rx="10"/>
   <text class="terminal" x="321" y="945">UPSERT</text>
   <rect x="189" y="1037" width="58" height="32" rx="10"/>
   <rect x="187"
         y="1035"
         width="58"
         height="32"
         class="terminal"
         rx="10"/>
   <text class="terminal" x="197" y="1055">WITH</text>
   <rect x="267" y="1037" width="26" height="32" rx="10"/>
   <rect x="265"
         y="1035"
         width="26"
         height="32"
         class="terminal"
         rx="10"/>
   <text class="terminal" x="275" y="1055">(</text>
   <rect x="333" y="1037" width="48" height="32"/>
   <rect x="331" y="1035" width="48" height="32" class="nonterminal"/>
   <text class="nonterminal" x="341" y="1055">field</text>
   <rect x="401" y="1037" width="28" height="32" rx="10"/>
   <rect x="399"
         y="1035"
         width="28"
         height="32"
         class="terminal"
         rx="10"/>
   <text class="terminal" x="409" y="1055">=</text>
   <rect x="449" y="1037" width="38" height="32"/>
   <rect x="447" y="1035" width="38" height="32" class="nonterminal"/>
   <text class="nonterminal" x="457" y="1055">val</text>
   <rect x="333" y="993" width="24" height="32" rx="10"/>
   <rect x="331"
         y="991"
         width="24"
         height="32"
         class="terminal"
         rx="10"/>
   <text class="terminal" x="341" y="1011">,</text>
   <rect x="527" y="1037" width="26" height="32" rx="10"/>
   <rect x="525"
         y="1035"
         width="26"
         height="32"
         class="terminal"
         rx="10"/>
   <text class="terminal" x="535" y="1055">)</text>
   <path class="line"
         d="m17 17 h2 m0 0 h10 m140 0 h10 m20 0 h10 m0 0 h130 m-160 0 h20 m140 0 h20 m-180 0 q10 0 10 10 m160 0 q0 -10 10 -10 m-170 10 v12 m160 0 v-12 m-160 12 q0 10 10 10 m140 0 q10 0 10 -10 m-150 10 h10 m120 0 h10 m20 -32 h10 m82 0 h10 m2 0 l2 0 m2 0 l2 0 m2 0 l2 0 m-472 142 l2 0 m2 0 l2 0 m2 0 l2 0 m22 0 h10 m26 0 h10 m20 0 h10 m82 0 h10 m-122 0 l20 0 m-1 0 q-9 0 -9 -10 l0 -24 q0 -10 10 -10 m102 44 l20 0 m-20 0 q10 0 10 -10 l0 -24 q0 -10 -10 -10 m-102 0 h10 m24 0 h10 m0 0 h58 m40 44 h10 m0 0 h170 m-200 0 h20 m180 0 h20 m-220 0 q10 0 10 10 m200 0 q0 -10 10 -10 m-210 10 v12 m200 0 v-12 m-200 12 q0 10 10 10 m180 0 q10 0 10 -10 m-190 10 h10 m24 0 h10 m0 0 h10 m116 0 h10 m20 -32 h10 m26 0 h10 m-474 0 h20 m454 0 h20 m-494 0 q10 0 10 10 m474 0 q0 -10 10 -10 m-484 10 v46 m474 0 v-46 m-474 46 q0 10 10 10 m454 0 q10 0 10 -10 m-464 10 h10 m0 0 h444 m20 -66 h10 m60 0 h10 m2 0 l2 0 m2 0 l2 0 m2 0 l2 0 m-566 114 l2 0 m2 0 l2 0 m2 0 l2 0 m2 0 h10 m68 0 h10 m0 0 h10 m116 0 h10 m0 0 h10 m136 0 h10 m0 0 h10 m26 0 h10 m0 0 h10 m64 0 h10 m2 0 l2 0 m2 0 l2 0 m2 0 l2 0 m-464 66 l2 0 m2 0 l2 0 m2 0 l2 0 m2 0 h10 m52 0 h10 m20 0 h10 m0 0 h202 m-232 0 h20 m212 0 h20 m-252 0 q10 0 10 10 m232 0 q0 -10 10 -10 m-242 10 v12 m232 0 v-12 m-232 12 q0 10 10 10 m212 0 q10 0 10 -10 m-222 10 h10 m24 0 h10 m0 0 h10 m148 0 h10 m20 -32 h10 m26 0 h10 m2 0 l2 0 m2 0 l2 0 m2 0 l2 0 m-494 98 l2 0 m2 0 l2 0 m2 0 l2 0 m22 0 h10 m114 0 h10 m0 0 h10 m102 0 h10 m0 0 h10 m132 0 h10 m-428 0 h20 m408 0 h20 m-448 0 q10 0 10 10 m428 0 q0 -10 10 -10 m-438 10 v24 m428 0 v-24 m-428 24 q0 10 10 10 m408 0 q10 0 10 -10 m-418 10 h10 m80 0 h10 m0 0 h308 m20 -44 h10 m102 0 h10 m2 0 l2 0 m2 0 l2 0 m2 0 l2 0 m-591 126 l2 0 m2 0 l2 0 m2 0 l2 0 m22 0 h10 m82 0 h10 m60 0 h10 m48 0 h10 m0 0 h58 m-146 0 h20 m126 0 h20 m-166 0 q10 0 10 10 m146 0 q0 -10 10 -10 m-156 10 v24 m146 0 v-24 m-146 24 q0 10 10 10 m126 0 q10 0 10 -10 m-136 10 h10 m96 0 h10 m0 0 h10 m-136 -10 v20 m146 0 v-20 m-146 20 v24 m146 0 v-24 m-146 24 q0 10 10 10 m126 0 q10 0 10 -10 m-136 10 h10 m74 0 h10 m0 0 h32 m-136 -10 v20 m146 0 v-20 m-146 20 v24 m146 0 v-24 m-146 24 q0 10 10 10 m126 0 q10 0 10 -10 m-136 10 h10 m106 0 h10 m-136 -10 v20 m146 0 v-20 m-146 20 v24 m146 0 v-24 m-146 24 q0 10 10 10 m126 0 q10 0 10 -10 m-136 10 h10 m86 0 h10 m0 0 h20 m40 -176 h10 m0 0 h126 m-156 0 h20 m136 0 h20 m-176 0 q10 0 10 10 m156 0 q0 -10 10 -10 m-166 10 v12 m156 0 v-12 m-156 12 q0 10 10 10 m136 0 q10 0 10 -10 m-146 10 h10 m40 0 h10 m0 0 h10 m56 0 h10 m-342 -32 l20 0 m-1 0 q-9 0 -9 -10 l0 -12 q0 -10 10 -10 m342 32 l20 0 m-20 0 q10 0 10 -10 l0 -12 q0 -10 -10 -10 m-342 0 h10 m0 0 h332 m-382 32 h20 m382 0 h20 m-422 0 q10 0 10 10 m402 0 q0 -10 10 -10 m-412 10 v190 m402 0 v-190 m-402 190 q0 10 10 10 m382 0 q10 0 10 -10 m-392 10 h10 m0 0 h372 m-524 -210 h20 m524 0 h20 m-564 0 q10 0 10 10 m544 0 q0 -10 10 -10 m-554 10 v206 m544 0 v-206 m-544 206 q0 10 10 10 m524 0 q10 0 10 -10 m-534 10 h10 m0 0 h514 m22 -226 l2 0 m2 0 l2 0 m2 0 l2 0 m-459 258 l2 0 m2 0 l2 0 m2 0 l2 0 m22 0 h10 m0 0 h256 m-286 0 h20 m266 0 h20 m-306 0 q10 0 10 10 m286 0 q0 -10 10 -10 m-296 10 v12 m286 0 v-12 m-286 12 q0 10 10 10 m266 0 q10 0 10 -10 m-276 10 h10 m94 0 h10 m20 0 h10 m60 0 h10 m0 0 h32 m-132 0 h20 m112 0 h20 m-152 0 q10 0 10 10 m132 0 q0 -10 10 -10 m-142 10 v24 m132 0 v-24 m-132 24 q0 10 10 10 m112 0 q10 0 10 -10 m-122 10 h10 m92 0 h10 m-122 -10 v20 m132 0 v-20 m-132 20 v24 m132 0 v-24 m-132 24 q0 10 10 10 m112 0 q10 0 10 -10 m-122 10 h10 m76 0 h10 m0 0 h16 m42 -120 l2 0 m2 0 l2 0 m2 0 l2 0 m-320 230 l2 0 m2 0 l2 0 m2 0 l2 0 m22 0 h10 m58 0 h10 m0 0 h10 m26 0 h10 m20 0 h10 m48 0 h10 m0 0 h10 m28 0 h10 m0 0 h10 m38 0 h10 m-194 0 l20 0 m-1 0 q-9 0 -9 -10 l0 -24 q0 -10 10 -10 m174 44 l20 0 m-20 0 q10 0 10 -10 l0 -24 q0 -10 -10 -10 m-174 0 h10 m24 0 h10 m0 0 h130 m20 44 h10 m26 0 h10 m-404 0 h20 m384 0 h20 m-424 0 q10 0 10 10 m404 0 q0 -10 10 -10 m-414 10 v14 m404 0 v-14 m-404 14 q0 10 10 10 m384 0 q10 0 10 -10 m-394 10 h10 m0 0 h374 m23 -34 h-3"/>
   <polygon points="591 1051 599 1047 599 1055"/>
   <polygon points="591 1051 583 1047 583 1055"/>
</svg>
