<svg xmlns="http://www.w3.org/2000/svg" width="601" height="1145">
   <polygon points="9 17 1 13 1 21"/>
   <polygon points="17 17 9 13 9 21"/>
   <rect x="31" y="3" width="76" height="32" rx="10"/>
   <rect x="29"
         y="1"
         width="76"
         height="32"
         class="terminal"
         rx="10"/>
   <text class="terminal" x="39" y="21">CREATE</text>
   <rect x="147" y="35" width="124" height="32" rx="10"/>
   <rect x="145"
         y="33"
         width="124"
         height="32"
         class="terminal"
         rx="10"/>
   <text class="terminal" x="155" y="53">MATERIALIZED</text>
   <rect x="311" y="3" width="78" height="32" rx="10"/>
   <rect x="309"
         y="1"
         width="78"
         height="32"
         class="terminal"
         rx="10"/>
   <text class="terminal" x="319" y="21">SOURCE</text>
   <rect x="429" y="35" width="120" height="32" rx="10"/>
   <rect x="427"
         y="33"
         width="120"
         height="32"
         class="terminal"
         rx="10"/>
   <text class="terminal" x="437" y="53">IF NOT EXISTS</text>
   <rect x="261" y="101" width="82" height="32"/>
   <rect x="259" y="99" width="82" height="32" class="nonterminal"/>
   <text class="nonterminal" x="269" y="119">src_name</text>
   <rect x="45" y="211" width="26" height="32" rx="10"/>
   <rect x="43"
         y="209"
         width="26"
         height="32"
         class="terminal"
         rx="10"/>
   <text class="terminal" x="53" y="229">(</text>
   <rect x="111" y="211" width="82" height="32"/>
   <rect x="109" y="209" width="82" height="32" class="nonterminal"/>
   <text class="nonterminal" x="119" y="229">col_name</text>
   <rect x="111" y="167" width="24" height="32" rx="10"/>
   <rect x="109"
         y="165"
         width="24"
         height="32"
         class="terminal"
         rx="10"/>
   <text class="terminal" x="119" y="185">,</text>
   <rect x="253" y="243" width="24" height="32" rx="10"/>
   <rect x="251"
         y="241"
         width="24"
         height="32"
         class="terminal"
         rx="10"/>
   <text class="terminal" x="261" y="261">,</text>
   <rect x="297" y="243" width="116" height="32"/>
   <rect x="295" y="241" width="116" height="32" class="nonterminal"/>
   <text class="nonterminal" x="305" y="261">key_constraint</text>
   <rect x="453" y="211" width="26" height="32" rx="10"/>
   <rect x="451"
         y="209"
         width="26"
         height="32"
         class="terminal"
         rx="10"/>
   <text class="terminal" x="461" y="229">)</text>
   <rect x="519" y="211" width="60" height="32" rx="10"/>
   <rect x="517"
         y="209"
         width="60"
         height="32"
         class="terminal"
         rx="10"/>
   <text class="terminal" x="527" y="229">FROM</text>
   <rect x="44" y="325" width="130" height="32" rx="10"/>
   <rect x="42"
         y="323"
         width="130"
         height="32"
         class="terminal"
         rx="10"/>
   <text class="terminal" x="52" y="343">KAFKA BROKER</text>
   <rect x="194" y="325" width="48" height="32"/>
   <rect x="192" y="323" width="48" height="32" class="nonterminal"/>
   <text class="nonterminal" x="202" y="343">host</text>
   <rect x="262" y="325" width="64" height="32" rx="10"/>
   <rect x="260"
         y="323"
         width="64"
         height="32"
         class="terminal"
         rx="10"/>
   <text class="terminal" x="270" y="343">TOPIC</text>
   <rect x="346" y="325" width="52" height="32"/>
   <rect x="344" y="323" width="52" height="32" class="nonterminal"/>
   <text class="nonterminal" x="354" y="343">topic</text>
   <rect x="438" y="357" width="102" height="32"/>
   <rect x="436" y="355" width="102" height="32" class="nonterminal"/>
   <text class="nonterminal" x="446" y="375">with_options</text>
   <rect x="108" y="423" width="114" height="32" rx="10"/>
   <rect x="106"
         y="421"
         width="114"
         height="32"
         class="terminal"
         rx="10"/>
   <text class="terminal" x="116" y="441">KEY FORMAT</text>
   <rect x="242" y="423" width="102" height="32"/>
   <rect x="240" y="421" width="102" height="32" class="nonterminal"/>
   <text class="nonterminal" x="250" y="441">format_spec</text>
   <rect x="364" y="423" width="132" height="32" rx="10"/>
   <rect x="362"
         y="421"
         width="132"
         height="32"
         class="terminal"
         rx="10"/>
   <text class="terminal" x="372" y="441">VALUE FORMAT</text>
   <rect x="108" y="467" width="80" height="32" rx="10"/>
   <rect x="106"
         y="465"
         width="80"
         height="32"
         class="terminal"
         rx="10"/>
   <text class="terminal" x="116" y="485">FORMAT</text>
   <rect x="247" y="533" width="110" height="32" rx="10"/>
   <rect x="245"
         y="531"
         width="110"
         height="32"
         class="terminal"
         rx="10"/>
   <text class="terminal" x="255" y="551">AVRO USING</text>
   <rect x="70" y="599" width="246" height="32" rx="10"/>
   <rect x="68"
         y="597"
         width="246"
         height="32"
         class="terminal"
         rx="10"/>
   <text class="terminal" x="78" y="617">CONFLUENT SCHEMA REGISTRY</text>
   <rect x="336" y="599" width="36" height="32"/>
   <rect x="334" y="597" width="36" height="32" class="nonterminal"/>
   <text class="nonterminal" x="344" y="617">url</text>
   <rect x="412" y="631" width="102" height="32"/>
   <rect x="410" y="629" width="102" height="32" class="nonterminal"/>
   <text class="nonterminal" x="420" y="649">with_options</text>
   <rect x="70" y="675" width="82" height="32" rx="10"/>
   <rect x="68"
         y="673"
         width="82"
         height="32"
         class="terminal"
         rx="10"/>
   <text class="terminal" x="78" y="693">SCHEMA</text>
   <rect x="172" y="675" width="48" height="32" rx="10"/>
   <rect x="170"
         y="673"
         width="48"
         height="32"
         class="terminal"
         rx="10"/>
   <text class="terminal" x="180" y="693">FILE</text>
   <rect x="240" y="675" width="132" height="32"/>
   <rect x="238" y="673" width="132" height="32" class="nonterminal"/>
   <text class="nonterminal" x="248" y="693">schema_file_path</text>
   <rect x="70" y="757" width="82" height="32" rx="10"/>
   <rect x="68"
         y="755"
         width="82"
         height="32"
         class="terminal"
         rx="10"/>
   <text class="terminal" x="78" y="775">INCLUDE</text>
   <rect x="212" y="757" width="48" height="32" rx="10"/>
   <rect x="210"
         y="755"
         width="48"
         height="32"
         class="terminal"
         rx="10"/>
   <text class="terminal" x="220" y="775">KEY</text>
   <rect x="212" y="801" width="96" height="32" rx="10"/>
   <rect x="210"
         y="799"
         width="96"
         height="32"
         class="terminal"
         rx="10"/>
   <text class="terminal" x="220" y="819">PARTITION</text>
   <rect x="212" y="845" width="74" height="32" rx="10"/>
   <rect x="210"
         y="843"
         width="74"
         height="32"
         class="terminal"
         rx="10"/>
   <text class="terminal" x="220" y="863">OFFSET</text>
   <rect x="212" y="889" width="106" height="32" rx="10"/>
   <rect x="210"
         y="887"
         width="106"
         height="32"
         class="terminal"
         rx="10"/>
   <text class="terminal" x="220" y="907">TIMESTAMP</text>
   <rect x="378" y="789" width="40" height="32" rx="10"/>
   <rect x="376"
         y="787"
         width="40"
         height="32"
         class="terminal"
         rx="10"/>
   <text class="terminal" x="386" y="807">AS</text>
   <rect x="438" y="789" width="56" height="32"/>
   <rect x="436" y="787" width="56" height="32" class="nonterminal"/>
   <text class="nonterminal" x="446" y="807">name</text>
   <rect x="171" y="991" width="94" height="32" rx="10"/>
   <rect x="169"
         y="989"
         width="94"
         height="32"
         class="terminal"
         rx="10"/>
   <text class="terminal" x="179" y="1009">ENVELOPE</text>
   <rect x="305" y="991" width="60" height="32" rx="10"/>
   <rect x="303"
         y="989"
         width="60"
         height="32"
         class="terminal"
         rx="10"/>
   <text class="terminal" x="313" y="1009">NONE</text>
   <rect x="305" y="1035" width="92" height="32" rx="10"/>
   <rect x="303"
         y="1033"
         width="92"
         height="32"
         class="terminal"
         rx="10"/>
   <text class="terminal" x="313" y="1053">DEBEZIUM</text>
   <rect x="437" y="1067" width="76" height="32" rx="10"/>
   <rect x="435"
         y="1065"
         width="76"
         height="32"
         class="terminal"
         rx="10"/>
   <text class="terminal" x="445" y="1085">UPSERT</text>
   <rect x="305" y="1111" width="76" height="32" rx="10"/>
   <rect x="303"
         y="1109"
         width="76"
         height="32"
         class="terminal"
         rx="10"/>
   <text class="terminal" x="313" y="1129">UPSERT</text>
   <path class="line"
         d="m17 17 h2 m0 0 h10 m76 0 h10 m20 0 h10 m0 0 h134 m-164 0 h20 m144 0 h20 m-184 0 q10 0 10 10 m164 0 q0 -10 10 -10 m-174 10 v12 m164 0 v-12 m-164 12 q0 10 10 10 m144 0 q10 0 10 -10 m-154 10 h10 m124 0 h10 m20 -32 h10 m78 0 h10 m20 0 h10 m0 0 h130 m-160 0 h20 m140 0 h20 m-180 0 q10 0 10 10 m160 0 q0 -10 10 -10 m-170 10 v12 m160 0 v-12 m-160 12 q0 10 10 10 m140 0 q10 0 10 -10 m-150 10 h10 m120 0 h10 m22 -32 l2 0 m2 0 l2 0 m2 0 l2 0 m-352 98 l2 0 m2 0 l2 0 m2 0 l2 0 m2 0 h10 m82 0 h10 m2 0 l2 0 m2 0 l2 0 m2 0 l2 0 m-362 110 l2 0 m2 0 l2 0 m2 0 l2 0 m22 0 h10 m26 0 h10 m20 0 h10 m82 0 h10 m-122 0 l20 0 m-1 0 q-9 0 -9 -10 l0 -24 q0 -10 10 -10 m102 44 l20 0 m-20 0 q10 0 10 -10 l0 -24 q0 -10 -10 -10 m-102 0 h10 m24 0 h10 m0 0 h58 m40 44 h10 m0 0 h170 m-200 0 h20 m180 0 h20 m-220 0 q10 0 10 10 m200 0 q0 -10 10 -10 m-210 10 v12 m200 0 v-12 m-200 12 q0 10 10 10 m180 0 q10 0 10 -10 m-190 10 h10 m24 0 h10 m0 0 h10 m116 0 h10 m20 -32 h10 m26 0 h10 m-474 0 h20 m454 0 h20 m-494 0 q10 0 10 10 m474 0 q0 -10 10 -10 m-484 10 v46 m474 0 v-46 m-474 46 q0 10 10 10 m454 0 q10 0 10 -10 m-464 10 h10 m0 0 h444 m20 -66 h10 m60 0 h10 m2 0 l2 0 m2 0 l2 0 m2 0 l2 0 m-579 114 l2 0 m2 0 l2 0 m2 0 l2 0 m2 0 h10 m130 0 h10 m0 0 h10 m48 0 h10 m0 0 h10 m64 0 h10 m0 0 h10 m52 0 h10 m20 0 h10 m0 0 h112 m-142 0 h20 m122 0 h20 m-162 0 q10 0 10 10 m142 0 q0 -10 10 -10 m-152 10 v12 m142 0 v-12 m-142 12 q0 10 10 10 m122 0 q10 0 10 -10 m-132 10 h10 m102 0 h10 m22 -32 l2 0 m2 0 l2 0 m2 0 l2 0 m-516 98 l2 0 m2 0 l2 0 m2 0 l2 0 m22 0 h10 m114 0 h10 m0 0 h10 m102 0 h10 m0 0 h10 m132 0 h10 m-428 0 h20 m408 0 h20 m-448 0 q10 0 10 10 m428 0 q0 -10 10 -10 m-438 10 v24 m428 0 v-24 m-428 24 q0 10 10 10 m408 0 q10 0 10 -10 m-418 10 h10 m80 0 h10 m0 0 h308 m22 -44 l2 0 m2 0 l2 0 m2 0 l2 0 m-313 110 l2 0 m2 0 l2 0 m2 0 l2 0 m2 0 h10 m110 0 h10 m2 0 l2 0 m2 0 l2 0 m2 0 l2 0 m-351 66 l2 0 m2 0 l2 0 m2 0 l2 0 m22 0 h10 m246 0 h10 m0 0 h10 m36 0 h10 m20 0 h10 m0 0 h112 m-142 0 h20 m122 0 h20 m-162 0 q10 0 10 10 m142 0 q0 -10 10 -10 m-152 10 v12 m142 0 v-12 m-142 12 q0 10 10 10 m122 0 q10 0 10 -10 m-132 10 h10 m102 0 h10 m-484 -32 h20 m484 0 h20 m-524 0 q10 0 10 10 m504 0 q0 -10 10 -10 m-514 10 v56 m504 0 v-56 m-504 56 q0 10 10 10 m484 0 q10 0 10 -10 m-494 10 h10 m82 0 h10 m0 0 h10 m48 0 h10 m0 0 h10 m132 0 h10 m0 0 h162 m22 -76 l2 0 m2 0 l2 0 m2 0 l2 0 m-548 158 l2 0 m2 0 l2 0 m2 0 l2 0 m22 0 h10 m82 0 h10 m40 0 h10 m48 0 h10 m0 0 h58 m-146 0 h20 m126 0 h20 m-166 0 q10 0 10 10 m146 0 q0 -10 10 -10 m-156 10 v24 m146 0 v-24 m-146 24 q0 10 10 10 m126 0 q10 0 10 -10 m-136 10 h10 m96 0 h10 m0 0 h10 m-136 -10 v20 m146 0 v-20 m-146 20 v24 m146 0 v-24 m-146 24 q0 10 10 10 m126 0 q10 0 10 -10 m-136 10 h10 m74 0 h10 m0 0 h32 m-136 -10 v20 m146 0 v-20 m-146 20 v24 m146 0 v-24 m-146 24 q0 10 10 10 m126 0 q10 0 10 -10 m-136 10 h10 m106 0 h10 m40 -132 h10 m0 0 h126 m-156 0 h20 m136 0 h20 m-176 0 q10 0 10 10 m156 0 q0 -10 10 -10 m-166 10 v12 m156 0 v-12 m-156 12 q0 10 10 10 m136 0 q10 0 10 -10 m-146 10 h10 m40 0 h10 m0 0 h10 m56 0 h10 m-342 -32 l20 0 m-1 0 q-9 0 -9 -10 l0 -12 q0 -10 10 -10 m342 32 l20 0 m-20 0 q10 0 10 -10 l0 -12 q0 -10 -10 -10 m-342 0 h10 m0 0 h332 m-484 32 h20 m484 0 h20 m-524 0 q10 0 10 10 m504 0 q0 -10 10 -10 m-514 10 v146 m504 0 v-146 m-504 146 q0 10 10 10 m484 0 q10 0 10 -10 m-494 10 h10 m0 0 h474 m22 -166 l2 0 m2 0 l2 0 m2 0 l2 0 m-447 202 l2 0 m2 0 l2 0 m2 0 l2 0 m22 0 h10 m0 0 h392 m-422 0 h20 m402 0 h20 m-442 0 q10 0 10 10 m422 0 q0 -10 10 -10 m-432 10 v12 m422 0 v-12 m-422 12 q0 10 10 10 m402 0 q10 0 10 -10 m-412 10 h10 m94 0 h10 m20 0 h10 m60 0 h10 m0 0 h168 m-268 0 h20 m248 0 h20 m-288 0 q10 0 10 10 m268 0 q0 -10 10 -10 m-278 10 v24 m268 0 v-24 m-268 24 q0 10 10 10 m248 0 q10 0 10 -10 m-258 10 h10 m92 0 h10 m20 0 h10 m0 0 h86 m-116 0 h20 m96 0 h20 m-136 0 q10 0 10 10 m116 0 q0 -10 10 -10 m-126 10 v12 m116 0 v-12 m-116 12 q0 10 10 10 m96 0 q10 0 10 -10 m-106 10 h10 m76 0 h10 m-238 -42 v20 m268 0 v-20 m-268 20 v56 m268 0 v-56 m-268 56 q0 10 10 10 m248 0 q10 0 10 -10 m-258 10 h10 m76 0 h10 m0 0 h152 m43 -152 h-3"/>
   <polygon points="591 973 599 969 599 977"/>
   <polygon points="591 973 583 969 583 977"/>
</svg>
