<svg xmlns="http://www.w3.org/2000/svg" width="555" height="391">
   <polygon points="9 17 1 13 1 21"/>
   <polygon points="17 17 9 13 9 21"/>
   <rect x="31" y="3" width="112" height="32" rx="10"/>
   <rect x="29"
         y="1"
         width="112"
         height="32"
         class="terminal"
         rx="10"/>
   <text class="terminal" x="39" y="21">CREATE SINK</text>
   <rect x="183" y="35" width="118" height="32" rx="10"/>
   <rect x="181"
         y="33"
         width="118"
         height="32"
         class="terminal"
         rx="10"/>
   <text class="terminal" x="191" y="53">IF NOT EXISTS</text>
   <rect x="341" y="3" width="86" height="32"/>
   <rect x="339" y="1" width="86" height="32" class="nonterminal"/>
   <text class="nonterminal" x="349" y="21">sink_name</text>
   <rect x="447" y="3" width="60" height="32" rx="10"/>
   <rect x="445"
         y="1"
         width="60"
         height="32"
         class="terminal"
         rx="10"/>
   <text class="terminal" x="455" y="21">FROM</text>
   <rect x="70" y="101" width="88" height="32"/>
   <rect x="68" y="99" width="88" height="32" class="nonterminal"/>
   <text class="nonterminal" x="78" y="119">item_name</text>
   <rect x="178" y="101" width="52" height="32" rx="10"/>
   <rect x="176"
         y="99"
         width="52"
         height="32"
         class="terminal"
         rx="10"/>
   <text class="terminal" x="186" y="119">INTO</text>
   <rect x="270" y="101" width="154" height="32"/>
   <rect x="268" y="99" width="154" height="32" class="nonterminal"/>
   <text class="nonterminal" x="278" y="119">sink_kafka_connector</text>
   <rect x="270" y="145" width="92" height="32" rx="10"/>
   <rect x="268"
         y="143"
         width="92"
         height="32"
         class="terminal"
         rx="10"/>
   <text class="terminal" x="278" y="163">AVRO OCF</text>
   <rect x="382" y="145" width="86" height="32"/>
   <rect x="380" y="143" width="86" height="32" class="nonterminal"/>
   <text class="nonterminal" x="390" y="163">path-prefix</text>
   <rect x="45" y="227" width="92" height="32" rx="10"/>
   <rect x="43"
         y="225"
         width="92"
         height="32"
         class="terminal"
         rx="10"/>
   <text class="terminal" x="53" y="245">ENVELOPE</text>
   <rect x="177" y="227" width="92" height="32" rx="10"/>
   <rect x="175"
         y="225"
         width="92"
         height="32"
         class="terminal"
         rx="10"/>
   <text class="terminal" x="185" y="245">DEBEZIUM</text>
   <rect x="177" y="271" width="74" height="32" rx="10"/>
   <rect x="175"
         y="269"
         width="74"
         height="32"
         class="terminal"
         rx="10"/>
   <text class="terminal" x="185" y="289">UPSERT</text>
   <rect x="349" y="227" width="136" height="32" rx="10"/>
   <rect x="347"
         y="225"
         width="136"
         height="32"
         class="terminal"
         rx="10"/>
   <text class="terminal" x="357" y="245">WITH SNAPSHOT</text>
   <rect x="349" y="271" width="164" height="32" rx="10"/>
   <rect x="347"
         y="269"
         width="164"
         height="32"
         class="terminal"
         rx="10"/>
   <text class="terminal" x="357" y="289">WITHOUT SNAPSHOT</text>
   <rect x="269" y="357" width="60" height="32" rx="10"/>
   <rect x="267"
         y="355"
         width="60"
         height="32"
         class="terminal"
         rx="10"/>
   <text class="terminal" x="277" y="375">AS OF</text>
   <rect x="349" y="357" width="158" height="32"/>
   <rect x="347" y="355" width="158" height="32" class="nonterminal"/>
   <text class="nonterminal" x="357" y="375">timestamp_expression</text>
   <path class="line"
         d="m17 17 h2 m0 0 h10 m112 0 h10 m20 0 h10 m0 0 h128 m-158 0 h20 m138 0 h20 m-178 0 q10 0 10 10 m158 0 q0 -10 10 -10 m-168 10 v12 m158 0 v-12 m-158 12 q0 10 10 10 m138 0 q10 0 10 -10 m-148 10 h10 m118 0 h10 m20 -32 h10 m86 0 h10 m0 0 h10 m60 0 h10 m2 0 l2 0 m2 0 l2 0 m2 0 l2 0 m-481 98 l2 0 m2 0 l2 0 m2 0 l2 0 m2 0 h10 m88 0 h10 m0 0 h10 m52 0 h10 m20 0 h10 m154 0 h10 m0 0 h44 m-238 0 h20 m218 0 h20 m-258 0 q10 0 10 10 m238 0 q0 -10 10 -10 m-248 10 v24 m238 0 v-24 m-238 24 q0 10 10 10 m218 0 q10 0 10 -10 m-228 10 h10 m92 0 h10 m0 0 h10 m86 0 h10 m22 -44 l2 0 m2 0 l2 0 m2 0 l2 0 m-507 94 l2 0 m2 0 l2 0 m2 0 l2 0 m22 0 h10 m0 0 h254 m-284 0 h20 m264 0 h20 m-304 0 q10 0 10 10 m284 0 q0 -10 10 -10 m-294 10 v12 m284 0 v-12 m-284 12 q0 10 10 10 m264 0 q10 0 10 -10 m-274 10 h10 m92 0 h10 m20 0 h10 m92 0 h10 m-132 0 h20 m112 0 h20 m-152 0 q10 0 10 10 m132 0 q0 -10 10 -10 m-142 10 v24 m132 0 v-24 m-132 24 q0 10 10 10 m112 0 q10 0 10 -10 m-122 10 h10 m74 0 h10 m0 0 h18 m60 -76 h10 m0 0 h174 m-204 0 h20 m184 0 h20 m-224 0 q10 0 10 10 m204 0 q0 -10 10 -10 m-214 10 v12 m204 0 v-12 m-204 12 q0 10 10 10 m184 0 q10 0 10 -10 m-194 10 h10 m136 0 h10 m0 0 h28 m-194 -10 v20 m204 0 v-20 m-204 20 v24 m204 0 v-24 m-204 24 q0 10 10 10 m184 0 q10 0 10 -10 m-194 10 h10 m164 0 h10 m22 -76 l2 0 m2 0 l2 0 m2 0 l2 0 m-328 130 l2 0 m2 0 l2 0 m2 0 l2 0 m22 0 h10 m0 0 h248 m-278 0 h20 m258 0 h20 m-298 0 q10 0 10 10 m278 0 q0 -10 10 -10 m-288 10 v12 m278 0 v-12 m-278 12 q0 10 10 10 m258 0 q10 0 10 -10 m-268 10 h10 m60 0 h10 m0 0 h10 m158 0 h10 m23 -32 h-3"/>
   <polygon points="545 339 553 335 553 343"/>
   <polygon points="545 339 537 335 537 343"/>
</svg>
