<svg xmlns="http://www.w3.org/2000/svg" width="869" height="381">
   <polygon points="9 17 1 13 1 21"/>
   <polygon points="17 17 9 13 9 21"/>
   <rect x="31" y="3" width="76" height="32" rx="10"/>
   <rect x="29"
         y="1"
         width="76"
         height="32"
         class="terminal"
         rx="10"/>
   <text class="terminal" x="39" y="21">CREATE</text>
   <rect x="45" y="113" width="62" height="32" rx="10"/>
   <rect x="43"
         y="111"
         width="62"
         height="32"
         class="terminal"
         rx="10"/>
   <text class="terminal" x="53" y="131">INDEX</text>
   <rect x="127" y="113" width="98" height="32"/>
   <rect x="125" y="111" width="98" height="32" class="nonterminal"/>
   <text class="nonterminal" x="135" y="131">index_name</text>
   <rect x="245" y="113" width="40" height="32" rx="10"/>
   <rect x="243"
         y="111"
         width="40"
         height="32"
         class="terminal"
         rx="10"/>
   <text class="terminal" x="253" y="131">ON</text>
   <rect x="305" y="113" width="82" height="32"/>
   <rect x="303" y="111" width="82" height="32" class="nonterminal"/>
   <text class="nonterminal" x="313" y="131">obj_name</text>
   <rect x="427" y="145" width="64" height="32" rx="10"/>
   <rect x="425"
         y="143"
         width="64"
         height="32"
         class="terminal"
         rx="10"/>
   <text class="terminal" x="435" y="163">USING</text>
   <rect x="511" y="145" width="70" height="32"/>
   <rect x="509" y="143" width="70" height="32" class="nonterminal"/>
   <text class="nonterminal" x="519" y="163">method</text>
   <rect x="621" y="113" width="26" height="32" rx="10"/>
   <rect x="619"
         y="111"
         width="26"
         height="32"
         class="terminal"
         rx="10"/>
   <text class="terminal" x="629" y="131">(</text>
   <rect x="687" y="113" width="74" height="32"/>
   <rect x="685" y="111" width="74" height="32" class="nonterminal"/>
   <text class="nonterminal" x="695" y="131">col_expr</text>
   <rect x="687" y="69" width="24" height="32" rx="10"/>
   <rect x="685"
         y="67"
         width="24"
         height="32"
         class="terminal"
         rx="10"/>
   <text class="terminal" x="695" y="87">,</text>
   <rect x="801" y="113" width="26" height="32" rx="10"/>
   <rect x="799"
         y="111"
         width="26"
         height="32"
         class="terminal"
         rx="10"/>
   <text class="terminal" x="809" y="131">)</text>
   <rect x="45" y="189" width="158" height="32" rx="10"/>
   <rect x="43"
         y="187"
         width="158"
         height="32"
         class="terminal"
         rx="10"/>
   <text class="terminal" x="53" y="207">DEFAULT INDEX ON</text>
   <rect x="223" y="189" width="82" height="32"/>
   <rect x="221" y="187" width="82" height="32" class="nonterminal"/>
   <text class="nonterminal" x="231" y="207">obj_name</text>
   <rect x="345" y="221" width="64" height="32" rx="10"/>
   <rect x="343"
         y="219"
         width="64"
         height="32"
         class="terminal"
         rx="10"/>
   <text class="terminal" x="353" y="239">USING</text>
   <rect x="429" y="221" width="70" height="32"/>
   <rect x="427" y="219" width="70" height="32" class="nonterminal"/>
   <text class="nonterminal" x="437" y="239">method</text>
   <rect x="457" y="331" width="58" height="32" rx="10"/>
   <rect x="455"
         y="329"
         width="58"
         height="32"
         class="terminal"
         rx="10"/>
   <text class="terminal" x="465" y="349">WITH</text>
   <rect x="535" y="331" width="26" height="32" rx="10"/>
   <rect x="533"
         y="329"
         width="26"
         height="32"
         class="terminal"
         rx="10"/>
   <text class="terminal" x="543" y="349">(</text>
   <rect x="601" y="331" width="48" height="32"/>
   <rect x="599" y="329" width="48" height="32" class="nonterminal"/>
   <text class="nonterminal" x="609" y="349">field</text>
   <rect x="669" y="331" width="28" height="32" rx="10"/>
   <rect x="667"
         y="329"
         width="28"
         height="32"
         class="terminal"
         rx="10"/>
   <text class="terminal" x="677" y="349">=</text>
   <rect x="717" y="331" width="38" height="32"/>
   <rect x="715" y="329" width="38" height="32" class="nonterminal"/>
   <text class="nonterminal" x="725" y="349">val</text>
   <rect x="601" y="287" width="24" height="32" rx="10"/>
   <rect x="599"
         y="285"
         width="24"
         height="32"
         class="terminal"
         rx="10"/>
   <text class="terminal" x="609" y="305">,</text>
   <rect x="795" y="331" width="26" height="32" rx="10"/>
   <rect x="793"
         y="329"
         width="26"
         height="32"
         class="terminal"
         rx="10"/>
   <text class="terminal" x="803" y="349">)</text>
   <path class="line"
         d="m17 17 h2 m0 0 h10 m76 0 h10 m2 0 l2 0 m2 0 l2 0 m2 0 l2 0 m-126 110 l2 0 m2 0 l2 0 m2 0 l2 0 m22 0 h10 m62 0 h10 m0 0 h10 m98 0 h10 m0 0 h10 m40 0 h10 m0 0 h10 m82 0 h10 m20 0 h10 m0 0 h164 m-194 0 h20 m174 0 h20 m-214 0 q10 0 10 10 m194 0 q0 -10 10 -10 m-204 10 v12 m194 0 v-12 m-194 12 q0 10 10 10 m174 0 q10 0 10 -10 m-184 10 h10 m64 0 h10 m0 0 h10 m70 0 h10 m20 -32 h10 m26 0 h10 m20 0 h10 m74 0 h10 m-114 0 l20 0 m-1 0 q-9 0 -9 -10 l0 -24 q0 -10 10 -10 m94 44 l20 0 m-20 0 q10 0 10 -10 l0 -24 q0 -10 -10 -10 m-94 0 h10 m24 0 h10 m0 0 h50 m20 44 h10 m26 0 h10 m-822 0 h20 m802 0 h20 m-842 0 q10 0 10 10 m822 0 q0 -10 10 -10 m-832 10 v56 m822 0 v-56 m-822 56 q0 10 10 10 m802 0 q10 0 10 -10 m-812 10 h10 m158 0 h10 m0 0 h10 m82 0 h10 m20 0 h10 m0 0 h164 m-194 0 h20 m174 0 h20 m-214 0 q10 0 10 10 m194 0 q0 -10 10 -10 m-204 10 v12 m194 0 v-12 m-194 12 q0 10 10 10 m174 0 q10 0 10 -10 m-184 10 h10 m64 0 h10 m0 0 h10 m70 0 h10 m20 -32 h308 m22 -76 l2 0 m2 0 l2 0 m2 0 l2 0 m-454 218 l2 0 m2 0 l2 0 m2 0 l2 0 m22 0 h10 m58 0 h10 m0 0 h10 m26 0 h10 m20 0 h10 m48 0 h10 m0 0 h10 m28 0 h10 m0 0 h10 m38 0 h10 m-194 0 l20 0 m-1 0 q-9 0 -9 -10 l0 -24 q0 -10 10 -10 m174 44 l20 0 m-20 0 q10 0 10 -10 l0 -24 q0 -10 -10 -10 m-174 0 h10 m24 0 h10 m0 0 h130 m20 44 h10 m26 0 h10 m-404 0 h20 m384 0 h20 m-424 0 q10 0 10 10 m404 0 q0 -10 10 -10 m-414 10 v14 m404 0 v-14 m-404 14 q0 10 10 10 m384 0 q10 0 10 -10 m-394 10 h10 m0 0 h374 m23 -34 h-3"/>
   <polygon points="859 345 867 341 867 349"/>
   <polygon points="859 345 851 341 851 349"/>
</svg>
