<svg xmlns="http://www.w3.org/2000/svg" width="601" height="391">
   <polygon points="9 17 1 13 1 21"/>
   <polygon points="17 17 9 13 9 21"/>
   <rect x="31" y="3" width="74" height="32" rx="10"/>
   <rect x="29"
         y="1"
         width="74"
         height="32"
         class="terminal"
         rx="10"/>
   <text class="terminal" x="39" y="21">CREATE</text>
   <rect x="145" y="35" width="120" height="32" rx="10"/>
   <rect x="143"
         y="33"
         width="120"
         height="32"
         class="terminal"
         rx="10"/>
   <text class="terminal" x="153" y="53">MATERIALIZED</text>
   <rect x="305" y="3" width="78" height="32" rx="10"/>
   <rect x="303"
         y="1"
         width="78"
         height="32"
         class="terminal"
         rx="10"/>
   <text class="terminal" x="313" y="21">SOURCE</text>
   <rect x="423" y="35" width="118" height="32" rx="10"/>
   <rect x="421"
         y="33"
         width="118"
         height="32"
         class="terminal"
         rx="10"/>
   <text class="terminal" x="431" y="53">IF NOT EXISTS</text>
   <rect x="25" y="145" width="80" height="32"/>
   <rect x="23" y="143" width="80" height="32" class="nonterminal"/>
   <text class="nonterminal" x="33" y="163">src_name</text>
   <rect x="145" y="145" width="24" height="32" rx="10"/>
   <rect x="143"
         y="143"
         width="24"
         height="32"
         class="terminal"
         rx="10"/>
   <text class="terminal" x="153" y="163">(</text>
   <rect x="209" y="145" width="80" height="32"/>
   <rect x="207" y="143" width="80" height="32" class="nonterminal"/>
   <text class="nonterminal" x="217" y="163">col_name</text>
   <rect x="209" y="101" width="24" height="32" rx="10"/>
   <rect x="207"
         y="99"
         width="24"
         height="32"
         class="terminal"
         rx="10"/>
   <text class="terminal" x="217" y="119">,</text>
   <rect x="329" y="145" width="24" height="32" rx="10"/>
   <rect x="327"
         y="143"
         width="24"
         height="32"
         class="terminal"
         rx="10"/>
   <text class="terminal" x="337" y="163">)</text>
   <rect x="393" y="145" width="60" height="32" rx="10"/>
   <rect x="391"
         y="143"
         width="60"
         height="32"
         class="terminal"
         rx="10"/>
   <text class="terminal" x="401" y="163">FROM</text>
   <rect x="473" y="145" width="106" height="32" rx="10"/>
   <rect x="471"
         y="143"
         width="106"
         height="32"
         class="terminal"
         rx="10"/>
   <text class="terminal" x="481" y="163">KINESIS ARN</text>
   <rect x="92" y="227" width="40" height="32"/>
   <rect x="90" y="225" width="40" height="32" class="nonterminal"/>
   <text class="nonterminal" x="100" y="245">arn</text>
   <rect x="172" y="259" width="98" height="32"/>
   <rect x="170" y="257" width="98" height="32" class="nonterminal"/>
   <text class="nonterminal" x="180" y="277">with_options</text>
   <rect x="310" y="227" width="78" height="32" rx="10"/>
   <rect x="308"
         y="225"
         width="78"
         height="32"
         class="terminal"
         rx="10"/>
   <text class="terminal" x="318" y="245">FORMAT</text>
   <rect x="428" y="227" width="64" height="32" rx="10"/>
   <rect x="426"
         y="225"
         width="64"
         height="32"
         class="terminal"
         rx="10"/>
   <text class="terminal" x="436" y="245">BYTES</text>
   <rect x="428" y="271" width="54" height="32" rx="10"/>
   <rect x="426"
         y="269"
         width="54"
         height="32"
         class="terminal"
         rx="10"/>
   <text class="terminal" x="436" y="289">TEXT</text>
   <rect x="381" y="357" width="92" height="32" rx="10"/>
   <rect x="379"
         y="355"
         width="92"
         height="32"
         class="terminal"
         rx="10"/>
   <text class="terminal" x="389" y="375">ENVELOPE</text>
   <rect x="493" y="357" width="60" height="32" rx="10"/>
   <rect x="491"
         y="355"
         width="60"
         height="32"
         class="terminal"
         rx="10"/>
   <text class="terminal" x="501" y="375">NONE</text>
   <path class="line"
         d="m17 17 h2 m0 0 h10 m74 0 h10 m20 0 h10 m0 0 h130 m-160 0 h20 m140 0 h20 m-180 0 q10 0 10 10 m160 0 q0 -10 10 -10 m-170 10 v12 m160 0 v-12 m-160 12 q0 10 10 10 m140 0 q10 0 10 -10 m-150 10 h10 m120 0 h10 m20 -32 h10 m78 0 h10 m20 0 h10 m0 0 h128 m-158 0 h20 m138 0 h20 m-178 0 q10 0 10 10 m158 0 q0 -10 10 -10 m-168 10 v12 m158 0 v-12 m-158 12 q0 10 10 10 m138 0 q10 0 10 -10 m-148 10 h10 m118 0 h10 m22 -32 l2 0 m2 0 l2 0 m2 0 l2 0 m-580 142 l2 0 m2 0 l2 0 m2 0 l2 0 m2 0 h10 m80 0 h10 m20 0 h10 m24 0 h10 m20 0 h10 m80 0 h10 m-120 0 l20 0 m-1 0 q-9 0 -9 -10 l0 -24 q0 -10 10 -10 m100 44 l20 0 m-20 0 q10 0 10 -10 l0 -24 q0 -10 -10 -10 m-100 0 h10 m24 0 h10 m0 0 h56 m20 44 h10 m24 0 h10 m-248 0 h20 m228 0 h20 m-268 0 q10 0 10 10 m248 0 q0 -10 10 -10 m-258 10 v14 m248 0 v-14 m-248 14 q0 10 10 10 m228 0 q10 0 10 -10 m-238 10 h10 m0 0 h218 m20 -34 h10 m60 0 h10 m0 0 h10 m106 0 h10 m2 0 l2 0 m2 0 l2 0 m2 0 l2 0 m-531 82 l2 0 m2 0 l2 0 m2 0 l2 0 m2 0 h10 m40 0 h10 m20 0 h10 m0 0 h108 m-138 0 h20 m118 0 h20 m-158 0 q10 0 10 10 m138 0 q0 -10 10 -10 m-148 10 v12 m138 0 v-12 m-138 12 q0 10 10 10 m118 0 q10 0 10 -10 m-128 10 h10 m98 0 h10 m20 -32 h10 m78 0 h10 m20 0 h10 m64 0 h10 m-104 0 h20 m84 0 h20 m-124 0 q10 0 10 10 m104 0 q0 -10 10 -10 m-114 10 v24 m104 0 v-24 m-104 24 q0 10 10 10 m84 0 q10 0 10 -10 m-94 10 h10 m54 0 h10 m0 0 h10 m22 -44 l2 0 m2 0 l2 0 m2 0 l2 0 m-195 98 l2 0 m2 0 l2 0 m2 0 l2 0 m22 0 h10 m0 0 h182 m-212 0 h20 m192 0 h20 m-232 0 q10 0 10 10 m212 0 q0 -10 10 -10 m-222 10 v12 m212 0 v-12 m-212 12 q0 10 10 10 m192 0 q10 0 10 -10 m-202 10 h10 m92 0 h10 m0 0 h10 m60 0 h10 m23 -32 h-3"/>
   <polygon points="591 339 599 335 599 343"/>
   <polygon points="591 339 583 335 583 343"/>
</svg>
