<svg xmlns="http://www.w3.org/2000/svg" width="505" height="147">
   <polygon points="9 17 1 13 1 21"/>
   <polygon points="17 17 9 13 9 21"/>
   <rect x="31" y="3" width="76" height="32" rx="10"/>
   <rect x="29"
         y="1"
         width="76"
         height="32"
         class="terminal"
         rx="10"/>
   <text class="terminal" x="39" y="21">CREATE</text>
   <rect x="127" y="3" width="84" height="32" rx="10"/>
   <rect x="125"
         y="1"
         width="84"
         height="32"
         class="terminal"
         rx="10"/>
   <text class="terminal" x="135" y="21">CLUSTER</text>
   <rect x="231" y="3" width="80" height="32" rx="10"/>
   <rect x="229"
         y="1"
         width="80"
         height="32"
         class="terminal"
         rx="10"/>
   <text class="terminal" x="239" y="21">REPLICA</text>
   <rect x="331" y="3" width="108" height="32"/>
   <rect x="329" y="1" width="108" height="32" class="nonterminal"/>
   <text class="nonterminal" x="339" y="21">cluster_name</text>
   <rect x="459" y="3" width="24" height="32" rx="10"/>
   <rect x="457"
         y="1"
         width="24"
         height="32"
         class="terminal"
         rx="10"/>
   <text class="terminal" x="467" y="21">.</text>
   <rect x="199" y="113" width="106" height="32"/>
   <rect x="197" y="111" width="106" height="32" class="nonterminal"/>
   <text class="nonterminal" x="207" y="131">replica_name</text>
   <rect x="345" y="113" width="112" height="32"/>
   <rect x="343" y="111" width="112" height="32" class="nonterminal"/>
   <text class="nonterminal" x="353" y="131">replica_option</text>
   <rect x="345" y="69" width="24" height="32" rx="10"/>
   <rect x="343"
         y="67"
         width="24"
         height="32"
         class="terminal"
         rx="10"/>
   <text class="terminal" x="353" y="87">,</text>
   <path class="line"
         d="m17 17 h2 m0 0 h10 m76 0 h10 m0 0 h10 m84 0 h10 m0 0 h10 m80 0 h10 m0 0 h10 m108 0 h10 m0 0 h10 m24 0 h10 m2 0 l2 0 m2 0 l2 0 m2 0 l2 0 m-328 110 l2 0 m2 0 l2 0 m2 0 l2 0 m2 0 h10 m106 0 h10 m20 0 h10 m112 0 h10 m-152 0 l20 0 m-1 0 q-9 0 -9 -10 l0 -24 q0 -10 10 -10 m132 44 l20 0 m-20 0 q10 0 10 -10 l0 -24 q0 -10 -10 -10 m-132 0 h10 m24 0 h10 m0 0 h88 m23 44 h-3"/>
   <polygon points="495 127 503 123 503 131"/>
   <polygon points="495 127 487 123 487 131"/>
</svg>
