<svg xmlns="http://www.w3.org/2000/svg" width="615" height="899">
   <polygon points="9 17 1 13 1 21"/>
   <polygon points="17 17 9 13 9 21"/>
   <rect x="31" y="3" width="74" height="32" rx="10"/>
   <rect x="29"
         y="1"
         width="74"
         height="32"
         class="terminal"
         rx="10"/>
   <text class="terminal" x="39" y="21">CREATE</text>
   <rect x="145" y="35" width="120" height="32" rx="10"/>
   <rect x="143"
         y="33"
         width="120"
         height="32"
         class="terminal"
         rx="10"/>
   <text class="terminal" x="153" y="53">MATERIALIZED</text>
   <rect x="305" y="3" width="78" height="32" rx="10"/>
   <rect x="303"
         y="1"
         width="78"
         height="32"
         class="terminal"
         rx="10"/>
   <text class="terminal" x="313" y="21">SOURCE</text>
   <rect x="423" y="35" width="118" height="32" rx="10"/>
   <rect x="421"
         y="33"
         width="118"
         height="32"
         class="terminal"
         rx="10"/>
   <text class="terminal" x="431" y="53">IF NOT EXISTS</text>
   <rect x="269" y="101" width="80" height="32"/>
   <rect x="267" y="99" width="80" height="32" class="nonterminal"/>
   <text class="nonterminal" x="277" y="119">src_name</text>
   <rect x="58" y="211" width="24" height="32" rx="10"/>
   <rect x="56"
         y="209"
         width="24"
         height="32"
         class="terminal"
         rx="10"/>
   <text class="terminal" x="66" y="229">(</text>
   <rect x="122" y="211" width="80" height="32"/>
   <rect x="120" y="209" width="80" height="32" class="nonterminal"/>
   <text class="nonterminal" x="130" y="229">col_name</text>
   <rect x="122" y="167" width="24" height="32" rx="10"/>
   <rect x="120"
         y="165"
         width="24"
         height="32"
         class="terminal"
         rx="10"/>
   <text class="terminal" x="130" y="185">,</text>
   <rect x="262" y="243" width="24" height="32" rx="10"/>
   <rect x="260"
         y="241"
         width="24"
         height="32"
         class="terminal"
         rx="10"/>
   <text class="terminal" x="270" y="261">,</text>
   <rect x="306" y="243" width="110" height="32"/>
   <rect x="304" y="241" width="110" height="32" class="nonterminal"/>
   <text class="nonterminal" x="314" y="261">key_constraint</text>
   <rect x="456" y="211" width="24" height="32" rx="10"/>
   <rect x="454"
         y="209"
         width="24"
         height="32"
         class="terminal"
         rx="10"/>
   <text class="terminal" x="464" y="229">)</text>
   <rect x="520" y="211" width="60" height="32" rx="10"/>
   <rect x="518"
         y="209"
         width="60"
         height="32"
         class="terminal"
         rx="10"/>
   <text class="terminal" x="528" y="229">FROM</text>
   <rect x="38" y="325" width="126" height="32" rx="10"/>
   <rect x="36"
         y="323"
         width="126"
         height="32"
         class="terminal"
         rx="10"/>
   <text class="terminal" x="46" y="343">KAFKA BROKER</text>
   <rect x="184" y="325" width="46" height="32"/>
   <rect x="182" y="323" width="46" height="32" class="nonterminal"/>
   <text class="nonterminal" x="192" y="343">host</text>
   <rect x="250" y="325" width="62" height="32" rx="10"/>
   <rect x="248"
         y="323"
         width="62"
         height="32"
         class="terminal"
         rx="10"/>
   <text class="terminal" x="258" y="343">TOPIC</text>
   <rect x="352" y="357" width="50" height="32"/>
   <rect x="350" y="355" width="50" height="32" class="nonterminal"/>
   <text class="nonterminal" x="360" y="375">topic</text>
   <rect x="462" y="357" width="98" height="32"/>
   <rect x="460" y="355" width="98" height="32" class="nonterminal"/>
   <text class="nonterminal" x="470" y="375">with_options</text>
   <rect x="124" y="423" width="108" height="32" rx="10"/>
   <rect x="122"
         y="421"
         width="108"
         height="32"
         class="terminal"
         rx="10"/>
   <text class="terminal" x="132" y="441">KEY FORMAT</text>
   <rect x="252" y="423" width="96" height="32"/>
   <rect x="250" y="421" width="96" height="32" class="nonterminal"/>
   <text class="nonterminal" x="260" y="441">format_spec</text>
   <rect x="368" y="423" width="126" height="32" rx="10"/>
   <rect x="366"
         y="421"
         width="126"
         height="32"
         class="terminal"
         rx="10"/>
   <text class="terminal" x="376" y="441">VALUE FORMAT</text>
   <rect x="124" y="467" width="78" height="32" rx="10"/>
   <rect x="122"
         y="465"
         width="78"
         height="32"
         class="terminal"
         rx="10"/>
   <text class="terminal" x="132" y="485">FORMAT</text>
   <rect x="45" y="533" width="88" height="32" rx="10"/>
   <rect x="43"
         y="531"
         width="88"
         height="32"
         class="terminal"
         rx="10"/>
   <text class="terminal" x="53" y="551">CSV WITH</text>
   <rect x="173" y="533" width="76" height="32" rx="10"/>
   <rect x="171"
         y="531"
         width="76"
         height="32"
         class="terminal"
         rx="10"/>
   <text class="terminal" x="181" y="551">HEADER</text>
   <rect x="173" y="577" width="28" height="32"/>
   <rect x="171" y="575" width="28" height="32" class="nonterminal"/>
   <text class="nonterminal" x="181" y="595">n</text>
   <rect x="221" y="577" width="90" height="32" rx="10"/>
   <rect x="219"
         y="575"
         width="90"
         height="32"
         class="terminal"
         rx="10"/>
   <text class="terminal" x="229" y="595">COLUMNS</text>
   <rect x="371" y="565" width="116" height="32" rx="10"/>
   <rect x="369"
         y="563"
         width="116"
         height="32"
         class="terminal"
         rx="10"/>
   <text class="terminal" x="379" y="583">DELIMITED BY</text>
   <rect x="507" y="565" width="46" height="32"/>
   <rect x="505" y="563" width="46" height="32" class="nonterminal"/>
   <text class="nonterminal" x="515" y="583">char</text>
   <rect x="45" y="621" width="96" height="32"/>
   <rect x="43" y="619" width="96" height="32" class="nonterminal"/>
   <text class="nonterminal" x="53" y="639">format_spec</text>
   <rect x="153" y="703" width="112" height="32" rx="10"/>
   <rect x="151"
         y="701"
         width="112"
         height="32"
         class="terminal"
         rx="10"/>
   <text class="terminal" x="161" y="721">INCLUDE KEY</text>
   <rect x="305" y="735" width="38" height="32" rx="10"/>
   <rect x="303"
         y="733"
         width="38"
         height="32"
         class="terminal"
         rx="10"/>
   <text class="terminal" x="313" y="753">AS</text>
   <rect x="363" y="735" width="82" height="32"/>
   <rect x="361" y="733" width="82" height="32" class="nonterminal"/>
   <text class="nonterminal" x="371" y="753">key_name</text>
   <rect x="341" y="821" width="92" height="32" rx="10"/>
   <rect x="339"
         y="819"
         width="92"
         height="32"
         class="terminal"
         rx="10"/>
   <text class="terminal" x="349" y="839">ENVELOPE</text>
   <rect x="473" y="821" width="60" height="32" rx="10"/>
   <rect x="471"
         y="819"
         width="60"
         height="32"
         class="terminal"
         rx="10"/>
   <text class="terminal" x="481" y="839">NONE</text>
   <rect x="473" y="865" width="74" height="32" rx="10"/>
   <rect x="471"
         y="863"
         width="74"
         height="32"
         class="terminal"
         rx="10"/>
   <text class="terminal" x="481" y="883">UPSERT</text>
   <path class="line"
         d="m17 17 h2 m0 0 h10 m74 0 h10 m20 0 h10 m0 0 h130 m-160 0 h20 m140 0 h20 m-180 0 q10 0 10 10 m160 0 q0 -10 10 -10 m-170 10 v12 m160 0 v-12 m-160 12 q0 10 10 10 m140 0 q10 0 10 -10 m-150 10 h10 m120 0 h10 m20 -32 h10 m78 0 h10 m20 0 h10 m0 0 h128 m-158 0 h20 m138 0 h20 m-178 0 q10 0 10 10 m158 0 q0 -10 10 -10 m-168 10 v12 m158 0 v-12 m-158 12 q0 10 10 10 m138 0 q10 0 10 -10 m-148 10 h10 m118 0 h10 m22 -32 l2 0 m2 0 l2 0 m2 0 l2 0 m-336 98 l2 0 m2 0 l2 0 m2 0 l2 0 m2 0 h10 m80 0 h10 m2 0 l2 0 m2 0 l2 0 m2 0 l2 0 m-355 110 l2 0 m2 0 l2 0 m2 0 l2 0 m22 0 h10 m24 0 h10 m20 0 h10 m80 0 h10 m-120 0 l20 0 m-1 0 q-9 0 -9 -10 l0 -24 q0 -10 10 -10 m100 44 l20 0 m-20 0 q10 0 10 -10 l0 -24 q0 -10 -10 -10 m-100 0 h10 m24 0 h10 m0 0 h56 m40 44 h10 m0 0 h164 m-194 0 h20 m174 0 h20 m-214 0 q10 0 10 10 m194 0 q0 -10 10 -10 m-204 10 v12 m194 0 v-12 m-194 12 q0 10 10 10 m174 0 q10 0 10 -10 m-184 10 h10 m24 0 h10 m0 0 h10 m110 0 h10 m20 -32 h10 m24 0 h10 m-462 0 h20 m442 0 h20 m-482 0 q10 0 10 10 m462 0 q0 -10 10 -10 m-472 10 v46 m462 0 v-46 m-462 46 q0 10 10 10 m442 0 q10 0 10 -10 m-452 10 h10 m0 0 h432 m20 -66 h10 m60 0 h10 m2 0 l2 0 m2 0 l2 0 m2 0 l2 0 m-586 114 l2 0 m2 0 l2 0 m2 0 l2 0 m2 0 h10 m126 0 h10 m0 0 h10 m46 0 h10 m0 0 h10 m62 0 h10 m20 0 h10 m0 0 h60 m-90 0 h20 m70 0 h20 m-110 0 q10 0 10 10 m90 0 q0 -10 10 -10 m-100 10 v12 m90 0 v-12 m-90 12 q0 10 10 10 m70 0 q10 0 10 -10 m-80 10 h10 m50 0 h10 m40 -32 h10 m0 0 h108 m-138 0 h20 m118 0 h20 m-158 0 q10 0 10 10 m138 0 q0 -10 10 -10 m-148 10 v12 m138 0 v-12 m-138 12 q0 10 10 10 m118 0 q10 0 10 -10 m-128 10 h10 m98 0 h10 m22 -32 l2 0 m2 0 l2 0 m2 0 l2 0 m-520 98 l2 0 m2 0 l2 0 m2 0 l2 0 m22 0 h10 m108 0 h10 m0 0 h10 m96 0 h10 m0 0 h10 m126 0 h10 m-410 0 h20 m390 0 h20 m-430 0 q10 0 10 10 m410 0 q0 -10 10 -10 m-420 10 v24 m410 0 v-24 m-410 24 q0 10 10 10 m390 0 q10 0 10 -10 m-400 10 h10 m78 0 h10 m0 0 h292 m22 -44 l2 0 m2 0 l2 0 m2 0 l2 0 m-533 110 l2 0 m2 0 l2 0 m2 0 l2 0 m22 0 h10 m88 0 h10 m20 0 h10 m76 0 h10 m0 0 h62 m-178 0 h20 m158 0 h20 m-198 0 q10 0 10 10 m178 0 q0 -10 10 -10 m-188 10 v24 m178 0 v-24 m-178 24 q0 10 10 10 m158 0 q10 0 10 -10 m-168 10 h10 m28 0 h10 m0 0 h10 m90 0 h10 m40 -44 h10 m0 0 h192 m-222 0 h20 m202 0 h20 m-242 0 q10 0 10 10 m222 0 q0 -10 10 -10 m-232 10 v12 m222 0 v-12 m-222 12 q0 10 10 10 m202 0 q10 0 10 -10 m-212 10 h10 m116 0 h10 m0 0 h10 m46 0 h10 m-548 -32 h20 m548 0 h20 m-588 0 q10 0 10 10 m568 0 q0 -10 10 -10 m-578 10 v68 m568 0 v-68 m-568 68 q0 10 10 10 m548 0 q10 0 10 -10 m-558 10 h10 m96 0 h10 m0 0 h432 m22 -88 l2 0 m2 0 l2 0 m2 0 l2 0 m-504 138 l2 0 m2 0 l2 0 m2 0 l2 0 m22 0 h10 m0 0 h322 m-352 0 h20 m332 0 h20 m-372 0 q10 0 10 10 m352 0 q0 -10 10 -10 m-362 10 v12 m352 0 v-12 m-352 12 q0 10 10 10 m332 0 q10 0 10 -10 m-342 10 h10 m112 0 h10 m20 0 h10 m0 0 h150 m-180 0 h20 m160 0 h20 m-200 0 q10 0 10 10 m180 0 q0 -10 10 -10 m-190 10 v12 m180 0 v-12 m-180 12 q0 10 10 10 m160 0 q10 0 10 -10 m-170 10 h10 m38 0 h10 m0 0 h10 m82 0 h10 m42 -64 l2 0 m2 0 l2 0 m2 0 l2 0 m-208 118 l2 0 m2 0 l2 0 m2 0 l2 0 m22 0 h10 m0 0 h236 m-266 0 h20 m246 0 h20 m-286 0 q10 0 10 10 m266 0 q0 -10 10 -10 m-276 10 v12 m266 0 v-12 m-266 12 q0 10 10 10 m246 0 q10 0 10 -10 m-256 10 h10 m92 0 h10 m20 0 h10 m60 0 h10 m0 0 h14 m-114 0 h20 m94 0 h20 m-134 0 q10 0 10 10 m114 0 q0 -10 10 -10 m-124 10 v24 m114 0 v-24 m-114 24 q0 10 10 10 m94 0 q10 0 10 -10 m-104 10 h10 m74 0 h10 m43 -76 h-3"/>
   <polygon points="605 803 613 799 613 807"/>
   <polygon points="605 803 597 799 597 807"/>
</svg>
