<svg xmlns="http://www.w3.org/2000/svg" width="601" height="589">
   <polygon points="9 17 1 13 1 21"/>
   <polygon points="17 17 9 13 9 21"/>
   <rect x="31" y="3" width="76" height="32" rx="10"/>
   <rect x="29"
         y="1"
         width="76"
         height="32"
         class="terminal"
         rx="10"/>
   <text class="terminal" x="39" y="21">CREATE</text>
   <rect x="147" y="35" width="124" height="32" rx="10"/>
   <rect x="145"
         y="33"
         width="124"
         height="32"
         class="terminal"
         rx="10"/>
   <text class="terminal" x="155" y="53">MATERIALIZED</text>
   <rect x="311" y="3" width="78" height="32" rx="10"/>
   <rect x="309"
         y="1"
         width="78"
         height="32"
         class="terminal"
         rx="10"/>
   <text class="terminal" x="319" y="21">SOURCE</text>
   <rect x="429" y="35" width="120" height="32" rx="10"/>
   <rect x="427"
         y="33"
         width="120"
         height="32"
         class="terminal"
         rx="10"/>
   <text class="terminal" x="437" y="53">IF NOT EXISTS</text>
   <rect x="261" y="101" width="82" height="32"/>
   <rect x="259" y="99" width="82" height="32" class="nonterminal"/>
   <text class="nonterminal" x="269" y="119">src_name</text>
   <rect x="45" y="211" width="26" height="32" rx="10"/>
   <rect x="43"
         y="209"
         width="26"
         height="32"
         class="terminal"
         rx="10"/>
   <text class="terminal" x="53" y="229">(</text>
   <rect x="111" y="211" width="82" height="32"/>
   <rect x="109" y="209" width="82" height="32" class="nonterminal"/>
   <text class="nonterminal" x="119" y="229">col_name</text>
   <rect x="111" y="167" width="24" height="32" rx="10"/>
   <rect x="109"
         y="165"
         width="24"
         height="32"
         class="terminal"
         rx="10"/>
   <text class="terminal" x="119" y="185">,</text>
   <rect x="253" y="243" width="24" height="32" rx="10"/>
   <rect x="251"
         y="241"
         width="24"
         height="32"
         class="terminal"
         rx="10"/>
   <text class="terminal" x="261" y="261">,</text>
   <rect x="297" y="243" width="116" height="32"/>
   <rect x="295" y="241" width="116" height="32" class="nonterminal"/>
   <text class="nonterminal" x="305" y="261">key_constraint</text>
   <rect x="453" y="211" width="26" height="32" rx="10"/>
   <rect x="451"
         y="209"
         width="26"
         height="32"
         class="terminal"
         rx="10"/>
   <text class="terminal" x="461" y="229">)</text>
   <rect x="519" y="211" width="60" height="32" rx="10"/>
   <rect x="517"
         y="209"
         width="60"
         height="32"
         class="terminal"
         rx="10"/>
   <text class="terminal" x="527" y="229">FROM</text>
   <rect x="91" y="325" width="48" height="32" rx="10"/>
   <rect x="89"
         y="323"
         width="48"
         height="32"
         class="terminal"
         rx="10"/>
   <text class="terminal" x="99" y="343">FILE</text>
   <rect x="159" y="325" width="50" height="32"/>
   <rect x="157" y="323" width="50" height="32" class="nonterminal"/>
   <text class="nonterminal" x="167" y="343">path</text>
   <rect x="249" y="357" width="124" height="32" rx="10"/>
   <rect x="247"
         y="355"
         width="124"
         height="32"
         class="terminal"
         rx="10"/>
   <text class="terminal" x="257" y="375">COMPRESSION</text>
   <rect x="413" y="357" width="60" height="32" rx="10"/>
   <rect x="411"
         y="355"
         width="60"
         height="32"
         class="terminal"
         rx="10"/>
   <text class="terminal" x="421" y="375">NONE</text>
   <rect x="413" y="401" width="52" height="32" rx="10"/>
   <rect x="411"
         y="399"
         width="52"
         height="32"
         class="terminal"
         rx="10"/>
   <text class="terminal" x="421" y="419">GZIP</text>
   <rect x="149" y="499" width="102" height="32"/>
   <rect x="147" y="497" width="102" height="32" class="nonterminal"/>
   <text class="nonterminal" x="157" y="517">with_options</text>
   <rect x="291" y="467" width="80" height="32" rx="10"/>
   <rect x="289"
         y="465"
         width="80"
         height="32"
         class="terminal"
         rx="10"/>
   <text class="terminal" x="299" y="485">FORMAT</text>
   <rect x="411" y="467" width="66" height="32" rx="10"/>
   <rect x="409"
         y="465"
         width="66"
         height="32"
         class="terminal"
         rx="10"/>
   <text class="terminal" x="419" y="485">REGEX</text>
   <rect x="497" y="467" width="56" height="32"/>
   <rect x="495" y="465" width="56" height="32" class="nonterminal"/>
   <text class="nonterminal" x="505" y="485">regex</text>
   <rect x="411" y="511" width="56" height="32" rx="10"/>
   <rect x="409"
         y="509"
         width="56"
         height="32"
         class="terminal"
         rx="10"/>
   <text class="terminal" x="419" y="529">TEXT</text>
   <rect x="411" y="555" width="66" height="32" rx="10"/>
   <rect x="409"
         y="553"
         width="66"
         height="32"
         class="terminal"
         rx="10"/>
   <text class="terminal" x="419" y="573">BYTES</text>
   <path class="line"
         d="m17 17 h2 m0 0 h10 m76 0 h10 m20 0 h10 m0 0 h134 m-164 0 h20 m144 0 h20 m-184 0 q10 0 10 10 m164 0 q0 -10 10 -10 m-174 10 v12 m164 0 v-12 m-164 12 q0 10 10 10 m144 0 q10 0 10 -10 m-154 10 h10 m124 0 h10 m20 -32 h10 m78 0 h10 m20 0 h10 m0 0 h130 m-160 0 h20 m140 0 h20 m-180 0 q10 0 10 10 m160 0 q0 -10 10 -10 m-170 10 v12 m160 0 v-12 m-160 12 q0 10 10 10 m140 0 q10 0 10 -10 m-150 10 h10 m120 0 h10 m22 -32 l2 0 m2 0 l2 0 m2 0 l2 0 m-352 98 l2 0 m2 0 l2 0 m2 0 l2 0 m2 0 h10 m82 0 h10 m2 0 l2 0 m2 0 l2 0 m2 0 l2 0 m-362 110 l2 0 m2 0 l2 0 m2 0 l2 0 m22 0 h10 m26 0 h10 m20 0 h10 m82 0 h10 m-122 0 l20 0 m-1 0 q-9 0 -9 -10 l0 -24 q0 -10 10 -10 m102 44 l20 0 m-20 0 q10 0 10 -10 l0 -24 q0 -10 -10 -10 m-102 0 h10 m24 0 h10 m0 0 h58 m40 44 h10 m0 0 h170 m-200 0 h20 m180 0 h20 m-220 0 q10 0 10 10 m200 0 q0 -10 10 -10 m-210 10 v12 m200 0 v-12 m-200 12 q0 10 10 10 m180 0 q10 0 10 -10 m-190 10 h10 m24 0 h10 m0 0 h10 m116 0 h10 m20 -32 h10 m26 0 h10 m-474 0 h20 m454 0 h20 m-494 0 q10 0 10 10 m474 0 q0 -10 10 -10 m-484 10 v46 m474 0 v-46 m-474 46 q0 10 10 10 m454 0 q10 0 10 -10 m-464 10 h10 m0 0 h444 m20 -66 h10 m60 0 h10 m2 0 l2 0 m2 0 l2 0 m2 0 l2 0 m-532 114 l2 0 m2 0 l2 0 m2 0 l2 0 m2 0 h10 m48 0 h10 m0 0 h10 m50 0 h10 m20 0 h10 m0 0 h254 m-284 0 h20 m264 0 h20 m-304 0 q10 0 10 10 m284 0 q0 -10 10 -10 m-294 10 v12 m284 0 v-12 m-284 12 q0 10 10 10 m264 0 q10 0 10 -10 m-274 10 h10 m124 0 h10 m20 0 h10 m60 0 h10 m-100 0 h20 m80 0 h20 m-120 0 q10 0 10 10 m100 0 q0 -10 10 -10 m-110 10 v24 m100 0 v-24 m-100 24 q0 10 10 10 m80 0 q10 0 10 -10 m-90 10 h10 m52 0 h10 m0 0 h8 m42 -76 l2 0 m2 0 l2 0 m2 0 l2 0 m-428 142 l2 0 m2 0 l2 0 m2 0 l2 0 m22 0 h10 m0 0 h112 m-142 0 h20 m122 0 h20 m-162 0 q10 0 10 10 m142 0 q0 -10 10 -10 m-152 10 v12 m142 0 v-12 m-142 12 q0 10 10 10 m122 0 q10 0 10 -10 m-132 10 h10 m102 0 h10 m20 -32 h10 m80 0 h10 m20 0 h10 m66 0 h10 m0 0 h10 m56 0 h10 m-182 0 h20 m162 0 h20 m-202 0 q10 0 10 10 m182 0 q0 -10 10 -10 m-192 10 v24 m182 0 v-24 m-182 24 q0 10 10 10 m162 0 q10 0 10 -10 m-172 10 h10 m56 0 h10 m0 0 h86 m-172 -10 v20 m182 0 v-20 m-182 20 v24 m182 0 v-24 m-182 24 q0 10 10 10 m162 0 q10 0 10 -10 m-172 10 h10 m66 0 h10 m0 0 h76 m23 -88 h-3"/>
   <polygon points="591 481 599 477 599 485"/>
   <polygon points="591 481 583 477 583 485"/>
</svg>
