<svg xmlns="http://www.w3.org/2000/svg" width="593" height="903">
   <polygon points="9 17 1 13 1 21"/>
   <polygon points="17 17 9 13 9 21"/>
   <rect x="31" y="3" width="140" height="32" rx="10"/>
   <rect x="29"
         y="1"
         width="140"
         height="32"
         class="terminal"
         rx="10"/>
   <text class="terminal" x="39" y="21">CREATE SOURCE</text>
   <rect x="211" y="35" width="120" height="32" rx="10"/>
   <rect x="209"
         y="33"
         width="120"
         height="32"
         class="terminal"
         rx="10"/>
   <text class="terminal" x="219" y="53">IF NOT EXISTS</text>
   <rect x="371" y="3" width="82" height="32"/>
   <rect x="369" y="1" width="82" height="32" class="nonterminal"/>
   <text class="nonterminal" x="379" y="21">src_name</text>
   <rect x="81" y="145" width="26" height="32" rx="10"/>
   <rect x="79"
         y="143"
         width="26"
         height="32"
         class="terminal"
         rx="10"/>
   <text class="terminal" x="89" y="163">(</text>
   <rect x="147" y="145" width="82" height="32"/>
   <rect x="145" y="143" width="82" height="32" class="nonterminal"/>
   <text class="nonterminal" x="155" y="163">col_name</text>
   <rect x="147" y="101" width="24" height="32" rx="10"/>
   <rect x="145"
         y="99"
         width="24"
         height="32"
         class="terminal"
         rx="10"/>
   <text class="terminal" x="155" y="119">,</text>
   <rect x="289" y="177" width="24" height="32" rx="10"/>
   <rect x="287"
         y="175"
         width="24"
         height="32"
         class="terminal"
         rx="10"/>
   <text class="terminal" x="297" y="195">,</text>
   <rect x="333" y="177" width="116" height="32"/>
   <rect x="331" y="175" width="116" height="32" class="nonterminal"/>
   <text class="nonterminal" x="341" y="195">key_constraint</text>
   <rect x="489" y="145" width="26" height="32" rx="10"/>
   <rect x="487"
         y="143"
         width="26"
         height="32"
         class="terminal"
         rx="10"/>
   <text class="terminal" x="497" y="163">)</text>
   <rect x="113" y="291" width="104" height="32" rx="10"/>
   <rect x="111"
         y="289"
         width="104"
         height="32"
         class="terminal"
         rx="10"/>
   <text class="terminal" x="121" y="309">IN CLUSTER</text>
   <rect x="237" y="291" width="108" height="32"/>
   <rect x="235" y="289" width="108" height="32" class="nonterminal"/>
   <text class="nonterminal" x="245" y="309">cluster_name</text>
   <rect x="385" y="259" width="60" height="32" rx="10"/>
   <rect x="383"
         y="257"
         width="60"
         height="32"
         class="terminal"
         rx="10"/>
   <text class="terminal" x="393" y="277">FROM</text>
   <rect x="465" y="259" width="38" height="32" rx="10"/>
   <rect x="463"
         y="257"
         width="38"
         height="32"
         class="terminal"
         rx="10"/>
   <text class="terminal" x="473" y="277">S3</text>
   <rect x="52" y="357" width="162" height="32" rx="10"/>
   <rect x="50"
         y="355"
         width="162"
         height="32"
         class="terminal"
         rx="10"/>
   <text class="terminal" x="60" y="375">DISCOVER OBJECTS</text>
   <rect x="254" y="389" width="98" height="32" rx="10"/>
   <rect x="252"
         y="387"
         width="98"
         height="32"
         class="terminal"
         rx="10"/>
   <text class="terminal" x="262" y="407">MATCHING</text>
   <rect x="372" y="389" width="68" height="32"/>
   <rect x="370" y="387" width="68" height="32" class="nonterminal"/>
   <text class="nonterminal" x="380" y="407">pattern</text>
   <rect x="480" y="357" width="64" height="32" rx="10"/>
   <rect x="478"
         y="355"
         width="64"
         height="32"
         class="terminal"
         rx="10"/>
   <text class="terminal" x="488" y="375">USING</text>
   <rect x="154" y="499" width="122" height="32" rx="10"/>
   <rect x="152"
         y="497"
         width="122"
         height="32"
         class="terminal"
         rx="10"/>
   <text class="terminal" x="162" y="517">BUCKET SCAN</text>
   <rect x="296" y="499" width="108" height="32"/>
   <rect x="294" y="497" width="108" height="32" class="nonterminal"/>
   <text class="nonterminal" x="304" y="517">bucket_name</text>
   <rect x="154" y="543" width="164" height="32" rx="10"/>
   <rect x="152"
         y="541"
         width="164"
         height="32"
         class="terminal"
         rx="10"/>
   <text class="terminal" x="162" y="561">SQS NOTIFICATIONS</text>
   <rect x="338" y="543" width="104" height="32"/>
   <rect x="336" y="541" width="104" height="32" class="nonterminal"/>
   <text class="nonterminal" x="346" y="561">queue_name</text>
   <rect x="134" y="455" width="24" height="32" rx="10"/>
   <rect x="132"
         y="453"
         width="24"
         height="32"
         class="terminal"
         rx="10"/>
   <text class="terminal" x="142" y="473">,</text>
   <rect x="45" y="641" width="124" height="32" rx="10"/>
   <rect x="43"
         y="639"
         width="124"
         height="32"
         class="terminal"
         rx="10"/>
   <text class="terminal" x="53" y="659">COMPRESSION</text>
   <rect x="209" y="641" width="60" height="32" rx="10"/>
   <rect x="207"
         y="639"
         width="60"
         height="32"
         class="terminal"
         rx="10"/>
   <text class="terminal" x="217" y="659">NONE</text>
   <rect x="209" y="685" width="52" height="32" rx="10"/>
   <rect x="207"
         y="683"
         width="52"
         height="32"
         class="terminal"
         rx="10"/>
   <text class="terminal" x="217" y="703">GZIP</text>
   <rect x="349" y="641" width="102" height="32"/>
   <rect x="347" y="639" width="102" height="32" class="nonterminal"/>
   <text class="nonterminal" x="357" y="659">with_options</text>
   <rect x="491" y="609" width="80" height="32" rx="10"/>
   <rect x="489"
         y="607"
         width="80"
         height="32"
         class="terminal"
         rx="10"/>
   <text class="terminal" x="499" y="627">FORMAT</text>
   <rect x="148" y="751" width="102" height="32"/>
   <rect x="146" y="749" width="102" height="32" class="nonterminal"/>
   <text class="nonterminal" x="156" y="769">format_spec</text>
   <rect x="290" y="783" width="138" height="32" rx="10"/>
   <rect x="288"
         y="781"
         width="138"
         height="32"
         class="terminal"
         rx="10"/>
   <text class="terminal" x="298" y="801">ENVELOPE NONE</text>
   <rect x="77" y="869" width="76" height="32" rx="10"/>
   <rect x="75"
         y="867"
         width="76"
         height="32"
         class="terminal"
         rx="10"/>
   <text class="terminal" x="85" y="887">EXPOSE</text>
   <rect x="173" y="869" width="96" height="32" rx="10"/>
   <rect x="171"
         y="867"
         width="96"
         height="32"
         class="terminal"
         rx="10"/>
   <text class="terminal" x="181" y="887">PROGRESS</text>
   <rect x="289" y="869" width="40" height="32" rx="10"/>
   <rect x="287"
         y="867"
         width="40"
         height="32"
         class="terminal"
         rx="10"/>
   <text class="terminal" x="297" y="887">AS</text>
   <rect x="349" y="869" width="196" height="32"/>
   <rect x="347" y="867" width="196" height="32" class="nonterminal"/>
   <text class="nonterminal" x="357" y="887">progress_subsource_name</text>
   <path class="line"
         d="m17 17 h2 m0 0 h10 m140 0 h10 m20 0 h10 m0 0 h130 m-160 0 h20 m140 0 h20 m-180 0 q10 0 10 10 m160 0 q0 -10 10 -10 m-170 10 v12 m160 0 v-12 m-160 12 q0 10 10 10 m140 0 q10 0 10 -10 m-150 10 h10 m120 0 h10 m20 -32 h10 m82 0 h10 m2 0 l2 0 m2 0 l2 0 m2 0 l2 0 m-436 142 l2 0 m2 0 l2 0 m2 0 l2 0 m22 0 h10 m26 0 h10 m20 0 h10 m82 0 h10 m-122 0 l20 0 m-1 0 q-9 0 -9 -10 l0 -24 q0 -10 10 -10 m102 44 l20 0 m-20 0 q10 0 10 -10 l0 -24 q0 -10 -10 -10 m-102 0 h10 m24 0 h10 m0 0 h58 m40 44 h10 m0 0 h170 m-200 0 h20 m180 0 h20 m-220 0 q10 0 10 10 m200 0 q0 -10 10 -10 m-210 10 v12 m200 0 v-12 m-200 12 q0 10 10 10 m180 0 q10 0 10 -10 m-190 10 h10 m24 0 h10 m0 0 h10 m116 0 h10 m20 -32 h10 m26 0 h10 m-474 0 h20 m454 0 h20 m-494 0 q10 0 10 10 m474 0 q0 -10 10 -10 m-484 10 v46 m474 0 v-46 m-474 46 q0 10 10 10 m454 0 q10 0 10 -10 m-464 10 h10 m0 0 h444 m22 -66 l2 0 m2 0 l2 0 m2 0 l2 0 m-486 114 l2 0 m2 0 l2 0 m2 0 l2 0 m22 0 h10 m0 0 h242 m-272 0 h20 m252 0 h20 m-292 0 q10 0 10 10 m272 0 q0 -10 10 -10 m-282 10 v12 m272 0 v-12 m-272 12 q0 10 10 10 m252 0 q10 0 10 -10 m-262 10 h10 m104 0 h10 m0 0 h10 m108 0 h10 m20 -32 h10 m60 0 h10 m0 0 h10 m38 0 h10 m2 0 l2 0 m2 0 l2 0 m2 0 l2 0 m-495 98 l2 0 m2 0 l2 0 m2 0 l2 0 m2 0 h10 m162 0 h10 m20 0 h10 m0 0 h196 m-226 0 h20 m206 0 h20 m-246 0 q10 0 10 10 m226 0 q0 -10 10 -10 m-236 10 v12 m226 0 v-12 m-226 12 q0 10 10 10 m206 0 q10 0 10 -10 m-216 10 h10 m98 0 h10 m0 0 h10 m68 0 h10 m20 -32 h10 m64 0 h10 m2 0 l2 0 m2 0 l2 0 m2 0 l2 0 m-474 142 l2 0 m2 0 l2 0 m2 0 l2 0 m42 0 h10 m122 0 h10 m0 0 h10 m108 0 h10 m0 0 h38 m-328 0 h20 m308 0 h20 m-348 0 q10 0 10 10 m328 0 q0 -10 10 -10 m-338 10 v24 m328 0 v-24 m-328 24 q0 10 10 10 m308 0 q10 0 10 -10 m-318 10 h10 m164 0 h10 m0 0 h10 m104 0 h10 m-348 -44 l20 0 m-1 0 q-9 0 -9 -10 l0 -24 q0 -10 10 -10 m348 44 l20 0 m-20 0 q10 0 10 -10 l0 -24 q0 -10 -10 -10 m-348 0 h10 m24 0 h10 m0 0 h304 m22 44 l2 0 m2 0 l2 0 m2 0 l2 0 m-501 110 l2 0 m2 0 l2 0 m2 0 l2 0 m22 0 h10 m0 0 h254 m-284 0 h20 m264 0 h20 m-304 0 q10 0 10 10 m284 0 q0 -10 10 -10 m-294 10 v12 m284 0 v-12 m-284 12 q0 10 10 10 m264 0 q10 0 10 -10 m-274 10 h10 m124 0 h10 m20 0 h10 m60 0 h10 m-100 0 h20 m80 0 h20 m-120 0 q10 0 10 10 m100 0 q0 -10 10 -10 m-110 10 v24 m100 0 v-24 m-100 24 q0 10 10 10 m80 0 q10 0 10 -10 m-90 10 h10 m52 0 h10 m0 0 h8 m60 -76 h10 m0 0 h112 m-142 0 h20 m122 0 h20 m-162 0 q10 0 10 10 m142 0 q0 -10 10 -10 m-152 10 v12 m142 0 v-12 m-142 12 q0 10 10 10 m122 0 q10 0 10 -10 m-132 10 h10 m102 0 h10 m20 -32 h10 m80 0 h10 m2 0 l2 0 m2 0 l2 0 m2 0 l2 0 m-467 142 l2 0 m2 0 l2 0 m2 0 l2 0 m2 0 h10 m102 0 h10 m20 0 h10 m0 0 h148 m-178 0 h20 m158 0 h20 m-198 0 q10 0 10 10 m178 0 q0 -10 10 -10 m-188 10 v12 m178 0 v-12 m-178 12 q0 10 10 10 m158 0 q10 0 10 -10 m-168 10 h10 m138 0 h10 m22 -32 l2 0 m2 0 l2 0 m2 0 l2 0 m-435 86 l2 0 m2 0 l2 0 m2 0 l2 0 m22 0 h10 m0 0 h478 m-508 0 h20 m488 0 h20 m-528 0 q10 0 10 10 m508 0 q0 -10 10 -10 m-518 10 v12 m508 0 v-12 m-508 12 q0 10 10 10 m488 0 q10 0 10 -10 m-498 10 h10 m76 0 h10 m0 0 h10 m96 0 h10 m0 0 h10 m40 0 h10 m0 0 h10 m196 0 h10 m23 -32 h-3"/>
   <polygon points="583 851 591 847 591 855"/>
   <polygon points="583 851 575 847 575 855"/>
</svg>
