<svg xmlns="http://www.w3.org/2000/svg" width="583" height="201">
   <polygon points="9 17 1 13 1 21"/>
   <polygon points="17 17 9 13 9 21"/>
   <rect x="31" y="3" width="74" height="32" rx="10"/>
   <rect x="29"
         y="1"
         width="74"
         height="32"
         class="terminal"
         rx="10"/>
   <text class="terminal" x="39" y="21">CREATE</text>
   <rect x="145" y="35" width="120" height="32" rx="10"/>
   <rect x="143"
         y="33"
         width="120"
         height="32"
         class="terminal"
         rx="10"/>
   <text class="terminal" x="153" y="53">MATERIALIZED</text>
   <rect x="305" y="3" width="78" height="32" rx="10"/>
   <rect x="303"
         y="1"
         width="78"
         height="32"
         class="terminal"
         rx="10"/>
   <text class="terminal" x="313" y="21">SOURCE</text>
   <rect x="423" y="35" width="118" height="32" rx="10"/>
   <rect x="421"
         y="33"
         width="118"
         height="32"
         class="terminal"
         rx="10"/>
   <text class="terminal" x="431" y="53">IF NOT EXISTS</text>
   <rect x="49" y="101" width="26" height="32" rx="10"/>
   <rect x="47"
         y="99"
         width="26"
         height="32"
         class="terminal"
         rx="10"/>
   <text class="terminal" x="57" y="119">"</text>
   <rect x="95" y="101" width="80" height="32"/>
   <rect x="93" y="99" width="80" height="32" class="nonterminal"/>
   <text class="nonterminal" x="103" y="119">src_name</text>
   <rect x="195" y="101" width="26" height="32" rx="10"/>
   <rect x="193"
         y="99"
         width="26"
         height="32"
         class="terminal"
         rx="10"/>
   <text class="terminal" x="203" y="119">"</text>
   <rect x="241" y="101" width="60" height="32" rx="10"/>
   <rect x="239"
         y="99"
         width="60"
         height="32"
         class="terminal"
         rx="10"/>
   <text class="terminal" x="249" y="119">FROM</text>
   <rect x="321" y="101" width="94" height="32" rx="10"/>
   <rect x="319"
         y="99"
         width="94"
         height="32"
         class="terminal"
         rx="10"/>
   <text class="terminal" x="329" y="119">POSTGRES</text>
   <rect x="435" y="101" width="58" height="32" rx="10"/>
   <rect x="433"
         y="99"
         width="58"
         height="32"
         class="terminal"
         rx="10"/>
   <text class="terminal" x="443" y="119">HOST</text>
   <rect x="513" y="101" width="24" height="32" rx="10"/>
   <rect x="511"
         y="99"
         width="24"
         height="32"
         class="terminal"
         rx="10"/>
   <text class="terminal" x="521" y="119">(</text>
   <rect x="109" y="167" width="118" height="32"/>
   <rect x="107" y="165" width="118" height="32" class="nonterminal"/>
   <text class="nonterminal" x="117" y="185">connection_info</text>
   <rect x="247" y="167" width="24" height="32" rx="10"/>
   <rect x="245"
         y="165"
         width="24"
         height="32"
         class="terminal"
         rx="10"/>
   <text class="terminal" x="255" y="185">)</text>
   <rect x="291" y="167" width="112" height="32" rx="10"/>
   <rect x="289"
         y="165"
         width="112"
         height="32"
         class="terminal"
         rx="10"/>
   <text class="terminal" x="299" y="185">PUBLICATION</text>
   <rect x="423" y="167" width="132" height="32" rx="10"/>
   <rect x="421"
         y="165"
         width="132"
         height="32"
         class="terminal"
         rx="10"/>
   <text class="terminal" x="431" y="185">publication_name</text>
   <path class="line"
         d="m17 17 h2 m0 0 h10 m74 0 h10 m20 0 h10 m0 0 h130 m-160 0 h20 m140 0 h20 m-180 0 q10 0 10 10 m160 0 q0 -10 10 -10 m-170 10 v12 m160 0 v-12 m-160 12 q0 10 10 10 m140 0 q10 0 10 -10 m-150 10 h10 m120 0 h10 m20 -32 h10 m78 0 h10 m20 0 h10 m0 0 h128 m-158 0 h20 m138 0 h20 m-178 0 q10 0 10 10 m158 0 q0 -10 10 -10 m-168 10 v12 m158 0 v-12 m-158 12 q0 10 10 10 m138 0 q10 0 10 -10 m-148 10 h10 m118 0 h10 m22 -32 l2 0 m2 0 l2 0 m2 0 l2 0 m-556 98 l2 0 m2 0 l2 0 m2 0 l2 0 m2 0 h10 m26 0 h10 m0 0 h10 m80 0 h10 m0 0 h10 m26 0 h10 m0 0 h10 m60 0 h10 m0 0 h10 m94 0 h10 m0 0 h10 m58 0 h10 m0 0 h10 m24 0 h10 m2 0 l2 0 m2 0 l2 0 m2 0 l2 0 m-472 66 l2 0 m2 0 l2 0 m2 0 l2 0 m2 0 h10 m118 0 h10 m0 0 h10 m24 0 h10 m0 0 h10 m112 0 h10 m0 0 h10 m132 0 h10 m3 0 h-3"/>
   <polygon points="573 181 581 177 581 185"/>
   <polygon points="573 181 565 177 565 185"/>
</svg>
