<svg xmlns="http://www.w3.org/2000/svg" width="571" height="309">
   <polygon points="11 17 3 13 3 21"/>
   <polygon points="19 17 11 13 11 21"/>
   <rect x="33" y="3" width="114" height="32" rx="10"/>
   <rect x="31"
         y="1"
         width="114"
         height="32"
         class="terminal"
         rx="10"/>
   <text class="terminal" x="41" y="21">CREATE SINK</text>
   <rect x="187" y="35" width="120" height="32" rx="10"/>
   <rect x="185"
         y="33"
         width="120"
         height="32"
         class="terminal"
         rx="10"/>
   <text class="terminal" x="195" y="53">IF NOT EXISTS</text>
   <rect x="347" y="3" width="88" height="32"/>
   <rect x="345" y="1" width="88" height="32" class="nonterminal"/>
   <text class="nonterminal" x="355" y="21">sink_name</text>
   <rect x="455" y="3" width="60" height="32" rx="10"/>
   <rect x="453"
         y="1"
         width="60"
         height="32"
         class="terminal"
         rx="10"/>
   <text class="terminal" x="463" y="21">FROM</text>
   <rect x="72" y="101" width="90" height="32"/>
   <rect x="70" y="99" width="90" height="32" class="nonterminal"/>
   <text class="nonterminal" x="80" y="119">item_name</text>
   <rect x="182" y="101" width="54" height="32" rx="10"/>
   <rect x="180"
         y="99"
         width="54"
         height="32"
         class="terminal"
         rx="10"/>
   <text class="terminal" x="190" y="119">INTO</text>
   <rect x="276" y="101" width="162" height="32"/>
   <rect x="274" y="99" width="162" height="32" class="nonterminal"/>
   <text class="nonterminal" x="284" y="119">sink_kafka_connector</text>
   <rect x="276" y="145" width="94" height="32" rx="10"/>
   <rect x="274"
         y="143"
         width="94"
         height="32"
         class="terminal"
         rx="10"/>
   <text class="terminal" x="284" y="163">AVRO OCF</text>
   <rect x="390" y="145" width="94" height="32"/>
   <rect x="388" y="143" width="94" height="32" class="nonterminal"/>
   <text class="nonterminal" x="398" y="163">path-prefix</text>
   <rect x="45" y="231" width="94" height="32" rx="10"/>
   <rect x="43"
         y="229"
         width="94"
         height="32"
         class="terminal"
         rx="10"/>
   <text class="terminal" x="53" y="249">ENVELOPE</text>
   <rect x="179" y="231" width="92" height="32" rx="10"/>
   <rect x="177"
         y="229"
         width="92"
         height="32"
         class="terminal"
         rx="10"/>
   <text class="terminal" x="187" y="249">DEBEZIUM</text>
   <rect x="179" y="275" width="76" height="32" rx="10"/>
   <rect x="177"
         y="273"
         width="76"
         height="32"
         class="terminal"
         rx="10"/>
   <text class="terminal" x="187" y="293">UPSERT</text>
   <rect x="351" y="231" width="142" height="32" rx="10"/>
   <rect x="349"
         y="229"
         width="142"
         height="32"
         class="terminal"
         rx="10"/>
   <text class="terminal" x="359" y="249">WITH SNAPSHOT</text>
   <rect x="351" y="275" width="172" height="32" rx="10"/>
   <rect x="349"
         y="273"
         width="172"
         height="32"
         class="terminal"
         rx="10"/>
   <text class="terminal" x="359" y="293">WITHOUT SNAPSHOT</text>
   <path class="line"
         d="m19 17 h2 m0 0 h10 m114 0 h10 m20 0 h10 m0 0 h130 m-160 0 h20 m140 0 h20 m-180 0 q10 0 10 10 m160 0 q0 -10 10 -10 m-170 10 v12 m160 0 v-12 m-160 12 q0 10 10 10 m140 0 q10 0 10 -10 m-150 10 h10 m120 0 h10 m20 -32 h10 m88 0 h10 m0 0 h10 m60 0 h10 m2 0 l2 0 m2 0 l2 0 m2 0 l2 0 m-487 98 l2 0 m2 0 l2 0 m2 0 l2 0 m2 0 h10 m90 0 h10 m0 0 h10 m54 0 h10 m20 0 h10 m162 0 h10 m0 0 h46 m-248 0 h20 m228 0 h20 m-268 0 q10 0 10 10 m248 0 q0 -10 10 -10 m-258 10 v24 m248 0 v-24 m-248 24 q0 10 10 10 m228 0 q10 0 10 -10 m-238 10 h10 m94 0 h10 m0 0 h10 m94 0 h10 m22 -44 l2 0 m2 0 l2 0 m2 0 l2 0 m-523 98 l2 0 m2 0 l2 0 m2 0 l2 0 m22 0 h10 m0 0 h256 m-286 0 h20 m266 0 h20 m-306 0 q10 0 10 10 m286 0 q0 -10 10 -10 m-296 10 v12 m286 0 v-12 m-286 12 q0 10 10 10 m266 0 q10 0 10 -10 m-276 10 h10 m94 0 h10 m20 0 h10 m92 0 h10 m-132 0 h20 m112 0 h20 m-152 0 q10 0 10 10 m132 0 q0 -10 10 -10 m-142 10 v24 m132 0 v-24 m-132 24 q0 10 10 10 m112 0 q10 0 10 -10 m-122 10 h10 m76 0 h10 m0 0 h16 m60 -76 h10 m0 0 h182 m-212 0 h20 m192 0 h20 m-232 0 q10 0 10 10 m212 0 q0 -10 10 -10 m-222 10 v12 m212 0 v-12 m-212 12 q0 10 10 10 m192 0 q10 0 10 -10 m-202 10 h10 m142 0 h10 m0 0 h30 m-202 -10 v20 m212 0 v-20 m-212 20 v24 m212 0 v-24 m-212 24 q0 10 10 10 m192 0 q10 0 10 -10 m-202 10 h10 m172 0 h10 m23 -76 h-3"/>
   <polygon points="561 213 569 209 569 217"/>
   <polygon points="561 213 553 209 553 217"/>
</svg>
