<svg xmlns="http://www.w3.org/2000/svg" width="849" height="363">
   <polygon points="11 17 3 13 3 21"/>
   <polygon points="19 17 11 13 11 21"/>
   <rect x="33" y="3" width="140" height="32" rx="10"/>
   <rect x="31"
         y="1"
         width="140"
         height="32"
         class="terminal"
         rx="10"/>
   <text class="terminal" x="41" y="21">CREATE SOURCE</text>
   <rect x="213" y="35" width="120" height="32" rx="10"/>
   <rect x="211"
         y="33"
         width="120"
         height="32"
         class="terminal"
         rx="10"/>
   <text class="terminal" x="221" y="53">IF NOT EXISTS</text>
   <rect x="373" y="3" width="82" height="32"/>
   <rect x="371" y="1" width="82" height="32" class="nonterminal"/>
   <text class="nonterminal" x="381" y="21">src_name</text>
   <rect x="475" y="3" width="104" height="32" rx="10"/>
   <rect x="473"
         y="1"
         width="104"
         height="32"
         class="terminal"
         rx="10"/>
   <text class="terminal" x="483" y="21">IN CLUSTER</text>
   <rect x="203" y="101" width="108" height="32"/>
   <rect x="201" y="99" width="108" height="32" class="nonterminal"/>
   <text class="nonterminal" x="211" y="119">cluster_name</text>
   <rect x="331" y="101" width="60" height="32" rx="10"/>
   <rect x="329"
         y="99"
         width="60"
         height="32"
         class="terminal"
         rx="10"/>
   <text class="terminal" x="339" y="119">FROM</text>
   <rect x="411" y="101" width="94" height="32" rx="10"/>
   <rect x="409"
         y="99"
         width="94"
         height="32"
         class="terminal"
         rx="10"/>
   <text class="terminal" x="419" y="119">WEBHOOK</text>
   <rect x="525" y="101" width="126" height="32" rx="10"/>
   <rect x="523"
         y="99"
         width="126"
         height="32"
         class="terminal"
         rx="10"/>
   <text class="terminal" x="533" y="119">BODY FORMAT</text>
   <rect x="236" y="167" width="170" height="32"/>
   <rect x="234" y="165" width="170" height="32" class="nonterminal"/>
   <text class="nonterminal" x="244" y="185">webhook_body_format</text>
   <rect x="446" y="199" width="152" height="32" rx="10"/>
   <rect x="444"
         y="197"
         width="152"
         height="32"
         class="terminal"
         rx="10"/>
   <text class="terminal" x="454" y="217">INCLUDE HEADERS</text>
   <rect x="45" y="281" width="70" height="32" rx="10"/>
   <rect x="43"
         y="279"
         width="70"
         height="32"
         class="terminal"
         rx="10"/>
   <text class="terminal" x="53" y="299">CHECK</text>
   <rect x="155" y="281" width="58" height="32" rx="10"/>
   <rect x="153"
         y="279"
         width="58"
         height="32"
         class="terminal"
         rx="10"/>
   <text class="terminal" x="163" y="299">WITH</text>
   <rect x="233" y="281" width="26" height="32" rx="10"/>
   <rect x="231"
         y="279"
         width="26"
         height="32"
         class="terminal"
         rx="10"/>
   <text class="terminal" x="241" y="299">(</text>
   <rect x="319" y="281" width="24" height="32" rx="10"/>
   <rect x="317"
         y="279"
         width="24"
         height="32"
         class="terminal"
         rx="10"/>
   <text class="terminal" x="327" y="299">,</text>
   <rect x="363" y="281" width="174" height="32"/>
   <rect x="361" y="279" width="174" height="32" class="nonterminal"/>
   <text class="nonterminal" x="371" y="299">webhook_check_option</text>
   <rect x="597" y="281" width="26" height="32" rx="10"/>
   <rect x="595"
         y="279"
         width="26"
         height="32"
         class="terminal"
         rx="10"/>
   <text class="terminal" x="605" y="299">)</text>
   <rect x="663" y="281" width="138" height="32"/>
   <rect x="661" y="279" width="138" height="32" class="nonterminal"/>
   <text class="nonterminal" x="671" y="299">check_expression</text>
   <path class="line"
         d="m19 17 h2 m0 0 h10 m140 0 h10 m20 0 h10 m0 0 h130 m-160 0 h20 m140 0 h20 m-180 0 q10 0 10 10 m160 0 q0 -10 10 -10 m-170 10 v12 m160 0 v-12 m-160 12 q0 10 10 10 m140 0 q10 0 10 -10 m-150 10 h10 m120 0 h10 m20 -32 h10 m82 0 h10 m0 0 h10 m104 0 h10 m2 0 l2 0 m2 0 l2 0 m2 0 l2 0 m-420 98 l2 0 m2 0 l2 0 m2 0 l2 0 m2 0 h10 m108 0 h10 m0 0 h10 m60 0 h10 m0 0 h10 m94 0 h10 m0 0 h10 m126 0 h10 m2 0 l2 0 m2 0 l2 0 m2 0 l2 0 m-459 66 l2 0 m2 0 l2 0 m2 0 l2 0 m2 0 h10 m170 0 h10 m20 0 h10 m0 0 h162 m-192 0 h20 m172 0 h20 m-212 0 q10 0 10 10 m192 0 q0 -10 10 -10 m-202 10 v12 m192 0 v-12 m-192 12 q0 10 10 10 m172 0 q10 0 10 -10 m-182 10 h10 m152 0 h10 m22 -32 l2 0 m2 0 l2 0 m2 0 l2 0 m-637 114 l2 0 m2 0 l2 0 m2 0 l2 0 m22 0 h10 m70 0 h10 m20 0 h10 m58 0 h10 m0 0 h10 m26 0 h10 m40 0 h10 m24 0 h10 m0 0 h10 m174 0 h10 m-258 0 l20 0 m-1 0 q-9 0 -9 -10 l0 -12 q0 -10 10 -10 m238 32 l20 0 m-20 0 q10 0 10 -10 l0 -12 q0 -10 -10 -10 m-238 0 h10 m0 0 h228 m-278 32 h20 m278 0 h20 m-318 0 q10 0 10 10 m298 0 q0 -10 10 -10 m-308 10 v14 m298 0 v-14 m-298 14 q0 10 10 10 m278 0 q10 0 10 -10 m-288 10 h10 m0 0 h268 m20 -34 h10 m26 0 h10 m-508 0 h20 m488 0 h20 m-528 0 q10 0 10 10 m508 0 q0 -10 10 -10 m-518 10 v30 m508 0 v-30 m-508 30 q0 10 10 10 m488 0 q10 0 10 -10 m-498 10 h10 m0 0 h478 m20 -50 h10 m138 0 h10 m-796 0 h20 m776 0 h20 m-816 0 q10 0 10 10 m796 0 q0 -10 10 -10 m-806 10 v46 m796 0 v-46 m-796 46 q0 10 10 10 m776 0 q10 0 10 -10 m-786 10 h10 m0 0 h766 m23 -66 h-3"/>
   <polygon points="839 295 847 291 847 299"/>
   <polygon points="839 295 831 291 831 299"/>
</svg>
