<svg xmlns="http://www.w3.org/2000/svg" width="583" height="687">
   <polygon points="9 17 1 13 1 21"/>
   <polygon points="17 17 9 13 9 21"/>
   <rect x="31" y="3" width="74" height="32" rx="10"/>
   <rect x="29"
         y="1"
         width="74"
         height="32"
         class="terminal"
         rx="10"/>
   <text class="terminal" x="39" y="21">CREATE</text>
   <rect x="145" y="35" width="120" height="32" rx="10"/>
   <rect x="143"
         y="33"
         width="120"
         height="32"
         class="terminal"
         rx="10"/>
   <text class="terminal" x="153" y="53">MATERIALIZED</text>
   <rect x="305" y="3" width="78" height="32" rx="10"/>
   <rect x="303"
         y="1"
         width="78"
         height="32"
         class="terminal"
         rx="10"/>
   <text class="terminal" x="313" y="21">SOURCE</text>
   <rect x="423" y="35" width="118" height="32" rx="10"/>
   <rect x="421"
         y="33"
         width="118"
         height="32"
         class="terminal"
         rx="10"/>
   <text class="terminal" x="431" y="53">IF NOT EXISTS</text>
   <rect x="79" y="145" width="80" height="32"/>
   <rect x="77" y="143" width="80" height="32" class="nonterminal"/>
   <text class="nonterminal" x="87" y="163">src_name</text>
   <rect x="199" y="145" width="24" height="32" rx="10"/>
   <rect x="197"
         y="143"
         width="24"
         height="32"
         class="terminal"
         rx="10"/>
   <text class="terminal" x="207" y="163">(</text>
   <rect x="263" y="145" width="80" height="32"/>
   <rect x="261" y="143" width="80" height="32" class="nonterminal"/>
   <text class="nonterminal" x="271" y="163">col_name</text>
   <rect x="263" y="101" width="24" height="32" rx="10"/>
   <rect x="261"
         y="99"
         width="24"
         height="32"
         class="terminal"
         rx="10"/>
   <text class="terminal" x="271" y="119">,</text>
   <rect x="383" y="145" width="24" height="32" rx="10"/>
   <rect x="381"
         y="143"
         width="24"
         height="32"
         class="terminal"
         rx="10"/>
   <text class="terminal" x="391" y="163">)</text>
   <rect x="447" y="145" width="60" height="32" rx="10"/>
   <rect x="445"
         y="143"
         width="60"
         height="32"
         class="terminal"
         rx="10"/>
   <text class="terminal" x="455" y="163">FROM</text>
   <rect x="42" y="227" width="126" height="32" rx="10"/>
   <rect x="40"
         y="225"
         width="126"
         height="32"
         class="terminal"
         rx="10"/>
   <text class="terminal" x="50" y="245">KAFKA BROKER</text>
   <rect x="188" y="227" width="46" height="32"/>
   <rect x="186" y="225" width="46" height="32" class="nonterminal"/>
   <text class="nonterminal" x="196" y="245">host</text>
   <rect x="254" y="227" width="62" height="32" rx="10"/>
   <rect x="252"
         y="225"
         width="62"
         height="32"
         class="terminal"
         rx="10"/>
   <text class="terminal" x="262" y="245">TOPIC</text>
   <rect x="336" y="227" width="50" height="32"/>
   <rect x="334" y="225" width="50" height="32" class="nonterminal"/>
   <text class="nonterminal" x="344" y="245">topic</text>
   <rect x="426" y="259" width="98" height="32"/>
   <rect x="424" y="257" width="98" height="32" class="nonterminal"/>
   <text class="nonterminal" x="434" y="277">with_options</text>
   <rect x="108" y="325" width="108" height="32" rx="10"/>
   <rect x="106"
         y="323"
         width="108"
         height="32"
         class="terminal"
         rx="10"/>
   <text class="terminal" x="116" y="343">KEY FORMAT</text>
   <rect x="236" y="325" width="96" height="32"/>
   <rect x="234" y="323" width="96" height="32" class="nonterminal"/>
   <text class="nonterminal" x="244" y="343">format_spec</text>
   <rect x="352" y="325" width="126" height="32" rx="10"/>
   <rect x="350"
         y="323"
         width="126"
         height="32"
         class="terminal"
         rx="10"/>
   <text class="terminal" x="360" y="343">VALUE FORMAT</text>
   <rect x="108" y="369" width="78" height="32" rx="10"/>
   <rect x="106"
         y="367"
         width="78"
         height="32"
         class="terminal"
         rx="10"/>
   <text class="terminal" x="116" y="387">FORMAT</text>
   <rect x="59" y="435" width="64" height="32" rx="10"/>
   <rect x="57"
         y="433"
         width="64"
         height="32"
         class="terminal"
         rx="10"/>
   <text class="terminal" x="67" y="453">BYTES</text>
   <rect x="59" y="479" width="54" height="32" rx="10"/>
   <rect x="57"
         y="477"
         width="54"
         height="32"
         class="terminal"
         rx="10"/>
   <text class="terminal" x="67" y="497">TEXT</text>
   <rect x="59" y="523" width="96" height="32"/>
   <rect x="57" y="521" width="96" height="32" class="nonterminal"/>
   <text class="nonterminal" x="67" y="541">format_spec</text>
   <rect x="215" y="467" width="112" height="32" rx="10"/>
   <rect x="213"
         y="465"
         width="112"
         height="32"
         class="terminal"
         rx="10"/>
   <text class="terminal" x="223" y="485">INCLUDE KEY</text>
   <rect x="367" y="499" width="38" height="32" rx="10"/>
   <rect x="365"
         y="497"
         width="38"
         height="32"
         class="terminal"
         rx="10"/>
   <text class="terminal" x="375" y="517">AS</text>
   <rect x="425" y="499" width="82" height="32"/>
   <rect x="423" y="497" width="82" height="32" class="nonterminal"/>
   <text class="nonterminal" x="433" y="517">key_name</text>
   <rect x="309" y="609" width="92" height="32" rx="10"/>
   <rect x="307"
         y="607"
         width="92"
         height="32"
         class="terminal"
         rx="10"/>
   <text class="terminal" x="317" y="627">ENVELOPE</text>
   <rect x="441" y="609" width="60" height="32" rx="10"/>
   <rect x="439"
         y="607"
         width="60"
         height="32"
         class="terminal"
         rx="10"/>
   <text class="terminal" x="449" y="627">NONE</text>
   <rect x="441" y="653" width="74" height="32" rx="10"/>
   <rect x="439"
         y="651"
         width="74"
         height="32"
         class="terminal"
         rx="10"/>
   <text class="terminal" x="449" y="671">UPSERT</text>
   <path class="line"
         d="m17 17 h2 m0 0 h10 m74 0 h10 m20 0 h10 m0 0 h130 m-160 0 h20 m140 0 h20 m-180 0 q10 0 10 10 m160 0 q0 -10 10 -10 m-170 10 v12 m160 0 v-12 m-160 12 q0 10 10 10 m140 0 q10 0 10 -10 m-150 10 h10 m120 0 h10 m20 -32 h10 m78 0 h10 m20 0 h10 m0 0 h128 m-158 0 h20 m138 0 h20 m-178 0 q10 0 10 10 m158 0 q0 -10 10 -10 m-168 10 v12 m158 0 v-12 m-158 12 q0 10 10 10 m138 0 q10 0 10 -10 m-148 10 h10 m118 0 h10 m22 -32 l2 0 m2 0 l2 0 m2 0 l2 0 m-526 142 l2 0 m2 0 l2 0 m2 0 l2 0 m2 0 h10 m80 0 h10 m20 0 h10 m24 0 h10 m20 0 h10 m80 0 h10 m-120 0 l20 0 m-1 0 q-9 0 -9 -10 l0 -24 q0 -10 10 -10 m100 44 l20 0 m-20 0 q10 0 10 -10 l0 -24 q0 -10 -10 -10 m-100 0 h10 m24 0 h10 m0 0 h56 m20 44 h10 m24 0 h10 m-248 0 h20 m228 0 h20 m-268 0 q10 0 10 10 m248 0 q0 -10 10 -10 m-258 10 v14 m248 0 v-14 m-248 14 q0 10 10 10 m228 0 q10 0 10 -10 m-238 10 h10 m0 0 h218 m20 -34 h10 m60 0 h10 m2 0 l2 0 m2 0 l2 0 m2 0 l2 0 m-509 82 l2 0 m2 0 l2 0 m2 0 l2 0 m2 0 h10 m126 0 h10 m0 0 h10 m46 0 h10 m0 0 h10 m62 0 h10 m0 0 h10 m50 0 h10 m20 0 h10 m0 0 h108 m-138 0 h20 m118 0 h20 m-158 0 q10 0 10 10 m138 0 q0 -10 10 -10 m-148 10 v12 m138 0 v-12 m-138 12 q0 10 10 10 m118 0 q10 0 10 -10 m-128 10 h10 m98 0 h10 m22 -32 l2 0 m2 0 l2 0 m2 0 l2 0 m-500 98 l2 0 m2 0 l2 0 m2 0 l2 0 m22 0 h10 m108 0 h10 m0 0 h10 m96 0 h10 m0 0 h10 m126 0 h10 m-410 0 h20 m390 0 h20 m-430 0 q10 0 10 10 m410 0 q0 -10 10 -10 m-420 10 v24 m410 0 v-24 m-410 24 q0 10 10 10 m390 0 q10 0 10 -10 m-400 10 h10 m78 0 h10 m0 0 h292 m22 -44 l2 0 m2 0 l2 0 m2 0 l2 0 m-503 110 l2 0 m2 0 l2 0 m2 0 l2 0 m22 0 h10 m64 0 h10 m0 0 h32 m-136 0 h20 m116 0 h20 m-156 0 q10 0 10 10 m136 0 q0 -10 10 -10 m-146 10 v24 m136 0 v-24 m-136 24 q0 10 10 10 m116 0 q10 0 10 -10 m-126 10 h10 m54 0 h10 m0 0 h42 m-126 -10 v20 m136 0 v-20 m-136 20 v24 m136 0 v-24 m-136 24 q0 10 10 10 m116 0 q10 0 10 -10 m-126 10 h10 m96 0 h10 m40 -88 h10 m0 0 h322 m-352 0 h20 m332 0 h20 m-372 0 q10 0 10 10 m352 0 q0 -10 10 -10 m-362 10 v12 m352 0 v-12 m-352 12 q0 10 10 10 m332 0 q10 0 10 -10 m-342 10 h10 m112 0 h10 m20 0 h10 m0 0 h150 m-180 0 h20 m160 0 h20 m-200 0 q10 0 10 10 m180 0 q0 -10 10 -10 m-190 10 v12 m180 0 v-12 m-180 12 q0 10 10 10 m160 0 q10 0 10 -10 m-170 10 h10 m38 0 h10 m0 0 h10 m82 0 h10 m42 -64 l2 0 m2 0 l2 0 m2 0 l2 0 m-302 142 l2 0 m2 0 l2 0 m2 0 l2 0 m22 0 h10 m0 0 h236 m-266 0 h20 m246 0 h20 m-286 0 q10 0 10 10 m266 0 q0 -10 10 -10 m-276 10 v12 m266 0 v-12 m-266 12 q0 10 10 10 m246 0 q10 0 10 -10 m-256 10 h10 m92 0 h10 m20 0 h10 m60 0 h10 m0 0 h14 m-114 0 h20 m94 0 h20 m-134 0 q10 0 10 10 m114 0 q0 -10 10 -10 m-124 10 v24 m114 0 v-24 m-114 24 q0 10 10 10 m94 0 q10 0 10 -10 m-104 10 h10 m74 0 h10 m43 -76 h-3"/>
   <polygon points="573 591 581 587 581 595"/>
   <polygon points="573 591 565 587 565 595"/>
</svg>
