<svg xmlns="http://www.w3.org/2000/svg" width="611" height="549">
   <polygon points="9 17 1 13 1 21"/>
   <polygon points="17 17 9 13 9 21"/>
   <rect x="31" y="3" width="114" height="32" rx="10"/>
   <rect x="29"
         y="1"
         width="114"
         height="32"
         class="terminal"
         rx="10"/>
   <text class="terminal" x="39" y="21">CREATE SINK</text>
   <rect x="185" y="35" width="120" height="32" rx="10"/>
   <rect x="183"
         y="33"
         width="120"
         height="32"
         class="terminal"
         rx="10"/>
   <text class="terminal" x="193" y="53">IF NOT EXISTS</text>
   <rect x="345" y="3" width="88" height="32"/>
   <rect x="343" y="1" width="88" height="32" class="nonterminal"/>
   <text class="nonterminal" x="353" y="21">sink_name</text>
   <rect x="453" y="3" width="60" height="32" rx="10"/>
   <rect x="451"
         y="1"
         width="60"
         height="32"
         class="terminal"
         rx="10"/>
   <text class="terminal" x="461" y="21">FROM</text>
   <rect x="113" y="101" width="90" height="32"/>
   <rect x="111" y="99" width="90" height="32" class="nonterminal"/>
   <text class="nonterminal" x="121" y="119">item_name</text>
   <rect x="223" y="101" width="54" height="32" rx="10"/>
   <rect x="221"
         y="99"
         width="54"
         height="32"
         class="terminal"
         rx="10"/>
   <text class="terminal" x="231" y="119">INTO</text>
   <rect x="317" y="101" width="162" height="32"/>
   <rect x="315" y="99" width="162" height="32" class="nonterminal"/>
   <text class="nonterminal" x="325" y="119">sink_kafka_connector</text>
   <rect x="317" y="145" width="94" height="32" rx="10"/>
   <rect x="315"
         y="143"
         width="94"
         height="32"
         class="terminal"
         rx="10"/>
   <text class="terminal" x="325" y="163">AVRO OCF</text>
   <rect x="431" y="145" width="50" height="32"/>
   <rect x="429" y="143" width="50" height="32" class="nonterminal"/>
   <text class="nonterminal" x="439" y="163">path</text>
   <rect x="45" y="255" width="58" height="32" rx="10"/>
   <rect x="43"
         y="253"
         width="58"
         height="32"
         class="terminal"
         rx="10"/>
   <text class="terminal" x="53" y="273">WITH</text>
   <rect x="123" y="255" width="26" height="32" rx="10"/>
   <rect x="121"
         y="253"
         width="26"
         height="32"
         class="terminal"
         rx="10"/>
   <text class="terminal" x="131" y="273">(</text>
   <rect x="189" y="255" width="104" height="32"/>
   <rect x="187" y="253" width="104" height="32" class="nonterminal"/>
   <text class="nonterminal" x="197" y="273">option_name</text>
   <rect x="333" y="287" width="28" height="32" rx="10"/>
   <rect x="331"
         y="285"
         width="28"
         height="32"
         class="terminal"
         rx="10"/>
   <text class="terminal" x="341" y="305">=</text>
   <rect x="381" y="287" width="102" height="32"/>
   <rect x="379" y="285" width="102" height="32" class="nonterminal"/>
   <text class="nonterminal" x="389" y="305">option_value</text>
   <rect x="189" y="211" width="24" height="32" rx="10"/>
   <rect x="187"
         y="209"
         width="24"
         height="32"
         class="terminal"
         rx="10"/>
   <text class="terminal" x="197" y="229">,</text>
   <rect x="543" y="255" width="26" height="32" rx="10"/>
   <rect x="541"
         y="253"
         width="26"
         height="32"
         class="terminal"
         rx="10"/>
   <text class="terminal" x="551" y="273">)</text>
   <rect x="190" y="385" width="80" height="32" rx="10"/>
   <rect x="188"
         y="383"
         width="80"
         height="32"
         class="terminal"
         rx="10"/>
   <text class="terminal" x="198" y="403">FORMAT</text>
   <rect x="290" y="385" width="134" height="32"/>
   <rect x="288" y="383" width="134" height="32" class="nonterminal"/>
   <text class="nonterminal" x="298" y="403">sink_format_spec</text>
   <rect x="85" y="471" width="94" height="32" rx="10"/>
   <rect x="83"
         y="469"
         width="94"
         height="32"
         class="terminal"
         rx="10"/>
   <text class="terminal" x="93" y="489">ENVELOPE</text>
   <rect x="219" y="471" width="92" height="32" rx="10"/>
   <rect x="217"
         y="469"
         width="92"
         height="32"
         class="terminal"
         rx="10"/>
   <text class="terminal" x="227" y="489">DEBEZIUM</text>
   <rect x="219" y="515" width="76" height="32" rx="10"/>
   <rect x="217"
         y="513"
         width="76"
         height="32"
         class="terminal"
         rx="10"/>
   <text class="terminal" x="227" y="533">UPSERT</text>
   <rect x="391" y="471" width="142" height="32" rx="10"/>
   <rect x="389"
         y="469"
         width="142"
         height="32"
         class="terminal"
         rx="10"/>
   <text class="terminal" x="399" y="489">WITH SNAPSHOT</text>
   <rect x="391" y="515" width="172" height="32" rx="10"/>
   <rect x="389"
         y="513"
         width="172"
         height="32"
         class="terminal"
         rx="10"/>
   <text class="terminal" x="399" y="533">WITHOUT SNAPSHOT</text>
   <path class="line"
         d="m17 17 h2 m0 0 h10 m114 0 h10 m20 0 h10 m0 0 h130 m-160 0 h20 m140 0 h20 m-180 0 q10 0 10 10 m160 0 q0 -10 10 -10 m-170 10 v12 m160 0 v-12 m-160 12 q0 10 10 10 m140 0 q10 0 10 -10 m-150 10 h10 m120 0 h10 m20 -32 h10 m88 0 h10 m0 0 h10 m60 0 h10 m2 0 l2 0 m2 0 l2 0 m2 0 l2 0 m-444 98 l2 0 m2 0 l2 0 m2 0 l2 0 m2 0 h10 m90 0 h10 m0 0 h10 m54 0 h10 m20 0 h10 m162 0 h10 m0 0 h2 m-204 0 h20 m184 0 h20 m-224 0 q10 0 10 10 m204 0 q0 -10 10 -10 m-214 10 v24 m204 0 v-24 m-204 24 q0 10 10 10 m184 0 q10 0 10 -10 m-194 10 h10 m94 0 h10 m0 0 h10 m50 0 h10 m22 -44 l2 0 m2 0 l2 0 m2 0 l2 0 m-520 154 l2 0 m2 0 l2 0 m2 0 l2 0 m22 0 h10 m58 0 h10 m0 0 h10 m26 0 h10 m20 0 h10 m104 0 h10 m20 0 h10 m0 0 h160 m-190 0 h20 m170 0 h20 m-210 0 q10 0 10 10 m190 0 q0 -10 10 -10 m-200 10 v12 m190 0 v-12 m-190 12 q0 10 10 10 m170 0 q10 0 10 -10 m-180 10 h10 m28 0 h10 m0 0 h10 m102 0 h10 m-334 -32 l20 0 m-1 0 q-9 0 -9 -10 l0 -24 q0 -10 10 -10 m334 44 l20 0 m-20 0 q10 0 10 -10 l0 -24 q0 -10 -10 -10 m-334 0 h10 m24 0 h10 m0 0 h290 m20 44 h10 m26 0 h10 m-564 0 h20 m544 0 h20 m-584 0 q10 0 10 10 m564 0 q0 -10 10 -10 m-574 10 v46 m564 0 v-46 m-564 46 q0 10 10 10 m544 0 q10 0 10 -10 m-554 10 h10 m0 0 h534 m22 -66 l2 0 m2 0 l2 0 m2 0 l2 0 m-463 98 l2 0 m2 0 l2 0 m2 0 l2 0 m22 0 h10 m0 0 h244 m-274 0 h20 m254 0 h20 m-294 0 q10 0 10 10 m274 0 q0 -10 10 -10 m-284 10 v12 m274 0 v-12 m-274 12 q0 10 10 10 m254 0 q10 0 10 -10 m-264 10 h10 m80 0 h10 m0 0 h10 m134 0 h10 m22 -32 l2 0 m2 0 l2 0 m2 0 l2 0 m-423 86 l2 0 m2 0 l2 0 m2 0 l2 0 m22 0 h10 m0 0 h256 m-286 0 h20 m266 0 h20 m-306 0 q10 0 10 10 m286 0 q0 -10 10 -10 m-296 10 v12 m286 0 v-12 m-286 12 q0 10 10 10 m266 0 q10 0 10 -10 m-276 10 h10 m94 0 h10 m20 0 h10 m92 0 h10 m-132 0 h20 m112 0 h20 m-152 0 q10 0 10 10 m132 0 q0 -10 10 -10 m-142 10 v24 m132 0 v-24 m-132 24 q0 10 10 10 m112 0 q10 0 10 -10 m-122 10 h10 m76 0 h10 m0 0 h16 m60 -76 h10 m0 0 h182 m-212 0 h20 m192 0 h20 m-232 0 q10 0 10 10 m212 0 q0 -10 10 -10 m-222 10 v12 m212 0 v-12 m-212 12 q0 10 10 10 m192 0 q10 0 10 -10 m-202 10 h10 m142 0 h10 m0 0 h30 m-202 -10 v20 m212 0 v-20 m-212 20 v24 m212 0 v-24 m-212 24 q0 10 10 10 m192 0 q10 0 10 -10 m-202 10 h10 m172 0 h10 m23 -76 h-3"/>
   <polygon points="601 453 609 449 609 457"/>
   <polygon points="601 453 593 449 593 457"/>
</svg>
