<svg xmlns="http://www.w3.org/2000/svg" width="583" height="541">
   <polygon points="9 17 1 13 1 21"/>
   <polygon points="17 17 9 13 9 21"/>
   <rect x="31" y="3" width="74" height="32" rx="10"/>
   <rect x="29"
         y="1"
         width="74"
         height="32"
         class="terminal"
         rx="10"/>
   <text class="terminal" x="39" y="21">CREATE</text>
   <rect x="145" y="35" width="120" height="32" rx="10"/>
   <rect x="143"
         y="33"
         width="120"
         height="32"
         class="terminal"
         rx="10"/>
   <text class="terminal" x="153" y="53">MATERIALIZED</text>
   <rect x="305" y="3" width="78" height="32" rx="10"/>
   <rect x="303"
         y="1"
         width="78"
         height="32"
         class="terminal"
         rx="10"/>
   <text class="terminal" x="313" y="21">SOURCE</text>
   <rect x="423" y="35" width="118" height="32" rx="10"/>
   <rect x="421"
         y="33"
         width="118"
         height="32"
         class="terminal"
         rx="10"/>
   <text class="terminal" x="431" y="53">IF NOT EXISTS</text>
   <rect x="145" y="101" width="80" height="32"/>
   <rect x="143" y="99" width="80" height="32" class="nonterminal"/>
   <text class="nonterminal" x="153" y="119">src_name</text>
   <rect x="245" y="101" width="196" height="32" rx="10"/>
   <rect x="243"
         y="99"
         width="196"
         height="32"
         class="terminal"
         rx="10"/>
   <text class="terminal" x="253" y="119">FROM S3 OBJECTS FROM </text>
   <rect x="153" y="211" width="118" height="32" rx="10"/>
   <rect x="151"
         y="209"
         width="118"
         height="32"
         class="terminal"
         rx="10"/>
   <text class="terminal" x="161" y="229">SCAN BUCKET</text>
   <rect x="291" y="211" width="102" height="32"/>
   <rect x="289" y="209" width="102" height="32" class="nonterminal"/>
   <text class="nonterminal" x="299" y="229">bucket_name</text>
   <rect x="153" y="255" width="160" height="32" rx="10"/>
   <rect x="151"
         y="253"
         width="160"
         height="32"
         class="terminal"
         rx="10"/>
   <text class="terminal" x="161" y="273">SQS NOTIFICATIONS</text>
   <rect x="333" y="255" width="100" height="32"/>
   <rect x="331" y="253" width="100" height="32" class="nonterminal"/>
   <text class="nonterminal" x="341" y="273">queue_name</text>
   <rect x="133" y="167" width="24" height="32" rx="10"/>
   <rect x="131"
         y="165"
         width="24"
         height="32"
         class="terminal"
         rx="10"/>
   <text class="terminal" x="141" y="185">,</text>
   <rect x="60" y="353" width="94" height="32" rx="10"/>
   <rect x="58"
         y="351"
         width="94"
         height="32"
         class="terminal"
         rx="10"/>
   <text class="terminal" x="68" y="371">MATCHING</text>
   <rect x="174" y="353" width="64" height="32"/>
   <rect x="172" y="351" width="64" height="32" class="nonterminal"/>
   <text class="nonterminal" x="182" y="371">pattern</text>
   <rect x="278" y="321" width="56" height="32" rx="10"/>
   <rect x="276"
         y="319"
         width="56"
         height="32"
         class="terminal"
         rx="10"/>
   <text class="terminal" x="286" y="339">WITH</text>
   <rect x="354" y="321" width="24" height="32" rx="10"/>
   <rect x="352"
         y="319"
         width="24"
         height="32"
         class="terminal"
         rx="10"/>
   <text class="terminal" x="362" y="339">(</text>
   <rect x="398" y="321" width="70" height="32" rx="10"/>
   <rect x="396"
         y="319"
         width="70"
         height="32"
         class="terminal"
         rx="10"/>
   <text class="terminal" x="406" y="339">region =</text>
   <rect x="488" y="321" width="58" height="32"/>
   <rect x="486" y="319" width="58" height="32" class="nonterminal"/>
   <text class="nonterminal" x="496" y="339">region</text>
   <rect x="75" y="451" width="118" height="32"/>
   <rect x="73" y="449" width="118" height="32" class="nonterminal"/>
   <text class="nonterminal" x="83" y="469">aws_credentials</text>
   <rect x="233" y="419" width="24" height="32" rx="10"/>
   <rect x="231"
         y="417"
         width="24"
         height="32"
         class="terminal"
         rx="10"/>
   <text class="terminal" x="241" y="437">)</text>
   <rect x="277" y="419" width="78" height="32" rx="10"/>
   <rect x="275"
         y="417"
         width="78"
         height="32"
         class="terminal"
         rx="10"/>
   <text class="terminal" x="285" y="437">FORMAT</text>
   <rect x="395" y="419" width="66" height="32" rx="10"/>
   <rect x="393"
         y="417"
         width="66"
         height="32"
         class="terminal"
         rx="10"/>
   <text class="terminal" x="403" y="437">REGEX</text>
   <rect x="481" y="419" width="54" height="32"/>
   <rect x="479" y="417" width="54" height="32" class="nonterminal"/>
   <text class="nonterminal" x="489" y="437">regex</text>
   <rect x="395" y="463" width="54" height="32" rx="10"/>
   <rect x="393"
         y="461"
         width="54"
         height="32"
         class="terminal"
         rx="10"/>
   <text class="terminal" x="403" y="481">TEXT</text>
   <rect x="395" y="507" width="64" height="32" rx="10"/>
   <rect x="393"
         y="505"
         width="64"
         height="32"
         class="terminal"
         rx="10"/>
   <text class="terminal" x="403" y="525">BYTES</text>
   <path class="line"
         d="m17 17 h2 m0 0 h10 m74 0 h10 m20 0 h10 m0 0 h130 m-160 0 h20 m140 0 h20 m-180 0 q10 0 10 10 m160 0 q0 -10 10 -10 m-170 10 v12 m160 0 v-12 m-160 12 q0 10 10 10 m140 0 q10 0 10 -10 m-150 10 h10 m120 0 h10 m20 -32 h10 m78 0 h10 m20 0 h10 m0 0 h128 m-158 0 h20 m138 0 h20 m-178 0 q10 0 10 10 m158 0 q0 -10 10 -10 m-168 10 v12 m158 0 v-12 m-158 12 q0 10 10 10 m138 0 q10 0 10 -10 m-148 10 h10 m118 0 h10 m22 -32 l2 0 m2 0 l2 0 m2 0 l2 0 m-460 98 l2 0 m2 0 l2 0 m2 0 l2 0 m2 0 h10 m80 0 h10 m0 0 h10 m196 0 h10 m2 0 l2 0 m2 0 l2 0 m2 0 l2 0 m-372 110 l2 0 m2 0 l2 0 m2 0 l2 0 m42 0 h10 m118 0 h10 m0 0 h10 m102 0 h10 m0 0 h40 m-320 0 h20 m300 0 h20 m-340 0 q10 0 10 10 m320 0 q0 -10 10 -10 m-330 10 v24 m320 0 v-24 m-320 24 q0 10 10 10 m300 0 q10 0 10 -10 m-310 10 h10 m160 0 h10 m0 0 h10 m100 0 h10 m-340 -44 l20 0 m-1 0 q-9 0 -9 -10 l0 -24 q0 -10 10 -10 m340 44 l20 0 m-20 0 q10 0 10 -10 l0 -24 q0 -10 -10 -10 m-340 0 h10 m24 0 h10 m0 0 h296 m22 44 l2 0 m2 0 l2 0 m2 0 l2 0 m-477 110 l2 0 m2 0 l2 0 m2 0 l2 0 m22 0 h10 m0 0 h188 m-218 0 h20 m198 0 h20 m-238 0 q10 0 10 10 m218 0 q0 -10 10 -10 m-228 10 v12 m218 0 v-12 m-218 12 q0 10 10 10 m198 0 q10 0 10 -10 m-208 10 h10 m94 0 h10 m0 0 h10 m64 0 h10 m20 -32 h10 m56 0 h10 m0 0 h10 m24 0 h10 m0 0 h10 m70 0 h10 m0 0 h10 m58 0 h10 m2 0 l2 0 m2 0 l2 0 m2 0 l2 0 m-535 98 l2 0 m2 0 l2 0 m2 0 l2 0 m22 0 h10 m0 0 h128 m-158 0 h20 m138 0 h20 m-178 0 q10 0 10 10 m158 0 q0 -10 10 -10 m-168 10 v12 m158 0 v-12 m-158 12 q0 10 10 10 m138 0 q10 0 10 -10 m-148 10 h10 m118 0 h10 m20 -32 h10 m24 0 h10 m0 0 h10 m78 0 h10 m20 0 h10 m66 0 h10 m0 0 h10 m54 0 h10 m-180 0 h20 m160 0 h20 m-200 0 q10 0 10 10 m180 0 q0 -10 10 -10 m-190 10 v24 m180 0 v-24 m-180 24 q0 10 10 10 m160 0 q10 0 10 -10 m-170 10 h10 m54 0 h10 m0 0 h86 m-170 -10 v20 m180 0 v-20 m-180 20 v24 m180 0 v-24 m-180 24 q0 10 10 10 m160 0 q10 0 10 -10 m-170 10 h10 m64 0 h10 m0 0 h76 m23 -88 h-3"/>
   <polygon points="573 433 581 429 581 437"/>
   <polygon points="573 433 565 429 565 437"/>
</svg>
