<svg xmlns="http://www.w3.org/2000/svg" width="793" height="899">
   <polygon points="9 17 1 13 1 21"/>
   <polygon points="17 17 9 13 9 21"/>
   <rect x="31" y="3" width="74" height="32" rx="10"/>
   <rect x="29"
         y="1"
         width="74"
         height="32"
         class="terminal"
         rx="10"/>
   <text class="terminal" x="39" y="21">CREATE</text>
   <rect x="145" y="35" width="120" height="32" rx="10"/>
   <rect x="143"
         y="33"
         width="120"
         height="32"
         class="terminal"
         rx="10"/>
   <text class="terminal" x="153" y="53">MATERIALIZED</text>
   <rect x="305" y="3" width="78" height="32" rx="10"/>
   <rect x="303"
         y="1"
         width="78"
         height="32"
         class="terminal"
         rx="10"/>
   <text class="terminal" x="313" y="21">SOURCE</text>
   <rect x="423" y="35" width="118" height="32" rx="10"/>
   <rect x="421"
         y="33"
         width="118"
         height="32"
         class="terminal"
         rx="10"/>
   <text class="terminal" x="431" y="53">IF NOT EXISTS</text>
   <rect x="358" y="101" width="80" height="32"/>
   <rect x="356" y="99" width="80" height="32" class="nonterminal"/>
   <text class="nonterminal" x="366" y="119">src_name</text>
   <rect x="147" y="211" width="24" height="32" rx="10"/>
   <rect x="145"
         y="209"
         width="24"
         height="32"
         class="terminal"
         rx="10"/>
   <text class="terminal" x="155" y="229">(</text>
   <rect x="211" y="211" width="80" height="32"/>
   <rect x="209" y="209" width="80" height="32" class="nonterminal"/>
   <text class="nonterminal" x="219" y="229">col_name</text>
   <rect x="211" y="167" width="24" height="32" rx="10"/>
   <rect x="209"
         y="165"
         width="24"
         height="32"
         class="terminal"
         rx="10"/>
   <text class="terminal" x="219" y="185">,</text>
   <rect x="351" y="243" width="24" height="32" rx="10"/>
   <rect x="349"
         y="241"
         width="24"
         height="32"
         class="terminal"
         rx="10"/>
   <text class="terminal" x="359" y="261">,</text>
   <rect x="395" y="243" width="110" height="32"/>
   <rect x="393" y="241" width="110" height="32" class="nonterminal"/>
   <text class="nonterminal" x="403" y="261">key_constraint</text>
   <rect x="545" y="211" width="24" height="32" rx="10"/>
   <rect x="543"
         y="209"
         width="24"
         height="32"
         class="terminal"
         rx="10"/>
   <text class="terminal" x="553" y="229">)</text>
   <rect x="609" y="211" width="60" height="32" rx="10"/>
   <rect x="607"
         y="209"
         width="60"
         height="32"
         class="terminal"
         rx="10"/>
   <text class="terminal" x="617" y="229">FROM</text>
   <rect x="206" y="325" width="126" height="32" rx="10"/>
   <rect x="204"
         y="323"
         width="126"
         height="32"
         class="terminal"
         rx="10"/>
   <text class="terminal" x="214" y="343">KAFKA BROKER</text>
   <rect x="352" y="325" width="46" height="32"/>
   <rect x="350" y="323" width="46" height="32" class="nonterminal"/>
   <text class="nonterminal" x="360" y="343">host</text>
   <rect x="418" y="325" width="62" height="32" rx="10"/>
   <rect x="416"
         y="323"
         width="62"
         height="32"
         class="terminal"
         rx="10"/>
   <text class="terminal" x="426" y="343">TOPIC</text>
   <rect x="520" y="357" width="50" height="32"/>
   <rect x="518" y="355" width="50" height="32" class="nonterminal"/>
   <text class="nonterminal" x="528" y="375">topic</text>
   <rect x="221" y="467" width="56" height="32" rx="10"/>
   <rect x="219"
         y="465"
         width="56"
         height="32"
         class="terminal"
         rx="10"/>
   <text class="terminal" x="229" y="485">WITH</text>
   <rect x="297" y="467" width="24" height="32" rx="10"/>
   <rect x="295"
         y="465"
         width="24"
         height="32"
         class="terminal"
         rx="10"/>
   <text class="terminal" x="305" y="485">(</text>
   <rect x="361" y="467" width="46" height="32"/>
   <rect x="359" y="465" width="46" height="32" class="nonterminal"/>
   <text class="nonterminal" x="369" y="485">field</text>
   <rect x="427" y="467" width="26" height="32" rx="10"/>
   <rect x="425"
         y="465"
         width="26"
         height="32"
         class="terminal"
         rx="10"/>
   <text class="terminal" x="435" y="485">=</text>
   <rect x="473" y="467" width="38" height="32"/>
   <rect x="471" y="465" width="38" height="32" class="nonterminal"/>
   <text class="nonterminal" x="481" y="485">val</text>
   <rect x="361" y="423" width="24" height="32" rx="10"/>
   <rect x="359"
         y="421"
         width="24"
         height="32"
         class="terminal"
         rx="10"/>
   <text class="terminal" x="369" y="441">,</text>
   <rect x="551" y="467" width="24" height="32" rx="10"/>
   <rect x="549"
         y="465"
         width="24"
         height="32"
         class="terminal"
         rx="10"/>
   <text class="terminal" x="559" y="485">)</text>
   <rect x="213" y="549" width="108" height="32" rx="10"/>
   <rect x="211"
         y="547"
         width="108"
         height="32"
         class="terminal"
         rx="10"/>
   <text class="terminal" x="221" y="567">KEY FORMAT</text>
   <rect x="341" y="549" width="96" height="32"/>
   <rect x="339" y="547" width="96" height="32" class="nonterminal"/>
   <text class="nonterminal" x="349" y="567">format_spec</text>
   <rect x="457" y="549" width="126" height="32" rx="10"/>
   <rect x="455"
         y="547"
         width="126"
         height="32"
         class="terminal"
         rx="10"/>
   <text class="terminal" x="465" y="567">VALUE FORMAT</text>
   <rect x="213" y="593" width="78" height="32" rx="10"/>
   <rect x="211"
         y="591"
         width="78"
         height="32"
         class="terminal"
         rx="10"/>
   <text class="terminal" x="221" y="611">FORMAT</text>
   <rect x="45" y="659" width="168" height="32" rx="10"/>
   <rect x="43"
         y="657"
         width="168"
         height="32"
         class="terminal"
         rx="10"/>
   <text class="terminal" x="53" y="677">PROTOBUF MESSAGE</text>
   <rect x="233" y="659" width="116" height="32"/>
   <rect x="231" y="657" width="116" height="32" class="nonterminal"/>
   <text class="nonterminal" x="241" y="677">message_name</text>
   <rect x="369" y="659" width="126" height="32" rx="10"/>
   <rect x="367"
         y="657"
         width="126"
         height="32"
         class="terminal"
         rx="10"/>
   <text class="terminal" x="377" y="677">USING SCHEMA</text>
   <rect x="535" y="659" width="48" height="32" rx="10"/>
   <rect x="533"
         y="657"
         width="48"
         height="32"
         class="terminal"
         rx="10"/>
   <text class="terminal" x="543" y="677">FILE</text>
   <rect x="603" y="659" width="128" height="32"/>
   <rect x="601" y="657" width="128" height="32" class="nonterminal"/>
   <text class="nonterminal" x="611" y="677">schema_file_path</text>
   <rect x="535" y="703" width="108" height="32"/>
   <rect x="533" y="701" width="108" height="32" class="nonterminal"/>
   <text class="nonterminal" x="543" y="721">inline_schema</text>
   <rect x="45" y="747" width="96" height="32"/>
   <rect x="43" y="745" width="96" height="32" class="nonterminal"/>
   <text class="nonterminal" x="53" y="765">format_spec</text>
   <rect x="433" y="833" width="112" height="32" rx="10"/>
   <rect x="431"
         y="831"
         width="112"
         height="32"
         class="terminal"
         rx="10"/>
   <text class="terminal" x="441" y="851">INCLUDE KEY</text>
   <rect x="585" y="865" width="38" height="32" rx="10"/>
   <rect x="583"
         y="863"
         width="38"
         height="32"
         class="terminal"
         rx="10"/>
   <text class="terminal" x="593" y="883">AS</text>
   <rect x="643" y="865" width="82" height="32"/>
   <rect x="641" y="863" width="82" height="32" class="nonterminal"/>
   <text class="nonterminal" x="651" y="883">key_name</text>
   <path class="line"
         d="m17 17 h2 m0 0 h10 m74 0 h10 m20 0 h10 m0 0 h130 m-160 0 h20 m140 0 h20 m-180 0 q10 0 10 10 m160 0 q0 -10 10 -10 m-170 10 v12 m160 0 v-12 m-160 12 q0 10 10 10 m140 0 q10 0 10 -10 m-150 10 h10 m120 0 h10 m20 -32 h10 m78 0 h10 m20 0 h10 m0 0 h128 m-158 0 h20 m138 0 h20 m-178 0 q10 0 10 10 m158 0 q0 -10 10 -10 m-168 10 v12 m158 0 v-12 m-158 12 q0 10 10 10 m138 0 q10 0 10 -10 m-148 10 h10 m118 0 h10 m22 -32 l2 0 m2 0 l2 0 m2 0 l2 0 m-247 98 l2 0 m2 0 l2 0 m2 0 l2 0 m2 0 h10 m80 0 h10 m2 0 l2 0 m2 0 l2 0 m2 0 l2 0 m-355 110 l2 0 m2 0 l2 0 m2 0 l2 0 m22 0 h10 m24 0 h10 m20 0 h10 m80 0 h10 m-120 0 l20 0 m-1 0 q-9 0 -9 -10 l0 -24 q0 -10 10 -10 m100 44 l20 0 m-20 0 q10 0 10 -10 l0 -24 q0 -10 -10 -10 m-100 0 h10 m24 0 h10 m0 0 h56 m40 44 h10 m0 0 h164 m-194 0 h20 m174 0 h20 m-214 0 q10 0 10 10 m194 0 q0 -10 10 -10 m-204 10 v12 m194 0 v-12 m-194 12 q0 10 10 10 m174 0 q10 0 10 -10 m-184 10 h10 m24 0 h10 m0 0 h10 m110 0 h10 m20 -32 h10 m24 0 h10 m-462 0 h20 m442 0 h20 m-482 0 q10 0 10 10 m462 0 q0 -10 10 -10 m-472 10 v46 m462 0 v-46 m-462 46 q0 10 10 10 m442 0 q10 0 10 -10 m-452 10 h10 m0 0 h432 m20 -66 h10 m60 0 h10 m2 0 l2 0 m2 0 l2 0 m2 0 l2 0 m-507 114 l2 0 m2 0 l2 0 m2 0 l2 0 m2 0 h10 m126 0 h10 m0 0 h10 m46 0 h10 m0 0 h10 m62 0 h10 m20 0 h10 m0 0 h60 m-90 0 h20 m70 0 h20 m-110 0 q10 0 10 10 m90 0 q0 -10 10 -10 m-100 10 v12 m90 0 v-12 m-90 12 q0 10 10 10 m70 0 q10 0 10 -10 m-80 10 h10 m50 0 h10 m22 -32 l2 0 m2 0 l2 0 m2 0 l2 0 m-433 142 l2 0 m2 0 l2 0 m2 0 l2 0 m22 0 h10 m56 0 h10 m0 0 h10 m24 0 h10 m20 0 h10 m46 0 h10 m0 0 h10 m26 0 h10 m0 0 h10 m38 0 h10 m-190 0 l20 0 m-1 0 q-9 0 -9 -10 l0 -24 q0 -10 10 -10 m170 44 l20 0 m-20 0 q10 0 10 -10 l0 -24 q0 -10 -10 -10 m-170 0 h10 m24 0 h10 m0 0 h126 m20 44 h10 m24 0 h10 m-394 0 h20 m374 0 h20 m-414 0 q10 0 10 10 m394 0 q0 -10 10 -10 m-404 10 v14 m394 0 v-14 m-394 14 q0 10 10 10 m374 0 q10 0 10 -10 m-384 10 h10 m0 0 h364 m22 -34 l2 0 m2 0 l2 0 m2 0 l2 0 m-446 82 l2 0 m2 0 l2 0 m2 0 l2 0 m22 0 h10 m108 0 h10 m0 0 h10 m96 0 h10 m0 0 h10 m126 0 h10 m-410 0 h20 m390 0 h20 m-430 0 q10 0 10 10 m410 0 q0 -10 10 -10 m-420 10 v24 m410 0 v-24 m-410 24 q0 10 10 10 m390 0 q10 0 10 -10 m-400 10 h10 m78 0 h10 m0 0 h292 m22 -44 l2 0 m2 0 l2 0 m2 0 l2 0 m-622 110 l2 0 m2 0 l2 0 m2 0 l2 0 m22 0 h10 m168 0 h10 m0 0 h10 m116 0 h10 m0 0 h10 m126 0 h10 m20 0 h10 m48 0 h10 m0 0 h10 m128 0 h10 m-236 0 h20 m216 0 h20 m-256 0 q10 0 10 10 m236 0 q0 -10 10 -10 m-246 10 v24 m236 0 v-24 m-236 24 q0 10 10 10 m216 0 q10 0 10 -10 m-226 10 h10 m108 0 h10 m0 0 h88 m-726 -44 h20 m726 0 h20 m-766 0 q10 0 10 10 m746 0 q0 -10 10 -10 m-756 10 v68 m746 0 v-68 m-746 68 q0 10 10 10 m726 0 q10 0 10 -10 m-736 10 h10 m96 0 h10 m0 0 h610 m22 -88 l2 0 m2 0 l2 0 m2 0 l2 0 m-402 142 l2 0 m2 0 l2 0 m2 0 l2 0 m22 0 h10 m0 0 h322 m-352 0 h20 m332 0 h20 m-372 0 q10 0 10 10 m352 0 q0 -10 10 -10 m-362 10 v12 m352 0 v-12 m-352 12 q0 10 10 10 m332 0 q10 0 10 -10 m-342 10 h10 m112 0 h10 m20 0 h10 m0 0 h150 m-180 0 h20 m160 0 h20 m-200 0 q10 0 10 10 m180 0 q0 -10 10 -10 m-190 10 v12 m180 0 v-12 m-180 12 q0 10 10 10 m160 0 q10 0 10 -10 m-170 10 h10 m38 0 h10 m0 0 h10 m82 0 h10 m43 -64 h-3"/>
   <polygon points="783 815 791 811 791 819"/>
   <polygon points="783 815 775 811 775 819"/>
</svg>
