<svg xmlns="http://www.w3.org/2000/svg" width="655" height="317">
   <polygon points="9 17 1 13 1 21"/>
   <polygon points="17 17 9 13 9 21"/>
   <rect x="31" y="3" width="76" height="32" rx="10"/>
   <rect x="29"
         y="1"
         width="76"
         height="32"
         class="terminal"
         rx="10"/>
   <text class="terminal" x="39" y="21">CREATE</text>
   <rect x="45" y="113" width="62" height="32" rx="10"/>
   <rect x="43"
         y="111"
         width="62"
         height="32"
         class="terminal"
         rx="10"/>
   <text class="terminal" x="53" y="131">INDEX</text>
   <rect x="127" y="113" width="98" height="32"/>
   <rect x="125" y="111" width="98" height="32" class="nonterminal"/>
   <text class="nonterminal" x="135" y="131">index_name</text>
   <rect x="245" y="113" width="40" height="32" rx="10"/>
   <rect x="243"
         y="111"
         width="40"
         height="32"
         class="terminal"
         rx="10"/>
   <text class="terminal" x="253" y="131">ON</text>
   <rect x="305" y="113" width="82" height="32"/>
   <rect x="303" y="111" width="82" height="32" class="nonterminal"/>
   <text class="nonterminal" x="313" y="131">obj_name</text>
   <rect x="407" y="113" width="26" height="32" rx="10"/>
   <rect x="405"
         y="111"
         width="26"
         height="32"
         class="terminal"
         rx="10"/>
   <text class="terminal" x="415" y="131">(</text>
   <rect x="473" y="113" width="74" height="32"/>
   <rect x="471" y="111" width="74" height="32" class="nonterminal"/>
   <text class="nonterminal" x="481" y="131">col_expr</text>
   <rect x="473" y="69" width="24" height="32" rx="10"/>
   <rect x="471"
         y="67"
         width="24"
         height="32"
         class="terminal"
         rx="10"/>
   <text class="terminal" x="481" y="87">,</text>
   <rect x="587" y="113" width="26" height="32" rx="10"/>
   <rect x="585"
         y="111"
         width="26"
         height="32"
         class="terminal"
         rx="10"/>
   <text class="terminal" x="595" y="131">)</text>
   <rect x="45" y="157" width="158" height="32" rx="10"/>
   <rect x="43"
         y="155"
         width="158"
         height="32"
         class="terminal"
         rx="10"/>
   <text class="terminal" x="53" y="175">DEFAULT INDEX ON</text>
   <rect x="223" y="157" width="82" height="32"/>
   <rect x="221" y="155" width="82" height="32" class="nonterminal"/>
   <text class="nonterminal" x="231" y="175">obj_name</text>
   <rect x="243" y="267" width="58" height="32" rx="10"/>
   <rect x="241"
         y="265"
         width="58"
         height="32"
         class="terminal"
         rx="10"/>
   <text class="terminal" x="251" y="285">WITH</text>
   <rect x="321" y="267" width="26" height="32" rx="10"/>
   <rect x="319"
         y="265"
         width="26"
         height="32"
         class="terminal"
         rx="10"/>
   <text class="terminal" x="329" y="285">(</text>
   <rect x="387" y="267" width="48" height="32"/>
   <rect x="385" y="265" width="48" height="32" class="nonterminal"/>
   <text class="nonterminal" x="395" y="285">field</text>
   <rect x="455" y="267" width="28" height="32" rx="10"/>
   <rect x="453"
         y="265"
         width="28"
         height="32"
         class="terminal"
         rx="10"/>
   <text class="terminal" x="463" y="285">=</text>
   <rect x="503" y="267" width="38" height="32"/>
   <rect x="501" y="265" width="38" height="32" class="nonterminal"/>
   <text class="nonterminal" x="511" y="285">val</text>
   <rect x="387" y="223" width="24" height="32" rx="10"/>
   <rect x="385"
         y="221"
         width="24"
         height="32"
         class="terminal"
         rx="10"/>
   <text class="terminal" x="395" y="241">,</text>
   <rect x="581" y="267" width="26" height="32" rx="10"/>
   <rect x="579"
         y="265"
         width="26"
         height="32"
         class="terminal"
         rx="10"/>
   <text class="terminal" x="589" y="285">)</text>
   <path class="line"
         d="m17 17 h2 m0 0 h10 m76 0 h10 m2 0 l2 0 m2 0 l2 0 m2 0 l2 0 m-126 110 l2 0 m2 0 l2 0 m2 0 l2 0 m22 0 h10 m62 0 h10 m0 0 h10 m98 0 h10 m0 0 h10 m40 0 h10 m0 0 h10 m82 0 h10 m0 0 h10 m26 0 h10 m20 0 h10 m74 0 h10 m-114 0 l20 0 m-1 0 q-9 0 -9 -10 l0 -24 q0 -10 10 -10 m94 44 l20 0 m-20 0 q10 0 10 -10 l0 -24 q0 -10 -10 -10 m-94 0 h10 m24 0 h10 m0 0 h50 m20 44 h10 m26 0 h10 m-608 0 h20 m588 0 h20 m-628 0 q10 0 10 10 m608 0 q0 -10 10 -10 m-618 10 v24 m608 0 v-24 m-608 24 q0 10 10 10 m588 0 q10 0 10 -10 m-598 10 h10 m158 0 h10 m0 0 h10 m82 0 h10 m0 0 h308 m22 -44 l2 0 m2 0 l2 0 m2 0 l2 0 m-454 154 l2 0 m2 0 l2 0 m2 0 l2 0 m22 0 h10 m58 0 h10 m0 0 h10 m26 0 h10 m20 0 h10 m48 0 h10 m0 0 h10 m28 0 h10 m0 0 h10 m38 0 h10 m-194 0 l20 0 m-1 0 q-9 0 -9 -10 l0 -24 q0 -10 10 -10 m174 44 l20 0 m-20 0 q10 0 10 -10 l0 -24 q0 -10 -10 -10 m-174 0 h10 m24 0 h10 m0 0 h130 m20 44 h10 m26 0 h10 m-404 0 h20 m384 0 h20 m-424 0 q10 0 10 10 m404 0 q0 -10 10 -10 m-414 10 v14 m404 0 v-14 m-404 14 q0 10 10 10 m384 0 q10 0 10 -10 m-394 10 h10 m0 0 h374 m23 -34 h-3"/>
   <polygon points="645 281 653 277 653 285"/>
   <polygon points="645 281 637 277 637 285"/>
</svg>
