<svg xmlns="http://www.w3.org/2000/svg" width="601" height="981">
   <polygon points="9 17 1 13 1 21"/>
   <polygon points="17 17 9 13 9 21"/>
   <rect x="31" y="3" width="140" height="32" rx="10"/>
   <rect x="29"
         y="1"
         width="140"
         height="32"
         class="terminal"
         rx="10"/>
   <text class="terminal" x="39" y="21">CREATE SOURCE</text>
   <rect x="211" y="35" width="120" height="32" rx="10"/>
   <rect x="209"
         y="33"
         width="120"
         height="32"
         class="terminal"
         rx="10"/>
   <text class="terminal" x="219" y="53">IF NOT EXISTS</text>
   <rect x="371" y="3" width="82" height="32"/>
   <rect x="369" y="1" width="82" height="32" class="nonterminal"/>
   <text class="nonterminal" x="379" y="21">src_name</text>
   <rect x="45" y="145" width="26" height="32" rx="10"/>
   <rect x="43"
         y="143"
         width="26"
         height="32"
         class="terminal"
         rx="10"/>
   <text class="terminal" x="53" y="163">(</text>
   <rect x="111" y="145" width="82" height="32"/>
   <rect x="109" y="143" width="82" height="32" class="nonterminal"/>
   <text class="nonterminal" x="119" y="163">col_name</text>
   <rect x="111" y="101" width="24" height="32" rx="10"/>
   <rect x="109"
         y="99"
         width="24"
         height="32"
         class="terminal"
         rx="10"/>
   <text class="terminal" x="119" y="119">,</text>
   <rect x="253" y="177" width="24" height="32" rx="10"/>
   <rect x="251"
         y="175"
         width="24"
         height="32"
         class="terminal"
         rx="10"/>
   <text class="terminal" x="261" y="195">,</text>
   <rect x="297" y="177" width="116" height="32"/>
   <rect x="295" y="175" width="116" height="32" class="nonterminal"/>
   <text class="nonterminal" x="305" y="195">key_constraint</text>
   <rect x="453" y="145" width="26" height="32" rx="10"/>
   <rect x="451"
         y="143"
         width="26"
         height="32"
         class="terminal"
         rx="10"/>
   <text class="terminal" x="461" y="163">)</text>
   <rect x="519" y="145" width="60" height="32" rx="10"/>
   <rect x="517"
         y="143"
         width="60"
         height="32"
         class="terminal"
         rx="10"/>
   <text class="terminal" x="527" y="163">FROM</text>
   <rect x="44" y="259" width="68" height="32" rx="10"/>
   <rect x="42"
         y="257"
         width="68"
         height="32"
         class="terminal"
         rx="10"/>
   <text class="terminal" x="52" y="277">KAFKA</text>
   <rect x="132" y="259" width="116" height="32" rx="10"/>
   <rect x="130"
         y="257"
         width="116"
         height="32"
         class="terminal"
         rx="10"/>
   <text class="terminal" x="140" y="277">CONNECTION</text>
   <rect x="268" y="259" width="136" height="32"/>
   <rect x="266" y="257" width="136" height="32" class="nonterminal"/>
   <text class="nonterminal" x="276" y="277">connection_name</text>
   <rect x="424" y="259" width="64" height="32" rx="10"/>
   <rect x="422"
         y="257"
         width="64"
         height="32"
         class="terminal"
         rx="10"/>
   <text class="terminal" x="432" y="277">TOPIC</text>
   <rect x="508" y="259" width="52" height="32"/>
   <rect x="506" y="257" width="52" height="32" class="nonterminal"/>
   <text class="nonterminal" x="516" y="277">topic</text>
   <rect x="251" y="341" width="102" height="32"/>
   <rect x="249" y="339" width="102" height="32" class="nonterminal"/>
   <text class="nonterminal" x="259" y="359">with_options</text>
   <rect x="47" y="407" width="114" height="32" rx="10"/>
   <rect x="45"
         y="405"
         width="114"
         height="32"
         class="terminal"
         rx="10"/>
   <text class="terminal" x="55" y="425">KEY FORMAT</text>
   <rect x="181" y="407" width="102" height="32"/>
   <rect x="179" y="405" width="102" height="32" class="nonterminal"/>
   <text class="nonterminal" x="189" y="425">format_spec</text>
   <rect x="303" y="407" width="132" height="32" rx="10"/>
   <rect x="301"
         y="405"
         width="132"
         height="32"
         class="terminal"
         rx="10"/>
   <text class="terminal" x="311" y="425">VALUE FORMAT</text>
   <rect x="47" y="451" width="80" height="32" rx="10"/>
   <rect x="45"
         y="449"
         width="80"
         height="32"
         class="terminal"
         rx="10"/>
   <text class="terminal" x="55" y="469">FORMAT</text>
   <rect x="475" y="407" width="102" height="32"/>
   <rect x="473" y="405" width="102" height="32" class="nonterminal"/>
   <text class="nonterminal" x="483" y="425">format_spec</text>
   <rect x="50" y="533" width="82" height="32" rx="10"/>
   <rect x="48"
         y="531"
         width="82"
         height="32"
         class="terminal"
         rx="10"/>
   <text class="terminal" x="58" y="551">INCLUDE</text>
   <rect x="212" y="533" width="48" height="32" rx="10"/>
   <rect x="210"
         y="531"
         width="48"
         height="32"
         class="terminal"
         rx="10"/>
   <text class="terminal" x="220" y="551">KEY</text>
   <rect x="212" y="577" width="96" height="32" rx="10"/>
   <rect x="210"
         y="575"
         width="96"
         height="32"
         class="terminal"
         rx="10"/>
   <text class="terminal" x="220" y="595">PARTITION</text>
   <rect x="212" y="621" width="74" height="32" rx="10"/>
   <rect x="210"
         y="619"
         width="74"
         height="32"
         class="terminal"
         rx="10"/>
   <text class="terminal" x="220" y="639">OFFSET</text>
   <rect x="212" y="665" width="106" height="32" rx="10"/>
   <rect x="210"
         y="663"
         width="106"
         height="32"
         class="terminal"
         rx="10"/>
   <text class="terminal" x="220" y="683">TIMESTAMP</text>
   <rect x="212" y="709" width="86" height="32" rx="10"/>
   <rect x="210"
         y="707"
         width="86"
         height="32"
         class="terminal"
         rx="10"/>
   <text class="terminal" x="220" y="727">HEADERS</text>
   <rect x="378" y="565" width="40" height="32" rx="10"/>
   <rect x="376"
         y="563"
         width="40"
         height="32"
         class="terminal"
         rx="10"/>
   <text class="terminal" x="386" y="583">AS</text>
   <rect x="438" y="565" width="56" height="32"/>
   <rect x="436" y="563" width="56" height="32" class="nonterminal"/>
   <text class="nonterminal" x="446" y="583">name</text>
   <rect x="171" y="827" width="94" height="32" rx="10"/>
   <rect x="169"
         y="825"
         width="94"
         height="32"
         class="terminal"
         rx="10"/>
   <text class="terminal" x="179" y="845">ENVELOPE</text>
   <rect x="305" y="827" width="60" height="32" rx="10"/>
   <rect x="303"
         y="825"
         width="60"
         height="32"
         class="terminal"
         rx="10"/>
   <text class="terminal" x="313" y="845">NONE</text>
   <rect x="305" y="871" width="92" height="32" rx="10"/>
   <rect x="303"
         y="869"
         width="92"
         height="32"
         class="terminal"
         rx="10"/>
   <text class="terminal" x="313" y="889">DEBEZIUM</text>
   <rect x="437" y="903" width="76" height="32" rx="10"/>
   <rect x="435"
         y="901"
         width="76"
         height="32"
         class="terminal"
         rx="10"/>
   <text class="terminal" x="445" y="921">UPSERT</text>
   <rect x="305" y="947" width="76" height="32" rx="10"/>
   <rect x="303"
         y="945"
         width="76"
         height="32"
         class="terminal"
         rx="10"/>
   <text class="terminal" x="313" y="965">UPSERT</text>
   <path class="line"
         d="m17 17 h2 m0 0 h10 m140 0 h10 m20 0 h10 m0 0 h130 m-160 0 h20 m140 0 h20 m-180 0 q10 0 10 10 m160 0 q0 -10 10 -10 m-170 10 v12 m160 0 v-12 m-160 12 q0 10 10 10 m140 0 q10 0 10 -10 m-150 10 h10 m120 0 h10 m20 -32 h10 m82 0 h10 m2 0 l2 0 m2 0 l2 0 m2 0 l2 0 m-472 142 l2 0 m2 0 l2 0 m2 0 l2 0 m22 0 h10 m26 0 h10 m20 0 h10 m82 0 h10 m-122 0 l20 0 m-1 0 q-9 0 -9 -10 l0 -24 q0 -10 10 -10 m102 44 l20 0 m-20 0 q10 0 10 -10 l0 -24 q0 -10 -10 -10 m-102 0 h10 m24 0 h10 m0 0 h58 m40 44 h10 m0 0 h170 m-200 0 h20 m180 0 h20 m-220 0 q10 0 10 10 m200 0 q0 -10 10 -10 m-210 10 v12 m200 0 v-12 m-200 12 q0 10 10 10 m180 0 q10 0 10 -10 m-190 10 h10 m24 0 h10 m0 0 h10 m116 0 h10 m20 -32 h10 m26 0 h10 m-474 0 h20 m454 0 h20 m-494 0 q10 0 10 10 m474 0 q0 -10 10 -10 m-484 10 v46 m474 0 v-46 m-474 46 q0 10 10 10 m454 0 q10 0 10 -10 m-464 10 h10 m0 0 h444 m20 -66 h10 m60 0 h10 m2 0 l2 0 m2 0 l2 0 m2 0 l2 0 m-579 114 l2 0 m2 0 l2 0 m2 0 l2 0 m2 0 h10 m68 0 h10 m0 0 h10 m116 0 h10 m0 0 h10 m136 0 h10 m0 0 h10 m64 0 h10 m0 0 h10 m52 0 h10 m2 0 l2 0 m2 0 l2 0 m2 0 l2 0 m-373 50 l2 0 m2 0 l2 0 m2 0 l2 0 m22 0 h10 m0 0 h112 m-142 0 h20 m122 0 h20 m-162 0 q10 0 10 10 m142 0 q0 -10 10 -10 m-152 10 v12 m142 0 v-12 m-142 12 q0 10 10 10 m122 0 q10 0 10 -10 m-132 10 h10 m102 0 h10 m22 -32 l2 0 m2 0 l2 0 m2 0 l2 0 m-390 98 l2 0 m2 0 l2 0 m2 0 l2 0 m22 0 h10 m114 0 h10 m0 0 h10 m102 0 h10 m0 0 h10 m132 0 h10 m-428 0 h20 m408 0 h20 m-448 0 q10 0 10 10 m428 0 q0 -10 10 -10 m-438 10 v24 m428 0 v-24 m-428 24 q0 10 10 10 m408 0 q10 0 10 -10 m-418 10 h10 m80 0 h10 m0 0 h308 m20 -44 h10 m102 0 h10 m2 0 l2 0 m2 0 l2 0 m2 0 l2 0 m-591 126 l2 0 m2 0 l2 0 m2 0 l2 0 m22 0 h10 m82 0 h10 m60 0 h10 m48 0 h10 m0 0 h58 m-146 0 h20 m126 0 h20 m-166 0 q10 0 10 10 m146 0 q0 -10 10 -10 m-156 10 v24 m146 0 v-24 m-146 24 q0 10 10 10 m126 0 q10 0 10 -10 m-136 10 h10 m96 0 h10 m0 0 h10 m-136 -10 v20 m146 0 v-20 m-146 20 v24 m146 0 v-24 m-146 24 q0 10 10 10 m126 0 q10 0 10 -10 m-136 10 h10 m74 0 h10 m0 0 h32 m-136 -10 v20 m146 0 v-20 m-146 20 v24 m146 0 v-24 m-146 24 q0 10 10 10 m126 0 q10 0 10 -10 m-136 10 h10 m106 0 h10 m-136 -10 v20 m146 0 v-20 m-146 20 v24 m146 0 v-24 m-146 24 q0 10 10 10 m126 0 q10 0 10 -10 m-136 10 h10 m86 0 h10 m0 0 h20 m40 -176 h10 m0 0 h126 m-156 0 h20 m136 0 h20 m-176 0 q10 0 10 10 m156 0 q0 -10 10 -10 m-166 10 v12 m156 0 v-12 m-156 12 q0 10 10 10 m136 0 q10 0 10 -10 m-146 10 h10 m40 0 h10 m0 0 h10 m56 0 h10 m-342 -32 l20 0 m-1 0 q-9 0 -9 -10 l0 -12 q0 -10 10 -10 m342 32 l20 0 m-20 0 q10 0 10 -10 l0 -12 q0 -10 -10 -10 m-342 0 h10 m0 0 h332 m-382 32 h20 m382 0 h20 m-422 0 q10 0 10 10 m402 0 q0 -10 10 -10 m-412 10 v190 m402 0 v-190 m-402 190 q0 10 10 10 m382 0 q10 0 10 -10 m-392 10 h10 m0 0 h372 m-524 -210 h20 m524 0 h20 m-564 0 q10 0 10 10 m544 0 q0 -10 10 -10 m-554 10 v206 m544 0 v-206 m-544 206 q0 10 10 10 m524 0 q10 0 10 -10 m-534 10 h10 m0 0 h514 m22 -226 l2 0 m2 0 l2 0 m2 0 l2 0 m-467 262 l2 0 m2 0 l2 0 m2 0 l2 0 m22 0 h10 m0 0 h392 m-422 0 h20 m402 0 h20 m-442 0 q10 0 10 10 m422 0 q0 -10 10 -10 m-432 10 v12 m422 0 v-12 m-422 12 q0 10 10 10 m402 0 q10 0 10 -10 m-412 10 h10 m94 0 h10 m20 0 h10 m60 0 h10 m0 0 h168 m-268 0 h20 m248 0 h20 m-288 0 q10 0 10 10 m268 0 q0 -10 10 -10 m-278 10 v24 m268 0 v-24 m-268 24 q0 10 10 10 m248 0 q10 0 10 -10 m-258 10 h10 m92 0 h10 m20 0 h10 m0 0 h86 m-116 0 h20 m96 0 h20 m-136 0 q10 0 10 10 m116 0 q0 -10 10 -10 m-126 10 v12 m116 0 v-12 m-116 12 q0 10 10 10 m96 0 q10 0 10 -10 m-106 10 h10 m76 0 h10 m-238 -42 v20 m268 0 v-20 m-268 20 v56 m268 0 v-56 m-268 56 q0 10 10 10 m248 0 q10 0 10 -10 m-258 10 h10 m76 0 h10 m0 0 h152 m43 -152 h-3"/>
   <polygon points="591 809 599 805 599 813"/>
   <polygon points="591 809 583 805 583 813"/>
</svg>
