<svg xmlns="http://www.w3.org/2000/svg" width="591" height="365">
   <polygon points="9 17 1 13 1 21"/>
   <polygon points="17 17 9 13 9 21"/>
   <rect x="31" y="3" width="74" height="32" rx="10"/>
   <rect x="29"
         y="1"
         width="74"
         height="32"
         class="terminal"
         rx="10"/>
   <text class="terminal" x="39" y="21">CREATE</text>
   <rect x="65" y="101" width="58" height="32" rx="10"/>
   <rect x="63"
         y="99"
         width="58"
         height="32"
         class="terminal"
         rx="10"/>
   <text class="terminal" x="73" y="119">TEMP</text>
   <rect x="65" y="145" width="106" height="32" rx="10"/>
   <rect x="63"
         y="143"
         width="106"
         height="32"
         class="terminal"
         rx="10"/>
   <text class="terminal" x="73" y="163">TEMPORARY</text>
   <rect x="211" y="69" width="160" height="32" rx="10"/>
   <rect x="209"
         y="67"
         width="160"
         height="32"
         class="terminal"
         rx="10"/>
   <text class="terminal" x="219" y="87">MATERIALIZED VIEW</text>
   <rect x="411" y="101" width="118" height="32" rx="10"/>
   <rect x="409"
         y="99"
         width="118"
         height="32"
         class="terminal"
         rx="10"/>
   <text class="terminal" x="419" y="119">IF NOT EXISTS</text>
   <rect x="45" y="189" width="108" height="32" rx="10"/>
   <rect x="43"
         y="187"
         width="108"
         height="32"
         class="terminal"
         rx="10"/>
   <text class="terminal" x="53" y="207">OR REPLACE</text>
   <rect x="193" y="221" width="58" height="32" rx="10"/>
   <rect x="191"
         y="219"
         width="58"
         height="32"
         class="terminal"
         rx="10"/>
   <text class="terminal" x="201" y="239">TEMP</text>
   <rect x="193" y="265" width="106" height="32" rx="10"/>
   <rect x="191"
         y="263"
         width="106"
         height="32"
         class="terminal"
         rx="10"/>
   <text class="terminal" x="201" y="283">TEMPORARY</text>
   <rect x="339" y="189" width="160" height="32" rx="10"/>
   <rect x="337"
         y="187"
         width="160"
         height="32"
         class="terminal"
         rx="10"/>
   <text class="terminal" x="347" y="207">MATERIALIZED VIEW</text>
   <rect x="307" y="331" width="88" height="32"/>
   <rect x="305" y="329" width="88" height="32" class="nonterminal"/>
   <text class="nonterminal" x="315" y="349">view_name</text>
   <rect x="415" y="331" width="38" height="32" rx="10"/>
   <rect x="413"
         y="329"
         width="38"
         height="32"
         class="terminal"
         rx="10"/>
   <text class="terminal" x="423" y="349">AS</text>
   <rect x="473" y="331" width="90" height="32"/>
   <rect x="471" y="329" width="90" height="32" class="nonterminal"/>
   <text class="nonterminal" x="481" y="349">select_stmt</text>
   <path class="line"
         d="m17 17 h2 m0 0 h10 m74 0 h10 m2 0 l2 0 m2 0 l2 0 m2 0 l2 0 m-124 66 l2 0 m2 0 l2 0 m2 0 l2 0 m42 0 h10 m0 0 h116 m-146 0 h20 m126 0 h20 m-166 0 q10 0 10 10 m146 0 q0 -10 10 -10 m-156 10 v12 m146 0 v-12 m-146 12 q0 10 10 10 m126 0 q10 0 10 -10 m-136 10 h10 m58 0 h10 m0 0 h48 m-136 -10 v20 m146 0 v-20 m-146 20 v24 m146 0 v-24 m-146 24 q0 10 10 10 m126 0 q10 0 10 -10 m-136 10 h10 m106 0 h10 m20 -76 h10 m160 0 h10 m20 0 h10 m0 0 h128 m-158 0 h20 m138 0 h20 m-178 0 q10 0 10 10 m158 0 q0 -10 10 -10 m-168 10 v12 m158 0 v-12 m-158 12 q0 10 10 10 m138 0 q10 0 10 -10 m-148 10 h10 m118 0 h10 m-524 -32 h20 m524 0 h20 m-564 0 q10 0 10 10 m544 0 q0 -10 10 -10 m-554 10 v100 m544 0 v-100 m-544 100 q0 10 10 10 m524 0 q10 0 10 -10 m-534 10 h10 m108 0 h10 m20 0 h10 m0 0 h116 m-146 0 h20 m126 0 h20 m-166 0 q10 0 10 10 m146 0 q0 -10 10 -10 m-156 10 v12 m146 0 v-12 m-146 12 q0 10 10 10 m126 0 q10 0 10 -10 m-136 10 h10 m58 0 h10 m0 0 h48 m-136 -10 v20 m146 0 v-20 m-146 20 v24 m146 0 v-24 m-146 24 q0 10 10 10 m126 0 q10 0 10 -10 m-136 10 h10 m106 0 h10 m20 -76 h10 m160 0 h10 m0 0 h50 m22 -120 l2 0 m2 0 l2 0 m2 0 l2 0 m-306 262 l2 0 m2 0 l2 0 m2 0 l2 0 m2 0 h10 m88 0 h10 m0 0 h10 m38 0 h10 m0 0 h10 m90 0 h10 m3 0 h-3"/>
   <polygon points="581 345 589 341 589 349"/>
   <polygon points="581 345 573 341 573 349"/>
</svg>
