<svg xmlns="http://www.w3.org/2000/svg" width="581" height="637">
   <polygon points="11 17 3 13 3 21"/>
   <polygon points="19 17 11 13 11 21"/>
   <rect x="33" y="3" width="136" height="32" rx="10"/>
   <rect x="31"
         y="1"
         width="136"
         height="32"
         class="terminal"
         rx="10"/>
   <text class="terminal" x="41" y="21">CREATE SOURCE</text>
   <rect x="209" y="35" width="118" height="32" rx="10"/>
   <rect x="207"
         y="33"
         width="118"
         height="32"
         class="terminal"
         rx="10"/>
   <text class="terminal" x="217" y="53">IF NOT EXISTS</text>
   <rect x="367" y="3" width="80" height="32"/>
   <rect x="365" y="1" width="80" height="32" class="nonterminal"/>
   <text class="nonterminal" x="375" y="21">src_name</text>
   <rect x="56" y="145" width="24" height="32" rx="10"/>
   <rect x="54"
         y="143"
         width="24"
         height="32"
         class="terminal"
         rx="10"/>
   <text class="terminal" x="64" y="163">(</text>
   <rect x="120" y="145" width="80" height="32"/>
   <rect x="118" y="143" width="80" height="32" class="nonterminal"/>
   <text class="nonterminal" x="128" y="163">col_name</text>
   <rect x="120" y="101" width="24" height="32" rx="10"/>
   <rect x="118"
         y="99"
         width="24"
         height="32"
         class="terminal"
         rx="10"/>
   <text class="terminal" x="128" y="119">,</text>
   <rect x="240" y="145" width="24" height="32" rx="10"/>
   <rect x="238"
         y="143"
         width="24"
         height="32"
         class="terminal"
         rx="10"/>
   <text class="terminal" x="248" y="163">)</text>
   <rect x="304" y="145" width="60" height="32" rx="10"/>
   <rect x="302"
         y="143"
         width="60"
         height="32"
         class="terminal"
         rx="10"/>
   <text class="terminal" x="312" y="163">FROM</text>
   <rect x="384" y="145" width="106" height="32" rx="10"/>
   <rect x="382"
         y="143"
         width="106"
         height="32"
         class="terminal"
         rx="10"/>
   <text class="terminal" x="392" y="163">KINESIS ARN</text>
   <rect x="510" y="145" width="40" height="32"/>
   <rect x="508" y="143" width="40" height="32" class="nonterminal"/>
   <text class="nonterminal" x="518" y="163">arn</text>
   <rect x="67" y="271" width="56" height="32" rx="10"/>
   <rect x="65"
         y="269"
         width="56"
         height="32"
         class="terminal"
         rx="10"/>
   <text class="terminal" x="75" y="289">WITH</text>
   <rect x="143" y="271" width="24" height="32" rx="10"/>
   <rect x="141"
         y="269"
         width="24"
         height="32"
         class="terminal"
         rx="10"/>
   <text class="terminal" x="151" y="289">(</text>
   <rect x="207" y="271" width="46" height="32"/>
   <rect x="205" y="269" width="46" height="32" class="nonterminal"/>
   <text class="nonterminal" x="215" y="289">field</text>
   <rect x="273" y="271" width="26" height="32" rx="10"/>
   <rect x="271"
         y="269"
         width="26"
         height="32"
         class="terminal"
         rx="10"/>
   <text class="terminal" x="281" y="289">=</text>
   <rect x="319" y="271" width="38" height="32"/>
   <rect x="317" y="269" width="38" height="32" class="nonterminal"/>
   <text class="nonterminal" x="327" y="289">val</text>
   <rect x="207" y="227" width="24" height="32" rx="10"/>
   <rect x="205"
         y="225"
         width="24"
         height="32"
         class="terminal"
         rx="10"/>
   <text class="terminal" x="215" y="245">,</text>
   <rect x="397" y="271" width="24" height="32" rx="10"/>
   <rect x="395"
         y="269"
         width="24"
         height="32"
         class="terminal"
         rx="10"/>
   <text class="terminal" x="405" y="289">)</text>
   <rect x="461" y="271" width="78" height="32" rx="10"/>
   <rect x="459"
         y="269"
         width="78"
         height="32"
         class="terminal"
         rx="10"/>
   <text class="terminal" x="469" y="289">FORMAT</text>
   <rect x="261" y="353" width="64" height="32" rx="10"/>
   <rect x="259"
         y="351"
         width="64"
         height="32"
         class="terminal"
         rx="10"/>
   <text class="terminal" x="269" y="371">BYTES</text>
   <rect x="261" y="397" width="54" height="32" rx="10"/>
   <rect x="259"
         y="395"
         width="54"
         height="32"
         class="terminal"
         rx="10"/>
   <text class="terminal" x="269" y="415">TEXT</text>
   <rect x="45" y="483" width="92" height="32" rx="10"/>
   <rect x="43"
         y="481"
         width="92"
         height="32"
         class="terminal"
         rx="10"/>
   <text class="terminal" x="53" y="501">ENVELOPE</text>
   <rect x="177" y="483" width="60" height="32" rx="10"/>
   <rect x="175"
         y="481"
         width="60"
         height="32"
         class="terminal"
         rx="10"/>
   <text class="terminal" x="185" y="501">NONE</text>
   <rect x="177" y="527" width="74" height="32" rx="10"/>
   <rect x="175"
         y="525"
         width="74"
         height="32"
         class="terminal"
         rx="10"/>
   <text class="terminal" x="185" y="545">UPSERT</text>
   <rect x="291" y="559" width="78" height="32" rx="10"/>
   <rect x="289"
         y="557"
         width="78"
         height="32"
         class="terminal"
         rx="10"/>
   <text class="terminal" x="299" y="577">FORMAT</text>
   <rect x="409" y="559" width="64" height="32" rx="10"/>
   <rect x="407"
         y="557"
         width="64"
         height="32"
         class="terminal"
         rx="10"/>
   <text class="terminal" x="417" y="577">BYTES</text>
   <rect x="409" y="603" width="54" height="32" rx="10"/>
   <rect x="407"
         y="601"
         width="54"
         height="32"
         class="terminal"
         rx="10"/>
   <text class="terminal" x="417" y="621">TEXT</text>
   <path class="line"
         d="m19 17 h2 m0 0 h10 m136 0 h10 m20 0 h10 m0 0 h128 m-158 0 h20 m138 0 h20 m-178 0 q10 0 10 10 m158 0 q0 -10 10 -10 m-168 10 v12 m158 0 v-12 m-158 12 q0 10 10 10 m138 0 q10 0 10 -10 m-148 10 h10 m118 0 h10 m20 -32 h10 m80 0 h10 m2 0 l2 0 m2 0 l2 0 m2 0 l2 0 m-455 142 l2 0 m2 0 l2 0 m2 0 l2 0 m22 0 h10 m24 0 h10 m20 0 h10 m80 0 h10 m-120 0 l20 0 m-1 0 q-9 0 -9 -10 l0 -24 q0 -10 10 -10 m100 44 l20 0 m-20 0 q10 0 10 -10 l0 -24 q0 -10 -10 -10 m-100 0 h10 m24 0 h10 m0 0 h56 m20 44 h10 m24 0 h10 m-248 0 h20 m228 0 h20 m-268 0 q10 0 10 10 m248 0 q0 -10 10 -10 m-258 10 v14 m248 0 v-14 m-248 14 q0 10 10 10 m228 0 q10 0 10 -10 m-238 10 h10 m0 0 h218 m20 -34 h10 m60 0 h10 m0 0 h10 m106 0 h10 m0 0 h10 m40 0 h10 m2 0 l2 0 m2 0 l2 0 m2 0 l2 0 m-547 126 l2 0 m2 0 l2 0 m2 0 l2 0 m22 0 h10 m56 0 h10 m0 0 h10 m24 0 h10 m20 0 h10 m46 0 h10 m0 0 h10 m26 0 h10 m0 0 h10 m38 0 h10 m-190 0 l20 0 m-1 0 q-9 0 -9 -10 l0 -24 q0 -10 10 -10 m170 44 l20 0 m-20 0 q10 0 10 -10 l0 -24 q0 -10 -10 -10 m-170 0 h10 m24 0 h10 m0 0 h126 m20 44 h10 m24 0 h10 m-394 0 h20 m374 0 h20 m-414 0 q10 0 10 10 m394 0 q0 -10 10 -10 m-404 10 v14 m394 0 v-14 m-394 14 q0 10 10 10 m374 0 q10 0 10 -10 m-384 10 h10 m0 0 h364 m20 -34 h10 m78 0 h10 m2 0 l2 0 m2 0 l2 0 m2 0 l2 0 m-342 82 l2 0 m2 0 l2 0 m2 0 l2 0 m22 0 h10 m64 0 h10 m-104 0 h20 m84 0 h20 m-124 0 q10 0 10 10 m104 0 q0 -10 10 -10 m-114 10 v24 m104 0 v-24 m-104 24 q0 10 10 10 m84 0 q10 0 10 -10 m-94 10 h10 m54 0 h10 m0 0 h10 m22 -44 l2 0 m2 0 l2 0 m2 0 l2 0 m-364 98 l2 0 m2 0 l2 0 m2 0 l2 0 m22 0 h10 m0 0 h498 m-528 0 h20 m508 0 h20 m-548 0 q10 0 10 10 m528 0 q0 -10 10 -10 m-538 10 v12 m528 0 v-12 m-528 12 q0 10 10 10 m508 0 q10 0 10 -10 m-518 10 h10 m92 0 h10 m20 0 h10 m60 0 h10 m0 0 h276 m-376 0 h20 m356 0 h20 m-396 0 q10 0 10 10 m376 0 q0 -10 10 -10 m-386 10 v24 m376 0 v-24 m-376 24 q0 10 10 10 m356 0 q10 0 10 -10 m-366 10 h10 m74 0 h10 m20 0 h10 m0 0 h212 m-242 0 h20 m222 0 h20 m-262 0 q10 0 10 10 m242 0 q0 -10 10 -10 m-252 10 v12 m242 0 v-12 m-242 12 q0 10 10 10 m222 0 q10 0 10 -10 m-232 10 h10 m78 0 h10 m20 0 h10 m64 0 h10 m-104 0 h20 m84 0 h20 m-124 0 q10 0 10 10 m104 0 q0 -10 10 -10 m-114 10 v24 m104 0 v-24 m-104 24 q0 10 10 10 m84 0 q10 0 10 -10 m-94 10 h10 m54 0 h10 m0 0 h10 m83 -152 h-3"/>
   <polygon points="571 465 579 461 579 469"/>
   <polygon points="571 465 563 461 563 469"/>
</svg>
