<svg xmlns="http://www.w3.org/2000/svg" width="521" height="191">
   <polygon points="9 17 1 13 1 21"/>
   <polygon points="17 17 9 13 9 21"/>
   <rect x="31" y="3" width="74" height="32" rx="10"/>
   <rect x="29"
         y="1"
         width="74"
         height="32"
         class="terminal"
         rx="10"/>
   <text class="terminal" x="39" y="21">CREATE</text>
   <rect x="125" y="3" width="54" height="32" rx="10"/>
   <rect x="123"
         y="1"
         width="54"
         height="32"
         class="terminal"
         rx="10"/>
   <text class="terminal" x="133" y="21">TYPE</text>
   <rect x="199" y="3" width="88" height="32"/>
   <rect x="197" y="1" width="88" height="32" class="nonterminal"/>
   <text class="nonterminal" x="207" y="21">type_name</text>
   <rect x="307" y="3" width="38" height="32" rx="10"/>
   <rect x="305"
         y="1"
         width="38"
         height="32"
         class="terminal"
         rx="10"/>
   <text class="terminal" x="315" y="21">AS</text>
   <rect x="385" y="3" width="48" height="32" rx="10"/>
   <rect x="383"
         y="1"
         width="48"
         height="32"
         class="terminal"
         rx="10"/>
   <text class="terminal" x="393" y="21">LIST</text>
   <rect x="385" y="47" width="50" height="32" rx="10"/>
   <rect x="383"
         y="45"
         width="50"
         height="32"
         class="terminal"
         rx="10"/>
   <text class="terminal" x="393" y="65">MAP</text>
   <rect x="475" y="3" width="24" height="32" rx="10"/>
   <rect x="473"
         y="1"
         width="24"
         height="32"
         class="terminal"
         rx="10"/>
   <text class="terminal" x="483" y="21">(</text>
   <rect x="279" y="157" width="46" height="32"/>
   <rect x="277" y="155" width="46" height="32" class="nonterminal"/>
   <text class="nonterminal" x="287" y="175">field</text>
   <rect x="345" y="157" width="26" height="32" rx="10"/>
   <rect x="343"
         y="155"
         width="26"
         height="32"
         class="terminal"
         rx="10"/>
   <text class="terminal" x="353" y="175">=</text>
   <rect x="391" y="157" width="38" height="32"/>
   <rect x="389" y="155" width="38" height="32" class="nonterminal"/>
   <text class="nonterminal" x="399" y="175">val</text>
   <rect x="279" y="113" width="24" height="32" rx="10"/>
   <rect x="277"
         y="111"
         width="24"
         height="32"
         class="terminal"
         rx="10"/>
   <text class="terminal" x="287" y="131">,</text>
   <rect x="469" y="157" width="24" height="32" rx="10"/>
   <rect x="467"
         y="155"
         width="24"
         height="32"
         class="terminal"
         rx="10"/>
   <text class="terminal" x="477" y="175">)</text>
   <path class="line"
         d="m17 17 h2 m0 0 h10 m74 0 h10 m0 0 h10 m54 0 h10 m0 0 h10 m88 0 h10 m0 0 h10 m38 0 h10 m20 0 h10 m48 0 h10 m0 0 h2 m-90 0 h20 m70 0 h20 m-110 0 q10 0 10 10 m90 0 q0 -10 10 -10 m-100 10 v24 m90 0 v-24 m-90 24 q0 10 10 10 m70 0 q10 0 10 -10 m-80 10 h10 m50 0 h10 m20 -44 h10 m24 0 h10 m2 0 l2 0 m2 0 l2 0 m2 0 l2 0 m-284 154 l2 0 m2 0 l2 0 m2 0 l2 0 m22 0 h10 m46 0 h10 m0 0 h10 m26 0 h10 m0 0 h10 m38 0 h10 m-190 0 l20 0 m-1 0 q-9 0 -9 -10 l0 -24 q0 -10 10 -10 m170 44 l20 0 m-20 0 q10 0 10 -10 l0 -24 q0 -10 -10 -10 m-170 0 h10 m24 0 h10 m0 0 h126 m20 44 h10 m24 0 h10 m3 0 h-3"/>
   <polygon points="511 171 519 167 519 175"/>
   <polygon points="511 171 503 167 503 175"/>
</svg>
