<svg xmlns="http://www.w3.org/2000/svg" width="581" height="431">
   <polygon points="11 17 3 13 3 21"/>
   <polygon points="19 17 11 13 11 21"/>
   <rect x="33" y="3" width="136" height="32" rx="10"/>
   <rect x="31"
         y="1"
         width="136"
         height="32"
         class="terminal"
         rx="10"/>
   <text class="terminal" x="41" y="21">CREATE SOURCE</text>
   <rect x="209" y="35" width="118" height="32" rx="10"/>
   <rect x="207"
         y="33"
         width="118"
         height="32"
         class="terminal"
         rx="10"/>
   <text class="terminal" x="217" y="53">IF NOT EXISTS</text>
   <rect x="367" y="3" width="80" height="32"/>
   <rect x="365" y="1" width="80" height="32" class="nonterminal"/>
   <text class="nonterminal" x="375" y="21">src_name</text>
   <rect x="81" y="145" width="24" height="32" rx="10"/>
   <rect x="79"
         y="143"
         width="24"
         height="32"
         class="terminal"
         rx="10"/>
   <text class="terminal" x="89" y="163">(</text>
   <rect x="145" y="145" width="80" height="32"/>
   <rect x="143" y="143" width="80" height="32" class="nonterminal"/>
   <text class="nonterminal" x="153" y="163">col_name</text>
   <rect x="145" y="101" width="24" height="32" rx="10"/>
   <rect x="143"
         y="99"
         width="24"
         height="32"
         class="terminal"
         rx="10"/>
   <text class="terminal" x="153" y="119">,</text>
   <rect x="265" y="145" width="24" height="32" rx="10"/>
   <rect x="263"
         y="143"
         width="24"
         height="32"
         class="terminal"
         rx="10"/>
   <text class="terminal" x="273" y="163">)</text>
   <rect x="329" y="145" width="60" height="32" rx="10"/>
   <rect x="327"
         y="143"
         width="60"
         height="32"
         class="terminal"
         rx="10"/>
   <text class="terminal" x="337" y="163">FROM</text>
   <rect x="409" y="145" width="48" height="32" rx="10"/>
   <rect x="407"
         y="143"
         width="48"
         height="32"
         class="terminal"
         rx="10"/>
   <text class="terminal" x="417" y="163">FILE</text>
   <rect x="477" y="145" width="48" height="32"/>
   <rect x="475" y="143" width="48" height="32" class="nonterminal"/>
   <text class="nonterminal" x="485" y="163">path</text>
   <rect x="67" y="271" width="56" height="32" rx="10"/>
   <rect x="65"
         y="269"
         width="56"
         height="32"
         class="terminal"
         rx="10"/>
   <text class="terminal" x="75" y="289">WITH</text>
   <rect x="143" y="271" width="24" height="32" rx="10"/>
   <rect x="141"
         y="269"
         width="24"
         height="32"
         class="terminal"
         rx="10"/>
   <text class="terminal" x="151" y="289">(</text>
   <rect x="207" y="271" width="46" height="32"/>
   <rect x="205" y="269" width="46" height="32" class="nonterminal"/>
   <text class="nonterminal" x="215" y="289">field</text>
   <rect x="273" y="271" width="26" height="32" rx="10"/>
   <rect x="271"
         y="269"
         width="26"
         height="32"
         class="terminal"
         rx="10"/>
   <text class="terminal" x="281" y="289">=</text>
   <rect x="319" y="271" width="38" height="32"/>
   <rect x="317" y="269" width="38" height="32" class="nonterminal"/>
   <text class="nonterminal" x="327" y="289">val</text>
   <rect x="207" y="227" width="24" height="32" rx="10"/>
   <rect x="205"
         y="225"
         width="24"
         height="32"
         class="terminal"
         rx="10"/>
   <text class="terminal" x="215" y="245">,</text>
   <rect x="397" y="271" width="24" height="32" rx="10"/>
   <rect x="395"
         y="269"
         width="24"
         height="32"
         class="terminal"
         rx="10"/>
   <text class="terminal" x="405" y="289">)</text>
   <rect x="461" y="271" width="78" height="32" rx="10"/>
   <rect x="459"
         y="269"
         width="78"
         height="32"
         class="terminal"
         rx="10"/>
   <text class="terminal" x="469" y="289">FORMAT</text>
   <rect x="25" y="353" width="88" height="32" rx="10"/>
   <rect x="23"
         y="351"
         width="88"
         height="32"
         class="terminal"
         rx="10"/>
   <text class="terminal" x="33" y="371">CSV WITH</text>
   <rect x="153" y="353" width="76" height="32" rx="10"/>
   <rect x="151"
         y="351"
         width="76"
         height="32"
         class="terminal"
         rx="10"/>
   <text class="terminal" x="161" y="371">HEADER</text>
   <rect x="153" y="397" width="28" height="32"/>
   <rect x="151" y="395" width="28" height="32" class="nonterminal"/>
   <text class="nonterminal" x="161" y="415">n</text>
   <rect x="201" y="397" width="90" height="32" rx="10"/>
   <rect x="199"
         y="395"
         width="90"
         height="32"
         class="terminal"
         rx="10"/>
   <text class="terminal" x="209" y="415">COLUMNS</text>
   <rect x="351" y="385" width="116" height="32" rx="10"/>
   <rect x="349"
         y="383"
         width="116"
         height="32"
         class="terminal"
         rx="10"/>
   <text class="terminal" x="359" y="403">DELIMITED BY</text>
   <rect x="487" y="385" width="46" height="32"/>
   <rect x="485" y="383" width="46" height="32" class="nonterminal"/>
   <text class="nonterminal" x="495" y="403">char</text>
   <path class="line"
         d="m19 17 h2 m0 0 h10 m136 0 h10 m20 0 h10 m0 0 h128 m-158 0 h20 m138 0 h20 m-178 0 q10 0 10 10 m158 0 q0 -10 10 -10 m-168 10 v12 m158 0 v-12 m-158 12 q0 10 10 10 m138 0 q10 0 10 -10 m-148 10 h10 m118 0 h10 m20 -32 h10 m80 0 h10 m2 0 l2 0 m2 0 l2 0 m2 0 l2 0 m-430 142 l2 0 m2 0 l2 0 m2 0 l2 0 m22 0 h10 m24 0 h10 m20 0 h10 m80 0 h10 m-120 0 l20 0 m-1 0 q-9 0 -9 -10 l0 -24 q0 -10 10 -10 m100 44 l20 0 m-20 0 q10 0 10 -10 l0 -24 q0 -10 -10 -10 m-100 0 h10 m24 0 h10 m0 0 h56 m20 44 h10 m24 0 h10 m-248 0 h20 m228 0 h20 m-268 0 q10 0 10 10 m248 0 q0 -10 10 -10 m-258 10 v14 m248 0 v-14 m-248 14 q0 10 10 10 m228 0 q10 0 10 -10 m-238 10 h10 m0 0 h218 m20 -34 h10 m60 0 h10 m0 0 h10 m48 0 h10 m0 0 h10 m48 0 h10 m2 0 l2 0 m2 0 l2 0 m2 0 l2 0 m-522 126 l2 0 m2 0 l2 0 m2 0 l2 0 m22 0 h10 m56 0 h10 m0 0 h10 m24 0 h10 m20 0 h10 m46 0 h10 m0 0 h10 m26 0 h10 m0 0 h10 m38 0 h10 m-190 0 l20 0 m-1 0 q-9 0 -9 -10 l0 -24 q0 -10 10 -10 m170 44 l20 0 m-20 0 q10 0 10 -10 l0 -24 q0 -10 -10 -10 m-170 0 h10 m24 0 h10 m0 0 h126 m20 44 h10 m24 0 h10 m-394 0 h20 m374 0 h20 m-414 0 q10 0 10 10 m394 0 q0 -10 10 -10 m-404 10 v14 m394 0 v-14 m-394 14 q0 10 10 10 m374 0 q10 0 10 -10 m-384 10 h10 m0 0 h364 m20 -34 h10 m78 0 h10 m2 0 l2 0 m2 0 l2 0 m2 0 l2 0 m-558 82 l2 0 m2 0 l2 0 m2 0 l2 0 m2 0 h10 m88 0 h10 m20 0 h10 m76 0 h10 m0 0 h62 m-178 0 h20 m158 0 h20 m-198 0 q10 0 10 10 m178 0 q0 -10 10 -10 m-188 10 v24 m178 0 v-24 m-178 24 q0 10 10 10 m158 0 q10 0 10 -10 m-168 10 h10 m28 0 h10 m0 0 h10 m90 0 h10 m40 -44 h10 m0 0 h192 m-222 0 h20 m202 0 h20 m-242 0 q10 0 10 10 m222 0 q0 -10 10 -10 m-232 10 v12 m222 0 v-12 m-222 12 q0 10 10 10 m202 0 q10 0 10 -10 m-212 10 h10 m116 0 h10 m0 0 h10 m46 0 h10 m23 -32 h-3"/>
   <polygon points="571 367 579 363 579 371"/>
   <polygon points="571 367 563 363 563 371"/>
</svg>
