<svg xmlns="http://www.w3.org/2000/svg" width="591" height="135">
   <polygon points="9 17 1 13 1 21"/>
   <polygon points="17 17 9 13 9 21"/>
   <rect x="31" y="3" width="246" height="32" rx="10"/>
   <rect x="29"
         y="1"
         width="246"
         height="32"
         class="terminal"
         rx="10"/>
   <text class="terminal" x="39" y="21">CONFLUENT SCHEMA REGISTRY</text>
   <rect x="297" y="3" width="116" height="32" rx="10"/>
   <rect x="295"
         y="1"
         width="116"
         height="32"
         class="terminal"
         rx="10"/>
   <text class="terminal" x="305" y="21">CONNECTION</text>
   <rect x="433" y="3" width="136" height="32"/>
   <rect x="431" y="1" width="136" height="32" class="nonterminal"/>
   <text class="nonterminal" x="441" y="21">connection_name</text>
   <rect x="247" y="69" width="26" height="32" rx="10"/>
   <rect x="245"
         y="67"
         width="26"
         height="32"
         class="terminal"
         rx="10"/>
   <text class="terminal" x="255" y="87">(</text>
   <rect x="313" y="101" width="24" height="32" rx="10"/>
   <rect x="311"
         y="99"
         width="24"
         height="32"
         class="terminal"
         rx="10"/>
   <text class="terminal" x="321" y="119">,</text>
   <rect x="357" y="101" width="140" height="32"/>
   <rect x="355" y="99" width="140" height="32" class="nonterminal"/>
   <text class="nonterminal" x="365" y="119">connection_option</text>
   <rect x="537" y="69" width="26" height="32" rx="10"/>
   <rect x="535"
         y="67"
         width="26"
         height="32"
         class="terminal"
         rx="10"/>
   <text class="terminal" x="545" y="87">)</text>
   <path class="line"
         d="m17 17 h2 m0 0 h10 m246 0 h10 m0 0 h10 m116 0 h10 m0 0 h10 m136 0 h10 m2 0 l2 0 m2 0 l2 0 m2 0 l2 0 m-366 66 l2 0 m2 0 l2 0 m2 0 l2 0 m2 0 h10 m26 0 h10 m20 0 h10 m0 0 h194 m-224 0 h20 m204 0 h20 m-244 0 q10 0 10 10 m224 0 q0 -10 10 -10 m-234 10 v12 m224 0 v-12 m-224 12 q0 10 10 10 m204 0 q10 0 10 -10 m-214 10 h10 m24 0 h10 m0 0 h10 m140 0 h10 m20 -32 h10 m26 0 h10 m3 0 h-3"/>
   <polygon points="581 83 589 79 589 87"/>
   <polygon points="581 83 573 79 573 87"/>
</svg>
