<svg xmlns="http://www.w3.org/2000/svg" width="589" height="135">
   <polygon points="9 17 1 13 1 21"/>
   <polygon points="17 17 9 13 9 21"/>
   <rect x="31" y="3" width="86" height="32" rx="10"/>
   <rect x="29"
         y="1"
         width="86"
         height="32"
         class="terminal"
         rx="10"/>
   <text class="terminal" x="39" y="21">DECLARE</text>
   <rect x="137" y="3" width="104" height="32"/>
   <rect x="135" y="1" width="104" height="32" class="nonterminal"/>
   <text class="nonterminal" x="145" y="21">cursor_name</text>
   <rect x="261" y="3" width="78" height="32" rx="10"/>
   <rect x="259"
         y="1"
         width="78"
         height="32"
         class="terminal"
         rx="10"/>
   <text class="terminal" x="269" y="21">CURSOR</text>
   <rect x="379" y="35" width="88" height="32" rx="10"/>
   <rect x="377"
         y="33"
         width="88"
         height="32"
         class="terminal"
         rx="10"/>
   <text class="terminal" x="387" y="53">WITHOUT</text>
   <rect x="487" y="35" width="60" height="32" rx="10"/>
   <rect x="485"
         y="33"
         width="60"
         height="32"
         class="terminal"
         rx="10"/>
   <text class="terminal" x="495" y="53">HOLD</text>
   <rect x="435" y="101" width="48" height="32" rx="10"/>
   <rect x="433"
         y="99"
         width="48"
         height="32"
         class="terminal"
         rx="10"/>
   <text class="terminal" x="443" y="119">FOR</text>
   <rect x="503" y="101" width="58" height="32"/>
   <rect x="501" y="99" width="58" height="32" class="nonterminal"/>
   <text class="nonterminal" x="511" y="119">query</text>
   <path class="line"
         d="m17 17 h2 m0 0 h10 m86 0 h10 m0 0 h10 m104 0 h10 m0 0 h10 m78 0 h10 m20 0 h10 m0 0 h178 m-208 0 h20 m188 0 h20 m-228 0 q10 0 10 10 m208 0 q0 -10 10 -10 m-218 10 v12 m208 0 v-12 m-208 12 q0 10 10 10 m188 0 q10 0 10 -10 m-198 10 h10 m88 0 h10 m0 0 h10 m60 0 h10 m22 -32 l2 0 m2 0 l2 0 m2 0 l2 0 m-176 98 l2 0 m2 0 l2 0 m2 0 l2 0 m2 0 h10 m48 0 h10 m0 0 h10 m58 0 h10 m3 0 h-3"/>
   <polygon points="579 115 587 111 587 119"/>
   <polygon points="579 115 571 111 571 119"/>
</svg>
