<svg xmlns="http://www.w3.org/2000/svg" width="577" height="135">
   <polygon points="9 17 1 13 1 21"/>
   <polygon points="17 17 9 13 9 21"/>
   <rect x="31" y="3" width="84" height="32" rx="10"/>
   <rect x="29"
         y="1"
         width="84"
         height="32"
         class="terminal"
         rx="10"/>
   <text class="terminal" x="39" y="21">DECLARE</text>
   <rect x="135" y="3" width="100" height="32"/>
   <rect x="133" y="1" width="100" height="32" class="nonterminal"/>
   <text class="nonterminal" x="143" y="21">cursor_name</text>
   <rect x="255" y="3" width="78" height="32" rx="10"/>
   <rect x="253"
         y="1"
         width="78"
         height="32"
         class="terminal"
         rx="10"/>
   <text class="terminal" x="263" y="21">CURSOR</text>
   <rect x="373" y="35" width="84" height="32" rx="10"/>
   <rect x="371"
         y="33"
         width="84"
         height="32"
         class="terminal"
         rx="10"/>
   <text class="terminal" x="381" y="53">WITHOUT</text>
   <rect x="477" y="35" width="58" height="32" rx="10"/>
   <rect x="475"
         y="33"
         width="58"
         height="32"
         class="terminal"
         rx="10"/>
   <text class="terminal" x="485" y="53">HOLD</text>
   <rect x="427" y="101" width="48" height="32" rx="10"/>
   <rect x="425"
         y="99"
         width="48"
         height="32"
         class="terminal"
         rx="10"/>
   <text class="terminal" x="435" y="119">FOR</text>
   <rect x="495" y="101" width="54" height="32"/>
   <rect x="493" y="99" width="54" height="32" class="nonterminal"/>
   <text class="nonterminal" x="503" y="119">query</text>
   <path class="line"
         d="m17 17 h2 m0 0 h10 m84 0 h10 m0 0 h10 m100 0 h10 m0 0 h10 m78 0 h10 m20 0 h10 m0 0 h172 m-202 0 h20 m182 0 h20 m-222 0 q10 0 10 10 m202 0 q0 -10 10 -10 m-212 10 v12 m202 0 v-12 m-202 12 q0 10 10 10 m182 0 q10 0 10 -10 m-192 10 h10 m84 0 h10 m0 0 h10 m58 0 h10 m22 -32 l2 0 m2 0 l2 0 m2 0 l2 0 m-172 98 l2 0 m2 0 l2 0 m2 0 l2 0 m2 0 h10 m48 0 h10 m0 0 h10 m54 0 h10 m3 0 h-3"/>
   <polygon points="567 115 575 111 575 119"/>
   <polygon points="567 115 559 111 559 119"/>
</svg>
