<svg xmlns="http://www.w3.org/2000/svg" width="307" height="125">
   <polygon points="9 17 1 13 1 21"/>
   <polygon points="17 17 9 13 9 21"/>
   <rect x="31" y="3" width="82" height="32" rx="10"/>
   <rect x="29"
         y="1"
         width="82"
         height="32"
         class="terminal"
         rx="10"/>
   <text class="terminal" x="39" y="21">DISCARD</text>
   <rect x="153" y="3" width="58" height="32" rx="10"/>
   <rect x="151"
         y="1"
         width="58"
         height="32"
         class="terminal"
         rx="10"/>
   <text class="terminal" x="161" y="21">TEMP</text>
   <rect x="153" y="47" width="106" height="32" rx="10"/>
   <rect x="151"
         y="45"
         width="106"
         height="32"
         class="terminal"
         rx="10"/>
   <text class="terminal" x="161" y="65">TEMPORARY</text>
   <rect x="153" y="91" width="44" height="32" rx="10"/>
   <rect x="151"
         y="89"
         width="44"
         height="32"
         class="terminal"
         rx="10"/>
   <text class="terminal" x="161" y="109">ALL</text>
   <path class="line"
         d="m17 17 h2 m0 0 h10 m82 0 h10 m20 0 h10 m58 0 h10 m0 0 h48 m-146 0 h20 m126 0 h20 m-166 0 q10 0 10 10 m146 0 q0 -10 10 -10 m-156 10 v24 m146 0 v-24 m-146 24 q0 10 10 10 m126 0 q10 0 10 -10 m-136 10 h10 m106 0 h10 m-136 -10 v20 m146 0 v-20 m-146 20 v24 m146 0 v-24 m-146 24 q0 10 10 10 m126 0 q10 0 10 -10 m-136 10 h10 m44 0 h10 m0 0 h62 m23 -88 h-3"/>
   <polygon points="297 17 305 13 305 21"/>
   <polygon points="297 17 289 13 289 21"/>
</svg>
