<svg xmlns="http://www.w3.org/2000/svg" width="557" height="199">
   <polygon points="9 17 1 13 1 21"/>
   <polygon points="17 17 9 13 9 21"/>
   <rect x="31" y="3" width="60" height="32" rx="10"/>
   <rect x="29"
         y="1"
         width="60"
         height="32"
         class="terminal"
         rx="10"/>
   <text class="terminal" x="39" y="21">DROP</text>
   <rect x="111" y="3" width="166" height="32" rx="10"/>
   <rect x="109"
         y="1"
         width="166"
         height="32"
         class="terminal"
         rx="10"/>
   <text class="terminal" x="119" y="21">MATERIALIZED VIEW</text>
   <rect x="317" y="35" width="86" height="32" rx="10"/>
   <rect x="315"
         y="33"
         width="86"
         height="32"
         class="terminal"
         rx="10"/>
   <text class="terminal" x="325" y="53">IF EXISTS</text>
   <rect x="443" y="3" width="92" height="32"/>
   <rect x="441" y="1" width="92" height="32" class="nonterminal"/>
   <text class="nonterminal" x="451" y="21">view_name</text>
   <rect x="419" y="121" width="90" height="32" rx="10"/>
   <rect x="417"
         y="119"
         width="90"
         height="32"
         class="terminal"
         rx="10"/>
   <text class="terminal" x="427" y="139">RESTRICT</text>
   <rect x="419" y="165" width="90" height="32" rx="10"/>
   <rect x="417"
         y="163"
         width="90"
         height="32"
         class="terminal"
         rx="10"/>
   <text class="terminal" x="427" y="183">CASCADE</text>
   <path class="line"
         d="m17 17 h2 m0 0 h10 m60 0 h10 m0 0 h10 m166 0 h10 m20 0 h10 m0 0 h96 m-126 0 h20 m106 0 h20 m-146 0 q10 0 10 10 m126 0 q0 -10 10 -10 m-136 10 v12 m126 0 v-12 m-126 12 q0 10 10 10 m106 0 q10 0 10 -10 m-116 10 h10 m86 0 h10 m20 -32 h10 m92 0 h10 m2 0 l2 0 m2 0 l2 0 m2 0 l2 0 m-180 86 l2 0 m2 0 l2 0 m2 0 l2 0 m22 0 h10 m0 0 h100 m-130 0 h20 m110 0 h20 m-150 0 q10 0 10 10 m130 0 q0 -10 10 -10 m-140 10 v12 m130 0 v-12 m-130 12 q0 10 10 10 m110 0 q10 0 10 -10 m-120 10 h10 m90 0 h10 m-120 -10 v20 m130 0 v-20 m-130 20 v24 m130 0 v-24 m-130 24 q0 10 10 10 m110 0 q10 0 10 -10 m-120 10 h10 m90 0 h10 m23 -76 h-3"/>
   <polygon points="547 103 555 99 555 107"/>
   <polygon points="547 103 539 99 539 107"/>
</svg>
