<svg xmlns="http://www.w3.org/2000/svg" width="587" height="113">
   <polygon points="9 17 1 13 1 21"/>
   <polygon points="17 17 9 13 9 21"/>
   <rect x="31" y="3" width="58" height="32" rx="10"/>
   <rect x="29"
         y="1"
         width="58"
         height="32"
         class="terminal"
         rx="10"/>
   <text class="terminal" x="39" y="21">DROP</text>
   <rect x="109" y="3" width="122" height="32"/>
   <rect x="107" y="1" width="122" height="32" class="nonterminal"/>
   <text class="nonterminal" x="117" y="21">data_type_name</text>
   <rect x="271" y="35" width="32" height="32" rx="10"/>
   <rect x="269"
         y="33"
         width="32"
         height="32"
         class="terminal"
         rx="10"/>
   <text class="terminal" x="279" y="53">IF</text>
   <rect x="323" y="35" width="68" height="32" rx="10"/>
   <rect x="321"
         y="33"
         width="68"
         height="32"
         class="terminal"
         rx="10"/>
   <text class="terminal" x="331" y="53">EXISTS</text>
   <rect x="451" y="35" width="88" height="32" rx="10"/>
   <rect x="449"
         y="33"
         width="88"
         height="32"
         class="terminal"
         rx="10"/>
   <text class="terminal" x="459" y="53">RESTRICT</text>
   <rect x="451" y="79" width="86" height="32" rx="10"/>
   <rect x="449"
         y="77"
         width="86"
         height="32"
         class="terminal"
         rx="10"/>
   <text class="terminal" x="459" y="97">CASCADE</text>
   <path class="line"
         d="m17 17 h2 m0 0 h10 m58 0 h10 m0 0 h10 m122 0 h10 m20 0 h10 m0 0 h130 m-160 0 h20 m140 0 h20 m-180 0 q10 0 10 10 m160 0 q0 -10 10 -10 m-170 10 v12 m160 0 v-12 m-160 12 q0 10 10 10 m140 0 q10 0 10 -10 m-150 10 h10 m32 0 h10 m0 0 h10 m68 0 h10 m40 -32 h10 m0 0 h98 m-128 0 h20 m108 0 h20 m-148 0 q10 0 10 10 m128 0 q0 -10 10 -10 m-138 10 v12 m128 0 v-12 m-128 12 q0 10 10 10 m108 0 q10 0 10 -10 m-118 10 h10 m88 0 h10 m-118 -10 v20 m128 0 v-20 m-128 20 v24 m128 0 v-24 m-128 24 q0 10 10 10 m108 0 q10 0 10 -10 m-118 10 h10 m86 0 h10 m0 0 h2 m23 -76 h-3"/>
   <polygon points="577 17 585 13 585 21"/>
   <polygon points="577 17 569 13 569 21"/>
</svg>
