<svg xmlns="http://www.w3.org/2000/svg" width="485" height="179">
   <polygon points="9 17 1 13 1 21"/>
   <polygon points="17 17 9 13 9 21"/>
   <rect x="31" y="3" width="58" height="32" rx="10"/>
   <rect x="29"
         y="1"
         width="58"
         height="32"
         class="terminal"
         rx="10"/>
   <text class="terminal" x="39" y="21">DROP</text>
   <rect x="109" y="3" width="80" height="32" rx="10"/>
   <rect x="107"
         y="1"
         width="80"
         height="32"
         class="terminal"
         rx="10"/>
   <text class="terminal" x="117" y="21">SCHEMA</text>
   <rect x="229" y="35" width="84" height="32" rx="10"/>
   <rect x="227"
         y="33"
         width="84"
         height="32"
         class="terminal"
         rx="10"/>
   <text class="terminal" x="237" y="53">IF EXISTS</text>
   <rect x="353" y="3" width="110" height="32"/>
   <rect x="351" y="1" width="110" height="32" class="nonterminal"/>
   <text class="nonterminal" x="361" y="21">schema_name</text>
   <rect x="349" y="101" width="86" height="32" rx="10"/>
   <rect x="347"
         y="99"
         width="86"
         height="32"
         class="terminal"
         rx="10"/>
   <text class="terminal" x="357" y="119">CASCADE</text>
   <rect x="349" y="145" width="88" height="32" rx="10"/>
   <rect x="347"
         y="143"
         width="88"
         height="32"
         class="terminal"
         rx="10"/>
   <text class="terminal" x="357" y="163">RESTRICT</text>
   <path class="line"
         d="m17 17 h2 m0 0 h10 m58 0 h10 m0 0 h10 m80 0 h10 m20 0 h10 m0 0 h94 m-124 0 h20 m104 0 h20 m-144 0 q10 0 10 10 m124 0 q0 -10 10 -10 m-134 10 v12 m124 0 v-12 m-124 12 q0 10 10 10 m104 0 q10 0 10 -10 m-114 10 h10 m84 0 h10 m20 -32 h10 m110 0 h10 m2 0 l2 0 m2 0 l2 0 m2 0 l2 0 m-178 98 l2 0 m2 0 l2 0 m2 0 l2 0 m22 0 h10 m86 0 h10 m0 0 h2 m-128 0 h20 m108 0 h20 m-148 0 q10 0 10 10 m128 0 q0 -10 10 -10 m-138 10 v24 m128 0 v-24 m-128 24 q0 10 10 10 m108 0 q10 0 10 -10 m-118 10 h10 m88 0 h10 m23 -44 h-3"/>
   <polygon points="475 115 483 111 483 119"/>
   <polygon points="475 115 467 111 467 119"/>
</svg>
