<svg xmlns="http://www.w3.org/2000/svg" width="463" height="135">
   <polygon points="9 17 1 13 1 21"/>
   <polygon points="17 17 9 13 9 21"/>
   <rect x="31" y="3" width="60" height="32" rx="10"/>
   <rect x="29"
         y="1"
         width="60"
         height="32"
         class="terminal"
         rx="10"/>
   <text class="terminal" x="39" y="21">DROP</text>
   <rect x="111" y="3" width="84" height="32" rx="10"/>
   <rect x="109"
         y="1"
         width="84"
         height="32"
         class="terminal"
         rx="10"/>
   <text class="terminal" x="119" y="21">CLUSTER</text>
   <rect x="215" y="3" width="80" height="32" rx="10"/>
   <rect x="213"
         y="1"
         width="80"
         height="32"
         class="terminal"
         rx="10"/>
   <text class="terminal" x="223" y="21">REPLICA</text>
   <rect x="335" y="35" width="86" height="32" rx="10"/>
   <rect x="333"
         y="33"
         width="86"
         height="32"
         class="terminal"
         rx="10"/>
   <text class="terminal" x="343" y="53">IF EXISTS</text>
   <rect x="237" y="101" width="198" height="32"/>
   <rect x="235" y="99" width="198" height="32" class="nonterminal"/>
   <text class="nonterminal" x="245" y="119">cluster_name.replica_name</text>
   <path class="line"
         d="m17 17 h2 m0 0 h10 m60 0 h10 m0 0 h10 m84 0 h10 m0 0 h10 m80 0 h10 m20 0 h10 m0 0 h96 m-126 0 h20 m106 0 h20 m-146 0 q10 0 10 10 m126 0 q0 -10 10 -10 m-136 10 v12 m126 0 v-12 m-126 12 q0 10 10 10 m106 0 q10 0 10 -10 m-116 10 h10 m86 0 h10 m22 -32 l2 0 m2 0 l2 0 m2 0 l2 0 m-248 98 l2 0 m2 0 l2 0 m2 0 l2 0 m2 0 h10 m198 0 h10 m3 0 h-3"/>
   <polygon points="453 115 461 111 461 119"/>
   <polygon points="453 115 445 111 445 119"/>
</svg>
