<svg xmlns="http://www.w3.org/2000/svg" width="493" height="69">
   <polygon points="9 17 1 13 1 21"/>
   <polygon points="17 17 9 13 9 21"/>
   <rect x="31" y="3" width="58" height="32" rx="10"/>
   <rect x="29"
         y="1"
         width="58"
         height="32"
         class="terminal"
         rx="10"/>
   <text class="terminal" x="39" y="21">DROP</text>
   <rect x="109" y="3" width="64" height="32" rx="10"/>
   <rect x="107"
         y="1"
         width="64"
         height="32"
         class="terminal"
         rx="10"/>
   <text class="terminal" x="117" y="21">TABLE</text>
   <rect x="213" y="35" width="32" height="32" rx="10"/>
   <rect x="211"
         y="33"
         width="32"
         height="32"
         class="terminal"
         rx="10"/>
   <text class="terminal" x="221" y="53">IF</text>
   <rect x="265" y="35" width="68" height="32" rx="10"/>
   <rect x="263"
         y="33"
         width="68"
         height="32"
         class="terminal"
         rx="10"/>
   <text class="terminal" x="273" y="53">EXISTS</text>
   <rect x="373" y="3" width="92" height="32"/>
   <rect x="371" y="1" width="92" height="32" class="nonterminal"/>
   <text class="nonterminal" x="381" y="21">table_name</text>
   <path class="line"
         d="m17 17 h2 m0 0 h10 m58 0 h10 m0 0 h10 m64 0 h10 m20 0 h10 m0 0 h130 m-160 0 h20 m140 0 h20 m-180 0 q10 0 10 10 m160 0 q0 -10 10 -10 m-170 10 v12 m160 0 v-12 m-160 12 q0 10 10 10 m140 0 q10 0 10 -10 m-150 10 h10 m32 0 h10 m0 0 h10 m68 0 h10 m20 -32 h10 m92 0 h10 m3 0 h-3"/>
   <polygon points="483 17 491 13 491 21"/>
   <polygon points="483 17 475 13 475 21"/>
</svg>
