<svg xmlns="http://www.w3.org/2000/svg" width="571" height="157">
   <polygon points="9 61 1 57 1 65"/>
   <polygon points="17 61 9 57 9 65"/>
   <rect x="31" y="47" width="60" height="32" rx="10"/>
   <rect x="29"
         y="45"
         width="60"
         height="32"
         class="terminal"
         rx="10"/>
   <text class="terminal" x="39" y="65">DROP</text>
   <rect x="111" y="47" width="74" height="32" rx="10"/>
   <rect x="109"
         y="45"
         width="74"
         height="32"
         class="terminal"
         rx="10"/>
   <text class="terminal" x="119" y="65">OWNED</text>
   <rect x="205" y="47" width="40" height="32" rx="10"/>
   <rect x="203"
         y="45"
         width="40"
         height="32"
         class="terminal"
         rx="10"/>
   <text class="terminal" x="213" y="65">BY</text>
   <rect x="285" y="47" width="88" height="32"/>
   <rect x="283" y="45" width="88" height="32" class="nonterminal"/>
   <text class="nonterminal" x="293" y="65">role_name</text>
   <rect x="285" y="3" width="24" height="32" rx="10"/>
   <rect x="283"
         y="1"
         width="24"
         height="32"
         class="terminal"
         rx="10"/>
   <text class="terminal" x="293" y="21">,</text>
   <rect x="433" y="79" width="90" height="32" rx="10"/>
   <rect x="431"
         y="77"
         width="90"
         height="32"
         class="terminal"
         rx="10"/>
   <text class="terminal" x="441" y="97">RESTRICT</text>
   <rect x="433" y="123" width="90" height="32" rx="10"/>
   <rect x="431"
         y="121"
         width="90"
         height="32"
         class="terminal"
         rx="10"/>
   <text class="terminal" x="441" y="141">CASCADE</text>
   <path class="line"
         d="m17 61 h2 m0 0 h10 m60 0 h10 m0 0 h10 m74 0 h10 m0 0 h10 m40 0 h10 m20 0 h10 m88 0 h10 m-128 0 l20 0 m-1 0 q-9 0 -9 -10 l0 -24 q0 -10 10 -10 m108 44 l20 0 m-20 0 q10 0 10 -10 l0 -24 q0 -10 -10 -10 m-108 0 h10 m24 0 h10 m0 0 h64 m40 44 h10 m0 0 h100 m-130 0 h20 m110 0 h20 m-150 0 q10 0 10 10 m130 0 q0 -10 10 -10 m-140 10 v12 m130 0 v-12 m-130 12 q0 10 10 10 m110 0 q10 0 10 -10 m-120 10 h10 m90 0 h10 m-120 -10 v20 m130 0 v-20 m-130 20 v24 m130 0 v-24 m-130 24 q0 10 10 10 m110 0 q10 0 10 -10 m-120 10 h10 m90 0 h10 m23 -76 h-3"/>
   <polygon points="561 61 569 57 569 65"/>
   <polygon points="561 61 553 57 553 65"/>
</svg>
