<svg xmlns="http://www.w3.org/2000/svg" width="497" height="199">
   <polygon points="9 17 1 13 1 21"/>
   <polygon points="17 17 9 13 9 21"/>
   <rect x="31" y="3" width="60" height="32" rx="10"/>
   <rect x="29"
         y="1"
         width="60"
         height="32"
         class="terminal"
         rx="10"/>
   <text class="terminal" x="39" y="21">DROP</text>
   <rect x="111" y="3" width="66" height="32" rx="10"/>
   <rect x="109"
         y="1"
         width="66"
         height="32"
         class="terminal"
         rx="10"/>
   <text class="terminal" x="119" y="21">TABLE</text>
   <rect x="217" y="35" width="32" height="32" rx="10"/>
   <rect x="215"
         y="33"
         width="32"
         height="32"
         class="terminal"
         rx="10"/>
   <text class="terminal" x="225" y="53">IF</text>
   <rect x="269" y="35" width="70" height="32" rx="10"/>
   <rect x="267"
         y="33"
         width="70"
         height="32"
         class="terminal"
         rx="10"/>
   <text class="terminal" x="277" y="53">EXISTS</text>
   <rect x="379" y="3" width="96" height="32"/>
   <rect x="377" y="1" width="96" height="32" class="nonterminal"/>
   <text class="nonterminal" x="387" y="21">table_name</text>
   <rect x="359" y="121" width="90" height="32" rx="10"/>
   <rect x="357"
         y="119"
         width="90"
         height="32"
         class="terminal"
         rx="10"/>
   <text class="terminal" x="367" y="139">RESTRICT</text>
   <rect x="359" y="165" width="90" height="32" rx="10"/>
   <rect x="357"
         y="163"
         width="90"
         height="32"
         class="terminal"
         rx="10"/>
   <text class="terminal" x="367" y="183">CASCADE</text>
   <path class="line"
         d="m17 17 h2 m0 0 h10 m60 0 h10 m0 0 h10 m66 0 h10 m20 0 h10 m0 0 h132 m-162 0 h20 m142 0 h20 m-182 0 q10 0 10 10 m162 0 q0 -10 10 -10 m-172 10 v12 m162 0 v-12 m-162 12 q0 10 10 10 m142 0 q10 0 10 -10 m-152 10 h10 m32 0 h10 m0 0 h10 m70 0 h10 m20 -32 h10 m96 0 h10 m2 0 l2 0 m2 0 l2 0 m2 0 l2 0 m-180 86 l2 0 m2 0 l2 0 m2 0 l2 0 m22 0 h10 m0 0 h100 m-130 0 h20 m110 0 h20 m-150 0 q10 0 10 10 m130 0 q0 -10 10 -10 m-140 10 v12 m130 0 v-12 m-130 12 q0 10 10 10 m110 0 q10 0 10 -10 m-120 10 h10 m90 0 h10 m-120 -10 v20 m130 0 v-20 m-130 20 v24 m130 0 v-24 m-130 24 q0 10 10 10 m110 0 q10 0 10 -10 m-120 10 h10 m90 0 h10 m23 -76 h-3"/>
   <polygon points="487 103 495 99 495 107"/>
   <polygon points="487 103 479 99 479 107"/>
</svg>
