<svg xmlns="http://www.w3.org/2000/svg" width="543" height="97">
   <polygon points="9 61 1 57 1 65"/>
   <polygon points="17 61 9 57 9 65"/>
   <rect x="31" y="47" width="86" height="32" rx="10"/>
   <rect x="29"
         y="45"
         width="86"
         height="32"
         class="terminal"
         rx="10"/>
   <text class="terminal" x="39" y="65">EXECUTE</text>
   <rect x="137" y="47" width="56" height="32"/>
   <rect x="135" y="45" width="56" height="32" class="nonterminal"/>
   <text class="nonterminal" x="145" y="65">name</text>
   <rect x="233" y="47" width="26" height="32" rx="10"/>
   <rect x="231"
         y="45"
         width="26"
         height="32"
         class="terminal"
         rx="10"/>
   <text class="terminal" x="241" y="65">(</text>
   <rect x="299" y="47" width="130" height="32"/>
   <rect x="297" y="45" width="130" height="32" class="nonterminal"/>
   <text class="nonterminal" x="307" y="65">parameter_value</text>
   <rect x="299" y="3" width="24" height="32" rx="10"/>
   <rect x="297"
         y="1"
         width="24"
         height="32"
         class="terminal"
         rx="10"/>
   <text class="terminal" x="307" y="21">,</text>
   <rect x="469" y="47" width="26" height="32" rx="10"/>
   <rect x="467"
         y="45"
         width="26"
         height="32"
         class="terminal"
         rx="10"/>
   <text class="terminal" x="477" y="65">)</text>
   <path class="line"
         d="m17 61 h2 m0 0 h10 m86 0 h10 m0 0 h10 m56 0 h10 m20 0 h10 m26 0 h10 m20 0 h10 m130 0 h10 m-170 0 l20 0 m-1 0 q-9 0 -9 -10 l0 -24 q0 -10 10 -10 m150 44 l20 0 m-20 0 q10 0 10 -10 l0 -24 q0 -10 -10 -10 m-150 0 h10 m24 0 h10 m0 0 h106 m20 44 h10 m26 0 h10 m-302 0 h20 m282 0 h20 m-322 0 q10 0 10 10 m302 0 q0 -10 10 -10 m-312 10 v14 m302 0 v-14 m-302 14 q0 10 10 10 m282 0 q10 0 10 -10 m-292 10 h10 m0 0 h272 m23 -34 h-3"/>
   <polygon points="533 61 541 57 541 65"/>
   <polygon points="533 61 525 57 525 65"/>
</svg>
