<svg xmlns="http://www.w3.org/2000/svg" width="603" height="661">
   <polygon points="9 17 1 13 1 21"/>
   <polygon points="17 17 9 13 9 21"/>
   <rect x="31" y="3" width="80" height="32" rx="10"/>
   <rect x="29"
         y="1"
         width="80"
         height="32"
         class="terminal"
         rx="10"/>
   <text class="terminal" x="39" y="21">EXPLAIN</text>
   <rect x="171" y="67" width="54" height="32" rx="10"/>
   <rect x="169"
         y="65"
         width="54"
         height="32"
         class="terminal"
         rx="10"/>
   <text class="terminal" x="179" y="85">RAW</text>
   <rect x="171" y="111" width="134" height="32" rx="10"/>
   <rect x="169"
         y="109"
         width="134"
         height="32"
         class="terminal"
         rx="10"/>
   <text class="terminal" x="179" y="129">DECORRELATED</text>
   <rect x="171" y="155" width="98" height="32" rx="10"/>
   <rect x="169"
         y="153"
         width="98"
         height="32"
         class="terminal"
         rx="10"/>
   <text class="terminal" x="179" y="173">OPTIMIZED</text>
   <rect x="171" y="199" width="92" height="32" rx="10"/>
   <rect x="169"
         y="197"
         width="92"
         height="32"
         class="terminal"
         rx="10"/>
   <text class="terminal" x="179" y="217">PHYSICAL</text>
   <rect x="345" y="35" width="58" height="32" rx="10"/>
   <rect x="343"
         y="33"
         width="58"
         height="32"
         class="terminal"
         rx="10"/>
   <text class="terminal" x="353" y="53">PLAN</text>
   <rect x="45" y="309" width="68" height="32" rx="10"/>
   <rect x="43"
         y="307"
         width="68"
         height="32"
         class="terminal"
         rx="10"/>
   <text class="terminal" x="53" y="327">WITH (</text>
   <rect x="153" y="309" width="124" height="32"/>
   <rect x="151" y="307" width="124" height="32" class="nonterminal"/>
   <text class="nonterminal" x="161" y="327">output_modifier</text>
   <rect x="153" y="265" width="24" height="32" rx="10"/>
   <rect x="151"
         y="263"
         width="24"
         height="32"
         class="terminal"
         rx="10"/>
   <text class="terminal" x="161" y="283">,</text>
   <rect x="317" y="309" width="26" height="32" rx="10"/>
   <rect x="315"
         y="307"
         width="26"
         height="32"
         class="terminal"
         rx="10"/>
   <text class="terminal" x="325" y="327">)</text>
   <rect x="403" y="341" width="40" height="32" rx="10"/>
   <rect x="401"
         y="339"
         width="40"
         height="32"
         class="terminal"
         rx="10"/>
   <text class="terminal" x="411" y="359">AS</text>
   <rect x="483" y="341" width="56" height="32" rx="10"/>
   <rect x="481"
         y="339"
         width="56"
         height="32"
         class="terminal"
         rx="10"/>
   <text class="terminal" x="491" y="359">TEXT</text>
   <rect x="483" y="385" width="58" height="32" rx="10"/>
   <rect x="481"
         y="383"
         width="58"
         height="32"
         class="terminal"
         rx="10"/>
   <text class="terminal" x="491" y="403">JSON</text>
   <rect x="169" y="483" width="48" height="32" rx="10"/>
   <rect x="167"
         y="481"
         width="48"
         height="32"
         class="terminal"
         rx="10"/>
   <text class="terminal" x="177" y="501">FOR</text>
   <rect x="277" y="451" width="96" height="32"/>
   <rect x="275" y="449" width="96" height="32" class="nonterminal"/>
   <text class="nonterminal" x="285" y="469">select_stmt</text>
   <rect x="277" y="495" width="104" height="32"/>
   <rect x="275" y="493" width="104" height="32" class="nonterminal"/>
   <text class="nonterminal" x="285" y="513">create_index</text>
   <rect x="277" y="539" width="186" height="32"/>
   <rect x="275" y="537" width="186" height="32" class="nonterminal"/>
   <text class="nonterminal" x="285" y="557">create_materialized_view</text>
   <rect x="277" y="583" width="62" height="32" rx="10"/>
   <rect x="275"
         y="581"
         width="62"
         height="32"
         class="terminal"
         rx="10"/>
   <text class="terminal" x="285" y="601">INDEX</text>
   <rect x="359" y="583" width="98" height="32"/>
   <rect x="357" y="581" width="98" height="32" class="nonterminal"/>
   <text class="nonterminal" x="367" y="601">index_name</text>
   <rect x="277" y="627" width="166" height="32" rx="10"/>
   <rect x="275"
         y="625"
         width="166"
         height="32"
         class="terminal"
         rx="10"/>
   <text class="terminal" x="285" y="645">MATERIALIZED VIEW</text>
   <rect x="463" y="627" width="92" height="32"/>
   <rect x="461" y="625" width="92" height="32" class="nonterminal"/>
   <text class="nonterminal" x="471" y="645">view_name</text>
   <path class="line"
         d="m17 17 h2 m0 0 h10 m80 0 h10 m20 0 h10 m0 0 h262 m-292 0 h20 m272 0 h20 m-312 0 q10 0 10 10 m292 0 q0 -10 10 -10 m-302 10 v12 m292 0 v-12 m-292 12 q0 10 10 10 m272 0 q10 0 10 -10 m-262 10 h10 m0 0 h144 m-174 0 h20 m154 0 h20 m-194 0 q10 0 10 10 m174 0 q0 -10 10 -10 m-184 10 v12 m174 0 v-12 m-174 12 q0 10 10 10 m154 0 q10 0 10 -10 m-164 10 h10 m54 0 h10 m0 0 h80 m-164 -10 v20 m174 0 v-20 m-174 20 v24 m174 0 v-24 m-174 24 q0 10 10 10 m154 0 q10 0 10 -10 m-164 10 h10 m134 0 h10 m-164 -10 v20 m174 0 v-20 m-174 20 v24 m174 0 v-24 m-174 24 q0 10 10 10 m154 0 q10 0 10 -10 m-164 10 h10 m98 0 h10 m0 0 h36 m-164 -10 v20 m174 0 v-20 m-174 20 v24 m174 0 v-24 m-174 24 q0 10 10 10 m154 0 q10 0 10 -10 m-164 10 h10 m92 0 h10 m0 0 h42 m20 -164 h10 m58 0 h10 m22 -32 l2 0 m2 0 l2 0 m2 0 l2 0 m-442 306 l2 0 m2 0 l2 0 m2 0 l2 0 m22 0 h10 m68 0 h10 m20 0 h10 m124 0 h10 m-164 0 l20 0 m-1 0 q-9 0 -9 -10 l0 -24 q0 -10 10 -10 m144 44 l20 0 m-20 0 q10 0 10 -10 l0 -24 q0 -10 -10 -10 m-144 0 h10 m24 0 h10 m0 0 h100 m20 44 h10 m26 0 h10 m-338 0 h20 m318 0 h20 m-358 0 q10 0 10 10 m338 0 q0 -10 10 -10 m-348 10 v14 m338 0 v-14 m-338 14 q0 10 10 10 m318 0 q10 0 10 -10 m-328 10 h10 m0 0 h308 m40 -34 h10 m0 0 h168 m-198 0 h20 m178 0 h20 m-218 0 q10 0 10 10 m198 0 q0 -10 10 -10 m-208 10 v12 m198 0 v-12 m-198 12 q0 10 10 10 m178 0 q10 0 10 -10 m-188 10 h10 m40 0 h10 m20 0 h10 m56 0 h10 m0 0 h2 m-98 0 h20 m78 0 h20 m-118 0 q10 0 10 10 m98 0 q0 -10 10 -10 m-108 10 v24 m98 0 v-24 m-98 24 q0 10 10 10 m78 0 q10 0 10 -10 m-88 10 h10 m58 0 h10 m42 -76 l2 0 m2 0 l2 0 m2 0 l2 0 m-476 142 l2 0 m2 0 l2 0 m2 0 l2 0 m22 0 h10 m0 0 h58 m-88 0 h20 m68 0 h20 m-108 0 q10 0 10 10 m88 0 q0 -10 10 -10 m-98 10 v12 m88 0 v-12 m-88 12 q0 10 10 10 m68 0 q10 0 10 -10 m-78 10 h10 m48 0 h10 m40 -32 h10 m96 0 h10 m0 0 h182 m-318 0 h20 m298 0 h20 m-338 0 q10 0 10 10 m318 0 q0 -10 10 -10 m-328 10 v24 m318 0 v-24 m-318 24 q0 10 10 10 m298 0 q10 0 10 -10 m-308 10 h10 m104 0 h10 m0 0 h174 m-308 -10 v20 m318 0 v-20 m-318 20 v24 m318 0 v-24 m-318 24 q0 10 10 10 m298 0 q10 0 10 -10 m-308 10 h10 m186 0 h10 m0 0 h92 m-308 -10 v20 m318 0 v-20 m-318 20 v24 m318 0 v-24 m-318 24 q0 10 10 10 m298 0 q10 0 10 -10 m-308 10 h10 m62 0 h10 m0 0 h10 m98 0 h10 m0 0 h98 m-308 -10 v20 m318 0 v-20 m-318 20 v24 m318 0 v-24 m-318 24 q0 10 10 10 m298 0 q10 0 10 -10 m-308 10 h10 m166 0 h10 m0 0 h10 m92 0 h10 m23 -176 h-3"/>
   <polygon points="593 465 601 461 601 469"/>
   <polygon points="593 465 585 461 585 469"/>
</svg>
