<svg xmlns="http://www.w3.org/2000/svg" width="603" height="585">
   <polygon points="9 17 1 13 1 21"/>
   <polygon points="17 17 9 13 9 21"/>
   <rect x="31" y="3" width="80" height="32" rx="10"/>
   <rect x="29"
         y="1"
         width="80"
         height="32"
         class="terminal"
         rx="10"/>
   <text class="terminal" x="39" y="21">EXPLAIN</text>
   <rect x="171" y="35" width="54" height="32" rx="10"/>
   <rect x="169"
         y="33"
         width="54"
         height="32"
         class="terminal"
         rx="10"/>
   <text class="terminal" x="179" y="53">RAW</text>
   <rect x="171" y="79" width="134" height="32" rx="10"/>
   <rect x="169"
         y="77"
         width="134"
         height="32"
         class="terminal"
         rx="10"/>
   <text class="terminal" x="179" y="97">DECORRELATED</text>
   <rect x="171" y="123" width="98" height="32" rx="10"/>
   <rect x="169"
         y="121"
         width="98"
         height="32"
         class="terminal"
         rx="10"/>
   <text class="terminal" x="179" y="141">OPTIMIZED</text>
   <rect x="171" y="167" width="92" height="32" rx="10"/>
   <rect x="169"
         y="165"
         width="92"
         height="32"
         class="terminal"
         rx="10"/>
   <text class="terminal" x="179" y="185">PHYSICAL</text>
   <rect x="345" y="35" width="58" height="32" rx="10"/>
   <rect x="343"
         y="33"
         width="58"
         height="32"
         class="terminal"
         rx="10"/>
   <text class="terminal" x="353" y="53">PLAN</text>
   <rect x="151" y="211" width="106" height="32" rx="10"/>
   <rect x="149"
         y="209"
         width="106"
         height="32"
         class="terminal"
         rx="10"/>
   <text class="terminal" x="159" y="229">TIMESTAMP</text>
   <rect x="45" y="321" width="68" height="32" rx="10"/>
   <rect x="43"
         y="319"
         width="68"
         height="32"
         class="terminal"
         rx="10"/>
   <text class="terminal" x="53" y="339">WITH (</text>
   <rect x="153" y="321" width="124" height="32"/>
   <rect x="151" y="319" width="124" height="32" class="nonterminal"/>
   <text class="nonterminal" x="161" y="339">output_modifier</text>
   <rect x="153" y="277" width="24" height="32" rx="10"/>
   <rect x="151"
         y="275"
         width="24"
         height="32"
         class="terminal"
         rx="10"/>
   <text class="terminal" x="161" y="295">,</text>
   <rect x="317" y="321" width="26" height="32" rx="10"/>
   <rect x="315"
         y="319"
         width="26"
         height="32"
         class="terminal"
         rx="10"/>
   <text class="terminal" x="325" y="339">)</text>
   <rect x="403" y="353" width="40" height="32" rx="10"/>
   <rect x="401"
         y="351"
         width="40"
         height="32"
         class="terminal"
         rx="10"/>
   <text class="terminal" x="411" y="371">AS</text>
   <rect x="483" y="353" width="56" height="32" rx="10"/>
   <rect x="481"
         y="351"
         width="56"
         height="32"
         class="terminal"
         rx="10"/>
   <text class="terminal" x="491" y="371">TEXT</text>
   <rect x="483" y="397" width="58" height="32" rx="10"/>
   <rect x="481"
         y="395"
         width="58"
         height="32"
         class="terminal"
         rx="10"/>
   <text class="terminal" x="491" y="415">JSON</text>
   <rect x="129" y="495" width="48" height="32" rx="10"/>
   <rect x="127"
         y="493"
         width="48"
         height="32"
         class="terminal"
         rx="10"/>
   <text class="terminal" x="137" y="513">FOR</text>
   <rect x="237" y="463" width="96" height="32"/>
   <rect x="235" y="461" width="96" height="32" class="nonterminal"/>
   <text class="nonterminal" x="245" y="481">select_stmt</text>
   <rect x="257" y="507" width="58" height="32" rx="10"/>
   <rect x="255"
         y="505"
         width="58"
         height="32"
         class="terminal"
         rx="10"/>
   <text class="terminal" x="265" y="525">VIEW</text>
   <rect x="257" y="551" width="166" height="32" rx="10"/>
   <rect x="255"
         y="549"
         width="166"
         height="32"
         class="terminal"
         rx="10"/>
   <text class="terminal" x="265" y="569">MATERIALIZED VIEW</text>
   <rect x="463" y="507" width="92" height="32"/>
   <rect x="461" y="505" width="92" height="32" class="nonterminal"/>
   <text class="nonterminal" x="471" y="525">view_name</text>
   <path class="line"
         d="m17 17 h2 m0 0 h10 m80 0 h10 m20 0 h10 m0 0 h262 m-292 0 h20 m272 0 h20 m-312 0 q10 0 10 10 m292 0 q0 -10 10 -10 m-302 10 v12 m292 0 v-12 m-292 12 q0 10 10 10 m272 0 q10 0 10 -10 m-262 10 h10 m54 0 h10 m0 0 h80 m-174 0 h20 m154 0 h20 m-194 0 q10 0 10 10 m174 0 q0 -10 10 -10 m-184 10 v24 m174 0 v-24 m-174 24 q0 10 10 10 m154 0 q10 0 10 -10 m-164 10 h10 m134 0 h10 m-164 -10 v20 m174 0 v-20 m-174 20 v24 m174 0 v-24 m-174 24 q0 10 10 10 m154 0 q10 0 10 -10 m-164 10 h10 m98 0 h10 m0 0 h36 m-164 -10 v20 m174 0 v-20 m-174 20 v24 m174 0 v-24 m-174 24 q0 10 10 10 m154 0 q10 0 10 -10 m-164 10 h10 m92 0 h10 m0 0 h42 m20 -132 h10 m58 0 h10 m-282 -10 v20 m292 0 v-20 m-292 20 v156 m292 0 v-156 m-292 156 q0 10 10 10 m272 0 q10 0 10 -10 m-282 10 h10 m106 0 h10 m0 0 h146 m22 -208 l2 0 m2 0 l2 0 m2 0 l2 0 m-442 318 l2 0 m2 0 l2 0 m2 0 l2 0 m22 0 h10 m68 0 h10 m20 0 h10 m124 0 h10 m-164 0 l20 0 m-1 0 q-9 0 -9 -10 l0 -24 q0 -10 10 -10 m144 44 l20 0 m-20 0 q10 0 10 -10 l0 -24 q0 -10 -10 -10 m-144 0 h10 m24 0 h10 m0 0 h100 m20 44 h10 m26 0 h10 m-338 0 h20 m318 0 h20 m-358 0 q10 0 10 10 m338 0 q0 -10 10 -10 m-348 10 v14 m338 0 v-14 m-338 14 q0 10 10 10 m318 0 q10 0 10 -10 m-328 10 h10 m0 0 h308 m40 -34 h10 m0 0 h168 m-198 0 h20 m178 0 h20 m-218 0 q10 0 10 10 m198 0 q0 -10 10 -10 m-208 10 v12 m198 0 v-12 m-198 12 q0 10 10 10 m178 0 q10 0 10 -10 m-188 10 h10 m40 0 h10 m20 0 h10 m56 0 h10 m0 0 h2 m-98 0 h20 m78 0 h20 m-118 0 q10 0 10 10 m98 0 q0 -10 10 -10 m-108 10 v24 m98 0 v-24 m-98 24 q0 10 10 10 m78 0 q10 0 10 -10 m-88 10 h10 m58 0 h10 m42 -76 l2 0 m2 0 l2 0 m2 0 l2 0 m-516 142 l2 0 m2 0 l2 0 m2 0 l2 0 m22 0 h10 m0 0 h58 m-88 0 h20 m68 0 h20 m-108 0 q10 0 10 10 m88 0 q0 -10 10 -10 m-98 10 v12 m88 0 v-12 m-88 12 q0 10 10 10 m68 0 q10 0 10 -10 m-78 10 h10 m48 0 h10 m40 -32 h10 m96 0 h10 m0 0 h222 m-358 0 h20 m338 0 h20 m-378 0 q10 0 10 10 m358 0 q0 -10 10 -10 m-368 10 v24 m358 0 v-24 m-358 24 q0 10 10 10 m338 0 q10 0 10 -10 m-328 10 h10 m58 0 h10 m0 0 h108 m-206 0 h20 m186 0 h20 m-226 0 q10 0 10 10 m206 0 q0 -10 10 -10 m-216 10 v24 m206 0 v-24 m-206 24 q0 10 10 10 m186 0 q10 0 10 -10 m-196 10 h10 m166 0 h10 m20 -44 h10 m92 0 h10 m23 -44 h-3"/>
   <polygon points="593 477 601 473 601 481"/>
   <polygon points="593 477 585 473 585 481"/>
</svg>
