<svg xmlns="http://www.w3.org/2000/svg" width="603" height="781">
   <polygon points="9 17 1 13 1 21"/>
   <polygon points="17 17 9 13 9 21"/>
   <rect x="31" y="3" width="80" height="32" rx="10"/>
   <rect x="29"
         y="1"
         width="80"
         height="32"
         class="terminal"
         rx="10"/>
   <text class="terminal" x="39" y="21">EXPLAIN</text>
   <rect x="171" y="67" width="54" height="32" rx="10"/>
   <rect x="169"
         y="65"
         width="54"
         height="32"
         class="terminal"
         rx="10"/>
   <text class="terminal" x="179" y="85">RAW</text>
   <rect x="171" y="111" width="134" height="32" rx="10"/>
   <rect x="169"
         y="109"
         width="134"
         height="32"
         class="terminal"
         rx="10"/>
   <text class="terminal" x="179" y="129">DECORRELATED</text>
   <rect x="191" y="187" width="86" height="32" rx="10"/>
   <rect x="189"
         y="185"
         width="86"
         height="32"
         class="terminal"
         rx="10"/>
   <text class="terminal" x="199" y="205">LOCALLY</text>
   <rect x="317" y="155" width="98" height="32" rx="10"/>
   <rect x="315"
         y="153"
         width="98"
         height="32"
         class="terminal"
         rx="10"/>
   <text class="terminal" x="325" y="173">OPTIMIZED</text>
   <rect x="171" y="231" width="92" height="32" rx="10"/>
   <rect x="169"
         y="229"
         width="92"
         height="32"
         class="terminal"
         rx="10"/>
   <text class="terminal" x="179" y="249">PHYSICAL</text>
   <rect x="455" y="35" width="58" height="32" rx="10"/>
   <rect x="453"
         y="33"
         width="58"
         height="32"
         class="terminal"
         rx="10"/>
   <text class="terminal" x="463" y="53">PLAN</text>
   <rect x="45" y="341" width="68" height="32" rx="10"/>
   <rect x="43"
         y="339"
         width="68"
         height="32"
         class="terminal"
         rx="10"/>
   <text class="terminal" x="53" y="359">WITH (</text>
   <rect x="153" y="341" width="124" height="32"/>
   <rect x="151" y="339" width="124" height="32" class="nonterminal"/>
   <text class="nonterminal" x="161" y="359">output_modifier</text>
   <rect x="153" y="297" width="24" height="32" rx="10"/>
   <rect x="151"
         y="295"
         width="24"
         height="32"
         class="terminal"
         rx="10"/>
   <text class="terminal" x="161" y="315">,</text>
   <rect x="317" y="341" width="26" height="32" rx="10"/>
   <rect x="315"
         y="339"
         width="26"
         height="32"
         class="terminal"
         rx="10"/>
   <text class="terminal" x="325" y="359">)</text>
   <rect x="403" y="373" width="40" height="32" rx="10"/>
   <rect x="401"
         y="371"
         width="40"
         height="32"
         class="terminal"
         rx="10"/>
   <text class="terminal" x="411" y="391">AS</text>
   <rect x="483" y="373" width="56" height="32" rx="10"/>
   <rect x="481"
         y="371"
         width="56"
         height="32"
         class="terminal"
         rx="10"/>
   <text class="terminal" x="491" y="391">TEXT</text>
   <rect x="483" y="417" width="58" height="32" rx="10"/>
   <rect x="481"
         y="415"
         width="58"
         height="32"
         class="terminal"
         rx="10"/>
   <text class="terminal" x="491" y="435">JSON</text>
   <rect x="165" y="515" width="48" height="32" rx="10"/>
   <rect x="163"
         y="513"
         width="48"
         height="32"
         class="terminal"
         rx="10"/>
   <text class="terminal" x="173" y="533">FOR</text>
   <rect x="273" y="483" width="96" height="32"/>
   <rect x="271" y="481" width="96" height="32" class="nonterminal"/>
   <text class="nonterminal" x="281" y="501">select_stmt</text>
   <rect x="273" y="527" width="98" height="32"/>
   <rect x="271" y="525" width="98" height="32" class="nonterminal"/>
   <text class="nonterminal" x="281" y="545">create_view</text>
   <rect x="273" y="571" width="104" height="32"/>
   <rect x="271" y="569" width="104" height="32" class="nonterminal"/>
   <text class="nonterminal" x="281" y="589">create_index</text>
   <rect x="273" y="615" width="186" height="32"/>
   <rect x="271" y="613" width="186" height="32" class="nonterminal"/>
   <text class="nonterminal" x="281" y="633">create_materialized_view</text>
   <rect x="293" y="659" width="58" height="32" rx="10"/>
   <rect x="291"
         y="657"
         width="58"
         height="32"
         class="terminal"
         rx="10"/>
   <text class="terminal" x="301" y="677">VIEW</text>
   <rect x="293" y="703" width="62" height="32" rx="10"/>
   <rect x="291"
         y="701"
         width="62"
         height="32"
         class="terminal"
         rx="10"/>
   <text class="terminal" x="301" y="721">INDEX</text>
   <rect x="293" y="747" width="166" height="32" rx="10"/>
   <rect x="291"
         y="745"
         width="166"
         height="32"
         class="terminal"
         rx="10"/>
   <text class="terminal" x="301" y="765">MATERIALIZED VIEW</text>
   <rect x="499" y="659" width="56" height="32"/>
   <rect x="497" y="657" width="56" height="32" class="nonterminal"/>
   <text class="nonterminal" x="507" y="677">name</text>
   <path class="line"
         d="m17 17 h2 m0 0 h10 m80 0 h10 m20 0 h10 m0 0 h372 m-402 0 h20 m382 0 h20 m-422 0 q10 0 10 10 m402 0 q0 -10 10 -10 m-412 10 v12 m402 0 v-12 m-402 12 q0 10 10 10 m382 0 q10 0 10 -10 m-372 10 h10 m0 0 h254 m-284 0 h20 m264 0 h20 m-304 0 q10 0 10 10 m284 0 q0 -10 10 -10 m-294 10 v12 m284 0 v-12 m-284 12 q0 10 10 10 m264 0 q10 0 10 -10 m-274 10 h10 m54 0 h10 m0 0 h190 m-274 -10 v20 m284 0 v-20 m-284 20 v24 m284 0 v-24 m-284 24 q0 10 10 10 m264 0 q10 0 10 -10 m-274 10 h10 m134 0 h10 m0 0 h110 m-274 -10 v20 m284 0 v-20 m-284 20 v24 m284 0 v-24 m-284 24 q0 10 10 10 m264 0 q10 0 10 -10 m-254 10 h10 m0 0 h96 m-126 0 h20 m106 0 h20 m-146 0 q10 0 10 10 m126 0 q0 -10 10 -10 m-136 10 v12 m126 0 v-12 m-126 12 q0 10 10 10 m106 0 q10 0 10 -10 m-116 10 h10 m86 0 h10 m20 -32 h10 m98 0 h10 m-274 -10 v20 m284 0 v-20 m-284 20 v56 m284 0 v-56 m-284 56 q0 10 10 10 m264 0 q10 0 10 -10 m-274 10 h10 m92 0 h10 m0 0 h152 m20 -196 h10 m58 0 h10 m22 -32 l2 0 m2 0 l2 0 m2 0 l2 0 m-552 338 l2 0 m2 0 l2 0 m2 0 l2 0 m22 0 h10 m68 0 h10 m20 0 h10 m124 0 h10 m-164 0 l20 0 m-1 0 q-9 0 -9 -10 l0 -24 q0 -10 10 -10 m144 44 l20 0 m-20 0 q10 0 10 -10 l0 -24 q0 -10 -10 -10 m-144 0 h10 m24 0 h10 m0 0 h100 m20 44 h10 m26 0 h10 m-338 0 h20 m318 0 h20 m-358 0 q10 0 10 10 m338 0 q0 -10 10 -10 m-348 10 v14 m338 0 v-14 m-338 14 q0 10 10 10 m318 0 q10 0 10 -10 m-328 10 h10 m0 0 h308 m40 -34 h10 m0 0 h168 m-198 0 h20 m178 0 h20 m-218 0 q10 0 10 10 m198 0 q0 -10 10 -10 m-208 10 v12 m198 0 v-12 m-198 12 q0 10 10 10 m178 0 q10 0 10 -10 m-188 10 h10 m40 0 h10 m20 0 h10 m56 0 h10 m0 0 h2 m-98 0 h20 m78 0 h20 m-118 0 q10 0 10 10 m98 0 q0 -10 10 -10 m-108 10 v24 m98 0 v-24 m-98 24 q0 10 10 10 m78 0 q10 0 10 -10 m-88 10 h10 m58 0 h10 m42 -76 l2 0 m2 0 l2 0 m2 0 l2 0 m-480 142 l2 0 m2 0 l2 0 m2 0 l2 0 m22 0 h10 m0 0 h58 m-88 0 h20 m68 0 h20 m-108 0 q10 0 10 10 m88 0 q0 -10 10 -10 m-98 10 v12 m88 0 v-12 m-88 12 q0 10 10 10 m68 0 q10 0 10 -10 m-78 10 h10 m48 0 h10 m40 -32 h10 m96 0 h10 m0 0 h186 m-322 0 h20 m302 0 h20 m-342 0 q10 0 10 10 m322 0 q0 -10 10 -10 m-332 10 v24 m322 0 v-24 m-322 24 q0 10 10 10 m302 0 q10 0 10 -10 m-312 10 h10 m98 0 h10 m0 0 h184 m-312 -10 v20 m322 0 v-20 m-322 20 v24 m322 0 v-24 m-322 24 q0 10 10 10 m302 0 q10 0 10 -10 m-312 10 h10 m104 0 h10 m0 0 h178 m-312 -10 v20 m322 0 v-20 m-322 20 v24 m322 0 v-24 m-322 24 q0 10 10 10 m302 0 q10 0 10 -10 m-312 10 h10 m186 0 h10 m0 0 h96 m-312 -10 v20 m322 0 v-20 m-322 20 v24 m322 0 v-24 m-322 24 q0 10 10 10 m302 0 q10 0 10 -10 m-292 10 h10 m58 0 h10 m0 0 h108 m-206 0 h20 m186 0 h20 m-226 0 q10 0 10 10 m206 0 q0 -10 10 -10 m-216 10 v24 m206 0 v-24 m-206 24 q0 10 10 10 m186 0 q10 0 10 -10 m-196 10 h10 m62 0 h10 m0 0 h104 m-196 -10 v20 m206 0 v-20 m-206 20 v24 m206 0 v-24 m-206 24 q0 10 10 10 m186 0 q10 0 10 -10 m-196 10 h10 m166 0 h10 m20 -88 h10 m56 0 h10 m23 -176 h-3"/>
   <polygon points="593 497 601 493 601 501"/>
   <polygon points="593 497 585 493 585 501"/>
</svg>
