<svg xmlns="http://www.w3.org/2000/svg" width="573" height="179">
   <polygon points="9 17 1 13 1 21"/>
   <polygon points="17 17 9 13 9 21"/>
   <rect x="31" y="3" width="80" height="32" rx="10"/>
   <rect x="29"
         y="1"
         width="80"
         height="32"
         class="terminal"
         rx="10"/>
   <text class="terminal" x="39" y="21">EXPLAIN</text>
   <rect x="151" y="3" width="48" height="32" rx="10"/>
   <rect x="149"
         y="1"
         width="48"
         height="32"
         class="terminal"
         rx="10"/>
   <text class="terminal" x="159" y="21">KEY</text>
   <rect x="151" y="47" width="68" height="32" rx="10"/>
   <rect x="149"
         y="45"
         width="68"
         height="32"
         class="terminal"
         rx="10"/>
   <text class="terminal" x="159" y="65">VALUE</text>
   <rect x="259" y="3" width="82" height="32" rx="10"/>
   <rect x="257"
         y="1"
         width="82"
         height="32"
         class="terminal"
         rx="10"/>
   <text class="terminal" x="267" y="21">SCHEMA</text>
   <rect x="381" y="35" width="82" height="32" rx="10"/>
   <rect x="379"
         y="33"
         width="82"
         height="32"
         class="terminal"
         rx="10"/>
   <text class="terminal" x="389" y="53">AS JSON</text>
   <rect x="503" y="3" width="48" height="32" rx="10"/>
   <rect x="501"
         y="1"
         width="48"
         height="32"
         class="terminal"
         rx="10"/>
   <text class="terminal" x="511" y="21">FOR</text>
   <rect x="53" y="113" width="114" height="32" rx="10"/>
   <rect x="51"
         y="111"
         width="114"
         height="32"
         class="terminal"
         rx="10"/>
   <text class="terminal" x="61" y="131">CREATE SINK</text>
   <rect x="207" y="145" width="116" height="32"/>
   <rect x="205" y="143" width="116" height="32" class="nonterminal"/>
   <text class="nonterminal" x="215" y="163">optional_name</text>
   <rect x="363" y="113" width="182" height="32"/>
   <rect x="361" y="111" width="182" height="32" class="nonterminal"/>
   <text class="nonterminal" x="371" y="131">rest_of_create_sink_stmt</text>
   <path class="line"
         d="m17 17 h2 m0 0 h10 m80 0 h10 m20 0 h10 m48 0 h10 m0 0 h20 m-108 0 h20 m88 0 h20 m-128 0 q10 0 10 10 m108 0 q0 -10 10 -10 m-118 10 v24 m108 0 v-24 m-108 24 q0 10 10 10 m88 0 q10 0 10 -10 m-98 10 h10 m68 0 h10 m20 -44 h10 m82 0 h10 m20 0 h10 m0 0 h92 m-122 0 h20 m102 0 h20 m-142 0 q10 0 10 10 m122 0 q0 -10 10 -10 m-132 10 v12 m122 0 v-12 m-122 12 q0 10 10 10 m102 0 q10 0 10 -10 m-112 10 h10 m82 0 h10 m20 -32 h10 m48 0 h10 m2 0 l2 0 m2 0 l2 0 m2 0 l2 0 m-542 110 l2 0 m2 0 l2 0 m2 0 l2 0 m2 0 h10 m114 0 h10 m20 0 h10 m0 0 h126 m-156 0 h20 m136 0 h20 m-176 0 q10 0 10 10 m156 0 q0 -10 10 -10 m-166 10 v12 m156 0 v-12 m-156 12 q0 10 10 10 m136 0 q10 0 10 -10 m-146 10 h10 m116 0 h10 m20 -32 h10 m182 0 h10 m3 0 h-3"/>
   <polygon points="563 127 571 123 571 131"/>
   <polygon points="563 127 555 123 555 131"/>
</svg>
