<svg xmlns="http://www.w3.org/2000/svg" width="563" height="311">
   <polygon points="9 17 1 13 1 21"/>
   <polygon points="17 17 9 13 9 21"/>
   <rect x="31" y="3" width="78" height="32" rx="10"/>
   <rect x="29"
         y="1"
         width="78"
         height="32"
         class="terminal"
         rx="10"/>
   <text class="terminal" x="39" y="21">EXPLAIN</text>
   <rect x="149" y="3" width="48" height="32" rx="10"/>
   <rect x="147"
         y="1"
         width="48"
         height="32"
         class="terminal"
         rx="10"/>
   <text class="terminal" x="157" y="21">SQL</text>
   <rect x="169" y="79" width="64" height="32" rx="10"/>
   <rect x="167"
         y="77"
         width="64"
         height="32"
         class="terminal"
         rx="10"/>
   <text class="terminal" x="177" y="97">TYPED</text>
   <rect x="293" y="79" width="52" height="32" rx="10"/>
   <rect x="291"
         y="77"
         width="52"
         height="32"
         class="terminal"
         rx="10"/>
   <text class="terminal" x="301" y="97">RAW</text>
   <rect x="293" y="123" width="132" height="32" rx="10"/>
   <rect x="291"
         y="121"
         width="132"
         height="32"
         class="terminal"
         rx="10"/>
   <text class="terminal" x="301" y="141">DECORRELATED</text>
   <rect x="293" y="167" width="96" height="32" rx="10"/>
   <rect x="291"
         y="165"
         width="96"
         height="32"
         class="terminal"
         rx="10"/>
   <text class="terminal" x="301" y="185">OPTIMIZED</text>
   <rect x="465" y="47" width="56" height="32" rx="10"/>
   <rect x="463"
         y="45"
         width="56"
         height="32"
         class="terminal"
         rx="10"/>
   <text class="terminal" x="473" y="65">PLAN</text>
   <rect x="265" y="233" width="48" height="32" rx="10"/>
   <rect x="263"
         y="231"
         width="48"
         height="32"
         class="terminal"
         rx="10"/>
   <text class="terminal" x="273" y="251">FOR</text>
   <rect x="353" y="233" width="90" height="32"/>
   <rect x="351" y="231" width="90" height="32" class="nonterminal"/>
   <text class="nonterminal" x="361" y="251">select_stmt</text>
   <rect x="353" y="277" width="54" height="32" rx="10"/>
   <rect x="351"
         y="275"
         width="54"
         height="32"
         class="terminal"
         rx="10"/>
   <text class="terminal" x="361" y="295">VIEW</text>
   <rect x="427" y="277" width="88" height="32"/>
   <rect x="425" y="275" width="88" height="32" class="nonterminal"/>
   <text class="nonterminal" x="435" y="295">view_name</text>
   <path class="line"
         d="m17 17 h2 m0 0 h10 m78 0 h10 m20 0 h10 m48 0 h10 m0 0 h324 m-412 0 h20 m392 0 h20 m-432 0 q10 0 10 10 m412 0 q0 -10 10 -10 m-422 10 v24 m412 0 v-24 m-412 24 q0 10 10 10 m392 0 q10 0 10 -10 m-382 10 h10 m0 0 h74 m-104 0 h20 m84 0 h20 m-124 0 q10 0 10 10 m104 0 q0 -10 10 -10 m-114 10 v12 m104 0 v-12 m-104 12 q0 10 10 10 m84 0 q10 0 10 -10 m-94 10 h10 m64 0 h10 m40 -32 h10 m0 0 h142 m-172 0 h20 m152 0 h20 m-192 0 q10 0 10 10 m172 0 q0 -10 10 -10 m-182 10 v12 m172 0 v-12 m-172 12 q0 10 10 10 m152 0 q10 0 10 -10 m-162 10 h10 m52 0 h10 m0 0 h80 m-162 -10 v20 m172 0 v-20 m-172 20 v24 m172 0 v-24 m-172 24 q0 10 10 10 m152 0 q10 0 10 -10 m-162 10 h10 m132 0 h10 m-162 -10 v20 m172 0 v-20 m-172 20 v24 m172 0 v-24 m-172 24 q0 10 10 10 m152 0 q10 0 10 -10 m-162 10 h10 m96 0 h10 m0 0 h36 m20 -120 h10 m56 0 h10 m22 -44 l2 0 m2 0 l2 0 m2 0 l2 0 m-320 230 l2 0 m2 0 l2 0 m2 0 l2 0 m2 0 h10 m48 0 h10 m20 0 h10 m90 0 h10 m0 0 h72 m-202 0 h20 m182 0 h20 m-222 0 q10 0 10 10 m202 0 q0 -10 10 -10 m-212 10 v24 m202 0 v-24 m-202 24 q0 10 10 10 m182 0 q10 0 10 -10 m-192 10 h10 m54 0 h10 m0 0 h10 m88 0 h10 m23 -44 h-3"/>
   <polygon points="553 247 561 243 561 251"/>
   <polygon points="553 247 545 243 545 251"/>
</svg>
