<svg xmlns="http://www.w3.org/2000/svg" width="595" height="299">
   <polygon points="9 17 1 13 1 21"/>
   <polygon points="17 17 9 13 9 21"/>
   <rect x="31" y="3" width="78" height="32" rx="10"/>
   <rect x="29"
         y="1"
         width="78"
         height="32"
         class="terminal"
         rx="10"/>
   <text class="terminal" x="39" y="21">EXPLAIN</text>
   <rect x="149" y="35" width="64" height="32" rx="10"/>
   <rect x="147"
         y="33"
         width="64"
         height="32"
         class="terminal"
         rx="10"/>
   <text class="terminal" x="157" y="53">TYPED</text>
   <rect x="293" y="67" width="52" height="32" rx="10"/>
   <rect x="291"
         y="65"
         width="52"
         height="32"
         class="terminal"
         rx="10"/>
   <text class="terminal" x="301" y="85">RAW</text>
   <rect x="293" y="111" width="132" height="32" rx="10"/>
   <rect x="291"
         y="109"
         width="132"
         height="32"
         class="terminal"
         rx="10"/>
   <text class="terminal" x="301" y="129">DECORRELATED</text>
   <rect x="293" y="155" width="96" height="32" rx="10"/>
   <rect x="291"
         y="153"
         width="96"
         height="32"
         class="terminal"
         rx="10"/>
   <text class="terminal" x="301" y="173">OPTIMIZED</text>
   <rect x="465" y="35" width="88" height="32" rx="10"/>
   <rect x="463"
         y="33"
         width="88"
         height="32"
         class="terminal"
         rx="10"/>
   <text class="terminal" x="473" y="53">PLAN FOR</text>
   <rect x="385" y="221" width="90" height="32"/>
   <rect x="383" y="219" width="90" height="32" class="nonterminal"/>
   <text class="nonterminal" x="393" y="239">select_stmt</text>
   <rect x="385" y="265" width="54" height="32" rx="10"/>
   <rect x="383"
         y="263"
         width="54"
         height="32"
         class="terminal"
         rx="10"/>
   <text class="terminal" x="393" y="283">VIEW</text>
   <rect x="459" y="265" width="88" height="32"/>
   <rect x="457" y="263" width="88" height="32" class="nonterminal"/>
   <text class="nonterminal" x="467" y="283">view_name</text>
   <path class="line"
         d="m17 17 h2 m0 0 h10 m78 0 h10 m20 0 h10 m0 0 h74 m-104 0 h20 m84 0 h20 m-124 0 q10 0 10 10 m104 0 q0 -10 10 -10 m-114 10 v12 m104 0 v-12 m-104 12 q0 10 10 10 m84 0 q10 0 10 -10 m-94 10 h10 m64 0 h10 m40 -32 h10 m0 0 h290 m-320 0 h20 m300 0 h20 m-340 0 q10 0 10 10 m320 0 q0 -10 10 -10 m-330 10 v12 m320 0 v-12 m-320 12 q0 10 10 10 m300 0 q10 0 10 -10 m-290 10 h10 m0 0 h142 m-172 0 h20 m152 0 h20 m-192 0 q10 0 10 10 m172 0 q0 -10 10 -10 m-182 10 v12 m172 0 v-12 m-172 12 q0 10 10 10 m152 0 q10 0 10 -10 m-162 10 h10 m52 0 h10 m0 0 h80 m-162 -10 v20 m172 0 v-20 m-172 20 v24 m172 0 v-24 m-172 24 q0 10 10 10 m152 0 q10 0 10 -10 m-162 10 h10 m132 0 h10 m-162 -10 v20 m172 0 v-20 m-172 20 v24 m172 0 v-24 m-172 24 q0 10 10 10 m152 0 q10 0 10 -10 m-162 10 h10 m96 0 h10 m0 0 h36 m20 -120 h10 m88 0 h10 m22 -32 l2 0 m2 0 l2 0 m2 0 l2 0 m-252 218 l2 0 m2 0 l2 0 m2 0 l2 0 m22 0 h10 m90 0 h10 m0 0 h72 m-202 0 h20 m182 0 h20 m-222 0 q10 0 10 10 m202 0 q0 -10 10 -10 m-212 10 v24 m202 0 v-24 m-202 24 q0 10 10 10 m182 0 q10 0 10 -10 m-192 10 h10 m54 0 h10 m0 0 h10 m88 0 h10 m23 -44 h-3"/>
   <polygon points="585 235 593 231 593 239"/>
   <polygon points="585 235 577 231 577 239"/>
</svg>
