<svg xmlns="http://www.w3.org/2000/svg" width="341" height="147">
   <polygon points="9 17 1 13 1 21"/>
   <polygon points="17 17 9 13 9 21"/>
   <rect x="31" y="3" width="220" height="32" rx="10"/>
   <rect x="29"
         y="1"
         width="220"
         height="32"
         class="terminal"
         rx="10"/>
   <text class="terminal" x="39" y="21">EXPLAIN FILTER PUSHDOWN</text>
   <rect x="271" y="3" width="48" height="32" rx="10"/>
   <rect x="269"
         y="1"
         width="48"
         height="32"
         class="terminal"
         rx="10"/>
   <text class="terminal" x="279" y="21">FOR</text>
   <rect x="51" y="69" width="96" height="32"/>
   <rect x="49" y="67" width="96" height="32" class="nonterminal"/>
   <text class="nonterminal" x="59" y="87">select_stmt</text>
   <rect x="51" y="113" width="166" height="32" rx="10"/>
   <rect x="49"
         y="111"
         width="166"
         height="32"
         class="terminal"
         rx="10"/>
   <text class="terminal" x="59" y="131">MATERIALIZED VIEW</text>
   <rect x="237" y="113" width="56" height="32"/>
   <rect x="235" y="111" width="56" height="32" class="nonterminal"/>
   <text class="nonterminal" x="245" y="131">name</text>
   <path class="line"
         d="m17 17 h2 m0 0 h10 m220 0 h10 m0 0 h10 m48 0 h10 m2 0 l2 0 m2 0 l2 0 m2 0 l2 0 m-332 66 l2 0 m2 0 l2 0 m2 0 l2 0 m22 0 h10 m96 0 h10 m0 0 h146 m-282 0 h20 m262 0 h20 m-302 0 q10 0 10 10 m282 0 q0 -10 10 -10 m-292 10 v24 m282 0 v-24 m-282 24 q0 10 10 10 m262 0 q10 0 10 -10 m-272 10 h10 m166 0 h10 m0 0 h10 m56 0 h10 m23 -44 h-3"/>
   <polygon points="331 83 339 79 339 87"/>
   <polygon points="331 83 323 79 323 87"/>
</svg>
