<svg xmlns="http://www.w3.org/2000/svg" width="641" height="337">
   <polygon points="11 17 3 13 3 21"/>
   <polygon points="19 17 11 13 11 21"/>
   <rect x="33" y="3" width="66" height="32" rx="10"/>
   <rect x="31"
         y="1"
         width="66"
         height="32"
         class="terminal"
         rx="10"/>
   <text class="terminal" x="41" y="21">FETCH</text>
   <rect x="139" y="35" width="90" height="32" rx="10"/>
   <rect x="137"
         y="33"
         width="90"
         height="32"
         class="terminal"
         rx="10"/>
   <text class="terminal" x="147" y="53">FORWARD</text>
   <rect x="289" y="35" width="44" height="32" rx="10"/>
   <rect x="287"
         y="33"
         width="44"
         height="32"
         class="terminal"
         rx="10"/>
   <text class="terminal" x="297" y="53">ALL</text>
   <rect x="289" y="79" width="54" height="32"/>
   <rect x="287" y="77" width="54" height="32" class="nonterminal"/>
   <text class="nonterminal" x="297" y="97">count</text>
   <rect x="403" y="35" width="60" height="32" rx="10"/>
   <rect x="401"
         y="33"
         width="60"
         height="32"
         class="terminal"
         rx="10"/>
   <text class="terminal" x="411" y="53">FROM</text>
   <rect x="273" y="145" width="100" height="32"/>
   <rect x="271" y="143" width="100" height="32" class="nonterminal"/>
   <text class="nonterminal" x="281" y="163">cursor_name</text>
   <rect x="65" y="287" width="56" height="32" rx="10"/>
   <rect x="63"
         y="285"
         width="56"
         height="32"
         class="terminal"
         rx="10"/>
   <text class="terminal" x="73" y="305">WITH</text>
   <rect x="161" y="255" width="24" height="32" rx="10"/>
   <rect x="159"
         y="253"
         width="24"
         height="32"
         class="terminal"
         rx="10"/>
   <text class="terminal" x="169" y="273">(</text>
   <rect x="225" y="255" width="100" height="32"/>
   <rect x="223" y="253" width="100" height="32" class="nonterminal"/>
   <text class="nonterminal" x="233" y="273">option_name</text>
   <rect x="365" y="287" width="26" height="32" rx="10"/>
   <rect x="363"
         y="285"
         width="26"
         height="32"
         class="terminal"
         rx="10"/>
   <text class="terminal" x="373" y="305">=</text>
   <rect x="411" y="287" width="98" height="32"/>
   <rect x="409" y="285" width="98" height="32" class="nonterminal"/>
   <text class="nonterminal" x="419" y="305">option_value</text>
   <rect x="225" y="211" width="24" height="32" rx="10"/>
   <rect x="223"
         y="209"
         width="24"
         height="32"
         class="terminal"
         rx="10"/>
   <text class="terminal" x="233" y="229">,</text>
   <rect x="569" y="255" width="24" height="32" rx="10"/>
   <rect x="567"
         y="253"
         width="24"
         height="32"
         class="terminal"
         rx="10"/>
   <text class="terminal" x="577" y="273">)</text>
   <path class="line"
         d="m19 17 h2 m0 0 h10 m66 0 h10 m20 0 h10 m0 0 h100 m-130 0 h20 m110 0 h20 m-150 0 q10 0 10 10 m130 0 q0 -10 10 -10 m-140 10 v12 m130 0 v-12 m-130 12 q0 10 10 10 m110 0 q10 0 10 -10 m-120 10 h10 m90 0 h10 m40 -32 h10 m0 0 h64 m-94 0 h20 m74 0 h20 m-114 0 q10 0 10 10 m94 0 q0 -10 10 -10 m-104 10 v12 m94 0 v-12 m-94 12 q0 10 10 10 m74 0 q10 0 10 -10 m-84 10 h10 m44 0 h10 m0 0 h10 m-84 -10 v20 m94 0 v-20 m-94 20 v24 m94 0 v-24 m-94 24 q0 10 10 10 m74 0 q10 0 10 -10 m-84 10 h10 m54 0 h10 m40 -76 h10 m0 0 h70 m-100 0 h20 m80 0 h20 m-120 0 q10 0 10 10 m100 0 q0 -10 10 -10 m-110 10 v12 m100 0 v-12 m-100 12 q0 10 10 10 m80 0 q10 0 10 -10 m-90 10 h10 m60 0 h10 m22 -32 l2 0 m2 0 l2 0 m2 0 l2 0 m-254 142 l2 0 m2 0 l2 0 m2 0 l2 0 m2 0 h10 m100 0 h10 m2 0 l2 0 m2 0 l2 0 m2 0 l2 0 m-392 110 l2 0 m2 0 l2 0 m2 0 l2 0 m42 0 h10 m0 0 h66 m-96 0 h20 m76 0 h20 m-116 0 q10 0 10 10 m96 0 q0 -10 10 -10 m-106 10 v12 m96 0 v-12 m-96 12 q0 10 10 10 m76 0 q10 0 10 -10 m-86 10 h10 m56 0 h10 m20 -32 h10 m24 0 h10 m20 0 h10 m100 0 h10 m20 0 h10 m0 0 h154 m-184 0 h20 m164 0 h20 m-204 0 q10 0 10 10 m184 0 q0 -10 10 -10 m-194 10 v12 m184 0 v-12 m-184 12 q0 10 10 10 m164 0 q10 0 10 -10 m-174 10 h10 m26 0 h10 m0 0 h10 m98 0 h10 m-324 -32 l20 0 m-1 0 q-9 0 -9 -10 l0 -24 q0 -10 10 -10 m324 44 l20 0 m-20 0 q10 0 10 -10 l0 -24 q0 -10 -10 -10 m-324 0 h10 m24 0 h10 m0 0 h280 m20 44 h10 m24 0 h10 m-588 0 h20 m568 0 h20 m-608 0 q10 0 10 10 m588 0 q0 -10 10 -10 m-598 10 v46 m588 0 v-46 m-588 46 q0 10 10 10 m568 0 q10 0 10 -10 m-578 10 h10 m0 0 h558 m23 -66 h-3"/>
   <polygon points="631 269 639 265 639 273"/>
   <polygon points="631 269 623 265 623 273"/>
</svg>
