<svg xmlns="http://www.w3.org/2000/svg" width="657" height="337">
   <polygon points="11 17 3 13 3 21"/>
   <polygon points="19 17 11 13 11 21"/>
   <rect x="33" y="3" width="66" height="32" rx="10"/>
   <rect x="31"
         y="1"
         width="66"
         height="32"
         class="terminal"
         rx="10"/>
   <text class="terminal" x="41" y="21">FETCH</text>
   <rect x="139" y="35" width="92" height="32" rx="10"/>
   <rect x="137"
         y="33"
         width="92"
         height="32"
         class="terminal"
         rx="10"/>
   <text class="terminal" x="147" y="53">FORWARD</text>
   <rect x="291" y="35" width="46" height="32" rx="10"/>
   <rect x="289"
         y="33"
         width="46"
         height="32"
         class="terminal"
         rx="10"/>
   <text class="terminal" x="299" y="53">ALL</text>
   <rect x="291" y="79" width="58" height="32"/>
   <rect x="289" y="77" width="58" height="32" class="nonterminal"/>
   <text class="nonterminal" x="299" y="97">count</text>
   <rect x="409" y="35" width="60" height="32" rx="10"/>
   <rect x="407"
         y="33"
         width="60"
         height="32"
         class="terminal"
         rx="10"/>
   <text class="terminal" x="417" y="53">FROM</text>
   <rect x="279" y="145" width="104" height="32"/>
   <rect x="277" y="143" width="104" height="32" class="nonterminal"/>
   <text class="nonterminal" x="287" y="163">cursor_name</text>
   <rect x="65" y="287" width="58" height="32" rx="10"/>
   <rect x="63"
         y="285"
         width="58"
         height="32"
         class="terminal"
         rx="10"/>
   <text class="terminal" x="73" y="305">WITH</text>
   <rect x="163" y="255" width="26" height="32" rx="10"/>
   <rect x="161"
         y="253"
         width="26"
         height="32"
         class="terminal"
         rx="10"/>
   <text class="terminal" x="171" y="273">(</text>
   <rect x="229" y="255" width="104" height="32"/>
   <rect x="227" y="253" width="104" height="32" class="nonterminal"/>
   <text class="nonterminal" x="237" y="273">option_name</text>
   <rect x="373" y="287" width="28" height="32" rx="10"/>
   <rect x="371"
         y="285"
         width="28"
         height="32"
         class="terminal"
         rx="10"/>
   <text class="terminal" x="381" y="305">=</text>
   <rect x="421" y="287" width="102" height="32"/>
   <rect x="419" y="285" width="102" height="32" class="nonterminal"/>
   <text class="nonterminal" x="429" y="305">option_value</text>
   <rect x="229" y="211" width="24" height="32" rx="10"/>
   <rect x="227"
         y="209"
         width="24"
         height="32"
         class="terminal"
         rx="10"/>
   <text class="terminal" x="237" y="229">,</text>
   <rect x="583" y="255" width="26" height="32" rx="10"/>
   <rect x="581"
         y="253"
         width="26"
         height="32"
         class="terminal"
         rx="10"/>
   <text class="terminal" x="591" y="273">)</text>
   <path class="line"
         d="m19 17 h2 m0 0 h10 m66 0 h10 m20 0 h10 m0 0 h102 m-132 0 h20 m112 0 h20 m-152 0 q10 0 10 10 m132 0 q0 -10 10 -10 m-142 10 v12 m132 0 v-12 m-132 12 q0 10 10 10 m112 0 q10 0 10 -10 m-122 10 h10 m92 0 h10 m40 -32 h10 m0 0 h68 m-98 0 h20 m78 0 h20 m-118 0 q10 0 10 10 m98 0 q0 -10 10 -10 m-108 10 v12 m98 0 v-12 m-98 12 q0 10 10 10 m78 0 q10 0 10 -10 m-88 10 h10 m46 0 h10 m0 0 h12 m-88 -10 v20 m98 0 v-20 m-98 20 v24 m98 0 v-24 m-98 24 q0 10 10 10 m78 0 q10 0 10 -10 m-88 10 h10 m58 0 h10 m40 -76 h10 m0 0 h70 m-100 0 h20 m80 0 h20 m-120 0 q10 0 10 10 m100 0 q0 -10 10 -10 m-110 10 v12 m100 0 v-12 m-100 12 q0 10 10 10 m80 0 q10 0 10 -10 m-90 10 h10 m60 0 h10 m22 -32 l2 0 m2 0 l2 0 m2 0 l2 0 m-254 142 l2 0 m2 0 l2 0 m2 0 l2 0 m2 0 h10 m104 0 h10 m2 0 l2 0 m2 0 l2 0 m2 0 l2 0 m-402 110 l2 0 m2 0 l2 0 m2 0 l2 0 m42 0 h10 m0 0 h68 m-98 0 h20 m78 0 h20 m-118 0 q10 0 10 10 m98 0 q0 -10 10 -10 m-108 10 v12 m98 0 v-12 m-98 12 q0 10 10 10 m78 0 q10 0 10 -10 m-88 10 h10 m58 0 h10 m20 -32 h10 m26 0 h10 m20 0 h10 m104 0 h10 m20 0 h10 m0 0 h160 m-190 0 h20 m170 0 h20 m-210 0 q10 0 10 10 m190 0 q0 -10 10 -10 m-200 10 v12 m190 0 v-12 m-190 12 q0 10 10 10 m170 0 q10 0 10 -10 m-180 10 h10 m28 0 h10 m0 0 h10 m102 0 h10 m-334 -32 l20 0 m-1 0 q-9 0 -9 -10 l0 -24 q0 -10 10 -10 m334 44 l20 0 m-20 0 q10 0 10 -10 l0 -24 q0 -10 -10 -10 m-334 0 h10 m24 0 h10 m0 0 h290 m20 44 h10 m26 0 h10 m-604 0 h20 m584 0 h20 m-624 0 q10 0 10 10 m604 0 q0 -10 10 -10 m-614 10 v46 m604 0 v-46 m-604 46 q0 10 10 10 m584 0 q10 0 10 -10 m-594 10 h10 m0 0 h574 m23 -66 h-3"/>
   <polygon points="647 269 655 265 655 273"/>
   <polygon points="647 269 639 265 639 273"/>
</svg>
