<svg xmlns="http://www.w3.org/2000/svg" width="803" height="257">
   <polygon points="11 17 3 13 3 21"/>
   <polygon points="19 17 11 13 11 21"/>
   <rect x="33" y="3" width="58" height="32" rx="10"/>
   <rect x="31"
         y="1"
         width="58"
         height="32"
         class="terminal"
         rx="10"/>
   <text class="terminal" x="41" y="21">AVRO</text>
   <rect x="111" y="3" width="64" height="32" rx="10"/>
   <rect x="109"
         y="1"
         width="64"
         height="32"
         class="terminal"
         rx="10"/>
   <text class="terminal" x="119" y="21">USING</text>
   <rect x="45" y="113" width="240" height="32" rx="10"/>
   <rect x="43"
         y="111"
         width="240"
         height="32"
         class="terminal"
         rx="10"/>
   <text class="terminal" x="53" y="131">CONFLUENT SCHEMA REGISTRY</text>
   <rect x="305" y="113" width="36" height="32"/>
   <rect x="303" y="111" width="36" height="32" class="nonterminal"/>
   <text class="nonterminal" x="313" y="131">url</text>
   <rect x="381" y="113" width="56" height="32" rx="10"/>
   <rect x="379"
         y="111"
         width="56"
         height="32"
         class="terminal"
         rx="10"/>
   <text class="terminal" x="389" y="131">WITH</text>
   <rect x="457" y="113" width="24" height="32" rx="10"/>
   <rect x="455"
         y="111"
         width="24"
         height="32"
         class="terminal"
         rx="10"/>
   <text class="terminal" x="465" y="131">(</text>
   <rect x="521" y="113" width="46" height="32"/>
   <rect x="519" y="111" width="46" height="32" class="nonterminal"/>
   <text class="nonterminal" x="529" y="131">field</text>
   <rect x="587" y="113" width="26" height="32" rx="10"/>
   <rect x="585"
         y="111"
         width="26"
         height="32"
         class="terminal"
         rx="10"/>
   <text class="terminal" x="595" y="131">=</text>
   <rect x="633" y="113" width="38" height="32"/>
   <rect x="631" y="111" width="38" height="32" class="nonterminal"/>
   <text class="nonterminal" x="641" y="131">val</text>
   <rect x="521" y="69" width="24" height="32" rx="10"/>
   <rect x="519"
         y="67"
         width="24"
         height="32"
         class="terminal"
         rx="10"/>
   <text class="terminal" x="529" y="87">,</text>
   <rect x="711" y="113" width="24" height="32" rx="10"/>
   <rect x="709"
         y="111"
         width="24"
         height="32"
         class="terminal"
         rx="10"/>
   <text class="terminal" x="719" y="131">)</text>
   <rect x="45" y="179" width="80" height="32" rx="10"/>
   <rect x="43"
         y="177"
         width="80"
         height="32"
         class="terminal"
         rx="10"/>
   <text class="terminal" x="53" y="197">SCHEMA</text>
   <rect x="165" y="179" width="48" height="32" rx="10"/>
   <rect x="163"
         y="177"
         width="48"
         height="32"
         class="terminal"
         rx="10"/>
   <text class="terminal" x="173" y="197">FILE</text>
   <rect x="233" y="179" width="128" height="32"/>
   <rect x="231" y="177" width="128" height="32" class="nonterminal"/>
   <text class="nonterminal" x="241" y="197">schema_file_path</text>
   <rect x="165" y="223" width="108" height="32"/>
   <rect x="163" y="221" width="108" height="32" class="nonterminal"/>
   <text class="nonterminal" x="173" y="241">inline_schema</text>
   <path class="line"
         d="m19 17 h2 m0 0 h10 m58 0 h10 m0 0 h10 m64 0 h10 m2 0 l2 0 m2 0 l2 0 m2 0 l2 0 m-194 110 l2 0 m2 0 l2 0 m2 0 l2 0 m22 0 h10 m240 0 h10 m0 0 h10 m36 0 h10 m20 0 h10 m56 0 h10 m0 0 h10 m24 0 h10 m20 0 h10 m46 0 h10 m0 0 h10 m26 0 h10 m0 0 h10 m38 0 h10 m-190 0 l20 0 m-1 0 q-9 0 -9 -10 l0 -24 q0 -10 10 -10 m170 44 l20 0 m-20 0 q10 0 10 -10 l0 -24 q0 -10 -10 -10 m-170 0 h10 m24 0 h10 m0 0 h126 m20 44 h10 m24 0 h10 m-394 0 h20 m374 0 h20 m-414 0 q10 0 10 10 m394 0 q0 -10 10 -10 m-404 10 v14 m394 0 v-14 m-394 14 q0 10 10 10 m374 0 q10 0 10 -10 m-384 10 h10 m0 0 h364 m-730 -34 h20 m730 0 h20 m-770 0 q10 0 10 10 m750 0 q0 -10 10 -10 m-760 10 v46 m750 0 v-46 m-750 46 q0 10 10 10 m730 0 q10 0 10 -10 m-740 10 h10 m80 0 h10 m20 0 h10 m48 0 h10 m0 0 h10 m128 0 h10 m-236 0 h20 m216 0 h20 m-256 0 q10 0 10 10 m236 0 q0 -10 10 -10 m-246 10 v24 m236 0 v-24 m-236 24 q0 10 10 10 m216 0 q10 0 10 -10 m-226 10 h10 m108 0 h10 m0 0 h88 m20 -44 h374 m23 -66 h-3"/>
   <polygon points="793 127 801 123 801 131"/>
   <polygon points="793 127 785 123 785 131"/>
</svg>
