<svg xmlns="http://www.w3.org/2000/svg" width="1019" height="499">
   <polygon points="9 61 1 57 1 65"/>
   <polygon points="17 61 9 57 9 65"/>
   <rect x="51" y="47" width="106" height="32" rx="10"/>
   <rect x="49"
         y="45"
         width="106"
         height="32"
         class="terminal"
         rx="10"/>
   <text class="terminal" x="59" y="65">AVRO USING</text>
   <rect x="197" y="47" width="240" height="32" rx="10"/>
   <rect x="195"
         y="45"
         width="240"
         height="32"
         class="terminal"
         rx="10"/>
   <text class="terminal" x="205" y="65">CONFLUENT SCHEMA REGISTRY</text>
   <rect x="457" y="47" width="36" height="32"/>
   <rect x="455" y="45" width="36" height="32" class="nonterminal"/>
   <text class="nonterminal" x="465" y="65">url</text>
   <rect x="533" y="47" width="56" height="32" rx="10"/>
   <rect x="531"
         y="45"
         width="56"
         height="32"
         class="terminal"
         rx="10"/>
   <text class="terminal" x="541" y="65">WITH</text>
   <rect x="609" y="47" width="24" height="32" rx="10"/>
   <rect x="607"
         y="45"
         width="24"
         height="32"
         class="terminal"
         rx="10"/>
   <text class="terminal" x="617" y="65">(</text>
   <rect x="673" y="47" width="46" height="32"/>
   <rect x="671" y="45" width="46" height="32" class="nonterminal"/>
   <text class="nonterminal" x="681" y="65">field</text>
   <rect x="739" y="47" width="26" height="32" rx="10"/>
   <rect x="737"
         y="45"
         width="26"
         height="32"
         class="terminal"
         rx="10"/>
   <text class="terminal" x="747" y="65">=</text>
   <rect x="785" y="47" width="38" height="32"/>
   <rect x="783" y="45" width="38" height="32" class="nonterminal"/>
   <text class="nonterminal" x="793" y="65">val</text>
   <rect x="673" y="3" width="24" height="32" rx="10"/>
   <rect x="671"
         y="1"
         width="24"
         height="32"
         class="terminal"
         rx="10"/>
   <text class="terminal" x="681" y="21">,</text>
   <rect x="863" y="47" width="24" height="32" rx="10"/>
   <rect x="861"
         y="45"
         width="24"
         height="32"
         class="terminal"
         rx="10"/>
   <text class="terminal" x="871" y="65">)</text>
   <rect x="197" y="113" width="80" height="32" rx="10"/>
   <rect x="195"
         y="111"
         width="80"
         height="32"
         class="terminal"
         rx="10"/>
   <text class="terminal" x="205" y="131">SCHEMA</text>
   <rect x="317" y="113" width="48" height="32" rx="10"/>
   <rect x="315"
         y="111"
         width="48"
         height="32"
         class="terminal"
         rx="10"/>
   <text class="terminal" x="325" y="131">FILE</text>
   <rect x="385" y="113" width="128" height="32"/>
   <rect x="383" y="111" width="128" height="32" class="nonterminal"/>
   <text class="nonterminal" x="393" y="131">schema_file_path</text>
   <rect x="317" y="157" width="108" height="32"/>
   <rect x="315" y="155" width="108" height="32" class="nonterminal"/>
   <text class="nonterminal" x="325" y="175">inline_schema</text>
   <rect x="573" y="145" width="56" height="32" rx="10"/>
   <rect x="571"
         y="143"
         width="56"
         height="32"
         class="terminal"
         rx="10"/>
   <text class="terminal" x="581" y="163">WITH</text>
   <rect x="649" y="145" width="24" height="32" rx="10"/>
   <rect x="647"
         y="143"
         width="24"
         height="32"
         class="terminal"
         rx="10"/>
   <text class="terminal" x="657" y="163">(</text>
   <rect x="693" y="145" width="194" height="32"/>
   <rect x="691" y="143" width="194" height="32" class="nonterminal"/>
   <text class="nonterminal" x="701" y="163">inline_schema_with_options</text>
   <rect x="907" y="145" width="24" height="32" rx="10"/>
   <rect x="905"
         y="143"
         width="24"
         height="32"
         class="terminal"
         rx="10"/>
   <text class="terminal" x="915" y="163">)</text>
   <rect x="51" y="201" width="168" height="32" rx="10"/>
   <rect x="49"
         y="199"
         width="168"
         height="32"
         class="terminal"
         rx="10"/>
   <text class="terminal" x="59" y="219">PROTOBUF MESSAGE</text>
   <rect x="239" y="201" width="116" height="32"/>
   <rect x="237" y="199" width="116" height="32" class="nonterminal"/>
   <text class="nonterminal" x="247" y="219">message_name</text>
   <rect x="375" y="201" width="64" height="32" rx="10"/>
   <rect x="373"
         y="199"
         width="64"
         height="32"
         class="terminal"
         rx="10"/>
   <text class="terminal" x="383" y="219">USING</text>
   <rect x="459" y="201" width="80" height="32" rx="10"/>
   <rect x="457"
         y="199"
         width="80"
         height="32"
         class="terminal"
         rx="10"/>
   <text class="terminal" x="467" y="219">SCHEMA</text>
   <rect x="579" y="201" width="48" height="32" rx="10"/>
   <rect x="577"
         y="199"
         width="48"
         height="32"
         class="terminal"
         rx="10"/>
   <text class="terminal" x="587" y="219">FILE</text>
   <rect x="647" y="201" width="128" height="32"/>
   <rect x="645" y="199" width="128" height="32" class="nonterminal"/>
   <text class="nonterminal" x="655" y="219">schema_file_path</text>
   <rect x="579" y="245" width="108" height="32"/>
   <rect x="577" y="243" width="108" height="32" class="nonterminal"/>
   <text class="nonterminal" x="587" y="263">inline_schema</text>
   <rect x="51" y="289" width="66" height="32" rx="10"/>
   <rect x="49"
         y="287"
         width="66"
         height="32"
         class="terminal"
         rx="10"/>
   <text class="terminal" x="59" y="307">REGEX</text>
   <rect x="137" y="289" width="54" height="32"/>
   <rect x="135" y="287" width="54" height="32" class="nonterminal"/>
   <text class="nonterminal" x="145" y="307">regex</text>
   <rect x="51" y="333" width="88" height="32" rx="10"/>
   <rect x="49"
         y="331"
         width="88"
         height="32"
         class="terminal"
         rx="10"/>
   <text class="terminal" x="59" y="351">CSV WITH</text>
   <rect x="179" y="333" width="76" height="32"/>
   <rect x="177" y="331" width="76" height="32" class="nonterminal"/>
   <text class="nonterminal" x="187" y="351">HEADER</text>
   <rect x="179" y="377" width="28" height="32"/>
   <rect x="177" y="375" width="28" height="32" class="nonterminal"/>
   <text class="nonterminal" x="187" y="395">n</text>
   <rect x="227" y="377" width="90" height="32" rx="10"/>
   <rect x="225"
         y="375"
         width="90"
         height="32"
         class="terminal"
         rx="10"/>
   <text class="terminal" x="235" y="395">COLUMNS</text>
   <rect x="377" y="365" width="116" height="32" rx="10"/>
   <rect x="375"
         y="363"
         width="116"
         height="32"
         class="terminal"
         rx="10"/>
   <text class="terminal" x="385" y="383">DELIMITED BY</text>
   <rect x="513" y="365" width="46" height="32"/>
   <rect x="511" y="363" width="46" height="32" class="nonterminal"/>
   <text class="nonterminal" x="521" y="383">char</text>
   <rect x="51" y="421" width="54" height="32" rx="10"/>
   <rect x="49"
         y="419"
         width="54"
         height="32"
         class="terminal"
         rx="10"/>
   <text class="terminal" x="59" y="439">TEXT</text>
   <rect x="51" y="465" width="64" height="32" rx="10"/>
   <rect x="49"
         y="463"
         width="64"
         height="32"
         class="terminal"
         rx="10"/>
   <text class="terminal" x="59" y="483">BYTES</text>
   <path class="line"
         d="m17 61 h2 m20 0 h10 m106 0 h10 m20 0 h10 m240 0 h10 m0 0 h10 m36 0 h10 m20 0 h10 m56 0 h10 m0 0 h10 m24 0 h10 m20 0 h10 m46 0 h10 m0 0 h10 m26 0 h10 m0 0 h10 m38 0 h10 m-190 0 l20 0 m-1 0 q-9 0 -9 -10 l0 -24 q0 -10 10 -10 m170 44 l20 0 m-20 0 q10 0 10 -10 l0 -24 q0 -10 -10 -10 m-170 0 h10 m24 0 h10 m0 0 h126 m20 44 h10 m24 0 h10 m-394 0 h20 m374 0 h20 m-414 0 q10 0 10 10 m394 0 q0 -10 10 -10 m-404 10 v14 m394 0 v-14 m-394 14 q0 10 10 10 m374 0 q10 0 10 -10 m-384 10 h10 m0 0 h364 m20 -34 h44 m-794 0 h20 m774 0 h20 m-814 0 q10 0 10 10 m794 0 q0 -10 10 -10 m-804 10 v46 m794 0 v-46 m-794 46 q0 10 10 10 m774 0 q10 0 10 -10 m-784 10 h10 m80 0 h10 m20 0 h10 m48 0 h10 m0 0 h10 m128 0 h10 m-236 0 h20 m216 0 h20 m-256 0 q10 0 10 10 m236 0 q0 -10 10 -10 m-246 10 v24 m236 0 v-24 m-236 24 q0 10 10 10 m216 0 q10 0 10 -10 m-226 10 h10 m108 0 h10 m0 0 h88 m40 -44 h10 m0 0 h368 m-398 0 h20 m378 0 h20 m-418 0 q10 0 10 10 m398 0 q0 -10 10 -10 m-408 10 v12 m398 0 v-12 m-398 12 q0 10 10 10 m378 0 q10 0 10 -10 m-388 10 h10 m56 0 h10 m0 0 h10 m24 0 h10 m0 0 h10 m194 0 h10 m0 0 h10 m24 0 h10 m-920 -98 h20 m940 0 h20 m-980 0 q10 0 10 10 m960 0 q0 -10 10 -10 m-970 10 v134 m960 0 v-134 m-960 134 q0 10 10 10 m940 0 q10 0 10 -10 m-950 10 h10 m168 0 h10 m0 0 h10 m116 0 h10 m0 0 h10 m64 0 h10 m0 0 h10 m80 0 h10 m20 0 h10 m48 0 h10 m0 0 h10 m128 0 h10 m-236 0 h20 m216 0 h20 m-256 0 q10 0 10 10 m236 0 q0 -10 10 -10 m-246 10 v24 m236 0 v-24 m-236 24 q0 10 10 10 m216 0 q10 0 10 -10 m-226 10 h10 m108 0 h10 m0 0 h88 m20 -44 h176 m-950 -10 v20 m960 0 v-20 m-960 20 v68 m960 0 v-68 m-960 68 q0 10 10 10 m940 0 q10 0 10 -10 m-950 10 h10 m66 0 h10 m0 0 h10 m54 0 h10 m0 0 h780 m-950 -10 v20 m960 0 v-20 m-960 20 v24 m960 0 v-24 m-960 24 q0 10 10 10 m940 0 q10 0 10 -10 m-950 10 h10 m88 0 h10 m20 0 h10 m76 0 h10 m0 0 h62 m-178 0 h20 m158 0 h20 m-198 0 q10 0 10 10 m178 0 q0 -10 10 -10 m-188 10 v24 m178 0 v-24 m-178 24 q0 10 10 10 m158 0 q10 0 10 -10 m-168 10 h10 m28 0 h10 m0 0 h10 m90 0 h10 m40 -44 h10 m0 0 h192 m-222 0 h20 m202 0 h20 m-242 0 q10 0 10 10 m222 0 q0 -10 10 -10 m-232 10 v12 m222 0 v-12 m-222 12 q0 10 10 10 m202 0 q10 0 10 -10 m-212 10 h10 m116 0 h10 m0 0 h10 m46 0 h10 m20 -32 h392 m-950 -10 v20 m960 0 v-20 m-960 20 v68 m960 0 v-68 m-960 68 q0 10 10 10 m940 0 q10 0 10 -10 m-950 10 h10 m54 0 h10 m0 0 h866 m-950 -10 v20 m960 0 v-20 m-960 20 v24 m960 0 v-24 m-960 24 q0 10 10 10 m940 0 q10 0 10 -10 m-950 10 h10 m64 0 h10 m0 0 h856 m23 -418 h-3"/>
   <polygon points="1009 61 1017 57 1017 65"/>
   <polygon points="1009 61 1001 57 1001 65"/>
</svg>
