<svg xmlns="http://www.w3.org/2000/svg" width="1205" height="377">
   <polygon points="9 17 1 13 1 21"/>
   <polygon points="17 17 9 13 9 21"/>
   <rect x="51" y="3" width="110" height="32" rx="10"/>
   <rect x="49"
         y="1"
         width="110"
         height="32"
         class="terminal"
         rx="10"/>
   <text class="terminal" x="59" y="21">AVRO USING</text>
   <rect x="181" y="3" width="246" height="32" rx="10"/>
   <rect x="179"
         y="1"
         width="246"
         height="32"
         class="terminal"
         rx="10"/>
   <text class="terminal" x="189" y="21">CONFLUENT SCHEMA REGISTRY</text>
   <rect x="447" y="3" width="116" height="32" rx="10"/>
   <rect x="445"
         y="1"
         width="116"
         height="32"
         class="terminal"
         rx="10"/>
   <text class="terminal" x="455" y="21">CONNECTION</text>
   <rect x="583" y="3" width="136" height="32"/>
   <rect x="581" y="1" width="136" height="32" class="nonterminal"/>
   <text class="nonterminal" x="591" y="21">connection_name</text>
   <rect x="759" y="35" width="80" height="32"/>
   <rect x="757" y="33" width="80" height="32" class="nonterminal"/>
   <text class="nonterminal" x="767" y="53">key_strat</text>
   <rect x="899" y="35" width="76" height="32"/>
   <rect x="897" y="33" width="76" height="32" class="nonterminal"/>
   <text class="nonterminal" x="907" y="53">val_strat</text>
   <rect x="1035" y="35" width="102" height="32"/>
   <rect x="1033" y="33" width="102" height="32" class="nonterminal"/>
   <text class="nonterminal" x="1043" y="53">with_options</text>
   <rect x="51" y="79" width="146" height="32" rx="10"/>
   <rect x="49"
         y="77"
         width="146"
         height="32"
         class="terminal"
         rx="10"/>
   <text class="terminal" x="59" y="97">PROTOBUF USING</text>
   <rect x="217" y="79" width="246" height="32" rx="10"/>
   <rect x="215"
         y="77"
         width="246"
         height="32"
         class="terminal"
         rx="10"/>
   <text class="terminal" x="225" y="97">CONFLUENT SCHEMA REGISTRY</text>
   <rect x="483" y="79" width="116" height="32" rx="10"/>
   <rect x="481"
         y="77"
         width="116"
         height="32"
         class="terminal"
         rx="10"/>
   <text class="terminal" x="491" y="97">CONNECTION</text>
   <rect x="619" y="79" width="136" height="32"/>
   <rect x="617" y="77" width="136" height="32" class="nonterminal"/>
   <text class="nonterminal" x="627" y="97">connection_name</text>
   <rect x="775" y="79" width="102" height="32"/>
   <rect x="773" y="77" width="102" height="32" class="nonterminal"/>
   <text class="nonterminal" x="783" y="97">with_options</text>
   <rect x="51" y="123" width="66" height="32" rx="10"/>
   <rect x="49"
         y="121"
         width="66"
         height="32"
         class="terminal"
         rx="10"/>
   <text class="terminal" x="59" y="141">REGEX</text>
   <rect x="137" y="123" width="56" height="32"/>
   <rect x="135" y="121" width="56" height="32" class="nonterminal"/>
   <text class="nonterminal" x="145" y="141">regex</text>
   <rect x="51" y="211" width="92" height="32" rx="10"/>
   <rect x="49"
         y="209"
         width="92"
         height="32"
         class="terminal"
         rx="10"/>
   <text class="terminal" x="59" y="229">CSV WITH</text>
   <rect x="183" y="211" width="78" height="32" rx="10"/>
   <rect x="181"
         y="209"
         width="78"
         height="32"
         class="terminal"
         rx="10"/>
   <text class="terminal" x="191" y="229">HEADER</text>
   <rect x="281" y="211" width="26" height="32" rx="10"/>
   <rect x="279"
         y="209"
         width="26"
         height="32"
         class="terminal"
         rx="10"/>
   <text class="terminal" x="289" y="229">(</text>
   <rect x="347" y="211" width="82" height="32"/>
   <rect x="345" y="209" width="82" height="32" class="nonterminal"/>
   <text class="nonterminal" x="355" y="229">col_name</text>
   <rect x="347" y="167" width="24" height="32" rx="10"/>
   <rect x="345"
         y="165"
         width="24"
         height="32"
         class="terminal"
         rx="10"/>
   <text class="terminal" x="355" y="185">,</text>
   <rect x="469" y="211" width="26" height="32" rx="10"/>
   <rect x="467"
         y="209"
         width="26"
         height="32"
         class="terminal"
         rx="10"/>
   <text class="terminal" x="477" y="229">)</text>
   <rect x="183" y="255" width="28" height="32"/>
   <rect x="181" y="253" width="28" height="32" class="nonterminal"/>
   <text class="nonterminal" x="191" y="273">n</text>
   <rect x="231" y="255" width="92" height="32" rx="10"/>
   <rect x="229"
         y="253"
         width="92"
         height="32"
         class="terminal"
         rx="10"/>
   <text class="terminal" x="239" y="273">COLUMNS</text>
   <rect x="555" y="243" width="118" height="32" rx="10"/>
   <rect x="553"
         y="241"
         width="118"
         height="32"
         class="terminal"
         rx="10"/>
   <text class="terminal" x="563" y="261">DELIMITED BY</text>
   <rect x="693" y="243" width="48" height="32"/>
   <rect x="691" y="241" width="48" height="32" class="nonterminal"/>
   <text class="nonterminal" x="701" y="261">char</text>
   <rect x="51" y="299" width="56" height="32" rx="10"/>
   <rect x="49"
         y="297"
         width="56"
         height="32"
         class="terminal"
         rx="10"/>
   <text class="terminal" x="59" y="317">TEXT</text>
   <rect x="51" y="343" width="66" height="32" rx="10"/>
   <rect x="49"
         y="341"
         width="66"
         height="32"
         class="terminal"
         rx="10"/>
   <text class="terminal" x="59" y="361">BYTES</text>
   <path class="line"
         d="m17 17 h2 m20 0 h10 m110 0 h10 m0 0 h10 m246 0 h10 m0 0 h10 m116 0 h10 m0 0 h10 m136 0 h10 m20 0 h10 m0 0 h90 m-120 0 h20 m100 0 h20 m-140 0 q10 0 10 10 m120 0 q0 -10 10 -10 m-130 10 v12 m120 0 v-12 m-120 12 q0 10 10 10 m100 0 q10 0 10 -10 m-110 10 h10 m80 0 h10 m40 -32 h10 m0 0 h86 m-116 0 h20 m96 0 h20 m-136 0 q10 0 10 10 m116 0 q0 -10 10 -10 m-126 10 v12 m116 0 v-12 m-116 12 q0 10 10 10 m96 0 q10 0 10 -10 m-106 10 h10 m76 0 h10 m40 -32 h10 m0 0 h112 m-142 0 h20 m122 0 h20 m-162 0 q10 0 10 10 m142 0 q0 -10 10 -10 m-152 10 v12 m142 0 v-12 m-142 12 q0 10 10 10 m122 0 q10 0 10 -10 m-132 10 h10 m102 0 h10 m-1126 -32 h20 m1126 0 h20 m-1166 0 q10 0 10 10 m1146 0 q0 -10 10 -10 m-1156 10 v56 m1146 0 v-56 m-1146 56 q0 10 10 10 m1126 0 q10 0 10 -10 m-1136 10 h10 m146 0 h10 m0 0 h10 m246 0 h10 m0 0 h10 m116 0 h10 m0 0 h10 m136 0 h10 m0 0 h10 m102 0 h10 m0 0 h280 m-1136 -10 v20 m1146 0 v-20 m-1146 20 v24 m1146 0 v-24 m-1146 24 q0 10 10 10 m1126 0 q10 0 10 -10 m-1136 10 h10 m66 0 h10 m0 0 h10 m56 0 h10 m0 0 h964 m-1136 -10 v20 m1146 0 v-20 m-1146 20 v68 m1146 0 v-68 m-1146 68 q0 10 10 10 m1126 0 q10 0 10 -10 m-1136 10 h10 m92 0 h10 m20 0 h10 m78 0 h10 m0 0 h10 m26 0 h10 m20 0 h10 m82 0 h10 m-122 0 l20 0 m-1 0 q-9 0 -9 -10 l0 -24 q0 -10 10 -10 m102 44 l20 0 m-20 0 q10 0 10 -10 l0 -24 q0 -10 -10 -10 m-102 0 h10 m24 0 h10 m0 0 h58 m20 44 h10 m26 0 h10 m-352 0 h20 m332 0 h20 m-372 0 q10 0 10 10 m352 0 q0 -10 10 -10 m-362 10 v24 m352 0 v-24 m-352 24 q0 10 10 10 m332 0 q10 0 10 -10 m-342 10 h10 m28 0 h10 m0 0 h10 m92 0 h10 m0 0 h172 m40 -44 h10 m0 0 h196 m-226 0 h20 m206 0 h20 m-246 0 q10 0 10 10 m226 0 q0 -10 10 -10 m-236 10 v12 m226 0 v-12 m-226 12 q0 10 10 10 m206 0 q10 0 10 -10 m-216 10 h10 m118 0 h10 m0 0 h10 m48 0 h10 m20 -32 h396 m-1136 -10 v20 m1146 0 v-20 m-1146 20 v68 m1146 0 v-68 m-1146 68 q0 10 10 10 m1126 0 q10 0 10 -10 m-1136 10 h10 m56 0 h10 m0 0 h1050 m-1136 -10 v20 m1146 0 v-20 m-1146 20 v24 m1146 0 v-24 m-1146 24 q0 10 10 10 m1126 0 q10 0 10 -10 m-1136 10 h10 m66 0 h10 m0 0 h1040 m23 -340 h-3"/>
   <polygon points="1195 17 1203 13 1203 21"/>
   <polygon points="1195 17 1187 13 1187 21"/>
</svg>
