<svg xmlns="http://www.w3.org/2000/svg" width="849" height="443">
   <polygon points="9 17 1 13 1 21"/>
   <polygon points="17 17 9 13 9 21"/>
   <rect x="51" y="3" width="110" height="32" rx="10"/>
   <rect x="49"
         y="1"
         width="110"
         height="32"
         class="terminal"
         rx="10"/>
   <text class="terminal" x="59" y="21">AVRO USING</text>
   <rect x="201" y="3" width="246" height="32" rx="10"/>
   <rect x="199"
         y="1"
         width="246"
         height="32"
         class="terminal"
         rx="10"/>
   <text class="terminal" x="209" y="21">CONFLUENT SCHEMA REGISTRY</text>
   <rect x="467" y="3" width="36" height="32"/>
   <rect x="465" y="1" width="36" height="32" class="nonterminal"/>
   <text class="nonterminal" x="475" y="21">url</text>
   <rect x="543" y="35" width="102" height="32"/>
   <rect x="541" y="33" width="102" height="32" class="nonterminal"/>
   <text class="nonterminal" x="551" y="53">with_options</text>
   <rect x="201" y="79" width="82" height="32" rx="10"/>
   <rect x="199"
         y="77"
         width="82"
         height="32"
         class="terminal"
         rx="10"/>
   <text class="terminal" x="209" y="97">SCHEMA</text>
   <rect x="303" y="79" width="48" height="32" rx="10"/>
   <rect x="301"
         y="77"
         width="48"
         height="32"
         class="terminal"
         rx="10"/>
   <text class="terminal" x="311" y="97">FILE</text>
   <rect x="371" y="79" width="132" height="32"/>
   <rect x="369" y="77" width="132" height="32" class="nonterminal"/>
   <text class="nonterminal" x="379" y="97">schema_file_path</text>
   <rect x="51" y="123" width="170" height="32" rx="10"/>
   <rect x="49"
         y="121"
         width="170"
         height="32"
         class="terminal"
         rx="10"/>
   <text class="terminal" x="59" y="141">PROTOBUF MESSAGE</text>
   <rect x="241" y="123" width="122" height="32"/>
   <rect x="239" y="121" width="122" height="32" class="nonterminal"/>
   <text class="nonterminal" x="249" y="141">message_name</text>
   <rect x="383" y="123" width="64" height="32" rx="10"/>
   <rect x="381"
         y="121"
         width="64"
         height="32"
         class="terminal"
         rx="10"/>
   <text class="terminal" x="391" y="141">USING</text>
   <rect x="467" y="123" width="82" height="32" rx="10"/>
   <rect x="465"
         y="121"
         width="82"
         height="32"
         class="terminal"
         rx="10"/>
   <text class="terminal" x="475" y="141">SCHEMA</text>
   <rect x="569" y="123" width="48" height="32" rx="10"/>
   <rect x="567"
         y="121"
         width="48"
         height="32"
         class="terminal"
         rx="10"/>
   <text class="terminal" x="577" y="141">FILE</text>
   <rect x="637" y="123" width="132" height="32"/>
   <rect x="635" y="121" width="132" height="32" class="nonterminal"/>
   <text class="nonterminal" x="645" y="141">schema_file_path</text>
   <rect x="51" y="167" width="66" height="32" rx="10"/>
   <rect x="49"
         y="165"
         width="66"
         height="32"
         class="terminal"
         rx="10"/>
   <text class="terminal" x="59" y="185">REGEX</text>
   <rect x="137" y="167" width="56" height="32"/>
   <rect x="135" y="165" width="56" height="32" class="nonterminal"/>
   <text class="nonterminal" x="145" y="185">regex</text>
   <rect x="51" y="255" width="92" height="32" rx="10"/>
   <rect x="49"
         y="253"
         width="92"
         height="32"
         class="terminal"
         rx="10"/>
   <text class="terminal" x="59" y="273">CSV WITH</text>
   <rect x="183" y="255" width="78" height="32" rx="10"/>
   <rect x="181"
         y="253"
         width="78"
         height="32"
         class="terminal"
         rx="10"/>
   <text class="terminal" x="191" y="273">HEADER</text>
   <rect x="301" y="255" width="26" height="32" rx="10"/>
   <rect x="299"
         y="253"
         width="26"
         height="32"
         class="terminal"
         rx="10"/>
   <text class="terminal" x="309" y="273">(</text>
   <rect x="367" y="255" width="82" height="32"/>
   <rect x="365" y="253" width="82" height="32" class="nonterminal"/>
   <text class="nonterminal" x="375" y="273">col_name</text>
   <rect x="367" y="211" width="24" height="32" rx="10"/>
   <rect x="365"
         y="209"
         width="24"
         height="32"
         class="terminal"
         rx="10"/>
   <text class="terminal" x="375" y="229">,</text>
   <rect x="489" y="255" width="26" height="32" rx="10"/>
   <rect x="487"
         y="253"
         width="26"
         height="32"
         class="terminal"
         rx="10"/>
   <text class="terminal" x="497" y="273">)</text>
   <rect x="183" y="321" width="28" height="32"/>
   <rect x="181" y="319" width="28" height="32" class="nonterminal"/>
   <text class="nonterminal" x="191" y="339">n</text>
   <rect x="231" y="321" width="92" height="32" rx="10"/>
   <rect x="229"
         y="319"
         width="92"
         height="32"
         class="terminal"
         rx="10"/>
   <text class="terminal" x="239" y="339">COLUMNS</text>
   <rect x="595" y="287" width="118" height="32" rx="10"/>
   <rect x="593"
         y="285"
         width="118"
         height="32"
         class="terminal"
         rx="10"/>
   <text class="terminal" x="603" y="305">DELIMITED BY</text>
   <rect x="733" y="287" width="48" height="32"/>
   <rect x="731" y="285" width="48" height="32" class="nonterminal"/>
   <text class="nonterminal" x="741" y="305">char</text>
   <rect x="51" y="365" width="56" height="32" rx="10"/>
   <rect x="49"
         y="363"
         width="56"
         height="32"
         class="terminal"
         rx="10"/>
   <text class="terminal" x="59" y="383">TEXT</text>
   <rect x="51" y="409" width="66" height="32" rx="10"/>
   <rect x="49"
         y="407"
         width="66"
         height="32"
         class="terminal"
         rx="10"/>
   <text class="terminal" x="59" y="427">BYTES</text>
   <path class="line"
         d="m17 17 h2 m20 0 h10 m110 0 h10 m20 0 h10 m246 0 h10 m0 0 h10 m36 0 h10 m20 0 h10 m0 0 h112 m-142 0 h20 m122 0 h20 m-162 0 q10 0 10 10 m142 0 q0 -10 10 -10 m-152 10 v12 m142 0 v-12 m-142 12 q0 10 10 10 m122 0 q10 0 10 -10 m-132 10 h10 m102 0 h10 m-484 -32 h20 m484 0 h20 m-524 0 q10 0 10 10 m504 0 q0 -10 10 -10 m-514 10 v56 m504 0 v-56 m-504 56 q0 10 10 10 m484 0 q10 0 10 -10 m-494 10 h10 m82 0 h10 m0 0 h10 m48 0 h10 m0 0 h10 m132 0 h10 m0 0 h162 m20 -76 h116 m-790 0 h20 m770 0 h20 m-810 0 q10 0 10 10 m790 0 q0 -10 10 -10 m-800 10 v100 m790 0 v-100 m-790 100 q0 10 10 10 m770 0 q10 0 10 -10 m-780 10 h10 m170 0 h10 m0 0 h10 m122 0 h10 m0 0 h10 m64 0 h10 m0 0 h10 m82 0 h10 m0 0 h10 m48 0 h10 m0 0 h10 m132 0 h10 m0 0 h32 m-780 -10 v20 m790 0 v-20 m-790 20 v24 m790 0 v-24 m-790 24 q0 10 10 10 m770 0 q10 0 10 -10 m-780 10 h10 m66 0 h10 m0 0 h10 m56 0 h10 m0 0 h608 m-780 -10 v20 m790 0 v-20 m-790 20 v68 m790 0 v-68 m-790 68 q0 10 10 10 m770 0 q10 0 10 -10 m-780 10 h10 m92 0 h10 m20 0 h10 m78 0 h10 m20 0 h10 m26 0 h10 m20 0 h10 m82 0 h10 m-122 0 l20 0 m-1 0 q-9 0 -9 -10 l0 -24 q0 -10 10 -10 m102 44 l20 0 m-20 0 q10 0 10 -10 l0 -24 q0 -10 -10 -10 m-102 0 h10 m24 0 h10 m0 0 h58 m20 44 h10 m26 0 h10 m-254 0 h20 m234 0 h20 m-274 0 q10 0 10 10 m254 0 q0 -10 10 -10 m-264 10 v14 m254 0 v-14 m-254 14 q0 10 10 10 m234 0 q10 0 10 -10 m-244 10 h10 m0 0 h224 m-372 -34 h20 m372 0 h20 m-412 0 q10 0 10 10 m392 0 q0 -10 10 -10 m-402 10 v46 m392 0 v-46 m-392 46 q0 10 10 10 m372 0 q10 0 10 -10 m-382 10 h10 m28 0 h10 m0 0 h10 m92 0 h10 m0 0 h212 m40 -66 h10 m0 0 h196 m-226 0 h20 m206 0 h20 m-246 0 q10 0 10 10 m226 0 q0 -10 10 -10 m-236 10 v12 m226 0 v-12 m-226 12 q0 10 10 10 m206 0 q10 0 10 -10 m-216 10 h10 m118 0 h10 m0 0 h10 m48 0 h10 m-760 -42 v20 m790 0 v-20 m-790 20 v90 m790 0 v-90 m-790 90 q0 10 10 10 m770 0 q10 0 10 -10 m-780 10 h10 m56 0 h10 m0 0 h694 m-780 -10 v20 m790 0 v-20 m-790 20 v24 m790 0 v-24 m-790 24 q0 10 10 10 m770 0 q10 0 10 -10 m-780 10 h10 m66 0 h10 m0 0 h684 m23 -406 h-3"/>
   <polygon points="839 17 847 13 847 21"/>
   <polygon points="839 17 831 13 831 21"/>
</svg>
