<svg xmlns="http://www.w3.org/2000/svg" width="809" height="465">
   <polygon points="9 17 1 13 1 21"/>
   <polygon points="17 17 9 13 9 21"/>
   <rect x="51" y="3" width="110" height="32" rx="10"/>
   <rect x="49"
         y="1"
         width="110"
         height="32"
         class="terminal"
         rx="10"/>
   <text class="terminal" x="59" y="21">AVRO USING</text>
   <rect x="201" y="3" width="246" height="32" rx="10"/>
   <rect x="199"
         y="1"
         width="246"
         height="32"
         class="terminal"
         rx="10"/>
   <text class="terminal" x="209" y="21">CONFLUENT SCHEMA REGISTRY</text>
   <rect x="467" y="3" width="36" height="32"/>
   <rect x="465" y="1" width="36" height="32" class="nonterminal"/>
   <text class="nonterminal" x="475" y="21">url</text>
   <rect x="543" y="35" width="102" height="32"/>
   <rect x="541" y="33" width="102" height="32" class="nonterminal"/>
   <text class="nonterminal" x="551" y="53">with_options</text>
   <rect x="201" y="79" width="114" height="32" rx="10"/>
   <rect x="199"
         y="77"
         width="114"
         height="32"
         class="terminal"
         rx="10"/>
   <text class="terminal" x="209" y="97">SCHEMA FILE</text>
   <rect x="335" y="79" width="50" height="32"/>
   <rect x="333" y="77" width="50" height="32" class="nonterminal"/>
   <text class="nonterminal" x="343" y="97">path</text>
   <rect x="51" y="123" width="96" height="32" rx="10"/>
   <rect x="49"
         y="121"
         width="96"
         height="32"
         class="terminal"
         rx="10"/>
   <text class="terminal" x="59" y="141">PROTOBUF</text>
   <rect x="187" y="123" width="90" height="32" rx="10"/>
   <rect x="185"
         y="121"
         width="90"
         height="32"
         class="terminal"
         rx="10"/>
   <text class="terminal" x="195" y="141">MESSAGE</text>
   <rect x="297" y="123" width="122" height="32"/>
   <rect x="295" y="121" width="122" height="32" class="nonterminal"/>
   <text class="nonterminal" x="305" y="141">message_name</text>
   <rect x="439" y="123" width="162" height="32" rx="10"/>
   <rect x="437"
         y="121"
         width="162"
         height="32"
         class="terminal"
         rx="10"/>
   <text class="terminal" x="447" y="141">USING SCHEMA FILE</text>
   <rect x="621" y="123" width="50" height="32"/>
   <rect x="619" y="121" width="50" height="32" class="nonterminal"/>
   <text class="nonterminal" x="629" y="141">path</text>
   <rect x="187" y="167" width="296" height="32" rx="10"/>
   <rect x="185"
         y="165"
         width="296"
         height="32"
         class="terminal"
         rx="10"/>
   <text class="terminal" x="195" y="185">USING CONFLUENT SCHEMA REGISTRY</text>
   <rect x="503" y="167" width="36" height="32"/>
   <rect x="501" y="165" width="36" height="32" class="nonterminal"/>
   <text class="nonterminal" x="511" y="185">url</text>
   <rect x="559" y="167" width="102" height="32"/>
   <rect x="557" y="165" width="102" height="32" class="nonterminal"/>
   <text class="nonterminal" x="567" y="185">with_options</text>
   <rect x="51" y="211" width="66" height="32" rx="10"/>
   <rect x="49"
         y="209"
         width="66"
         height="32"
         class="terminal"
         rx="10"/>
   <text class="terminal" x="59" y="229">REGEX</text>
   <rect x="137" y="211" width="56" height="32"/>
   <rect x="135" y="209" width="56" height="32" class="nonterminal"/>
   <text class="nonterminal" x="145" y="229">regex</text>
   <rect x="51" y="299" width="92" height="32" rx="10"/>
   <rect x="49"
         y="297"
         width="92"
         height="32"
         class="terminal"
         rx="10"/>
   <text class="terminal" x="59" y="317">CSV WITH</text>
   <rect x="183" y="299" width="78" height="32" rx="10"/>
   <rect x="181"
         y="297"
         width="78"
         height="32"
         class="terminal"
         rx="10"/>
   <text class="terminal" x="191" y="317">HEADER</text>
   <rect x="281" y="299" width="26" height="32" rx="10"/>
   <rect x="279"
         y="297"
         width="26"
         height="32"
         class="terminal"
         rx="10"/>
   <text class="terminal" x="289" y="317">(</text>
   <rect x="347" y="299" width="82" height="32"/>
   <rect x="345" y="297" width="82" height="32" class="nonterminal"/>
   <text class="nonterminal" x="355" y="317">col_name</text>
   <rect x="347" y="255" width="24" height="32" rx="10"/>
   <rect x="345"
         y="253"
         width="24"
         height="32"
         class="terminal"
         rx="10"/>
   <text class="terminal" x="355" y="273">,</text>
   <rect x="469" y="299" width="26" height="32" rx="10"/>
   <rect x="467"
         y="297"
         width="26"
         height="32"
         class="terminal"
         rx="10"/>
   <text class="terminal" x="477" y="317">)</text>
   <rect x="183" y="343" width="28" height="32"/>
   <rect x="181" y="341" width="28" height="32" class="nonterminal"/>
   <text class="nonterminal" x="191" y="361">n</text>
   <rect x="231" y="343" width="92" height="32" rx="10"/>
   <rect x="229"
         y="341"
         width="92"
         height="32"
         class="terminal"
         rx="10"/>
   <text class="terminal" x="239" y="361">COLUMNS</text>
   <rect x="555" y="331" width="118" height="32" rx="10"/>
   <rect x="553"
         y="329"
         width="118"
         height="32"
         class="terminal"
         rx="10"/>
   <text class="terminal" x="563" y="349">DELIMITED BY</text>
   <rect x="693" y="331" width="48" height="32"/>
   <rect x="691" y="329" width="48" height="32" class="nonterminal"/>
   <text class="nonterminal" x="701" y="349">char</text>
   <rect x="51" y="387" width="56" height="32" rx="10"/>
   <rect x="49"
         y="385"
         width="56"
         height="32"
         class="terminal"
         rx="10"/>
   <text class="terminal" x="59" y="405">TEXT</text>
   <rect x="51" y="431" width="66" height="32" rx="10"/>
   <rect x="49"
         y="429"
         width="66"
         height="32"
         class="terminal"
         rx="10"/>
   <text class="terminal" x="59" y="449">BYTES</text>
   <path class="line"
         d="m17 17 h2 m20 0 h10 m110 0 h10 m20 0 h10 m246 0 h10 m0 0 h10 m36 0 h10 m20 0 h10 m0 0 h112 m-142 0 h20 m122 0 h20 m-162 0 q10 0 10 10 m142 0 q0 -10 10 -10 m-152 10 v12 m142 0 v-12 m-142 12 q0 10 10 10 m122 0 q10 0 10 -10 m-132 10 h10 m102 0 h10 m-484 -32 h20 m484 0 h20 m-524 0 q10 0 10 10 m504 0 q0 -10 10 -10 m-514 10 v56 m504 0 v-56 m-504 56 q0 10 10 10 m484 0 q10 0 10 -10 m-494 10 h10 m114 0 h10 m0 0 h10 m50 0 h10 m0 0 h280 m20 -76 h76 m-750 0 h20 m730 0 h20 m-770 0 q10 0 10 10 m750 0 q0 -10 10 -10 m-760 10 v100 m750 0 v-100 m-750 100 q0 10 10 10 m730 0 q10 0 10 -10 m-740 10 h10 m96 0 h10 m20 0 h10 m90 0 h10 m0 0 h10 m122 0 h10 m0 0 h10 m162 0 h10 m0 0 h10 m50 0 h10 m-524 0 h20 m504 0 h20 m-544 0 q10 0 10 10 m524 0 q0 -10 10 -10 m-534 10 v24 m524 0 v-24 m-524 24 q0 10 10 10 m504 0 q10 0 10 -10 m-514 10 h10 m296 0 h10 m0 0 h10 m36 0 h10 m0 0 h10 m102 0 h10 m0 0 h10 m20 -44 h70 m-740 -10 v20 m750 0 v-20 m-750 20 v68 m750 0 v-68 m-750 68 q0 10 10 10 m730 0 q10 0 10 -10 m-740 10 h10 m66 0 h10 m0 0 h10 m56 0 h10 m0 0 h568 m-740 -10 v20 m750 0 v-20 m-750 20 v68 m750 0 v-68 m-750 68 q0 10 10 10 m730 0 q10 0 10 -10 m-740 10 h10 m92 0 h10 m20 0 h10 m78 0 h10 m0 0 h10 m26 0 h10 m20 0 h10 m82 0 h10 m-122 0 l20 0 m-1 0 q-9 0 -9 -10 l0 -24 q0 -10 10 -10 m102 44 l20 0 m-20 0 q10 0 10 -10 l0 -24 q0 -10 -10 -10 m-102 0 h10 m24 0 h10 m0 0 h58 m20 44 h10 m26 0 h10 m-352 0 h20 m332 0 h20 m-372 0 q10 0 10 10 m352 0 q0 -10 10 -10 m-362 10 v24 m352 0 v-24 m-352 24 q0 10 10 10 m332 0 q10 0 10 -10 m-342 10 h10 m28 0 h10 m0 0 h10 m92 0 h10 m0 0 h172 m40 -44 h10 m0 0 h196 m-226 0 h20 m206 0 h20 m-246 0 q10 0 10 10 m226 0 q0 -10 10 -10 m-236 10 v12 m226 0 v-12 m-226 12 q0 10 10 10 m206 0 q10 0 10 -10 m-216 10 h10 m118 0 h10 m0 0 h10 m48 0 h10 m-720 -42 v20 m750 0 v-20 m-750 20 v68 m750 0 v-68 m-750 68 q0 10 10 10 m730 0 q10 0 10 -10 m-740 10 h10 m56 0 h10 m0 0 h654 m-740 -10 v20 m750 0 v-20 m-750 20 v24 m750 0 v-24 m-750 24 q0 10 10 10 m730 0 q10 0 10 -10 m-740 10 h10 m66 0 h10 m0 0 h644 m23 -428 h-3"/>
   <polygon points="799 17 807 13 807 21"/>
   <polygon points="799 17 791 13 791 21"/>
</svg>
