<svg xmlns="http://www.w3.org/2000/svg" width="803" height="377">
   <polygon points="9 17 1 13 1 21"/>
   <polygon points="17 17 9 13 9 21"/>
   <rect x="51" y="3" width="106" height="32" rx="10"/>
   <rect x="49"
         y="1"
         width="106"
         height="32"
         class="terminal"
         rx="10"/>
   <text class="terminal" x="59" y="21">AVRO USING</text>
   <rect x="197" y="3" width="240" height="32" rx="10"/>
   <rect x="195"
         y="1"
         width="240"
         height="32"
         class="terminal"
         rx="10"/>
   <text class="terminal" x="205" y="21">CONFLUENT SCHEMA REGISTRY</text>
   <rect x="457" y="3" width="36" height="32"/>
   <rect x="455" y="1" width="36" height="32" class="nonterminal"/>
   <text class="nonterminal" x="465" y="21">url</text>
   <rect x="533" y="35" width="98" height="32"/>
   <rect x="531" y="33" width="98" height="32" class="nonterminal"/>
   <text class="nonterminal" x="541" y="53">with_options</text>
   <rect x="197" y="79" width="80" height="32" rx="10"/>
   <rect x="195"
         y="77"
         width="80"
         height="32"
         class="terminal"
         rx="10"/>
   <text class="terminal" x="205" y="97">SCHEMA</text>
   <rect x="297" y="79" width="48" height="32" rx="10"/>
   <rect x="295"
         y="77"
         width="48"
         height="32"
         class="terminal"
         rx="10"/>
   <text class="terminal" x="305" y="97">FILE</text>
   <rect x="365" y="79" width="128" height="32"/>
   <rect x="363" y="77" width="128" height="32" class="nonterminal"/>
   <text class="nonterminal" x="373" y="97">schema_file_path</text>
   <rect x="51" y="123" width="168" height="32" rx="10"/>
   <rect x="49"
         y="121"
         width="168"
         height="32"
         class="terminal"
         rx="10"/>
   <text class="terminal" x="59" y="141">PROTOBUF MESSAGE</text>
   <rect x="239" y="123" width="116" height="32"/>
   <rect x="237" y="121" width="116" height="32" class="nonterminal"/>
   <text class="nonterminal" x="247" y="141">message_name</text>
   <rect x="375" y="123" width="64" height="32" rx="10"/>
   <rect x="373"
         y="121"
         width="64"
         height="32"
         class="terminal"
         rx="10"/>
   <text class="terminal" x="383" y="141">USING</text>
   <rect x="459" y="123" width="80" height="32" rx="10"/>
   <rect x="457"
         y="121"
         width="80"
         height="32"
         class="terminal"
         rx="10"/>
   <text class="terminal" x="467" y="141">SCHEMA</text>
   <rect x="559" y="123" width="48" height="32" rx="10"/>
   <rect x="557"
         y="121"
         width="48"
         height="32"
         class="terminal"
         rx="10"/>
   <text class="terminal" x="567" y="141">FILE</text>
   <rect x="627" y="123" width="128" height="32"/>
   <rect x="625" y="121" width="128" height="32" class="nonterminal"/>
   <text class="nonterminal" x="635" y="141">schema_file_path</text>
   <rect x="51" y="167" width="66" height="32" rx="10"/>
   <rect x="49"
         y="165"
         width="66"
         height="32"
         class="terminal"
         rx="10"/>
   <text class="terminal" x="59" y="185">REGEX</text>
   <rect x="137" y="167" width="54" height="32"/>
   <rect x="135" y="165" width="54" height="32" class="nonterminal"/>
   <text class="nonterminal" x="145" y="185">regex</text>
   <rect x="51" y="211" width="88" height="32" rx="10"/>
   <rect x="49"
         y="209"
         width="88"
         height="32"
         class="terminal"
         rx="10"/>
   <text class="terminal" x="59" y="229">CSV WITH</text>
   <rect x="179" y="211" width="76" height="32"/>
   <rect x="177" y="209" width="76" height="32" class="nonterminal"/>
   <text class="nonterminal" x="187" y="229">HEADER</text>
   <rect x="179" y="255" width="28" height="32"/>
   <rect x="177" y="253" width="28" height="32" class="nonterminal"/>
   <text class="nonterminal" x="187" y="273">n</text>
   <rect x="227" y="255" width="90" height="32" rx="10"/>
   <rect x="225"
         y="253"
         width="90"
         height="32"
         class="terminal"
         rx="10"/>
   <text class="terminal" x="235" y="273">COLUMNS</text>
   <rect x="377" y="243" width="116" height="32" rx="10"/>
   <rect x="375"
         y="241"
         width="116"
         height="32"
         class="terminal"
         rx="10"/>
   <text class="terminal" x="385" y="261">DELIMITED BY</text>
   <rect x="513" y="243" width="46" height="32"/>
   <rect x="511" y="241" width="46" height="32" class="nonterminal"/>
   <text class="nonterminal" x="521" y="261">char</text>
   <rect x="51" y="299" width="54" height="32" rx="10"/>
   <rect x="49"
         y="297"
         width="54"
         height="32"
         class="terminal"
         rx="10"/>
   <text class="terminal" x="59" y="317">TEXT</text>
   <rect x="51" y="343" width="64" height="32" rx="10"/>
   <rect x="49"
         y="341"
         width="64"
         height="32"
         class="terminal"
         rx="10"/>
   <text class="terminal" x="59" y="361">BYTES</text>
   <path class="line"
         d="m17 17 h2 m20 0 h10 m106 0 h10 m20 0 h10 m240 0 h10 m0 0 h10 m36 0 h10 m20 0 h10 m0 0 h108 m-138 0 h20 m118 0 h20 m-158 0 q10 0 10 10 m138 0 q0 -10 10 -10 m-148 10 v12 m138 0 v-12 m-138 12 q0 10 10 10 m118 0 q10 0 10 -10 m-128 10 h10 m98 0 h10 m-474 -32 h20 m474 0 h20 m-514 0 q10 0 10 10 m494 0 q0 -10 10 -10 m-504 10 v56 m494 0 v-56 m-494 56 q0 10 10 10 m474 0 q10 0 10 -10 m-484 10 h10 m80 0 h10 m0 0 h10 m48 0 h10 m0 0 h10 m128 0 h10 m0 0 h158 m20 -76 h84 m-744 0 h20 m724 0 h20 m-764 0 q10 0 10 10 m744 0 q0 -10 10 -10 m-754 10 v100 m744 0 v-100 m-744 100 q0 10 10 10 m724 0 q10 0 10 -10 m-734 10 h10 m168 0 h10 m0 0 h10 m116 0 h10 m0 0 h10 m64 0 h10 m0 0 h10 m80 0 h10 m0 0 h10 m48 0 h10 m0 0 h10 m128 0 h10 m-734 -10 v20 m744 0 v-20 m-744 20 v24 m744 0 v-24 m-744 24 q0 10 10 10 m724 0 q10 0 10 -10 m-734 10 h10 m66 0 h10 m0 0 h10 m54 0 h10 m0 0 h564 m-734 -10 v20 m744 0 v-20 m-744 20 v24 m744 0 v-24 m-744 24 q0 10 10 10 m724 0 q10 0 10 -10 m-734 10 h10 m88 0 h10 m20 0 h10 m76 0 h10 m0 0 h62 m-178 0 h20 m158 0 h20 m-198 0 q10 0 10 10 m178 0 q0 -10 10 -10 m-188 10 v24 m178 0 v-24 m-178 24 q0 10 10 10 m158 0 q10 0 10 -10 m-168 10 h10 m28 0 h10 m0 0 h10 m90 0 h10 m40 -44 h10 m0 0 h192 m-222 0 h20 m202 0 h20 m-242 0 q10 0 10 10 m222 0 q0 -10 10 -10 m-232 10 v12 m222 0 v-12 m-222 12 q0 10 10 10 m202 0 q10 0 10 -10 m-212 10 h10 m116 0 h10 m0 0 h10 m46 0 h10 m20 -32 h176 m-734 -10 v20 m744 0 v-20 m-744 20 v68 m744 0 v-68 m-744 68 q0 10 10 10 m724 0 q10 0 10 -10 m-734 10 h10 m54 0 h10 m0 0 h650 m-734 -10 v20 m744 0 v-20 m-744 20 v24 m744 0 v-24 m-744 24 q0 10 10 10 m724 0 q10 0 10 -10 m-734 10 h10 m64 0 h10 m0 0 h640 m23 -340 h-3"/>
   <polygon points="793 17 801 13 801 21"/>
   <polygon points="793 17 785 13 785 21"/>
</svg>
