<svg xmlns="http://www.w3.org/2000/svg" width="503" height="147">
   <polygon points="9 17 1 13 1 21"/>
   <polygon points="17 17 9 13 9 21"/>
   <rect x="31" y="3" width="168" height="32" rx="10"/>
   <rect x="29"
         y="1"
         width="168"
         height="32"
         class="terminal"
         rx="10"/>
   <text class="terminal" x="39" y="21">PROTOBUF MESSAGE</text>
   <rect x="219" y="3" width="116" height="32"/>
   <rect x="217" y="1" width="116" height="32" class="nonterminal"/>
   <text class="nonterminal" x="227" y="21">message_name</text>
   <rect x="355" y="3" width="126" height="32" rx="10"/>
   <rect x="353"
         y="1"
         width="126"
         height="32"
         class="terminal"
         rx="10"/>
   <text class="terminal" x="363" y="21">USING SCHEMA</text>
   <rect x="259" y="69" width="48" height="32" rx="10"/>
   <rect x="257"
         y="67"
         width="48"
         height="32"
         class="terminal"
         rx="10"/>
   <text class="terminal" x="267" y="87">FILE</text>
   <rect x="327" y="69" width="128" height="32"/>
   <rect x="325" y="67" width="128" height="32" class="nonterminal"/>
   <text class="nonterminal" x="335" y="87">schema_file_path</text>
   <rect x="259" y="113" width="108" height="32"/>
   <rect x="257" y="111" width="108" height="32" class="nonterminal"/>
   <text class="nonterminal" x="267" y="131">inline_schema</text>
   <path class="line"
         d="m17 17 h2 m0 0 h10 m168 0 h10 m0 0 h10 m116 0 h10 m0 0 h10 m126 0 h10 m2 0 l2 0 m2 0 l2 0 m2 0 l2 0 m-286 66 l2 0 m2 0 l2 0 m2 0 l2 0 m22 0 h10 m48 0 h10 m0 0 h10 m128 0 h10 m-236 0 h20 m216 0 h20 m-256 0 q10 0 10 10 m236 0 q0 -10 10 -10 m-246 10 v24 m236 0 v-24 m-236 24 q0 10 10 10 m216 0 q10 0 10 -10 m-226 10 h10 m108 0 h10 m0 0 h88 m23 -44 h-3"/>
   <polygon points="493 83 501 79 501 87"/>
   <polygon points="493 83 485 79 485 87"/>
</svg>
