<svg xmlns="http://www.w3.org/2000/svg" width="399" height="37">
   <polygon points="9 17 1 13 1 21"/>
   <polygon points="17 17 9 13 9 21"/>
   <rect x="31" y="3" width="60" height="32" rx="10"/>
   <rect x="29"
         y="1"
         width="60"
         height="32"
         class="terminal"
         rx="10"/>
   <text class="terminal" x="39" y="21">CAST</text>
   <rect x="111" y="3" width="26" height="32" rx="10"/>
   <rect x="109"
         y="1"
         width="26"
         height="32"
         class="terminal"
         rx="10"/>
   <text class="terminal" x="119" y="21">(</text>
   <rect x="157" y="3" width="38" height="32"/>
   <rect x="155" y="1" width="38" height="32" class="nonterminal"/>
   <text class="nonterminal" x="165" y="21">val</text>
   <rect x="215" y="3" width="40" height="32" rx="10"/>
   <rect x="213"
         y="1"
         width="40"
         height="32"
         class="terminal"
         rx="10"/>
   <text class="terminal" x="223" y="21">AS</text>
   <rect x="275" y="3" width="50" height="32"/>
   <rect x="273" y="1" width="50" height="32" class="nonterminal"/>
   <text class="nonterminal" x="283" y="21">type</text>
   <rect x="345" y="3" width="26" height="32" rx="10"/>
   <rect x="343"
         y="1"
         width="26"
         height="32"
         class="terminal"
         rx="10"/>
   <text class="terminal" x="353" y="21">)</text>
   <path class="line"
         d="m17 17 h2 m0 0 h10 m60 0 h10 m0 0 h10 m26 0 h10 m0 0 h10 m38 0 h10 m0 0 h10 m40 0 h10 m0 0 h10 m50 0 h10 m0 0 h10 m26 0 h10 m3 0 h-3"/>
   <polygon points="389 17 397 13 397 21"/>
   <polygon points="389 17 381 13 381 21"/>
</svg>
