<svg xmlns="http://www.w3.org/2000/svg" width="321" height="81">
   <polygon points="9 61 1 57 1 65"/>
   <polygon points="17 61 9 57 9 65"/>
   <rect x="31" y="47" width="76" height="32" rx="10"/>
   <rect x="29"
         y="45"
         width="76"
         height="32"
         class="terminal"
         rx="10"/>
   <text class="terminal" x="39" y="65">coalesce</text>
   <rect x="127" y="47" width="24" height="32" rx="10"/>
   <rect x="125"
         y="45"
         width="24"
         height="32"
         class="terminal"
         rx="10"/>
   <text class="terminal" x="135" y="65">(</text>
   <rect x="191" y="47" width="38" height="32"/>
   <rect x="189" y="45" width="38" height="32" class="nonterminal"/>
   <text class="nonterminal" x="199" y="65">val</text>
   <rect x="191" y="3" width="24" height="32" rx="10"/>
   <rect x="189"
         y="1"
         width="24"
         height="32"
         class="terminal"
         rx="10"/>
   <text class="terminal" x="199" y="21">,</text>
   <rect x="269" y="47" width="24" height="32" rx="10"/>
   <rect x="267"
         y="45"
         width="24"
         height="32"
         class="terminal"
         rx="10"/>
   <text class="terminal" x="277" y="65">)</text>
   <path class="line"
         d="m17 61 h2 m0 0 h10 m76 0 h10 m0 0 h10 m24 0 h10 m20 0 h10 m38 0 h10 m-78 0 l20 0 m-1 0 q-9 0 -9 -10 l0 -24 q0 -10 10 -10 m58 44 l20 0 m-20 0 q10 0 10 -10 l0 -24 q0 -10 -10 -10 m-58 0 h10 m24 0 h10 m0 0 h14 m20 44 h10 m24 0 h10 m3 0 h-3"/>
   <polygon points="311 61 319 57 319 65"/>
   <polygon points="311 61 303 57 303 65"/>
</svg>
