<svg xmlns="http://www.w3.org/2000/svg" width="477" height="147">
   <polygon points="9 17 1 13 1 21"/>
   <polygon points="17 17 9 13 9 21"/>
   <rect x="31" y="3" width="74" height="32" rx="10"/>
   <rect x="29"
         y="1"
         width="74"
         height="32"
         class="terminal"
         rx="10"/>
   <text class="terminal" x="39" y="21">SELECT</text>
   <rect x="145" y="3" width="106" height="32" rx="10"/>
   <rect x="143"
         y="1"
         width="106"
         height="32"
         class="terminal"
         rx="10"/>
   <text class="terminal" x="153" y="21">TIMESTAMP</text>
   <rect x="145" y="47" width="124" height="32" rx="10"/>
   <rect x="143"
         y="45"
         width="124"
         height="32"
         class="terminal"
         rx="10"/>
   <text class="terminal" x="153" y="65">TIMESTAMPTZ</text>
   <rect x="329" y="3" width="94" height="32" rx="10"/>
   <rect x="327"
         y="1"
         width="94"
         height="32"
         class="terminal"
         rx="10"/>
   <text class="terminal" x="337" y="21">timestamp</text>
   <rect x="329" y="47" width="106" height="32" rx="10"/>
   <rect x="327"
         y="45"
         width="106"
         height="32"
         class="terminal"
         rx="10"/>
   <text class="terminal" x="337" y="65">timestamptz</text>
   <rect x="215" y="113" width="122" height="32" rx="10"/>
   <rect x="213"
         y="111"
         width="122"
         height="32"
         class="terminal"
         rx="10"/>
   <text class="terminal" x="223" y="131">AT TIME ZONE</text>
   <rect x="357" y="113" width="92" height="32" rx="10"/>
   <rect x="355"
         y="111"
         width="92"
         height="32"
         class="terminal"
         rx="10"/>
   <text class="terminal" x="365" y="131">zone::type</text>
   <path class="line"
         d="m17 17 h2 m0 0 h10 m74 0 h10 m20 0 h10 m106 0 h10 m0 0 h18 m-164 0 h20 m144 0 h20 m-184 0 q10 0 10 10 m164 0 q0 -10 10 -10 m-174 10 v24 m164 0 v-24 m-164 24 q0 10 10 10 m144 0 q10 0 10 -10 m-154 10 h10 m124 0 h10 m40 -44 h10 m94 0 h10 m0 0 h12 m-146 0 h20 m126 0 h20 m-166 0 q10 0 10 10 m146 0 q0 -10 10 -10 m-156 10 v24 m146 0 v-24 m-146 24 q0 10 10 10 m126 0 q10 0 10 -10 m-136 10 h10 m106 0 h10 m22 -44 l2 0 m2 0 l2 0 m2 0 l2 0 m-284 110 l2 0 m2 0 l2 0 m2 0 l2 0 m2 0 h10 m122 0 h10 m0 0 h10 m92 0 h10 m3 0 h-3"/>
   <polygon points="467 127 475 123 475 131"/>
   <polygon points="467 127 459 123 459 131"/>
</svg>
