<svg xmlns="http://www.w3.org/2000/svg" width="593" height="147">
   <polygon points="9 17 1 13 1 21"/>
   <polygon points="17 17 9 13 9 21"/>
   <rect x="31" y="3" width="94" height="32" rx="10"/>
   <rect x="29"
         y="1"
         width="94"
         height="32"
         class="terminal"
         rx="10"/>
   <text class="terminal" x="39" y="21">TIMEZONE</text>
   <rect x="145" y="3" width="26" height="32" rx="10"/>
   <rect x="143"
         y="1"
         width="26"
         height="32"
         class="terminal"
         rx="10"/>
   <text class="terminal" x="153" y="21">(</text>
   <rect x="191" y="3" width="52" height="32"/>
   <rect x="189" y="1" width="52" height="32" class="nonterminal"/>
   <text class="nonterminal" x="199" y="21">zone</text>
   <rect x="263" y="3" width="28" height="32" rx="10"/>
   <rect x="261"
         y="1"
         width="28"
         height="32"
         class="terminal"
         rx="10"/>
   <text class="terminal" x="271" y="21">::</text>
   <rect x="311" y="3" width="50" height="32"/>
   <rect x="309" y="1" width="50" height="32" class="nonterminal"/>
   <text class="nonterminal" x="319" y="21">type</text>
   <rect x="381" y="3" width="24" height="32" rx="10"/>
   <rect x="379"
         y="1"
         width="24"
         height="32"
         class="terminal"
         rx="10"/>
   <text class="terminal" x="389" y="21">,</text>
   <rect x="445" y="3" width="94" height="32" rx="10"/>
   <rect x="443"
         y="1"
         width="94"
         height="32"
         class="terminal"
         rx="10"/>
   <text class="terminal" x="453" y="21">timestamp</text>
   <rect x="445" y="47" width="106" height="32" rx="10"/>
   <rect x="443"
         y="45"
         width="106"
         height="32"
         class="terminal"
         rx="10"/>
   <text class="terminal" x="453" y="65">timestamptz</text>
   <rect x="539" y="113" width="26" height="32" rx="10"/>
   <rect x="537"
         y="111"
         width="26"
         height="32"
         class="terminal"
         rx="10"/>
   <text class="terminal" x="547" y="131">)</text>
   <path class="line"
         d="m17 17 h2 m0 0 h10 m94 0 h10 m0 0 h10 m26 0 h10 m0 0 h10 m52 0 h10 m0 0 h10 m28 0 h10 m0 0 h10 m50 0 h10 m0 0 h10 m24 0 h10 m20 0 h10 m94 0 h10 m0 0 h12 m-146 0 h20 m126 0 h20 m-166 0 q10 0 10 10 m146 0 q0 -10 10 -10 m-156 10 v24 m146 0 v-24 m-146 24 q0 10 10 10 m126 0 q10 0 10 -10 m-136 10 h10 m106 0 h10 m22 -44 l2 0 m2 0 l2 0 m2 0 l2 0 m-76 110 l2 0 m2 0 l2 0 m2 0 l2 0 m2 0 h10 m26 0 h10 m3 0 h-3"/>
   <polygon points="583 127 591 123 591 131"/>
   <polygon points="583 127 575 123 575 131"/>
</svg>
