<svg xmlns="http://www.w3.org/2000/svg" width="557" height="631">
   <polygon points="9 17 1 13 1 21"/>
   <polygon points="17 17 9 13 9 21"/>
   <rect x="31" y="3" width="88" height="32" rx="10"/>
   <rect x="29"
         y="1"
         width="88"
         height="32"
         class="terminal"
         rx="10"/>
   <text class="terminal" x="39" y="21">date_trunc</text>
   <rect x="139" y="3" width="24" height="32" rx="10"/>
   <rect x="137"
         y="1"
         width="24"
         height="32"
         class="terminal"
         rx="10"/>
   <text class="terminal" x="147" y="21">(</text>
   <rect x="183" y="3" width="22" height="32" rx="10"/>
   <rect x="181"
         y="1"
         width="22"
         height="32"
         class="terminal"
         rx="10"/>
   <text class="terminal" x="191" y="21">'</text>
   <rect x="245" y="3" width="108" height="32" rx="10"/>
   <rect x="243"
         y="1"
         width="108"
         height="32"
         class="terminal"
         rx="10"/>
   <text class="terminal" x="253" y="21">microseconds</text>
   <rect x="245" y="47" width="100" height="32" rx="10"/>
   <rect x="243"
         y="45"
         width="100"
         height="32"
         class="terminal"
         rx="10"/>
   <text class="terminal" x="253" y="65">milliseconds</text>
   <rect x="245" y="91" width="66" height="32" rx="10"/>
   <rect x="243"
         y="89"
         width="66"
         height="32"
         class="terminal"
         rx="10"/>
   <text class="terminal" x="253" y="109">second</text>
   <rect x="245" y="135" width="64" height="32" rx="10"/>
   <rect x="243"
         y="133"
         width="64"
         height="32"
         class="terminal"
         rx="10"/>
   <text class="terminal" x="253" y="153">minute</text>
   <rect x="245" y="179" width="48" height="32" rx="10"/>
   <rect x="243"
         y="177"
         width="48"
         height="32"
         class="terminal"
         rx="10"/>
   <text class="terminal" x="253" y="197">hour</text>
   <rect x="245" y="223" width="42" height="32" rx="10"/>
   <rect x="243"
         y="221"
         width="42"
         height="32"
         class="terminal"
         rx="10"/>
   <text class="terminal" x="253" y="241">day</text>
   <rect x="245" y="267" width="52" height="32" rx="10"/>
   <rect x="243"
         y="265"
         width="52"
         height="32"
         class="terminal"
         rx="10"/>
   <text class="terminal" x="253" y="285">week</text>
   <rect x="245" y="311" width="60" height="32" rx="10"/>
   <rect x="243"
         y="309"
         width="60"
         height="32"
         class="terminal"
         rx="10"/>
   <text class="terminal" x="253" y="329">month</text>
   <rect x="245" y="355" width="66" height="32" rx="10"/>
   <rect x="243"
         y="353"
         width="66"
         height="32"
         class="terminal"
         rx="10"/>
   <text class="terminal" x="253" y="373">quarter</text>
   <rect x="245" y="399" width="46" height="32" rx="10"/>
   <rect x="243"
         y="397"
         width="46"
         height="32"
         class="terminal"
         rx="10"/>
   <text class="terminal" x="253" y="417">year</text>
   <rect x="245" y="443" width="66" height="32" rx="10"/>
   <rect x="243"
         y="441"
         width="66"
         height="32"
         class="terminal"
         rx="10"/>
   <text class="terminal" x="253" y="461">decade</text>
   <rect x="245" y="487" width="68" height="32" rx="10"/>
   <rect x="243"
         y="485"
         width="68"
         height="32"
         class="terminal"
         rx="10"/>
   <text class="terminal" x="253" y="505">century</text>
   <rect x="245" y="531" width="82" height="32" rx="10"/>
   <rect x="243"
         y="529"
         width="82"
         height="32"
         class="terminal"
         rx="10"/>
   <text class="terminal" x="253" y="549">millenium</text>
   <rect x="393" y="3" width="22" height="32" rx="10"/>
   <rect x="391"
         y="1"
         width="22"
         height="32"
         class="terminal"
         rx="10"/>
   <text class="terminal" x="401" y="21">'</text>
   <rect x="435" y="3" width="24" height="32" rx="10"/>
   <rect x="433"
         y="1"
         width="24"
         height="32"
         class="terminal"
         rx="10"/>
   <text class="terminal" x="443" y="21">,</text>
   <a xmlns:xlink="http://www.w3.org/1999/xlink"
      xlink:href="#ts_val"
      xlink:title="ts_val">
      <rect x="479" y="3" width="56" height="32"/>
      <rect x="477" y="1" width="56" height="32" class="nonterminal"/>
      <text class="nonterminal" x="487" y="21">ts_val</text>
   </a>
   <rect x="505" y="597" width="24" height="32" rx="10"/>
   <rect x="503"
         y="595"
         width="24"
         height="32"
         class="terminal"
         rx="10"/>
   <text class="terminal" x="513" y="615">)</text>
   <path class="line"
         d="m17 17 h2 m0 0 h10 m88 0 h10 m0 0 h10 m24 0 h10 m0 0 h10 m22 0 h10 m20 0 h10 m108 0 h10 m-148 0 h20 m128 0 h20 m-168 0 q10 0 10 10 m148 0 q0 -10 10 -10 m-158 10 v24 m148 0 v-24 m-148 24 q0 10 10 10 m128 0 q10 0 10 -10 m-138 10 h10 m100 0 h10 m0 0 h8 m-138 -10 v20 m148 0 v-20 m-148 20 v24 m148 0 v-24 m-148 24 q0 10 10 10 m128 0 q10 0 10 -10 m-138 10 h10 m66 0 h10 m0 0 h42 m-138 -10 v20 m148 0 v-20 m-148 20 v24 m148 0 v-24 m-148 24 q0 10 10 10 m128 0 q10 0 10 -10 m-138 10 h10 m64 0 h10 m0 0 h44 m-138 -10 v20 m148 0 v-20 m-148 20 v24 m148 0 v-24 m-148 24 q0 10 10 10 m128 0 q10 0 10 -10 m-138 10 h10 m48 0 h10 m0 0 h60 m-138 -10 v20 m148 0 v-20 m-148 20 v24 m148 0 v-24 m-148 24 q0 10 10 10 m128 0 q10 0 10 -10 m-138 10 h10 m42 0 h10 m0 0 h66 m-138 -10 v20 m148 0 v-20 m-148 20 v24 m148 0 v-24 m-148 24 q0 10 10 10 m128 0 q10 0 10 -10 m-138 10 h10 m52 0 h10 m0 0 h56 m-138 -10 v20 m148 0 v-20 m-148 20 v24 m148 0 v-24 m-148 24 q0 10 10 10 m128 0 q10 0 10 -10 m-138 10 h10 m60 0 h10 m0 0 h48 m-138 -10 v20 m148 0 v-20 m-148 20 v24 m148 0 v-24 m-148 24 q0 10 10 10 m128 0 q10 0 10 -10 m-138 10 h10 m66 0 h10 m0 0 h42 m-138 -10 v20 m148 0 v-20 m-148 20 v24 m148 0 v-24 m-148 24 q0 10 10 10 m128 0 q10 0 10 -10 m-138 10 h10 m46 0 h10 m0 0 h62 m-138 -10 v20 m148 0 v-20 m-148 20 v24 m148 0 v-24 m-148 24 q0 10 10 10 m128 0 q10 0 10 -10 m-138 10 h10 m66 0 h10 m0 0 h42 m-138 -10 v20 m148 0 v-20 m-148 20 v24 m148 0 v-24 m-148 24 q0 10 10 10 m128 0 q10 0 10 -10 m-138 10 h10 m68 0 h10 m0 0 h40 m-138 -10 v20 m148 0 v-20 m-148 20 v24 m148 0 v-24 m-148 24 q0 10 10 10 m128 0 q10 0 10 -10 m-138 10 h10 m82 0 h10 m0 0 h26 m20 -528 h10 m22 0 h10 m0 0 h10 m24 0 h10 m0 0 h10 m56 0 h10 m2 0 l2 0 m2 0 l2 0 m2 0 l2 0 m-74 594 l2 0 m2 0 l2 0 m2 0 l2 0 m2 0 h10 m24 0 h10 m3 0 h-3"/>
   <polygon points="547 611 555 607 555 615"/>
   <polygon points="547 611 539 607 539 615"/>
</svg>
