<svg xmlns="http://www.w3.org/2000/svg" width="557" height="631">
   <polygon points="9 17 1 13 1 21"/>
   <polygon points="17 17 9 13 9 21"/>
   <rect x="31" y="3" width="94" height="32" rx="10"/>
   <rect x="29"
         y="1"
         width="94"
         height="32"
         class="terminal"
         rx="10"/>
   <text class="terminal" x="39" y="21">date_trunc</text>
   <rect x="145" y="3" width="26" height="32" rx="10"/>
   <rect x="143"
         y="1"
         width="26"
         height="32"
         class="terminal"
         rx="10"/>
   <text class="terminal" x="153" y="21">(</text>
   <rect x="191" y="3" width="22" height="32" rx="10"/>
   <rect x="189"
         y="1"
         width="22"
         height="32"
         class="terminal"
         rx="10"/>
   <text class="terminal" x="199" y="21">'</text>
   <rect x="253" y="3" width="118" height="32" rx="10"/>
   <rect x="251"
         y="1"
         width="118"
         height="32"
         class="terminal"
         rx="10"/>
   <text class="terminal" x="261" y="21">microseconds</text>
   <rect x="253" y="47" width="106" height="32" rx="10"/>
   <rect x="251"
         y="45"
         width="106"
         height="32"
         class="terminal"
         rx="10"/>
   <text class="terminal" x="261" y="65">milliseconds</text>
   <rect x="253" y="91" width="70" height="32" rx="10"/>
   <rect x="251"
         y="89"
         width="70"
         height="32"
         class="terminal"
         rx="10"/>
   <text class="terminal" x="261" y="109">second</text>
   <rect x="253" y="135" width="68" height="32" rx="10"/>
   <rect x="251"
         y="133"
         width="68"
         height="32"
         class="terminal"
         rx="10"/>
   <text class="terminal" x="261" y="153">minute</text>
   <rect x="253" y="179" width="52" height="32" rx="10"/>
   <rect x="251"
         y="177"
         width="52"
         height="32"
         class="terminal"
         rx="10"/>
   <text class="terminal" x="261" y="197">hour</text>
   <rect x="253" y="223" width="44" height="32" rx="10"/>
   <rect x="251"
         y="221"
         width="44"
         height="32"
         class="terminal"
         rx="10"/>
   <text class="terminal" x="261" y="241">day</text>
   <rect x="253" y="267" width="56" height="32" rx="10"/>
   <rect x="251"
         y="265"
         width="56"
         height="32"
         class="terminal"
         rx="10"/>
   <text class="terminal" x="261" y="285">week</text>
   <rect x="253" y="311" width="64" height="32" rx="10"/>
   <rect x="251"
         y="309"
         width="64"
         height="32"
         class="terminal"
         rx="10"/>
   <text class="terminal" x="261" y="329">month</text>
   <rect x="253" y="355" width="70" height="32" rx="10"/>
   <rect x="251"
         y="353"
         width="70"
         height="32"
         class="terminal"
         rx="10"/>
   <text class="terminal" x="261" y="373">quarter</text>
   <rect x="253" y="399" width="50" height="32" rx="10"/>
   <rect x="251"
         y="397"
         width="50"
         height="32"
         class="terminal"
         rx="10"/>
   <text class="terminal" x="261" y="417">year</text>
   <rect x="253" y="443" width="70" height="32" rx="10"/>
   <rect x="251"
         y="441"
         width="70"
         height="32"
         class="terminal"
         rx="10"/>
   <text class="terminal" x="261" y="461">decade</text>
   <rect x="253" y="487" width="74" height="32" rx="10"/>
   <rect x="251"
         y="485"
         width="74"
         height="32"
         class="terminal"
         rx="10"/>
   <text class="terminal" x="261" y="505">century</text>
   <rect x="253" y="531" width="86" height="32" rx="10"/>
   <rect x="251"
         y="529"
         width="86"
         height="32"
         class="terminal"
         rx="10"/>
   <text class="terminal" x="261" y="549">millenium</text>
   <rect x="411" y="3" width="22" height="32" rx="10"/>
   <rect x="409"
         y="1"
         width="22"
         height="32"
         class="terminal"
         rx="10"/>
   <text class="terminal" x="419" y="21">'</text>
   <rect x="453" y="3" width="24" height="32" rx="10"/>
   <rect x="451"
         y="1"
         width="24"
         height="32"
         class="terminal"
         rx="10"/>
   <text class="terminal" x="461" y="21">,</text>
   <rect x="497" y="3" width="38" height="32"/>
   <rect x="495" y="1" width="38" height="32" class="nonterminal"/>
   <text class="nonterminal" x="505" y="21">val</text>
   <rect x="503" y="597" width="26" height="32" rx="10"/>
   <rect x="501"
         y="595"
         width="26"
         height="32"
         class="terminal"
         rx="10"/>
   <text class="terminal" x="511" y="615">)</text>
   <path class="line"
         d="m17 17 h2 m0 0 h10 m94 0 h10 m0 0 h10 m26 0 h10 m0 0 h10 m22 0 h10 m20 0 h10 m118 0 h10 m-158 0 h20 m138 0 h20 m-178 0 q10 0 10 10 m158 0 q0 -10 10 -10 m-168 10 v24 m158 0 v-24 m-158 24 q0 10 10 10 m138 0 q10 0 10 -10 m-148 10 h10 m106 0 h10 m0 0 h12 m-148 -10 v20 m158 0 v-20 m-158 20 v24 m158 0 v-24 m-158 24 q0 10 10 10 m138 0 q10 0 10 -10 m-148 10 h10 m70 0 h10 m0 0 h48 m-148 -10 v20 m158 0 v-20 m-158 20 v24 m158 0 v-24 m-158 24 q0 10 10 10 m138 0 q10 0 10 -10 m-148 10 h10 m68 0 h10 m0 0 h50 m-148 -10 v20 m158 0 v-20 m-158 20 v24 m158 0 v-24 m-158 24 q0 10 10 10 m138 0 q10 0 10 -10 m-148 10 h10 m52 0 h10 m0 0 h66 m-148 -10 v20 m158 0 v-20 m-158 20 v24 m158 0 v-24 m-158 24 q0 10 10 10 m138 0 q10 0 10 -10 m-148 10 h10 m44 0 h10 m0 0 h74 m-148 -10 v20 m158 0 v-20 m-158 20 v24 m158 0 v-24 m-158 24 q0 10 10 10 m138 0 q10 0 10 -10 m-148 10 h10 m56 0 h10 m0 0 h62 m-148 -10 v20 m158 0 v-20 m-158 20 v24 m158 0 v-24 m-158 24 q0 10 10 10 m138 0 q10 0 10 -10 m-148 10 h10 m64 0 h10 m0 0 h54 m-148 -10 v20 m158 0 v-20 m-158 20 v24 m158 0 v-24 m-158 24 q0 10 10 10 m138 0 q10 0 10 -10 m-148 10 h10 m70 0 h10 m0 0 h48 m-148 -10 v20 m158 0 v-20 m-158 20 v24 m158 0 v-24 m-158 24 q0 10 10 10 m138 0 q10 0 10 -10 m-148 10 h10 m50 0 h10 m0 0 h68 m-148 -10 v20 m158 0 v-20 m-158 20 v24 m158 0 v-24 m-158 24 q0 10 10 10 m138 0 q10 0 10 -10 m-148 10 h10 m70 0 h10 m0 0 h48 m-148 -10 v20 m158 0 v-20 m-158 20 v24 m158 0 v-24 m-158 24 q0 10 10 10 m138 0 q10 0 10 -10 m-148 10 h10 m74 0 h10 m0 0 h44 m-148 -10 v20 m158 0 v-20 m-158 20 v24 m158 0 v-24 m-158 24 q0 10 10 10 m138 0 q10 0 10 -10 m-148 10 h10 m86 0 h10 m0 0 h32 m20 -528 h10 m22 0 h10 m0 0 h10 m24 0 h10 m0 0 h10 m38 0 h10 m2 0 l2 0 m2 0 l2 0 m2 0 l2 0 m-76 594 l2 0 m2 0 l2 0 m2 0 l2 0 m2 0 h10 m26 0 h10 m3 0 h-3"/>
   <polygon points="547 611 555 607 555 615"/>
   <polygon points="547 611 539 607 539 615"/>
</svg>
