<svg xmlns="http://www.w3.org/2000/svg" width="507" height="345">
   <polygon points="9 17 1 13 1 21"/>
   <polygon points="17 17 9 13 9 21"/>
   <rect x="31" y="3" width="84" height="32" rx="10"/>
   <rect x="29"
         y="1"
         width="84"
         height="32"
         class="terminal"
         rx="10"/>
   <text class="terminal" x="39" y="21">EXTRACT</text>
   <rect x="135" y="3" width="24" height="32" rx="10"/>
   <rect x="133"
         y="1"
         width="24"
         height="32"
         class="terminal"
         rx="10"/>
   <text class="terminal" x="143" y="21">(</text>
   <rect x="199" y="3" width="56" height="32" rx="10"/>
   <rect x="197"
         y="1"
         width="56"
         height="32"
         class="terminal"
         rx="10"/>
   <text class="terminal" x="207" y="21">YEAR</text>
   <rect x="199" y="47" width="72" height="32" rx="10"/>
   <rect x="197"
         y="45"
         width="72"
         height="32"
         class="terminal"
         rx="10"/>
   <text class="terminal" x="207" y="65">MONTH</text>
   <rect x="199" y="91" width="48" height="32" rx="10"/>
   <rect x="197"
         y="89"
         width="48"
         height="32"
         class="terminal"
         rx="10"/>
   <text class="terminal" x="207" y="109">DAY</text>
   <rect x="199" y="135" width="60" height="32" rx="10"/>
   <rect x="197"
         y="133"
         width="60"
         height="32"
         class="terminal"
         rx="10"/>
   <text class="terminal" x="207" y="153">HOUR</text>
   <rect x="199" y="179" width="72" height="32" rx="10"/>
   <rect x="197"
         y="177"
         width="72"
         height="32"
         class="terminal"
         rx="10"/>
   <text class="terminal" x="207" y="197">MINUTE</text>
   <rect x="199" y="223" width="78" height="32" rx="10"/>
   <rect x="197"
         y="221"
         width="78"
         height="32"
         class="terminal"
         rx="10"/>
   <text class="terminal" x="207" y="241">SECOND</text>
   <rect x="199" y="267" width="54" height="32" rx="10"/>
   <rect x="197"
         y="265"
         width="54"
         height="32"
         class="terminal"
         rx="10"/>
   <text class="terminal" x="207" y="285">DOW</text>
   <rect x="199" y="311" width="68" height="32" rx="10"/>
   <rect x="197"
         y="309"
         width="68"
         height="32"
         class="terminal"
         rx="10"/>
   <text class="terminal" x="207" y="329">EPOCH</text>
   <rect x="317" y="3" width="60" height="32" rx="10"/>
   <rect x="315"
         y="1"
         width="60"
         height="32"
         class="terminal"
         rx="10"/>
   <text class="terminal" x="325" y="21">FROM</text>
   <a xmlns:xlink="http://www.w3.org/1999/xlink"
      xlink:href="#val"
      xlink:title="val">
      <rect x="397" y="3" width="38" height="32"/>
      <rect x="395" y="1" width="38" height="32" class="nonterminal"/>
      <text class="nonterminal" x="405" y="21">val</text>
   </a>
   <rect x="455" y="3" width="24" height="32" rx="10"/>
   <rect x="453"
         y="1"
         width="24"
         height="32"
         class="terminal"
         rx="10"/>
   <text class="terminal" x="463" y="21">)</text>
   <path class="line"
         d="m17 17 h2 m0 0 h10 m84 0 h10 m0 0 h10 m24 0 h10 m20 0 h10 m56 0 h10 m0 0 h22 m-118 0 h20 m98 0 h20 m-138 0 q10 0 10 10 m118 0 q0 -10 10 -10 m-128 10 v24 m118 0 v-24 m-118 24 q0 10 10 10 m98 0 q10 0 10 -10 m-108 10 h10 m72 0 h10 m0 0 h6 m-108 -10 v20 m118 0 v-20 m-118 20 v24 m118 0 v-24 m-118 24 q0 10 10 10 m98 0 q10 0 10 -10 m-108 10 h10 m48 0 h10 m0 0 h30 m-108 -10 v20 m118 0 v-20 m-118 20 v24 m118 0 v-24 m-118 24 q0 10 10 10 m98 0 q10 0 10 -10 m-108 10 h10 m60 0 h10 m0 0 h18 m-108 -10 v20 m118 0 v-20 m-118 20 v24 m118 0 v-24 m-118 24 q0 10 10 10 m98 0 q10 0 10 -10 m-108 10 h10 m72 0 h10 m0 0 h6 m-108 -10 v20 m118 0 v-20 m-118 20 v24 m118 0 v-24 m-118 24 q0 10 10 10 m98 0 q10 0 10 -10 m-108 10 h10 m78 0 h10 m-108 -10 v20 m118 0 v-20 m-118 20 v24 m118 0 v-24 m-118 24 q0 10 10 10 m98 0 q10 0 10 -10 m-108 10 h10 m54 0 h10 m0 0 h24 m-108 -10 v20 m118 0 v-20 m-118 20 v24 m118 0 v-24 m-118 24 q0 10 10 10 m98 0 q10 0 10 -10 m-108 10 h10 m68 0 h10 m0 0 h10 m20 -308 h10 m60 0 h10 m0 0 h10 m38 0 h10 m0 0 h10 m24 0 h10 m3 0 h-3"/>
   <polygon points="497 17 505 13 505 21"/>
   <polygon points="497 17 489 13 489 21"/>
</svg>
