<svg xmlns="http://www.w3.org/2000/svg" width="485" height="69">
   <polygon points="9 17 1 13 1 21"/>
   <polygon points="17 17 9 13 9 21"/>
   <rect x="31" y="3" width="60" height="32" rx="10"/>
   <rect x="29"
         y="1"
         width="60"
         height="32"
         class="terminal"
         rx="10"/>
   <text class="terminal" x="39" y="21">length</text>
   <rect x="111" y="3" width="24" height="32" rx="10"/>
   <rect x="109"
         y="1"
         width="24"
         height="32"
         class="terminal"
         rx="10"/>
   <text class="terminal" x="119" y="21">(</text>
   <a xmlns:xlink="http://www.w3.org/1999/xlink"
      xlink:href="#str"
      xlink:title="str">
      <rect x="155" y="3" width="36" height="32"/>
      <rect x="153" y="1" width="36" height="32" class="nonterminal"/>
      <text class="nonterminal" x="163" y="21">str</text>
   </a>
   <rect x="231" y="35" width="24" height="32" rx="10"/>
   <rect x="229"
         y="33"
         width="24"
         height="32"
         class="terminal"
         rx="10"/>
   <text class="terminal" x="239" y="53">,</text>
   <a xmlns:xlink="http://www.w3.org/1999/xlink"
      xlink:href="#encoding_name"
      xlink:title="encoding_name">
      <rect x="275" y="35" width="118" height="32"/>
      <rect x="273" y="33" width="118" height="32" class="nonterminal"/>
      <text class="nonterminal" x="283" y="53">encoding_name</text>
   </a>
   <rect x="433" y="3" width="24" height="32" rx="10"/>
   <rect x="431"
         y="1"
         width="24"
         height="32"
         class="terminal"
         rx="10"/>
   <text class="terminal" x="441" y="21">)</text>
   <path class="line"
         d="m17 17 h2 m0 0 h10 m60 0 h10 m0 0 h10 m24 0 h10 m0 0 h10 m36 0 h10 m20 0 h10 m0 0 h172 m-202 0 h20 m182 0 h20 m-222 0 q10 0 10 10 m202 0 q0 -10 10 -10 m-212 10 v12 m202 0 v-12 m-202 12 q0 10 10 10 m182 0 q10 0 10 -10 m-192 10 h10 m24 0 h10 m0 0 h10 m118 0 h10 m20 -32 h10 m24 0 h10 m3 0 h-3"/>
   <polygon points="475 17 483 13 483 21"/>
   <polygon points="475 17 467 13 467 21"/>
</svg>
