<svg xmlns="http://www.w3.org/2000/svg" width="555" height="741">
   <polygon points="9 17 1 13 1 21"/>
   <polygon points="17 17 9 13 9 21"/>
   <rect x="31" y="3" width="84" height="32" rx="10"/>
   <rect x="29"
         y="1"
         width="84"
         height="32"
         class="terminal"
         rx="10"/>
   <text class="terminal" x="39" y="21">EXTRACT</text>
   <rect x="135" y="3" width="24" height="32" rx="10"/>
   <rect x="133"
         y="1"
         width="24"
         height="32"
         class="terminal"
         rx="10"/>
   <text class="terminal" x="143" y="21">(</text>
   <rect x="199" y="3" width="68" height="32" rx="10"/>
   <rect x="197"
         y="1"
         width="68"
         height="32"
         class="terminal"
         rx="10"/>
   <text class="terminal" x="207" y="21">EPOCH</text>
   <rect x="199" y="47" width="106" height="32" rx="10"/>
   <rect x="197"
         y="45"
         width="106"
         height="32"
         class="terminal"
         rx="10"/>
   <text class="terminal" x="207" y="65">MILLENNIUM</text>
   <rect x="199" y="91" width="86" height="32" rx="10"/>
   <rect x="197"
         y="89"
         width="86"
         height="32"
         class="terminal"
         rx="10"/>
   <text class="terminal" x="207" y="109">CENTURY</text>
   <rect x="199" y="135" width="78" height="32" rx="10"/>
   <rect x="197"
         y="133"
         width="78"
         height="32"
         class="terminal"
         rx="10"/>
   <text class="terminal" x="207" y="153">DECADE</text>
   <rect x="199" y="179" width="56" height="32" rx="10"/>
   <rect x="197"
         y="177"
         width="56"
         height="32"
         class="terminal"
         rx="10"/>
   <text class="terminal" x="207" y="197">YEAR</text>
   <rect x="199" y="223" width="86" height="32" rx="10"/>
   <rect x="197"
         y="221"
         width="86"
         height="32"
         class="terminal"
         rx="10"/>
   <text class="terminal" x="207" y="241">QUARTER</text>
   <rect x="199" y="267" width="72" height="32" rx="10"/>
   <rect x="197"
         y="265"
         width="72"
         height="32"
         class="terminal"
         rx="10"/>
   <text class="terminal" x="207" y="285">MONTH</text>
   <rect x="199" y="311" width="60" height="32" rx="10"/>
   <rect x="197"
         y="309"
         width="60"
         height="32"
         class="terminal"
         rx="10"/>
   <text class="terminal" x="207" y="329">WEEK</text>
   <rect x="199" y="355" width="48" height="32" rx="10"/>
   <rect x="197"
         y="353"
         width="48"
         height="32"
         class="terminal"
         rx="10"/>
   <text class="terminal" x="207" y="373">DAY</text>
   <rect x="199" y="399" width="60" height="32" rx="10"/>
   <rect x="197"
         y="397"
         width="60"
         height="32"
         class="terminal"
         rx="10"/>
   <text class="terminal" x="207" y="417">HOUR</text>
   <rect x="199" y="443" width="72" height="32" rx="10"/>
   <rect x="197"
         y="441"
         width="72"
         height="32"
         class="terminal"
         rx="10"/>
   <text class="terminal" x="207" y="461">MINUTE</text>
   <rect x="199" y="487" width="78" height="32" rx="10"/>
   <rect x="197"
         y="485"
         width="78"
         height="32"
         class="terminal"
         rx="10"/>
   <text class="terminal" x="207" y="505">SECOND</text>
   <rect x="199" y="531" width="126" height="32" rx="10"/>
   <rect x="197"
         y="529"
         width="126"
         height="32"
         class="terminal"
         rx="10"/>
   <text class="terminal" x="207" y="549">MICROSECOND</text>
   <rect x="199" y="575" width="114" height="32" rx="10"/>
   <rect x="197"
         y="573"
         width="114"
         height="32"
         class="terminal"
         rx="10"/>
   <text class="terminal" x="207" y="593">MILLISECOND</text>
   <rect x="199" y="619" width="54" height="32" rx="10"/>
   <rect x="197"
         y="617"
         width="54"
         height="32"
         class="terminal"
         rx="10"/>
   <text class="terminal" x="207" y="637">DOW</text>
   <rect x="199" y="663" width="78" height="32" rx="10"/>
   <rect x="197"
         y="661"
         width="78"
         height="32"
         class="terminal"
         rx="10"/>
   <text class="terminal" x="207" y="681">ISODOW</text>
   <rect x="199" y="707" width="50" height="32" rx="10"/>
   <rect x="197"
         y="705"
         width="50"
         height="32"
         class="terminal"
         rx="10"/>
   <text class="terminal" x="207" y="725">DOY</text>
   <rect x="365" y="3" width="60" height="32" rx="10"/>
   <rect x="363"
         y="1"
         width="60"
         height="32"
         class="terminal"
         rx="10"/>
   <text class="terminal" x="373" y="21">FROM</text>
   <rect x="445" y="3" width="38" height="32"/>
   <rect x="443" y="1" width="38" height="32" class="nonterminal"/>
   <text class="nonterminal" x="453" y="21">val</text>
   <rect x="503" y="3" width="24" height="32" rx="10"/>
   <rect x="501"
         y="1"
         width="24"
         height="32"
         class="terminal"
         rx="10"/>
   <text class="terminal" x="511" y="21">)</text>
   <path class="line"
         d="m17 17 h2 m0 0 h10 m84 0 h10 m0 0 h10 m24 0 h10 m20 0 h10 m68 0 h10 m0 0 h58 m-166 0 h20 m146 0 h20 m-186 0 q10 0 10 10 m166 0 q0 -10 10 -10 m-176 10 v24 m166 0 v-24 m-166 24 q0 10 10 10 m146 0 q10 0 10 -10 m-156 10 h10 m106 0 h10 m0 0 h20 m-156 -10 v20 m166 0 v-20 m-166 20 v24 m166 0 v-24 m-166 24 q0 10 10 10 m146 0 q10 0 10 -10 m-156 10 h10 m86 0 h10 m0 0 h40 m-156 -10 v20 m166 0 v-20 m-166 20 v24 m166 0 v-24 m-166 24 q0 10 10 10 m146 0 q10 0 10 -10 m-156 10 h10 m78 0 h10 m0 0 h48 m-156 -10 v20 m166 0 v-20 m-166 20 v24 m166 0 v-24 m-166 24 q0 10 10 10 m146 0 q10 0 10 -10 m-156 10 h10 m56 0 h10 m0 0 h70 m-156 -10 v20 m166 0 v-20 m-166 20 v24 m166 0 v-24 m-166 24 q0 10 10 10 m146 0 q10 0 10 -10 m-156 10 h10 m86 0 h10 m0 0 h40 m-156 -10 v20 m166 0 v-20 m-166 20 v24 m166 0 v-24 m-166 24 q0 10 10 10 m146 0 q10 0 10 -10 m-156 10 h10 m72 0 h10 m0 0 h54 m-156 -10 v20 m166 0 v-20 m-166 20 v24 m166 0 v-24 m-166 24 q0 10 10 10 m146 0 q10 0 10 -10 m-156 10 h10 m60 0 h10 m0 0 h66 m-156 -10 v20 m166 0 v-20 m-166 20 v24 m166 0 v-24 m-166 24 q0 10 10 10 m146 0 q10 0 10 -10 m-156 10 h10 m48 0 h10 m0 0 h78 m-156 -10 v20 m166 0 v-20 m-166 20 v24 m166 0 v-24 m-166 24 q0 10 10 10 m146 0 q10 0 10 -10 m-156 10 h10 m60 0 h10 m0 0 h66 m-156 -10 v20 m166 0 v-20 m-166 20 v24 m166 0 v-24 m-166 24 q0 10 10 10 m146 0 q10 0 10 -10 m-156 10 h10 m72 0 h10 m0 0 h54 m-156 -10 v20 m166 0 v-20 m-166 20 v24 m166 0 v-24 m-166 24 q0 10 10 10 m146 0 q10 0 10 -10 m-156 10 h10 m78 0 h10 m0 0 h48 m-156 -10 v20 m166 0 v-20 m-166 20 v24 m166 0 v-24 m-166 24 q0 10 10 10 m146 0 q10 0 10 -10 m-156 10 h10 m126 0 h10 m-156 -10 v20 m166 0 v-20 m-166 20 v24 m166 0 v-24 m-166 24 q0 10 10 10 m146 0 q10 0 10 -10 m-156 10 h10 m114 0 h10 m0 0 h12 m-156 -10 v20 m166 0 v-20 m-166 20 v24 m166 0 v-24 m-166 24 q0 10 10 10 m146 0 q10 0 10 -10 m-156 10 h10 m54 0 h10 m0 0 h72 m-156 -10 v20 m166 0 v-20 m-166 20 v24 m166 0 v-24 m-166 24 q0 10 10 10 m146 0 q10 0 10 -10 m-156 10 h10 m78 0 h10 m0 0 h48 m-156 -10 v20 m166 0 v-20 m-166 20 v24 m166 0 v-24 m-166 24 q0 10 10 10 m146 0 q10 0 10 -10 m-156 10 h10 m50 0 h10 m0 0 h76 m20 -704 h10 m60 0 h10 m0 0 h10 m38 0 h10 m0 0 h10 m24 0 h10 m3 0 h-3"/>
   <polygon points="545 17 553 13 553 21"/>
   <polygon points="545 17 537 13 537 21"/>
</svg>
