<svg xmlns="http://www.w3.org/2000/svg" width="565" height="741">
   <polygon points="9 17 1 13 1 21"/>
   <polygon points="17 17 9 13 9 21"/>
   <rect x="31" y="3" width="88" height="32" rx="10"/>
   <rect x="29"
         y="1"
         width="88"
         height="32"
         class="terminal"
         rx="10"/>
   <text class="terminal" x="39" y="21">EXTRACT</text>
   <rect x="139" y="3" width="26" height="32" rx="10"/>
   <rect x="137"
         y="1"
         width="26"
         height="32"
         class="terminal"
         rx="10"/>
   <text class="terminal" x="147" y="21">(</text>
   <rect x="205" y="3" width="70" height="32" rx="10"/>
   <rect x="203"
         y="1"
         width="70"
         height="32"
         class="terminal"
         rx="10"/>
   <text class="terminal" x="213" y="21">EPOCH</text>
   <rect x="205" y="47" width="108" height="32" rx="10"/>
   <rect x="203"
         y="45"
         width="108"
         height="32"
         class="terminal"
         rx="10"/>
   <text class="terminal" x="213" y="65">MILLENNIUM</text>
   <rect x="205" y="91" width="88" height="32" rx="10"/>
   <rect x="203"
         y="89"
         width="88"
         height="32"
         class="terminal"
         rx="10"/>
   <text class="terminal" x="213" y="109">CENTURY</text>
   <rect x="205" y="135" width="78" height="32" rx="10"/>
   <rect x="203"
         y="133"
         width="78"
         height="32"
         class="terminal"
         rx="10"/>
   <text class="terminal" x="213" y="153">DECADE</text>
   <rect x="205" y="179" width="58" height="32" rx="10"/>
   <rect x="203"
         y="177"
         width="58"
         height="32"
         class="terminal"
         rx="10"/>
   <text class="terminal" x="213" y="197">YEAR</text>
   <rect x="205" y="223" width="88" height="32" rx="10"/>
   <rect x="203"
         y="221"
         width="88"
         height="32"
         class="terminal"
         rx="10"/>
   <text class="terminal" x="213" y="241">QUARTER</text>
   <rect x="205" y="267" width="74" height="32" rx="10"/>
   <rect x="203"
         y="265"
         width="74"
         height="32"
         class="terminal"
         rx="10"/>
   <text class="terminal" x="213" y="285">MONTH</text>
   <rect x="205" y="311" width="60" height="32" rx="10"/>
   <rect x="203"
         y="309"
         width="60"
         height="32"
         class="terminal"
         rx="10"/>
   <text class="terminal" x="213" y="329">WEEK</text>
   <rect x="205" y="355" width="50" height="32" rx="10"/>
   <rect x="203"
         y="353"
         width="50"
         height="32"
         class="terminal"
         rx="10"/>
   <text class="terminal" x="213" y="373">DAY</text>
   <rect x="205" y="399" width="60" height="32" rx="10"/>
   <rect x="203"
         y="397"
         width="60"
         height="32"
         class="terminal"
         rx="10"/>
   <text class="terminal" x="213" y="417">HOUR</text>
   <rect x="205" y="443" width="74" height="32" rx="10"/>
   <rect x="203"
         y="441"
         width="74"
         height="32"
         class="terminal"
         rx="10"/>
   <text class="terminal" x="213" y="461">MINUTE</text>
   <rect x="205" y="487" width="80" height="32" rx="10"/>
   <rect x="203"
         y="485"
         width="80"
         height="32"
         class="terminal"
         rx="10"/>
   <text class="terminal" x="213" y="505">SECOND</text>
   <rect x="205" y="531" width="128" height="32" rx="10"/>
   <rect x="203"
         y="529"
         width="128"
         height="32"
         class="terminal"
         rx="10"/>
   <text class="terminal" x="213" y="549">MICROSECOND</text>
   <rect x="205" y="575" width="116" height="32" rx="10"/>
   <rect x="203"
         y="573"
         width="116"
         height="32"
         class="terminal"
         rx="10"/>
   <text class="terminal" x="213" y="593">MILLISECOND</text>
   <rect x="205" y="619" width="56" height="32" rx="10"/>
   <rect x="203"
         y="617"
         width="56"
         height="32"
         class="terminal"
         rx="10"/>
   <text class="terminal" x="213" y="637">DOW</text>
   <rect x="205" y="663" width="80" height="32" rx="10"/>
   <rect x="203"
         y="661"
         width="80"
         height="32"
         class="terminal"
         rx="10"/>
   <text class="terminal" x="213" y="681">ISODOW</text>
   <rect x="205" y="707" width="50" height="32" rx="10"/>
   <rect x="203"
         y="705"
         width="50"
         height="32"
         class="terminal"
         rx="10"/>
   <text class="terminal" x="213" y="725">DOY</text>
   <rect x="373" y="3" width="60" height="32" rx="10"/>
   <rect x="371"
         y="1"
         width="60"
         height="32"
         class="terminal"
         rx="10"/>
   <text class="terminal" x="381" y="21">FROM</text>
   <rect x="453" y="3" width="38" height="32"/>
   <rect x="451" y="1" width="38" height="32" class="nonterminal"/>
   <text class="nonterminal" x="461" y="21">val</text>
   <rect x="511" y="3" width="26" height="32" rx="10"/>
   <rect x="509"
         y="1"
         width="26"
         height="32"
         class="terminal"
         rx="10"/>
   <text class="terminal" x="519" y="21">)</text>
   <path class="line"
         d="m17 17 h2 m0 0 h10 m88 0 h10 m0 0 h10 m26 0 h10 m20 0 h10 m70 0 h10 m0 0 h58 m-168 0 h20 m148 0 h20 m-188 0 q10 0 10 10 m168 0 q0 -10 10 -10 m-178 10 v24 m168 0 v-24 m-168 24 q0 10 10 10 m148 0 q10 0 10 -10 m-158 10 h10 m108 0 h10 m0 0 h20 m-158 -10 v20 m168 0 v-20 m-168 20 v24 m168 0 v-24 m-168 24 q0 10 10 10 m148 0 q10 0 10 -10 m-158 10 h10 m88 0 h10 m0 0 h40 m-158 -10 v20 m168 0 v-20 m-168 20 v24 m168 0 v-24 m-168 24 q0 10 10 10 m148 0 q10 0 10 -10 m-158 10 h10 m78 0 h10 m0 0 h50 m-158 -10 v20 m168 0 v-20 m-168 20 v24 m168 0 v-24 m-168 24 q0 10 10 10 m148 0 q10 0 10 -10 m-158 10 h10 m58 0 h10 m0 0 h70 m-158 -10 v20 m168 0 v-20 m-168 20 v24 m168 0 v-24 m-168 24 q0 10 10 10 m148 0 q10 0 10 -10 m-158 10 h10 m88 0 h10 m0 0 h40 m-158 -10 v20 m168 0 v-20 m-168 20 v24 m168 0 v-24 m-168 24 q0 10 10 10 m148 0 q10 0 10 -10 m-158 10 h10 m74 0 h10 m0 0 h54 m-158 -10 v20 m168 0 v-20 m-168 20 v24 m168 0 v-24 m-168 24 q0 10 10 10 m148 0 q10 0 10 -10 m-158 10 h10 m60 0 h10 m0 0 h68 m-158 -10 v20 m168 0 v-20 m-168 20 v24 m168 0 v-24 m-168 24 q0 10 10 10 m148 0 q10 0 10 -10 m-158 10 h10 m50 0 h10 m0 0 h78 m-158 -10 v20 m168 0 v-20 m-168 20 v24 m168 0 v-24 m-168 24 q0 10 10 10 m148 0 q10 0 10 -10 m-158 10 h10 m60 0 h10 m0 0 h68 m-158 -10 v20 m168 0 v-20 m-168 20 v24 m168 0 v-24 m-168 24 q0 10 10 10 m148 0 q10 0 10 -10 m-158 10 h10 m74 0 h10 m0 0 h54 m-158 -10 v20 m168 0 v-20 m-168 20 v24 m168 0 v-24 m-168 24 q0 10 10 10 m148 0 q10 0 10 -10 m-158 10 h10 m80 0 h10 m0 0 h48 m-158 -10 v20 m168 0 v-20 m-168 20 v24 m168 0 v-24 m-168 24 q0 10 10 10 m148 0 q10 0 10 -10 m-158 10 h10 m128 0 h10 m-158 -10 v20 m168 0 v-20 m-168 20 v24 m168 0 v-24 m-168 24 q0 10 10 10 m148 0 q10 0 10 -10 m-158 10 h10 m116 0 h10 m0 0 h12 m-158 -10 v20 m168 0 v-20 m-168 20 v24 m168 0 v-24 m-168 24 q0 10 10 10 m148 0 q10 0 10 -10 m-158 10 h10 m56 0 h10 m0 0 h72 m-158 -10 v20 m168 0 v-20 m-168 20 v24 m168 0 v-24 m-168 24 q0 10 10 10 m148 0 q10 0 10 -10 m-158 10 h10 m80 0 h10 m0 0 h48 m-158 -10 v20 m168 0 v-20 m-168 20 v24 m168 0 v-24 m-168 24 q0 10 10 10 m148 0 q10 0 10 -10 m-158 10 h10 m50 0 h10 m0 0 h78 m20 -704 h10 m60 0 h10 m0 0 h10 m38 0 h10 m0 0 h10 m26 0 h10 m3 0 h-3"/>
   <polygon points="555 17 563 13 563 21"/>
   <polygon points="555 17 547 13 547 21"/>
</svg>
