<svg xmlns="http://www.w3.org/2000/svg" width="583" height="69">
   <polygon points="9 17 1 13 1 21"/>
   <polygon points="17 17 9 13 9 21"/>
   <rect x="31" y="3" width="86" height="32" rx="10"/>
   <rect x="29"
         y="1"
         width="86"
         height="32"
         class="terminal"
         rx="10"/>
   <text class="terminal" x="39" y="21">substring</text>
   <rect x="137" y="3" width="26" height="32" rx="10"/>
   <rect x="135"
         y="1"
         width="26"
         height="32"
         class="terminal"
         rx="10"/>
   <text class="terminal" x="145" y="21">(</text>
   <rect x="183" y="3" width="38" height="32"/>
   <rect x="181" y="1" width="38" height="32" class="nonterminal"/>
   <text class="nonterminal" x="191" y="21">str</text>
   <rect x="241" y="3" width="24" height="32" rx="10"/>
   <rect x="239"
         y="1"
         width="24"
         height="32"
         class="terminal"
         rx="10"/>
   <text class="terminal" x="249" y="21">,</text>
   <rect x="285" y="3" width="80" height="32"/>
   <rect x="283" y="1" width="80" height="32" class="nonterminal"/>
   <text class="nonterminal" x="293" y="21">start_pos</text>
   <rect x="405" y="35" width="24" height="32" rx="10"/>
   <rect x="403"
         y="33"
         width="24"
         height="32"
         class="terminal"
         rx="10"/>
   <text class="terminal" x="413" y="53">,</text>
   <rect x="449" y="35" width="40" height="32"/>
   <rect x="447" y="33" width="40" height="32" class="nonterminal"/>
   <text class="nonterminal" x="457" y="53">len</text>
   <rect x="529" y="3" width="26" height="32" rx="10"/>
   <rect x="527"
         y="1"
         width="26"
         height="32"
         class="terminal"
         rx="10"/>
   <text class="terminal" x="537" y="21">)</text>
   <path class="line"
         d="m17 17 h2 m0 0 h10 m86 0 h10 m0 0 h10 m26 0 h10 m0 0 h10 m38 0 h10 m0 0 h10 m24 0 h10 m0 0 h10 m80 0 h10 m20 0 h10 m0 0 h94 m-124 0 h20 m104 0 h20 m-144 0 q10 0 10 10 m124 0 q0 -10 10 -10 m-134 10 v12 m124 0 v-12 m-124 12 q0 10 10 10 m104 0 q10 0 10 -10 m-114 10 h10 m24 0 h10 m0 0 h10 m40 0 h10 m20 -32 h10 m26 0 h10 m3 0 h-3"/>
   <polygon points="573 17 581 13 581 21"/>
   <polygon points="573 17 565 13 565 21"/>
</svg>
