<svg xmlns="http://www.w3.org/2000/svg" width="361" height="37">
   <polygon points="9 17 1 13 1 21"/>
   <polygon points="17 17 9 13 9 21"/>
   <rect x="31" y="3" width="122" height="32" rx="10"/>
   <rect x="29"
         y="1"
         width="122"
         height="32"
         class="terminal"
         rx="10"/>
   <text class="terminal" x="39" y="21">justify_interval</text>
   <rect x="173" y="3" width="26" height="32" rx="10"/>
   <rect x="171"
         y="1"
         width="26"
         height="32"
         class="terminal"
         rx="10"/>
   <text class="terminal" x="181" y="21">(</text>
   <rect x="219" y="3" width="68" height="32"/>
   <rect x="217" y="1" width="68" height="32" class="nonterminal"/>
   <text class="nonterminal" x="227" y="21">interval</text>
   <rect x="307" y="3" width="26" height="32" rx="10"/>
   <rect x="305"
         y="1"
         width="26"
         height="32"
         class="terminal"
         rx="10"/>
   <text class="terminal" x="315" y="21">)</text>
   <path class="line"
         d="m17 17 h2 m0 0 h10 m122 0 h10 m0 0 h10 m26 0 h10 m0 0 h10 m68 0 h10 m0 0 h10 m26 0 h10 m3 0 h-3"/>
   <polygon points="351 17 359 13 359 21"/>
   <polygon points="351 17 343 13 343 21"/>
</svg>
