<svg xmlns="http://www.w3.org/2000/svg" width="431" height="37">
   <polygon points="9 17 1 13 1 21"/>
   <polygon points="17 17 9 13 9 21"/>
   <rect x="31" y="3" width="142" height="32" rx="10"/>
   <rect x="29"
         y="1"
         width="142"
         height="32"
         class="terminal"
         rx="10"/>
   <text class="terminal" x="39" y="21">window_tumbling</text>
   <rect x="193" y="3" width="26" height="32" rx="10"/>
   <rect x="191"
         y="1"
         width="26"
         height="32"
         class="terminal"
         rx="10"/>
   <text class="terminal" x="201" y="21">(</text>
   <rect x="239" y="3" width="32" height="32"/>
   <rect x="237" y="1" width="32" height="32" class="nonterminal"/>
   <text class="nonterminal" x="247" y="21">ts</text>
   <rect x="291" y="3" width="24" height="32" rx="10"/>
   <rect x="289"
         y="1"
         width="24"
         height="32"
         class="terminal"
         rx="10"/>
   <text class="terminal" x="299" y="21">,</text>
   <rect x="335" y="3" width="22" height="32"/>
   <rect x="333" y="1" width="22" height="32" class="nonterminal"/>
   <text class="nonterminal" x="343" y="21">i</text>
   <rect x="377" y="3" width="26" height="32" rx="10"/>
   <rect x="375"
         y="1"
         width="26"
         height="32"
         class="terminal"
         rx="10"/>
   <text class="terminal" x="385" y="21">)</text>
   <path class="line"
         d="m17 17 h2 m0 0 h10 m142 0 h10 m0 0 h10 m26 0 h10 m0 0 h10 m32 0 h10 m0 0 h10 m24 0 h10 m0 0 h10 m22 0 h10 m0 0 h10 m26 0 h10 m3 0 h-3"/>
   <polygon points="421 17 429 13 429 21"/>
   <polygon points="421 17 413 13 413 21"/>
</svg>
