<svg xmlns="http://www.w3.org/2000/svg" width="565" height="69">
   <polygon points="9 17 1 13 1 21"/>
   <polygon points="17 17 9 13 9 21"/>
   <rect x="31" y="3" width="80" height="32" rx="10"/>
   <rect x="29"
         y="1"
         width="80"
         height="32"
         class="terminal"
         rx="10"/>
   <text class="terminal" x="39" y="21">substring</text>
   <rect x="131" y="3" width="24" height="32" rx="10"/>
   <rect x="129"
         y="1"
         width="24"
         height="32"
         class="terminal"
         rx="10"/>
   <text class="terminal" x="139" y="21">(</text>
   <rect x="175" y="3" width="36" height="32"/>
   <rect x="173" y="1" width="36" height="32" class="nonterminal"/>
   <text class="nonterminal" x="183" y="21">str</text>
   <rect x="231" y="3" width="24" height="32" rx="10"/>
   <rect x="229"
         y="1"
         width="24"
         height="32"
         class="terminal"
         rx="10"/>
   <text class="terminal" x="239" y="21">,</text>
   <rect x="275" y="3" width="76" height="32"/>
   <rect x="273" y="1" width="76" height="32" class="nonterminal"/>
   <text class="nonterminal" x="283" y="21">start_pos</text>
   <rect x="391" y="35" width="24" height="32" rx="10"/>
   <rect x="389"
         y="33"
         width="24"
         height="32"
         class="terminal"
         rx="10"/>
   <text class="terminal" x="399" y="53">,</text>
   <rect x="435" y="35" width="38" height="32"/>
   <rect x="433" y="33" width="38" height="32" class="nonterminal"/>
   <text class="nonterminal" x="443" y="53">len</text>
   <rect x="513" y="3" width="24" height="32" rx="10"/>
   <rect x="511"
         y="1"
         width="24"
         height="32"
         class="terminal"
         rx="10"/>
   <text class="terminal" x="521" y="21">)</text>
   <path class="line"
         d="m17 17 h2 m0 0 h10 m80 0 h10 m0 0 h10 m24 0 h10 m0 0 h10 m36 0 h10 m0 0 h10 m24 0 h10 m0 0 h10 m76 0 h10 m20 0 h10 m0 0 h92 m-122 0 h20 m102 0 h20 m-142 0 q10 0 10 10 m122 0 q0 -10 10 -10 m-132 10 v12 m122 0 v-12 m-122 12 q0 10 10 10 m102 0 q10 0 10 -10 m-112 10 h10 m24 0 h10 m0 0 h10 m38 0 h10 m20 -32 h10 m24 0 h10 m3 0 h-3"/>
   <polygon points="555 17 563 13 563 21"/>
   <polygon points="555 17 547 13 547 21"/>
</svg>
