<svg xmlns="http://www.w3.org/2000/svg" width="385" height="37">
   <polygon points="9 17 1 13 1 21"/>
   <polygon points="17 17 9 13 9 21"/>
   <rect x="31" y="3" width="56" height="32" rx="10"/>
   <rect x="29"
         y="1"
         width="56"
         height="32"
         class="terminal"
         rx="10"/>
   <text class="terminal" x="39" y="21">CAST</text>
   <rect x="107" y="3" width="24" height="32" rx="10"/>
   <rect x="105"
         y="1"
         width="24"
         height="32"
         class="terminal"
         rx="10"/>
   <text class="terminal" x="115" y="21">(</text>
   <a xmlns:xlink="http://www.w3.org/1999/xlink"
      xlink:href="#val"
      xlink:title="val">
      <rect x="151" y="3" width="38" height="32"/>
      <rect x="149" y="1" width="38" height="32" class="nonterminal"/>
      <text class="nonterminal" x="159" y="21">val</text>
   </a>
   <rect x="209" y="3" width="38" height="32" rx="10"/>
   <rect x="207"
         y="1"
         width="38"
         height="32"
         class="terminal"
         rx="10"/>
   <text class="terminal" x="217" y="21">AS</text>
   <a xmlns:xlink="http://www.w3.org/1999/xlink"
      xlink:href="#type"
      xlink:title="type">
      <rect x="267" y="3" width="46" height="32"/>
      <rect x="265" y="1" width="46" height="32" class="nonterminal"/>
      <text class="nonterminal" x="275" y="21">type</text>
   </a>
   <rect x="333" y="3" width="24" height="32" rx="10"/>
   <rect x="331"
         y="1"
         width="24"
         height="32"
         class="terminal"
         rx="10"/>
   <text class="terminal" x="341" y="21">)</text>
   <path class="line"
         d="m17 17 h2 m0 0 h10 m56 0 h10 m0 0 h10 m24 0 h10 m0 0 h10 m38 0 h10 m0 0 h10 m38 0 h10 m0 0 h10 m46 0 h10 m0 0 h10 m24 0 h10 m3 0 h-3"/>
   <polygon points="375 17 383 13 383 21"/>
   <polygon points="375 17 367 13 367 21"/>
</svg>
