<svg xmlns="http://www.w3.org/2000/svg" width="545" height="81">
   <polygon points="9 17 1 13 1 21"/>
   <polygon points="17 17 9 13 9 21"/>
   <rect x="31" y="3" width="92" height="32" rx="10"/>
   <rect x="29"
         y="1"
         width="92"
         height="32"
         class="terminal"
         rx="10"/>
   <text class="terminal" x="39" y="21">TIMEZONE</text>
   <rect x="143" y="3" width="24" height="32" rx="10"/>
   <rect x="141"
         y="1"
         width="24"
         height="32"
         class="terminal"
         rx="10"/>
   <text class="terminal" x="151" y="21">(</text>
   <rect x="187" y="3" width="84" height="32" rx="10"/>
   <rect x="185"
         y="1"
         width="84"
         height="32"
         class="terminal"
         rx="10"/>
   <text class="terminal" x="195" y="21">zone::type</text>
   <rect x="291" y="3" width="24" height="32" rx="10"/>
   <rect x="289"
         y="1"
         width="24"
         height="32"
         class="terminal"
         rx="10"/>
   <text class="terminal" x="299" y="21">,</text>
   <rect x="355" y="3" width="86" height="32" rx="10"/>
   <rect x="353"
         y="1"
         width="86"
         height="32"
         class="terminal"
         rx="10"/>
   <text class="terminal" x="363" y="21">timestamp</text>
   <rect x="355" y="47" width="98" height="32" rx="10"/>
   <rect x="353"
         y="45"
         width="98"
         height="32"
         class="terminal"
         rx="10"/>
   <text class="terminal" x="363" y="65">timestamptz</text>
   <rect x="493" y="3" width="24" height="32" rx="10"/>
   <rect x="491"
         y="1"
         width="24"
         height="32"
         class="terminal"
         rx="10"/>
   <text class="terminal" x="501" y="21">)</text>
   <path class="line"
         d="m17 17 h2 m0 0 h10 m92 0 h10 m0 0 h10 m24 0 h10 m0 0 h10 m84 0 h10 m0 0 h10 m24 0 h10 m20 0 h10 m86 0 h10 m0 0 h12 m-138 0 h20 m118 0 h20 m-158 0 q10 0 10 10 m138 0 q0 -10 10 -10 m-148 10 v24 m138 0 v-24 m-138 24 q0 10 10 10 m118 0 q10 0 10 -10 m-128 10 h10 m98 0 h10 m20 -44 h10 m24 0 h10 m3 0 h-3"/>
   <polygon points="535 17 543 13 543 21"/>
   <polygon points="535 17 527 13 527 21"/>
</svg>
