<svg xmlns="http://www.w3.org/2000/svg" width="555" height="37">
   <polygon points="9 17 1 13 1 21"/>
   <polygon points="17 17 9 13 9 21"/>
   <rect x="31" y="3" width="78" height="32" rx="10"/>
   <rect x="29"
         y="1"
         width="78"
         height="32"
         class="terminal"
         rx="10"/>
   <text class="terminal" x="39" y="21">date_bin</text>
   <rect x="129" y="3" width="26" height="32" rx="10"/>
   <rect x="127"
         y="1"
         width="26"
         height="32"
         class="terminal"
         rx="10"/>
   <text class="terminal" x="137" y="21">(</text>
   <rect x="175" y="3" width="58" height="32"/>
   <rect x="173" y="1" width="58" height="32" class="nonterminal"/>
   <text class="nonterminal" x="183" y="21">stride</text>
   <rect x="253" y="3" width="24" height="32" rx="10"/>
   <rect x="251"
         y="1"
         width="24"
         height="32"
         class="terminal"
         rx="10"/>
   <text class="terminal" x="261" y="21">,</text>
   <rect x="297" y="3" width="64" height="32"/>
   <rect x="295" y="1" width="64" height="32" class="nonterminal"/>
   <text class="nonterminal" x="305" y="21">source</text>
   <rect x="381" y="3" width="24" height="32" rx="10"/>
   <rect x="379"
         y="1"
         width="24"
         height="32"
         class="terminal"
         rx="10"/>
   <text class="terminal" x="389" y="21">,</text>
   <rect x="425" y="3" width="56" height="32"/>
   <rect x="423" y="1" width="56" height="32" class="nonterminal"/>
   <text class="nonterminal" x="433" y="21">origin</text>
   <rect x="501" y="3" width="26" height="32" rx="10"/>
   <rect x="499"
         y="1"
         width="26"
         height="32"
         class="terminal"
         rx="10"/>
   <text class="terminal" x="509" y="21">)</text>
   <path class="line"
         d="m17 17 h2 m0 0 h10 m78 0 h10 m0 0 h10 m26 0 h10 m0 0 h10 m58 0 h10 m0 0 h10 m24 0 h10 m0 0 h10 m64 0 h10 m0 0 h10 m24 0 h10 m0 0 h10 m56 0 h10 m0 0 h10 m26 0 h10 m3 0 h-3"/>
   <polygon points="545 17 553 13 553 21"/>
   <polygon points="545 17 537 13 537 21"/>
</svg>
