<svg xmlns="http://www.w3.org/2000/svg" width="543" height="135">
   <polygon points="9 17 1 13 1 21"/>
   <polygon points="17 17 9 13 9 21"/>
   <rect x="31" y="3" width="78" height="32" rx="10"/>
   <rect x="29"
         y="1"
         width="78"
         height="32"
         class="terminal"
         rx="10"/>
   <text class="terminal" x="39" y="21">date_bin</text>
   <rect x="129" y="3" width="26" height="32" rx="10"/>
   <rect x="127"
         y="1"
         width="26"
         height="32"
         class="terminal"
         rx="10"/>
   <text class="terminal" x="137" y="21">(</text>
   <rect x="175" y="3" width="58" height="32"/>
   <rect x="173" y="1" width="58" height="32" class="nonterminal"/>
   <text class="nonterminal" x="183" y="21">stride</text>
   <rect x="253" y="3" width="24" height="32" rx="10"/>
   <rect x="251"
         y="1"
         width="24"
         height="32"
         class="terminal"
         rx="10"/>
   <text class="terminal" x="261" y="21">,</text>
   <rect x="297" y="3" width="64" height="32"/>
   <rect x="295" y="1" width="64" height="32" class="nonterminal"/>
   <text class="nonterminal" x="305" y="21">source</text>
   <rect x="401" y="35" width="24" height="32" rx="10"/>
   <rect x="399"
         y="33"
         width="24"
         height="32"
         class="terminal"
         rx="10"/>
   <text class="terminal" x="409" y="53">,</text>
   <rect x="445" y="35" width="56" height="32"/>
   <rect x="443" y="33" width="56" height="32" class="nonterminal"/>
   <text class="nonterminal" x="453" y="53">origin</text>
   <rect x="489" y="101" width="26" height="32" rx="10"/>
   <rect x="487"
         y="99"
         width="26"
         height="32"
         class="terminal"
         rx="10"/>
   <text class="terminal" x="497" y="119">)</text>
   <path class="line"
         d="m17 17 h2 m0 0 h10 m78 0 h10 m0 0 h10 m26 0 h10 m0 0 h10 m58 0 h10 m0 0 h10 m24 0 h10 m0 0 h10 m64 0 h10 m20 0 h10 m0 0 h110 m-140 0 h20 m120 0 h20 m-160 0 q10 0 10 10 m140 0 q0 -10 10 -10 m-150 10 v12 m140 0 v-12 m-140 12 q0 10 10 10 m120 0 q10 0 10 -10 m-130 10 h10 m24 0 h10 m0 0 h10 m56 0 h10 m22 -32 l2 0 m2 0 l2 0 m2 0 l2 0 m-76 98 l2 0 m2 0 l2 0 m2 0 l2 0 m2 0 h10 m26 0 h10 m3 0 h-3"/>
   <polygon points="533 115 541 111 541 119"/>
   <polygon points="533 115 525 111 525 119"/>
</svg>
