<svg xmlns="http://www.w3.org/2000/svg" width="503" height="37">
   <polygon points="9 17 1 13 1 21"/>
   <polygon points="17 17 9 13 9 21"/>
   <rect x="31" y="3" width="92" height="32" rx="10"/>
   <rect x="29"
         y="1"
         width="92"
         height="32"
         class="terminal"
         rx="10"/>
   <text class="terminal" x="39" y="21">csv_extract</text>
   <rect x="143" y="3" width="24" height="32" rx="10"/>
   <rect x="141"
         y="1"
         width="24"
         height="32"
         class="terminal"
         rx="10"/>
   <text class="terminal" x="151" y="21">(</text>
   <rect x="187" y="3" width="100" height="32"/>
   <rect x="185" y="1" width="100" height="32" class="nonterminal"/>
   <text class="nonterminal" x="195" y="21">num_csv_col</text>
   <rect x="307" y="3" width="24" height="32" rx="10"/>
   <rect x="305"
         y="1"
         width="24"
         height="32"
         class="terminal"
         rx="10"/>
   <text class="terminal" x="315" y="21">,</text>
   <rect x="351" y="3" width="80" height="32"/>
   <rect x="349" y="1" width="80" height="32" class="nonterminal"/>
   <text class="nonterminal" x="359" y="21">col_name</text>
   <rect x="451" y="3" width="24" height="32" rx="10"/>
   <rect x="449"
         y="1"
         width="24"
         height="32"
         class="terminal"
         rx="10"/>
   <text class="terminal" x="459" y="21">)</text>
   <path class="line"
         d="m17 17 h2 m0 0 h10 m92 0 h10 m0 0 h10 m24 0 h10 m0 0 h10 m100 0 h10 m0 0 h10 m24 0 h10 m0 0 h10 m80 0 h10 m0 0 h10 m24 0 h10 m3 0 h-3"/>
   <polygon points="493 17 501 13 501 21"/>
   <polygon points="493 17 485 13 485 21"/>
</svg>
