<svg xmlns="http://www.w3.org/2000/svg" width="553" height="135">
   <polygon points="9 17 1 13 1 21"/>
   <polygon points="17 17 9 13 9 21"/>
   <rect x="31" y="3" width="142" height="32" rx="10"/>
   <rect x="29"
         y="1"
         width="142"
         height="32"
         class="terminal"
         rx="10"/>
   <text class="terminal" x="39" y="21">date_bin_hopping</text>
   <rect x="193" y="3" width="26" height="32" rx="10"/>
   <rect x="191"
         y="1"
         width="26"
         height="32"
         class="terminal"
         rx="10"/>
   <text class="terminal" x="201" y="21">(</text>
   <rect x="239" y="3" width="44" height="32"/>
   <rect x="237" y="1" width="44" height="32" class="nonterminal"/>
   <text class="nonterminal" x="247" y="21">hop</text>
   <rect x="303" y="3" width="24" height="32" rx="10"/>
   <rect x="301"
         y="1"
         width="24"
         height="32"
         class="terminal"
         rx="10"/>
   <text class="terminal" x="311" y="21">,</text>
   <rect x="347" y="3" width="56" height="32"/>
   <rect x="345" y="1" width="56" height="32" class="nonterminal"/>
   <text class="nonterminal" x="355" y="21">width</text>
   <rect x="423" y="3" width="24" height="32" rx="10"/>
   <rect x="421"
         y="1"
         width="24"
         height="32"
         class="terminal"
         rx="10"/>
   <text class="terminal" x="431" y="21">,</text>
   <rect x="467" y="3" width="64" height="32"/>
   <rect x="465" y="1" width="64" height="32" class="nonterminal"/>
   <text class="nonterminal" x="475" y="21">source</text>
   <rect x="359" y="101" width="24" height="32" rx="10"/>
   <rect x="357"
         y="99"
         width="24"
         height="32"
         class="terminal"
         rx="10"/>
   <text class="terminal" x="367" y="119">,</text>
   <rect x="403" y="101" width="56" height="32"/>
   <rect x="401" y="99" width="56" height="32" class="nonterminal"/>
   <text class="nonterminal" x="411" y="119">origin</text>
   <rect x="499" y="69" width="26" height="32" rx="10"/>
   <rect x="497"
         y="67"
         width="26"
         height="32"
         class="terminal"
         rx="10"/>
   <text class="terminal" x="507" y="87">)</text>
   <path class="line"
         d="m17 17 h2 m0 0 h10 m142 0 h10 m0 0 h10 m26 0 h10 m0 0 h10 m44 0 h10 m0 0 h10 m24 0 h10 m0 0 h10 m56 0 h10 m0 0 h10 m24 0 h10 m0 0 h10 m64 0 h10 m2 0 l2 0 m2 0 l2 0 m2 0 l2 0 m-236 66 l2 0 m2 0 l2 0 m2 0 l2 0 m22 0 h10 m0 0 h110 m-140 0 h20 m120 0 h20 m-160 0 q10 0 10 10 m140 0 q0 -10 10 -10 m-150 10 v12 m140 0 v-12 m-140 12 q0 10 10 10 m120 0 q10 0 10 -10 m-130 10 h10 m24 0 h10 m0 0 h10 m56 0 h10 m20 -32 h10 m26 0 h10 m3 0 h-3"/>
   <polygon points="543 83 551 79 551 87"/>
   <polygon points="543 83 535 79 535 87"/>
</svg>
