<svg xmlns="http://www.w3.org/2000/svg" width="571" height="147">
   <polygon points="9 17 1 13 1 21"/>
   <polygon points="17 17 9 13 9 21"/>
   <rect x="31" y="3" width="92" height="32" rx="10"/>
   <rect x="29"
         y="1"
         width="92"
         height="32"
         class="terminal"
         rx="10"/>
   <text class="terminal" x="39" y="21">TIMEZONE</text>
   <rect x="143" y="3" width="24" height="32" rx="10"/>
   <rect x="141"
         y="1"
         width="24"
         height="32"
         class="terminal"
         rx="10"/>
   <text class="terminal" x="151" y="21">(</text>
   <rect x="187" y="3" width="48" height="32"/>
   <rect x="185" y="1" width="48" height="32" class="nonterminal"/>
   <text class="nonterminal" x="195" y="21">zone</text>
   <rect x="255" y="3" width="26" height="32" rx="10"/>
   <rect x="253"
         y="1"
         width="26"
         height="32"
         class="terminal"
         rx="10"/>
   <text class="terminal" x="263" y="21">::</text>
   <rect x="301" y="3" width="46" height="32"/>
   <rect x="299" y="1" width="46" height="32" class="nonterminal"/>
   <text class="nonterminal" x="309" y="21">type</text>
   <rect x="367" y="3" width="24" height="32" rx="10"/>
   <rect x="365"
         y="1"
         width="24"
         height="32"
         class="terminal"
         rx="10"/>
   <text class="terminal" x="375" y="21">,</text>
   <rect x="431" y="3" width="86" height="32" rx="10"/>
   <rect x="429"
         y="1"
         width="86"
         height="32"
         class="terminal"
         rx="10"/>
   <text class="terminal" x="439" y="21">timestamp</text>
   <rect x="431" y="47" width="98" height="32" rx="10"/>
   <rect x="429"
         y="45"
         width="98"
         height="32"
         class="terminal"
         rx="10"/>
   <text class="terminal" x="439" y="65">timestamptz</text>
   <rect x="519" y="113" width="24" height="32" rx="10"/>
   <rect x="517"
         y="111"
         width="24"
         height="32"
         class="terminal"
         rx="10"/>
   <text class="terminal" x="527" y="131">)</text>
   <path class="line"
         d="m17 17 h2 m0 0 h10 m92 0 h10 m0 0 h10 m24 0 h10 m0 0 h10 m48 0 h10 m0 0 h10 m26 0 h10 m0 0 h10 m46 0 h10 m0 0 h10 m24 0 h10 m20 0 h10 m86 0 h10 m0 0 h12 m-138 0 h20 m118 0 h20 m-158 0 q10 0 10 10 m138 0 q0 -10 10 -10 m-148 10 v24 m138 0 v-24 m-138 24 q0 10 10 10 m118 0 q10 0 10 -10 m-128 10 h10 m98 0 h10 m22 -44 l2 0 m2 0 l2 0 m2 0 l2 0 m-74 110 l2 0 m2 0 l2 0 m2 0 l2 0 m2 0 h10 m24 0 h10 m3 0 h-3"/>
   <polygon points="561 127 569 123 569 131"/>
   <polygon points="561 127 553 123 553 131"/>
</svg>
