<svg xmlns="http://www.w3.org/2000/svg" width="501" height="69">
   <polygon points="9 17 1 13 1 21"/>
   <polygon points="17 17 9 13 9 21"/>
   <rect x="31" y="3" width="64" height="32" rx="10"/>
   <rect x="29"
         y="1"
         width="64"
         height="32"
         class="terminal"
         rx="10"/>
   <text class="terminal" x="39" y="21">length</text>
   <rect x="115" y="3" width="26" height="32" rx="10"/>
   <rect x="113"
         y="1"
         width="26"
         height="32"
         class="terminal"
         rx="10"/>
   <text class="terminal" x="123" y="21">(</text>
   <rect x="161" y="3" width="38" height="32"/>
   <rect x="159" y="1" width="38" height="32" class="nonterminal"/>
   <text class="nonterminal" x="169" y="21">str</text>
   <rect x="239" y="35" width="24" height="32" rx="10"/>
   <rect x="237"
         y="33"
         width="24"
         height="32"
         class="terminal"
         rx="10"/>
   <text class="terminal" x="247" y="53">,</text>
   <rect x="283" y="35" width="124" height="32"/>
   <rect x="281" y="33" width="124" height="32" class="nonterminal"/>
   <text class="nonterminal" x="291" y="53">encoding_name</text>
   <rect x="447" y="3" width="26" height="32" rx="10"/>
   <rect x="445"
         y="1"
         width="26"
         height="32"
         class="terminal"
         rx="10"/>
   <text class="terminal" x="455" y="21">)</text>
   <path class="line"
         d="m17 17 h2 m0 0 h10 m64 0 h10 m0 0 h10 m26 0 h10 m0 0 h10 m38 0 h10 m20 0 h10 m0 0 h178 m-208 0 h20 m188 0 h20 m-228 0 q10 0 10 10 m208 0 q0 -10 10 -10 m-218 10 v12 m208 0 v-12 m-208 12 q0 10 10 10 m188 0 q10 0 10 -10 m-198 10 h10 m24 0 h10 m0 0 h10 m124 0 h10 m20 -32 h10 m26 0 h10 m3 0 h-3"/>
   <polygon points="491 17 499 13 499 21"/>
   <polygon points="491 17 483 13 483 21"/>
</svg>
