<svg xmlns="http://www.w3.org/2000/svg" width="599" height="147">
   <polygon points="9 17 1 13 1 21"/>
   <polygon points="17 17 9 13 9 21"/>
   <rect x="31" y="3" width="72" height="32" rx="10"/>
   <rect x="29"
         y="1"
         width="72"
         height="32"
         class="terminal"
         rx="10"/>
   <text class="terminal" x="39" y="21">SELECT</text>
   <rect x="143" y="3" width="100" height="32" rx="10"/>
   <rect x="141"
         y="1"
         width="100"
         height="32"
         class="terminal"
         rx="10"/>
   <text class="terminal" x="151" y="21">TIMESTAMP</text>
   <rect x="143" y="47" width="118" height="32" rx="10"/>
   <rect x="141"
         y="45"
         width="118"
         height="32"
         class="terminal"
         rx="10"/>
   <text class="terminal" x="151" y="65">TIMESTAMPTZ</text>
   <rect x="321" y="3" width="86" height="32" rx="10"/>
   <rect x="319"
         y="1"
         width="86"
         height="32"
         class="terminal"
         rx="10"/>
   <text class="terminal" x="329" y="21">timestamp</text>
   <rect x="321" y="47" width="98" height="32" rx="10"/>
   <rect x="319"
         y="45"
         width="98"
         height="32"
         class="terminal"
         rx="10"/>
   <text class="terminal" x="329" y="65">timestamptz</text>
   <rect x="459" y="3" width="118" height="32" rx="10"/>
   <rect x="457"
         y="1"
         width="118"
         height="32"
         class="terminal"
         rx="10"/>
   <text class="terminal" x="467" y="21">AT TIME ZONE</text>
   <rect x="487" y="113" width="84" height="32" rx="10"/>
   <rect x="485"
         y="111"
         width="84"
         height="32"
         class="terminal"
         rx="10"/>
   <text class="terminal" x="495" y="131">zone::type</text>
   <path class="line"
         d="m17 17 h2 m0 0 h10 m72 0 h10 m20 0 h10 m100 0 h10 m0 0 h18 m-158 0 h20 m138 0 h20 m-178 0 q10 0 10 10 m158 0 q0 -10 10 -10 m-168 10 v24 m158 0 v-24 m-158 24 q0 10 10 10 m138 0 q10 0 10 -10 m-148 10 h10 m118 0 h10 m40 -44 h10 m86 0 h10 m0 0 h12 m-138 0 h20 m118 0 h20 m-158 0 q10 0 10 10 m138 0 q0 -10 10 -10 m-148 10 v24 m138 0 v-24 m-138 24 q0 10 10 10 m118 0 q10 0 10 -10 m-128 10 h10 m98 0 h10 m20 -44 h10 m118 0 h10 m2 0 l2 0 m2 0 l2 0 m2 0 l2 0 m-134 110 l2 0 m2 0 l2 0 m2 0 l2 0 m2 0 h10 m84 0 h10 m3 0 h-3"/>
   <polygon points="589 127 597 123 597 131"/>
   <polygon points="589 127 581 123 581 131"/>
</svg>
