<svg xmlns="http://www.w3.org/2000/svg" width="541" height="807">
   <polygon points="9 17 1 13 1 21"/>
   <polygon points="17 17 9 13 9 21"/>
   <rect x="31" y="3" width="86" height="32" rx="10"/>
   <rect x="29"
         y="1"
         width="86"
         height="32"
         class="terminal"
         rx="10"/>
   <text class="terminal" x="39" y="21">date_part</text>
   <rect x="137" y="3" width="26" height="32" rx="10"/>
   <rect x="135"
         y="1"
         width="26"
         height="32"
         class="terminal"
         rx="10"/>
   <text class="terminal" x="145" y="21">(</text>
   <rect x="183" y="3" width="22" height="32" rx="10"/>
   <rect x="181"
         y="1"
         width="22"
         height="32"
         class="terminal"
         rx="10"/>
   <text class="terminal" x="191" y="21">'</text>
   <rect x="245" y="3" width="62" height="32" rx="10"/>
   <rect x="243"
         y="1"
         width="62"
         height="32"
         class="terminal"
         rx="10"/>
   <text class="terminal" x="253" y="21">epoch</text>
   <rect x="245" y="47" width="94" height="32" rx="10"/>
   <rect x="243"
         y="45"
         width="94"
         height="32"
         class="terminal"
         rx="10"/>
   <text class="terminal" x="253" y="65">millennium</text>
   <rect x="245" y="91" width="74" height="32" rx="10"/>
   <rect x="243"
         y="89"
         width="74"
         height="32"
         class="terminal"
         rx="10"/>
   <text class="terminal" x="253" y="109">century</text>
   <rect x="245" y="135" width="70" height="32" rx="10"/>
   <rect x="243"
         y="133"
         width="70"
         height="32"
         class="terminal"
         rx="10"/>
   <text class="terminal" x="253" y="153">decade</text>
   <rect x="245" y="179" width="50" height="32" rx="10"/>
   <rect x="243"
         y="177"
         width="50"
         height="32"
         class="terminal"
         rx="10"/>
   <text class="terminal" x="253" y="197">year</text>
   <rect x="245" y="223" width="70" height="32" rx="10"/>
   <rect x="243"
         y="221"
         width="70"
         height="32"
         class="terminal"
         rx="10"/>
   <text class="terminal" x="253" y="241">quarter</text>
   <rect x="245" y="267" width="64" height="32" rx="10"/>
   <rect x="243"
         y="265"
         width="64"
         height="32"
         class="terminal"
         rx="10"/>
   <text class="terminal" x="253" y="285">month</text>
   <rect x="245" y="311" width="56" height="32" rx="10"/>
   <rect x="243"
         y="309"
         width="56"
         height="32"
         class="terminal"
         rx="10"/>
   <text class="terminal" x="253" y="329">week</text>
   <rect x="245" y="355" width="42" height="32" rx="10"/>
   <rect x="243"
         y="353"
         width="42"
         height="32"
         class="terminal"
         rx="10"/>
   <text class="terminal" x="253" y="373">dat</text>
   <rect x="245" y="399" width="52" height="32" rx="10"/>
   <rect x="243"
         y="397"
         width="52"
         height="32"
         class="terminal"
         rx="10"/>
   <text class="terminal" x="253" y="417">hour</text>
   <rect x="245" y="443" width="68" height="32" rx="10"/>
   <rect x="243"
         y="441"
         width="68"
         height="32"
         class="terminal"
         rx="10"/>
   <text class="terminal" x="253" y="461">minute</text>
   <rect x="245" y="487" width="70" height="32" rx="10"/>
   <rect x="243"
         y="485"
         width="70"
         height="32"
         class="terminal"
         rx="10"/>
   <text class="terminal" x="253" y="505">second</text>
   <rect x="245" y="531" width="110" height="32" rx="10"/>
   <rect x="243"
         y="529"
         width="110"
         height="32"
         class="terminal"
         rx="10"/>
   <text class="terminal" x="253" y="549">microsecond</text>
   <rect x="245" y="575" width="98" height="32" rx="10"/>
   <rect x="243"
         y="573"
         width="98"
         height="32"
         class="terminal"
         rx="10"/>
   <text class="terminal" x="253" y="593">millisecond</text>
   <rect x="245" y="619" width="48" height="32" rx="10"/>
   <rect x="243"
         y="617"
         width="48"
         height="32"
         class="terminal"
         rx="10"/>
   <text class="terminal" x="253" y="637">dow</text>
   <rect x="245" y="663" width="70" height="32" rx="10"/>
   <rect x="243"
         y="661"
         width="70"
         height="32"
         class="terminal"
         rx="10"/>
   <text class="terminal" x="253" y="681">isodow</text>
   <rect x="245" y="707" width="46" height="32" rx="10"/>
   <rect x="243"
         y="705"
         width="46"
         height="32"
         class="terminal"
         rx="10"/>
   <text class="terminal" x="253" y="725">doy</text>
   <rect x="395" y="3" width="22" height="32" rx="10"/>
   <rect x="393"
         y="1"
         width="22"
         height="32"
         class="terminal"
         rx="10"/>
   <text class="terminal" x="403" y="21">'</text>
   <rect x="437" y="3" width="24" height="32" rx="10"/>
   <rect x="435"
         y="1"
         width="24"
         height="32"
         class="terminal"
         rx="10"/>
   <text class="terminal" x="445" y="21">,</text>
   <rect x="481" y="3" width="38" height="32"/>
   <rect x="479" y="1" width="38" height="32" class="nonterminal"/>
   <text class="nonterminal" x="489" y="21">val</text>
   <rect x="487" y="773" width="26" height="32" rx="10"/>
   <rect x="485"
         y="771"
         width="26"
         height="32"
         class="terminal"
         rx="10"/>
   <text class="terminal" x="495" y="791">)</text>
   <path class="line"
         d="m17 17 h2 m0 0 h10 m86 0 h10 m0 0 h10 m26 0 h10 m0 0 h10 m22 0 h10 m20 0 h10 m62 0 h10 m0 0 h48 m-150 0 h20 m130 0 h20 m-170 0 q10 0 10 10 m150 0 q0 -10 10 -10 m-160 10 v24 m150 0 v-24 m-150 24 q0 10 10 10 m130 0 q10 0 10 -10 m-140 10 h10 m94 0 h10 m0 0 h16 m-140 -10 v20 m150 0 v-20 m-150 20 v24 m150 0 v-24 m-150 24 q0 10 10 10 m130 0 q10 0 10 -10 m-140 10 h10 m74 0 h10 m0 0 h36 m-140 -10 v20 m150 0 v-20 m-150 20 v24 m150 0 v-24 m-150 24 q0 10 10 10 m130 0 q10 0 10 -10 m-140 10 h10 m70 0 h10 m0 0 h40 m-140 -10 v20 m150 0 v-20 m-150 20 v24 m150 0 v-24 m-150 24 q0 10 10 10 m130 0 q10 0 10 -10 m-140 10 h10 m50 0 h10 m0 0 h60 m-140 -10 v20 m150 0 v-20 m-150 20 v24 m150 0 v-24 m-150 24 q0 10 10 10 m130 0 q10 0 10 -10 m-140 10 h10 m70 0 h10 m0 0 h40 m-140 -10 v20 m150 0 v-20 m-150 20 v24 m150 0 v-24 m-150 24 q0 10 10 10 m130 0 q10 0 10 -10 m-140 10 h10 m64 0 h10 m0 0 h46 m-140 -10 v20 m150 0 v-20 m-150 20 v24 m150 0 v-24 m-150 24 q0 10 10 10 m130 0 q10 0 10 -10 m-140 10 h10 m56 0 h10 m0 0 h54 m-140 -10 v20 m150 0 v-20 m-150 20 v24 m150 0 v-24 m-150 24 q0 10 10 10 m130 0 q10 0 10 -10 m-140 10 h10 m42 0 h10 m0 0 h68 m-140 -10 v20 m150 0 v-20 m-150 20 v24 m150 0 v-24 m-150 24 q0 10 10 10 m130 0 q10 0 10 -10 m-140 10 h10 m52 0 h10 m0 0 h58 m-140 -10 v20 m150 0 v-20 m-150 20 v24 m150 0 v-24 m-150 24 q0 10 10 10 m130 0 q10 0 10 -10 m-140 10 h10 m68 0 h10 m0 0 h42 m-140 -10 v20 m150 0 v-20 m-150 20 v24 m150 0 v-24 m-150 24 q0 10 10 10 m130 0 q10 0 10 -10 m-140 10 h10 m70 0 h10 m0 0 h40 m-140 -10 v20 m150 0 v-20 m-150 20 v24 m150 0 v-24 m-150 24 q0 10 10 10 m130 0 q10 0 10 -10 m-140 10 h10 m110 0 h10 m-140 -10 v20 m150 0 v-20 m-150 20 v24 m150 0 v-24 m-150 24 q0 10 10 10 m130 0 q10 0 10 -10 m-140 10 h10 m98 0 h10 m0 0 h12 m-140 -10 v20 m150 0 v-20 m-150 20 v24 m150 0 v-24 m-150 24 q0 10 10 10 m130 0 q10 0 10 -10 m-140 10 h10 m48 0 h10 m0 0 h62 m-140 -10 v20 m150 0 v-20 m-150 20 v24 m150 0 v-24 m-150 24 q0 10 10 10 m130 0 q10 0 10 -10 m-140 10 h10 m70 0 h10 m0 0 h40 m-140 -10 v20 m150 0 v-20 m-150 20 v24 m150 0 v-24 m-150 24 q0 10 10 10 m130 0 q10 0 10 -10 m-140 10 h10 m46 0 h10 m0 0 h64 m20 -704 h10 m22 0 h10 m0 0 h10 m24 0 h10 m0 0 h10 m38 0 h10 m2 0 l2 0 m2 0 l2 0 m2 0 l2 0 m-76 770 l2 0 m2 0 l2 0 m2 0 l2 0 m2 0 h10 m26 0 h10 m3 0 h-3"/>
   <polygon points="531 787 539 783 539 791"/>
   <polygon points="531 787 523 783 523 791"/>
</svg>
