<svg xmlns="http://www.w3.org/2000/svg" width="647" height="925">
   <polygon points="9 61 1 57 1 65"/>
   <polygon points="17 61 9 57 9 65"/>
   <rect x="31" y="47" width="70" height="32" rx="10"/>
   <rect x="29"
         y="45"
         width="70"
         height="32"
         class="terminal"
         rx="10"/>
   <text class="terminal" x="39" y="65">GRANT</text>
   <rect x="161" y="47" width="76" height="32"/>
   <rect x="159" y="45" width="76" height="32" class="nonterminal"/>
   <text class="nonterminal" x="169" y="65">privilege</text>
   <rect x="161" y="3" width="24" height="32" rx="10"/>
   <rect x="159"
         y="1"
         width="24"
         height="32"
         class="terminal"
         rx="10"/>
   <text class="terminal" x="169" y="21">,</text>
   <rect x="141" y="91" width="46" height="32" rx="10"/>
   <rect x="139"
         y="89"
         width="46"
         height="32"
         class="terminal"
         rx="10"/>
   <text class="terminal" x="149" y="109">ALL</text>
   <rect x="227" y="123" width="102" height="32" rx="10"/>
   <rect x="225"
         y="121"
         width="102"
         height="32"
         class="terminal"
         rx="10"/>
   <text class="terminal" x="235" y="141">PRIVILEGES</text>
   <rect x="389" y="47" width="40" height="32"/>
   <rect x="387" y="45" width="40" height="32" class="nonterminal"/>
   <text class="nonterminal" x="397" y="65">ON</text>
   <rect x="65" y="265" width="66" height="32" rx="10"/>
   <rect x="63"
         y="263"
         width="66"
         height="32"
         class="terminal"
         rx="10"/>
   <text class="terminal" x="73" y="283">TABLE</text>
   <rect x="65" y="309" width="56" height="32" rx="10"/>
   <rect x="63"
         y="307"
         width="56"
         height="32"
         class="terminal"
         rx="10"/>
   <text class="terminal" x="73" y="327">TYPE</text>
   <rect x="65" y="353" width="76" height="32" rx="10"/>
   <rect x="63"
         y="351"
         width="76"
         height="32"
         class="terminal"
         rx="10"/>
   <text class="terminal" x="73" y="371">SECRET</text>
   <rect x="65" y="397" width="116" height="32" rx="10"/>
   <rect x="63"
         y="395"
         width="116"
         height="32"
         class="terminal"
         rx="10"/>
   <text class="terminal" x="73" y="415">CONNECTION</text>
   <rect x="65" y="441" width="98" height="32" rx="10"/>
   <rect x="63"
         y="439"
         width="98"
         height="32"
         class="terminal"
         rx="10"/>
   <text class="terminal" x="73" y="459">DATABASE</text>
   <rect x="65" y="485" width="82" height="32" rx="10"/>
   <rect x="63"
         y="483"
         width="82"
         height="32"
         class="terminal"
         rx="10"/>
   <text class="terminal" x="73" y="503">SCHEMA</text>
   <rect x="65" y="529" width="84" height="32" rx="10"/>
   <rect x="63"
         y="527"
         width="84"
         height="32"
         class="terminal"
         rx="10"/>
   <text class="terminal" x="73" y="547">CLUSTER</text>
   <rect x="241" y="233" width="104" height="32"/>
   <rect x="239" y="231" width="104" height="32" class="nonterminal"/>
   <text class="nonterminal" x="249" y="251">object_name</text>
   <rect x="241" y="189" width="24" height="32" rx="10"/>
   <rect x="239"
         y="187"
         width="24"
         height="32"
         class="terminal"
         rx="10"/>
   <text class="terminal" x="249" y="207">,</text>
   <rect x="45" y="617" width="46" height="32" rx="10"/>
   <rect x="43"
         y="615"
         width="46"
         height="32"
         class="terminal"
         rx="10"/>
   <text class="terminal" x="53" y="635">ALL</text>
   <rect x="131" y="617" width="74" height="32" rx="10"/>
   <rect x="129"
         y="615"
         width="74"
         height="32"
         class="terminal"
         rx="10"/>
   <text class="terminal" x="139" y="635">TABLES</text>
   <rect x="131" y="661" width="66" height="32" rx="10"/>
   <rect x="129"
         y="659"
         width="66"
         height="32"
         class="terminal"
         rx="10"/>
   <text class="terminal" x="139" y="679">TYPES</text>
   <rect x="131" y="705" width="84" height="32" rx="10"/>
   <rect x="129"
         y="703"
         width="84"
         height="32"
         class="terminal"
         rx="10"/>
   <text class="terminal" x="139" y="723">SECRETS</text>
   <rect x="131" y="749" width="124" height="32" rx="10"/>
   <rect x="129"
         y="747"
         width="124"
         height="32"
         class="terminal"
         rx="10"/>
   <text class="terminal" x="139" y="767">CONNECTIONS</text>
   <rect x="295" y="617" width="34" height="32" rx="10"/>
   <rect x="293"
         y="615"
         width="34"
         height="32"
         class="terminal"
         rx="10"/>
   <text class="terminal" x="303" y="635">IN</text>
   <rect x="349" y="617" width="82" height="32" rx="10"/>
   <rect x="347"
         y="615"
         width="82"
         height="32"
         class="terminal"
         rx="10"/>
   <text class="terminal" x="357" y="635">SCHEMA</text>
   <rect x="471" y="617" width="114" height="32"/>
   <rect x="469" y="615" width="114" height="32" class="nonterminal"/>
   <text class="nonterminal" x="479" y="635">schema_name</text>
   <rect x="471" y="573" width="24" height="32" rx="10"/>
   <rect x="469"
         y="571"
         width="24"
         height="32"
         class="terminal"
         rx="10"/>
   <text class="terminal" x="479" y="591">,</text>
   <rect x="301" y="859" width="40" height="32" rx="10"/>
   <rect x="299"
         y="857"
         width="40"
         height="32"
         class="terminal"
         rx="10"/>
   <text class="terminal" x="309" y="877">TO</text>
   <rect x="401" y="891" width="70" height="32" rx="10"/>
   <rect x="399"
         y="889"
         width="70"
         height="32"
         class="terminal"
         rx="10"/>
   <text class="terminal" x="409" y="909">GROUP</text>
   <rect x="511" y="859" width="88" height="32"/>
   <rect x="509" y="857" width="88" height="32" class="nonterminal"/>
   <text class="nonterminal" x="519" y="877">role_name</text>
   <rect x="381" y="815" width="24" height="32" rx="10"/>
   <rect x="379"
         y="813"
         width="24"
         height="32"
         class="terminal"
         rx="10"/>
   <text class="terminal" x="389" y="833">,</text>
   <path class="line"
         d="m17 61 h2 m0 0 h10 m70 0 h10 m40 0 h10 m76 0 h10 m-116 0 l20 0 m-1 0 q-9 0 -9 -10 l0 -24 q0 -10 10 -10 m96 44 l20 0 m-20 0 q10 0 10 -10 l0 -24 q0 -10 -10 -10 m-96 0 h10 m24 0 h10 m0 0 h52 m20 44 h92 m-248 0 h20 m228 0 h20 m-268 0 q10 0 10 10 m248 0 q0 -10 10 -10 m-258 10 v24 m248 0 v-24 m-248 24 q0 10 10 10 m228 0 q10 0 10 -10 m-238 10 h10 m46 0 h10 m20 0 h10 m0 0 h112 m-142 0 h20 m122 0 h20 m-162 0 q10 0 10 10 m142 0 q0 -10 10 -10 m-152 10 v12 m142 0 v-12 m-142 12 q0 10 10 10 m122 0 q10 0 10 -10 m-132 10 h10 m102 0 h10 m40 -76 h10 m40 0 h10 m2 0 l2 0 m2 0 l2 0 m2 0 l2 0 m-448 186 l2 0 m2 0 l2 0 m2 0 l2 0 m42 0 h10 m0 0 h126 m-156 0 h20 m136 0 h20 m-176 0 q10 0 10 10 m156 0 q0 -10 10 -10 m-166 10 v12 m156 0 v-12 m-156 12 q0 10 10 10 m136 0 q10 0 10 -10 m-146 10 h10 m66 0 h10 m0 0 h50 m-146 -10 v20 m156 0 v-20 m-156 20 v24 m156 0 v-24 m-156 24 q0 10 10 10 m136 0 q10 0 10 -10 m-146 10 h10 m56 0 h10 m0 0 h60 m-146 -10 v20 m156 0 v-20 m-156 20 v24 m156 0 v-24 m-156 24 q0 10 10 10 m136 0 q10 0 10 -10 m-146 10 h10 m76 0 h10 m0 0 h40 m-146 -10 v20 m156 0 v-20 m-156 20 v24 m156 0 v-24 m-156 24 q0 10 10 10 m136 0 q10 0 10 -10 m-146 10 h10 m116 0 h10 m-146 -10 v20 m156 0 v-20 m-156 20 v24 m156 0 v-24 m-156 24 q0 10 10 10 m136 0 q10 0 10 -10 m-146 10 h10 m98 0 h10 m0 0 h18 m-146 -10 v20 m156 0 v-20 m-156 20 v24 m156 0 v-24 m-156 24 q0 10 10 10 m136 0 q10 0 10 -10 m-146 10 h10 m82 0 h10 m0 0 h34 m-146 -10 v20 m156 0 v-20 m-156 20 v24 m156 0 v-24 m-156 24 q0 10 10 10 m136 0 q10 0 10 -10 m-146 10 h10 m84 0 h10 m0 0 h32 m40 -296 h10 m104 0 h10 m-144 0 l20 0 m-1 0 q-9 0 -9 -10 l0 -24 q0 -10 10 -10 m124 44 l20 0 m-20 0 q10 0 10 -10 l0 -24 q0 -10 -10 -10 m-124 0 h10 m24 0 h10 m0 0 h80 m20 44 h240 m-600 0 h20 m580 0 h20 m-620 0 q10 0 10 10 m600 0 q0 -10 10 -10 m-610 10 v364 m600 0 v-364 m-600 364 q0 10 10 10 m580 0 q10 0 10 -10 m-590 10 h10 m46 0 h10 m20 0 h10 m74 0 h10 m0 0 h50 m-164 0 h20 m144 0 h20 m-184 0 q10 0 10 10 m164 0 q0 -10 10 -10 m-174 10 v24 m164 0 v-24 m-164 24 q0 10 10 10 m144 0 q10 0 10 -10 m-154 10 h10 m66 0 h10 m0 0 h58 m-154 -10 v20 m164 0 v-20 m-164 20 v24 m164 0 v-24 m-164 24 q0 10 10 10 m144 0 q10 0 10 -10 m-154 10 h10 m84 0 h10 m0 0 h40 m-154 -10 v20 m164 0 v-20 m-164 20 v24 m164 0 v-24 m-164 24 q0 10 10 10 m144 0 q10 0 10 -10 m-154 10 h10 m124 0 h10 m20 -132 h10 m34 0 h10 m0 0 h10 m82 0 h10 m20 0 h10 m114 0 h10 m-154 0 l20 0 m-1 0 q-9 0 -9 -10 l0 -24 q0 -10 10 -10 m134 44 l20 0 m-20 0 q10 0 10 -10 l0 -24 q0 -10 -10 -10 m-134 0 h10 m24 0 h10 m0 0 h90 m42 -340 l2 0 m2 0 l2 0 m2 0 l2 0 m-368 626 l2 0 m2 0 l2 0 m2 0 l2 0 m2 0 h10 m40 0 h10 m40 0 h10 m0 0 h80 m-110 0 h20 m90 0 h20 m-130 0 q10 0 10 10 m110 0 q0 -10 10 -10 m-120 10 v12 m110 0 v-12 m-110 12 q0 10 10 10 m90 0 q10 0 10 -10 m-100 10 h10 m70 0 h10 m20 -32 h10 m88 0 h10 m-258 0 l20 0 m-1 0 q-9 0 -9 -10 l0 -24 q0 -10 10 -10 m238 44 l20 0 m-20 0 q10 0 10 -10 l0 -24 q0 -10 -10 -10 m-238 0 h10 m24 0 h10 m0 0 h194 m23 44 h-3"/>
   <polygon points="637 873 645 869 645 877"/>
   <polygon points="637 873 629 869 629 877"/>
</svg>
