<svg xmlns="http://www.w3.org/2000/svg" width="451" height="705">
   <polygon points="9 61 1 57 1 65"/>
   <polygon points="17 61 9 57 9 65"/>
   <rect x="31" y="47" width="70" height="32" rx="10"/>
   <rect x="29"
         y="45"
         width="70"
         height="32"
         class="terminal"
         rx="10"/>
   <text class="terminal" x="39" y="65">GRANT</text>
   <rect x="161" y="47" width="76" height="32"/>
   <rect x="159" y="45" width="76" height="32" class="nonterminal"/>
   <text class="nonterminal" x="169" y="65">privilege</text>
   <rect x="161" y="3" width="24" height="32" rx="10"/>
   <rect x="159"
         y="1"
         width="24"
         height="32"
         class="terminal"
         rx="10"/>
   <text class="terminal" x="169" y="21">,</text>
   <rect x="141" y="91" width="46" height="32" rx="10"/>
   <rect x="139"
         y="89"
         width="46"
         height="32"
         class="terminal"
         rx="10"/>
   <text class="terminal" x="149" y="109">ALL</text>
   <rect x="227" y="123" width="102" height="32" rx="10"/>
   <rect x="225"
         y="121"
         width="102"
         height="32"
         class="terminal"
         rx="10"/>
   <text class="terminal" x="235" y="141">PRIVILEGES</text>
   <rect x="389" y="47" width="40" height="32"/>
   <rect x="387" y="45" width="40" height="32" class="nonterminal"/>
   <text class="nonterminal" x="397" y="65">ON</text>
   <rect x="57" y="265" width="66" height="32" rx="10"/>
   <rect x="55"
         y="263"
         width="66"
         height="32"
         class="terminal"
         rx="10"/>
   <text class="terminal" x="65" y="283">TABLE</text>
   <rect x="57" y="309" width="56" height="32" rx="10"/>
   <rect x="55"
         y="307"
         width="56"
         height="32"
         class="terminal"
         rx="10"/>
   <text class="terminal" x="65" y="327">TYPE</text>
   <rect x="57" y="353" width="76" height="32" rx="10"/>
   <rect x="55"
         y="351"
         width="76"
         height="32"
         class="terminal"
         rx="10"/>
   <text class="terminal" x="65" y="371">SECRET</text>
   <rect x="57" y="397" width="116" height="32" rx="10"/>
   <rect x="55"
         y="395"
         width="116"
         height="32"
         class="terminal"
         rx="10"/>
   <text class="terminal" x="65" y="415">CONNECTION</text>
   <rect x="57" y="441" width="98" height="32" rx="10"/>
   <rect x="55"
         y="439"
         width="98"
         height="32"
         class="terminal"
         rx="10"/>
   <text class="terminal" x="65" y="459">DATABASE</text>
   <rect x="57" y="485" width="82" height="32" rx="10"/>
   <rect x="55"
         y="483"
         width="82"
         height="32"
         class="terminal"
         rx="10"/>
   <text class="terminal" x="65" y="503">SCHEMA</text>
   <rect x="57" y="529" width="84" height="32" rx="10"/>
   <rect x="55"
         y="527"
         width="84"
         height="32"
         class="terminal"
         rx="10"/>
   <text class="terminal" x="65" y="547">CLUSTER</text>
   <rect x="233" y="233" width="104" height="32"/>
   <rect x="231" y="231" width="104" height="32" class="nonterminal"/>
   <text class="nonterminal" x="241" y="251">object_name</text>
   <rect x="233" y="189" width="24" height="32" rx="10"/>
   <rect x="231"
         y="187"
         width="24"
         height="32"
         class="terminal"
         rx="10"/>
   <text class="terminal" x="241" y="207">,</text>
   <rect x="377" y="233" width="40" height="32" rx="10"/>
   <rect x="375"
         y="231"
         width="40"
         height="32"
         class="terminal"
         rx="10"/>
   <text class="terminal" x="385" y="251">TO</text>
   <rect x="205" y="671" width="70" height="32" rx="10"/>
   <rect x="203"
         y="669"
         width="70"
         height="32"
         class="terminal"
         rx="10"/>
   <text class="terminal" x="213" y="689">GROUP</text>
   <rect x="315" y="639" width="88" height="32"/>
   <rect x="313" y="637" width="88" height="32" class="nonterminal"/>
   <text class="nonterminal" x="323" y="657">role_name</text>
   <rect x="185" y="595" width="24" height="32" rx="10"/>
   <rect x="183"
         y="593"
         width="24"
         height="32"
         class="terminal"
         rx="10"/>
   <text class="terminal" x="193" y="613">,</text>
   <path class="line"
         d="m17 61 h2 m0 0 h10 m70 0 h10 m40 0 h10 m76 0 h10 m-116 0 l20 0 m-1 0 q-9 0 -9 -10 l0 -24 q0 -10 10 -10 m96 44 l20 0 m-20 0 q10 0 10 -10 l0 -24 q0 -10 -10 -10 m-96 0 h10 m24 0 h10 m0 0 h52 m20 44 h92 m-248 0 h20 m228 0 h20 m-268 0 q10 0 10 10 m248 0 q0 -10 10 -10 m-258 10 v24 m248 0 v-24 m-248 24 q0 10 10 10 m228 0 q10 0 10 -10 m-238 10 h10 m46 0 h10 m20 0 h10 m0 0 h112 m-142 0 h20 m122 0 h20 m-162 0 q10 0 10 10 m142 0 q0 -10 10 -10 m-152 10 v12 m142 0 v-12 m-142 12 q0 10 10 10 m122 0 q10 0 10 -10 m-132 10 h10 m102 0 h10 m40 -76 h10 m40 0 h10 m2 0 l2 0 m2 0 l2 0 m2 0 l2 0 m-436 186 l2 0 m2 0 l2 0 m2 0 l2 0 m22 0 h10 m0 0 h126 m-156 0 h20 m136 0 h20 m-176 0 q10 0 10 10 m156 0 q0 -10 10 -10 m-166 10 v12 m156 0 v-12 m-156 12 q0 10 10 10 m136 0 q10 0 10 -10 m-146 10 h10 m66 0 h10 m0 0 h50 m-146 -10 v20 m156 0 v-20 m-156 20 v24 m156 0 v-24 m-156 24 q0 10 10 10 m136 0 q10 0 10 -10 m-146 10 h10 m56 0 h10 m0 0 h60 m-146 -10 v20 m156 0 v-20 m-156 20 v24 m156 0 v-24 m-156 24 q0 10 10 10 m136 0 q10 0 10 -10 m-146 10 h10 m76 0 h10 m0 0 h40 m-146 -10 v20 m156 0 v-20 m-156 20 v24 m156 0 v-24 m-156 24 q0 10 10 10 m136 0 q10 0 10 -10 m-146 10 h10 m116 0 h10 m-146 -10 v20 m156 0 v-20 m-156 20 v24 m156 0 v-24 m-156 24 q0 10 10 10 m136 0 q10 0 10 -10 m-146 10 h10 m98 0 h10 m0 0 h18 m-146 -10 v20 m156 0 v-20 m-156 20 v24 m156 0 v-24 m-156 24 q0 10 10 10 m136 0 q10 0 10 -10 m-146 10 h10 m82 0 h10 m0 0 h34 m-146 -10 v20 m156 0 v-20 m-156 20 v24 m156 0 v-24 m-156 24 q0 10 10 10 m136 0 q10 0 10 -10 m-146 10 h10 m84 0 h10 m0 0 h32 m40 -296 h10 m104 0 h10 m-144 0 l20 0 m-1 0 q-9 0 -9 -10 l0 -24 q0 -10 10 -10 m124 44 l20 0 m-20 0 q10 0 10 -10 l0 -24 q0 -10 -10 -10 m-124 0 h10 m24 0 h10 m0 0 h80 m20 44 h10 m40 0 h10 m2 0 l2 0 m2 0 l2 0 m2 0 l2 0 m-296 406 l2 0 m2 0 l2 0 m2 0 l2 0 m42 0 h10 m0 0 h80 m-110 0 h20 m90 0 h20 m-130 0 q10 0 10 10 m110 0 q0 -10 10 -10 m-120 10 v12 m110 0 v-12 m-110 12 q0 10 10 10 m90 0 q10 0 10 -10 m-100 10 h10 m70 0 h10 m20 -32 h10 m88 0 h10 m-258 0 l20 0 m-1 0 q-9 0 -9 -10 l0 -24 q0 -10 10 -10 m238 44 l20 0 m-20 0 q10 0 10 -10 l0 -24 q0 -10 -10 -10 m-238 0 h10 m24 0 h10 m0 0 h194 m23 44 h-3"/>
   <polygon points="441 653 449 649 449 657"/>
   <polygon points="441 653 433 649 433 657"/>
</svg>
