<svg xmlns="http://www.w3.org/2000/svg" width="529" height="81">
   <polygon points="9 61 1 57 1 65"/>
   <polygon points="17 61 9 57 9 65"/>
   <rect x="31" y="47" width="80" height="32" rx="10"/>
   <rect x="29"
         y="45"
         width="80"
         height="32"
         class="terminal"
         rx="10"/>
   <text class="terminal" x="39" y="65">REPLICA</text>
   <rect x="131" y="47" width="106" height="32"/>
   <rect x="129" y="45" width="106" height="32" class="nonterminal"/>
   <text class="nonterminal" x="139" y="65">replica_name</text>
   <rect x="257" y="47" width="26" height="32" rx="10"/>
   <rect x="255"
         y="45"
         width="26"
         height="32"
         class="terminal"
         rx="10"/>
   <text class="terminal" x="265" y="65">(</text>
   <rect x="323" y="47" width="112" height="32"/>
   <rect x="321" y="45" width="112" height="32" class="nonterminal"/>
   <text class="nonterminal" x="331" y="65">replica_option</text>
   <rect x="323" y="3" width="24" height="32" rx="10"/>
   <rect x="321"
         y="1"
         width="24"
         height="32"
         class="terminal"
         rx="10"/>
   <text class="terminal" x="331" y="21">,</text>
   <rect x="475" y="47" width="26" height="32" rx="10"/>
   <rect x="473"
         y="45"
         width="26"
         height="32"
         class="terminal"
         rx="10"/>
   <text class="terminal" x="483" y="65">)</text>
   <path class="line"
         d="m17 61 h2 m0 0 h10 m80 0 h10 m0 0 h10 m106 0 h10 m0 0 h10 m26 0 h10 m20 0 h10 m112 0 h10 m-152 0 l20 0 m-1 0 q-9 0 -9 -10 l0 -24 q0 -10 10 -10 m132 44 l20 0 m-20 0 q10 0 10 -10 l0 -24 q0 -10 -10 -10 m-132 0 h10 m24 0 h10 m0 0 h88 m20 44 h10 m26 0 h10 m3 0 h-3"/>
   <polygon points="519 61 527 57 527 65"/>
   <polygon points="519 61 511 57 511 65"/>
</svg>
