<svg xmlns="http://www.w3.org/2000/svg" width="401" height="191">
   <polygon points="9 17 1 13 1 21"/>
   <polygon points="17 17 9 13 9 21"/>
   <rect x="31" y="3" width="70" height="32" rx="10"/>
   <rect x="29"
         y="1"
         width="70"
         height="32"
         class="terminal"
         rx="10"/>
   <text class="terminal" x="39" y="21">INSERT</text>
   <rect x="121" y="3" width="52" height="32" rx="10"/>
   <rect x="119"
         y="1"
         width="52"
         height="32"
         class="terminal"
         rx="10"/>
   <text class="terminal" x="129" y="21">INTO</text>
   <rect x="193" y="3" width="92" height="32"/>
   <rect x="191" y="1" width="92" height="32" class="nonterminal"/>
   <text class="nonterminal" x="201" y="21">table_name</text>
   <rect x="305" y="3" width="74" height="32" rx="10"/>
   <rect x="303"
         y="1"
         width="74"
         height="32"
         class="terminal"
         rx="10"/>
   <text class="terminal" x="313" y="21">VALUES</text>
   <rect x="147" y="157" width="24" height="32" rx="10"/>
   <rect x="145"
         y="155"
         width="24"
         height="32"
         class="terminal"
         rx="10"/>
   <text class="terminal" x="155" y="175">(</text>
   <rect x="211" y="157" width="78" height="32"/>
   <rect x="209" y="155" width="78" height="32" class="nonterminal"/>
   <text class="nonterminal" x="219" y="175">col_value</text>
   <rect x="211" y="113" width="24" height="32" rx="10"/>
   <rect x="209"
         y="111"
         width="24"
         height="32"
         class="terminal"
         rx="10"/>
   <text class="terminal" x="219" y="131">,</text>
   <rect x="329" y="157" width="24" height="32" rx="10"/>
   <rect x="327"
         y="155"
         width="24"
         height="32"
         class="terminal"
         rx="10"/>
   <text class="terminal" x="337" y="175">)</text>
   <rect x="147" y="69" width="24" height="32" rx="10"/>
   <rect x="145"
         y="67"
         width="24"
         height="32"
         class="terminal"
         rx="10"/>
   <text class="terminal" x="155" y="87">,</text>
   <path class="line"
         d="m17 17 h2 m0 0 h10 m70 0 h10 m0 0 h10 m52 0 h10 m0 0 h10 m92 0 h10 m0 0 h10 m74 0 h10 m2 0 l2 0 m2 0 l2 0 m2 0 l2 0 m-296 154 l2 0 m2 0 l2 0 m2 0 l2 0 m22 0 h10 m24 0 h10 m20 0 h10 m78 0 h10 m-118 0 l20 0 m-1 0 q-9 0 -9 -10 l0 -24 q0 -10 10 -10 m98 44 l20 0 m-20 0 q10 0 10 -10 l0 -24 q0 -10 -10 -10 m-98 0 h10 m24 0 h10 m0 0 h54 m20 44 h10 m24 0 h10 m-246 0 l20 0 m-1 0 q-9 0 -9 -10 l0 -68 q0 -10 10 -10 m226 88 l20 0 m-20 0 q10 0 10 -10 l0 -68 q0 -10 -10 -10 m-226 0 h10 m24 0 h10 m0 0 h182 m23 88 h-3"/>
   <polygon points="391 171 399 167 399 175"/>
   <polygon points="391 171 383 167 383 175"/>
</svg>
