<svg xmlns="http://www.w3.org/2000/svg" width="483" height="393">
   <polygon points="9 17 1 13 1 21"/>
   <polygon points="17 17 9 13 9 21"/>
   <rect x="31" y="3" width="70" height="32" rx="10"/>
   <rect x="29"
         y="1"
         width="70"
         height="32"
         class="terminal"
         rx="10"/>
   <text class="terminal" x="39" y="21">INSERT</text>
   <rect x="121" y="3" width="54" height="32" rx="10"/>
   <rect x="119"
         y="1"
         width="54"
         height="32"
         class="terminal"
         rx="10"/>
   <text class="terminal" x="129" y="21">INTO</text>
   <rect x="195" y="3" width="96" height="32"/>
   <rect x="193" y="1" width="96" height="32" class="nonterminal"/>
   <text class="nonterminal" x="203" y="21">table_name</text>
   <rect x="331" y="35" width="40" height="32" rx="10"/>
   <rect x="329"
         y="33"
         width="40"
         height="32"
         class="terminal"
         rx="10"/>
   <text class="terminal" x="339" y="53">AS</text>
   <rect x="411" y="3" width="50" height="32"/>
   <rect x="409" y="1" width="50" height="32" class="nonterminal"/>
   <text class="nonterminal" x="419" y="21">alias</text>
   <rect x="136" y="145" width="26" height="32" rx="10"/>
   <rect x="134"
         y="143"
         width="26"
         height="32"
         class="terminal"
         rx="10"/>
   <text class="terminal" x="144" y="163">(</text>
   <rect x="202" y="145" width="82" height="32"/>
   <rect x="200" y="143" width="82" height="32" class="nonterminal"/>
   <text class="nonterminal" x="210" y="163">col_name</text>
   <rect x="202" y="101" width="24" height="32" rx="10"/>
   <rect x="200"
         y="99"
         width="24"
         height="32"
         class="terminal"
         rx="10"/>
   <text class="terminal" x="210" y="119">,</text>
   <rect x="324" y="145" width="26" height="32" rx="10"/>
   <rect x="322"
         y="143"
         width="26"
         height="32"
         class="terminal"
         rx="10"/>
   <text class="terminal" x="332" y="163">)</text>
   <rect x="119" y="315" width="76" height="32" rx="10"/>
   <rect x="117"
         y="313"
         width="76"
         height="32"
         class="terminal"
         rx="10"/>
   <text class="terminal" x="127" y="333">VALUES</text>
   <rect x="235" y="315" width="26" height="32" rx="10"/>
   <rect x="233"
         y="313"
         width="26"
         height="32"
         class="terminal"
         rx="10"/>
   <text class="terminal" x="243" y="333">(</text>
   <rect x="301" y="315" width="48" height="32"/>
   <rect x="299" y="313" width="48" height="32" class="nonterminal"/>
   <text class="nonterminal" x="309" y="333">expr</text>
   <rect x="301" y="271" width="24" height="32" rx="10"/>
   <rect x="299"
         y="269"
         width="24"
         height="32"
         class="terminal"
         rx="10"/>
   <text class="terminal" x="309" y="289">,</text>
   <rect x="389" y="315" width="26" height="32" rx="10"/>
   <rect x="387"
         y="313"
         width="26"
         height="32"
         class="terminal"
         rx="10"/>
   <text class="terminal" x="397" y="333">)</text>
   <rect x="235" y="227" width="24" height="32" rx="10"/>
   <rect x="233"
         y="225"
         width="24"
         height="32"
         class="terminal"
         rx="10"/>
   <text class="terminal" x="243" y="245">,</text>
   <rect x="119" y="359" width="58" height="32"/>
   <rect x="117" y="357" width="58" height="32" class="nonterminal"/>
   <text class="nonterminal" x="127" y="377">query</text>
   <path class="line"
         d="m17 17 h2 m0 0 h10 m70 0 h10 m0 0 h10 m54 0 h10 m0 0 h10 m96 0 h10 m20 0 h10 m0 0 h50 m-80 0 h20 m60 0 h20 m-100 0 q10 0 10 10 m80 0 q0 -10 10 -10 m-90 10 v12 m80 0 v-12 m-80 12 q0 10 10 10 m60 0 q10 0 10 -10 m-70 10 h10 m40 0 h10 m20 -32 h10 m50 0 h10 m2 0 l2 0 m2 0 l2 0 m2 0 l2 0 m-389 142 l2 0 m2 0 l2 0 m2 0 l2 0 m22 0 h10 m26 0 h10 m20 0 h10 m82 0 h10 m-122 0 l20 0 m-1 0 q-9 0 -9 -10 l0 -24 q0 -10 10 -10 m102 44 l20 0 m-20 0 q10 0 10 -10 l0 -24 q0 -10 -10 -10 m-102 0 h10 m24 0 h10 m0 0 h58 m20 44 h10 m26 0 h10 m-254 0 h20 m234 0 h20 m-274 0 q10 0 10 10 m254 0 q0 -10 10 -10 m-264 10 v14 m254 0 v-14 m-254 14 q0 10 10 10 m234 0 q10 0 10 -10 m-244 10 h10 m0 0 h224 m22 -34 l2 0 m2 0 l2 0 m2 0 l2 0 m-315 170 l2 0 m2 0 l2 0 m2 0 l2 0 m22 0 h10 m76 0 h10 m20 0 h10 m26 0 h10 m20 0 h10 m48 0 h10 m-88 0 l20 0 m-1 0 q-9 0 -9 -10 l0 -24 q0 -10 10 -10 m68 44 l20 0 m-20 0 q10 0 10 -10 l0 -24 q0 -10 -10 -10 m-68 0 h10 m24 0 h10 m0 0 h24 m20 44 h10 m26 0 h10 m-220 0 l20 0 m-1 0 q-9 0 -9 -10 l0 -68 q0 -10 10 -10 m200 88 l20 0 m-20 0 q10 0 10 -10 l0 -68 q0 -10 -10 -10 m-200 0 h10 m24 0 h10 m0 0 h156 m-336 88 h20 m336 0 h20 m-376 0 q10 0 10 10 m356 0 q0 -10 10 -10 m-366 10 v24 m356 0 v-24 m-356 24 q0 10 10 10 m336 0 q10 0 10 -10 m-346 10 h10 m58 0 h10 m0 0 h258 m23 -44 h-3"/>
   <polygon points="473 329 481 325 481 333"/>
   <polygon points="473 329 465 325 465 333"/>
</svg>
