<svg xmlns="http://www.w3.org/2000/svg" width="409" height="191">
   <polygon points="9 17 1 13 1 21"/>
   <polygon points="17 17 9 13 9 21"/>
   <rect x="31" y="3" width="70" height="32" rx="10"/>
   <rect x="29"
         y="1"
         width="70"
         height="32"
         class="terminal"
         rx="10"/>
   <text class="terminal" x="39" y="21">INSERT</text>
   <rect x="121" y="3" width="54" height="32" rx="10"/>
   <rect x="119"
         y="1"
         width="54"
         height="32"
         class="terminal"
         rx="10"/>
   <text class="terminal" x="129" y="21">INTO</text>
   <rect x="195" y="3" width="96" height="32"/>
   <rect x="193" y="1" width="96" height="32" class="nonterminal"/>
   <text class="nonterminal" x="203" y="21">table_name</text>
   <rect x="311" y="3" width="76" height="32" rx="10"/>
   <rect x="309"
         y="1"
         width="76"
         height="32"
         class="terminal"
         rx="10"/>
   <text class="terminal" x="319" y="21">VALUES</text>
   <rect x="149" y="157" width="26" height="32" rx="10"/>
   <rect x="147"
         y="155"
         width="26"
         height="32"
         class="terminal"
         rx="10"/>
   <text class="terminal" x="157" y="175">(</text>
   <rect x="215" y="157" width="80" height="32"/>
   <rect x="213" y="155" width="80" height="32" class="nonterminal"/>
   <text class="nonterminal" x="223" y="175">col_value</text>
   <rect x="215" y="113" width="24" height="32" rx="10"/>
   <rect x="213"
         y="111"
         width="24"
         height="32"
         class="terminal"
         rx="10"/>
   <text class="terminal" x="223" y="131">,</text>
   <rect x="335" y="157" width="26" height="32" rx="10"/>
   <rect x="333"
         y="155"
         width="26"
         height="32"
         class="terminal"
         rx="10"/>
   <text class="terminal" x="343" y="175">)</text>
   <rect x="149" y="69" width="24" height="32" rx="10"/>
   <rect x="147"
         y="67"
         width="24"
         height="32"
         class="terminal"
         rx="10"/>
   <text class="terminal" x="157" y="87">,</text>
   <path class="line"
         d="m17 17 h2 m0 0 h10 m70 0 h10 m0 0 h10 m54 0 h10 m0 0 h10 m96 0 h10 m0 0 h10 m76 0 h10 m2 0 l2 0 m2 0 l2 0 m2 0 l2 0 m-302 154 l2 0 m2 0 l2 0 m2 0 l2 0 m22 0 h10 m26 0 h10 m20 0 h10 m80 0 h10 m-120 0 l20 0 m-1 0 q-9 0 -9 -10 l0 -24 q0 -10 10 -10 m100 44 l20 0 m-20 0 q10 0 10 -10 l0 -24 q0 -10 -10 -10 m-100 0 h10 m24 0 h10 m0 0 h56 m20 44 h10 m26 0 h10 m-252 0 l20 0 m-1 0 q-9 0 -9 -10 l0 -68 q0 -10 10 -10 m232 88 l20 0 m-20 0 q10 0 10 -10 l0 -68 q0 -10 -10 -10 m-232 0 h10 m24 0 h10 m0 0 h188 m23 88 h-3"/>
   <polygon points="399 171 407 167 407 175"/>
   <polygon points="399 171 391 167 391 175"/>
</svg>
