<svg xmlns="http://www.w3.org/2000/svg" width="327" height="189">
   <polygon points="9 5 1 1 1 9"/>
   <polygon points="17 5 9 1 9 9"/>
   <rect x="71" y="23" width="52" height="32" rx="10"/>
   <rect x="69"
         y="21"
         width="52"
         height="32"
         class="terminal"
         rx="10"/>
   <text class="terminal" x="79" y="41">FULL</text>
   <rect x="71" y="67" width="52" height="32" rx="10"/>
   <rect x="69"
         y="65"
         width="52"
         height="32"
         class="terminal"
         rx="10"/>
   <text class="terminal" x="79" y="85">LEFT</text>
   <rect x="71" y="111" width="62" height="32" rx="10"/>
   <rect x="69"
         y="109"
         width="62"
         height="32"
         class="terminal"
         rx="10"/>
   <text class="terminal" x="79" y="129">RIGHT</text>
   <rect x="193" y="55" width="66" height="32" rx="10"/>
   <rect x="191"
         y="53"
         width="66"
         height="32"
         class="terminal"
         rx="10"/>
   <text class="terminal" x="201" y="73">OUTER</text>
   <rect x="51" y="155" width="62" height="32" rx="10"/>
   <rect x="49"
         y="153"
         width="62"
         height="32"
         class="terminal"
         rx="10"/>
   <text class="terminal" x="59" y="173">INNER</text>
   <path class="line"
         d="m17 5 h2 m20 0 h10 m0 0 h238 m-268 0 h20 m248 0 h20 m-288 0 q10 0 10 10 m268 0 q0 -10 10 -10 m-278 10 v12 m268 0 v-12 m-268 12 q0 10 10 10 m248 0 q10 0 10 -10 m-238 10 h10 m52 0 h10 m0 0 h10 m-102 0 h20 m82 0 h20 m-122 0 q10 0 10 10 m102 0 q0 -10 10 -10 m-112 10 v24 m102 0 v-24 m-102 24 q0 10 10 10 m82 0 q10 0 10 -10 m-92 10 h10 m52 0 h10 m0 0 h10 m-92 -10 v20 m102 0 v-20 m-102 20 v24 m102 0 v-24 m-102 24 q0 10 10 10 m82 0 q10 0 10 -10 m-92 10 h10 m62 0 h10 m40 -88 h10 m0 0 h76 m-106 0 h20 m86 0 h20 m-126 0 q10 0 10 10 m106 0 q0 -10 10 -10 m-116 10 v12 m106 0 v-12 m-106 12 q0 10 10 10 m86 0 q10 0 10 -10 m-96 10 h10 m66 0 h10 m-238 -42 v20 m268 0 v-20 m-268 20 v112 m268 0 v-112 m-268 112 q0 10 10 10 m248 0 q10 0 10 -10 m-258 10 h10 m62 0 h10 m0 0 h166 m23 -164 h-3"/>
   <polygon points="317 5 325 1 325 9"/>
   <polygon points="317 5 309 1 309 9"/>
</svg>
