<svg xmlns="http://www.w3.org/2000/svg" width="327" height="169">
   <polygon points="9 17 1 13 1 21"/>
   <polygon points="17 17 9 13 9 21"/>
   <rect x="71" y="3" width="52" height="32" rx="10"/>
   <rect x="69"
         y="1"
         width="52"
         height="32"
         class="terminal"
         rx="10"/>
   <text class="terminal" x="79" y="21">FULL</text>
   <rect x="71" y="47" width="52" height="32" rx="10"/>
   <rect x="69"
         y="45"
         width="52"
         height="32"
         class="terminal"
         rx="10"/>
   <text class="terminal" x="79" y="65">LEFT</text>
   <rect x="71" y="91" width="62" height="32" rx="10"/>
   <rect x="69"
         y="89"
         width="62"
         height="32"
         class="terminal"
         rx="10"/>
   <text class="terminal" x="79" y="109">RIGHT</text>
   <rect x="193" y="35" width="66" height="32" rx="10"/>
   <rect x="191"
         y="33"
         width="66"
         height="32"
         class="terminal"
         rx="10"/>
   <text class="terminal" x="201" y="53">OUTER</text>
   <rect x="51" y="135" width="62" height="32" rx="10"/>
   <rect x="49"
         y="133"
         width="62"
         height="32"
         class="terminal"
         rx="10"/>
   <text class="terminal" x="59" y="153">INNER</text>
   <path class="line"
         d="m17 17 h2 m40 0 h10 m52 0 h10 m0 0 h10 m-102 0 h20 m82 0 h20 m-122 0 q10 0 10 10 m102 0 q0 -10 10 -10 m-112 10 v24 m102 0 v-24 m-102 24 q0 10 10 10 m82 0 q10 0 10 -10 m-92 10 h10 m52 0 h10 m0 0 h10 m-92 -10 v20 m102 0 v-20 m-102 20 v24 m102 0 v-24 m-102 24 q0 10 10 10 m82 0 q10 0 10 -10 m-92 10 h10 m62 0 h10 m40 -88 h10 m0 0 h76 m-106 0 h20 m86 0 h20 m-126 0 q10 0 10 10 m106 0 q0 -10 10 -10 m-116 10 v12 m106 0 v-12 m-106 12 q0 10 10 10 m86 0 q10 0 10 -10 m-96 10 h10 m66 0 h10 m-248 -32 h20 m248 0 h20 m-288 0 q10 0 10 10 m268 0 q0 -10 10 -10 m-278 10 v112 m268 0 v-112 m-268 112 q0 10 10 10 m248 0 q10 0 10 -10 m-258 10 h10 m62 0 h10 m0 0 h166 m23 -132 h-3"/>
   <polygon points="317 17 325 13 325 21"/>
   <polygon points="317 17 309 13 309 21"/>
</svg>
