<svg xmlns="http://www.w3.org/2000/svg" width="701" height="377">
   <polygon points="9 17 1 13 1 21"/>
   <polygon points="17 17 9 13 9 21"/>
   <rect x="31" y="3" width="92" height="32"/>
   <rect x="29" y="1" width="92" height="32" class="nonterminal"/>
   <text class="nonterminal" x="39" y="21">select_pred</text>
   <rect x="65" y="69" width="68" height="32" rx="10"/>
   <rect x="63"
         y="67"
         width="68"
         height="32"
         class="terminal"
         rx="10"/>
   <text class="terminal" x="73" y="87">CROSS</text>
   <rect x="65" y="113" width="84" height="32" rx="10"/>
   <rect x="63"
         y="111"
         width="84"
         height="32"
         class="terminal"
         rx="10"/>
   <text class="terminal" x="73" y="131">NATURAL</text>
   <rect x="189" y="145" width="76" height="32"/>
   <rect x="187" y="143" width="76" height="32" class="nonterminal"/>
   <text class="nonterminal" x="197" y="163">join_type</text>
   <rect x="325" y="69" width="50" height="32" rx="10"/>
   <rect x="323"
         y="67"
         width="50"
         height="32"
         class="terminal"
         rx="10"/>
   <text class="terminal" x="333" y="87">JOIN</text>
   <rect x="395" y="69" width="74" height="32"/>
   <rect x="393" y="67" width="74" height="32" class="nonterminal"/>
   <text class="nonterminal" x="403" y="87">table_ref</text>
   <rect x="65" y="265" width="76" height="32"/>
   <rect x="63" y="263" width="76" height="32" class="nonterminal"/>
   <text class="nonterminal" x="73" y="283">join_type</text>
   <rect x="181" y="233" width="50" height="32" rx="10"/>
   <rect x="179"
         y="231"
         width="50"
         height="32"
         class="terminal"
         rx="10"/>
   <text class="terminal" x="189" y="251">JOIN</text>
   <rect x="251" y="233" width="74" height="32"/>
   <rect x="249" y="231" width="74" height="32" class="nonterminal"/>
   <text class="nonterminal" x="259" y="251">table_ref</text>
   <rect x="365" y="233" width="64" height="32" rx="10"/>
   <rect x="363"
         y="231"
         width="64"
         height="32"
         class="terminal"
         rx="10"/>
   <text class="terminal" x="373" y="251">USING</text>
   <rect x="449" y="233" width="24" height="32" rx="10"/>
   <rect x="447"
         y="231"
         width="24"
         height="32"
         class="terminal"
         rx="10"/>
   <text class="terminal" x="457" y="251">(</text>
   <rect x="513" y="233" width="62" height="32"/>
   <rect x="511" y="231" width="62" height="32" class="nonterminal"/>
   <text class="nonterminal" x="521" y="251">col_ref</text>
   <rect x="513" y="189" width="24" height="32" rx="10"/>
   <rect x="511"
         y="187"
         width="24"
         height="32"
         class="terminal"
         rx="10"/>
   <text class="terminal" x="521" y="207">,</text>
   <rect x="615" y="233" width="24" height="32" rx="10"/>
   <rect x="613"
         y="231"
         width="24"
         height="32"
         class="terminal"
         rx="10"/>
   <text class="terminal" x="623" y="251">)</text>
   <rect x="365" y="277" width="40" height="32" rx="10"/>
   <rect x="363"
         y="275"
         width="40"
         height="32"
         class="terminal"
         rx="10"/>
   <text class="terminal" x="373" y="295">ON</text>
   <rect x="425" y="277" width="86" height="32"/>
   <rect x="423" y="275" width="86" height="32" class="nonterminal"/>
   <text class="nonterminal" x="433" y="295">expression</text>
   <rect x="583" y="343" width="90" height="32"/>
   <rect x="581" y="341" width="90" height="32" class="nonterminal"/>
   <text class="nonterminal" x="591" y="361">select_post</text>
   <path class="line"
         d="m17 17 h2 m0 0 h10 m92 0 h10 m2 0 l2 0 m2 0 l2 0 m2 0 l2 0 m-142 66 l2 0 m2 0 l2 0 m2 0 l2 0 m42 0 h10 m68 0 h10 m0 0 h152 m-260 0 h20 m240 0 h20 m-280 0 q10 0 10 10 m260 0 q0 -10 10 -10 m-270 10 v24 m260 0 v-24 m-260 24 q0 10 10 10 m240 0 q10 0 10 -10 m-250 10 h10 m84 0 h10 m20 0 h10 m0 0 h86 m-116 0 h20 m96 0 h20 m-136 0 q10 0 10 10 m116 0 q0 -10 10 -10 m-126 10 v12 m116 0 v-12 m-116 12 q0 10 10 10 m96 0 q10 0 10 -10 m-106 10 h10 m76 0 h10 m40 -76 h10 m50 0 h10 m0 0 h10 m74 0 h10 m0 0 h190 m-654 0 h20 m634 0 h20 m-674 0 q10 0 10 10 m654 0 q0 -10 10 -10 m-664 10 v144 m654 0 v-144 m-654 144 q0 10 10 10 m634 0 q10 0 10 -10 m-624 10 h10 m0 0 h86 m-116 0 h20 m96 0 h20 m-136 0 q10 0 10 10 m116 0 q0 -10 10 -10 m-126 10 v12 m116 0 v-12 m-116 12 q0 10 10 10 m96 0 q10 0 10 -10 m-106 10 h10 m76 0 h10 m20 -32 h10 m50 0 h10 m0 0 h10 m74 0 h10 m20 0 h10 m64 0 h10 m0 0 h10 m24 0 h10 m20 0 h10 m62 0 h10 m-102 0 l20 0 m-1 0 q-9 0 -9 -10 l0 -24 q0 -10 10 -10 m82 44 l20 0 m-20 0 q10 0 10 -10 l0 -24 q0 -10 -10 -10 m-82 0 h10 m24 0 h10 m0 0 h38 m20 44 h10 m24 0 h10 m-314 0 h20 m294 0 h20 m-334 0 q10 0 10 10 m314 0 q0 -10 10 -10 m-324 10 v24 m314 0 v-24 m-314 24 q0 10 10 10 m294 0 q10 0 10 -10 m-304 10 h10 m40 0 h10 m0 0 h10 m86 0 h10 m0 0 h128 m42 -208 l2 0 m2 0 l2 0 m2 0 l2 0 m-140 274 l2 0 m2 0 l2 0 m2 0 l2 0 m2 0 h10 m90 0 h10 m3 0 h-3"/>
   <polygon points="691 357 699 353 699 361"/>
   <polygon points="691 357 683 353 683 361"/>
</svg>
