<svg xmlns="http://www.w3.org/2000/svg" width="543" height="135">
   <polygon points="9 17 1 13 1 21"/>
   <polygon points="17 17 9 13 9 21"/>
   <rect x="31" y="3" width="68" height="32" rx="10"/>
   <rect x="29"
         y="1"
         width="68"
         height="32"
         class="terminal"
         rx="10"/>
   <text class="terminal" x="39" y="21">KAFKA</text>
   <rect x="119" y="3" width="116" height="32" rx="10"/>
   <rect x="117"
         y="1"
         width="116"
         height="32"
         class="terminal"
         rx="10"/>
   <text class="terminal" x="127" y="21">CONNECTION</text>
   <rect x="255" y="3" width="136" height="32"/>
   <rect x="253" y="1" width="136" height="32" class="nonterminal"/>
   <text class="nonterminal" x="263" y="21">connection_name</text>
   <rect x="411" y="3" width="26" height="32" rx="10"/>
   <rect x="409"
         y="1"
         width="26"
         height="32"
         class="terminal"
         rx="10"/>
   <text class="terminal" x="419" y="21">(</text>
   <rect x="457" y="3" width="64" height="32" rx="10"/>
   <rect x="455"
         y="1"
         width="64"
         height="32"
         class="terminal"
         rx="10"/>
   <text class="terminal" x="465" y="21">TOPIC</text>
   <rect x="173" y="69" width="52" height="32"/>
   <rect x="171" y="67" width="52" height="32" class="nonterminal"/>
   <text class="nonterminal" x="181" y="87">topic</text>
   <rect x="265" y="101" width="24" height="32" rx="10"/>
   <rect x="263"
         y="99"
         width="24"
         height="32"
         class="terminal"
         rx="10"/>
   <text class="terminal" x="273" y="119">,</text>
   <rect x="309" y="101" width="140" height="32"/>
   <rect x="307" y="99" width="140" height="32" class="nonterminal"/>
   <text class="nonterminal" x="317" y="119">connection_option</text>
   <rect x="489" y="69" width="26" height="32" rx="10"/>
   <rect x="487"
         y="67"
         width="26"
         height="32"
         class="terminal"
         rx="10"/>
   <text class="terminal" x="497" y="87">)</text>
   <path class="line"
         d="m17 17 h2 m0 0 h10 m68 0 h10 m0 0 h10 m116 0 h10 m0 0 h10 m136 0 h10 m0 0 h10 m26 0 h10 m0 0 h10 m64 0 h10 m2 0 l2 0 m2 0 l2 0 m2 0 l2 0 m-392 66 l2 0 m2 0 l2 0 m2 0 l2 0 m2 0 h10 m52 0 h10 m20 0 h10 m0 0 h194 m-224 0 h20 m204 0 h20 m-244 0 q10 0 10 10 m224 0 q0 -10 10 -10 m-234 10 v12 m224 0 v-12 m-224 12 q0 10 10 10 m204 0 q10 0 10 -10 m-214 10 h10 m24 0 h10 m0 0 h10 m140 0 h10 m20 -32 h10 m26 0 h10 m3 0 h-3"/>
   <polygon points="533 83 541 79 541 87"/>
   <polygon points="533 83 525 79 525 87"/>
</svg>
