<svg xmlns="http://www.w3.org/2000/svg" width="549" height="81">
   <polygon points="9 61 1 57 1 65"/>
   <polygon points="17 61 9 57 9 65"/>
   <rect x="31" y="47" width="112" height="32" rx="10"/>
   <rect x="29"
         y="45"
         width="112"
         height="32"
         class="terminal"
         rx="10"/>
   <text class="terminal" x="39" y="65">PRIMARY KEY</text>
   <rect x="163" y="47" width="24" height="32" rx="10"/>
   <rect x="161"
         y="45"
         width="24"
         height="32"
         class="terminal"
         rx="10"/>
   <text class="terminal" x="171" y="65">(</text>
   <rect x="227" y="47" width="80" height="32"/>
   <rect x="225" y="45" width="80" height="32" class="nonterminal"/>
   <text class="nonterminal" x="235" y="65">col_name</text>
   <rect x="227" y="3" width="24" height="32" rx="10"/>
   <rect x="225"
         y="1"
         width="24"
         height="32"
         class="terminal"
         rx="10"/>
   <text class="terminal" x="235" y="21">,</text>
   <rect x="347" y="47" width="24" height="32" rx="10"/>
   <rect x="345"
         y="45"
         width="24"
         height="32"
         class="terminal"
         rx="10"/>
   <text class="terminal" x="355" y="65">)</text>
   <rect x="391" y="47" width="130" height="32" rx="10"/>
   <rect x="389"
         y="45"
         width="130"
         height="32"
         class="terminal"
         rx="10"/>
   <text class="terminal" x="399" y="65">NOT ENFORCED</text>
   <path class="line"
         d="m17 61 h2 m0 0 h10 m112 0 h10 m0 0 h10 m24 0 h10 m20 0 h10 m80 0 h10 m-120 0 l20 0 m-1 0 q-9 0 -9 -10 l0 -24 q0 -10 10 -10 m100 44 l20 0 m-20 0 q10 0 10 -10 l0 -24 q0 -10 -10 -10 m-100 0 h10 m24 0 h10 m0 0 h56 m20 44 h10 m24 0 h10 m0 0 h10 m130 0 h10 m3 0 h-3"/>
   <polygon points="539 61 547 57 547 65"/>
   <polygon points="539 61 531 57 531 65"/>
</svg>
