<svg xmlns="http://www.w3.org/2000/svg" width="561" height="81">
   <polygon points="9 61 1 57 1 65"/>
   <polygon points="17 61 9 57 9 65"/>
   <rect x="31" y="47" width="118" height="32" rx="10"/>
   <rect x="29"
         y="45"
         width="118"
         height="32"
         class="terminal"
         rx="10"/>
   <text class="terminal" x="39" y="65">PRIMARY KEY</text>
   <rect x="169" y="47" width="26" height="32" rx="10"/>
   <rect x="167"
         y="45"
         width="26"
         height="32"
         class="terminal"
         rx="10"/>
   <text class="terminal" x="177" y="65">(</text>
   <rect x="235" y="47" width="82" height="32"/>
   <rect x="233" y="45" width="82" height="32" class="nonterminal"/>
   <text class="nonterminal" x="243" y="65">col_name</text>
   <rect x="235" y="3" width="24" height="32" rx="10"/>
   <rect x="233"
         y="1"
         width="24"
         height="32"
         class="terminal"
         rx="10"/>
   <text class="terminal" x="243" y="21">,</text>
   <rect x="357" y="47" width="26" height="32" rx="10"/>
   <rect x="355"
         y="45"
         width="26"
         height="32"
         class="terminal"
         rx="10"/>
   <text class="terminal" x="365" y="65">)</text>
   <rect x="403" y="47" width="130" height="32" rx="10"/>
   <rect x="401"
         y="45"
         width="130"
         height="32"
         class="terminal"
         rx="10"/>
   <text class="terminal" x="411" y="65">NOT ENFORCED</text>
   <path class="line"
         d="m17 61 h2 m0 0 h10 m118 0 h10 m0 0 h10 m26 0 h10 m20 0 h10 m82 0 h10 m-122 0 l20 0 m-1 0 q-9 0 -9 -10 l0 -24 q0 -10 10 -10 m102 44 l20 0 m-20 0 q10 0 10 -10 l0 -24 q0 -10 -10 -10 m-102 0 h10 m24 0 h10 m0 0 h58 m20 44 h10 m26 0 h10 m0 0 h10 m130 0 h10 m3 0 h-3"/>
   <polygon points="551 61 559 57 559 65"/>
   <polygon points="551 61 543 57 543 65"/>
</svg>
