<svg xmlns="http://www.w3.org/2000/svg" width="809" height="301">
   <polygon points="9 17 1 13 1 21"/>
   <polygon points="17 17 9 13 9 21"/>
   <rect x="51" y="3" width="170" height="32" rx="10"/>
   <rect x="49"
         y="1"
         width="170"
         height="32"
         class="terminal"
         rx="10"/>
   <text class="terminal" x="59" y="21">PROTOBUF MESSAGE</text>
   <rect x="241" y="3" width="122" height="32"/>
   <rect x="239" y="1" width="122" height="32" class="nonterminal"/>
   <text class="nonterminal" x="249" y="21">message_name</text>
   <rect x="383" y="3" width="162" height="32" rx="10"/>
   <rect x="381"
         y="1"
         width="162"
         height="32"
         class="terminal"
         rx="10"/>
   <text class="terminal" x="391" y="21">USING SCHEMA FILE</text>
   <rect x="565" y="3" width="50" height="32"/>
   <rect x="563" y="1" width="50" height="32" class="nonterminal"/>
   <text class="nonterminal" x="573" y="21">path</text>
   <rect x="51" y="47" width="66" height="32" rx="10"/>
   <rect x="49"
         y="45"
         width="66"
         height="32"
         class="terminal"
         rx="10"/>
   <text class="terminal" x="59" y="65">REGEX</text>
   <rect x="137" y="47" width="56" height="32"/>
   <rect x="135" y="45" width="56" height="32" class="nonterminal"/>
   <text class="nonterminal" x="145" y="65">regex</text>
   <rect x="51" y="135" width="92" height="32" rx="10"/>
   <rect x="49"
         y="133"
         width="92"
         height="32"
         class="terminal"
         rx="10"/>
   <text class="terminal" x="59" y="153">CSV WITH</text>
   <rect x="183" y="135" width="78" height="32" rx="10"/>
   <rect x="181"
         y="133"
         width="78"
         height="32"
         class="terminal"
         rx="10"/>
   <text class="terminal" x="191" y="153">HEADER</text>
   <rect x="281" y="135" width="26" height="32" rx="10"/>
   <rect x="279"
         y="133"
         width="26"
         height="32"
         class="terminal"
         rx="10"/>
   <text class="terminal" x="289" y="153">(</text>
   <rect x="347" y="135" width="82" height="32"/>
   <rect x="345" y="133" width="82" height="32" class="nonterminal"/>
   <text class="nonterminal" x="355" y="153">col_name</text>
   <rect x="347" y="91" width="24" height="32" rx="10"/>
   <rect x="345"
         y="89"
         width="24"
         height="32"
         class="terminal"
         rx="10"/>
   <text class="terminal" x="355" y="109">,</text>
   <rect x="469" y="135" width="26" height="32" rx="10"/>
   <rect x="467"
         y="133"
         width="26"
         height="32"
         class="terminal"
         rx="10"/>
   <text class="terminal" x="477" y="153">)</text>
   <rect x="183" y="179" width="28" height="32"/>
   <rect x="181" y="177" width="28" height="32" class="nonterminal"/>
   <text class="nonterminal" x="191" y="197">n</text>
   <rect x="231" y="179" width="92" height="32" rx="10"/>
   <rect x="229"
         y="177"
         width="92"
         height="32"
         class="terminal"
         rx="10"/>
   <text class="terminal" x="239" y="197">COLUMNS</text>
   <rect x="555" y="167" width="118" height="32" rx="10"/>
   <rect x="553"
         y="165"
         width="118"
         height="32"
         class="terminal"
         rx="10"/>
   <text class="terminal" x="563" y="185">DELIMITED BY</text>
   <rect x="693" y="167" width="48" height="32"/>
   <rect x="691" y="165" width="48" height="32" class="nonterminal"/>
   <text class="nonterminal" x="701" y="185">char</text>
   <rect x="51" y="223" width="56" height="32" rx="10"/>
   <rect x="49"
         y="221"
         width="56"
         height="32"
         class="terminal"
         rx="10"/>
   <text class="terminal" x="59" y="241">TEXT</text>
   <rect x="51" y="267" width="66" height="32" rx="10"/>
   <rect x="49"
         y="265"
         width="66"
         height="32"
         class="terminal"
         rx="10"/>
   <text class="terminal" x="59" y="285">BYTES</text>
   <path class="line"
         d="m17 17 h2 m20 0 h10 m170 0 h10 m0 0 h10 m122 0 h10 m0 0 h10 m162 0 h10 m0 0 h10 m50 0 h10 m0 0 h146 m-750 0 h20 m730 0 h20 m-770 0 q10 0 10 10 m750 0 q0 -10 10 -10 m-760 10 v24 m750 0 v-24 m-750 24 q0 10 10 10 m730 0 q10 0 10 -10 m-740 10 h10 m66 0 h10 m0 0 h10 m56 0 h10 m0 0 h568 m-740 -10 v20 m750 0 v-20 m-750 20 v68 m750 0 v-68 m-750 68 q0 10 10 10 m730 0 q10 0 10 -10 m-740 10 h10 m92 0 h10 m20 0 h10 m78 0 h10 m0 0 h10 m26 0 h10 m20 0 h10 m82 0 h10 m-122 0 l20 0 m-1 0 q-9 0 -9 -10 l0 -24 q0 -10 10 -10 m102 44 l20 0 m-20 0 q10 0 10 -10 l0 -24 q0 -10 -10 -10 m-102 0 h10 m24 0 h10 m0 0 h58 m20 44 h10 m26 0 h10 m-352 0 h20 m332 0 h20 m-372 0 q10 0 10 10 m352 0 q0 -10 10 -10 m-362 10 v24 m352 0 v-24 m-352 24 q0 10 10 10 m332 0 q10 0 10 -10 m-342 10 h10 m28 0 h10 m0 0 h10 m92 0 h10 m0 0 h172 m40 -44 h10 m0 0 h196 m-226 0 h20 m206 0 h20 m-246 0 q10 0 10 10 m226 0 q0 -10 10 -10 m-236 10 v12 m226 0 v-12 m-226 12 q0 10 10 10 m206 0 q10 0 10 -10 m-216 10 h10 m118 0 h10 m0 0 h10 m48 0 h10 m-720 -42 v20 m750 0 v-20 m-750 20 v68 m750 0 v-68 m-750 68 q0 10 10 10 m730 0 q10 0 10 -10 m-740 10 h10 m56 0 h10 m0 0 h654 m-740 -10 v20 m750 0 v-20 m-750 20 v24 m750 0 v-24 m-750 24 q0 10 10 10 m730 0 q10 0 10 -10 m-740 10 h10 m66 0 h10 m0 0 h644 m23 -264 h-3"/>
   <polygon points="799 17 807 13 807 21"/>
   <polygon points="799 17 791 13 791 21"/>
</svg>
