<svg xmlns="http://www.w3.org/2000/svg" width="849" height="323">
   <polygon points="9 17 1 13 1 21"/>
   <polygon points="17 17 9 13 9 21"/>
   <rect x="51" y="3" width="170" height="32" rx="10"/>
   <rect x="49"
         y="1"
         width="170"
         height="32"
         class="terminal"
         rx="10"/>
   <text class="terminal" x="59" y="21">PROTOBUF MESSAGE</text>
   <rect x="241" y="3" width="122" height="32"/>
   <rect x="239" y="1" width="122" height="32" class="nonterminal"/>
   <text class="nonterminal" x="249" y="21">message_name</text>
   <rect x="383" y="3" width="162" height="32" rx="10"/>
   <rect x="381"
         y="1"
         width="162"
         height="32"
         class="terminal"
         rx="10"/>
   <text class="terminal" x="391" y="21">USING SCHEMA FILE</text>
   <rect x="565" y="3" width="50" height="32"/>
   <rect x="563" y="1" width="50" height="32" class="nonterminal"/>
   <text class="nonterminal" x="573" y="21">path</text>
   <rect x="51" y="47" width="66" height="32" rx="10"/>
   <rect x="49"
         y="45"
         width="66"
         height="32"
         class="terminal"
         rx="10"/>
   <text class="terminal" x="59" y="65">REGEX</text>
   <rect x="137" y="47" width="56" height="32"/>
   <rect x="135" y="45" width="56" height="32" class="nonterminal"/>
   <text class="nonterminal" x="145" y="65">regex</text>
   <rect x="51" y="135" width="92" height="32" rx="10"/>
   <rect x="49"
         y="133"
         width="92"
         height="32"
         class="terminal"
         rx="10"/>
   <text class="terminal" x="59" y="153">CSV WITH</text>
   <rect x="183" y="135" width="78" height="32" rx="10"/>
   <rect x="181"
         y="133"
         width="78"
         height="32"
         class="terminal"
         rx="10"/>
   <text class="terminal" x="191" y="153">HEADER</text>
   <rect x="301" y="135" width="26" height="32" rx="10"/>
   <rect x="299"
         y="133"
         width="26"
         height="32"
         class="terminal"
         rx="10"/>
   <text class="terminal" x="309" y="153">(</text>
   <rect x="367" y="135" width="82" height="32"/>
   <rect x="365" y="133" width="82" height="32" class="nonterminal"/>
   <text class="nonterminal" x="375" y="153">col_name</text>
   <rect x="367" y="91" width="24" height="32" rx="10"/>
   <rect x="365"
         y="89"
         width="24"
         height="32"
         class="terminal"
         rx="10"/>
   <text class="terminal" x="375" y="109">,</text>
   <rect x="489" y="135" width="26" height="32" rx="10"/>
   <rect x="487"
         y="133"
         width="26"
         height="32"
         class="terminal"
         rx="10"/>
   <text class="terminal" x="497" y="153">)</text>
   <rect x="183" y="201" width="28" height="32"/>
   <rect x="181" y="199" width="28" height="32" class="nonterminal"/>
   <text class="nonterminal" x="191" y="219">n</text>
   <rect x="231" y="201" width="92" height="32" rx="10"/>
   <rect x="229"
         y="199"
         width="92"
         height="32"
         class="terminal"
         rx="10"/>
   <text class="terminal" x="239" y="219">COLUMNS</text>
   <rect x="595" y="167" width="118" height="32" rx="10"/>
   <rect x="593"
         y="165"
         width="118"
         height="32"
         class="terminal"
         rx="10"/>
   <text class="terminal" x="603" y="185">DELIMITED BY</text>
   <rect x="733" y="167" width="48" height="32"/>
   <rect x="731" y="165" width="48" height="32" class="nonterminal"/>
   <text class="nonterminal" x="741" y="185">char</text>
   <rect x="51" y="245" width="56" height="32" rx="10"/>
   <rect x="49"
         y="243"
         width="56"
         height="32"
         class="terminal"
         rx="10"/>
   <text class="terminal" x="59" y="263">TEXT</text>
   <rect x="51" y="289" width="66" height="32" rx="10"/>
   <rect x="49"
         y="287"
         width="66"
         height="32"
         class="terminal"
         rx="10"/>
   <text class="terminal" x="59" y="307">BYTES</text>
   <path class="line"
         d="m17 17 h2 m20 0 h10 m170 0 h10 m0 0 h10 m122 0 h10 m0 0 h10 m162 0 h10 m0 0 h10 m50 0 h10 m0 0 h186 m-790 0 h20 m770 0 h20 m-810 0 q10 0 10 10 m790 0 q0 -10 10 -10 m-800 10 v24 m790 0 v-24 m-790 24 q0 10 10 10 m770 0 q10 0 10 -10 m-780 10 h10 m66 0 h10 m0 0 h10 m56 0 h10 m0 0 h608 m-780 -10 v20 m790 0 v-20 m-790 20 v68 m790 0 v-68 m-790 68 q0 10 10 10 m770 0 q10 0 10 -10 m-780 10 h10 m92 0 h10 m20 0 h10 m78 0 h10 m20 0 h10 m26 0 h10 m20 0 h10 m82 0 h10 m-122 0 l20 0 m-1 0 q-9 0 -9 -10 l0 -24 q0 -10 10 -10 m102 44 l20 0 m-20 0 q10 0 10 -10 l0 -24 q0 -10 -10 -10 m-102 0 h10 m24 0 h10 m0 0 h58 m20 44 h10 m26 0 h10 m-254 0 h20 m234 0 h20 m-274 0 q10 0 10 10 m254 0 q0 -10 10 -10 m-264 10 v14 m254 0 v-14 m-254 14 q0 10 10 10 m234 0 q10 0 10 -10 m-244 10 h10 m0 0 h224 m-372 -34 h20 m372 0 h20 m-412 0 q10 0 10 10 m392 0 q0 -10 10 -10 m-402 10 v46 m392 0 v-46 m-392 46 q0 10 10 10 m372 0 q10 0 10 -10 m-382 10 h10 m28 0 h10 m0 0 h10 m92 0 h10 m0 0 h212 m40 -66 h10 m0 0 h196 m-226 0 h20 m206 0 h20 m-246 0 q10 0 10 10 m226 0 q0 -10 10 -10 m-236 10 v12 m226 0 v-12 m-226 12 q0 10 10 10 m206 0 q10 0 10 -10 m-216 10 h10 m118 0 h10 m0 0 h10 m48 0 h10 m-760 -42 v20 m790 0 v-20 m-790 20 v90 m790 0 v-90 m-790 90 q0 10 10 10 m770 0 q10 0 10 -10 m-780 10 h10 m56 0 h10 m0 0 h694 m-780 -10 v20 m790 0 v-20 m-790 20 v24 m790 0 v-24 m-790 24 q0 10 10 10 m770 0 q10 0 10 -10 m-780 10 h10 m66 0 h10 m0 0 h684 m23 -286 h-3"/>
   <polygon points="839 17 847 13 847 21"/>
   <polygon points="839 17 831 13 831 21"/>
</svg>
