<svg xmlns="http://www.w3.org/2000/svg" width="163" height="37">
   <polygon points="9 17 1 13 1 21"/>
   <polygon points="17 17 9 13 9 21"/>
   <rect x="31" y="3" width="46" height="32"/>
   <rect x="29" y="1" width="46" height="32" class="nonterminal"/>
   <text class="nonterminal" x="39" y="21">type</text>
   <rect x="97" y="3" width="38" height="32"/>
   <rect x="95" y="1" width="38" height="32" class="nonterminal"/>
   <text class="nonterminal" x="105" y="21">val</text>
   <path class="line"
         d="m17 17 h2 m0 0 h10 m46 0 h10 m0 0 h10 m38 0 h10 m3 0 h-3"/>
   <polygon points="153 17 161 13 161 21"/>
   <polygon points="153 17 145 13 145 21"/>
</svg>
