<svg xmlns="http://www.w3.org/2000/svg" width="275" height="37">
   <polygon points="9 17 1 13 1 21"/>
   <polygon points="17 17 9 13 9 21"/>
   <rect x="31" y="3" width="128" height="32" rx="10"/>
   <rect x="29"
         y="1"
         width="128"
         height="32"
         class="terminal"
         rx="10"/>
   <text class="terminal" x="39" y="21">TICK INTERVAL</text>
   <rect x="179" y="3" width="68" height="32"/>
   <rect x="177" y="1" width="68" height="32" class="nonterminal"/>
   <text class="nonterminal" x="187" y="21">interval</text>
   <path class="line"
         d="m17 17 h2 m0 0 h10 m128 0 h10 m0 0 h10 m68 0 h10 m3 0 h-3"/>
   <polygon points="265 17 273 13 273 21"/>
   <polygon points="265 17 257 13 257 21"/>
</svg>
