<svg xmlns="http://www.w3.org/2000/svg" width="395" height="125">
   <polygon points="9 17 1 13 1 21"/>
   <polygon points="17 17 9 13 9 21"/>
   <rect x="51" y="3" width="128" height="32" rx="10"/>
   <rect x="49"
         y="1"
         width="128"
         height="32"
         class="terminal"
         rx="10"/>
   <text class="terminal" x="59" y="21">TICK INTERVAL</text>
   <rect x="199" y="3" width="68" height="32"/>
   <rect x="197" y="1" width="68" height="32" class="nonterminal"/>
   <text class="nonterminal" x="207" y="21">interval</text>
   <rect x="51" y="47" width="130" height="32" rx="10"/>
   <rect x="49"
         y="45"
         width="130"
         height="32"
         class="terminal"
         rx="10"/>
   <text class="terminal" x="59" y="65">SCALE FACTOR</text>
   <rect x="201" y="47" width="100" height="32"/>
   <rect x="199" y="45" width="100" height="32" class="nonterminal"/>
   <text class="nonterminal" x="209" y="65">scale_factor</text>
   <rect x="51" y="91" width="154" height="32" rx="10"/>
   <rect x="49"
         y="89"
         width="154"
         height="32"
         class="terminal"
         rx="10"/>
   <text class="terminal" x="59" y="109">MAX CARDINALITY</text>
   <rect x="225" y="91" width="122" height="32"/>
   <rect x="223" y="89" width="122" height="32" class="nonterminal"/>
   <text class="nonterminal" x="233" y="109">max_cardinality</text>
   <path class="line"
         d="m17 17 h2 m20 0 h10 m128 0 h10 m0 0 h10 m68 0 h10 m0 0 h80 m-336 0 h20 m316 0 h20 m-356 0 q10 0 10 10 m336 0 q0 -10 10 -10 m-346 10 v24 m336 0 v-24 m-336 24 q0 10 10 10 m316 0 q10 0 10 -10 m-326 10 h10 m130 0 h10 m0 0 h10 m100 0 h10 m0 0 h46 m-326 -10 v20 m336 0 v-20 m-336 20 v24 m336 0 v-24 m-336 24 q0 10 10 10 m316 0 q10 0 10 -10 m-326 10 h10 m154 0 h10 m0 0 h10 m122 0 h10 m23 -88 h-3"/>
   <polygon points="385 17 393 13 393 21"/>
   <polygon points="385 17 377 13 377 21"/>
</svg>
