<svg xmlns="http://www.w3.org/2000/svg" width="517" height="521">
   <polygon points="9 17 1 13 1 21"/>
   <polygon points="17 17 9 13 9 21"/>
   <rect x="51" y="3" width="128" height="32" rx="10"/>
   <rect x="49"
         y="1"
         width="128"
         height="32"
         class="terminal"
         rx="10"/>
   <text class="terminal" x="59" y="21">TICK INTERVAL</text>
   <rect x="199" y="3" width="68" height="32"/>
   <rect x="197" y="1" width="68" height="32" class="nonterminal"/>
   <text class="nonterminal" x="207" y="21">interval</text>
   <rect x="71" y="47" width="62" height="32" rx="10"/>
   <rect x="69"
         y="45"
         width="62"
         height="32"
         class="terminal"
         rx="10"/>
   <text class="terminal" x="79" y="65">AS OF</text>
   <rect x="71" y="91" width="64" height="32" rx="10"/>
   <rect x="69"
         y="89"
         width="64"
         height="32"
         class="terminal"
         rx="10"/>
   <text class="terminal" x="79" y="109">UP TO</text>
   <rect x="175" y="47" width="44" height="32"/>
   <rect x="173" y="45" width="44" height="32" class="nonterminal"/>
   <text class="nonterminal" x="183" y="65">tick</text>
   <rect x="51" y="135" width="130" height="32" rx="10"/>
   <rect x="49"
         y="133"
         width="130"
         height="32"
         class="terminal"
         rx="10"/>
   <text class="terminal" x="59" y="153">SCALE FACTOR</text>
   <rect x="201" y="135" width="100" height="32"/>
   <rect x="199" y="133" width="100" height="32" class="nonterminal"/>
   <text class="nonterminal" x="209" y="153">scale_factor</text>
   <rect x="51" y="179" width="154" height="32" rx="10"/>
   <rect x="49"
         y="177"
         width="154"
         height="32"
         class="terminal"
         rx="10"/>
   <text class="terminal" x="59" y="197">MAX CARDINALITY</text>
   <rect x="225" y="179" width="122" height="32"/>
   <rect x="223" y="177" width="122" height="32" class="nonterminal"/>
   <text class="nonterminal" x="233" y="197">max_cardinality</text>
   <rect x="51" y="223" width="58" height="32" rx="10"/>
   <rect x="49"
         y="221"
         width="58"
         height="32"
         class="terminal"
         rx="10"/>
   <text class="terminal" x="59" y="241">KEYS</text>
   <rect x="129" y="223" width="50" height="32"/>
   <rect x="127" y="221" width="50" height="32" class="nonterminal"/>
   <text class="nonterminal" x="137" y="241">keys</text>
   <rect x="51" y="267" width="162" height="32" rx="10"/>
   <rect x="49"
         y="265"
         width="162"
         height="32"
         class="terminal"
         rx="10"/>
   <text class="terminal" x="59" y="285">SNAPSHOT ROUNDS</text>
   <rect x="233" y="267" width="132" height="32"/>
   <rect x="231" y="265" width="132" height="32" class="nonterminal"/>
   <text class="nonterminal" x="241" y="285">snapshot_rounds</text>
   <rect x="51" y="311" width="226" height="32" rx="10"/>
   <rect x="49"
         y="309"
         width="226"
         height="32"
         class="terminal"
         rx="10"/>
   <text class="terminal" x="59" y="329">TRANSACTIONAL SNAPSHOT</text>
   <rect x="297" y="311" width="172" height="32"/>
   <rect x="295" y="309" width="172" height="32" class="nonterminal"/>
   <text class="nonterminal" x="305" y="329">transactional_snapshot</text>
   <rect x="51" y="355" width="102" height="32" rx="10"/>
   <rect x="49"
         y="353"
         width="102"
         height="32"
         class="terminal"
         rx="10"/>
   <text class="terminal" x="59" y="373">VALUE SIZE</text>
   <rect x="173" y="355" width="88" height="32"/>
   <rect x="171" y="353" width="88" height="32" class="nonterminal"/>
   <text class="nonterminal" x="181" y="373">value_size</text>
   <rect x="51" y="399" width="56" height="32" rx="10"/>
   <rect x="49"
         y="397"
         width="56"
         height="32"
         class="terminal"
         rx="10"/>
   <text class="terminal" x="59" y="417">SEED</text>
   <rect x="127" y="399" width="52" height="32"/>
   <rect x="125" y="397" width="52" height="32" class="nonterminal"/>
   <text class="nonterminal" x="135" y="417">seed</text>
   <rect x="51" y="443" width="106" height="32" rx="10"/>
   <rect x="49"
         y="441"
         width="106"
         height="32"
         class="terminal"
         rx="10"/>
   <text class="terminal" x="59" y="461">PARTITIONS</text>
   <rect x="177" y="443" width="82" height="32"/>
   <rect x="175" y="441" width="82" height="32" class="nonterminal"/>
   <text class="nonterminal" x="185" y="461">partitions</text>
   <rect x="51" y="487" width="106" height="32" rx="10"/>
   <rect x="49"
         y="485"
         width="106"
         height="32"
         class="terminal"
         rx="10"/>
   <text class="terminal" x="59" y="505">BATCH SIZE</text>
   <rect x="177" y="487" width="90" height="32"/>
   <rect x="175" y="485" width="90" height="32" class="nonterminal"/>
   <text class="nonterminal" x="185" y="505">batch_size</text>
   <path class="line"
         d="m17 17 h2 m20 0 h10 m128 0 h10 m0 0 h10 m68 0 h10 m0 0 h202 m-458 0 h20 m438 0 h20 m-478 0 q10 0 10 10 m458 0 q0 -10 10 -10 m-468 10 v24 m458 0 v-24 m-458 24 q0 10 10 10 m438 0 q10 0 10 -10 m-428 10 h10 m62 0 h10 m0 0 h2 m-104 0 h20 m84 0 h20 m-124 0 q10 0 10 10 m104 0 q0 -10 10 -10 m-114 10 v24 m104 0 v-24 m-104 24 q0 10 10 10 m84 0 q10 0 10 -10 m-94 10 h10 m64 0 h10 m20 -44 h10 m44 0 h10 m0 0 h250 m-448 -10 v20 m458 0 v-20 m-458 20 v68 m458 0 v-68 m-458 68 q0 10 10 10 m438 0 q10 0 10 -10 m-448 10 h10 m130 0 h10 m0 0 h10 m100 0 h10 m0 0 h168 m-448 -10 v20 m458 0 v-20 m-458 20 v24 m458 0 v-24 m-458 24 q0 10 10 10 m438 0 q10 0 10 -10 m-448 10 h10 m154 0 h10 m0 0 h10 m122 0 h10 m0 0 h122 m-448 -10 v20 m458 0 v-20 m-458 20 v24 m458 0 v-24 m-458 24 q0 10 10 10 m438 0 q10 0 10 -10 m-448 10 h10 m58 0 h10 m0 0 h10 m50 0 h10 m0 0 h290 m-448 -10 v20 m458 0 v-20 m-458 20 v24 m458 0 v-24 m-458 24 q0 10 10 10 m438 0 q10 0 10 -10 m-448 10 h10 m162 0 h10 m0 0 h10 m132 0 h10 m0 0 h104 m-448 -10 v20 m458 0 v-20 m-458 20 v24 m458 0 v-24 m-458 24 q0 10 10 10 m438 0 q10 0 10 -10 m-448 10 h10 m226 0 h10 m0 0 h10 m172 0 h10 m-448 -10 v20 m458 0 v-20 m-458 20 v24 m458 0 v-24 m-458 24 q0 10 10 10 m438 0 q10 0 10 -10 m-448 10 h10 m102 0 h10 m0 0 h10 m88 0 h10 m0 0 h208 m-448 -10 v20 m458 0 v-20 m-458 20 v24 m458 0 v-24 m-458 24 q0 10 10 10 m438 0 q10 0 10 -10 m-448 10 h10 m56 0 h10 m0 0 h10 m52 0 h10 m0 0 h290 m-448 -10 v20 m458 0 v-20 m-458 20 v24 m458 0 v-24 m-458 24 q0 10 10 10 m438 0 q10 0 10 -10 m-448 10 h10 m106 0 h10 m0 0 h10 m82 0 h10 m0 0 h210 m-448 -10 v20 m458 0 v-20 m-458 20 v24 m458 0 v-24 m-458 24 q0 10 10 10 m438 0 q10 0 10 -10 m-448 10 h10 m106 0 h10 m0 0 h10 m90 0 h10 m0 0 h202 m23 -484 h-3"/>
   <polygon points="507 17 515 13 515 21"/>
   <polygon points="507 17 499 13 499 21"/>
</svg>
