<svg xmlns="http://www.w3.org/2000/svg" width="349" height="81">
   <polygon points="9 17 1 13 1 21"/>
   <polygon points="17 17 9 13 9 21"/>
   <rect x="51" y="3" width="128" height="32" rx="10"/>
   <rect x="49"
         y="1"
         width="128"
         height="32"
         class="terminal"
         rx="10"/>
   <text class="terminal" x="59" y="21">TICK INTERVAL</text>
   <rect x="199" y="3" width="68" height="32"/>
   <rect x="197" y="1" width="68" height="32" class="nonterminal"/>
   <text class="nonterminal" x="207" y="21">interval</text>
   <rect x="51" y="47" width="130" height="32" rx="10"/>
   <rect x="49"
         y="45"
         width="130"
         height="32"
         class="terminal"
         rx="10"/>
   <text class="terminal" x="59" y="65">SCALE FACTOR</text>
   <rect x="201" y="47" width="100" height="32"/>
   <rect x="199" y="45" width="100" height="32" class="nonterminal"/>
   <text class="nonterminal" x="209" y="65">scale_factor</text>
   <path class="line"
         d="m17 17 h2 m20 0 h10 m128 0 h10 m0 0 h10 m68 0 h10 m0 0 h34 m-290 0 h20 m270 0 h20 m-310 0 q10 0 10 10 m290 0 q0 -10 10 -10 m-300 10 v24 m290 0 v-24 m-290 24 q0 10 10 10 m270 0 q10 0 10 -10 m-280 10 h10 m130 0 h10 m0 0 h10 m100 0 h10 m23 -44 h-3"/>
   <polygon points="339 17 347 13 347 21"/>
   <polygon points="339 17 331 13 331 21"/>
</svg>
