<svg xmlns="http://www.w3.org/2000/svg" width="413" height="477">
   <polygon points="9 17 1 13 1 21"/>
   <polygon points="17 17 9 13 9 21"/>
   <rect x="51" y="3" width="128" height="32" rx="10"/>
   <rect x="49"
         y="1"
         width="128"
         height="32"
         class="terminal"
         rx="10"/>
   <text class="terminal" x="59" y="21">TICK INTERVAL</text>
   <rect x="199" y="3" width="68" height="32"/>
   <rect x="197" y="1" width="68" height="32" class="nonterminal"/>
   <text class="nonterminal" x="207" y="21">interval</text>
   <rect x="51" y="47" width="130" height="32" rx="10"/>
   <rect x="49"
         y="45"
         width="130"
         height="32"
         class="terminal"
         rx="10"/>
   <text class="terminal" x="59" y="65">SCALE FACTOR</text>
   <rect x="201" y="47" width="100" height="32"/>
   <rect x="199" y="45" width="100" height="32" class="nonterminal"/>
   <text class="nonterminal" x="209" y="65">scale_factor</text>
   <rect x="51" y="91" width="154" height="32" rx="10"/>
   <rect x="49"
         y="89"
         width="154"
         height="32"
         class="terminal"
         rx="10"/>
   <text class="terminal" x="59" y="109">MAX CARDINALITY</text>
   <rect x="225" y="91" width="122" height="32"/>
   <rect x="223" y="89" width="122" height="32" class="nonterminal"/>
   <text class="nonterminal" x="233" y="109">max_cardinality</text>
   <rect x="51" y="135" width="58" height="32" rx="10"/>
   <rect x="49"
         y="133"
         width="58"
         height="32"
         class="terminal"
         rx="10"/>
   <text class="terminal" x="59" y="153">KEYS</text>
   <rect x="129" y="135" width="50" height="32"/>
   <rect x="127" y="133" width="50" height="32" class="nonterminal"/>
   <text class="nonterminal" x="137" y="153">keys</text>
   <rect x="51" y="179" width="162" height="32" rx="10"/>
   <rect x="49"
         y="177"
         width="162"
         height="32"
         class="terminal"
         rx="10"/>
   <text class="terminal" x="59" y="197">SNAPSHOT ROUNDS</text>
   <rect x="233" y="179" width="132" height="32"/>
   <rect x="231" y="177" width="132" height="32" class="nonterminal"/>
   <text class="nonterminal" x="241" y="197">snapshot_rounds</text>
   <rect x="51" y="223" width="130" height="32" rx="10"/>
   <rect x="49"
         y="221"
         width="130"
         height="32"
         class="terminal"
         rx="10"/>
   <text class="terminal" x="59" y="241">QUICK ROUNDS</text>
   <rect x="201" y="223" width="106" height="32"/>
   <rect x="199" y="221" width="106" height="32" class="nonterminal"/>
   <text class="nonterminal" x="209" y="241">quick_rounds</text>
   <rect x="51" y="267" width="102" height="32" rx="10"/>
   <rect x="49"
         y="265"
         width="102"
         height="32"
         class="terminal"
         rx="10"/>
   <text class="terminal" x="59" y="285">VALUE SIZE</text>
   <rect x="173" y="267" width="88" height="32"/>
   <rect x="171" y="265" width="88" height="32" class="nonterminal"/>
   <text class="nonterminal" x="181" y="285">value_size</text>
   <rect x="51" y="311" width="120" height="32" rx="10"/>
   <rect x="49"
         y="309"
         width="120"
         height="32"
         class="terminal"
         rx="10"/>
   <text class="terminal" x="59" y="329">UPDATE RATE</text>
   <rect x="191" y="311" width="98" height="32"/>
   <rect x="189" y="309" width="98" height="32" class="nonterminal"/>
   <text class="nonterminal" x="199" y="329">update_rate</text>
   <rect x="51" y="355" width="56" height="32" rx="10"/>
   <rect x="49"
         y="353"
         width="56"
         height="32"
         class="terminal"
         rx="10"/>
   <text class="terminal" x="59" y="373">SEED</text>
   <rect x="127" y="355" width="52" height="32"/>
   <rect x="125" y="353" width="52" height="32" class="nonterminal"/>
   <text class="nonterminal" x="135" y="373">seed</text>
   <rect x="51" y="399" width="106" height="32" rx="10"/>
   <rect x="49"
         y="397"
         width="106"
         height="32"
         class="terminal"
         rx="10"/>
   <text class="terminal" x="59" y="417">PARTITIONS</text>
   <rect x="177" y="399" width="82" height="32"/>
   <rect x="175" y="397" width="82" height="32" class="nonterminal"/>
   <text class="nonterminal" x="185" y="417">partitions</text>
   <rect x="51" y="443" width="106" height="32" rx="10"/>
   <rect x="49"
         y="441"
         width="106"
         height="32"
         class="terminal"
         rx="10"/>
   <text class="terminal" x="59" y="461">BATCH SIZE</text>
   <rect x="177" y="443" width="90" height="32"/>
   <rect x="175" y="441" width="90" height="32" class="nonterminal"/>
   <text class="nonterminal" x="185" y="461">batch_size</text>
   <path class="line"
         d="m17 17 h2 m20 0 h10 m128 0 h10 m0 0 h10 m68 0 h10 m0 0 h98 m-354 0 h20 m334 0 h20 m-374 0 q10 0 10 10 m354 0 q0 -10 10 -10 m-364 10 v24 m354 0 v-24 m-354 24 q0 10 10 10 m334 0 q10 0 10 -10 m-344 10 h10 m130 0 h10 m0 0 h10 m100 0 h10 m0 0 h64 m-344 -10 v20 m354 0 v-20 m-354 20 v24 m354 0 v-24 m-354 24 q0 10 10 10 m334 0 q10 0 10 -10 m-344 10 h10 m154 0 h10 m0 0 h10 m122 0 h10 m0 0 h18 m-344 -10 v20 m354 0 v-20 m-354 20 v24 m354 0 v-24 m-354 24 q0 10 10 10 m334 0 q10 0 10 -10 m-344 10 h10 m58 0 h10 m0 0 h10 m50 0 h10 m0 0 h186 m-344 -10 v20 m354 0 v-20 m-354 20 v24 m354 0 v-24 m-354 24 q0 10 10 10 m334 0 q10 0 10 -10 m-344 10 h10 m162 0 h10 m0 0 h10 m132 0 h10 m-344 -10 v20 m354 0 v-20 m-354 20 v24 m354 0 v-24 m-354 24 q0 10 10 10 m334 0 q10 0 10 -10 m-344 10 h10 m130 0 h10 m0 0 h10 m106 0 h10 m0 0 h58 m-344 -10 v20 m354 0 v-20 m-354 20 v24 m354 0 v-24 m-354 24 q0 10 10 10 m334 0 q10 0 10 -10 m-344 10 h10 m102 0 h10 m0 0 h10 m88 0 h10 m0 0 h104 m-344 -10 v20 m354 0 v-20 m-354 20 v24 m354 0 v-24 m-354 24 q0 10 10 10 m334 0 q10 0 10 -10 m-344 10 h10 m120 0 h10 m0 0 h10 m98 0 h10 m0 0 h76 m-344 -10 v20 m354 0 v-20 m-354 20 v24 m354 0 v-24 m-354 24 q0 10 10 10 m334 0 q10 0 10 -10 m-344 10 h10 m56 0 h10 m0 0 h10 m52 0 h10 m0 0 h186 m-344 -10 v20 m354 0 v-20 m-354 20 v24 m354 0 v-24 m-354 24 q0 10 10 10 m334 0 q10 0 10 -10 m-344 10 h10 m106 0 h10 m0 0 h10 m82 0 h10 m0 0 h106 m-344 -10 v20 m354 0 v-20 m-354 20 v24 m354 0 v-24 m-354 24 q0 10 10 10 m334 0 q10 0 10 -10 m-344 10 h10 m106 0 h10 m0 0 h10 m90 0 h10 m0 0 h98 m23 -440 h-3"/>
   <polygon points="403 17 411 13 411 21"/>
   <polygon points="403 17 395 13 395 21"/>
</svg>
