<svg xmlns="http://www.w3.org/2000/svg" width="209" height="37">
   <polygon points="9 17 1 13 1 21"/>
   <polygon points="17 17 9 13 9 21"/>
   <rect x="31" y="3" width="38" height="32"/>
   <rect x="29" y="1" width="38" height="32" class="nonterminal"/>
   <text class="nonterminal" x="39" y="21">val</text>
   <rect x="89" y="3" width="26" height="32" rx="10"/>
   <rect x="87"
         y="1"
         width="26"
         height="32"
         class="terminal"
         rx="10"/>
   <text class="terminal" x="97" y="21">::</text>
   <rect x="135" y="3" width="46" height="32"/>
   <rect x="133" y="1" width="46" height="32" class="nonterminal"/>
   <text class="nonterminal" x="143" y="21">type</text>
   <path class="line"
         d="m17 17 h2 m0 0 h10 m38 0 h10 m0 0 h10 m26 0 h10 m0 0 h10 m46 0 h10 m3 0 h-3"/>
   <polygon points="199 17 207 13 207 21"/>
   <polygon points="199 17 191 13 191 21"/>
</svg>
