<svg xmlns="http://www.w3.org/2000/svg" width="301" height="433">
   <polygon points="9 17 1 13 1 21"/>
   <polygon points="17 17 9 13 9 21"/>
   <rect x="51" y="3" width="74" height="32" rx="10"/>
   <rect x="49"
         y="1"
         width="74"
         height="32"
         class="terminal"
         rx="10"/>
   <text class="terminal" x="59" y="21">SELECT</text>
   <rect x="51" y="47" width="70" height="32" rx="10"/>
   <rect x="49"
         y="45"
         width="70"
         height="32"
         class="terminal"
         rx="10"/>
   <text class="terminal" x="59" y="65">INSERT</text>
   <rect x="51" y="91" width="78" height="32" rx="10"/>
   <rect x="49"
         y="89"
         width="78"
         height="32"
         class="terminal"
         rx="10"/>
   <text class="terminal" x="59" y="109">UPDATE</text>
   <rect x="51" y="135" width="72" height="32" rx="10"/>
   <rect x="49"
         y="133"
         width="72"
         height="32"
         class="terminal"
         rx="10"/>
   <text class="terminal" x="59" y="153">DELETE</text>
   <rect x="51" y="179" width="76" height="32" rx="10"/>
   <rect x="49"
         y="177"
         width="76"
         height="32"
         class="terminal"
         rx="10"/>
   <text class="terminal" x="59" y="197">CREATE</text>
   <rect x="51" y="223" width="68" height="32" rx="10"/>
   <rect x="49"
         y="221"
         width="68"
         height="32"
         class="terminal"
         rx="10"/>
   <text class="terminal" x="59" y="241">USAGE</text>
   <rect x="51" y="267" width="114" height="32" rx="10"/>
   <rect x="49"
         y="265"
         width="114"
         height="32"
         class="terminal"
         rx="10"/>
   <text class="terminal" x="59" y="285">CREATEROLE</text>
   <rect x="51" y="311" width="96" height="32" rx="10"/>
   <rect x="49"
         y="309"
         width="96"
         height="32"
         class="terminal"
         rx="10"/>
   <text class="terminal" x="59" y="329">CREATEDB</text>
   <rect x="51" y="355" width="142" height="32" rx="10"/>
   <rect x="49"
         y="353"
         width="142"
         height="32"
         class="terminal"
         rx="10"/>
   <text class="terminal" x="59" y="373">CREATECLUSTER</text>
   <rect x="51" y="399" width="202" height="32" rx="10"/>
   <rect x="49"
         y="397"
         width="202"
         height="32"
         class="terminal"
         rx="10"/>
   <text class="terminal" x="59" y="417">CREATENETWORKPOLICY</text>
   <path class="line"
         d="m17 17 h2 m20 0 h10 m74 0 h10 m0 0 h128 m-242 0 h20 m222 0 h20 m-262 0 q10 0 10 10 m242 0 q0 -10 10 -10 m-252 10 v24 m242 0 v-24 m-242 24 q0 10 10 10 m222 0 q10 0 10 -10 m-232 10 h10 m70 0 h10 m0 0 h132 m-232 -10 v20 m242 0 v-20 m-242 20 v24 m242 0 v-24 m-242 24 q0 10 10 10 m222 0 q10 0 10 -10 m-232 10 h10 m78 0 h10 m0 0 h124 m-232 -10 v20 m242 0 v-20 m-242 20 v24 m242 0 v-24 m-242 24 q0 10 10 10 m222 0 q10 0 10 -10 m-232 10 h10 m72 0 h10 m0 0 h130 m-232 -10 v20 m242 0 v-20 m-242 20 v24 m242 0 v-24 m-242 24 q0 10 10 10 m222 0 q10 0 10 -10 m-232 10 h10 m76 0 h10 m0 0 h126 m-232 -10 v20 m242 0 v-20 m-242 20 v24 m242 0 v-24 m-242 24 q0 10 10 10 m222 0 q10 0 10 -10 m-232 10 h10 m68 0 h10 m0 0 h134 m-232 -10 v20 m242 0 v-20 m-242 20 v24 m242 0 v-24 m-242 24 q0 10 10 10 m222 0 q10 0 10 -10 m-232 10 h10 m114 0 h10 m0 0 h88 m-232 -10 v20 m242 0 v-20 m-242 20 v24 m242 0 v-24 m-242 24 q0 10 10 10 m222 0 q10 0 10 -10 m-232 10 h10 m96 0 h10 m0 0 h106 m-232 -10 v20 m242 0 v-20 m-242 20 v24 m242 0 v-24 m-242 24 q0 10 10 10 m222 0 q10 0 10 -10 m-232 10 h10 m142 0 h10 m0 0 h60 m-232 -10 v20 m242 0 v-20 m-242 20 v24 m242 0 v-24 m-242 24 q0 10 10 10 m222 0 q10 0 10 -10 m-232 10 h10 m202 0 h10 m23 -396 h-3"/>
   <polygon points="291 17 299 13 299 21"/>
   <polygon points="291 17 283 13 283 21"/>
</svg>
