<svg xmlns="http://www.w3.org/2000/svg" width="491" height="147">
   <polygon points="9 61 1 57 1 65"/>
   <polygon points="17 61 9 57 9 65"/>
   <rect x="31" y="47" width="92" height="32" rx="10"/>
   <rect x="29"
         y="45"
         width="92"
         height="32"
         class="terminal"
         rx="10"/>
   <text class="terminal" x="39" y="65">REASSIGN</text>
   <rect x="143" y="47" width="74" height="32" rx="10"/>
   <rect x="141"
         y="45"
         width="74"
         height="32"
         class="terminal"
         rx="10"/>
   <text class="terminal" x="151" y="65">OWNED</text>
   <rect x="237" y="47" width="40" height="32" rx="10"/>
   <rect x="235"
         y="45"
         width="40"
         height="32"
         class="terminal"
         rx="10"/>
   <text class="terminal" x="245" y="65">BY</text>
   <rect x="317" y="47" width="72" height="32"/>
   <rect x="315" y="45" width="72" height="32" class="nonterminal"/>
   <text class="nonterminal" x="325" y="65">old_role</text>
   <rect x="317" y="3" width="24" height="32" rx="10"/>
   <rect x="315"
         y="1"
         width="24"
         height="32"
         class="terminal"
         rx="10"/>
   <text class="terminal" x="325" y="21">,</text>
   <rect x="429" y="47" width="40" height="32" rx="10"/>
   <rect x="427"
         y="45"
         width="40"
         height="32"
         class="terminal"
         rx="10"/>
   <text class="terminal" x="437" y="65">TO</text>
   <rect x="385" y="113" width="78" height="32"/>
   <rect x="383" y="111" width="78" height="32" class="nonterminal"/>
   <text class="nonterminal" x="393" y="131">new_role</text>
   <path class="line"
         d="m17 61 h2 m0 0 h10 m92 0 h10 m0 0 h10 m74 0 h10 m0 0 h10 m40 0 h10 m20 0 h10 m72 0 h10 m-112 0 l20 0 m-1 0 q-9 0 -9 -10 l0 -24 q0 -10 10 -10 m92 44 l20 0 m-20 0 q10 0 10 -10 l0 -24 q0 -10 -10 -10 m-92 0 h10 m24 0 h10 m0 0 h48 m20 44 h10 m40 0 h10 m2 0 l2 0 m2 0 l2 0 m2 0 l2 0 m-128 66 l2 0 m2 0 l2 0 m2 0 l2 0 m2 0 h10 m78 0 h10 m3 0 h-3"/>
   <polygon points="481 127 489 123 489 131"/>
   <polygon points="481 127 473 123 473 131"/>
</svg>
