<svg xmlns="http://www.w3.org/2000/svg" width="563" height="147">
   <polygon points="9 61 1 57 1 65"/>
   <polygon points="17 61 9 57 9 65"/>
   <rect x="31" y="47" width="80" height="32"/>
   <rect x="29" y="45" width="80" height="32" class="nonterminal"/>
   <text class="nonterminal" x="39" y="65">cte_ident</text>
   <rect x="131" y="47" width="26" height="32" rx="10"/>
   <rect x="129"
         y="45"
         width="26"
         height="32"
         class="terminal"
         rx="10"/>
   <text class="terminal" x="139" y="65">(</text>
   <rect x="197" y="47" width="78" height="32"/>
   <rect x="195" y="45" width="78" height="32" class="nonterminal"/>
   <text class="nonterminal" x="205" y="65">col_ident</text>
   <rect x="295" y="47" width="74" height="32"/>
   <rect x="293" y="45" width="74" height="32" class="nonterminal"/>
   <text class="nonterminal" x="303" y="65">col_type</text>
   <rect x="197" y="3" width="24" height="32" rx="10"/>
   <rect x="195"
         y="1"
         width="24"
         height="32"
         class="terminal"
         rx="10"/>
   <text class="terminal" x="205" y="21">,</text>
   <rect x="409" y="47" width="26" height="32" rx="10"/>
   <rect x="407"
         y="45"
         width="26"
         height="32"
         class="terminal"
         rx="10"/>
   <text class="terminal" x="417" y="65">)</text>
   <rect x="455" y="47" width="40" height="32" rx="10"/>
   <rect x="453"
         y="45"
         width="40"
         height="32"
         class="terminal"
         rx="10"/>
   <text class="terminal" x="463" y="65">AS</text>
   <rect x="515" y="47" width="26" height="32" rx="10"/>
   <rect x="513"
         y="45"
         width="26"
         height="32"
         class="terminal"
         rx="10"/>
   <text class="terminal" x="523" y="65">(</text>
   <rect x="393" y="113" width="96" height="32"/>
   <rect x="391" y="111" width="96" height="32" class="nonterminal"/>
   <text class="nonterminal" x="401" y="131">select_stmt</text>
   <rect x="509" y="113" width="26" height="32" rx="10"/>
   <rect x="507"
         y="111"
         width="26"
         height="32"
         class="terminal"
         rx="10"/>
   <text class="terminal" x="517" y="131">)</text>
   <path class="line"
         d="m17 61 h2 m0 0 h10 m80 0 h10 m0 0 h10 m26 0 h10 m20 0 h10 m78 0 h10 m0 0 h10 m74 0 h10 m-212 0 l20 0 m-1 0 q-9 0 -9 -10 l0 -24 q0 -10 10 -10 m192 44 l20 0 m-20 0 q10 0 10 -10 l0 -24 q0 -10 -10 -10 m-192 0 h10 m24 0 h10 m0 0 h148 m20 44 h10 m26 0 h10 m0 0 h10 m40 0 h10 m0 0 h10 m26 0 h10 m2 0 l2 0 m2 0 l2 0 m2 0 l2 0 m-192 66 l2 0 m2 0 l2 0 m2 0 l2 0 m2 0 h10 m96 0 h10 m0 0 h10 m26 0 h10 m3 0 h-3"/>
   <polygon points="553 127 561 123 561 131"/>
   <polygon points="553 127 545 123 545 131"/>
</svg>
