<svg xmlns="http://www.w3.org/2000/svg" width="397" height="169">
   <polygon points="9 17 1 13 1 21"/>
   <polygon points="17 17 9 13 9 21"/>
   <rect x="51" y="3" width="50" height="32" rx="10"/>
   <rect x="49"
         y="1"
         width="50"
         height="32"
         class="terminal"
         rx="10"/>
   <text class="terminal" x="59" y="21">SIZE</text>
   <rect x="51" y="47" width="162" height="32" rx="10"/>
   <rect x="49"
         y="45"
         width="162"
         height="32"
         class="terminal"
         rx="10"/>
   <text class="terminal" x="59" y="65">AVAILABILITY ZONE</text>
   <rect x="51" y="91" width="210" height="32" rx="10"/>
   <rect x="49"
         y="89"
         width="210"
         height="32"
         class="terminal"
         rx="10"/>
   <text class="terminal" x="59" y="109">INTROSPECTION INTERVAL</text>
   <rect x="51" y="135" width="224" height="32" rx="10"/>
   <rect x="49"
         y="133"
         width="224"
         height="32"
         class="terminal"
         rx="10"/>
   <text class="terminal" x="59" y="153">INTROSPECTION DEBUGGING</text>
   <rect x="315" y="3" width="54" height="32"/>
   <rect x="313" y="1" width="54" height="32" class="nonterminal"/>
   <text class="nonterminal" x="323" y="21">value</text>
   <path class="line"
         d="m17 17 h2 m20 0 h10 m50 0 h10 m0 0 h174 m-264 0 h20 m244 0 h20 m-284 0 q10 0 10 10 m264 0 q0 -10 10 -10 m-274 10 v24 m264 0 v-24 m-264 24 q0 10 10 10 m244 0 q10 0 10 -10 m-254 10 h10 m162 0 h10 m0 0 h62 m-254 -10 v20 m264 0 v-20 m-264 20 v24 m264 0 v-24 m-264 24 q0 10 10 10 m244 0 q10 0 10 -10 m-254 10 h10 m210 0 h10 m0 0 h14 m-254 -10 v20 m264 0 v-20 m-264 20 v24 m264 0 v-24 m-264 24 q0 10 10 10 m244 0 q10 0 10 -10 m-254 10 h10 m224 0 h10 m20 -132 h10 m54 0 h10 m3 0 h-3"/>
   <polygon points="387 17 395 13 395 21"/>
   <polygon points="387 17 379 13 379 21"/>
</svg>
