<svg xmlns="http://www.w3.org/2000/svg" width="403" height="169">
   <polygon points="9 17 1 13 1 21"/>
   <polygon points="17 17 9 13 9 21"/>
   <rect x="51" y="3" width="50" height="32" rx="10"/>
   <rect x="49"
         y="1"
         width="50"
         height="32"
         class="terminal"
         rx="10"/>
   <text class="terminal" x="59" y="21">SIZE</text>
   <rect x="121" y="3" width="46" height="32"/>
   <rect x="119" y="1" width="46" height="32" class="nonterminal"/>
   <text class="nonterminal" x="129" y="21">size</text>
   <rect x="51" y="47" width="118" height="32" rx="10"/>
   <rect x="49"
         y="45"
         width="118"
         height="32"
         class="terminal"
         rx="10"/>
   <text class="terminal" x="59" y="65">AVAILABILITY</text>
   <rect x="189" y="47" width="58" height="32" rx="10"/>
   <rect x="187"
         y="45"
         width="58"
         height="32"
         class="terminal"
         rx="10"/>
   <text class="terminal" x="197" y="65">ZONE</text>
   <rect x="267" y="47" width="34" height="32"/>
   <rect x="265" y="45" width="34" height="32" class="nonterminal"/>
   <text class="nonterminal" x="275" y="65">az</text>
   <rect x="51" y="135" width="80" height="32" rx="10"/>
   <rect x="49"
         y="133"
         width="80"
         height="32"
         class="terminal"
         rx="10"/>
   <text class="terminal" x="59" y="153">REMOTE</text>
   <rect x="151" y="135" width="26" height="32" rx="10"/>
   <rect x="149"
         y="133"
         width="26"
         height="32"
         class="terminal"
         rx="10"/>
   <text class="terminal" x="159" y="153">(</text>
   <rect x="217" y="135" width="72" height="32"/>
   <rect x="215" y="133" width="72" height="32" class="nonterminal"/>
   <text class="nonterminal" x="225" y="153">address</text>
   <rect x="217" y="91" width="24" height="32" rx="10"/>
   <rect x="215"
         y="89"
         width="24"
         height="32"
         class="terminal"
         rx="10"/>
   <text class="terminal" x="225" y="109">,</text>
   <rect x="329" y="135" width="26" height="32" rx="10"/>
   <rect x="327"
         y="133"
         width="26"
         height="32"
         class="terminal"
         rx="10"/>
   <text class="terminal" x="337" y="153">)</text>
   <path class="line"
         d="m17 17 h2 m20 0 h10 m50 0 h10 m0 0 h10 m46 0 h10 m0 0 h188 m-344 0 h20 m324 0 h20 m-364 0 q10 0 10 10 m344 0 q0 -10 10 -10 m-354 10 v24 m344 0 v-24 m-344 24 q0 10 10 10 m324 0 q10 0 10 -10 m-334 10 h10 m118 0 h10 m0 0 h10 m58 0 h10 m0 0 h10 m34 0 h10 m0 0 h54 m-334 -10 v20 m344 0 v-20 m-344 20 v68 m344 0 v-68 m-344 68 q0 10 10 10 m324 0 q10 0 10 -10 m-334 10 h10 m80 0 h10 m0 0 h10 m26 0 h10 m20 0 h10 m72 0 h10 m-112 0 l20 0 m-1 0 q-9 0 -9 -10 l0 -24 q0 -10 10 -10 m92 44 l20 0 m-20 0 q10 0 10 -10 l0 -24 q0 -10 -10 -10 m-92 0 h10 m24 0 h10 m0 0 h48 m20 44 h10 m26 0 h10 m23 -132 h-3"/>
   <polygon points="393 17 401 13 401 21"/>
   <polygon points="393 17 385 13 385 21"/>
</svg>
