<svg xmlns="http://www.w3.org/2000/svg" width="273" height="37">
   <polygon points="9 17 1 13 1 21"/>
   <polygon points="17 17 9 13 9 21"/>
   <rect x="31" y="3" width="64" height="32" rx="10"/>
   <rect x="29"
         y="1"
         width="64"
         height="32"
         class="terminal"
         rx="10"/>
   <text class="terminal" x="39" y="21">RESET</text>
   <rect x="115" y="3" width="130" height="32"/>
   <rect x="113" y="1" width="130" height="32" class="nonterminal"/>
   <text class="nonterminal" x="123" y="21">parameter_name</text>
   <path class="line"
         d="m17 17 h2 m0 0 h10 m64 0 h10 m0 0 h10 m130 0 h10 m3 0 h-3"/>
   <polygon points="263 17 271 13 271 21"/>
   <polygon points="263 17 255 13 255 21"/>
</svg>
