<svg xmlns="http://www.w3.org/2000/svg" width="339" height="179">
   <polygon points="11 17 3 13 3 21"/>
   <polygon points="19 17 11 13 11 21"/>
   <rect x="33" y="3" width="78" height="32" rx="10"/>
   <rect x="31"
         y="1"
         width="78"
         height="32"
         class="terminal"
         rx="10"/>
   <text class="terminal" x="41" y="21">REVOKE</text>
   <rect x="131" y="3" width="88" height="32"/>
   <rect x="129" y="1" width="88" height="32" class="nonterminal"/>
   <text class="nonterminal" x="139" y="21">role_name</text>
   <rect x="239" y="3" width="60" height="32" rx="10"/>
   <rect x="237"
         y="1"
         width="60"
         height="32"
         class="terminal"
         rx="10"/>
   <text class="terminal" x="247" y="21">FROM</text>
   <rect x="65" y="145" width="70" height="32" rx="10"/>
   <rect x="63"
         y="143"
         width="70"
         height="32"
         class="terminal"
         rx="10"/>
   <text class="terminal" x="73" y="163">GROUP</text>
   <rect x="175" y="113" width="116" height="32"/>
   <rect x="173" y="111" width="116" height="32" class="nonterminal"/>
   <text class="nonterminal" x="183" y="131">member_name</text>
   <rect x="45" y="69" width="24" height="32" rx="10"/>
   <rect x="43"
         y="67"
         width="24"
         height="32"
         class="terminal"
         rx="10"/>
   <text class="terminal" x="53" y="87">,</text>
   <path class="line"
         d="m19 17 h2 m0 0 h10 m78 0 h10 m0 0 h10 m88 0 h10 m0 0 h10 m60 0 h10 m2 0 l2 0 m2 0 l2 0 m2 0 l2 0 m-318 110 l2 0 m2 0 l2 0 m2 0 l2 0 m42 0 h10 m0 0 h80 m-110 0 h20 m90 0 h20 m-130 0 q10 0 10 10 m110 0 q0 -10 10 -10 m-120 10 v12 m110 0 v-12 m-110 12 q0 10 10 10 m90 0 q10 0 10 -10 m-100 10 h10 m70 0 h10 m20 -32 h10 m116 0 h10 m-286 0 l20 0 m-1 0 q-9 0 -9 -10 l0 -24 q0 -10 10 -10 m266 44 l20 0 m-20 0 q10 0 10 -10 l0 -24 q0 -10 -10 -10 m-266 0 h10 m24 0 h10 m0 0 h222 m23 44 h-3"/>
   <polygon points="329 127 337 123 337 131"/>
   <polygon points="329 127 321 123 321 131"/>
</svg>
