<svg xmlns="http://www.w3.org/2000/svg" width="809" height="257">
   <polygon points="9 17 1 13 1 21"/>
   <polygon points="17 17 9 13 9 21"/>
   <rect x="51" y="3" width="66" height="32" rx="10"/>
   <rect x="49"
         y="1"
         width="66"
         height="32"
         class="terminal"
         rx="10"/>
   <text class="terminal" x="59" y="21">REGEX</text>
   <rect x="137" y="3" width="56" height="32"/>
   <rect x="135" y="1" width="56" height="32" class="nonterminal"/>
   <text class="nonterminal" x="145" y="21">regex</text>
   <rect x="51" y="91" width="92" height="32" rx="10"/>
   <rect x="49"
         y="89"
         width="92"
         height="32"
         class="terminal"
         rx="10"/>
   <text class="terminal" x="59" y="109">CSV WITH</text>
   <rect x="183" y="91" width="78" height="32" rx="10"/>
   <rect x="181"
         y="89"
         width="78"
         height="32"
         class="terminal"
         rx="10"/>
   <text class="terminal" x="191" y="109">HEADER</text>
   <rect x="281" y="91" width="26" height="32" rx="10"/>
   <rect x="279"
         y="89"
         width="26"
         height="32"
         class="terminal"
         rx="10"/>
   <text class="terminal" x="289" y="109">(</text>
   <rect x="347" y="91" width="82" height="32"/>
   <rect x="345" y="89" width="82" height="32" class="nonterminal"/>
   <text class="nonterminal" x="355" y="109">col_name</text>
   <rect x="347" y="47" width="24" height="32" rx="10"/>
   <rect x="345"
         y="45"
         width="24"
         height="32"
         class="terminal"
         rx="10"/>
   <text class="terminal" x="355" y="65">,</text>
   <rect x="469" y="91" width="26" height="32" rx="10"/>
   <rect x="467"
         y="89"
         width="26"
         height="32"
         class="terminal"
         rx="10"/>
   <text class="terminal" x="477" y="109">)</text>
   <rect x="183" y="135" width="28" height="32"/>
   <rect x="181" y="133" width="28" height="32" class="nonterminal"/>
   <text class="nonterminal" x="191" y="153">n</text>
   <rect x="231" y="135" width="92" height="32" rx="10"/>
   <rect x="229"
         y="133"
         width="92"
         height="32"
         class="terminal"
         rx="10"/>
   <text class="terminal" x="239" y="153">COLUMNS</text>
   <rect x="555" y="123" width="118" height="32" rx="10"/>
   <rect x="553"
         y="121"
         width="118"
         height="32"
         class="terminal"
         rx="10"/>
   <text class="terminal" x="563" y="141">DELIMITED BY</text>
   <rect x="693" y="123" width="48" height="32"/>
   <rect x="691" y="121" width="48" height="32" class="nonterminal"/>
   <text class="nonterminal" x="701" y="141">char</text>
   <rect x="51" y="179" width="56" height="32" rx="10"/>
   <rect x="49"
         y="177"
         width="56"
         height="32"
         class="terminal"
         rx="10"/>
   <text class="terminal" x="59" y="197">TEXT</text>
   <rect x="51" y="223" width="66" height="32" rx="10"/>
   <rect x="49"
         y="221"
         width="66"
         height="32"
         class="terminal"
         rx="10"/>
   <text class="terminal" x="59" y="241">BYTES</text>
   <path class="line"
         d="m17 17 h2 m20 0 h10 m66 0 h10 m0 0 h10 m56 0 h10 m0 0 h568 m-750 0 h20 m730 0 h20 m-770 0 q10 0 10 10 m750 0 q0 -10 10 -10 m-760 10 v68 m750 0 v-68 m-750 68 q0 10 10 10 m730 0 q10 0 10 -10 m-740 10 h10 m92 0 h10 m20 0 h10 m78 0 h10 m0 0 h10 m26 0 h10 m20 0 h10 m82 0 h10 m-122 0 l20 0 m-1 0 q-9 0 -9 -10 l0 -24 q0 -10 10 -10 m102 44 l20 0 m-20 0 q10 0 10 -10 l0 -24 q0 -10 -10 -10 m-102 0 h10 m24 0 h10 m0 0 h58 m20 44 h10 m26 0 h10 m-352 0 h20 m332 0 h20 m-372 0 q10 0 10 10 m352 0 q0 -10 10 -10 m-362 10 v24 m352 0 v-24 m-352 24 q0 10 10 10 m332 0 q10 0 10 -10 m-342 10 h10 m28 0 h10 m0 0 h10 m92 0 h10 m0 0 h172 m40 -44 h10 m0 0 h196 m-226 0 h20 m206 0 h20 m-246 0 q10 0 10 10 m226 0 q0 -10 10 -10 m-236 10 v12 m226 0 v-12 m-226 12 q0 10 10 10 m206 0 q10 0 10 -10 m-216 10 h10 m118 0 h10 m0 0 h10 m48 0 h10 m-720 -42 v20 m750 0 v-20 m-750 20 v68 m750 0 v-68 m-750 68 q0 10 10 10 m730 0 q10 0 10 -10 m-740 10 h10 m56 0 h10 m0 0 h654 m-740 -10 v20 m750 0 v-20 m-750 20 v24 m750 0 v-24 m-750 24 q0 10 10 10 m730 0 q10 0 10 -10 m-740 10 h10 m66 0 h10 m0 0 h644 m23 -220 h-3"/>
   <polygon points="799 17 807 13 807 21"/>
   <polygon points="799 17 791 13 791 21"/>
</svg>
