<svg xmlns="http://www.w3.org/2000/svg" width="849" height="279">
   <polygon points="9 17 1 13 1 21"/>
   <polygon points="17 17 9 13 9 21"/>
   <rect x="51" y="3" width="66" height="32" rx="10"/>
   <rect x="49"
         y="1"
         width="66"
         height="32"
         class="terminal"
         rx="10"/>
   <text class="terminal" x="59" y="21">REGEX</text>
   <rect x="137" y="3" width="56" height="32"/>
   <rect x="135" y="1" width="56" height="32" class="nonterminal"/>
   <text class="nonterminal" x="145" y="21">regex</text>
   <rect x="51" y="91" width="92" height="32" rx="10"/>
   <rect x="49"
         y="89"
         width="92"
         height="32"
         class="terminal"
         rx="10"/>
   <text class="terminal" x="59" y="109">CSV WITH</text>
   <rect x="183" y="91" width="78" height="32" rx="10"/>
   <rect x="181"
         y="89"
         width="78"
         height="32"
         class="terminal"
         rx="10"/>
   <text class="terminal" x="191" y="109">HEADER</text>
   <rect x="301" y="91" width="26" height="32" rx="10"/>
   <rect x="299"
         y="89"
         width="26"
         height="32"
         class="terminal"
         rx="10"/>
   <text class="terminal" x="309" y="109">(</text>
   <rect x="367" y="91" width="82" height="32"/>
   <rect x="365" y="89" width="82" height="32" class="nonterminal"/>
   <text class="nonterminal" x="375" y="109">col_name</text>
   <rect x="367" y="47" width="24" height="32" rx="10"/>
   <rect x="365"
         y="45"
         width="24"
         height="32"
         class="terminal"
         rx="10"/>
   <text class="terminal" x="375" y="65">,</text>
   <rect x="489" y="91" width="26" height="32" rx="10"/>
   <rect x="487"
         y="89"
         width="26"
         height="32"
         class="terminal"
         rx="10"/>
   <text class="terminal" x="497" y="109">)</text>
   <rect x="183" y="157" width="28" height="32"/>
   <rect x="181" y="155" width="28" height="32" class="nonterminal"/>
   <text class="nonterminal" x="191" y="175">n</text>
   <rect x="231" y="157" width="92" height="32" rx="10"/>
   <rect x="229"
         y="155"
         width="92"
         height="32"
         class="terminal"
         rx="10"/>
   <text class="terminal" x="239" y="175">COLUMNS</text>
   <rect x="595" y="123" width="118" height="32" rx="10"/>
   <rect x="593"
         y="121"
         width="118"
         height="32"
         class="terminal"
         rx="10"/>
   <text class="terminal" x="603" y="141">DELIMITED BY</text>
   <rect x="733" y="123" width="48" height="32"/>
   <rect x="731" y="121" width="48" height="32" class="nonterminal"/>
   <text class="nonterminal" x="741" y="141">char</text>
   <rect x="51" y="201" width="56" height="32" rx="10"/>
   <rect x="49"
         y="199"
         width="56"
         height="32"
         class="terminal"
         rx="10"/>
   <text class="terminal" x="59" y="219">TEXT</text>
   <rect x="51" y="245" width="66" height="32" rx="10"/>
   <rect x="49"
         y="243"
         width="66"
         height="32"
         class="terminal"
         rx="10"/>
   <text class="terminal" x="59" y="263">BYTES</text>
   <path class="line"
         d="m17 17 h2 m20 0 h10 m66 0 h10 m0 0 h10 m56 0 h10 m0 0 h608 m-790 0 h20 m770 0 h20 m-810 0 q10 0 10 10 m790 0 q0 -10 10 -10 m-800 10 v68 m790 0 v-68 m-790 68 q0 10 10 10 m770 0 q10 0 10 -10 m-780 10 h10 m92 0 h10 m20 0 h10 m78 0 h10 m20 0 h10 m26 0 h10 m20 0 h10 m82 0 h10 m-122 0 l20 0 m-1 0 q-9 0 -9 -10 l0 -24 q0 -10 10 -10 m102 44 l20 0 m-20 0 q10 0 10 -10 l0 -24 q0 -10 -10 -10 m-102 0 h10 m24 0 h10 m0 0 h58 m20 44 h10 m26 0 h10 m-254 0 h20 m234 0 h20 m-274 0 q10 0 10 10 m254 0 q0 -10 10 -10 m-264 10 v14 m254 0 v-14 m-254 14 q0 10 10 10 m234 0 q10 0 10 -10 m-244 10 h10 m0 0 h224 m-372 -34 h20 m372 0 h20 m-412 0 q10 0 10 10 m392 0 q0 -10 10 -10 m-402 10 v46 m392 0 v-46 m-392 46 q0 10 10 10 m372 0 q10 0 10 -10 m-382 10 h10 m28 0 h10 m0 0 h10 m92 0 h10 m0 0 h212 m40 -66 h10 m0 0 h196 m-226 0 h20 m206 0 h20 m-246 0 q10 0 10 10 m226 0 q0 -10 10 -10 m-236 10 v12 m226 0 v-12 m-226 12 q0 10 10 10 m206 0 q10 0 10 -10 m-216 10 h10 m118 0 h10 m0 0 h10 m48 0 h10 m-760 -42 v20 m790 0 v-20 m-790 20 v90 m790 0 v-90 m-790 90 q0 10 10 10 m770 0 q10 0 10 -10 m-780 10 h10 m56 0 h10 m0 0 h694 m-780 -10 v20 m790 0 v-20 m-790 20 v24 m790 0 v-24 m-790 24 q0 10 10 10 m770 0 q10 0 10 -10 m-780 10 h10 m66 0 h10 m0 0 h684 m23 -242 h-3"/>
   <polygon points="839 17 847 13 847 21"/>
   <polygon points="839 17 831 13 831 21"/>
</svg>
