<svg xmlns="http://www.w3.org/2000/svg" width="395" height="81">
   <polygon points="9 17 1 13 1 21"/>
   <polygon points="17 17 9 13 9 21"/>
   <rect x="31" y="3" width="80" height="32" rx="10"/>
   <rect x="29"
         y="1"
         width="80"
         height="32"
         class="terminal"
         rx="10"/>
   <text class="terminal" x="39" y="21">SCHEMA</text>
   <rect x="151" y="3" width="48" height="32" rx="10"/>
   <rect x="149"
         y="1"
         width="48"
         height="32"
         class="terminal"
         rx="10"/>
   <text class="terminal" x="159" y="21">FILE</text>
   <rect x="219" y="3" width="128" height="32"/>
   <rect x="217" y="1" width="128" height="32" class="nonterminal"/>
   <text class="nonterminal" x="227" y="21">schema_file_path</text>
   <rect x="151" y="47" width="108" height="32"/>
   <rect x="149" y="45" width="108" height="32" class="nonterminal"/>
   <text class="nonterminal" x="159" y="65">inline_schema</text>
   <path class="line"
         d="m17 17 h2 m0 0 h10 m80 0 h10 m20 0 h10 m48 0 h10 m0 0 h10 m128 0 h10 m-236 0 h20 m216 0 h20 m-256 0 q10 0 10 10 m236 0 q0 -10 10 -10 m-246 10 v24 m236 0 v-24 m-236 24 q0 10 10 10 m216 0 q10 0 10 -10 m-226 10 h10 m108 0 h10 m0 0 h88 m23 -44 h-3"/>
   <polygon points="385 17 393 13 393 21"/>
   <polygon points="385 17 377 13 377 21"/>
</svg>
