<svg xmlns="http://www.w3.org/2000/svg" width="295" height="125">
   <polygon points="9 17 1 13 1 21"/>
   <polygon points="17 17 9 13 9 21"/>
   <rect x="51" y="3" width="128" height="32"/>
   <rect x="49" y="1" width="128" height="32" class="nonterminal"/>
   <text class="nonterminal" x="59" y="21">select_with_ctes</text>
   <rect x="51" y="47" width="196" height="32"/>
   <rect x="49" y="45" width="196" height="32" class="nonterminal"/>
   <text class="nonterminal" x="59" y="65">select_with_recursive_ctes</text>
   <rect x="51" y="91" width="144" height="32"/>
   <rect x="49" y="89" width="144" height="32" class="nonterminal"/>
   <text class="nonterminal" x="59" y="109">simple_select_stmt</text>
   <path class="line"
         d="m17 17 h2 m20 0 h10 m128 0 h10 m0 0 h68 m-236 0 h20 m216 0 h20 m-256 0 q10 0 10 10 m236 0 q0 -10 10 -10 m-246 10 v24 m236 0 v-24 m-236 24 q0 10 10 10 m216 0 q10 0 10 -10 m-226 10 h10 m196 0 h10 m-226 -10 v20 m236 0 v-20 m-236 20 v24 m236 0 v-24 m-236 24 q0 10 10 10 m216 0 q10 0 10 -10 m-226 10 h10 m144 0 h10 m0 0 h52 m23 -88 h-3"/>
   <polygon points="285 17 293 13 293 21"/>
   <polygon points="285 17 277 13 277 21"/>
</svg>
