<svg xmlns="http://www.w3.org/2000/svg" width="705" height="1473">
   <polygon points="9 17 1 13 1 21"/>
   <polygon points="17 17 9 13 9 21"/>
   <rect x="31" y="3" width="58" height="32" rx="10"/>
   <rect x="29"
         y="1"
         width="58"
         height="32"
         class="terminal"
         rx="10"/>
   <text class="terminal" x="39" y="21">WITH</text>
   <rect x="45" y="157" width="80" height="32"/>
   <rect x="43" y="155" width="80" height="32" class="nonterminal"/>
   <text class="nonterminal" x="53" y="175">cte_ident</text>
   <rect x="165" y="157" width="26" height="32" rx="10"/>
   <rect x="163"
         y="155"
         width="26"
         height="32"
         class="terminal"
         rx="10"/>
   <text class="terminal" x="173" y="175">(</text>
   <rect x="231" y="157" width="78" height="32"/>
   <rect x="229" y="155" width="78" height="32" class="nonterminal"/>
   <text class="nonterminal" x="239" y="175">col_ident</text>
   <rect x="231" y="113" width="24" height="32" rx="10"/>
   <rect x="229"
         y="111"
         width="24"
         height="32"
         class="terminal"
         rx="10"/>
   <text class="terminal" x="239" y="131">,</text>
   <rect x="349" y="157" width="26" height="32" rx="10"/>
   <rect x="347"
         y="155"
         width="26"
         height="32"
         class="terminal"
         rx="10"/>
   <text class="terminal" x="357" y="175">)</text>
   <rect x="415" y="157" width="40" height="32" rx="10"/>
   <rect x="413"
         y="155"
         width="40"
         height="32"
         class="terminal"
         rx="10"/>
   <text class="terminal" x="423" y="175">AS</text>
   <rect x="475" y="157" width="26" height="32" rx="10"/>
   <rect x="473"
         y="155"
         width="26"
         height="32"
         class="terminal"
         rx="10"/>
   <text class="terminal" x="483" y="175">(</text>
   <rect x="521" y="157" width="96" height="32"/>
   <rect x="519" y="155" width="96" height="32" class="nonterminal"/>
   <text class="nonterminal" x="529" y="175">select_stmt</text>
   <rect x="637" y="157" width="26" height="32" rx="10"/>
   <rect x="635"
         y="155"
         width="26"
         height="32"
         class="terminal"
         rx="10"/>
   <text class="terminal" x="645" y="175">)</text>
   <rect x="45" y="69" width="24" height="32" rx="10"/>
   <rect x="43"
         y="67"
         width="24"
         height="32"
         class="terminal"
         rx="10"/>
   <text class="terminal" x="53" y="87">,</text>
   <rect x="86" y="239" width="74" height="32" rx="10"/>
   <rect x="84"
         y="237"
         width="74"
         height="32"
         class="terminal"
         rx="10"/>
   <text class="terminal" x="94" y="257">SELECT</text>
   <rect x="200" y="271" width="46" height="32" rx="10"/>
   <rect x="198"
         y="269"
         width="46"
         height="32"
         class="terminal"
         rx="10"/>
   <text class="terminal" x="208" y="289">ALL</text>
   <rect x="200" y="359" width="86" height="32" rx="10"/>
   <rect x="198"
         y="357"
         width="86"
         height="32"
         class="terminal"
         rx="10"/>
   <text class="terminal" x="208" y="377">DISTINCT</text>
   <rect x="326" y="359" width="40" height="32" rx="10"/>
   <rect x="324"
         y="357"
         width="40"
         height="32"
         class="terminal"
         rx="10"/>
   <text class="terminal" x="334" y="377">ON</text>
   <rect x="386" y="359" width="26" height="32" rx="10"/>
   <rect x="384"
         y="357"
         width="26"
         height="32"
         class="terminal"
         rx="10"/>
   <text class="terminal" x="394" y="377">(</text>
   <rect x="452" y="359" width="64" height="32"/>
   <rect x="450" y="357" width="64" height="32" class="nonterminal"/>
   <text class="nonterminal" x="460" y="377">col_ref</text>
   <rect x="452" y="315" width="24" height="32" rx="10"/>
   <rect x="450"
         y="313"
         width="24"
         height="32"
         class="terminal"
         rx="10"/>
   <text class="terminal" x="460" y="333">,</text>
   <rect x="556" y="359" width="26" height="32" rx="10"/>
   <rect x="554"
         y="357"
         width="26"
         height="32"
         class="terminal"
         rx="10"/>
   <text class="terminal" x="564" y="377">)</text>
   <rect x="102" y="485" width="98" height="32"/>
   <rect x="100" y="483" width="98" height="32" class="nonterminal"/>
   <text class="nonterminal" x="110" y="503">target_elem</text>
   <rect x="102" y="441" width="24" height="32" rx="10"/>
   <rect x="100"
         y="439"
         width="24"
         height="32"
         class="terminal"
         rx="10"/>
   <text class="terminal" x="110" y="459">,</text>
   <rect x="260" y="485" width="60" height="32" rx="10"/>
   <rect x="258"
         y="483"
         width="60"
         height="32"
         class="terminal"
         rx="10"/>
   <text class="terminal" x="268" y="503">FROM</text>
   <rect x="360" y="485" width="88" height="32"/>
   <rect x="358" y="483" width="88" height="32" class="nonterminal"/>
   <text class="nonterminal" x="368" y="503">table_expr</text>
   <rect x="360" y="441" width="24" height="32" rx="10"/>
   <rect x="358"
         y="439"
         width="24"
         height="32"
         class="terminal"
         rx="10"/>
   <text class="terminal" x="368" y="459">,</text>
   <rect x="528" y="517" width="78" height="32"/>
   <rect x="526" y="515" width="78" height="32" class="nonterminal"/>
   <text class="nonterminal" x="536" y="535">join_expr</text>
   <rect x="128" y="659" width="70" height="32" rx="10"/>
   <rect x="126"
         y="657"
         width="70"
         height="32"
         class="terminal"
         rx="10"/>
   <text class="terminal" x="136" y="677">WHERE</text>
   <rect x="218" y="659" width="48" height="32"/>
   <rect x="216" y="657" width="48" height="32" class="nonterminal"/>
   <text class="nonterminal" x="226" y="677">expr</text>
   <rect x="326" y="627" width="70" height="32" rx="10"/>
   <rect x="324"
         y="625"
         width="70"
         height="32"
         class="terminal"
         rx="10"/>
   <text class="terminal" x="334" y="645">GROUP</text>
   <rect x="416" y="627" width="40" height="32" rx="10"/>
   <rect x="414"
         y="625"
         width="40"
         height="32"
         class="terminal"
         rx="10"/>
   <text class="terminal" x="424" y="645">BY</text>
   <rect x="496" y="627" width="64" height="32"/>
   <rect x="494" y="625" width="64" height="32" class="nonterminal"/>
   <text class="nonterminal" x="504" y="645">col_ref</text>
   <rect x="496" y="583" width="24" height="32" rx="10"/>
   <rect x="494"
         y="581"
         width="24"
         height="32"
         class="terminal"
         rx="10"/>
   <text class="terminal" x="504" y="601">,</text>
   <rect x="157" y="769" width="74" height="32" rx="10"/>
   <rect x="155"
         y="767"
         width="74"
         height="32"
         class="terminal"
         rx="10"/>
   <text class="terminal" x="165" y="787">OPTION</text>
   <rect x="251" y="769" width="26" height="32" rx="10"/>
   <rect x="249"
         y="767"
         width="26"
         height="32"
         class="terminal"
         rx="10"/>
   <text class="terminal" x="259" y="787">(</text>
   <rect x="317" y="769" width="62" height="32"/>
   <rect x="315" y="767" width="62" height="32" class="nonterminal"/>
   <text class="nonterminal" x="325" y="787">option</text>
   <rect x="399" y="769" width="28" height="32" rx="10"/>
   <rect x="397"
         y="767"
         width="28"
         height="32"
         class="terminal"
         rx="10"/>
   <text class="terminal" x="407" y="787">=</text>
   <rect x="447" y="769" width="38" height="32"/>
   <rect x="445" y="767" width="38" height="32" class="nonterminal"/>
   <text class="nonterminal" x="455" y="787">val</text>
   <rect x="317" y="725" width="24" height="32" rx="10"/>
   <rect x="315"
         y="723"
         width="24"
         height="32"
         class="terminal"
         rx="10"/>
   <text class="terminal" x="325" y="743">,</text>
   <rect x="525" y="769" width="26" height="32" rx="10"/>
   <rect x="523"
         y="767"
         width="26"
         height="32"
         class="terminal"
         rx="10"/>
   <text class="terminal" x="533" y="787">)</text>
   <rect x="282" y="867" width="76" height="32" rx="10"/>
   <rect x="280"
         y="865"
         width="76"
         height="32"
         class="terminal"
         rx="10"/>
   <text class="terminal" x="290" y="885">HAVING</text>
   <rect x="378" y="867" width="48" height="32"/>
   <rect x="376" y="865" width="48" height="32" class="nonterminal"/>
   <text class="nonterminal" x="386" y="885">expr</text>
   <rect x="169" y="977" width="68" height="32" rx="10"/>
   <rect x="167"
         y="975"
         width="68"
         height="32"
         class="terminal"
         rx="10"/>
   <text class="terminal" x="177" y="995">ORDER</text>
   <rect x="257" y="977" width="40" height="32" rx="10"/>
   <rect x="255"
         y="975"
         width="40"
         height="32"
         class="terminal"
         rx="10"/>
   <text class="terminal" x="265" y="995">BY</text>
   <rect x="337" y="977" width="64" height="32"/>
   <rect x="335" y="975" width="64" height="32" class="nonterminal"/>
   <text class="nonterminal" x="345" y="995">col_ref</text>
   <rect x="441" y="1009" width="50" height="32" rx="10"/>
   <rect x="439"
         y="1007"
         width="50"
         height="32"
         class="terminal"
         rx="10"/>
   <text class="terminal" x="449" y="1027">ASC</text>
   <rect x="441" y="1053" width="58" height="32" rx="10"/>
   <rect x="439"
         y="1051"
         width="58"
         height="32"
         class="terminal"
         rx="10"/>
   <text class="terminal" x="449" y="1071">DESC</text>
   <rect x="337" y="933" width="24" height="32" rx="10"/>
   <rect x="335"
         y="931"
         width="24"
         height="32"
         class="terminal"
         rx="10"/>
   <text class="terminal" x="345" y="951">,</text>
   <rect x="190" y="1151" width="58" height="32" rx="10"/>
   <rect x="188"
         y="1149"
         width="58"
         height="32"
         class="terminal"
         rx="10"/>
   <text class="terminal" x="198" y="1169">LIMIT</text>
   <rect x="268" y="1151" width="48" height="32"/>
   <rect x="266" y="1149" width="48" height="32" class="nonterminal"/>
   <text class="nonterminal" x="276" y="1169">expr</text>
   <rect x="376" y="1151" width="74" height="32" rx="10"/>
   <rect x="374"
         y="1149"
         width="74"
         height="32"
         class="terminal"
         rx="10"/>
   <text class="terminal" x="384" y="1169">OFFSET</text>
   <rect x="470" y="1151" width="48" height="32"/>
   <rect x="468" y="1149" width="48" height="32" class="nonterminal"/>
   <text class="nonterminal" x="478" y="1169">expr</text>
   <rect x="146" y="1233" width="66" height="32" rx="10"/>
   <rect x="144"
         y="1231"
         width="66"
         height="32"
         class="terminal"
         rx="10"/>
   <text class="terminal" x="154" y="1251">UNION</text>
   <rect x="146" y="1277" width="98" height="32" rx="10"/>
   <rect x="144"
         y="1275"
         width="98"
         height="32"
         class="terminal"
         rx="10"/>
   <text class="terminal" x="154" y="1295">INTERSECT</text>
   <rect x="146" y="1321" width="76" height="32" rx="10"/>
   <rect x="144"
         y="1319"
         width="76"
         height="32"
         class="terminal"
         rx="10"/>
   <text class="terminal" x="154" y="1339">EXCEPT</text>
   <rect x="304" y="1265" width="46" height="32" rx="10"/>
   <rect x="302"
         y="1263"
         width="46"
         height="32"
         class="terminal"
         rx="10"/>
   <text class="terminal" x="312" y="1283">ALL</text>
   <rect x="304" y="1309" width="86" height="32" rx="10"/>
   <rect x="302"
         y="1307"
         width="86"
         height="32"
         class="terminal"
         rx="10"/>
   <text class="terminal" x="312" y="1327">DISTINCT</text>
   <rect x="430" y="1233" width="152" height="32"/>
   <rect x="428"
         y="1231"
         width="152"
         height="32"
         class="nonterminal"/>
   <text class="nonterminal" x="438" y="1251">another_select_stmt</text>
   <rect x="185" y="1407" width="40" height="32" rx="10"/>
   <rect x="183"
         y="1405"
         width="40"
         height="32"
         class="terminal"
         rx="10"/>
   <text class="terminal" x="193" y="1425">AS</text>
   <rect x="245" y="1407" width="38" height="32" rx="10"/>
   <rect x="243"
         y="1405"
         width="38"
         height="32"
         class="terminal"
         rx="10"/>
   <text class="terminal" x="253" y="1425">OF</text>
   <rect x="323" y="1439" width="40" height="32" rx="10"/>
   <rect x="321"
         y="1437"
         width="40"
         height="32"
         class="terminal"
         rx="10"/>
   <text class="terminal" x="331" y="1457">AT</text>
   <rect x="383" y="1439" width="66" height="32" rx="10"/>
   <rect x="381"
         y="1437"
         width="66"
         height="32"
         class="terminal"
         rx="10"/>
   <text class="terminal" x="391" y="1457">LEAST</text>
   <rect x="489" y="1407" width="168" height="32"/>
   <rect x="487"
         y="1405"
         width="168"
         height="32"
         class="nonterminal"/>
   <text class="nonterminal" x="497" y="1425">timestamp_expression</text>
   <path class="line"
         d="m17 17 h2 m0 0 h10 m58 0 h10 m2 0 l2 0 m2 0 l2 0 m2 0 l2 0 m-108 154 l2 0 m2 0 l2 0 m2 0 l2 0 m22 0 h10 m80 0 h10 m20 0 h10 m26 0 h10 m20 0 h10 m78 0 h10 m-118 0 l20 0 m-1 0 q-9 0 -9 -10 l0 -24 q0 -10 10 -10 m98 44 l20 0 m-20 0 q10 0 10 -10 l0 -24 q0 -10 -10 -10 m-98 0 h10 m24 0 h10 m0 0 h54 m20 44 h10 m26 0 h10 m-250 0 h20 m230 0 h20 m-270 0 q10 0 10 10 m250 0 q0 -10 10 -10 m-260 10 v14 m250 0 v-14 m-250 14 q0 10 10 10 m230 0 q10 0 10 -10 m-240 10 h10 m0 0 h220 m20 -34 h10 m40 0 h10 m0 0 h10 m26 0 h10 m0 0 h10 m96 0 h10 m0 0 h10 m26 0 h10 m-658 0 l20 0 m-1 0 q-9 0 -9 -10 l0 -68 q0 -10 10 -10 m638 88 l20 0 m-20 0 q10 0 10 -10 l0 -68 q0 -10 -10 -10 m-638 0 h10 m24 0 h10 m0 0 h594 m22 88 l2 0 m2 0 l2 0 m2 0 l2 0 m-641 82 l2 0 m2 0 l2 0 m2 0 l2 0 m2 0 h10 m74 0 h10 m20 0 h10 m0 0 h412 m-442 0 h20 m422 0 h20 m-462 0 q10 0 10 10 m442 0 q0 -10 10 -10 m-452 10 v12 m442 0 v-12 m-442 12 q0 10 10 10 m422 0 q10 0 10 -10 m-432 10 h10 m46 0 h10 m0 0 h356 m-432 -10 v20 m442 0 v-20 m-442 20 v68 m442 0 v-68 m-442 68 q0 10 10 10 m422 0 q10 0 10 -10 m-432 10 h10 m86 0 h10 m20 0 h10 m40 0 h10 m0 0 h10 m26 0 h10 m20 0 h10 m64 0 h10 m-104 0 l20 0 m-1 0 q-9 0 -9 -10 l0 -24 q0 -10 10 -10 m84 44 l20 0 m-20 0 q10 0 10 -10 l0 -24 q0 -10 -10 -10 m-84 0 h10 m24 0 h10 m0 0 h40 m20 44 h10 m26 0 h10 m-296 0 h20 m276 0 h20 m-316 0 q10 0 10 10 m296 0 q0 -10 10 -10 m-306 10 v14 m296 0 v-14 m-296 14 q0 10 10 10 m276 0 q10 0 10 -10 m-286 10 h10 m0 0 h266 m42 -154 l2 0 m2 0 l2 0 m2 0 l2 0 m-584 246 l2 0 m2 0 l2 0 m2 0 l2 0 m22 0 h10 m98 0 h10 m-138 0 l20 0 m-1 0 q-9 0 -9 -10 l0 -24 q0 -10 10 -10 m118 44 l20 0 m-20 0 q10 0 10 -10 l0 -24 q0 -10 -10 -10 m-118 0 h10 m24 0 h10 m0 0 h74 m40 44 h10 m60 0 h10 m20 0 h10 m88 0 h10 m-128 0 l20 0 m-1 0 q-9 0 -9 -10 l0 -24 q0 -10 10 -10 m108 44 l20 0 m-20 0 q10 0 10 -10 l0 -24 q0 -10 -10 -10 m-108 0 h10 m24 0 h10 m0 0 h64 m-228 44 h20 m228 0 h20 m-268 0 q10 0 10 10 m248 0 q0 -10 10 -10 m-258 10 v14 m248 0 v-14 m-248 14 q0 10 10 10 m228 0 q10 0 10 -10 m-238 10 h10 m0 0 h218 m40 -34 h10 m0 0 h88 m-118 0 h20 m98 0 h20 m-138 0 q10 0 10 10 m118 0 q0 -10 10 -10 m-128 10 v12 m118 0 v-12 m-118 12 q0 10 10 10 m98 0 q10 0 10 -10 m-108 10 h10 m78 0 h10 m22 -32 l2 0 m2 0 l2 0 m2 0 l2 0 m-562 142 l2 0 m2 0 l2 0 m2 0 l2 0 m22 0 h10 m0 0 h148 m-178 0 h20 m158 0 h20 m-198 0 q10 0 10 10 m178 0 q0 -10 10 -10 m-188 10 v12 m178 0 v-12 m-178 12 q0 10 10 10 m158 0 q10 0 10 -10 m-168 10 h10 m70 0 h10 m0 0 h10 m48 0 h10 m40 -32 h10 m70 0 h10 m0 0 h10 m40 0 h10 m20 0 h10 m64 0 h10 m-104 0 l20 0 m-1 0 q-9 0 -9 -10 l0 -24 q0 -10 10 -10 m84 44 l20 0 m-20 0 q10 0 10 -10 l0 -24 q0 -10 -10 -10 m-84 0 h10 m24 0 h10 m0 0 h40 m-274 44 h20 m274 0 h20 m-314 0 q10 0 10 10 m294 0 q0 -10 10 -10 m-304 10 v14 m294 0 v-14 m-294 14 q0 10 10 10 m274 0 q10 0 10 -10 m-284 10 h10 m0 0 h264 m22 -34 l2 0 m2 0 l2 0 m2 0 l2 0 m-507 142 l2 0 m2 0 l2 0 m2 0 l2 0 m22 0 h10 m74 0 h10 m0 0 h10 m26 0 h10 m20 0 h10 m62 0 h10 m0 0 h10 m28 0 h10 m0 0 h10 m38 0 h10 m-208 0 l20 0 m-1 0 q-9 0 -9 -10 l0 -24 q0 -10 10 -10 m188 44 l20 0 m-20 0 q10 0 10 -10 l0 -24 q0 -10 -10 -10 m-188 0 h10 m24 0 h10 m0 0 h144 m20 44 h10 m26 0 h10 m-434 0 h20 m414 0 h20 m-454 0 q10 0 10 10 m434 0 q0 -10 10 -10 m-444 10 v14 m434 0 v-14 m-434 14 q0 10 10 10 m414 0 q10 0 10 -10 m-424 10 h10 m0 0 h404 m22 -34 l2 0 m2 0 l2 0 m2 0 l2 0 m-353 66 l2 0 m2 0 l2 0 m2 0 l2 0 m22 0 h10 m0 0 h154 m-184 0 h20 m164 0 h20 m-204 0 q10 0 10 10 m184 0 q0 -10 10 -10 m-194 10 v12 m184 0 v-12 m-184 12 q0 10 10 10 m164 0 q10 0 10 -10 m-174 10 h10 m76 0 h10 m0 0 h10 m48 0 h10 m22 -32 l2 0 m2 0 l2 0 m2 0 l2 0 m-341 142 l2 0 m2 0 l2 0 m2 0 l2 0 m22 0 h10 m68 0 h10 m0 0 h10 m40 0 h10 m20 0 h10 m64 0 h10 m20 0 h10 m0 0 h68 m-98 0 h20 m78 0 h20 m-118 0 q10 0 10 10 m98 0 q0 -10 10 -10 m-108 10 v12 m98 0 v-12 m-98 12 q0 10 10 10 m78 0 q10 0 10 -10 m-88 10 h10 m50 0 h10 m0 0 h8 m-88 -10 v20 m98 0 v-20 m-98 20 v24 m98 0 v-24 m-98 24 q0 10 10 10 m78 0 q10 0 10 -10 m-88 10 h10 m58 0 h10 m-202 -76 l20 0 m-1 0 q-9 0 -9 -10 l0 -24 q0 -10 10 -10 m202 44 l20 0 m-20 0 q10 0 10 -10 l0 -24 q0 -10 -10 -10 m-202 0 h10 m24 0 h10 m0 0 h158 m-390 44 h20 m390 0 h20 m-430 0 q10 0 10 10 m410 0 q0 -10 10 -10 m-420 10 v90 m410 0 v-90 m-410 90 q0 10 10 10 m390 0 q10 0 10 -10 m-400 10 h10 m0 0 h380 m22 -110 l2 0 m2 0 l2 0 m2 0 l2 0 m-433 142 l2 0 m2 0 l2 0 m2 0 l2 0 m22 0 h10 m0 0 h136 m-166 0 h20 m146 0 h20 m-186 0 q10 0 10 10 m166 0 q0 -10 10 -10 m-176 10 v12 m166 0 v-12 m-166 12 q0 10 10 10 m146 0 q10 0 10 -10 m-156 10 h10 m58 0 h10 m0 0 h10 m48 0 h10 m40 -32 h10 m0 0 h152 m-182 0 h20 m162 0 h20 m-202 0 q10 0 10 10 m182 0 q0 -10 10 -10 m-192 10 v12 m182 0 v-12 m-182 12 q0 10 10 10 m162 0 q10 0 10 -10 m-172 10 h10 m74 0 h10 m0 0 h10 m48 0 h10 m22 -32 l2 0 m2 0 l2 0 m2 0 l2 0 m-476 82 l2 0 m2 0 l2 0 m2 0 l2 0 m22 0 h10 m0 0 h466 m-496 0 h20 m476 0 h20 m-516 0 q10 0 10 10 m496 0 q0 -10 10 -10 m-506 10 v12 m496 0 v-12 m-496 12 q0 10 10 10 m476 0 q10 0 10 -10 m-466 10 h10 m66 0 h10 m0 0 h32 m-138 0 h20 m118 0 h20 m-158 0 q10 0 10 10 m138 0 q0 -10 10 -10 m-148 10 v24 m138 0 v-24 m-138 24 q0 10 10 10 m118 0 q10 0 10 -10 m-128 10 h10 m98 0 h10 m-128 -10 v20 m138 0 v-20 m-138 20 v24 m138 0 v-24 m-138 24 q0 10 10 10 m118 0 q10 0 10 -10 m-128 10 h10 m76 0 h10 m0 0 h22 m40 -88 h10 m0 0 h96 m-126 0 h20 m106 0 h20 m-146 0 q10 0 10 10 m126 0 q0 -10 10 -10 m-136 10 v12 m126 0 v-12 m-126 12 q0 10 10 10 m106 0 q10 0 10 -10 m-116 10 h10 m46 0 h10 m0 0 h40 m-116 -10 v20 m126 0 v-20 m-126 20 v24 m126 0 v-24 m-126 24 q0 10 10 10 m106 0 q10 0 10 -10 m-116 10 h10 m86 0 h10 m20 -76 h10 m152 0 h10 m22 -32 l2 0 m2 0 l2 0 m2 0 l2 0 m-481 174 l2 0 m2 0 l2 0 m2 0 l2 0 m22 0 h10 m0 0 h482 m-512 0 h20 m492 0 h20 m-532 0 q10 0 10 10 m512 0 q0 -10 10 -10 m-522 10 v12 m512 0 v-12 m-512 12 q0 10 10 10 m492 0 q10 0 10 -10 m-502 10 h10 m40 0 h10 m0 0 h10 m38 0 h10 m20 0 h10 m0 0 h136 m-166 0 h20 m146 0 h20 m-186 0 q10 0 10 10 m166 0 q0 -10 10 -10 m-176 10 v12 m166 0 v-12 m-166 12 q0 10 10 10 m146 0 q10 0 10 -10 m-156 10 h10 m40 0 h10 m0 0 h10 m66 0 h10 m20 -32 h10 m168 0 h10 m23 -32 h-3"/>
   <polygon points="695 1389 703 1385 703 1393"/>
   <polygon points="695 1389 687 1385 687 1393"/>
</svg>
