<svg xmlns="http://www.w3.org/2000/svg" width="517" height="191">
   <polygon points="9 17 1 13 1 21"/>
   <polygon points="17 17 9 13 9 21"/>
   <rect x="31" y="3" width="66" height="32" rx="10"/>
   <rect x="29"
         y="1"
         width="66"
         height="32"
         class="terminal"
         rx="10"/>
   <text class="terminal" x="39" y="21">ALTER</text>
   <rect x="117" y="3" width="78" height="32" rx="10"/>
   <rect x="115"
         y="1"
         width="78"
         height="32"
         class="terminal"
         rx="10"/>
   <text class="terminal" x="125" y="21">SYSTEM</text>
   <rect x="215" y="3" width="46" height="32" rx="10"/>
   <rect x="213"
         y="1"
         width="46"
         height="32"
         class="terminal"
         rx="10"/>
   <text class="terminal" x="223" y="21">SET</text>
   <rect x="281" y="3" width="114" height="32"/>
   <rect x="279" y="1" width="114" height="32" class="nonterminal"/>
   <text class="nonterminal" x="289" y="21">variable_name</text>
   <rect x="435" y="3" width="40" height="32" rx="10"/>
   <rect x="433"
         y="1"
         width="40"
         height="32"
         class="terminal"
         rx="10"/>
   <text class="terminal" x="443" y="21">TO</text>
   <rect x="435" y="47" width="28" height="32" rx="10"/>
   <rect x="433"
         y="45"
         width="28"
         height="32"
         class="terminal"
         rx="10"/>
   <text class="terminal" x="443" y="65">=</text>
   <rect x="355" y="113" width="114" height="32"/>
   <rect x="353" y="111" width="114" height="32" class="nonterminal"/>
   <text class="nonterminal" x="363" y="131">variable_value</text>
   <rect x="355" y="157" width="84" height="32" rx="10"/>
   <rect x="353"
         y="155"
         width="84"
         height="32"
         class="terminal"
         rx="10"/>
   <text class="terminal" x="363" y="175">DEFAULT</text>
   <path class="line"
         d="m17 17 h2 m0 0 h10 m66 0 h10 m0 0 h10 m78 0 h10 m0 0 h10 m46 0 h10 m0 0 h10 m114 0 h10 m20 0 h10 m40 0 h10 m-80 0 h20 m60 0 h20 m-100 0 q10 0 10 10 m80 0 q0 -10 10 -10 m-90 10 v24 m80 0 v-24 m-80 24 q0 10 10 10 m60 0 q10 0 10 -10 m-70 10 h10 m28 0 h10 m0 0 h12 m22 -44 l2 0 m2 0 l2 0 m2 0 l2 0 m-204 110 l2 0 m2 0 l2 0 m2 0 l2 0 m22 0 h10 m114 0 h10 m-154 0 h20 m134 0 h20 m-174 0 q10 0 10 10 m154 0 q0 -10 10 -10 m-164 10 v24 m154 0 v-24 m-154 24 q0 10 10 10 m134 0 q10 0 10 -10 m-144 10 h10 m84 0 h10 m0 0 h30 m23 -44 h-3"/>
   <polygon points="507 127 515 123 515 131"/>
   <polygon points="507 127 499 123 499 131"/>
</svg>
