<svg xmlns="http://www.w3.org/2000/svg" width="567" height="113">
   <polygon points="9 17 1 13 1 21"/>
   <polygon points="17 17 9 13 9 21"/>
   <rect x="31" y="3" width="46" height="32" rx="10"/>
   <rect x="29"
         y="1"
         width="46"
         height="32"
         class="terminal"
         rx="10"/>
   <text class="terminal" x="39" y="21">SET</text>
   <rect x="117" y="35" width="82" height="32" rx="10"/>
   <rect x="115"
         y="33"
         width="82"
         height="32"
         class="terminal"
         rx="10"/>
   <text class="terminal" x="125" y="53">SESSION</text>
   <rect x="117" y="79" width="68" height="32" rx="10"/>
   <rect x="115"
         y="77"
         width="68"
         height="32"
         class="terminal"
         rx="10"/>
   <text class="terminal" x="125" y="97">LOCAL</text>
   <rect x="239" y="3" width="56" height="32"/>
   <rect x="237" y="1" width="56" height="32" class="nonterminal"/>
   <text class="nonterminal" x="247" y="21">name</text>
   <rect x="335" y="3" width="40" height="32" rx="10"/>
   <rect x="333"
         y="1"
         width="40"
         height="32"
         class="terminal"
         rx="10"/>
   <text class="terminal" x="343" y="21">TO</text>
   <rect x="335" y="47" width="28" height="32" rx="10"/>
   <rect x="333"
         y="45"
         width="28"
         height="32"
         class="terminal"
         rx="10"/>
   <text class="terminal" x="343" y="65">=</text>
   <rect x="435" y="3" width="54" height="32"/>
   <rect x="433" y="1" width="54" height="32" class="nonterminal"/>
   <text class="nonterminal" x="443" y="21">value</text>
   <rect x="435" y="47" width="84" height="32" rx="10"/>
   <rect x="433"
         y="45"
         width="84"
         height="32"
         class="terminal"
         rx="10"/>
   <text class="terminal" x="443" y="65">DEFAULT</text>
   <path class="line"
         d="m17 17 h2 m0 0 h10 m46 0 h10 m20 0 h10 m0 0 h92 m-122 0 h20 m102 0 h20 m-142 0 q10 0 10 10 m122 0 q0 -10 10 -10 m-132 10 v12 m122 0 v-12 m-122 12 q0 10 10 10 m102 0 q10 0 10 -10 m-112 10 h10 m82 0 h10 m-112 -10 v20 m122 0 v-20 m-122 20 v24 m122 0 v-24 m-122 24 q0 10 10 10 m102 0 q10 0 10 -10 m-112 10 h10 m68 0 h10 m0 0 h14 m20 -76 h10 m56 0 h10 m20 0 h10 m40 0 h10 m-80 0 h20 m60 0 h20 m-100 0 q10 0 10 10 m80 0 q0 -10 10 -10 m-90 10 v24 m80 0 v-24 m-80 24 q0 10 10 10 m60 0 q10 0 10 -10 m-70 10 h10 m28 0 h10 m0 0 h12 m40 -44 h10 m54 0 h10 m0 0 h30 m-124 0 h20 m104 0 h20 m-144 0 q10 0 10 10 m124 0 q0 -10 10 -10 m-134 10 v24 m124 0 v-24 m-124 24 q0 10 10 10 m104 0 q10 0 10 -10 m-114 10 h10 m84 0 h10 m23 -44 h-3"/>
   <polygon points="557 17 565 13 565 21"/>
   <polygon points="557 17 549 13 549 21"/>
</svg>
