<svg xmlns="http://www.w3.org/2000/svg" width="523" height="463">
   <polygon points="9 17 1 13 1 21"/>
   <polygon points="17 17 9 13 9 21"/>
   <rect x="31" y="3" width="64" height="32" rx="10"/>
   <rect x="29"
         y="1"
         width="64"
         height="32"
         class="terminal"
         rx="10"/>
   <text class="terminal" x="39" y="21">SHOW</text>
   <rect x="115" y="3" width="102" height="32" rx="10"/>
   <rect x="113"
         y="1"
         width="102"
         height="32"
         class="terminal"
         rx="10"/>
   <text class="terminal" x="123" y="21">PRIVILEGES</text>
   <rect x="257" y="35" width="40" height="32" rx="10"/>
   <rect x="255"
         y="33"
         width="40"
         height="32"
         class="terminal"
         rx="10"/>
   <text class="terminal" x="265" y="53">ON</text>
   <rect x="337" y="35" width="74" height="32" rx="10"/>
   <rect x="335"
         y="33"
         width="74"
         height="32"
         class="terminal"
         rx="10"/>
   <text class="terminal" x="345" y="53">TABLES</text>
   <rect x="337" y="79" width="66" height="32" rx="10"/>
   <rect x="335"
         y="77"
         width="66"
         height="32"
         class="terminal"
         rx="10"/>
   <text class="terminal" x="345" y="97">TYPES</text>
   <rect x="337" y="123" width="84" height="32" rx="10"/>
   <rect x="335"
         y="121"
         width="84"
         height="32"
         class="terminal"
         rx="10"/>
   <text class="terminal" x="345" y="141">SECRETS</text>
   <rect x="337" y="167" width="124" height="32" rx="10"/>
   <rect x="335"
         y="165"
         width="124"
         height="32"
         class="terminal"
         rx="10"/>
   <text class="terminal" x="345" y="185">CONNECTIONS</text>
   <rect x="337" y="211" width="106" height="32" rx="10"/>
   <rect x="335"
         y="209"
         width="106"
         height="32"
         class="terminal"
         rx="10"/>
   <text class="terminal" x="345" y="229">DATABASES</text>
   <rect x="337" y="255" width="90" height="32" rx="10"/>
   <rect x="335"
         y="253"
         width="90"
         height="32"
         class="terminal"
         rx="10"/>
   <text class="terminal" x="345" y="273">SCHEMAS</text>
   <rect x="337" y="299" width="94" height="32" rx="10"/>
   <rect x="335"
         y="297"
         width="94"
         height="32"
         class="terminal"
         rx="10"/>
   <text class="terminal" x="345" y="317">CLUSTERS</text>
   <rect x="337" y="343" width="78" height="32" rx="10"/>
   <rect x="335"
         y="341"
         width="78"
         height="32"
         class="terminal"
         rx="10"/>
   <text class="terminal" x="345" y="361">SYSTEM</text>
   <rect x="319" y="429" width="48" height="32" rx="10"/>
   <rect x="317"
         y="427"
         width="48"
         height="32"
         class="terminal"
         rx="10"/>
   <text class="terminal" x="327" y="447">FOR</text>
   <rect x="387" y="429" width="88" height="32"/>
   <rect x="385" y="427" width="88" height="32" class="nonterminal"/>
   <text class="nonterminal" x="395" y="447">role_name</text>
   <path class="line"
         d="m17 17 h2 m0 0 h10 m64 0 h10 m0 0 h10 m102 0 h10 m20 0 h10 m0 0 h234 m-264 0 h20 m244 0 h20 m-284 0 q10 0 10 10 m264 0 q0 -10 10 -10 m-274 10 v12 m264 0 v-12 m-264 12 q0 10 10 10 m244 0 q10 0 10 -10 m-254 10 h10 m40 0 h10 m20 0 h10 m74 0 h10 m0 0 h50 m-164 0 h20 m144 0 h20 m-184 0 q10 0 10 10 m164 0 q0 -10 10 -10 m-174 10 v24 m164 0 v-24 m-164 24 q0 10 10 10 m144 0 q10 0 10 -10 m-154 10 h10 m66 0 h10 m0 0 h58 m-154 -10 v20 m164 0 v-20 m-164 20 v24 m164 0 v-24 m-164 24 q0 10 10 10 m144 0 q10 0 10 -10 m-154 10 h10 m84 0 h10 m0 0 h40 m-154 -10 v20 m164 0 v-20 m-164 20 v24 m164 0 v-24 m-164 24 q0 10 10 10 m144 0 q10 0 10 -10 m-154 10 h10 m124 0 h10 m-154 -10 v20 m164 0 v-20 m-164 20 v24 m164 0 v-24 m-164 24 q0 10 10 10 m144 0 q10 0 10 -10 m-154 10 h10 m106 0 h10 m0 0 h18 m-154 -10 v20 m164 0 v-20 m-164 20 v24 m164 0 v-24 m-164 24 q0 10 10 10 m144 0 q10 0 10 -10 m-154 10 h10 m90 0 h10 m0 0 h34 m-154 -10 v20 m164 0 v-20 m-164 20 v24 m164 0 v-24 m-164 24 q0 10 10 10 m144 0 q10 0 10 -10 m-154 10 h10 m94 0 h10 m0 0 h30 m-154 -10 v20 m164 0 v-20 m-164 20 v24 m164 0 v-24 m-164 24 q0 10 10 10 m144 0 q10 0 10 -10 m-154 10 h10 m78 0 h10 m0 0 h46 m42 -340 l2 0 m2 0 l2 0 m2 0 l2 0 m-246 394 l2 0 m2 0 l2 0 m2 0 l2 0 m22 0 h10 m0 0 h166 m-196 0 h20 m176 0 h20 m-216 0 q10 0 10 10 m196 0 q0 -10 10 -10 m-206 10 v12 m196 0 v-12 m-196 12 q0 10 10 10 m176 0 q10 0 10 -10 m-186 10 h10 m48 0 h10 m0 0 h10 m88 0 h10 m23 -32 h-3"/>
   <polygon points="513 411 521 407 521 415"/>
   <polygon points="513 411 505 407 505 415"/>
</svg>
