<svg xmlns="http://www.w3.org/2000/svg" width="449" height="113">
   <polygon points="9 17 1 13 1 21"/>
   <polygon points="17 17 9 13 9 21"/>
   <rect x="31" y="3" width="64" height="32" rx="10"/>
   <rect x="29"
         y="1"
         width="64"
         height="32"
         class="terminal"
         rx="10"/>
   <text class="terminal" x="39" y="21">SHOW</text>
   <rect x="115" y="3" width="106" height="32" rx="10"/>
   <rect x="113"
         y="1"
         width="106"
         height="32"
         class="terminal"
         rx="10"/>
   <text class="terminal" x="123" y="21">DATABASES</text>
   <rect x="261" y="35" width="50" height="32" rx="10"/>
   <rect x="259"
         y="33"
         width="50"
         height="32"
         class="terminal"
         rx="10"/>
   <text class="terminal" x="269" y="53">LIKE</text>
   <rect x="331" y="35" width="70" height="32" rx="10"/>
   <rect x="329"
         y="33"
         width="70"
         height="32"
         class="terminal"
         rx="10"/>
   <text class="terminal" x="339" y="53">pattern</text>
   <rect x="261" y="79" width="70" height="32" rx="10"/>
   <rect x="259"
         y="77"
         width="70"
         height="32"
         class="terminal"
         rx="10"/>
   <text class="terminal" x="269" y="97">WHERE</text>
   <rect x="351" y="79" width="48" height="32"/>
   <rect x="349" y="77" width="48" height="32" class="nonterminal"/>
   <text class="nonterminal" x="359" y="97">expr</text>
   <path class="line"
         d="m17 17 h2 m0 0 h10 m64 0 h10 m0 0 h10 m106 0 h10 m20 0 h10 m0 0 h150 m-180 0 h20 m160 0 h20 m-200 0 q10 0 10 10 m180 0 q0 -10 10 -10 m-190 10 v12 m180 0 v-12 m-180 12 q0 10 10 10 m160 0 q10 0 10 -10 m-170 10 h10 m50 0 h10 m0 0 h10 m70 0 h10 m-170 -10 v20 m180 0 v-20 m-180 20 v24 m180 0 v-24 m-180 24 q0 10 10 10 m160 0 q10 0 10 -10 m-170 10 h10 m70 0 h10 m0 0 h10 m48 0 h10 m0 0 h2 m23 -76 h-3"/>
   <polygon points="439 17 447 13 447 21"/>
   <polygon points="439 17 431 13 431 21"/>
</svg>
