<svg xmlns="http://www.w3.org/2000/svg" width="439" height="81">
   <polygon points="9 17 1 13 1 21"/>
   <polygon points="17 17 9 13 9 21"/>
   <rect x="31" y="3" width="62" height="32" rx="10"/>
   <rect x="29"
         y="1"
         width="62"
         height="32"
         class="terminal"
         rx="10"/>
   <text class="terminal" x="39" y="21">SHOW</text>
   <rect x="113" y="3" width="102" height="32" rx="10"/>
   <rect x="111"
         y="1"
         width="102"
         height="32"
         class="terminal"
         rx="10"/>
   <text class="terminal" x="121" y="21">DATABASES</text>
   <rect x="255" y="3" width="50" height="32" rx="10"/>
   <rect x="253"
         y="1"
         width="50"
         height="32"
         class="terminal"
         rx="10"/>
   <text class="terminal" x="263" y="21">LIKE</text>
   <rect x="325" y="3" width="66" height="32" rx="10"/>
   <rect x="323"
         y="1"
         width="66"
         height="32"
         class="terminal"
         rx="10"/>
   <text class="terminal" x="333" y="21">pattern</text>
   <rect x="255" y="47" width="70" height="32" rx="10"/>
   <rect x="253"
         y="45"
         width="70"
         height="32"
         class="terminal"
         rx="10"/>
   <text class="terminal" x="263" y="65">WHERE</text>
   <rect x="345" y="47" width="46" height="32"/>
   <rect x="343" y="45" width="46" height="32" class="nonterminal"/>
   <text class="nonterminal" x="353" y="65">expr</text>
   <path class="line"
         d="m17 17 h2 m0 0 h10 m62 0 h10 m0 0 h10 m102 0 h10 m20 0 h10 m50 0 h10 m0 0 h10 m66 0 h10 m-176 0 h20 m156 0 h20 m-196 0 q10 0 10 10 m176 0 q0 -10 10 -10 m-186 10 v24 m176 0 v-24 m-176 24 q0 10 10 10 m156 0 q10 0 10 -10 m-166 10 h10 m70 0 h10 m0 0 h10 m46 0 h10 m23 -44 h-3"/>
   <polygon points="429 17 437 13 437 21"/>
   <polygon points="429 17 421 13 421 21"/>
</svg>
