<svg xmlns="http://www.w3.org/2000/svg" width="475" height="199">
   <polygon points="9 17 1 13 1 21"/>
   <polygon points="17 17 9 13 9 21"/>
   <rect x="31" y="3" width="64" height="32" rx="10"/>
   <rect x="29"
         y="1"
         width="64"
         height="32"
         class="terminal"
         rx="10"/>
   <text class="terminal" x="39" y="21">SHOW</text>
   <rect x="115" y="3" width="84" height="32" rx="10"/>
   <rect x="113"
         y="1"
         width="84"
         height="32"
         class="terminal"
         rx="10"/>
   <text class="terminal" x="123" y="21">SECRETS</text>
   <rect x="239" y="35" width="60" height="32" rx="10"/>
   <rect x="237"
         y="33"
         width="60"
         height="32"
         class="terminal"
         rx="10"/>
   <text class="terminal" x="247" y="53">FROM</text>
   <rect x="319" y="35" width="114" height="32"/>
   <rect x="317" y="33" width="114" height="32" class="nonterminal"/>
   <text class="nonterminal" x="327" y="53">schema_name</text>
   <rect x="287" y="121" width="50" height="32" rx="10"/>
   <rect x="285"
         y="119"
         width="50"
         height="32"
         class="terminal"
         rx="10"/>
   <text class="terminal" x="295" y="139">LIKE</text>
   <rect x="357" y="121" width="70" height="32" rx="10"/>
   <rect x="355"
         y="119"
         width="70"
         height="32"
         class="terminal"
         rx="10"/>
   <text class="terminal" x="365" y="139">pattern</text>
   <rect x="287" y="165" width="70" height="32" rx="10"/>
   <rect x="285"
         y="163"
         width="70"
         height="32"
         class="terminal"
         rx="10"/>
   <text class="terminal" x="295" y="183">WHERE</text>
   <rect x="377" y="165" width="48" height="32"/>
   <rect x="375" y="163" width="48" height="32" class="nonterminal"/>
   <text class="nonterminal" x="385" y="183">expr</text>
   <path class="line"
         d="m17 17 h2 m0 0 h10 m64 0 h10 m0 0 h10 m84 0 h10 m20 0 h10 m0 0 h204 m-234 0 h20 m214 0 h20 m-254 0 q10 0 10 10 m234 0 q0 -10 10 -10 m-244 10 v12 m234 0 v-12 m-234 12 q0 10 10 10 m214 0 q10 0 10 -10 m-224 10 h10 m60 0 h10 m0 0 h10 m114 0 h10 m22 -32 l2 0 m2 0 l2 0 m2 0 l2 0 m-230 86 l2 0 m2 0 l2 0 m2 0 l2 0 m22 0 h10 m0 0 h150 m-180 0 h20 m160 0 h20 m-200 0 q10 0 10 10 m180 0 q0 -10 10 -10 m-190 10 v12 m180 0 v-12 m-180 12 q0 10 10 10 m160 0 q10 0 10 -10 m-170 10 h10 m50 0 h10 m0 0 h10 m70 0 h10 m-170 -10 v20 m180 0 v-20 m-180 20 v24 m180 0 v-24 m-180 24 q0 10 10 10 m160 0 q10 0 10 -10 m-170 10 h10 m70 0 h10 m0 0 h10 m48 0 h10 m0 0 h2 m23 -76 h-3"/>
   <polygon points="465 103 473 99 473 107"/>
   <polygon points="465 103 457 99 457 107"/>
</svg>
