<svg xmlns="http://www.w3.org/2000/svg" width="525" height="223">
   <polygon points="11 17 3 13 3 21"/>
   <polygon points="19 17 11 13 11 21"/>
   <rect x="33" y="3" width="64" height="32" rx="10"/>
   <rect x="31"
         y="1"
         width="64"
         height="32"
         class="terminal"
         rx="10"/>
   <text class="terminal" x="41" y="21">SHOW</text>
   <rect x="117" y="3" width="80" height="32" rx="10"/>
   <rect x="115"
         y="1"
         width="80"
         height="32"
         class="terminal"
         rx="10"/>
   <text class="terminal" x="125" y="21">INDEXES</text>
   <rect x="237" y="35" width="40" height="32" rx="10"/>
   <rect x="235"
         y="33"
         width="40"
         height="32"
         class="terminal"
         rx="10"/>
   <text class="terminal" x="245" y="53">ON</text>
   <rect x="297" y="35" width="78" height="32"/>
   <rect x="295" y="33" width="78" height="32" class="nonterminal"/>
   <text class="nonterminal" x="305" y="53">on_name</text>
   <rect x="237" y="79" width="60" height="32" rx="10"/>
   <rect x="235"
         y="77"
         width="60"
         height="32"
         class="terminal"
         rx="10"/>
   <text class="terminal" x="245" y="97">FROM</text>
   <rect x="317" y="79" width="114" height="32"/>
   <rect x="315" y="77" width="114" height="32" class="nonterminal"/>
   <text class="nonterminal" x="325" y="97">schema_name</text>
   <rect x="45" y="177" width="104" height="32" rx="10"/>
   <rect x="43"
         y="175"
         width="104"
         height="32"
         class="terminal"
         rx="10"/>
   <text class="terminal" x="53" y="195">IN CLUSTER</text>
   <rect x="169" y="177" width="108" height="32"/>
   <rect x="167" y="175" width="108" height="32" class="nonterminal"/>
   <text class="nonterminal" x="177" y="195">cluster_name</text>
   <rect x="337" y="145" width="50" height="32" rx="10"/>
   <rect x="335"
         y="143"
         width="50"
         height="32"
         class="terminal"
         rx="10"/>
   <text class="terminal" x="345" y="163">LIKE</text>
   <rect x="407" y="145" width="70" height="32" rx="10"/>
   <rect x="405"
         y="143"
         width="70"
         height="32"
         class="terminal"
         rx="10"/>
   <text class="terminal" x="415" y="163">pattern</text>
   <rect x="337" y="189" width="70" height="32" rx="10"/>
   <rect x="335"
         y="187"
         width="70"
         height="32"
         class="terminal"
         rx="10"/>
   <text class="terminal" x="345" y="207">WHERE</text>
   <rect x="427" y="189" width="48" height="32"/>
   <rect x="425" y="187" width="48" height="32" class="nonterminal"/>
   <text class="nonterminal" x="435" y="207">expr</text>
   <path class="line"
         d="m19 17 h2 m0 0 h10 m64 0 h10 m0 0 h10 m80 0 h10 m20 0 h10 m0 0 h204 m-234 0 h20 m214 0 h20 m-254 0 q10 0 10 10 m234 0 q0 -10 10 -10 m-244 10 v12 m234 0 v-12 m-234 12 q0 10 10 10 m214 0 q10 0 10 -10 m-224 10 h10 m40 0 h10 m0 0 h10 m78 0 h10 m0 0 h56 m-224 -10 v20 m234 0 v-20 m-234 20 v24 m234 0 v-24 m-234 24 q0 10 10 10 m214 0 q10 0 10 -10 m-224 10 h10 m60 0 h10 m0 0 h10 m114 0 h10 m22 -76 l2 0 m2 0 l2 0 m2 0 l2 0 m-470 142 l2 0 m2 0 l2 0 m2 0 l2 0 m22 0 h10 m0 0 h242 m-272 0 h20 m252 0 h20 m-292 0 q10 0 10 10 m272 0 q0 -10 10 -10 m-282 10 v12 m272 0 v-12 m-272 12 q0 10 10 10 m252 0 q10 0 10 -10 m-262 10 h10 m104 0 h10 m0 0 h10 m108 0 h10 m40 -32 h10 m50 0 h10 m0 0 h10 m70 0 h10 m-180 0 h20 m160 0 h20 m-200 0 q10 0 10 10 m180 0 q0 -10 10 -10 m-190 10 v24 m180 0 v-24 m-180 24 q0 10 10 10 m160 0 q10 0 10 -10 m-170 10 h10 m70 0 h10 m0 0 h10 m48 0 h10 m0 0 h2 m23 -44 h-3"/>
   <polygon points="515 159 523 155 523 163"/>
   <polygon points="515 159 507 155 507 163"/>
</svg>
