<svg xmlns="http://www.w3.org/2000/svg" width="297" height="81">
   <polygon points="9 17 1 13 1 21"/>
   <polygon points="17 17 9 13 9 21"/>
   <rect x="31" y="3" width="64" height="32" rx="10"/>
   <rect x="29"
         y="1"
         width="64"
         height="32"
         class="terminal"
         rx="10"/>
   <text class="terminal" x="39" y="21">SHOW</text>
   <rect x="135" y="3" width="114" height="32"/>
   <rect x="133" y="1" width="114" height="32" class="nonterminal"/>
   <text class="nonterminal" x="143" y="21">variable_name</text>
   <rect x="135" y="47" width="46" height="32" rx="10"/>
   <rect x="133"
         y="45"
         width="46"
         height="32"
         class="terminal"
         rx="10"/>
   <text class="terminal" x="143" y="65">ALL</text>
   <path class="line"
         d="m17 17 h2 m0 0 h10 m64 0 h10 m20 0 h10 m114 0 h10 m-154 0 h20 m134 0 h20 m-174 0 q10 0 10 10 m154 0 q0 -10 10 -10 m-164 10 v24 m154 0 v-24 m-154 24 q0 10 10 10 m134 0 q10 0 10 -10 m-144 10 h10 m46 0 h10 m0 0 h68 m23 -44 h-3"/>
   <polygon points="287 17 295 13 295 21"/>
   <polygon points="287 17 279 13 279 21"/>
</svg>
