<svg xmlns="http://www.w3.org/2000/svg" width="549" height="69">
   <polygon points="9 17 1 13 1 21"/>
   <polygon points="17 17 9 13 9 21"/>
   <rect x="31" y="3" width="64" height="32" rx="10"/>
   <rect x="29"
         y="1"
         width="64"
         height="32"
         class="terminal"
         rx="10"/>
   <text class="terminal" x="39" y="21">SHOW</text>
   <rect x="115" y="3" width="56" height="32" rx="10"/>
   <rect x="113"
         y="1"
         width="56"
         height="32"
         class="terminal"
         rx="10"/>
   <text class="terminal" x="123" y="21">ROLE</text>
   <rect x="191" y="3" width="114" height="32" rx="10"/>
   <rect x="189"
         y="1"
         width="114"
         height="32"
         class="terminal"
         rx="10"/>
   <text class="terminal" x="199" y="21">MEMBERSHIP</text>
   <rect x="345" y="35" width="48" height="32" rx="10"/>
   <rect x="343"
         y="33"
         width="48"
         height="32"
         class="terminal"
         rx="10"/>
   <text class="terminal" x="353" y="53">FOR</text>
   <rect x="413" y="35" width="88" height="32"/>
   <rect x="411" y="33" width="88" height="32" class="nonterminal"/>
   <text class="nonterminal" x="421" y="53">role_name</text>
   <path class="line"
         d="m17 17 h2 m0 0 h10 m64 0 h10 m0 0 h10 m56 0 h10 m0 0 h10 m114 0 h10 m20 0 h10 m0 0 h166 m-196 0 h20 m176 0 h20 m-216 0 q10 0 10 10 m196 0 q0 -10 10 -10 m-206 10 v12 m196 0 v-12 m-196 12 q0 10 10 10 m176 0 q10 0 10 -10 m-186 10 h10 m48 0 h10 m0 0 h10 m88 0 h10 m23 -32 h-3"/>
   <polygon points="539 17 547 13 547 21"/>
   <polygon points="539 17 531 13 531 21"/>
</svg>
