<svg xmlns="http://www.w3.org/2000/svg" width="421" height="37">
   <polygon points="9 17 1 13 1 21"/>
   <polygon points="17 17 9 13 9 21"/>
   <rect x="31" y="3" width="64" height="32" rx="10"/>
   <rect x="29"
         y="1"
         width="64"
         height="32"
         class="terminal"
         rx="10"/>
   <text class="terminal" x="39" y="21">SHOW</text>
   <rect x="115" y="3" width="76" height="32" rx="10"/>
   <rect x="113"
         y="1"
         width="76"
         height="32"
         class="terminal"
         rx="10"/>
   <text class="terminal" x="123" y="21">CREATE</text>
   <rect x="211" y="3" width="66" height="32" rx="10"/>
   <rect x="209"
         y="1"
         width="66"
         height="32"
         class="terminal"
         rx="10"/>
   <text class="terminal" x="219" y="21">TABLE</text>
   <rect x="297" y="3" width="96" height="32"/>
   <rect x="295" y="1" width="96" height="32" class="nonterminal"/>
   <text class="nonterminal" x="305" y="21">table_name</text>
   <path class="line"
         d="m17 17 h2 m0 0 h10 m64 0 h10 m0 0 h10 m76 0 h10 m0 0 h10 m66 0 h10 m0 0 h10 m96 0 h10 m3 0 h-3"/>
   <polygon points="411 17 419 13 419 21"/>
   <polygon points="411 17 403 13 403 21"/>
</svg>
