<svg xmlns="http://www.w3.org/2000/svg" width="567" height="155">
   <polygon points="9 17 1 13 1 21"/>
   <polygon points="17 17 9 13 9 21"/>
   <rect x="31" y="3" width="64" height="32" rx="10"/>
   <rect x="29"
         y="1"
         width="64"
         height="32"
         class="terminal"
         rx="10"/>
   <text class="terminal" x="39" y="21">SHOW</text>
   <rect x="115" y="3" width="176" height="32" rx="10"/>
   <rect x="113"
         y="1"
         width="176"
         height="32"
         class="terminal"
         rx="10"/>
   <text class="terminal" x="123" y="21">MATERIALIZED VIEWS</text>
   <rect x="331" y="35" width="60" height="32" rx="10"/>
   <rect x="329"
         y="33"
         width="60"
         height="32"
         class="terminal"
         rx="10"/>
   <text class="terminal" x="339" y="53">FROM</text>
   <rect x="411" y="35" width="114" height="32"/>
   <rect x="409" y="33" width="114" height="32" class="nonterminal"/>
   <text class="nonterminal" x="419" y="53">schema_name</text>
   <rect x="287" y="121" width="104" height="32" rx="10"/>
   <rect x="285"
         y="119"
         width="104"
         height="32"
         class="terminal"
         rx="10"/>
   <text class="terminal" x="295" y="139">IN CLUSTER</text>
   <rect x="411" y="121" width="108" height="32"/>
   <rect x="409" y="119" width="108" height="32" class="nonterminal"/>
   <text class="nonterminal" x="419" y="139">cluster_name</text>
   <path class="line"
         d="m17 17 h2 m0 0 h10 m64 0 h10 m0 0 h10 m176 0 h10 m20 0 h10 m0 0 h204 m-234 0 h20 m214 0 h20 m-254 0 q10 0 10 10 m234 0 q0 -10 10 -10 m-244 10 v12 m234 0 v-12 m-234 12 q0 10 10 10 m214 0 q10 0 10 -10 m-224 10 h10 m60 0 h10 m0 0 h10 m114 0 h10 m22 -32 l2 0 m2 0 l2 0 m2 0 l2 0 m-322 86 l2 0 m2 0 l2 0 m2 0 l2 0 m22 0 h10 m0 0 h242 m-272 0 h20 m252 0 h20 m-292 0 q10 0 10 10 m272 0 q0 -10 10 -10 m-282 10 v12 m272 0 v-12 m-272 12 q0 10 10 10 m252 0 q10 0 10 -10 m-262 10 h10 m104 0 h10 m0 0 h10 m108 0 h10 m23 -32 h-3"/>
   <polygon points="557 103 565 99 565 107"/>
   <polygon points="557 103 549 99 549 107"/>
</svg>
