<svg xmlns="http://www.w3.org/2000/svg" width="487" height="69">
   <polygon points="9 17 1 13 1 21"/>
   <polygon points="17 17 9 13 9 21"/>
   <rect x="31" y="3" width="62" height="32" rx="10"/>
   <rect x="29"
         y="1"
         width="62"
         height="32"
         class="terminal"
         rx="10"/>
   <text class="terminal" x="39" y="21">SHOW</text>
   <rect x="113" y="3" width="88" height="32" rx="10"/>
   <rect x="111"
         y="1"
         width="88"
         height="32"
         class="terminal"
         rx="10"/>
   <text class="terminal" x="121" y="21">SCHEMAS</text>
   <rect x="241" y="35" width="60" height="32" rx="10"/>
   <rect x="239"
         y="33"
         width="60"
         height="32"
         class="terminal"
         rx="10"/>
   <text class="terminal" x="249" y="53">FROM</text>
   <rect x="321" y="35" width="118" height="32"/>
   <rect x="319" y="33" width="118" height="32" class="nonterminal"/>
   <text class="nonterminal" x="329" y="53">database_name</text>
   <path class="line"
         d="m17 17 h2 m0 0 h10 m62 0 h10 m0 0 h10 m88 0 h10 m20 0 h10 m0 0 h208 m-238 0 h20 m218 0 h20 m-258 0 q10 0 10 10 m238 0 q0 -10 10 -10 m-248 10 v12 m238 0 v-12 m-238 12 q0 10 10 10 m218 0 q10 0 10 -10 m-228 10 h10 m60 0 h10 m0 0 h10 m118 0 h10 m23 -32 h-3"/>
   <polygon points="477 17 485 13 485 21"/>
   <polygon points="477 17 469 13 469 21"/>
</svg>
