<svg xmlns="http://www.w3.org/2000/svg" width="451" height="37">
   <polygon points="9 17 1 13 1 21"/>
   <polygon points="17 17 9 13 9 21"/>
   <rect x="31" y="3" width="64" height="32" rx="10"/>
   <rect x="29"
         y="1"
         width="64"
         height="32"
         class="terminal"
         rx="10"/>
   <text class="terminal" x="39" y="21">SHOW</text>
   <rect x="115" y="3" width="76" height="32" rx="10"/>
   <rect x="113"
         y="1"
         width="76"
         height="32"
         class="terminal"
         rx="10"/>
   <text class="terminal" x="123" y="21">CREATE</text>
   <rect x="211" y="3" width="84" height="32" rx="10"/>
   <rect x="209"
         y="1"
         width="84"
         height="32"
         class="terminal"
         rx="10"/>
   <text class="terminal" x="219" y="21">CLUSTER</text>
   <rect x="315" y="3" width="108" height="32"/>
   <rect x="313" y="1" width="108" height="32" class="nonterminal"/>
   <text class="nonterminal" x="323" y="21">cluster_name</text>
   <path class="line"
         d="m17 17 h2 m0 0 h10 m64 0 h10 m0 0 h10 m76 0 h10 m0 0 h10 m84 0 h10 m0 0 h10 m108 0 h10 m3 0 h-3"/>
   <polygon points="441 17 449 13 449 21"/>
   <polygon points="441 17 433 13 433 21"/>
</svg>
