<svg xmlns="http://www.w3.org/2000/svg" width="501" height="155">
   <polygon points="9 17 1 13 1 21"/>
   <polygon points="17 17 9 13 9 21"/>
   <rect x="31" y="3" width="64" height="32" rx="10"/>
   <rect x="29"
         y="1"
         width="64"
         height="32"
         class="terminal"
         rx="10"/>
   <text class="terminal" x="39" y="21">SHOW</text>
   <rect x="135" y="35" width="54" height="32" rx="10"/>
   <rect x="133"
         y="33"
         width="54"
         height="32"
         class="terminal"
         rx="10"/>
   <text class="terminal" x="143" y="53">FULL</text>
   <rect x="249" y="35" width="124" height="32" rx="10"/>
   <rect x="247"
         y="33"
         width="124"
         height="32"
         class="terminal"
         rx="10"/>
   <text class="terminal" x="257" y="53">MATERIALIZED</text>
   <rect x="413" y="3" width="66" height="32" rx="10"/>
   <rect x="411"
         y="1"
         width="66"
         height="32"
         class="terminal"
         rx="10"/>
   <text class="terminal" x="421" y="21">VIEWS</text>
   <rect x="259" y="121" width="60" height="32" rx="10"/>
   <rect x="257"
         y="119"
         width="60"
         height="32"
         class="terminal"
         rx="10"/>
   <text class="terminal" x="267" y="139">FROM</text>
   <rect x="339" y="121" width="114" height="32"/>
   <rect x="337" y="119" width="114" height="32" class="nonterminal"/>
   <text class="nonterminal" x="347" y="139">schema_name</text>
   <path class="line"
         d="m17 17 h2 m0 0 h10 m64 0 h10 m20 0 h10 m0 0 h64 m-94 0 h20 m74 0 h20 m-114 0 q10 0 10 10 m94 0 q0 -10 10 -10 m-104 10 v12 m94 0 v-12 m-94 12 q0 10 10 10 m74 0 q10 0 10 -10 m-84 10 h10 m54 0 h10 m40 -32 h10 m0 0 h134 m-164 0 h20 m144 0 h20 m-184 0 q10 0 10 10 m164 0 q0 -10 10 -10 m-174 10 v12 m164 0 v-12 m-164 12 q0 10 10 10 m144 0 q10 0 10 -10 m-154 10 h10 m124 0 h10 m20 -32 h10 m66 0 h10 m2 0 l2 0 m2 0 l2 0 m2 0 l2 0 m-284 86 l2 0 m2 0 l2 0 m2 0 l2 0 m22 0 h10 m0 0 h204 m-234 0 h20 m214 0 h20 m-254 0 q10 0 10 10 m234 0 q0 -10 10 -10 m-244 10 v12 m234 0 v-12 m-234 12 q0 10 10 10 m214 0 q10 0 10 -10 m-224 10 h10 m60 0 h10 m0 0 h10 m114 0 h10 m23 -32 h-3"/>
   <polygon points="491 103 499 99 499 107"/>
   <polygon points="491 103 483 99 483 107"/>
</svg>
