<svg xmlns="http://www.w3.org/2000/svg" width="559" height="361">
   <polygon points="11 17 3 13 3 21"/>
   <polygon points="19 17 11 13 11 21"/>
   <rect x="33" y="3" width="64" height="32" rx="10"/>
   <rect x="31"
         y="1"
         width="64"
         height="32"
         class="terminal"
         rx="10"/>
   <text class="terminal" x="41" y="21">SHOW</text>
   <rect x="137" y="35" width="96" height="32" rx="10"/>
   <rect x="135"
         y="33"
         width="96"
         height="32"
         class="terminal"
         rx="10"/>
   <text class="terminal" x="145" y="53">EXTENDED</text>
   <rect x="293" y="3" width="62" height="32" rx="10"/>
   <rect x="291"
         y="1"
         width="62"
         height="32"
         class="terminal"
         rx="10"/>
   <text class="terminal" x="301" y="21">INDEX</text>
   <rect x="293" y="47" width="80" height="32" rx="10"/>
   <rect x="291"
         y="45"
         width="80"
         height="32"
         class="terminal"
         rx="10"/>
   <text class="terminal" x="301" y="65">INDEXES</text>
   <rect x="293" y="91" width="58" height="32" rx="10"/>
   <rect x="291"
         y="89"
         width="58"
         height="32"
         class="terminal"
         rx="10"/>
   <text class="terminal" x="301" y="109">KEYS</text>
   <rect x="203" y="173" width="60" height="32" rx="10"/>
   <rect x="201"
         y="171"
         width="60"
         height="32"
         class="terminal"
         rx="10"/>
   <text class="terminal" x="211" y="191">FROM</text>
   <rect x="203" y="217" width="34" height="32" rx="10"/>
   <rect x="201"
         y="215"
         width="34"
         height="32"
         class="terminal"
         rx="10"/>
   <text class="terminal" x="211" y="235">IN</text>
   <rect x="303" y="173" width="78" height="32"/>
   <rect x="301" y="171" width="78" height="32" class="nonterminal"/>
   <text class="nonterminal" x="311" y="191">on_name</text>
   <rect x="45" y="315" width="34" height="32" rx="10"/>
   <rect x="43"
         y="313"
         width="34"
         height="32"
         class="terminal"
         rx="10"/>
   <text class="terminal" x="53" y="333">IN</text>
   <rect x="99" y="315" width="84" height="32" rx="10"/>
   <rect x="97"
         y="313"
         width="84"
         height="32"
         class="terminal"
         rx="10"/>
   <text class="terminal" x="107" y="333">CLUSTER</text>
   <rect x="203" y="315" width="108" height="32"/>
   <rect x="201" y="313" width="108" height="32" class="nonterminal"/>
   <text class="nonterminal" x="211" y="333">cluster_name</text>
   <rect x="371" y="283" width="50" height="32" rx="10"/>
   <rect x="369"
         y="281"
         width="50"
         height="32"
         class="terminal"
         rx="10"/>
   <text class="terminal" x="379" y="301">LIKE</text>
   <rect x="441" y="283" width="70" height="32" rx="10"/>
   <rect x="439"
         y="281"
         width="70"
         height="32"
         class="terminal"
         rx="10"/>
   <text class="terminal" x="449" y="301">pattern</text>
   <rect x="371" y="327" width="70" height="32" rx="10"/>
   <rect x="369"
         y="325"
         width="70"
         height="32"
         class="terminal"
         rx="10"/>
   <text class="terminal" x="379" y="345">WHERE</text>
   <rect x="461" y="327" width="48" height="32"/>
   <rect x="459" y="325" width="48" height="32" class="nonterminal"/>
   <text class="nonterminal" x="469" y="345">expr</text>
   <path class="line"
         d="m19 17 h2 m0 0 h10 m64 0 h10 m20 0 h10 m0 0 h106 m-136 0 h20 m116 0 h20 m-156 0 q10 0 10 10 m136 0 q0 -10 10 -10 m-146 10 v12 m136 0 v-12 m-136 12 q0 10 10 10 m116 0 q10 0 10 -10 m-126 10 h10 m96 0 h10 m40 -32 h10 m62 0 h10 m0 0 h18 m-120 0 h20 m100 0 h20 m-140 0 q10 0 10 10 m120 0 q0 -10 10 -10 m-130 10 v24 m120 0 v-24 m-120 24 q0 10 10 10 m100 0 q10 0 10 -10 m-110 10 h10 m80 0 h10 m-110 -10 v20 m120 0 v-20 m-120 20 v24 m120 0 v-24 m-120 24 q0 10 10 10 m100 0 q10 0 10 -10 m-110 10 h10 m58 0 h10 m0 0 h22 m22 -88 l2 0 m2 0 l2 0 m2 0 l2 0 m-274 138 l2 0 m2 0 l2 0 m2 0 l2 0 m22 0 h10 m0 0 h208 m-238 0 h20 m218 0 h20 m-258 0 q10 0 10 10 m238 0 q0 -10 10 -10 m-248 10 v12 m238 0 v-12 m-238 12 q0 10 10 10 m218 0 q10 0 10 -10 m-208 10 h10 m60 0 h10 m-100 0 h20 m80 0 h20 m-120 0 q10 0 10 10 m100 0 q0 -10 10 -10 m-110 10 v24 m100 0 v-24 m-100 24 q0 10 10 10 m80 0 q10 0 10 -10 m-90 10 h10 m34 0 h10 m0 0 h26 m20 -44 h10 m78 0 h10 m22 -32 l2 0 m2 0 l2 0 m2 0 l2 0 m-420 142 l2 0 m2 0 l2 0 m2 0 l2 0 m22 0 h10 m0 0 h276 m-306 0 h20 m286 0 h20 m-326 0 q10 0 10 10 m306 0 q0 -10 10 -10 m-316 10 v12 m306 0 v-12 m-306 12 q0 10 10 10 m286 0 q10 0 10 -10 m-296 10 h10 m34 0 h10 m0 0 h10 m84 0 h10 m0 0 h10 m108 0 h10 m40 -32 h10 m50 0 h10 m0 0 h10 m70 0 h10 m-180 0 h20 m160 0 h20 m-200 0 q10 0 10 10 m180 0 q0 -10 10 -10 m-190 10 v24 m180 0 v-24 m-180 24 q0 10 10 10 m160 0 q10 0 10 -10 m-170 10 h10 m70 0 h10 m0 0 h10 m48 0 h10 m0 0 h2 m23 -44 h-3"/>
   <polygon points="549 297 557 293 557 301"/>
   <polygon points="549 297 541 293 541 301"/>
</svg>
