<svg xmlns="http://www.w3.org/2000/svg" width="395" height="147">
   <polygon points="9 17 1 13 1 21"/>
   <polygon points="17 17 9 13 9 21"/>
   <rect x="31" y="3" width="62" height="32" rx="10"/>
   <rect x="29"
         y="1"
         width="62"
         height="32"
         class="terminal"
         rx="10"/>
   <text class="terminal" x="39" y="21">SHOW</text>
   <rect x="113" y="3" width="90" height="32" rx="10"/>
   <rect x="111"
         y="1"
         width="90"
         height="32"
         class="terminal"
         rx="10"/>
   <text class="terminal" x="121" y="21">COLUMNS</text>
   <rect x="223" y="3" width="60" height="32" rx="10"/>
   <rect x="221"
         y="1"
         width="60"
         height="32"
         class="terminal"
         rx="10"/>
   <text class="terminal" x="231" y="21">FROM</text>
   <rect x="303" y="3" width="70" height="32"/>
   <rect x="301" y="1" width="70" height="32" class="nonterminal"/>
   <text class="nonterminal" x="311" y="21">item_ref</text>
   <rect x="211" y="69" width="50" height="32" rx="10"/>
   <rect x="209"
         y="67"
         width="50"
         height="32"
         class="terminal"
         rx="10"/>
   <text class="terminal" x="219" y="87">LIKE</text>
   <rect x="281" y="69" width="66" height="32" rx="10"/>
   <rect x="279"
         y="67"
         width="66"
         height="32"
         class="terminal"
         rx="10"/>
   <text class="terminal" x="289" y="87">pattern</text>
   <rect x="211" y="113" width="70" height="32" rx="10"/>
   <rect x="209"
         y="111"
         width="70"
         height="32"
         class="terminal"
         rx="10"/>
   <text class="terminal" x="219" y="131">WHERE</text>
   <rect x="301" y="113" width="46" height="32"/>
   <rect x="299" y="111" width="46" height="32" class="nonterminal"/>
   <text class="nonterminal" x="309" y="131">expr</text>
   <path class="line"
         d="m17 17 h2 m0 0 h10 m62 0 h10 m0 0 h10 m90 0 h10 m0 0 h10 m60 0 h10 m0 0 h10 m70 0 h10 m2 0 l2 0 m2 0 l2 0 m2 0 l2 0 m-226 66 l2 0 m2 0 l2 0 m2 0 l2 0 m22 0 h10 m50 0 h10 m0 0 h10 m66 0 h10 m-176 0 h20 m156 0 h20 m-196 0 q10 0 10 10 m176 0 q0 -10 10 -10 m-186 10 v24 m176 0 v-24 m-176 24 q0 10 10 10 m156 0 q10 0 10 -10 m-166 10 h10 m70 0 h10 m0 0 h10 m46 0 h10 m23 -44 h-3"/>
   <polygon points="385 83 393 79 393 87"/>
   <polygon points="385 83 377 79 377 87"/>
</svg>
