<svg xmlns="http://www.w3.org/2000/svg" width="419" height="37">
   <polygon points="9 17 1 13 1 21"/>
   <polygon points="17 17 9 13 9 21"/>
   <rect x="31" y="3" width="64" height="32" rx="10"/>
   <rect x="29"
         y="1"
         width="64"
         height="32"
         class="terminal"
         rx="10"/>
   <text class="terminal" x="39" y="21">SHOW</text>
   <rect x="115" y="3" width="76" height="32" rx="10"/>
   <rect x="113"
         y="1"
         width="76"
         height="32"
         class="terminal"
         rx="10"/>
   <text class="terminal" x="123" y="21">CREATE</text>
   <rect x="211" y="3" width="62" height="32" rx="10"/>
   <rect x="209"
         y="1"
         width="62"
         height="32"
         class="terminal"
         rx="10"/>
   <text class="terminal" x="219" y="21">INDEX</text>
   <rect x="293" y="3" width="98" height="32"/>
   <rect x="291" y="1" width="98" height="32" class="nonterminal"/>
   <text class="nonterminal" x="301" y="21">index_name</text>
   <path class="line"
         d="m17 17 h2 m0 0 h10 m64 0 h10 m0 0 h10 m76 0 h10 m0 0 h10 m62 0 h10 m0 0 h10 m98 0 h10 m3 0 h-3"/>
   <polygon points="409 17 417 13 417 21"/>
   <polygon points="409 17 401 13 401 21"/>
</svg>
