<svg xmlns="http://www.w3.org/2000/svg" width="401" height="147">
   <polygon points="9 17 1 13 1 21"/>
   <polygon points="17 17 9 13 9 21"/>
   <rect x="31" y="3" width="64" height="32" rx="10"/>
   <rect x="29"
         y="1"
         width="64"
         height="32"
         class="terminal"
         rx="10"/>
   <text class="terminal" x="39" y="21">SHOW</text>
   <rect x="115" y="3" width="92" height="32" rx="10"/>
   <rect x="113"
         y="1"
         width="92"
         height="32"
         class="terminal"
         rx="10"/>
   <text class="terminal" x="123" y="21">COLUMNS</text>
   <rect x="227" y="3" width="60" height="32" rx="10"/>
   <rect x="225"
         y="1"
         width="60"
         height="32"
         class="terminal"
         rx="10"/>
   <text class="terminal" x="235" y="21">FROM</text>
   <rect x="307" y="3" width="72" height="32"/>
   <rect x="305" y="1" width="72" height="32" class="nonterminal"/>
   <text class="nonterminal" x="315" y="21">item_ref</text>
   <rect x="213" y="69" width="50" height="32" rx="10"/>
   <rect x="211"
         y="67"
         width="50"
         height="32"
         class="terminal"
         rx="10"/>
   <text class="terminal" x="221" y="87">LIKE</text>
   <rect x="283" y="69" width="70" height="32" rx="10"/>
   <rect x="281"
         y="67"
         width="70"
         height="32"
         class="terminal"
         rx="10"/>
   <text class="terminal" x="291" y="87">pattern</text>
   <rect x="213" y="113" width="70" height="32" rx="10"/>
   <rect x="211"
         y="111"
         width="70"
         height="32"
         class="terminal"
         rx="10"/>
   <text class="terminal" x="221" y="131">WHERE</text>
   <rect x="303" y="113" width="48" height="32"/>
   <rect x="301" y="111" width="48" height="32" class="nonterminal"/>
   <text class="nonterminal" x="311" y="131">expr</text>
   <path class="line"
         d="m17 17 h2 m0 0 h10 m64 0 h10 m0 0 h10 m92 0 h10 m0 0 h10 m60 0 h10 m0 0 h10 m72 0 h10 m2 0 l2 0 m2 0 l2 0 m2 0 l2 0 m-230 66 l2 0 m2 0 l2 0 m2 0 l2 0 m22 0 h10 m50 0 h10 m0 0 h10 m70 0 h10 m-180 0 h20 m160 0 h20 m-200 0 q10 0 10 10 m180 0 q0 -10 10 -10 m-190 10 v24 m180 0 v-24 m-180 24 q0 10 10 10 m160 0 q10 0 10 -10 m-170 10 h10 m70 0 h10 m0 0 h10 m48 0 h10 m0 0 h2 m23 -44 h-3"/>
   <polygon points="391 83 399 79 399 87"/>
   <polygon points="391 83 383 79 383 87"/>
</svg>
