<svg xmlns="http://www.w3.org/2000/svg" width="239" height="81">
   <polygon points="9 17 1 13 1 21"/>
   <polygon points="17 17 9 13 9 21"/>
   <rect x="31" y="3" width="64" height="32" rx="10"/>
   <rect x="29"
         y="1"
         width="64"
         height="32"
         class="terminal"
         rx="10"/>
   <text class="terminal" x="39" y="21">SHOW</text>
   <rect x="135" y="3" width="56" height="32"/>
   <rect x="133" y="1" width="56" height="32" class="nonterminal"/>
   <text class="nonterminal" x="143" y="21">name</text>
   <rect x="135" y="47" width="46" height="32" rx="10"/>
   <rect x="133"
         y="45"
         width="46"
         height="32"
         class="terminal"
         rx="10"/>
   <text class="terminal" x="143" y="65">ALL</text>
   <path class="line"
         d="m17 17 h2 m0 0 h10 m64 0 h10 m20 0 h10 m56 0 h10 m-96 0 h20 m76 0 h20 m-116 0 q10 0 10 10 m96 0 q0 -10 10 -10 m-106 10 v24 m96 0 v-24 m-96 24 q0 10 10 10 m76 0 q10 0 10 -10 m-86 10 h10 m46 0 h10 m0 0 h10 m23 -44 h-3"/>
   <polygon points="229 17 237 13 237 21"/>
   <polygon points="229 17 221 13 221 21"/>
</svg>
