<svg xmlns="http://www.w3.org/2000/svg" width="531" height="199">
   <polygon points="9 17 1 13 1 21"/>
   <polygon points="17 17 9 13 9 21"/>
   <rect x="31" y="3" width="64" height="32" rx="10"/>
   <rect x="29"
         y="1"
         width="64"
         height="32"
         class="terminal"
         rx="10"/>
   <text class="terminal" x="39" y="21">SHOW</text>
   <rect x="135" y="35" width="96" height="32" rx="10"/>
   <rect x="133"
         y="33"
         width="96"
         height="32"
         class="terminal"
         rx="10"/>
   <text class="terminal" x="143" y="53">EXTENDED</text>
   <rect x="291" y="35" width="54" height="32" rx="10"/>
   <rect x="289"
         y="33"
         width="54"
         height="32"
         class="terminal"
         rx="10"/>
   <text class="terminal" x="299" y="53">FULL</text>
   <rect x="385" y="3" width="124" height="32" rx="10"/>
   <rect x="383"
         y="1"
         width="124"
         height="32"
         class="terminal"
         rx="10"/>
   <text class="terminal" x="393" y="21">CONNECTIONS</text>
   <rect x="89" y="121" width="60" height="32" rx="10"/>
   <rect x="87"
         y="119"
         width="60"
         height="32"
         class="terminal"
         rx="10"/>
   <text class="terminal" x="97" y="139">FROM</text>
   <rect x="169" y="121" width="114" height="32"/>
   <rect x="167" y="119" width="114" height="32" class="nonterminal"/>
   <text class="nonterminal" x="177" y="139">schema_name</text>
   <rect x="343" y="121" width="50" height="32" rx="10"/>
   <rect x="341"
         y="119"
         width="50"
         height="32"
         class="terminal"
         rx="10"/>
   <text class="terminal" x="351" y="139">LIKE</text>
   <rect x="413" y="121" width="70" height="32" rx="10"/>
   <rect x="411"
         y="119"
         width="70"
         height="32"
         class="terminal"
         rx="10"/>
   <text class="terminal" x="421" y="139">pattern</text>
   <rect x="343" y="165" width="70" height="32" rx="10"/>
   <rect x="341"
         y="163"
         width="70"
         height="32"
         class="terminal"
         rx="10"/>
   <text class="terminal" x="351" y="183">WHERE</text>
   <rect x="433" y="165" width="48" height="32"/>
   <rect x="431" y="163" width="48" height="32" class="nonterminal"/>
   <text class="nonterminal" x="441" y="183">expr</text>
   <path class="line"
         d="m17 17 h2 m0 0 h10 m64 0 h10 m20 0 h10 m0 0 h106 m-136 0 h20 m116 0 h20 m-156 0 q10 0 10 10 m136 0 q0 -10 10 -10 m-146 10 v12 m136 0 v-12 m-136 12 q0 10 10 10 m116 0 q10 0 10 -10 m-126 10 h10 m96 0 h10 m40 -32 h10 m0 0 h64 m-94 0 h20 m74 0 h20 m-114 0 q10 0 10 10 m94 0 q0 -10 10 -10 m-104 10 v12 m94 0 v-12 m-94 12 q0 10 10 10 m74 0 q10 0 10 -10 m-84 10 h10 m54 0 h10 m20 -32 h10 m124 0 h10 m2 0 l2 0 m2 0 l2 0 m2 0 l2 0 m-484 86 l2 0 m2 0 l2 0 m2 0 l2 0 m22 0 h10 m0 0 h204 m-234 0 h20 m214 0 h20 m-254 0 q10 0 10 10 m234 0 q0 -10 10 -10 m-244 10 v12 m234 0 v-12 m-234 12 q0 10 10 10 m214 0 q10 0 10 -10 m-224 10 h10 m60 0 h10 m0 0 h10 m114 0 h10 m40 -32 h10 m0 0 h150 m-180 0 h20 m160 0 h20 m-200 0 q10 0 10 10 m180 0 q0 -10 10 -10 m-190 10 v12 m180 0 v-12 m-180 12 q0 10 10 10 m160 0 q10 0 10 -10 m-170 10 h10 m50 0 h10 m0 0 h10 m70 0 h10 m-170 -10 v20 m180 0 v-20 m-180 20 v24 m180 0 v-24 m-180 24 q0 10 10 10 m160 0 q10 0 10 -10 m-170 10 h10 m70 0 h10 m0 0 h10 m48 0 h10 m0 0 h2 m23 -76 h-3"/>
   <polygon points="521 103 529 99 529 107"/>
   <polygon points="521 103 513 99 513 107"/>
</svg>
