<svg xmlns="http://www.w3.org/2000/svg" width="513" height="113">
   <polygon points="9 17 1 13 1 21"/>
   <polygon points="17 17 9 13 9 21"/>
   <rect x="31" y="3" width="64" height="32" rx="10"/>
   <rect x="29"
         y="1"
         width="64"
         height="32"
         class="terminal"
         rx="10"/>
   <text class="terminal" x="39" y="21">SHOW</text>
   <rect x="115" y="3" width="116" height="32" rx="10"/>
   <rect x="113"
         y="1"
         width="116"
         height="32"
         class="terminal"
         rx="10"/>
   <text class="terminal" x="123" y="21">SUBSOURCES</text>
   <rect x="271" y="35" width="60" height="32" rx="10"/>
   <rect x="269"
         y="33"
         width="60"
         height="32"
         class="terminal"
         rx="10"/>
   <text class="terminal" x="279" y="53">FROM</text>
   <rect x="351" y="35" width="114" height="32"/>
   <rect x="349" y="33" width="114" height="32" class="nonterminal"/>
   <text class="nonterminal" x="359" y="53">schema_name</text>
   <rect x="271" y="79" width="40" height="32" rx="10"/>
   <rect x="269"
         y="77"
         width="40"
         height="32"
         class="terminal"
         rx="10"/>
   <text class="terminal" x="279" y="97">ON</text>
   <rect x="331" y="79" width="78" height="32"/>
   <rect x="329" y="77" width="78" height="32" class="nonterminal"/>
   <text class="nonterminal" x="339" y="97">on_name</text>
   <path class="line"
         d="m17 17 h2 m0 0 h10 m64 0 h10 m0 0 h10 m116 0 h10 m20 0 h10 m0 0 h204 m-234 0 h20 m214 0 h20 m-254 0 q10 0 10 10 m234 0 q0 -10 10 -10 m-244 10 v12 m234 0 v-12 m-234 12 q0 10 10 10 m214 0 q10 0 10 -10 m-224 10 h10 m60 0 h10 m0 0 h10 m114 0 h10 m-224 -10 v20 m234 0 v-20 m-234 20 v24 m234 0 v-24 m-234 24 q0 10 10 10 m214 0 q10 0 10 -10 m-224 10 h10 m40 0 h10 m0 0 h10 m78 0 h10 m0 0 h56 m23 -76 h-3"/>
   <polygon points="503 17 511 13 511 21"/>
   <polygon points="503 17 495 13 495 21"/>
</svg>
