<svg xmlns="http://www.w3.org/2000/svg" width="513" height="155">
   <polygon points="9 17 1 13 1 21"/>
   <polygon points="17 17 9 13 9 21"/>
   <rect x="31" y="3" width="62" height="32" rx="10"/>
   <rect x="29"
         y="1"
         width="62"
         height="32"
         class="terminal"
         rx="10"/>
   <text class="terminal" x="39" y="21">SHOW</text>
   <rect x="133" y="35" width="52" height="32" rx="10"/>
   <rect x="131"
         y="33"
         width="52"
         height="32"
         class="terminal"
         rx="10"/>
   <text class="terminal" x="141" y="53">FULL</text>
   <rect x="245" y="35" width="120" height="32" rx="10"/>
   <rect x="243"
         y="33"
         width="120"
         height="32"
         class="terminal"
         rx="10"/>
   <text class="terminal" x="253" y="53">MATERIALIZED</text>
   <rect x="405" y="3" width="86" height="32" rx="10"/>
   <rect x="403"
         y="1"
         width="86"
         height="32"
         class="terminal"
         rx="10"/>
   <text class="terminal" x="413" y="21">SOURCES</text>
   <rect x="275" y="121" width="60" height="32" rx="10"/>
   <rect x="273"
         y="119"
         width="60"
         height="32"
         class="terminal"
         rx="10"/>
   <text class="terminal" x="283" y="139">FROM</text>
   <rect x="355" y="121" width="110" height="32"/>
   <rect x="353" y="119" width="110" height="32" class="nonterminal"/>
   <text class="nonterminal" x="363" y="139">schema_name</text>
   <path class="line"
         d="m17 17 h2 m0 0 h10 m62 0 h10 m20 0 h10 m0 0 h62 m-92 0 h20 m72 0 h20 m-112 0 q10 0 10 10 m92 0 q0 -10 10 -10 m-102 10 v12 m92 0 v-12 m-92 12 q0 10 10 10 m72 0 q10 0 10 -10 m-82 10 h10 m52 0 h10 m40 -32 h10 m0 0 h130 m-160 0 h20 m140 0 h20 m-180 0 q10 0 10 10 m160 0 q0 -10 10 -10 m-170 10 v12 m160 0 v-12 m-160 12 q0 10 10 10 m140 0 q10 0 10 -10 m-150 10 h10 m120 0 h10 m20 -32 h10 m86 0 h10 m2 0 l2 0 m2 0 l2 0 m2 0 l2 0 m-280 86 l2 0 m2 0 l2 0 m2 0 l2 0 m22 0 h10 m0 0 h200 m-230 0 h20 m210 0 h20 m-250 0 q10 0 10 10 m230 0 q0 -10 10 -10 m-240 10 v12 m230 0 v-12 m-230 12 q0 10 10 10 m210 0 q10 0 10 -10 m-220 10 h10 m60 0 h10 m0 0 h10 m110 0 h10 m23 -32 h-3"/>
   <polygon points="503 103 511 99 511 107"/>
   <polygon points="503 103 495 99 495 107"/>
</svg>
