<svg xmlns="http://www.w3.org/2000/svg" width="443" height="37">
   <polygon points="9 17 1 13 1 21"/>
   <polygon points="17 17 9 13 9 21"/>
   <rect x="31" y="3" width="64" height="32" rx="10"/>
   <rect x="29"
         y="1"
         width="64"
         height="32"
         class="terminal"
         rx="10"/>
   <text class="terminal" x="39" y="21">SHOW</text>
   <rect x="115" y="3" width="76" height="32" rx="10"/>
   <rect x="113"
         y="1"
         width="76"
         height="32"
         class="terminal"
         rx="10"/>
   <text class="terminal" x="123" y="21">CREATE</text>
   <rect x="211" y="3" width="78" height="32" rx="10"/>
   <rect x="209"
         y="1"
         width="78"
         height="32"
         class="terminal"
         rx="10"/>
   <text class="terminal" x="219" y="21">SOURCE</text>
   <rect x="309" y="3" width="106" height="32"/>
   <rect x="307" y="1" width="106" height="32" class="nonterminal"/>
   <text class="nonterminal" x="317" y="21">source_name</text>
   <path class="line"
         d="m17 17 h2 m0 0 h10 m64 0 h10 m0 0 h10 m76 0 h10 m0 0 h10 m78 0 h10 m0 0 h10 m106 0 h10 m3 0 h-3"/>
   <polygon points="433 17 441 13 441 21"/>
   <polygon points="433 17 425 13 425 21"/>
</svg>
