<svg xmlns="http://www.w3.org/2000/svg" width="397" height="37">
   <polygon points="9 17 1 13 1 21"/>
   <polygon points="17 17 9 13 9 21"/>
   <rect x="31" y="3" width="62" height="32" rx="10"/>
   <rect x="29"
         y="1"
         width="62"
         height="32"
         class="terminal"
         rx="10"/>
   <text class="terminal" x="39" y="21">SHOW</text>
   <rect x="113" y="3" width="74" height="32" rx="10"/>
   <rect x="111"
         y="1"
         width="74"
         height="32"
         class="terminal"
         rx="10"/>
   <text class="terminal" x="121" y="21">CREATE</text>
   <rect x="207" y="3" width="54" height="32" rx="10"/>
   <rect x="205"
         y="1"
         width="54"
         height="32"
         class="terminal"
         rx="10"/>
   <text class="terminal" x="215" y="21">VIEW</text>
   <rect x="281" y="3" width="88" height="32"/>
   <rect x="279" y="1" width="88" height="32" class="nonterminal"/>
   <text class="nonterminal" x="289" y="21">view_name</text>
   <path class="line"
         d="m17 17 h2 m0 0 h10 m62 0 h10 m0 0 h10 m74 0 h10 m0 0 h10 m54 0 h10 m0 0 h10 m88 0 h10 m3 0 h-3"/>
   <polygon points="387 17 395 13 395 21"/>
   <polygon points="387 17 379 13 379 21"/>
</svg>
