<svg xmlns="http://www.w3.org/2000/svg" width="497" height="69">
   <polygon points="9 17 1 13 1 21"/>
   <polygon points="17 17 9 13 9 21"/>
   <rect x="31" y="3" width="64" height="32" rx="10"/>
   <rect x="29"
         y="1"
         width="64"
         height="32"
         class="terminal"
         rx="10"/>
   <text class="terminal" x="39" y="21">SHOW</text>
   <rect x="115" y="3" width="90" height="32" rx="10"/>
   <rect x="113"
         y="1"
         width="90"
         height="32"
         class="terminal"
         rx="10"/>
   <text class="terminal" x="123" y="21">SCHEMAS</text>
   <rect x="245" y="35" width="60" height="32" rx="10"/>
   <rect x="243"
         y="33"
         width="60"
         height="32"
         class="terminal"
         rx="10"/>
   <text class="terminal" x="253" y="53">FROM</text>
   <rect x="325" y="35" width="124" height="32"/>
   <rect x="323" y="33" width="124" height="32" class="nonterminal"/>
   <text class="nonterminal" x="333" y="53">database_name</text>
   <path class="line"
         d="m17 17 h2 m0 0 h10 m64 0 h10 m0 0 h10 m90 0 h10 m20 0 h10 m0 0 h214 m-244 0 h20 m224 0 h20 m-264 0 q10 0 10 10 m244 0 q0 -10 10 -10 m-254 10 v12 m244 0 v-12 m-244 12 q0 10 10 10 m224 0 q10 0 10 -10 m-234 10 h10 m60 0 h10 m0 0 h10 m124 0 h10 m23 -32 h-3"/>
   <polygon points="487 17 495 13 495 21"/>
   <polygon points="487 17 479 13 479 21"/>
</svg>
