<svg xmlns="http://www.w3.org/2000/svg" width="203" height="37">
   <polygon points="9 17 1 13 1 21"/>
   <polygon points="17 17 9 13 9 21"/>
   <rect x="31" y="3" width="62" height="32" rx="10"/>
   <rect x="29"
         y="1"
         width="62"
         height="32"
         class="terminal"
         rx="10"/>
   <text class="terminal" x="39" y="21">SHOW</text>
   <rect x="113" y="3" width="62" height="32" rx="10"/>
   <rect x="111"
         y="1"
         width="62"
         height="32"
         class="terminal"
         rx="10"/>
   <text class="terminal" x="121" y="21">SINKS</text>
   <path class="line"
         d="m17 17 h2 m0 0 h10 m62 0 h10 m0 0 h10 m62 0 h10 m3 0 h-3"/>
   <polygon points="193 17 201 13 201 21"/>
   <polygon points="193 17 185 13 185 21"/>
</svg>
