<svg xmlns="http://www.w3.org/2000/svg" width="491" height="195">
   <polygon points="9 17 1 13 1 21"/>
   <polygon points="17 17 9 13 9 21"/>
   <rect x="31" y="3" width="68" height="32" rx="10"/>
   <rect x="29"
         y="1"
         width="68"
         height="32"
         class="terminal"
         rx="10"/>
   <text class="terminal" x="39" y="21">KAFKA</text>
   <rect x="119" y="3" width="116" height="32" rx="10"/>
   <rect x="117"
         y="1"
         width="116"
         height="32"
         class="terminal"
         rx="10"/>
   <text class="terminal" x="127" y="21">CONNECTION</text>
   <rect x="255" y="3" width="52" height="32"/>
   <rect x="253" y="1" width="52" height="32" class="nonterminal"/>
   <text class="nonterminal" x="263" y="21">conn</text>
   <rect x="347" y="35" width="102" height="32"/>
   <rect x="345" y="33" width="102" height="32" class="nonterminal"/>
   <text class="nonterminal" x="355" y="53">with_options</text>
   <rect x="145" y="145" width="48" height="32" rx="10"/>
   <rect x="143"
         y="143"
         width="48"
         height="32"
         class="terminal"
         rx="10"/>
   <text class="terminal" x="153" y="163">KEY</text>
   <rect x="213" y="145" width="26" height="32" rx="10"/>
   <rect x="211"
         y="143"
         width="26"
         height="32"
         class="terminal"
         rx="10"/>
   <text class="terminal" x="221" y="163">(</text>
   <rect x="279" y="145" width="98" height="32"/>
   <rect x="277" y="143" width="98" height="32" class="nonterminal"/>
   <text class="nonterminal" x="287" y="163">key_column</text>
   <rect x="279" y="101" width="24" height="32" rx="10"/>
   <rect x="277"
         y="99"
         width="24"
         height="32"
         class="terminal"
         rx="10"/>
   <text class="terminal" x="287" y="119">,</text>
   <rect x="417" y="145" width="26" height="32" rx="10"/>
   <rect x="415"
         y="143"
         width="26"
         height="32"
         class="terminal"
         rx="10"/>
   <text class="terminal" x="425" y="163">)</text>
   <path class="line"
         d="m17 17 h2 m0 0 h10 m68 0 h10 m0 0 h10 m116 0 h10 m0 0 h10 m52 0 h10 m20 0 h10 m0 0 h112 m-142 0 h20 m122 0 h20 m-162 0 q10 0 10 10 m142 0 q0 -10 10 -10 m-152 10 v12 m142 0 v-12 m-142 12 q0 10 10 10 m122 0 q10 0 10 -10 m-132 10 h10 m102 0 h10 m22 -32 l2 0 m2 0 l2 0 m2 0 l2 0 m-388 142 l2 0 m2 0 l2 0 m2 0 l2 0 m22 0 h10 m48 0 h10 m0 0 h10 m26 0 h10 m20 0 h10 m98 0 h10 m-138 0 l20 0 m-1 0 q-9 0 -9 -10 l0 -24 q0 -10 10 -10 m118 44 l20 0 m-20 0 q10 0 10 -10 l0 -24 q0 -10 -10 -10 m-118 0 h10 m24 0 h10 m0 0 h74 m20 44 h10 m26 0 h10 m-338 0 h20 m318 0 h20 m-358 0 q10 0 10 10 m338 0 q0 -10 10 -10 m-348 10 v14 m338 0 v-14 m-338 14 q0 10 10 10 m318 0 q10 0 10 -10 m-328 10 h10 m0 0 h308 m23 -34 h-3"/>
   <polygon points="481 159 489 155 489 163"/>
   <polygon points="481 159 473 155 473 163"/>
</svg>
