<svg xmlns="http://www.w3.org/2000/svg" width="693" height="113">
   <polygon points="9 17 1 13 1 21"/>
   <polygon points="17 17 9 13 9 21"/>
   <rect x="51" y="3" width="110" height="32" rx="10"/>
   <rect x="49"
         y="1"
         width="110"
         height="32"
         class="terminal"
         rx="10"/>
   <text class="terminal" x="59" y="21">AVRO USING</text>
   <rect x="181" y="3" width="246" height="32" rx="10"/>
   <rect x="179"
         y="1"
         width="246"
         height="32"
         class="terminal"
         rx="10"/>
   <text class="terminal" x="189" y="21">CONFLUENT SCHEMA REGISTRY</text>
   <rect x="447" y="3" width="36" height="32"/>
   <rect x="445" y="1" width="36" height="32" class="nonterminal"/>
   <text class="nonterminal" x="455" y="21">url</text>
   <rect x="523" y="35" width="102" height="32"/>
   <rect x="521" y="33" width="102" height="32" class="nonterminal"/>
   <text class="nonterminal" x="531" y="53">with_options</text>
   <rect x="51" y="79" width="58" height="32" rx="10"/>
   <rect x="49"
         y="77"
         width="58"
         height="32"
         class="terminal"
         rx="10"/>
   <text class="terminal" x="59" y="97">JSON</text>
   <path class="line"
         d="m17 17 h2 m20 0 h10 m110 0 h10 m0 0 h10 m246 0 h10 m0 0 h10 m36 0 h10 m20 0 h10 m0 0 h112 m-142 0 h20 m122 0 h20 m-162 0 q10 0 10 10 m142 0 q0 -10 10 -10 m-152 10 v12 m142 0 v-12 m-142 12 q0 10 10 10 m122 0 q10 0 10 -10 m-132 10 h10 m102 0 h10 m-614 -32 h20 m614 0 h20 m-654 0 q10 0 10 10 m634 0 q0 -10 10 -10 m-644 10 v56 m634 0 v-56 m-634 56 q0 10 10 10 m614 0 q10 0 10 -10 m-624 10 h10 m58 0 h10 m0 0 h536 m23 -76 h-3"/>
   <polygon points="683 17 691 13 691 21"/>
   <polygon points="683 17 675 13 675 21"/>
</svg>
