<svg xmlns="http://www.w3.org/2000/svg" width="1099" height="435">
   <polygon points="9 17 1 13 1 21"/>
   <polygon points="17 17 9 13 9 21"/>
   <rect x="31" y="3" width="130" height="32" rx="10"/>
   <rect x="29"
         y="1"
         width="130"
         height="32"
         class="terminal"
         rx="10"/>
   <text class="terminal" x="39" y="21">KAFKA BROKER</text>
   <rect x="181" y="3" width="48" height="32"/>
   <rect x="179" y="1" width="48" height="32" class="nonterminal"/>
   <text class="nonterminal" x="189" y="21">host</text>
   <rect x="249" y="3" width="64" height="32" rx="10"/>
   <rect x="247"
         y="1"
         width="64"
         height="32"
         class="terminal"
         rx="10"/>
   <text class="terminal" x="257" y="21">TOPIC</text>
   <rect x="333" y="3" width="98" height="32"/>
   <rect x="331" y="1" width="98" height="32" class="nonterminal"/>
   <text class="nonterminal" x="341" y="21">topic-prefix</text>
   <rect x="402" y="113" width="48" height="32" rx="10"/>
   <rect x="400"
         y="111"
         width="48"
         height="32"
         class="terminal"
         rx="10"/>
   <text class="terminal" x="410" y="131">KEY</text>
   <rect x="470" y="113" width="26" height="32" rx="10"/>
   <rect x="468"
         y="111"
         width="26"
         height="32"
         class="terminal"
         rx="10"/>
   <text class="terminal" x="478" y="131">(</text>
   <rect x="536" y="113" width="98" height="32"/>
   <rect x="534" y="111" width="98" height="32" class="nonterminal"/>
   <text class="nonterminal" x="544" y="131">key_column</text>
   <rect x="536" y="69" width="24" height="32" rx="10"/>
   <rect x="534"
         y="67"
         width="24"
         height="32"
         class="terminal"
         rx="10"/>
   <text class="terminal" x="544" y="87">,</text>
   <rect x="674" y="113" width="26" height="32" rx="10"/>
   <rect x="672"
         y="111"
         width="26"
         height="32"
         class="terminal"
         rx="10"/>
   <text class="terminal" x="682" y="131">)</text>
   <rect x="45" y="211" width="122" height="32" rx="10"/>
   <rect x="43"
         y="209"
         width="122"
         height="32"
         class="terminal"
         rx="10"/>
   <text class="terminal" x="53" y="229">CONSISTENCY</text>
   <rect x="187" y="211" width="64" height="32" rx="10"/>
   <rect x="185"
         y="209"
         width="64"
         height="32"
         class="terminal"
         rx="10"/>
   <text class="terminal" x="195" y="229">TOPIC</text>
   <rect x="271" y="211" width="52" height="32"/>
   <rect x="269" y="209" width="52" height="32" class="nonterminal"/>
   <text class="nonterminal" x="279" y="229">topic</text>
   <rect x="363" y="243" width="122" height="32" rx="10"/>
   <rect x="361"
         y="241"
         width="122"
         height="32"
         class="terminal"
         rx="10"/>
   <text class="terminal" x="371" y="261">CONSISTENCY</text>
   <rect x="505" y="243" width="80" height="32" rx="10"/>
   <rect x="503"
         y="241"
         width="80"
         height="32"
         class="terminal"
         rx="10"/>
   <text class="terminal" x="513" y="261">FORMAT</text>
   <rect x="605" y="243" width="110" height="32" rx="10"/>
   <rect x="603"
         y="241"
         width="110"
         height="32"
         class="terminal"
         rx="10"/>
   <text class="terminal" x="613" y="261">AVRO USING</text>
   <rect x="735" y="243" width="246" height="32" rx="10"/>
   <rect x="733"
         y="241"
         width="246"
         height="32"
         class="terminal"
         rx="10"/>
   <text class="terminal" x="743" y="261">CONFLUENT SCHEMA REGISTRY</text>
   <rect x="1001" y="243" width="36" height="32"/>
   <rect x="999" y="241" width="36" height="32" class="nonterminal"/>
   <text class="nonterminal" x="1009" y="261">url</text>
   <rect x="527" y="353" width="58" height="32" rx="10"/>
   <rect x="525"
         y="351"
         width="58"
         height="32"
         class="terminal"
         rx="10"/>
   <text class="terminal" x="535" y="371">WITH</text>
   <rect x="605" y="353" width="26" height="32" rx="10"/>
   <rect x="603"
         y="351"
         width="26"
         height="32"
         class="terminal"
         rx="10"/>
   <text class="terminal" x="613" y="371">(</text>
   <rect x="671" y="353" width="104" height="32"/>
   <rect x="669" y="351" width="104" height="32" class="nonterminal"/>
   <text class="nonterminal" x="679" y="371">option_name</text>
   <rect x="815" y="385" width="28" height="32" rx="10"/>
   <rect x="813"
         y="383"
         width="28"
         height="32"
         class="terminal"
         rx="10"/>
   <text class="terminal" x="823" y="403">=</text>
   <rect x="863" y="385" width="102" height="32"/>
   <rect x="861" y="383" width="102" height="32" class="nonterminal"/>
   <text class="nonterminal" x="871" y="403">option_value</text>
   <rect x="671" y="309" width="24" height="32" rx="10"/>
   <rect x="669"
         y="307"
         width="24"
         height="32"
         class="terminal"
         rx="10"/>
   <text class="terminal" x="679" y="327">,</text>
   <rect x="1025" y="353" width="26" height="32" rx="10"/>
   <rect x="1023"
         y="351"
         width="26"
         height="32"
         class="terminal"
         rx="10"/>
   <text class="terminal" x="1033" y="371">)</text>
   <path class="line"
         d="m17 17 h2 m0 0 h10 m130 0 h10 m0 0 h10 m48 0 h10 m0 0 h10 m64 0 h10 m0 0 h10 m98 0 h10 m2 0 l2 0 m2 0 l2 0 m2 0 l2 0 m-93 110 l2 0 m2 0 l2 0 m2 0 l2 0 m22 0 h10 m48 0 h10 m0 0 h10 m26 0 h10 m20 0 h10 m98 0 h10 m-138 0 l20 0 m-1 0 q-9 0 -9 -10 l0 -24 q0 -10 10 -10 m118 44 l20 0 m-20 0 q10 0 10 -10 l0 -24 q0 -10 -10 -10 m-118 0 h10 m24 0 h10 m0 0 h74 m20 44 h10 m26 0 h10 m-338 0 h20 m318 0 h20 m-358 0 q10 0 10 10 m338 0 q0 -10 10 -10 m-348 10 v14 m338 0 v-14 m-338 14 q0 10 10 10 m318 0 q10 0 10 -10 m-328 10 h10 m0 0 h308 m22 -34 l2 0 m2 0 l2 0 m2 0 l2 0 m-739 66 l2 0 m2 0 l2 0 m2 0 l2 0 m22 0 h10 m0 0 h1022 m-1052 0 h20 m1032 0 h20 m-1072 0 q10 0 10 10 m1052 0 q0 -10 10 -10 m-1062 10 v12 m1052 0 v-12 m-1052 12 q0 10 10 10 m1032 0 q10 0 10 -10 m-1042 10 h10 m122 0 h10 m0 0 h10 m64 0 h10 m0 0 h10 m52 0 h10 m20 0 h10 m0 0 h684 m-714 0 h20 m694 0 h20 m-734 0 q10 0 10 10 m714 0 q0 -10 10 -10 m-724 10 v12 m714 0 v-12 m-714 12 q0 10 10 10 m694 0 q10 0 10 -10 m-704 10 h10 m122 0 h10 m0 0 h10 m80 0 h10 m0 0 h10 m110 0 h10 m0 0 h10 m246 0 h10 m0 0 h10 m36 0 h10 m42 -64 l2 0 m2 0 l2 0 m2 0 l2 0 m-614 174 l2 0 m2 0 l2 0 m2 0 l2 0 m22 0 h10 m58 0 h10 m0 0 h10 m26 0 h10 m20 0 h10 m104 0 h10 m20 0 h10 m0 0 h160 m-190 0 h20 m170 0 h20 m-210 0 q10 0 10 10 m190 0 q0 -10 10 -10 m-200 10 v12 m190 0 v-12 m-190 12 q0 10 10 10 m170 0 q10 0 10 -10 m-180 10 h10 m28 0 h10 m0 0 h10 m102 0 h10 m-334 -32 l20 0 m-1 0 q-9 0 -9 -10 l0 -24 q0 -10 10 -10 m334 44 l20 0 m-20 0 q10 0 10 -10 l0 -24 q0 -10 -10 -10 m-334 0 h10 m24 0 h10 m0 0 h290 m20 44 h10 m26 0 h10 m-564 0 h20 m544 0 h20 m-584 0 q10 0 10 10 m564 0 q0 -10 10 -10 m-574 10 v46 m564 0 v-46 m-564 46 q0 10 10 10 m544 0 q10 0 10 -10 m-554 10 h10 m0 0 h534 m23 -66 h-3"/>
   <polygon points="1089 367 1097 363 1097 371"/>
   <polygon points="1089 367 1081 363 1081 371"/>
</svg>
