<svg xmlns="http://www.w3.org/2000/svg" width="1075" height="469">
   <polygon points="9 17 1 13 1 21"/>
   <polygon points="17 17 9 13 9 21"/>
   <rect x="31" y="3" width="126" height="32" rx="10"/>
   <rect x="29"
         y="1"
         width="126"
         height="32"
         class="terminal"
         rx="10"/>
   <text class="terminal" x="39" y="21">KAFKA BROKER</text>
   <rect x="177" y="3" width="46" height="32"/>
   <rect x="175" y="1" width="46" height="32" class="nonterminal"/>
   <text class="nonterminal" x="185" y="21">host</text>
   <rect x="243" y="3" width="62" height="32" rx="10"/>
   <rect x="241"
         y="1"
         width="62"
         height="32"
         class="terminal"
         rx="10"/>
   <text class="terminal" x="251" y="21">TOPIC</text>
   <rect x="325" y="3" width="90" height="32"/>
   <rect x="323" y="1" width="90" height="32" class="nonterminal"/>
   <text class="nonterminal" x="333" y="21">topic-prefix</text>
   <rect x="395" y="113" width="46" height="32" rx="10"/>
   <rect x="393"
         y="111"
         width="46"
         height="32"
         class="terminal"
         rx="10"/>
   <text class="terminal" x="403" y="131">KEY</text>
   <rect x="461" y="113" width="24" height="32" rx="10"/>
   <rect x="459"
         y="111"
         width="24"
         height="32"
         class="terminal"
         rx="10"/>
   <text class="terminal" x="469" y="131">(</text>
   <rect x="525" y="113" width="94" height="32"/>
   <rect x="523" y="111" width="94" height="32" class="nonterminal"/>
   <text class="nonterminal" x="533" y="131">key_column</text>
   <rect x="525" y="69" width="24" height="32" rx="10"/>
   <rect x="523"
         y="67"
         width="24"
         height="32"
         class="terminal"
         rx="10"/>
   <text class="terminal" x="533" y="87">,</text>
   <rect x="659" y="113" width="24" height="32" rx="10"/>
   <rect x="657"
         y="111"
         width="24"
         height="32"
         class="terminal"
         rx="10"/>
   <text class="terminal" x="667" y="131">)</text>
   <rect x="45" y="211" width="118" height="32" rx="10"/>
   <rect x="43"
         y="209"
         width="118"
         height="32"
         class="terminal"
         rx="10"/>
   <text class="terminal" x="53" y="229">CONSISTENCY</text>
   <rect x="183" y="211" width="62" height="32" rx="10"/>
   <rect x="181"
         y="209"
         width="62"
         height="32"
         class="terminal"
         rx="10"/>
   <text class="terminal" x="191" y="229">TOPIC</text>
   <rect x="265" y="211" width="50" height="32"/>
   <rect x="263" y="209" width="50" height="32" class="nonterminal"/>
   <text class="nonterminal" x="273" y="229">topic</text>
   <rect x="355" y="243" width="118" height="32" rx="10"/>
   <rect x="353"
         y="241"
         width="118"
         height="32"
         class="terminal"
         rx="10"/>
   <text class="terminal" x="363" y="261">CONSISTENCY</text>
   <rect x="493" y="243" width="78" height="32" rx="10"/>
   <rect x="491"
         y="241"
         width="78"
         height="32"
         class="terminal"
         rx="10"/>
   <text class="terminal" x="501" y="261">FORMAT</text>
   <rect x="591" y="243" width="106" height="32" rx="10"/>
   <rect x="589"
         y="241"
         width="106"
         height="32"
         class="terminal"
         rx="10"/>
   <text class="terminal" x="599" y="261">AVRO USING</text>
   <rect x="717" y="243" width="240" height="32" rx="10"/>
   <rect x="715"
         y="241"
         width="240"
         height="32"
         class="terminal"
         rx="10"/>
   <text class="terminal" x="725" y="261">CONFLUENT SCHEMA REGISTRY</text>
   <rect x="977" y="243" width="36" height="32"/>
   <rect x="975" y="241" width="36" height="32" class="nonterminal"/>
   <text class="nonterminal" x="985" y="261">url</text>
   <rect x="313" y="353" width="56" height="32" rx="10"/>
   <rect x="311"
         y="351"
         width="56"
         height="32"
         class="terminal"
         rx="10"/>
   <text class="terminal" x="321" y="371">WITH</text>
   <rect x="389" y="353" width="24" height="32" rx="10"/>
   <rect x="387"
         y="351"
         width="24"
         height="32"
         class="terminal"
         rx="10"/>
   <text class="terminal" x="397" y="371">(</text>
   <rect x="453" y="353" width="46" height="32"/>
   <rect x="451" y="351" width="46" height="32" class="nonterminal"/>
   <text class="nonterminal" x="461" y="371">field</text>
   <rect x="519" y="353" width="26" height="32" rx="10"/>
   <rect x="517"
         y="351"
         width="26"
         height="32"
         class="terminal"
         rx="10"/>
   <text class="terminal" x="527" y="371">=</text>
   <rect x="565" y="353" width="38" height="32"/>
   <rect x="563" y="351" width="38" height="32" class="nonterminal"/>
   <text class="nonterminal" x="573" y="371">val</text>
   <rect x="453" y="309" width="24" height="32" rx="10"/>
   <rect x="451"
         y="307"
         width="24"
         height="32"
         class="terminal"
         rx="10"/>
   <text class="terminal" x="461" y="327">,</text>
   <rect x="643" y="353" width="24" height="32" rx="10"/>
   <rect x="641"
         y="351"
         width="24"
         height="32"
         class="terminal"
         rx="10"/>
   <text class="terminal" x="651" y="371">)</text>
   <rect x="707" y="353" width="78" height="32" rx="10"/>
   <rect x="705"
         y="351"
         width="78"
         height="32"
         class="terminal"
         rx="10"/>
   <text class="terminal" x="715" y="371">FORMAT</text>
   <rect x="625" y="435" width="106" height="32" rx="10"/>
   <rect x="623"
         y="433"
         width="106"
         height="32"
         class="terminal"
         rx="10"/>
   <text class="terminal" x="633" y="453">AVRO USING</text>
   <rect x="751" y="435" width="240" height="32" rx="10"/>
   <rect x="749"
         y="433"
         width="240"
         height="32"
         class="terminal"
         rx="10"/>
   <text class="terminal" x="759" y="453">CONFLUENT SCHEMA REGISTRY</text>
   <rect x="1011" y="435" width="36" height="32"/>
   <rect x="1009" y="433" width="36" height="32" class="nonterminal"/>
   <text class="nonterminal" x="1019" y="453">url</text>
   <path class="line"
         d="m17 17 h2 m0 0 h10 m126 0 h10 m0 0 h10 m46 0 h10 m0 0 h10 m62 0 h10 m0 0 h10 m90 0 h10 m2 0 l2 0 m2 0 l2 0 m2 0 l2 0 m-84 110 l2 0 m2 0 l2 0 m2 0 l2 0 m22 0 h10 m46 0 h10 m0 0 h10 m24 0 h10 m20 0 h10 m94 0 h10 m-134 0 l20 0 m-1 0 q-9 0 -9 -10 l0 -24 q0 -10 10 -10 m114 44 l20 0 m-20 0 q10 0 10 -10 l0 -24 q0 -10 -10 -10 m-114 0 h10 m24 0 h10 m0 0 h70 m20 44 h10 m24 0 h10 m-328 0 h20 m308 0 h20 m-348 0 q10 0 10 10 m328 0 q0 -10 10 -10 m-338 10 v14 m328 0 v-14 m-328 14 q0 10 10 10 m308 0 q10 0 10 -10 m-318 10 h10 m0 0 h298 m22 -34 l2 0 m2 0 l2 0 m2 0 l2 0 m-722 66 l2 0 m2 0 l2 0 m2 0 l2 0 m22 0 h10 m0 0 h998 m-1028 0 h20 m1008 0 h20 m-1048 0 q10 0 10 10 m1028 0 q0 -10 10 -10 m-1038 10 v12 m1028 0 v-12 m-1028 12 q0 10 10 10 m1008 0 q10 0 10 -10 m-1018 10 h10 m118 0 h10 m0 0 h10 m62 0 h10 m0 0 h10 m50 0 h10 m20 0 h10 m0 0 h668 m-698 0 h20 m678 0 h20 m-718 0 q10 0 10 10 m698 0 q0 -10 10 -10 m-708 10 v12 m698 0 v-12 m-698 12 q0 10 10 10 m678 0 q10 0 10 -10 m-688 10 h10 m118 0 h10 m0 0 h10 m78 0 h10 m0 0 h10 m106 0 h10 m0 0 h10 m240 0 h10 m0 0 h10 m36 0 h10 m42 -64 l2 0 m2 0 l2 0 m2 0 l2 0 m-804 174 l2 0 m2 0 l2 0 m2 0 l2 0 m22 0 h10 m56 0 h10 m0 0 h10 m24 0 h10 m20 0 h10 m46 0 h10 m0 0 h10 m26 0 h10 m0 0 h10 m38 0 h10 m-190 0 l20 0 m-1 0 q-9 0 -9 -10 l0 -24 q0 -10 10 -10 m170 44 l20 0 m-20 0 q10 0 10 -10 l0 -24 q0 -10 -10 -10 m-170 0 h10 m24 0 h10 m0 0 h126 m20 44 h10 m24 0 h10 m-394 0 h20 m374 0 h20 m-414 0 q10 0 10 10 m394 0 q0 -10 10 -10 m-404 10 v14 m394 0 v-14 m-394 14 q0 10 10 10 m374 0 q10 0 10 -10 m-384 10 h10 m0 0 h364 m20 -34 h10 m78 0 h10 m2 0 l2 0 m2 0 l2 0 m2 0 l2 0 m-204 82 l2 0 m2 0 l2 0 m2 0 l2 0 m2 0 h10 m106 0 h10 m0 0 h10 m240 0 h10 m0 0 h10 m36 0 h10 m3 0 h-3"/>
   <polygon points="1065 449 1073 445 1073 453"/>
   <polygon points="1065 449 1057 445 1057 453"/>
</svg>
