<svg xmlns="http://www.w3.org/2000/svg" width="539" height="355">
   <polygon points="9 17 1 13 1 21"/>
   <polygon points="17 17 9 13 9 21"/>
   <rect x="31" y="3" width="126" height="32" rx="10"/>
   <rect x="29"
         y="1"
         width="126"
         height="32"
         class="terminal"
         rx="10"/>
   <text class="terminal" x="39" y="21">KAFKA BROKER</text>
   <rect x="177" y="3" width="46" height="32"/>
   <rect x="175" y="1" width="46" height="32" class="nonterminal"/>
   <text class="nonterminal" x="185" y="21">host</text>
   <rect x="243" y="3" width="62" height="32" rx="10"/>
   <rect x="241"
         y="1"
         width="62"
         height="32"
         class="terminal"
         rx="10"/>
   <text class="terminal" x="251" y="21">TOPIC</text>
   <rect x="325" y="3" width="90" height="32"/>
   <rect x="323" y="1" width="90" height="32" class="nonterminal"/>
   <text class="nonterminal" x="333" y="21">topic-prefix</text>
   <rect x="45" y="113" width="56" height="32" rx="10"/>
   <rect x="43"
         y="111"
         width="56"
         height="32"
         class="terminal"
         rx="10"/>
   <text class="terminal" x="53" y="131">WITH</text>
   <rect x="121" y="113" width="24" height="32" rx="10"/>
   <rect x="119"
         y="111"
         width="24"
         height="32"
         class="terminal"
         rx="10"/>
   <text class="terminal" x="129" y="131">(</text>
   <rect x="185" y="113" width="46" height="32"/>
   <rect x="183" y="111" width="46" height="32" class="nonterminal"/>
   <text class="nonterminal" x="193" y="131">field</text>
   <rect x="251" y="113" width="26" height="32" rx="10"/>
   <rect x="249"
         y="111"
         width="26"
         height="32"
         class="terminal"
         rx="10"/>
   <text class="terminal" x="259" y="131">=</text>
   <rect x="297" y="113" width="38" height="32"/>
   <rect x="295" y="111" width="38" height="32" class="nonterminal"/>
   <text class="nonterminal" x="305" y="131">val</text>
   <rect x="185" y="69" width="24" height="32" rx="10"/>
   <rect x="183"
         y="67"
         width="24"
         height="32"
         class="terminal"
         rx="10"/>
   <text class="terminal" x="193" y="87">,</text>
   <rect x="375" y="113" width="24" height="32" rx="10"/>
   <rect x="373"
         y="111"
         width="24"
         height="32"
         class="terminal"
         rx="10"/>
   <text class="terminal" x="383" y="131">)</text>
   <rect x="439" y="113" width="78" height="32" rx="10"/>
   <rect x="437"
         y="111"
         width="78"
         height="32"
         class="terminal"
         rx="10"/>
   <text class="terminal" x="447" y="131">FORMAT</text>
   <rect x="60" y="195" width="106" height="32" rx="10"/>
   <rect x="58"
         y="193"
         width="106"
         height="32"
         class="terminal"
         rx="10"/>
   <text class="terminal" x="68" y="213">AVRO USING</text>
   <rect x="186" y="195" width="240" height="32" rx="10"/>
   <rect x="184"
         y="193"
         width="240"
         height="32"
         class="terminal"
         rx="10"/>
   <text class="terminal" x="194" y="213">CONFLUENT SCHEMA REGISTRY</text>
   <rect x="446" y="195" width="36" height="32"/>
   <rect x="444" y="193" width="36" height="32" class="nonterminal"/>
   <text class="nonterminal" x="454" y="213">url</text>
   <rect x="203" y="305" width="46" height="32" rx="10"/>
   <rect x="201"
         y="303"
         width="46"
         height="32"
         class="terminal"
         rx="10"/>
   <text class="terminal" x="211" y="323">KEY</text>
   <rect x="269" y="305" width="24" height="32" rx="10"/>
   <rect x="267"
         y="303"
         width="24"
         height="32"
         class="terminal"
         rx="10"/>
   <text class="terminal" x="277" y="323">(</text>
   <rect x="333" y="305" width="94" height="32"/>
   <rect x="331" y="303" width="94" height="32" class="nonterminal"/>
   <text class="nonterminal" x="341" y="323">key_column</text>
   <rect x="333" y="261" width="24" height="32" rx="10"/>
   <rect x="331"
         y="259"
         width="24"
         height="32"
         class="terminal"
         rx="10"/>
   <text class="terminal" x="341" y="279">,</text>
   <rect x="467" y="305" width="24" height="32" rx="10"/>
   <rect x="465"
         y="303"
         width="24"
         height="32"
         class="terminal"
         rx="10"/>
   <text class="terminal" x="475" y="323">)</text>
   <path class="line"
         d="m17 17 h2 m0 0 h10 m126 0 h10 m0 0 h10 m46 0 h10 m0 0 h10 m62 0 h10 m0 0 h10 m90 0 h10 m2 0 l2 0 m2 0 l2 0 m2 0 l2 0 m-434 110 l2 0 m2 0 l2 0 m2 0 l2 0 m22 0 h10 m56 0 h10 m0 0 h10 m24 0 h10 m20 0 h10 m46 0 h10 m0 0 h10 m26 0 h10 m0 0 h10 m38 0 h10 m-190 0 l20 0 m-1 0 q-9 0 -9 -10 l0 -24 q0 -10 10 -10 m170 44 l20 0 m-20 0 q10 0 10 -10 l0 -24 q0 -10 -10 -10 m-170 0 h10 m24 0 h10 m0 0 h126 m20 44 h10 m24 0 h10 m-394 0 h20 m374 0 h20 m-414 0 q10 0 10 10 m394 0 q0 -10 10 -10 m-404 10 v14 m394 0 v-14 m-394 14 q0 10 10 10 m374 0 q10 0 10 -10 m-384 10 h10 m0 0 h364 m20 -34 h10 m78 0 h10 m2 0 l2 0 m2 0 l2 0 m2 0 l2 0 m-501 82 l2 0 m2 0 l2 0 m2 0 l2 0 m2 0 h10 m106 0 h10 m0 0 h10 m240 0 h10 m0 0 h10 m36 0 h10 m2 0 l2 0 m2 0 l2 0 m2 0 l2 0 m-343 110 l2 0 m2 0 l2 0 m2 0 l2 0 m22 0 h10 m46 0 h10 m0 0 h10 m24 0 h10 m20 0 h10 m94 0 h10 m-134 0 l20 0 m-1 0 q-9 0 -9 -10 l0 -24 q0 -10 10 -10 m114 44 l20 0 m-20 0 q10 0 10 -10 l0 -24 q0 -10 -10 -10 m-114 0 h10 m24 0 h10 m0 0 h70 m20 44 h10 m24 0 h10 m-328 0 h20 m308 0 h20 m-348 0 q10 0 10 10 m328 0 q0 -10 10 -10 m-338 10 v14 m328 0 v-14 m-328 14 q0 10 10 10 m308 0 q10 0 10 -10 m-318 10 h10 m0 0 h298 m23 -34 h-3"/>
   <polygon points="529 319 537 315 537 323"/>
   <polygon points="529 319 521 315 521 323"/>
</svg>
