<svg xmlns="http://www.w3.org/2000/svg" width="1075" height="485">
   <polygon points="9 17 1 13 1 21"/>
   <polygon points="17 17 9 13 9 21"/>
   <rect x="31" y="3" width="126" height="32" rx="10"/>
   <rect x="29"
         y="1"
         width="126"
         height="32"
         class="terminal"
         rx="10"/>
   <text class="terminal" x="39" y="21">KAFKA BROKER</text>
   <rect x="177" y="3" width="46" height="32"/>
   <rect x="175" y="1" width="46" height="32" class="nonterminal"/>
   <text class="nonterminal" x="185" y="21">host</text>
   <rect x="243" y="3" width="62" height="32" rx="10"/>
   <rect x="241"
         y="1"
         width="62"
         height="32"
         class="terminal"
         rx="10"/>
   <text class="terminal" x="251" y="21">TOPIC</text>
   <rect x="325" y="3" width="90" height="32"/>
   <rect x="323" y="1" width="90" height="32" class="nonterminal"/>
   <text class="nonterminal" x="333" y="21">topic-prefix</text>
   <rect x="395" y="113" width="46" height="32" rx="10"/>
   <rect x="393"
         y="111"
         width="46"
         height="32"
         class="terminal"
         rx="10"/>
   <text class="terminal" x="403" y="131">KEY</text>
   <rect x="461" y="113" width="24" height="32" rx="10"/>
   <rect x="459"
         y="111"
         width="24"
         height="32"
         class="terminal"
         rx="10"/>
   <text class="terminal" x="469" y="131">(</text>
   <rect x="525" y="113" width="94" height="32"/>
   <rect x="523" y="111" width="94" height="32" class="nonterminal"/>
   <text class="nonterminal" x="533" y="131">key_column</text>
   <rect x="525" y="69" width="24" height="32" rx="10"/>
   <rect x="523"
         y="67"
         width="24"
         height="32"
         class="terminal"
         rx="10"/>
   <text class="terminal" x="533" y="87">,</text>
   <rect x="659" y="113" width="24" height="32" rx="10"/>
   <rect x="657"
         y="111"
         width="24"
         height="32"
         class="terminal"
         rx="10"/>
   <text class="terminal" x="667" y="131">)</text>
   <rect x="45" y="211" width="118" height="32" rx="10"/>
   <rect x="43"
         y="209"
         width="118"
         height="32"
         class="terminal"
         rx="10"/>
   <text class="terminal" x="53" y="229">CONSISTENCY</text>
   <rect x="183" y="211" width="62" height="32" rx="10"/>
   <rect x="181"
         y="209"
         width="62"
         height="32"
         class="terminal"
         rx="10"/>
   <text class="terminal" x="191" y="229">TOPIC</text>
   <rect x="265" y="211" width="50" height="32"/>
   <rect x="263" y="209" width="50" height="32" class="nonterminal"/>
   <text class="nonterminal" x="273" y="229">topic</text>
   <rect x="355" y="243" width="118" height="32" rx="10"/>
   <rect x="353"
         y="241"
         width="118"
         height="32"
         class="terminal"
         rx="10"/>
   <text class="terminal" x="363" y="261">CONSISTENCY</text>
   <rect x="493" y="243" width="78" height="32" rx="10"/>
   <rect x="491"
         y="241"
         width="78"
         height="32"
         class="terminal"
         rx="10"/>
   <text class="terminal" x="501" y="261">FORMAT</text>
   <rect x="591" y="243" width="106" height="32" rx="10"/>
   <rect x="589"
         y="241"
         width="106"
         height="32"
         class="terminal"
         rx="10"/>
   <text class="terminal" x="599" y="261">AVRO USING</text>
   <rect x="717" y="243" width="240" height="32" rx="10"/>
   <rect x="715"
         y="241"
         width="240"
         height="32"
         class="terminal"
         rx="10"/>
   <text class="terminal" x="725" y="261">CONFLUENT SCHEMA REGISTRY</text>
   <rect x="977" y="243" width="36" height="32"/>
   <rect x="975" y="241" width="36" height="32" class="nonterminal"/>
   <text class="nonterminal" x="985" y="261">url</text>
   <rect x="441" y="341" width="98" height="32"/>
   <rect x="439" y="339" width="98" height="32" class="nonterminal"/>
   <text class="nonterminal" x="449" y="359">with_options</text>
   <rect x="579" y="309" width="78" height="32" rx="10"/>
   <rect x="577"
         y="307"
         width="78"
         height="32"
         class="terminal"
         rx="10"/>
   <text class="terminal" x="587" y="327">FORMAT</text>
   <rect x="605" y="407" width="106" height="32" rx="10"/>
   <rect x="603"
         y="405"
         width="106"
         height="32"
         class="terminal"
         rx="10"/>
   <text class="terminal" x="613" y="425">AVRO USING</text>
   <rect x="731" y="407" width="240" height="32" rx="10"/>
   <rect x="729"
         y="405"
         width="240"
         height="32"
         class="terminal"
         rx="10"/>
   <text class="terminal" x="739" y="425">CONFLUENT SCHEMA REGISTRY</text>
   <rect x="991" y="407" width="36" height="32"/>
   <rect x="989" y="405" width="36" height="32" class="nonterminal"/>
   <text class="nonterminal" x="999" y="425">url</text>
   <rect x="605" y="451" width="54" height="32" rx="10"/>
   <rect x="603"
         y="449"
         width="54"
         height="32"
         class="terminal"
         rx="10"/>
   <text class="terminal" x="613" y="469">JSON</text>
   <path class="line"
         d="m17 17 h2 m0 0 h10 m126 0 h10 m0 0 h10 m46 0 h10 m0 0 h10 m62 0 h10 m0 0 h10 m90 0 h10 m2 0 l2 0 m2 0 l2 0 m2 0 l2 0 m-84 110 l2 0 m2 0 l2 0 m2 0 l2 0 m22 0 h10 m46 0 h10 m0 0 h10 m24 0 h10 m20 0 h10 m94 0 h10 m-134 0 l20 0 m-1 0 q-9 0 -9 -10 l0 -24 q0 -10 10 -10 m114 44 l20 0 m-20 0 q10 0 10 -10 l0 -24 q0 -10 -10 -10 m-114 0 h10 m24 0 h10 m0 0 h70 m20 44 h10 m24 0 h10 m-328 0 h20 m308 0 h20 m-348 0 q10 0 10 10 m328 0 q0 -10 10 -10 m-338 10 v14 m328 0 v-14 m-328 14 q0 10 10 10 m308 0 q10 0 10 -10 m-318 10 h10 m0 0 h298 m22 -34 l2 0 m2 0 l2 0 m2 0 l2 0 m-722 66 l2 0 m2 0 l2 0 m2 0 l2 0 m22 0 h10 m0 0 h998 m-1028 0 h20 m1008 0 h20 m-1048 0 q10 0 10 10 m1028 0 q0 -10 10 -10 m-1038 10 v12 m1028 0 v-12 m-1028 12 q0 10 10 10 m1008 0 q10 0 10 -10 m-1018 10 h10 m118 0 h10 m0 0 h10 m62 0 h10 m0 0 h10 m50 0 h10 m20 0 h10 m0 0 h668 m-698 0 h20 m678 0 h20 m-718 0 q10 0 10 10 m698 0 q0 -10 10 -10 m-708 10 v12 m698 0 v-12 m-698 12 q0 10 10 10 m678 0 q10 0 10 -10 m-688 10 h10 m118 0 h10 m0 0 h10 m78 0 h10 m0 0 h10 m106 0 h10 m0 0 h10 m240 0 h10 m0 0 h10 m36 0 h10 m42 -64 l2 0 m2 0 l2 0 m2 0 l2 0 m-676 130 l2 0 m2 0 l2 0 m2 0 l2 0 m22 0 h10 m0 0 h108 m-138 0 h20 m118 0 h20 m-158 0 q10 0 10 10 m138 0 q0 -10 10 -10 m-148 10 v12 m138 0 v-12 m-138 12 q0 10 10 10 m118 0 q10 0 10 -10 m-128 10 h10 m98 0 h10 m20 -32 h10 m78 0 h10 m2 0 l2 0 m2 0 l2 0 m2 0 l2 0 m-116 98 l2 0 m2 0 l2 0 m2 0 l2 0 m22 0 h10 m106 0 h10 m0 0 h10 m240 0 h10 m0 0 h10 m36 0 h10 m-462 0 h20 m442 0 h20 m-482 0 q10 0 10 10 m462 0 q0 -10 10 -10 m-472 10 v24 m462 0 v-24 m-462 24 q0 10 10 10 m442 0 q10 0 10 -10 m-452 10 h10 m54 0 h10 m0 0 h368 m23 -44 h-3"/>
   <polygon points="1065 421 1073 417 1073 425"/>
   <polygon points="1065 421 1057 417 1057 425"/>
</svg>
