<svg xmlns="http://www.w3.org/2000/svg" width="589" height="489">
   <polygon points="9 17 1 13 1 21"/>
   <polygon points="17 17 9 13 9 21"/>
   <rect x="51" y="35" width="104" height="32" rx="10"/>
   <rect x="49"
         y="33"
         width="104"
         height="32"
         class="terminal"
         rx="10"/>
   <text class="terminal" x="59" y="53">IN CLUSTER</text>
   <rect x="175" y="35" width="108" height="32"/>
   <rect x="173" y="33" width="108" height="32" class="nonterminal"/>
   <text class="nonterminal" x="183" y="53">cluster_name</text>
   <rect x="323" y="3" width="60" height="32" rx="10"/>
   <rect x="321"
         y="1"
         width="60"
         height="32"
         class="terminal"
         rx="10"/>
   <text class="terminal" x="331" y="21">FROM</text>
   <rect x="403" y="3" width="90" height="32"/>
   <rect x="401" y="1" width="90" height="32" class="nonterminal"/>
   <text class="nonterminal" x="411" y="21">item_name</text>
   <rect x="513" y="3" width="54" height="32" rx="10"/>
   <rect x="511"
         y="1"
         width="54"
         height="32"
         class="terminal"
         rx="10"/>
   <text class="terminal" x="521" y="21">INTO</text>
   <rect x="212" y="101" width="168" height="32"/>
   <rect x="210" y="99" width="168" height="32" class="nonterminal"/>
   <text class="nonterminal" x="220" y="119">kafka_sink_connection</text>
   <rect x="52" y="211" width="48" height="32" rx="10"/>
   <rect x="50"
         y="209"
         width="48"
         height="32"
         class="terminal"
         rx="10"/>
   <text class="terminal" x="60" y="229">KEY</text>
   <rect x="120" y="211" width="26" height="32" rx="10"/>
   <rect x="118"
         y="209"
         width="26"
         height="32"
         class="terminal"
         rx="10"/>
   <text class="terminal" x="128" y="229">(</text>
   <rect x="186" y="211" width="98" height="32"/>
   <rect x="184" y="209" width="98" height="32" class="nonterminal"/>
   <text class="nonterminal" x="194" y="229">key_column</text>
   <rect x="186" y="167" width="24" height="32" rx="10"/>
   <rect x="184"
         y="165"
         width="24"
         height="32"
         class="terminal"
         rx="10"/>
   <text class="terminal" x="194" y="185">,</text>
   <rect x="324" y="211" width="26" height="32" rx="10"/>
   <rect x="322"
         y="209"
         width="26"
         height="32"
         class="terminal"
         rx="10"/>
   <text class="terminal" x="332" y="229">)</text>
   <rect x="390" y="243" width="130" height="32" rx="10"/>
   <rect x="388"
         y="241"
         width="130"
         height="32"
         class="terminal"
         rx="10"/>
   <text class="terminal" x="398" y="261">NOT ENFORCED</text>
   <rect x="46" y="357" width="80" height="32" rx="10"/>
   <rect x="44"
         y="355"
         width="80"
         height="32"
         class="terminal"
         rx="10"/>
   <text class="terminal" x="54" y="375">FORMAT</text>
   <rect x="146" y="357" width="134" height="32"/>
   <rect x="144" y="355" width="134" height="32" class="nonterminal"/>
   <text class="nonterminal" x="154" y="375">sink_format_spec</text>
   <rect x="320" y="325" width="94" height="32" rx="10"/>
   <rect x="318"
         y="323"
         width="94"
         height="32"
         class="terminal"
         rx="10"/>
   <text class="terminal" x="328" y="343">ENVELOPE</text>
   <rect x="454" y="325" width="92" height="32" rx="10"/>
   <rect x="452"
         y="323"
         width="92"
         height="32"
         class="terminal"
         rx="10"/>
   <text class="terminal" x="462" y="343">DEBEZIUM</text>
   <rect x="454" y="369" width="76" height="32" rx="10"/>
   <rect x="452"
         y="367"
         width="76"
         height="32"
         class="terminal"
         rx="10"/>
   <text class="terminal" x="462" y="387">UPSERT</text>
   <rect x="361" y="455" width="58" height="32" rx="10"/>
   <rect x="359"
         y="453"
         width="58"
         height="32"
         class="terminal"
         rx="10"/>
   <text class="terminal" x="369" y="473">WITH</text>
   <rect x="439" y="455" width="102" height="32"/>
   <rect x="437" y="453" width="102" height="32" class="nonterminal"/>
   <text class="nonterminal" x="447" y="473">with_options</text>
   <path class="line"
         d="m17 17 h2 m20 0 h10 m0 0 h242 m-272 0 h20 m252 0 h20 m-292 0 q10 0 10 10 m272 0 q0 -10 10 -10 m-282 10 v12 m272 0 v-12 m-272 12 q0 10 10 10 m252 0 q10 0 10 -10 m-262 10 h10 m104 0 h10 m0 0 h10 m108 0 h10 m20 -32 h10 m60 0 h10 m0 0 h10 m90 0 h10 m0 0 h10 m54 0 h10 m2 0 l2 0 m2 0 l2 0 m2 0 l2 0 m-399 98 l2 0 m2 0 l2 0 m2 0 l2 0 m2 0 h10 m168 0 h10 m2 0 l2 0 m2 0 l2 0 m2 0 l2 0 m-392 110 l2 0 m2 0 l2 0 m2 0 l2 0 m22 0 h10 m48 0 h10 m0 0 h10 m26 0 h10 m20 0 h10 m98 0 h10 m-138 0 l20 0 m-1 0 q-9 0 -9 -10 l0 -24 q0 -10 10 -10 m118 44 l20 0 m-20 0 q10 0 10 -10 l0 -24 q0 -10 -10 -10 m-118 0 h10 m24 0 h10 m0 0 h74 m20 44 h10 m26 0 h10 m20 0 h10 m0 0 h140 m-170 0 h20 m150 0 h20 m-190 0 q10 0 10 10 m170 0 q0 -10 10 -10 m-180 10 v12 m170 0 v-12 m-170 12 q0 10 10 10 m150 0 q10 0 10 -10 m-160 10 h10 m130 0 h10 m-508 -32 h20 m508 0 h20 m-548 0 q10 0 10 10 m528 0 q0 -10 10 -10 m-538 10 v46 m528 0 v-46 m-528 46 q0 10 10 10 m508 0 q10 0 10 -10 m-518 10 h10 m0 0 h498 m22 -66 l2 0 m2 0 l2 0 m2 0 l2 0 m-578 114 l2 0 m2 0 l2 0 m2 0 l2 0 m22 0 h10 m0 0 h244 m-274 0 h20 m254 0 h20 m-294 0 q10 0 10 10 m274 0 q0 -10 10 -10 m-284 10 v12 m274 0 v-12 m-274 12 q0 10 10 10 m254 0 q10 0 10 -10 m-264 10 h10 m80 0 h10 m0 0 h10 m134 0 h10 m20 -32 h10 m94 0 h10 m20 0 h10 m92 0 h10 m-132 0 h20 m112 0 h20 m-152 0 q10 0 10 10 m132 0 q0 -10 10 -10 m-142 10 v24 m132 0 v-24 m-132 24 q0 10 10 10 m112 0 q10 0 10 -10 m-122 10 h10 m76 0 h10 m0 0 h16 m22 -44 l2 0 m2 0 l2 0 m2 0 l2 0 m-269 98 l2 0 m2 0 l2 0 m2 0 l2 0 m22 0 h10 m0 0 h190 m-220 0 h20 m200 0 h20 m-240 0 q10 0 10 10 m220 0 q0 -10 10 -10 m-230 10 v12 m220 0 v-12 m-220 12 q0 10 10 10 m200 0 q10 0 10 -10 m-210 10 h10 m58 0 h10 m0 0 h10 m102 0 h10 m23 -32 h-3"/>
   <polygon points="579 437 587 433 587 441"/>
   <polygon points="579 437 571 433 571 441"/>
</svg>
