<svg xmlns="http://www.w3.org/2000/svg" width="851" height="889">
   <polygon points="11 17 3 13 3 21"/>
   <polygon points="19 17 11 13 11 21"/>
   <rect x="33" y="3" width="100" height="32" rx="10"/>
   <rect x="31"
         y="1"
         width="100"
         height="32"
         class="terminal"
         rx="10"/>
   <text class="terminal" x="41" y="21">SUBSCRIBE</text>
   <rect x="173" y="35" width="40" height="32" rx="10"/>
   <rect x="171"
         y="33"
         width="40"
         height="32"
         class="terminal"
         rx="10"/>
   <text class="terminal" x="181" y="53">TO</text>
   <rect x="273" y="3" width="104" height="32"/>
   <rect x="271" y="1" width="104" height="32" class="nonterminal"/>
   <text class="nonterminal" x="281" y="21">object_name</text>
   <rect x="273" y="47" width="26" height="32" rx="10"/>
   <rect x="271"
         y="45"
         width="26"
         height="32"
         class="terminal"
         rx="10"/>
   <text class="terminal" x="281" y="65">(</text>
   <rect x="319" y="47" width="96" height="32"/>
   <rect x="317" y="45" width="96" height="32" class="nonterminal"/>
   <text class="nonterminal" x="327" y="65">select_stmt</text>
   <rect x="435" y="47" width="26" height="32" rx="10"/>
   <rect x="433"
         y="45"
         width="26"
         height="32"
         class="terminal"
         rx="10"/>
   <text class="terminal" x="443" y="65">)</text>
   <rect x="166" y="189" width="58" height="32" rx="10"/>
   <rect x="164"
         y="187"
         width="58"
         height="32"
         class="terminal"
         rx="10"/>
   <text class="terminal" x="174" y="207">WITH</text>
   <rect x="264" y="157" width="26" height="32" rx="10"/>
   <rect x="262"
         y="155"
         width="26"
         height="32"
         class="terminal"
         rx="10"/>
   <text class="terminal" x="272" y="175">(</text>
   <rect x="330" y="157" width="104" height="32"/>
   <rect x="328" y="155" width="104" height="32" class="nonterminal"/>
   <text class="nonterminal" x="338" y="175">option_name</text>
   <rect x="474" y="189" width="28" height="32" rx="10"/>
   <rect x="472"
         y="187"
         width="28"
         height="32"
         class="terminal"
         rx="10"/>
   <text class="terminal" x="482" y="207">=</text>
   <rect x="522" y="189" width="102" height="32"/>
   <rect x="520" y="187" width="102" height="32" class="nonterminal"/>
   <text class="nonterminal" x="530" y="207">option_value</text>
   <rect x="330" y="113" width="24" height="32" rx="10"/>
   <rect x="328"
         y="111"
         width="24"
         height="32"
         class="terminal"
         rx="10"/>
   <text class="terminal" x="338" y="131">,</text>
   <rect x="684" y="157" width="26" height="32" rx="10"/>
   <rect x="682"
         y="155"
         width="26"
         height="32"
         class="terminal"
         rx="10"/>
   <text class="terminal" x="692" y="175">)</text>
   <rect x="192" y="287" width="40" height="32" rx="10"/>
   <rect x="190"
         y="285"
         width="40"
         height="32"
         class="terminal"
         rx="10"/>
   <text class="terminal" x="200" y="305">AS</text>
   <rect x="252" y="287" width="38" height="32" rx="10"/>
   <rect x="250"
         y="285"
         width="38"
         height="32"
         class="terminal"
         rx="10"/>
   <text class="terminal" x="260" y="305">OF</text>
   <rect x="330" y="319" width="40" height="32" rx="10"/>
   <rect x="328"
         y="317"
         width="40"
         height="32"
         class="terminal"
         rx="10"/>
   <text class="terminal" x="338" y="337">AT</text>
   <rect x="390" y="319" width="66" height="32" rx="10"/>
   <rect x="388"
         y="317"
         width="66"
         height="32"
         class="terminal"
         rx="10"/>
   <text class="terminal" x="398" y="337">LEAST</text>
   <rect x="496" y="287" width="168" height="32"/>
   <rect x="494" y="285" width="168" height="32" class="nonterminal"/>
   <text class="nonterminal" x="504" y="305">timestamp_expression</text>
   <rect x="285" y="401" width="38" height="32" rx="10"/>
   <rect x="283"
         y="399"
         width="38"
         height="32"
         class="terminal"
         rx="10"/>
   <text class="terminal" x="293" y="419">UP</text>
   <rect x="343" y="401" width="40" height="32" rx="10"/>
   <rect x="341"
         y="399"
         width="40"
         height="32"
         class="terminal"
         rx="10"/>
   <text class="terminal" x="351" y="419">TO</text>
   <rect x="403" y="401" width="168" height="32"/>
   <rect x="401" y="399" width="168" height="32" class="nonterminal"/>
   <text class="nonterminal" x="411" y="419">timestamp_expression</text>
   <rect x="145" y="511" width="94" height="32" rx="10"/>
   <rect x="143"
         y="509"
         width="94"
         height="32"
         class="terminal"
         rx="10"/>
   <text class="terminal" x="153" y="529">ENVELOPE</text>
   <rect x="259" y="511" width="76" height="32" rx="10"/>
   <rect x="257"
         y="509"
         width="76"
         height="32"
         class="terminal"
         rx="10"/>
   <text class="terminal" x="267" y="529">UPSERT</text>
   <rect x="355" y="511" width="26" height="32" rx="10"/>
   <rect x="353"
         y="509"
         width="26"
         height="32"
         class="terminal"
         rx="10"/>
   <text class="terminal" x="363" y="529">(</text>
   <rect x="401" y="511" width="48" height="32" rx="10"/>
   <rect x="399"
         y="509"
         width="48"
         height="32"
         class="terminal"
         rx="10"/>
   <text class="terminal" x="409" y="529">KEY</text>
   <rect x="469" y="511" width="26" height="32" rx="10"/>
   <rect x="467"
         y="509"
         width="26"
         height="32"
         class="terminal"
         rx="10"/>
   <text class="terminal" x="477" y="529">(</text>
   <rect x="535" y="511" width="64" height="32"/>
   <rect x="533" y="509" width="64" height="32" class="nonterminal"/>
   <text class="nonterminal" x="543" y="529">col_ref</text>
   <rect x="535" y="467" width="24" height="32" rx="10"/>
   <rect x="533"
         y="465"
         width="24"
         height="32"
         class="terminal"
         rx="10"/>
   <text class="terminal" x="543" y="485">,</text>
   <rect x="639" y="511" width="26" height="32" rx="10"/>
   <rect x="637"
         y="509"
         width="26"
         height="32"
         class="terminal"
         rx="10"/>
   <text class="terminal" x="647" y="529">)</text>
   <rect x="685" y="511" width="26" height="32" rx="10"/>
   <rect x="683"
         y="509"
         width="26"
         height="32"
         class="terminal"
         rx="10"/>
   <text class="terminal" x="693" y="529">)</text>
   <rect x="137" y="637" width="94" height="32" rx="10"/>
   <rect x="135"
         y="635"
         width="94"
         height="32"
         class="terminal"
         rx="10"/>
   <text class="terminal" x="145" y="655">ENVELOPE</text>
   <rect x="251" y="637" width="92" height="32" rx="10"/>
   <rect x="249"
         y="635"
         width="92"
         height="32"
         class="terminal"
         rx="10"/>
   <text class="terminal" x="259" y="655">DEBEZIUM</text>
   <rect x="363" y="637" width="26" height="32" rx="10"/>
   <rect x="361"
         y="635"
         width="26"
         height="32"
         class="terminal"
         rx="10"/>
   <text class="terminal" x="371" y="655">(</text>
   <rect x="409" y="637" width="48" height="32" rx="10"/>
   <rect x="407"
         y="635"
         width="48"
         height="32"
         class="terminal"
         rx="10"/>
   <text class="terminal" x="417" y="655">KEY</text>
   <rect x="477" y="637" width="26" height="32" rx="10"/>
   <rect x="475"
         y="635"
         width="26"
         height="32"
         class="terminal"
         rx="10"/>
   <text class="terminal" x="485" y="655">(</text>
   <rect x="543" y="637" width="64" height="32"/>
   <rect x="541" y="635" width="64" height="32" class="nonterminal"/>
   <text class="nonterminal" x="551" y="655">col_ref</text>
   <rect x="543" y="593" width="24" height="32" rx="10"/>
   <rect x="541"
         y="591"
         width="24"
         height="32"
         class="terminal"
         rx="10"/>
   <text class="terminal" x="551" y="611">,</text>
   <rect x="647" y="637" width="26" height="32" rx="10"/>
   <rect x="645"
         y="635"
         width="26"
         height="32"
         class="terminal"
         rx="10"/>
   <text class="terminal" x="655" y="655">)</text>
   <rect x="693" y="637" width="26" height="32" rx="10"/>
   <rect x="691"
         y="635"
         width="26"
         height="32"
         class="terminal"
         rx="10"/>
   <text class="terminal" x="701" y="655">)</text>
   <rect x="45" y="763" width="72" height="32" rx="10"/>
   <rect x="43"
         y="761"
         width="72"
         height="32"
         class="terminal"
         rx="10"/>
   <text class="terminal" x="53" y="781">WITHIN</text>
   <rect x="137" y="763" width="106" height="32" rx="10"/>
   <rect x="135"
         y="761"
         width="106"
         height="32"
         class="terminal"
         rx="10"/>
   <text class="terminal" x="145" y="781">TIMESTAMP</text>
   <rect x="263" y="763" width="68" height="32" rx="10"/>
   <rect x="261"
         y="761"
         width="68"
         height="32"
         class="terminal"
         rx="10"/>
   <text class="terminal" x="271" y="781">ORDER</text>
   <rect x="351" y="763" width="40" height="32" rx="10"/>
   <rect x="349"
         y="761"
         width="40"
         height="32"
         class="terminal"
         rx="10"/>
   <text class="terminal" x="359" y="781">BY</text>
   <rect x="431" y="763" width="64" height="32"/>
   <rect x="429" y="761" width="64" height="32" class="nonterminal"/>
   <text class="nonterminal" x="439" y="781">col_ref</text>
   <rect x="535" y="795" width="50" height="32" rx="10"/>
   <rect x="533"
         y="793"
         width="50"
         height="32"
         class="terminal"
         rx="10"/>
   <text class="terminal" x="543" y="813">ASC</text>
   <rect x="535" y="839" width="58" height="32" rx="10"/>
   <rect x="533"
         y="837"
         width="58"
         height="32"
         class="terminal"
         rx="10"/>
   <text class="terminal" x="543" y="857">DESC</text>
   <rect x="653" y="795" width="106" height="32" rx="10"/>
   <rect x="651"
         y="793"
         width="106"
         height="32"
         class="terminal"
         rx="10"/>
   <text class="terminal" x="661" y="813">NULLS LAST</text>
   <rect x="653" y="839" width="110" height="32" rx="10"/>
   <rect x="651"
         y="837"
         width="110"
         height="32"
         class="terminal"
         rx="10"/>
   <text class="terminal" x="661" y="857">NULLS FIRST</text>
   <rect x="431" y="719" width="24" height="32" rx="10"/>
   <rect x="429"
         y="717"
         width="24"
         height="32"
         class="terminal"
         rx="10"/>
   <text class="terminal" x="439" y="737">,</text>
   <path class="line"
         d="m19 17 h2 m0 0 h10 m100 0 h10 m20 0 h10 m0 0 h50 m-80 0 h20 m60 0 h20 m-100 0 q10 0 10 10 m80 0 q0 -10 10 -10 m-90 10 v12 m80 0 v-12 m-80 12 q0 10 10 10 m60 0 q10 0 10 -10 m-70 10 h10 m40 0 h10 m40 -32 h10 m104 0 h10 m0 0 h84 m-228 0 h20 m208 0 h20 m-248 0 q10 0 10 10 m228 0 q0 -10 10 -10 m-238 10 v24 m228 0 v-24 m-228 24 q0 10 10 10 m208 0 q10 0 10 -10 m-218 10 h10 m26 0 h10 m0 0 h10 m96 0 h10 m0 0 h10 m26 0 h10 m22 -44 l2 0 m2 0 l2 0 m2 0 l2 0 m-399 154 l2 0 m2 0 l2 0 m2 0 l2 0 m42 0 h10 m0 0 h68 m-98 0 h20 m78 0 h20 m-118 0 q10 0 10 10 m98 0 q0 -10 10 -10 m-108 10 v12 m98 0 v-12 m-98 12 q0 10 10 10 m78 0 q10 0 10 -10 m-88 10 h10 m58 0 h10 m20 -32 h10 m26 0 h10 m20 0 h10 m104 0 h10 m20 0 h10 m0 0 h160 m-190 0 h20 m170 0 h20 m-210 0 q10 0 10 10 m190 0 q0 -10 10 -10 m-200 10 v12 m190 0 v-12 m-190 12 q0 10 10 10 m170 0 q10 0 10 -10 m-180 10 h10 m28 0 h10 m0 0 h10 m102 0 h10 m-334 -32 l20 0 m-1 0 q-9 0 -9 -10 l0 -24 q0 -10 10 -10 m334 44 l20 0 m-20 0 q10 0 10 -10 l0 -24 q0 -10 -10 -10 m-334 0 h10 m24 0 h10 m0 0 h290 m20 44 h10 m26 0 h10 m-604 0 h20 m584 0 h20 m-624 0 q10 0 10 10 m604 0 q0 -10 10 -10 m-614 10 v46 m604 0 v-46 m-604 46 q0 10 10 10 m584 0 q10 0 10 -10 m-594 10 h10 m0 0 h574 m22 -66 l2 0 m2 0 l2 0 m2 0 l2 0 m-602 98 l2 0 m2 0 l2 0 m2 0 l2 0 m22 0 h10 m0 0 h482 m-512 0 h20 m492 0 h20 m-532 0 q10 0 10 10 m512 0 q0 -10 10 -10 m-522 10 v12 m512 0 v-12 m-512 12 q0 10 10 10 m492 0 q10 0 10 -10 m-502 10 h10 m40 0 h10 m0 0 h10 m38 0 h10 m20 0 h10 m0 0 h136 m-166 0 h20 m146 0 h20 m-186 0 q10 0 10 10 m166 0 q0 -10 10 -10 m-176 10 v12 m166 0 v-12 m-166 12 q0 10 10 10 m146 0 q10 0 10 -10 m-156 10 h10 m40 0 h10 m0 0 h10 m66 0 h10 m20 -32 h10 m168 0 h10 m22 -32 l2 0 m2 0 l2 0 m2 0 l2 0 m-463 114 l2 0 m2 0 l2 0 m2 0 l2 0 m22 0 h10 m0 0 h296 m-326 0 h20 m306 0 h20 m-346 0 q10 0 10 10 m326 0 q0 -10 10 -10 m-336 10 v12 m326 0 v-12 m-326 12 q0 10 10 10 m306 0 q10 0 10 -10 m-316 10 h10 m38 0 h10 m0 0 h10 m40 0 h10 m0 0 h10 m168 0 h10 m22 -32 l2 0 m2 0 l2 0 m2 0 l2 0 m-510 142 l2 0 m2 0 l2 0 m2 0 l2 0 m22 0 h10 m94 0 h10 m0 0 h10 m76 0 h10 m0 0 h10 m26 0 h10 m0 0 h10 m48 0 h10 m0 0 h10 m26 0 h10 m20 0 h10 m64 0 h10 m-104 0 l20 0 m-1 0 q-9 0 -9 -10 l0 -24 q0 -10 10 -10 m84 44 l20 0 m-20 0 q10 0 10 -10 l0 -24 q0 -10 -10 -10 m-84 0 h10 m24 0 h10 m0 0 h40 m20 44 h10 m26 0 h10 m0 0 h10 m26 0 h10 m-606 0 h20 m586 0 h20 m-626 0 q10 0 10 10 m606 0 q0 -10 10 -10 m-616 10 v14 m606 0 v-14 m-606 14 q0 10 10 10 m586 0 q10 0 10 -10 m-596 10 h10 m0 0 h576 m22 -34 l2 0 m2 0 l2 0 m2 0 l2 0 m-658 126 l2 0 m2 0 l2 0 m2 0 l2 0 m22 0 h10 m94 0 h10 m0 0 h10 m92 0 h10 m0 0 h10 m26 0 h10 m0 0 h10 m48 0 h10 m0 0 h10 m26 0 h10 m20 0 h10 m64 0 h10 m-104 0 l20 0 m-1 0 q-9 0 -9 -10 l0 -24 q0 -10 10 -10 m84 44 l20 0 m-20 0 q10 0 10 -10 l0 -24 q0 -10 -10 -10 m-84 0 h10 m24 0 h10 m0 0 h40 m20 44 h10 m26 0 h10 m0 0 h10 m26 0 h10 m-622 0 h20 m602 0 h20 m-642 0 q10 0 10 10 m622 0 q0 -10 10 -10 m-632 10 v14 m622 0 v-14 m-622 14 q0 10 10 10 m602 0 q10 0 10 -10 m-612 10 h10 m0 0 h592 m22 -34 l2 0 m2 0 l2 0 m2 0 l2 0 m-758 126 l2 0 m2 0 l2 0 m2 0 l2 0 m22 0 h10 m72 0 h10 m0 0 h10 m106 0 h10 m0 0 h10 m68 0 h10 m0 0 h10 m40 0 h10 m20 0 h10 m64 0 h10 m20 0 h10 m0 0 h68 m-98 0 h20 m78 0 h20 m-118 0 q10 0 10 10 m98 0 q0 -10 10 -10 m-108 10 v12 m98 0 v-12 m-98 12 q0 10 10 10 m78 0 q10 0 10 -10 m-88 10 h10 m50 0 h10 m0 0 h8 m-88 -10 v20 m98 0 v-20 m-98 20 v24 m98 0 v-24 m-98 24 q0 10 10 10 m78 0 q10 0 10 -10 m-88 10 h10 m58 0 h10 m40 -76 h10 m0 0 h120 m-150 0 h20 m130 0 h20 m-170 0 q10 0 10 10 m150 0 q0 -10 10 -10 m-160 10 v12 m150 0 v-12 m-150 12 q0 10 10 10 m130 0 q10 0 10 -10 m-140 10 h10 m106 0 h10 m0 0 h4 m-140 -10 v20 m150 0 v-20 m-150 20 v24 m150 0 v-24 m-150 24 q0 10 10 10 m130 0 q10 0 10 -10 m-140 10 h10 m110 0 h10 m-372 -76 l20 0 m-1 0 q-9 0 -9 -10 l0 -24 q0 -10 10 -10 m372 44 l20 0 m-20 0 q10 0 10 -10 l0 -24 q0 -10 -10 -10 m-372 0 h10 m24 0 h10 m0 0 h328 m-778 44 h20 m778 0 h20 m-818 0 q10 0 10 10 m798 0 q0 -10 10 -10 m-808 10 v90 m798 0 v-90 m-798 90 q0 10 10 10 m778 0 q10 0 10 -10 m-788 10 h10 m0 0 h768 m23 -110 h-3"/>
   <polygon points="841 777 849 773 849 781"/>
   <polygon points="841 777 833 773 833 781"/>
</svg>
