<svg xmlns="http://www.w3.org/2000/svg" width="419" height="155">
   <polygon points="9 17 1 13 1 21"/>
   <polygon points="17 17 9 13 9 21"/>
   <rect x="31" y="3" width="50" height="32" rx="10"/>
   <rect x="29"
         y="1"
         width="50"
         height="32"
         class="terminal"
         rx="10"/>
   <text class="terminal" x="39" y="21">TAIL</text>
   <rect x="101" y="3" width="100" height="32"/>
   <rect x="99" y="1" width="100" height="32" class="nonterminal"/>
   <text class="nonterminal" x="109" y="21">object_name</text>
   <rect x="241" y="35" width="136" height="32" rx="10"/>
   <rect x="239"
         y="33"
         width="136"
         height="32"
         class="terminal"
         rx="10"/>
   <text class="terminal" x="249" y="53">WITH SNAPSHOT</text>
   <rect x="133" y="121" width="60" height="32" rx="10"/>
   <rect x="131"
         y="119"
         width="60"
         height="32"
         class="terminal"
         rx="10"/>
   <text class="terminal" x="141" y="139">AS OF</text>
   <rect x="213" y="121" width="158" height="32"/>
   <rect x="211" y="119" width="158" height="32" class="nonterminal"/>
   <text class="nonterminal" x="221" y="139">timestamp_expression</text>
   <path class="line"
         d="m17 17 h2 m0 0 h10 m50 0 h10 m0 0 h10 m100 0 h10 m20 0 h10 m0 0 h146 m-176 0 h20 m156 0 h20 m-196 0 q10 0 10 10 m176 0 q0 -10 10 -10 m-186 10 v12 m176 0 v-12 m-176 12 q0 10 10 10 m156 0 q10 0 10 -10 m-166 10 h10 m136 0 h10 m22 -32 l2 0 m2 0 l2 0 m2 0 l2 0 m-328 86 l2 0 m2 0 l2 0 m2 0 l2 0 m22 0 h10 m0 0 h248 m-278 0 h20 m258 0 h20 m-298 0 q10 0 10 10 m278 0 q0 -10 10 -10 m-288 10 v12 m278 0 v-12 m-278 12 q0 10 10 10 m258 0 q10 0 10 -10 m-268 10 h10 m60 0 h10 m0 0 h10 m158 0 h10 m23 -32 h-3"/>
   <polygon points="409 103 417 99 417 107"/>
   <polygon points="409 103 401 99 401 107"/>
</svg>
