<svg xmlns="http://www.w3.org/2000/svg" width="447" height="199">
   <polygon points="9 17 1 13 1 21"/>
   <polygon points="17 17 9 13 9 21"/>
   <rect x="31" y="3" width="50" height="32" rx="10"/>
   <rect x="29"
         y="1"
         width="50"
         height="32"
         class="terminal"
         rx="10"/>
   <text class="terminal" x="39" y="21">TAIL</text>
   <rect x="101" y="3" width="100" height="32"/>
   <rect x="99" y="1" width="100" height="32" class="nonterminal"/>
   <text class="nonterminal" x="109" y="21">object_name</text>
   <rect x="241" y="35" width="136" height="32" rx="10"/>
   <rect x="239"
         y="33"
         width="136"
         height="32"
         class="terminal"
         rx="10"/>
   <text class="terminal" x="249" y="53">WITH SNAPSHOT</text>
   <rect x="241" y="79" width="164" height="32" rx="10"/>
   <rect x="239"
         y="77"
         width="164"
         height="32"
         class="terminal"
         rx="10"/>
   <text class="terminal" x="249" y="97">WITHOUT SNAPSHOT</text>
   <rect x="161" y="165" width="60" height="32" rx="10"/>
   <rect x="159"
         y="163"
         width="60"
         height="32"
         class="terminal"
         rx="10"/>
   <text class="terminal" x="169" y="183">AS OF</text>
   <rect x="241" y="165" width="158" height="32"/>
   <rect x="239" y="163" width="158" height="32" class="nonterminal"/>
   <text class="nonterminal" x="249" y="183">timestamp_expression</text>
   <path class="line"
         d="m17 17 h2 m0 0 h10 m50 0 h10 m0 0 h10 m100 0 h10 m20 0 h10 m0 0 h174 m-204 0 h20 m184 0 h20 m-224 0 q10 0 10 10 m204 0 q0 -10 10 -10 m-214 10 v12 m204 0 v-12 m-204 12 q0 10 10 10 m184 0 q10 0 10 -10 m-194 10 h10 m136 0 h10 m0 0 h28 m-194 -10 v20 m204 0 v-20 m-204 20 v24 m204 0 v-24 m-204 24 q0 10 10 10 m184 0 q10 0 10 -10 m-194 10 h10 m164 0 h10 m22 -76 l2 0 m2 0 l2 0 m2 0 l2 0 m-328 130 l2 0 m2 0 l2 0 m2 0 l2 0 m22 0 h10 m0 0 h248 m-278 0 h20 m258 0 h20 m-298 0 q10 0 10 10 m278 0 q0 -10 10 -10 m-288 10 v12 m278 0 v-12 m-278 12 q0 10 10 10 m258 0 q10 0 10 -10 m-268 10 h10 m60 0 h10 m0 0 h10 m158 0 h10 m23 -32 h-3"/>
   <polygon points="437 147 445 143 445 151"/>
   <polygon points="437 147 429 143 429 151"/>
</svg>
