<svg xmlns="http://www.w3.org/2000/svg" width="651" height="357">
   <polygon points="9 17 1 13 1 21"/>
   <polygon points="17 17 9 13 9 21"/>
   <rect x="31" y="3" width="52" height="32" rx="10"/>
   <rect x="29"
         y="1"
         width="52"
         height="32"
         class="terminal"
         rx="10"/>
   <text class="terminal" x="39" y="21">TAIL</text>
   <rect x="123" y="3" width="104" height="32"/>
   <rect x="121" y="1" width="104" height="32" class="nonterminal"/>
   <text class="nonterminal" x="131" y="21">object_name</text>
   <rect x="123" y="47" width="26" height="32" rx="10"/>
   <rect x="121"
         y="45"
         width="26"
         height="32"
         class="terminal"
         rx="10"/>
   <text class="terminal" x="131" y="65">(</text>
   <rect x="169" y="47" width="96" height="32"/>
   <rect x="167" y="45" width="96" height="32" class="nonterminal"/>
   <text class="nonterminal" x="177" y="65">select_stmt</text>
   <rect x="285" y="47" width="26" height="32" rx="10"/>
   <rect x="283"
         y="45"
         width="26"
         height="32"
         class="terminal"
         rx="10"/>
   <text class="terminal" x="293" y="65">)</text>
   <rect x="65" y="189" width="58" height="32" rx="10"/>
   <rect x="63"
         y="187"
         width="58"
         height="32"
         class="terminal"
         rx="10"/>
   <text class="terminal" x="73" y="207">WITH</text>
   <rect x="163" y="157" width="26" height="32" rx="10"/>
   <rect x="161"
         y="155"
         width="26"
         height="32"
         class="terminal"
         rx="10"/>
   <text class="terminal" x="171" y="175">(</text>
   <rect x="229" y="157" width="104" height="32"/>
   <rect x="227" y="155" width="104" height="32" class="nonterminal"/>
   <text class="nonterminal" x="237" y="175">option_name</text>
   <rect x="373" y="189" width="28" height="32" rx="10"/>
   <rect x="371"
         y="187"
         width="28"
         height="32"
         class="terminal"
         rx="10"/>
   <text class="terminal" x="381" y="207">=</text>
   <rect x="421" y="189" width="102" height="32"/>
   <rect x="419" y="187" width="102" height="32" class="nonterminal"/>
   <text class="nonterminal" x="429" y="207">option_value</text>
   <rect x="229" y="113" width="24" height="32" rx="10"/>
   <rect x="227"
         y="111"
         width="24"
         height="32"
         class="terminal"
         rx="10"/>
   <text class="terminal" x="237" y="131">,</text>
   <rect x="583" y="157" width="26" height="32" rx="10"/>
   <rect x="581"
         y="155"
         width="26"
         height="32"
         class="terminal"
         rx="10"/>
   <text class="terminal" x="591" y="175">)</text>
   <rect x="131" y="291" width="40" height="32" rx="10"/>
   <rect x="129"
         y="289"
         width="40"
         height="32"
         class="terminal"
         rx="10"/>
   <text class="terminal" x="139" y="309">AS</text>
   <rect x="191" y="291" width="38" height="32" rx="10"/>
   <rect x="189"
         y="289"
         width="38"
         height="32"
         class="terminal"
         rx="10"/>
   <text class="terminal" x="199" y="309">OF</text>
   <rect x="269" y="323" width="40" height="32" rx="10"/>
   <rect x="267"
         y="321"
         width="40"
         height="32"
         class="terminal"
         rx="10"/>
   <text class="terminal" x="277" y="341">AT</text>
   <rect x="329" y="323" width="66" height="32" rx="10"/>
   <rect x="327"
         y="321"
         width="66"
         height="32"
         class="terminal"
         rx="10"/>
   <text class="terminal" x="337" y="341">LEAST</text>
   <rect x="435" y="291" width="168" height="32"/>
   <rect x="433" y="289" width="168" height="32" class="nonterminal"/>
   <text class="nonterminal" x="443" y="309">timestamp_expression</text>
   <path class="line"
         d="m17 17 h2 m0 0 h10 m52 0 h10 m20 0 h10 m104 0 h10 m0 0 h84 m-228 0 h20 m208 0 h20 m-248 0 q10 0 10 10 m228 0 q0 -10 10 -10 m-238 10 v24 m228 0 v-24 m-228 24 q0 10 10 10 m208 0 q10 0 10 -10 m-218 10 h10 m26 0 h10 m0 0 h10 m96 0 h10 m0 0 h10 m26 0 h10 m22 -44 l2 0 m2 0 l2 0 m2 0 l2 0 m-350 154 l2 0 m2 0 l2 0 m2 0 l2 0 m42 0 h10 m0 0 h68 m-98 0 h20 m78 0 h20 m-118 0 q10 0 10 10 m98 0 q0 -10 10 -10 m-108 10 v12 m98 0 v-12 m-98 12 q0 10 10 10 m78 0 q10 0 10 -10 m-88 10 h10 m58 0 h10 m20 -32 h10 m26 0 h10 m20 0 h10 m104 0 h10 m20 0 h10 m0 0 h160 m-190 0 h20 m170 0 h20 m-210 0 q10 0 10 10 m190 0 q0 -10 10 -10 m-200 10 v12 m190 0 v-12 m-190 12 q0 10 10 10 m170 0 q10 0 10 -10 m-180 10 h10 m28 0 h10 m0 0 h10 m102 0 h10 m-334 -32 l20 0 m-1 0 q-9 0 -9 -10 l0 -24 q0 -10 10 -10 m334 44 l20 0 m-20 0 q10 0 10 -10 l0 -24 q0 -10 -10 -10 m-334 0 h10 m24 0 h10 m0 0 h290 m20 44 h10 m26 0 h10 m-604 0 h20 m584 0 h20 m-624 0 q10 0 10 10 m604 0 q0 -10 10 -10 m-614 10 v46 m604 0 v-46 m-604 46 q0 10 10 10 m584 0 q10 0 10 -10 m-594 10 h10 m0 0 h574 m22 -66 l2 0 m2 0 l2 0 m2 0 l2 0 m-562 102 l2 0 m2 0 l2 0 m2 0 l2 0 m22 0 h10 m0 0 h482 m-512 0 h20 m492 0 h20 m-532 0 q10 0 10 10 m512 0 q0 -10 10 -10 m-522 10 v12 m512 0 v-12 m-512 12 q0 10 10 10 m492 0 q10 0 10 -10 m-502 10 h10 m40 0 h10 m0 0 h10 m38 0 h10 m20 0 h10 m0 0 h136 m-166 0 h20 m146 0 h20 m-186 0 q10 0 10 10 m166 0 q0 -10 10 -10 m-176 10 v12 m166 0 v-12 m-166 12 q0 10 10 10 m146 0 q10 0 10 -10 m-156 10 h10 m40 0 h10 m0 0 h10 m66 0 h10 m20 -32 h10 m168 0 h10 m23 -32 h-3"/>
   <polygon points="641 273 649 269 649 277"/>
   <polygon points="641 273 633 269 633 277"/>
</svg>
