<svg xmlns="http://www.w3.org/2000/svg" width="651" height="281">
   <polygon points="9 17 1 13 1 21"/>
   <polygon points="17 17 9 13 9 21"/>
   <rect x="31" y="3" width="52" height="32" rx="10"/>
   <rect x="29"
         y="1"
         width="52"
         height="32"
         class="terminal"
         rx="10"/>
   <text class="terminal" x="39" y="21">TAIL</text>
   <rect x="103" y="3" width="104" height="32"/>
   <rect x="101" y="1" width="104" height="32" class="nonterminal"/>
   <text class="nonterminal" x="111" y="21">object_name</text>
   <rect x="65" y="145" width="58" height="32" rx="10"/>
   <rect x="63"
         y="143"
         width="58"
         height="32"
         class="terminal"
         rx="10"/>
   <text class="terminal" x="73" y="163">WITH</text>
   <rect x="163" y="113" width="26" height="32" rx="10"/>
   <rect x="161"
         y="111"
         width="26"
         height="32"
         class="terminal"
         rx="10"/>
   <text class="terminal" x="171" y="131">(</text>
   <rect x="229" y="113" width="104" height="32"/>
   <rect x="227" y="111" width="104" height="32" class="nonterminal"/>
   <text class="nonterminal" x="237" y="131">option_name</text>
   <rect x="373" y="145" width="28" height="32" rx="10"/>
   <rect x="371"
         y="143"
         width="28"
         height="32"
         class="terminal"
         rx="10"/>
   <text class="terminal" x="381" y="163">=</text>
   <rect x="421" y="145" width="102" height="32"/>
   <rect x="419" y="143" width="102" height="32" class="nonterminal"/>
   <text class="nonterminal" x="429" y="163">option_value</text>
   <rect x="229" y="69" width="24" height="32" rx="10"/>
   <rect x="227"
         y="67"
         width="24"
         height="32"
         class="terminal"
         rx="10"/>
   <text class="terminal" x="237" y="87">,</text>
   <rect x="583" y="113" width="26" height="32" rx="10"/>
   <rect x="581"
         y="111"
         width="26"
         height="32"
         class="terminal"
         rx="10"/>
   <text class="terminal" x="591" y="131">)</text>
   <rect x="353" y="247" width="62" height="32" rx="10"/>
   <rect x="351"
         y="245"
         width="62"
         height="32"
         class="terminal"
         rx="10"/>
   <text class="terminal" x="361" y="265">AS OF</text>
   <rect x="435" y="247" width="168" height="32"/>
   <rect x="433" y="245" width="168" height="32" class="nonterminal"/>
   <text class="nonterminal" x="443" y="265">timestamp_expression</text>
   <path class="line"
         d="m17 17 h2 m0 0 h10 m52 0 h10 m0 0 h10 m104 0 h10 m2 0 l2 0 m2 0 l2 0 m2 0 l2 0 m-226 110 l2 0 m2 0 l2 0 m2 0 l2 0 m42 0 h10 m0 0 h68 m-98 0 h20 m78 0 h20 m-118 0 q10 0 10 10 m98 0 q0 -10 10 -10 m-108 10 v12 m98 0 v-12 m-98 12 q0 10 10 10 m78 0 q10 0 10 -10 m-88 10 h10 m58 0 h10 m20 -32 h10 m26 0 h10 m20 0 h10 m104 0 h10 m20 0 h10 m0 0 h160 m-190 0 h20 m170 0 h20 m-210 0 q10 0 10 10 m190 0 q0 -10 10 -10 m-200 10 v12 m190 0 v-12 m-190 12 q0 10 10 10 m170 0 q10 0 10 -10 m-180 10 h10 m28 0 h10 m0 0 h10 m102 0 h10 m-334 -32 l20 0 m-1 0 q-9 0 -9 -10 l0 -24 q0 -10 10 -10 m334 44 l20 0 m-20 0 q10 0 10 -10 l0 -24 q0 -10 -10 -10 m-334 0 h10 m24 0 h10 m0 0 h290 m20 44 h10 m26 0 h10 m-604 0 h20 m584 0 h20 m-624 0 q10 0 10 10 m604 0 q0 -10 10 -10 m-614 10 v46 m604 0 v-46 m-604 46 q0 10 10 10 m584 0 q10 0 10 -10 m-594 10 h10 m0 0 h574 m22 -66 l2 0 m2 0 l2 0 m2 0 l2 0 m-340 102 l2 0 m2 0 l2 0 m2 0 l2 0 m22 0 h10 m0 0 h260 m-290 0 h20 m270 0 h20 m-310 0 q10 0 10 10 m290 0 q0 -10 10 -10 m-300 10 v12 m290 0 v-12 m-290 12 q0 10 10 10 m270 0 q10 0 10 -10 m-280 10 h10 m62 0 h10 m0 0 h10 m168 0 h10 m23 -32 h-3"/>
   <polygon points="641 229 649 225 649 233"/>
   <polygon points="641 229 633 225 633 233"/>
</svg>
