<svg xmlns="http://www.w3.org/2000/svg" width="635" height="281">
   <polygon points="9 17 1 13 1 21"/>
   <polygon points="17 17 9 13 9 21"/>
   <rect x="31" y="3" width="50" height="32" rx="10"/>
   <rect x="29"
         y="1"
         width="50"
         height="32"
         class="terminal"
         rx="10"/>
   <text class="terminal" x="39" y="21">TAIL</text>
   <rect x="101" y="3" width="100" height="32"/>
   <rect x="99" y="1" width="100" height="32" class="nonterminal"/>
   <text class="nonterminal" x="109" y="21">object_name</text>
   <rect x="65" y="145" width="56" height="32" rx="10"/>
   <rect x="63"
         y="143"
         width="56"
         height="32"
         class="terminal"
         rx="10"/>
   <text class="terminal" x="73" y="163">WITH</text>
   <rect x="161" y="113" width="24" height="32" rx="10"/>
   <rect x="159"
         y="111"
         width="24"
         height="32"
         class="terminal"
         rx="10"/>
   <text class="terminal" x="169" y="131">(</text>
   <rect x="225" y="113" width="100" height="32"/>
   <rect x="223" y="111" width="100" height="32" class="nonterminal"/>
   <text class="nonterminal" x="233" y="131">option_name</text>
   <rect x="365" y="145" width="26" height="32" rx="10"/>
   <rect x="363"
         y="143"
         width="26"
         height="32"
         class="terminal"
         rx="10"/>
   <text class="terminal" x="373" y="163">=</text>
   <rect x="411" y="145" width="98" height="32"/>
   <rect x="409" y="143" width="98" height="32" class="nonterminal"/>
   <text class="nonterminal" x="419" y="163">option_value</text>
   <rect x="225" y="69" width="24" height="32" rx="10"/>
   <rect x="223"
         y="67"
         width="24"
         height="32"
         class="terminal"
         rx="10"/>
   <text class="terminal" x="233" y="87">,</text>
   <rect x="569" y="113" width="24" height="32" rx="10"/>
   <rect x="567"
         y="111"
         width="24"
         height="32"
         class="terminal"
         rx="10"/>
   <text class="terminal" x="577" y="131">)</text>
   <rect x="349" y="247" width="60" height="32" rx="10"/>
   <rect x="347"
         y="245"
         width="60"
         height="32"
         class="terminal"
         rx="10"/>
   <text class="terminal" x="357" y="265">AS OF</text>
   <rect x="429" y="247" width="158" height="32"/>
   <rect x="427" y="245" width="158" height="32" class="nonterminal"/>
   <text class="nonterminal" x="437" y="265">timestamp_expression</text>
   <path class="line"
         d="m17 17 h2 m0 0 h10 m50 0 h10 m0 0 h10 m100 0 h10 m2 0 l2 0 m2 0 l2 0 m2 0 l2 0 m-220 110 l2 0 m2 0 l2 0 m2 0 l2 0 m42 0 h10 m0 0 h66 m-96 0 h20 m76 0 h20 m-116 0 q10 0 10 10 m96 0 q0 -10 10 -10 m-106 10 v12 m96 0 v-12 m-96 12 q0 10 10 10 m76 0 q10 0 10 -10 m-86 10 h10 m56 0 h10 m20 -32 h10 m24 0 h10 m20 0 h10 m100 0 h10 m20 0 h10 m0 0 h154 m-184 0 h20 m164 0 h20 m-204 0 q10 0 10 10 m184 0 q0 -10 10 -10 m-194 10 v12 m184 0 v-12 m-184 12 q0 10 10 10 m164 0 q10 0 10 -10 m-174 10 h10 m26 0 h10 m0 0 h10 m98 0 h10 m-324 -32 l20 0 m-1 0 q-9 0 -9 -10 l0 -24 q0 -10 10 -10 m324 44 l20 0 m-20 0 q10 0 10 -10 l0 -24 q0 -10 -10 -10 m-324 0 h10 m24 0 h10 m0 0 h280 m20 44 h10 m24 0 h10 m-588 0 h20 m568 0 h20 m-608 0 q10 0 10 10 m588 0 q0 -10 10 -10 m-598 10 v46 m588 0 v-46 m-588 46 q0 10 10 10 m568 0 q10 0 10 -10 m-578 10 h10 m0 0 h558 m22 -66 l2 0 m2 0 l2 0 m2 0 l2 0 m-328 102 l2 0 m2 0 l2 0 m2 0 l2 0 m22 0 h10 m0 0 h248 m-278 0 h20 m258 0 h20 m-298 0 q10 0 10 10 m278 0 q0 -10 10 -10 m-288 10 v12 m278 0 v-12 m-278 12 q0 10 10 10 m258 0 q10 0 10 -10 m-268 10 h10 m60 0 h10 m0 0 h10 m158 0 h10 m23 -32 h-3"/>
   <polygon points="625 229 633 225 633 233"/>
   <polygon points="625 229 617 225 617 233"/>
</svg>
