<svg xmlns="http://www.w3.org/2000/svg" width="235" height="477">
   <polygon points="9 17 1 13 1 21"/>
   <polygon points="17 17 9 13 9 21"/>
   <rect x="51" y="3" width="108" height="32" rx="10"/>
   <rect x="49"
         y="1"
         width="108"
         height="32"
         class="terminal"
         rx="10"/>
   <text class="terminal" x="59" y="21">MILLENNIUM</text>
   <rect x="51" y="47" width="88" height="32" rx="10"/>
   <rect x="49"
         y="45"
         width="88"
         height="32"
         class="terminal"
         rx="10"/>
   <text class="terminal" x="59" y="65">CENTURY</text>
   <rect x="51" y="91" width="78" height="32" rx="10"/>
   <rect x="49"
         y="89"
         width="78"
         height="32"
         class="terminal"
         rx="10"/>
   <text class="terminal" x="59" y="109">DECADE</text>
   <rect x="51" y="135" width="58" height="32" rx="10"/>
   <rect x="49"
         y="133"
         width="58"
         height="32"
         class="terminal"
         rx="10"/>
   <text class="terminal" x="59" y="153">YEAR</text>
   <rect x="51" y="179" width="74" height="32" rx="10"/>
   <rect x="49"
         y="177"
         width="74"
         height="32"
         class="terminal"
         rx="10"/>
   <text class="terminal" x="59" y="197">MONTH</text>
   <rect x="51" y="223" width="50" height="32" rx="10"/>
   <rect x="49"
         y="221"
         width="50"
         height="32"
         class="terminal"
         rx="10"/>
   <text class="terminal" x="59" y="241">DAY</text>
   <rect x="51" y="267" width="60" height="32" rx="10"/>
   <rect x="49"
         y="265"
         width="60"
         height="32"
         class="terminal"
         rx="10"/>
   <text class="terminal" x="59" y="285">HOUR</text>
   <rect x="51" y="311" width="74" height="32" rx="10"/>
   <rect x="49"
         y="309"
         width="74"
         height="32"
         class="terminal"
         rx="10"/>
   <text class="terminal" x="59" y="329">MINUTE</text>
   <rect x="51" y="355" width="80" height="32" rx="10"/>
   <rect x="49"
         y="353"
         width="80"
         height="32"
         class="terminal"
         rx="10"/>
   <text class="terminal" x="59" y="373">SECOND</text>
   <rect x="51" y="399" width="126" height="32" rx="10"/>
   <rect x="49"
         y="397"
         width="126"
         height="32"
         class="terminal"
         rx="10"/>
   <text class="terminal" x="59" y="417">MILLISECONDS</text>
   <rect x="51" y="443" width="136" height="32" rx="10"/>
   <rect x="49"
         y="441"
         width="136"
         height="32"
         class="terminal"
         rx="10"/>
   <text class="terminal" x="59" y="461">MICROSECONDS</text>
   <path class="line"
         d="m17 17 h2 m20 0 h10 m108 0 h10 m0 0 h28 m-176 0 h20 m156 0 h20 m-196 0 q10 0 10 10 m176 0 q0 -10 10 -10 m-186 10 v24 m176 0 v-24 m-176 24 q0 10 10 10 m156 0 q10 0 10 -10 m-166 10 h10 m88 0 h10 m0 0 h48 m-166 -10 v20 m176 0 v-20 m-176 20 v24 m176 0 v-24 m-176 24 q0 10 10 10 m156 0 q10 0 10 -10 m-166 10 h10 m78 0 h10 m0 0 h58 m-166 -10 v20 m176 0 v-20 m-176 20 v24 m176 0 v-24 m-176 24 q0 10 10 10 m156 0 q10 0 10 -10 m-166 10 h10 m58 0 h10 m0 0 h78 m-166 -10 v20 m176 0 v-20 m-176 20 v24 m176 0 v-24 m-176 24 q0 10 10 10 m156 0 q10 0 10 -10 m-166 10 h10 m74 0 h10 m0 0 h62 m-166 -10 v20 m176 0 v-20 m-176 20 v24 m176 0 v-24 m-176 24 q0 10 10 10 m156 0 q10 0 10 -10 m-166 10 h10 m50 0 h10 m0 0 h86 m-166 -10 v20 m176 0 v-20 m-176 20 v24 m176 0 v-24 m-176 24 q0 10 10 10 m156 0 q10 0 10 -10 m-166 10 h10 m60 0 h10 m0 0 h76 m-166 -10 v20 m176 0 v-20 m-176 20 v24 m176 0 v-24 m-176 24 q0 10 10 10 m156 0 q10 0 10 -10 m-166 10 h10 m74 0 h10 m0 0 h62 m-166 -10 v20 m176 0 v-20 m-176 20 v24 m176 0 v-24 m-176 24 q0 10 10 10 m156 0 q10 0 10 -10 m-166 10 h10 m80 0 h10 m0 0 h56 m-166 -10 v20 m176 0 v-20 m-176 20 v24 m176 0 v-24 m-176 24 q0 10 10 10 m156 0 q10 0 10 -10 m-166 10 h10 m126 0 h10 m0 0 h10 m-166 -10 v20 m176 0 v-20 m-176 20 v24 m176 0 v-24 m-176 24 q0 10 10 10 m156 0 q10 0 10 -10 m-166 10 h10 m136 0 h10 m23 -440 h-3"/>
   <polygon points="225 17 233 13 233 21"/>
   <polygon points="225 17 217 13 217 21"/>
</svg>
