<svg xmlns="http://www.w3.org/2000/svg" width="225" height="301">
   <polygon points="9 17 1 13 1 21"/>
   <polygon points="17 17 9 13 9 21"/>
   <rect x="51" y="3" width="58" height="32" rx="10"/>
   <rect x="49"
         y="1"
         width="58"
         height="32"
         class="terminal"
         rx="10"/>
   <text class="terminal" x="59" y="21">YEAR</text>
   <rect x="51" y="47" width="74" height="32" rx="10"/>
   <rect x="49"
         y="45"
         width="74"
         height="32"
         class="terminal"
         rx="10"/>
   <text class="terminal" x="59" y="65">MONTH</text>
   <rect x="51" y="91" width="50" height="32" rx="10"/>
   <rect x="49"
         y="89"
         width="50"
         height="32"
         class="terminal"
         rx="10"/>
   <text class="terminal" x="59" y="109">DAY</text>
   <rect x="51" y="135" width="60" height="32" rx="10"/>
   <rect x="49"
         y="133"
         width="60"
         height="32"
         class="terminal"
         rx="10"/>
   <text class="terminal" x="59" y="153">HOUR</text>
   <rect x="51" y="179" width="74" height="32" rx="10"/>
   <rect x="49"
         y="177"
         width="74"
         height="32"
         class="terminal"
         rx="10"/>
   <text class="terminal" x="59" y="197">MINUTE</text>
   <rect x="51" y="223" width="80" height="32" rx="10"/>
   <rect x="49"
         y="221"
         width="80"
         height="32"
         class="terminal"
         rx="10"/>
   <text class="terminal" x="59" y="241">SECOND</text>
   <rect x="51" y="267" width="126" height="32" rx="10"/>
   <rect x="49"
         y="265"
         width="126"
         height="32"
         class="terminal"
         rx="10"/>
   <text class="terminal" x="59" y="285">MILLISECONDS</text>
   <path class="line"
         d="m17 17 h2 m20 0 h10 m58 0 h10 m0 0 h68 m-166 0 h20 m146 0 h20 m-186 0 q10 0 10 10 m166 0 q0 -10 10 -10 m-176 10 v24 m166 0 v-24 m-166 24 q0 10 10 10 m146 0 q10 0 10 -10 m-156 10 h10 m74 0 h10 m0 0 h52 m-156 -10 v20 m166 0 v-20 m-166 20 v24 m166 0 v-24 m-166 24 q0 10 10 10 m146 0 q10 0 10 -10 m-156 10 h10 m50 0 h10 m0 0 h76 m-156 -10 v20 m166 0 v-20 m-166 20 v24 m166 0 v-24 m-166 24 q0 10 10 10 m146 0 q10 0 10 -10 m-156 10 h10 m60 0 h10 m0 0 h66 m-156 -10 v20 m166 0 v-20 m-166 20 v24 m166 0 v-24 m-166 24 q0 10 10 10 m146 0 q10 0 10 -10 m-156 10 h10 m74 0 h10 m0 0 h52 m-156 -10 v20 m166 0 v-20 m-166 20 v24 m166 0 v-24 m-166 24 q0 10 10 10 m146 0 q10 0 10 -10 m-156 10 h10 m80 0 h10 m0 0 h46 m-156 -10 v20 m166 0 v-20 m-166 20 v24 m166 0 v-24 m-166 24 q0 10 10 10 m146 0 q10 0 10 -10 m-156 10 h10 m126 0 h10 m23 -264 h-3"/>
   <polygon points="215 17 223 13 223 21"/>
   <polygon points="215 17 207 13 207 21"/>
</svg>
