<svg xmlns="http://www.w3.org/2000/svg" width="507" height="157">
   <polygon points="9 17 1 13 1 21"/>
   <polygon points="17 17 9 13 9 21"/>
   <rect x="51" y="35" width="26" height="32" rx="10"/>
   <rect x="49"
         y="33"
         width="26"
         height="32"
         class="terminal"
         rx="10"/>
   <text class="terminal" x="59" y="53">+</text>
   <rect x="51" y="79" width="24" height="32" rx="10"/>
   <rect x="49"
         y="77"
         width="24"
         height="32"
         class="terminal"
         rx="10"/>
   <text class="terminal" x="59" y="97">-</text>
   <a xmlns:xlink="http://www.w3.org/1999/xlink"
      xlink:href="#ym_str"
      xlink:title="ym_str">
      <rect x="137" y="3" width="62" height="32"/>
      <rect x="135" y="1" width="62" height="32" class="nonterminal"/>
      <text class="nonterminal" x="145" y="21">ym_str</text>
   </a>
   <a xmlns:xlink="http://www.w3.org/1999/xlink"
      xlink:href="#time_str"
      xlink:title="time_str">
      <rect x="137" y="47" width="70" height="32"/>
      <rect x="135" y="45" width="70" height="32" class="nonterminal"/>
      <text class="nonterminal" x="145" y="65">time_str</text>
   </a>
   <a xmlns:xlink="http://www.w3.org/1999/xlink"
      xlink:href="#int"
      xlink:title="int">
      <rect x="137" y="91" width="36" height="32"/>
      <rect x="135" y="89" width="36" height="32" class="nonterminal"/>
      <text class="nonterminal" x="145" y="109">int</text>
   </a>
   <rect x="213" y="123" width="24" height="32" rx="10"/>
   <rect x="211"
         y="121"
         width="24"
         height="32"
         class="terminal"
         rx="10"/>
   <text class="terminal" x="221" y="141">.</text>
   <a xmlns:xlink="http://www.w3.org/1999/xlink"
      xlink:href="#frac"
      xlink:title="frac">
      <rect x="257" y="123" width="44" height="32"/>
      <rect x="255" y="121" width="44" height="32" class="nonterminal"/>
      <text class="nonterminal" x="265" y="141">frac</text>
   </a>
   <a xmlns:xlink="http://www.w3.org/1999/xlink"
      xlink:href="#time_unit"
      xlink:title="time_unit">
      <rect x="361" y="123" width="78" height="32"/>
      <rect x="359" y="121" width="78" height="32" class="nonterminal"/>
      <text class="nonterminal" x="369" y="141">time_unit</text>
   </a>
   <path class="line"
         d="m17 17 h2 m20 0 h10 m0 0 h36 m-66 0 h20 m46 0 h20 m-86 0 q10 0 10 10 m66 0 q0 -10 10 -10 m-76 10 v12 m66 0 v-12 m-66 12 q0 10 10 10 m46 0 q10 0 10 -10 m-56 10 h10 m26 0 h10 m-56 -10 v20 m66 0 v-20 m-66 20 v24 m66 0 v-24 m-66 24 q0 10 10 10 m46 0 q10 0 10 -10 m-56 10 h10 m24 0 h10 m0 0 h2 m40 -76 h10 m62 0 h10 m0 0 h260 m-362 0 h20 m342 0 h20 m-382 0 q10 0 10 10 m362 0 q0 -10 10 -10 m-372 10 v24 m362 0 v-24 m-362 24 q0 10 10 10 m342 0 q10 0 10 -10 m-352 10 h10 m70 0 h10 m0 0 h252 m-352 -10 v20 m362 0 v-20 m-362 20 v24 m362 0 v-24 m-362 24 q0 10 10 10 m342 0 q10 0 10 -10 m-352 10 h10 m36 0 h10 m20 0 h10 m0 0 h98 m-128 0 h20 m108 0 h20 m-148 0 q10 0 10 10 m128 0 q0 -10 10 -10 m-138 10 v12 m128 0 v-12 m-128 12 q0 10 10 10 m108 0 q10 0 10 -10 m-118 10 h10 m24 0 h10 m0 0 h10 m44 0 h10 m40 -32 h10 m0 0 h88 m-118 0 h20 m98 0 h20 m-138 0 q10 0 10 10 m118 0 q0 -10 10 -10 m-128 10 v12 m118 0 v-12 m-118 12 q0 10 10 10 m98 0 q10 0 10 -10 m-108 10 h10 m78 0 h10 m43 -120 h-3"/>
   <polygon points="497 17 505 13 505 21"/>
   <polygon points="497 17 489 13 489 21"/>
</svg>
