<svg xmlns="http://www.w3.org/2000/svg" width="573" height="255">
   <polygon points="9 17 1 13 1 21"/>
   <polygon points="17 17 9 13 9 21"/>
   <rect x="51" y="3" width="106" height="32" rx="10"/>
   <rect x="49"
         y="1"
         width="106"
         height="32"
         class="terminal"
         rx="10"/>
   <text class="terminal" x="59" y="21">TIMESTAMP</text>
   <rect x="51" y="47" width="124" height="32" rx="10"/>
   <rect x="49"
         y="45"
         width="124"
         height="32"
         class="terminal"
         rx="10"/>
   <text class="terminal" x="59" y="65">TIMESTAMPTZ</text>
   <rect x="215" y="3" width="22" height="32" rx="10"/>
   <rect x="213"
         y="1"
         width="22"
         height="32"
         class="terminal"
         rx="10"/>
   <text class="terminal" x="223" y="21">'</text>
   <rect x="257" y="3" width="74" height="32"/>
   <rect x="255" y="1" width="74" height="32" class="nonterminal"/>
   <text class="nonterminal" x="265" y="21">date_str</text>
   <rect x="391" y="35" width="24" height="32" rx="10"/>
   <rect x="389"
         y="33"
         width="24"
         height="32"
         class="terminal"
         rx="10"/>
   <text class="terminal" x="399" y="53"/>
   <rect x="391" y="79" width="28" height="32" rx="10"/>
   <rect x="389"
         y="77"
         width="28"
         height="32"
         class="terminal"
         rx="10"/>
   <text class="terminal" x="399" y="97">T</text>
   <rect x="459" y="35" width="72" height="32"/>
   <rect x="457" y="33" width="72" height="32" class="nonterminal"/>
   <text class="nonterminal" x="467" y="53">time_str</text>
   <rect x="335" y="177" width="30" height="32" rx="10"/>
   <rect x="333"
         y="175"
         width="30"
         height="32"
         class="terminal"
         rx="10"/>
   <text class="terminal" x="343" y="195">+</text>
   <rect x="335" y="221" width="26" height="32" rx="10"/>
   <rect x="333"
         y="219"
         width="26"
         height="32"
         class="terminal"
         rx="10"/>
   <text class="terminal" x="343" y="239">-</text>
   <rect x="405" y="177" width="78" height="32"/>
   <rect x="403" y="175" width="78" height="32" class="nonterminal"/>
   <text class="nonterminal" x="413" y="195">tz_offset</text>
   <rect x="523" y="145" width="22" height="32" rx="10"/>
   <rect x="521"
         y="143"
         width="22"
         height="32"
         class="terminal"
         rx="10"/>
   <text class="terminal" x="531" y="163">'</text>
   <path class="line"
         d="m17 17 h2 m20 0 h10 m106 0 h10 m0 0 h18 m-164 0 h20 m144 0 h20 m-184 0 q10 0 10 10 m164 0 q0 -10 10 -10 m-174 10 v24 m164 0 v-24 m-164 24 q0 10 10 10 m144 0 q10 0 10 -10 m-154 10 h10 m124 0 h10 m20 -44 h10 m22 0 h10 m0 0 h10 m74 0 h10 m20 0 h10 m0 0 h170 m-200 0 h20 m180 0 h20 m-220 0 q10 0 10 10 m200 0 q0 -10 10 -10 m-210 10 v12 m200 0 v-12 m-200 12 q0 10 10 10 m180 0 q10 0 10 -10 m-170 10 h10 m24 0 h10 m0 0 h4 m-68 0 h20 m48 0 h20 m-88 0 q10 0 10 10 m68 0 q0 -10 10 -10 m-78 10 v24 m68 0 v-24 m-68 24 q0 10 10 10 m48 0 q10 0 10 -10 m-58 10 h10 m28 0 h10 m20 -44 h10 m72 0 h10 m22 -32 l2 0 m2 0 l2 0 m2 0 l2 0 m-300 142 l2 0 m2 0 l2 0 m2 0 l2 0 m22 0 h10 m0 0 h178 m-208 0 h20 m188 0 h20 m-228 0 q10 0 10 10 m208 0 q0 -10 10 -10 m-218 10 v12 m208 0 v-12 m-208 12 q0 10 10 10 m188 0 q10 0 10 -10 m-178 10 h10 m30 0 h10 m-70 0 h20 m50 0 h20 m-90 0 q10 0 10 10 m70 0 q0 -10 10 -10 m-80 10 v24 m70 0 v-24 m-70 24 q0 10 10 10 m50 0 q10 0 10 -10 m-60 10 h10 m26 0 h10 m0 0 h4 m20 -44 h10 m78 0 h10 m20 -32 h10 m22 0 h10 m3 0 h-3"/>
   <polygon points="563 159 571 155 571 163"/>
   <polygon points="563 159 555 155 555 163"/>
</svg>
