<svg xmlns="http://www.w3.org/2000/svg" width="497" height="85">
   <polygon points="9 33 1 29 1 37"/>
   <polygon points="17 33 9 29 9 37"/>
   <rect x="31" y="19" width="54" height="32" rx="10"/>
   <rect x="29"
         y="17"
         width="54"
         height="32"
         class="terminal"
         rx="10"/>
   <text class="terminal" x="39" y="37">ROW</text>
   <rect x="105" y="19" width="24" height="32" rx="10"/>
   <rect x="103"
         y="17"
         width="24"
         height="32"
         class="terminal"
         rx="10"/>
   <text class="terminal" x="113" y="37">(</text>
   <rect x="169" y="51" width="46" height="32"/>
   <rect x="167" y="49" width="46" height="32" class="nonterminal"/>
   <text class="nonterminal" x="177" y="69">expr</text>
   <rect x="295" y="19" width="24" height="32" rx="10"/>
   <rect x="293"
         y="17"
         width="24"
         height="32"
         class="terminal"
         rx="10"/>
   <text class="terminal" x="303" y="37">,</text>
   <rect x="339" y="19" width="46" height="32"/>
   <rect x="337" y="17" width="46" height="32" class="nonterminal"/>
   <text class="nonterminal" x="347" y="37">expr</text>
   <rect x="445" y="19" width="24" height="32" rx="10"/>
   <rect x="443"
         y="17"
         width="24"
         height="32"
         class="terminal"
         rx="10"/>
   <text class="terminal" x="453" y="37">)</text>
   <path class="line"
         d="m17 33 h2 m0 0 h10 m54 0 h10 m0 0 h10 m24 0 h10 m20 0 h10 m0 0 h56 m-86 0 h20 m66 0 h20 m-106 0 q10 0 10 10 m86 0 q0 -10 10 -10 m-96 10 v12 m86 0 v-12 m-86 12 q0 10 10 10 m66 0 q10 0 10 -10 m-76 10 h10 m46 0 h10 m60 -32 h10 m24 0 h10 m0 0 h10 m46 0 h10 m-130 0 l20 0 m-1 0 q-9 0 -9 -10 l0 -12 q0 -10 10 -10 m110 32 l20 0 m-20 0 q10 0 10 -10 l0 -12 q0 -10 -10 -10 m-110 0 h10 m0 0 h100 m-150 32 h20 m150 0 h20 m-190 0 q10 0 10 10 m170 0 q0 -10 10 -10 m-180 10 v14 m170 0 v-14 m-170 14 q0 10 10 10 m150 0 q10 0 10 -10 m-160 10 h10 m0 0 h140 m20 -34 h10 m24 0 h10 m3 0 h-3"/>
   <polygon points="487 33 495 29 495 37"/>
   <polygon points="487 33 479 29 479 37"/>
</svg>
