<svg xmlns="http://www.w3.org/2000/svg" width="515" height="103">
   <polygon points="9 17 1 13 1 21"/>
   <polygon points="17 17 9 13 9 21"/>
   <rect x="31" y="3" width="22" height="32" rx="10"/>
   <rect x="29"
         y="1"
         width="22"
         height="32"
         class="terminal"
         rx="10"/>
   <text class="terminal" x="39" y="21">'</text>
   <rect x="73" y="3" width="90" height="32"/>
   <rect x="71" y="1" width="90" height="32" class="nonterminal"/>
   <text class="nonterminal" x="81" y="21">map_string</text>
   <rect x="183" y="3" width="22" height="32" rx="10"/>
   <rect x="181"
         y="1"
         width="22"
         height="32"
         class="terminal"
         rx="10"/>
   <text class="terminal" x="191" y="21">'</text>
   <rect x="225" y="3" width="26" height="32" rx="10"/>
   <rect x="223"
         y="1"
         width="26"
         height="32"
         class="terminal"
         rx="10"/>
   <text class="terminal" x="233" y="21">::</text>
   <rect x="271" y="3" width="50" height="32" rx="10"/>
   <rect x="269"
         y="1"
         width="50"
         height="32"
         class="terminal"
         rx="10"/>
   <text class="terminal" x="279" y="21">MAP</text>
   <rect x="341" y="3" width="24" height="32" rx="10"/>
   <rect x="339"
         y="1"
         width="24"
         height="32"
         class="terminal"
         rx="10"/>
   <text class="terminal" x="349" y="21">[</text>
   <rect x="385" y="3" width="54" height="32" rx="10"/>
   <rect x="383"
         y="1"
         width="54"
         height="32"
         class="terminal"
         rx="10"/>
   <text class="terminal" x="393" y="21">TEXT</text>
   <rect x="459" y="3" width="34" height="32" rx="10"/>
   <rect x="457"
         y="1"
         width="34"
         height="32"
         class="terminal"
         rx="10"/>
   <text class="terminal" x="467" y="21">=&gt;</text>
   <rect x="357" y="69" width="86" height="32"/>
   <rect x="355" y="67" width="86" height="32" class="nonterminal"/>
   <text class="nonterminal" x="365" y="87">value_type</text>
   <rect x="463" y="69" width="24" height="32" rx="10"/>
   <rect x="461"
         y="67"
         width="24"
         height="32"
         class="terminal"
         rx="10"/>
   <text class="terminal" x="471" y="87">]</text>
   <path class="line"
         d="m17 17 h2 m0 0 h10 m22 0 h10 m0 0 h10 m90 0 h10 m0 0 h10 m22 0 h10 m0 0 h10 m26 0 h10 m0 0 h10 m50 0 h10 m0 0 h10 m24 0 h10 m0 0 h10 m54 0 h10 m0 0 h10 m34 0 h10 m2 0 l2 0 m2 0 l2 0 m2 0 l2 0 m-180 66 l2 0 m2 0 l2 0 m2 0 l2 0 m2 0 h10 m86 0 h10 m0 0 h10 m24 0 h10 m3 0 h-3"/>
   <polygon points="505 83 513 79 513 87"/>
   <polygon points="505 83 497 79 497 87"/>
</svg>
