<svg xmlns="http://www.w3.org/2000/svg" width="521" height="255">
   <polygon points="9 17 1 13 1 21"/>
   <polygon points="17 17 9 13 9 21"/>
   <rect x="51" y="3" width="100" height="32" rx="10"/>
   <rect x="49"
         y="1"
         width="100"
         height="32"
         class="terminal"
         rx="10"/>
   <text class="terminal" x="59" y="21">TIMESTAMP</text>
   <rect x="191" y="35" width="136" height="32" rx="10"/>
   <rect x="189"
         y="33"
         width="136"
         height="32"
         class="terminal"
         rx="10"/>
   <text class="terminal" x="199" y="53">WITH TIME ZONE</text>
   <rect x="51" y="79" width="118" height="32" rx="10"/>
   <rect x="49"
         y="77"
         width="118"
         height="32"
         class="terminal"
         rx="10"/>
   <text class="terminal" x="59" y="97">TIMESTAMPTZ</text>
   <rect x="387" y="3" width="22" height="32" rx="10"/>
   <rect x="385"
         y="1"
         width="22"
         height="32"
         class="terminal"
         rx="10"/>
   <text class="terminal" x="395" y="21">'</text>
   <a xmlns:xlink="http://www.w3.org/1999/xlink"
      xlink:href="#date_str"
      xlink:title="date_str">
      <rect x="429" y="3" width="70" height="32"/>
      <rect x="427" y="1" width="70" height="32" class="nonterminal"/>
      <text class="nonterminal" x="437" y="21">date_str</text>
   </a>
   <rect x="75" y="177" width="24" height="32" rx="10"/>
   <rect x="73"
         y="175"
         width="24"
         height="32"
         class="terminal"
         rx="10"/>
   <text class="terminal" x="83" y="195"/>
   <rect x="75" y="221" width="28" height="32" rx="10"/>
   <rect x="73"
         y="219"
         width="28"
         height="32"
         class="terminal"
         rx="10"/>
   <text class="terminal" x="83" y="239">T</text>
   <a xmlns:xlink="http://www.w3.org/1999/xlink"
      xlink:href="#time_str"
      xlink:title="time_str">
      <rect x="143" y="177" width="70" height="32"/>
      <rect x="141" y="175" width="70" height="32" class="nonterminal"/>
      <text class="nonterminal" x="151" y="195">time_str</text>
   </a>
   <rect x="293" y="177" width="26" height="32" rx="10"/>
   <rect x="291"
         y="175"
         width="26"
         height="32"
         class="terminal"
         rx="10"/>
   <text class="terminal" x="301" y="195">+</text>
   <rect x="293" y="221" width="24" height="32" rx="10"/>
   <rect x="291"
         y="219"
         width="24"
         height="32"
         class="terminal"
         rx="10"/>
   <text class="terminal" x="301" y="239">-</text>
   <a xmlns:xlink="http://www.w3.org/1999/xlink"
      xlink:href="#tz_offset"
      xlink:title="tz_offset">
      <rect x="359" y="177" width="72" height="32"/>
      <rect x="357" y="175" width="72" height="32" class="nonterminal"/>
      <text class="nonterminal" x="367" y="195">tz_offset</text>
   </a>
   <rect x="471" y="145" width="22" height="32" rx="10"/>
   <rect x="469"
         y="143"
         width="22"
         height="32"
         class="terminal"
         rx="10"/>
   <text class="terminal" x="479" y="163">'</text>
   <path class="line"
         d="m17 17 h2 m20 0 h10 m100 0 h10 m20 0 h10 m0 0 h146 m-176 0 h20 m156 0 h20 m-196 0 q10 0 10 10 m176 0 q0 -10 10 -10 m-186 10 v12 m176 0 v-12 m-176 12 q0 10 10 10 m156 0 q10 0 10 -10 m-166 10 h10 m136 0 h10 m-316 -32 h20 m316 0 h20 m-356 0 q10 0 10 10 m336 0 q0 -10 10 -10 m-346 10 v56 m336 0 v-56 m-336 56 q0 10 10 10 m316 0 q10 0 10 -10 m-326 10 h10 m118 0 h10 m0 0 h178 m20 -76 h10 m22 0 h10 m0 0 h10 m70 0 h10 m2 0 l2 0 m2 0 l2 0 m2 0 l2 0 m-508 142 l2 0 m2 0 l2 0 m2 0 l2 0 m22 0 h10 m0 0 h168 m-198 0 h20 m178 0 h20 m-218 0 q10 0 10 10 m198 0 q0 -10 10 -10 m-208 10 v12 m198 0 v-12 m-198 12 q0 10 10 10 m178 0 q10 0 10 -10 m-168 10 h10 m24 0 h10 m0 0 h4 m-68 0 h20 m48 0 h20 m-88 0 q10 0 10 10 m68 0 q0 -10 10 -10 m-78 10 v24 m68 0 v-24 m-68 24 q0 10 10 10 m48 0 q10 0 10 -10 m-58 10 h10 m28 0 h10 m20 -44 h10 m70 0 h10 m40 -32 h10 m0 0 h168 m-198 0 h20 m178 0 h20 m-218 0 q10 0 10 10 m198 0 q0 -10 10 -10 m-208 10 v12 m198 0 v-12 m-198 12 q0 10 10 10 m178 0 q10 0 10 -10 m-168 10 h10 m26 0 h10 m-66 0 h20 m46 0 h20 m-86 0 q10 0 10 10 m66 0 q0 -10 10 -10 m-76 10 v24 m66 0 v-24 m-66 24 q0 10 10 10 m46 0 q10 0 10 -10 m-56 10 h10 m24 0 h10 m0 0 h2 m20 -44 h10 m72 0 h10 m20 -32 h10 m22 0 h10 m3 0 h-3"/>
   <polygon points="511 159 519 155 519 163"/>
   <polygon points="511 159 503 155 503 163"/>
</svg>
