<svg xmlns="http://www.w3.org/2000/svg" width="245" height="69">
   <polygon points="9 17 1 13 1 21"/>
   <polygon points="17 17 9 13 9 21"/>
   <rect x="31" y="3" width="36" height="32"/>
   <rect x="29" y="1" width="36" height="32" class="nonterminal"/>
   <text class="nonterminal" x="39" y="21">int</text>
   <rect x="107" y="35" width="24" height="32" rx="10"/>
   <rect x="105"
         y="33"
         width="24"
         height="32"
         class="terminal"
         rx="10"/>
   <text class="terminal" x="115" y="53">.</text>
   <rect x="151" y="35" width="46" height="32"/>
   <rect x="149" y="33" width="46" height="32" class="nonterminal"/>
   <text class="nonterminal" x="159" y="53">frac</text>
   <path class="line"
         d="m17 17 h2 m0 0 h10 m36 0 h10 m20 0 h10 m0 0 h100 m-130 0 h20 m110 0 h20 m-150 0 q10 0 10 10 m130 0 q0 -10 10 -10 m-140 10 v12 m130 0 v-12 m-130 12 q0 10 10 10 m110 0 q10 0 10 -10 m-120 10 h10 m24 0 h10 m0 0 h10 m46 0 h10 m23 -32 h-3"/>
   <polygon points="235 17 243 13 243 21"/>
   <polygon points="235 17 227 13 227 21"/>
</svg>
