<svg xmlns="http://www.w3.org/2000/svg" width="163" height="81">
   <polygon points="9 17 1 13 1 21"/>
   <polygon points="17 17 9 13 9 21"/>
   <rect x="51" y="3" width="56" height="32" rx="10"/>
   <rect x="49"
         y="1"
         width="56"
         height="32"
         class="terminal"
         rx="10"/>
   <text class="terminal" x="59" y="21">TRUE</text>
   <rect x="51" y="47" width="64" height="32" rx="10"/>
   <rect x="49"
         y="45"
         width="64"
         height="32"
         class="terminal"
         rx="10"/>
   <text class="terminal" x="59" y="65">FALSE</text>
   <path class="line"
         d="m17 17 h2 m20 0 h10 m56 0 h10 m0 0 h8 m-104 0 h20 m84 0 h20 m-124 0 q10 0 10 10 m104 0 q0 -10 10 -10 m-114 10 v24 m104 0 v-24 m-104 24 q0 10 10 10 m84 0 q10 0 10 -10 m-94 10 h10 m64 0 h10 m23 -44 h-3"/>
   <polygon points="153 17 161 13 161 21"/>
   <polygon points="153 17 145 13 145 21"/>
</svg>
