<svg xmlns="http://www.w3.org/2000/svg" width="427" height="37">
   <polygon points="9 17 1 13 1 21"/>
   <polygon points="17 17 9 13 9 21"/>
   <rect x="31" y="3" width="22" height="32" rx="10"/>
   <rect x="29"
         y="1"
         width="22"
         height="32"
         class="terminal"
         rx="10"/>
   <text class="terminal" x="39" y="21">'</text>
   <rect x="73" y="3" width="90" height="32"/>
   <rect x="71" y="1" width="90" height="32" class="nonterminal"/>
   <text class="nonterminal" x="81" y="21">map_string</text>
   <rect x="183" y="3" width="22" height="32" rx="10"/>
   <rect x="181"
         y="1"
         width="22"
         height="32"
         class="terminal"
         rx="10"/>
   <text class="terminal" x="191" y="21">'</text>
   <rect x="225" y="3" width="174" height="32" rx="10"/>
   <rect x="223"
         y="1"
         width="174"
         height="32"
         class="terminal"
         rx="10"/>
   <text class="terminal" x="233" y="21">::MAP[text=&gt;value_type]</text>
   <path class="line"
         d="m17 17 h2 m0 0 h10 m22 0 h10 m0 0 h10 m90 0 h10 m0 0 h10 m22 0 h10 m0 0 h10 m174 0 h10 m3 0 h-3"/>
   <polygon points="417 17 425 13 425 21"/>
   <polygon points="417 17 409 13 409 21"/>
</svg>
