<svg xmlns="http://www.w3.org/2000/svg" width="329" height="37">
   <polygon points="9 17 1 13 1 21"/>
   <polygon points="17 17 9 13 9 21"/>
   <rect x="31" y="3" width="22" height="32" rx="10"/>
   <rect x="29"
         y="1"
         width="22"
         height="32"
         class="terminal"
         rx="10"/>
   <text class="terminal" x="39" y="21">'</text>
   <rect x="73" y="3" width="90" height="32"/>
   <rect x="71" y="1" width="90" height="32" class="nonterminal"/>
   <text class="nonterminal" x="81" y="21">json_string</text>
   <rect x="183" y="3" width="22" height="32" rx="10"/>
   <rect x="181"
         y="1"
         width="22"
         height="32"
         class="terminal"
         rx="10"/>
   <text class="terminal" x="191" y="21">'</text>
   <rect x="225" y="3" width="76" height="32" rx="10"/>
   <rect x="223"
         y="1"
         width="76"
         height="32"
         class="terminal"
         rx="10"/>
   <text class="terminal" x="233" y="21">::JSONB</text>
   <path class="line"
         d="m17 17 h2 m0 0 h10 m22 0 h10 m0 0 h10 m90 0 h10 m0 0 h10 m22 0 h10 m0 0 h10 m76 0 h10 m3 0 h-3"/>
   <polygon points="319 17 327 13 327 21"/>
   <polygon points="319 17 311 13 311 21"/>
</svg>
