<svg xmlns="http://www.w3.org/2000/svg" width="413" height="147">
   <polygon points="9 61 1 57 1 65"/>
   <polygon points="17 61 9 57 9 65"/>
   <rect x="31" y="47" width="50" height="32" rx="10"/>
   <rect x="29"
         y="45"
         width="50"
         height="32"
         class="terminal"
         rx="10"/>
   <text class="terminal" x="39" y="65">LIST</text>
   <rect x="121" y="47" width="26" height="32" rx="10"/>
   <rect x="119"
         y="45"
         width="26"
         height="32"
         class="terminal"
         rx="10"/>
   <text class="terminal" x="129" y="65">[</text>
   <rect x="207" y="47" width="72" height="32"/>
   <rect x="205" y="45" width="72" height="32" class="nonterminal"/>
   <text class="nonterminal" x="215" y="65">element</text>
   <rect x="207" y="3" width="24" height="32" rx="10"/>
   <rect x="205"
         y="1"
         width="24"
         height="32"
         class="terminal"
         rx="10"/>
   <text class="terminal" x="215" y="21">,</text>
   <rect x="339" y="47" width="26" height="32" rx="10"/>
   <rect x="337"
         y="45"
         width="26"
         height="32"
         class="terminal"
         rx="10"/>
   <text class="terminal" x="347" y="65">]</text>
   <rect x="121" y="113" width="26" height="32" rx="10"/>
   <rect x="119"
         y="111"
         width="26"
         height="32"
         class="terminal"
         rx="10"/>
   <text class="terminal" x="129" y="131">(</text>
   <rect x="167" y="113" width="58" height="32"/>
   <rect x="165" y="111" width="58" height="32" class="nonterminal"/>
   <text class="nonterminal" x="175" y="131">query</text>
   <rect x="245" y="113" width="26" height="32" rx="10"/>
   <rect x="243"
         y="111"
         width="26"
         height="32"
         class="terminal"
         rx="10"/>
   <text class="terminal" x="253" y="131">)</text>
   <path class="line"
         d="m17 61 h2 m0 0 h10 m50 0 h10 m20 0 h10 m26 0 h10 m40 0 h10 m72 0 h10 m-112 0 l20 0 m-1 0 q-9 0 -9 -10 l0 -24 q0 -10 10 -10 m92 44 l20 0 m-20 0 q10 0 10 -10 l0 -24 q0 -10 -10 -10 m-92 0 h10 m24 0 h10 m0 0 h48 m-132 44 h20 m132 0 h20 m-172 0 q10 0 10 10 m152 0 q0 -10 10 -10 m-162 10 v14 m152 0 v-14 m-152 14 q0 10 10 10 m132 0 q10 0 10 -10 m-142 10 h10 m0 0 h122 m20 -34 h10 m26 0 h10 m-284 0 h20 m264 0 h20 m-304 0 q10 0 10 10 m284 0 q0 -10 10 -10 m-294 10 v46 m284 0 v-46 m-284 46 q0 10 10 10 m264 0 q10 0 10 -10 m-274 10 h10 m26 0 h10 m0 0 h10 m58 0 h10 m0 0 h10 m26 0 h10 m0 0 h94 m23 -66 h-3"/>
   <polygon points="403 61 411 57 411 65"/>
   <polygon points="403 61 395 57 395 65"/>
</svg>
