<svg xmlns="http://www.w3.org/2000/svg" width="459" height="243">
   <polygon points="9 17 1 13 1 21"/>
   <polygon points="17 17 9 13 9 21"/>
   <rect x="31" y="3" width="56" height="32" rx="10"/>
   <rect x="29"
         y="1"
         width="56"
         height="32"
         class="terminal"
         rx="10"/>
   <text class="terminal" x="39" y="21">DATE</text>
   <rect x="107" y="3" width="22" height="32" rx="10"/>
   <rect x="105"
         y="1"
         width="22"
         height="32"
         class="terminal"
         rx="10"/>
   <text class="terminal" x="115" y="21">'</text>
   <a xmlns:xlink="http://www.w3.org/1999/xlink"
      xlink:href="#date_str"
      xlink:title="date_str">
      <rect x="149" y="3" width="70" height="32"/>
      <rect x="147" y="1" width="70" height="32" class="nonterminal"/>
      <text class="nonterminal" x="157" y="21">date_str</text>
   </a>
   <rect x="279" y="67" width="28" height="32" rx="10"/>
   <rect x="277"
         y="65"
         width="28"
         height="32"
         class="terminal"
         rx="10"/>
   <text class="terminal" x="287" y="85">T</text>
   <a xmlns:xlink="http://www.w3.org/1999/xlink"
      xlink:href="#time_str"
      xlink:title="time_str">
      <rect x="347" y="35" width="70" height="32"/>
      <rect x="345" y="33" width="70" height="32" class="nonterminal"/>
      <text class="nonterminal" x="355" y="53">time_str</text>
   </a>
   <rect x="231" y="165" width="26" height="32" rx="10"/>
   <rect x="229"
         y="163"
         width="26"
         height="32"
         class="terminal"
         rx="10"/>
   <text class="terminal" x="239" y="183">+</text>
   <rect x="231" y="209" width="24" height="32" rx="10"/>
   <rect x="229"
         y="207"
         width="24"
         height="32"
         class="terminal"
         rx="10"/>
   <text class="terminal" x="239" y="227">-</text>
   <a xmlns:xlink="http://www.w3.org/1999/xlink"
      xlink:href="#tz_offset"
      xlink:title="tz_offset">
      <rect x="297" y="165" width="72" height="32"/>
      <rect x="295" y="163" width="72" height="32" class="nonterminal"/>
      <text class="nonterminal" x="305" y="183">tz_offset</text>
   </a>
   <rect x="409" y="133" width="22" height="32" rx="10"/>
   <rect x="407"
         y="131"
         width="22"
         height="32"
         class="terminal"
         rx="10"/>
   <text class="terminal" x="417" y="151">'</text>
   <path class="line"
         d="m17 17 h2 m0 0 h10 m56 0 h10 m0 0 h10 m22 0 h10 m0 0 h10 m70 0 h10 m20 0 h10 m0 0 h168 m-198 0 h20 m178 0 h20 m-218 0 q10 0 10 10 m198 0 q0 -10 10 -10 m-208 10 v12 m198 0 v-12 m-198 12 q0 10 10 10 m178 0 q10 0 10 -10 m-168 10 h10 m0 0 h38 m-68 0 h20 m48 0 h20 m-88 0 q10 0 10 10 m68 0 q0 -10 10 -10 m-78 10 v12 m68 0 v-12 m-68 12 q0 10 10 10 m48 0 q10 0 10 -10 m-58 10 h10 m28 0 h10 m20 -32 h10 m70 0 h10 m22 -32 l2 0 m2 0 l2 0 m2 0 l2 0 m-290 130 l2 0 m2 0 l2 0 m2 0 l2 0 m22 0 h10 m0 0 h168 m-198 0 h20 m178 0 h20 m-218 0 q10 0 10 10 m198 0 q0 -10 10 -10 m-208 10 v12 m198 0 v-12 m-198 12 q0 10 10 10 m178 0 q10 0 10 -10 m-168 10 h10 m26 0 h10 m-66 0 h20 m46 0 h20 m-86 0 q10 0 10 10 m66 0 q0 -10 10 -10 m-76 10 v24 m66 0 v-24 m-66 24 q0 10 10 10 m46 0 q10 0 10 -10 m-56 10 h10 m24 0 h10 m0 0 h2 m20 -44 h10 m72 0 h10 m20 -32 h10 m22 0 h10 m3 0 h-3"/>
   <polygon points="449 147 457 143 457 151"/>
   <polygon points="449 147 441 143 441 151"/>
</svg>
