<svg xmlns="http://www.w3.org/2000/svg" width="289" height="37">
   <polygon points="9 17 1 13 1 21"/>
   <polygon points="17 17 9 13 9 21"/>
   <rect x="31" y="3" width="54" height="32" rx="10"/>
   <rect x="29"
         y="1"
         width="54"
         height="32"
         class="terminal"
         rx="10"/>
   <text class="terminal" x="39" y="21">TIME</text>
   <rect x="105" y="3" width="22" height="32" rx="10"/>
   <rect x="103"
         y="1"
         width="22"
         height="32"
         class="terminal"
         rx="10"/>
   <text class="terminal" x="113" y="21">'</text>
   <rect x="147" y="3" width="72" height="32"/>
   <rect x="145" y="1" width="72" height="32" class="nonterminal"/>
   <text class="nonterminal" x="155" y="21">time_str</text>
   <rect x="239" y="3" width="22" height="32" rx="10"/>
   <rect x="237"
         y="1"
         width="22"
         height="32"
         class="terminal"
         rx="10"/>
   <text class="terminal" x="247" y="21">'</text>
   <path class="line"
         d="m17 17 h2 m0 0 h10 m54 0 h10 m0 0 h10 m22 0 h10 m0 0 h10 m72 0 h10 m0 0 h10 m22 0 h10 m3 0 h-3"/>
   <polygon points="279 17 287 13 287 21"/>
   <polygon points="279 17 271 13 271 21"/>
</svg>
