<svg xmlns="http://www.w3.org/2000/svg" width="515" height="157">
   <polygon points="9 17 1 13 1 21"/>
   <polygon points="17 17 9 13 9 21"/>
   <rect x="51" y="35" width="30" height="32" rx="10"/>
   <rect x="49"
         y="33"
         width="30"
         height="32"
         class="terminal"
         rx="10"/>
   <text class="terminal" x="59" y="53">+</text>
   <rect x="51" y="79" width="26" height="32" rx="10"/>
   <rect x="49"
         y="77"
         width="26"
         height="32"
         class="terminal"
         rx="10"/>
   <text class="terminal" x="59" y="97">-</text>
   <rect x="141" y="3" width="64" height="32"/>
   <rect x="139" y="1" width="64" height="32" class="nonterminal"/>
   <text class="nonterminal" x="149" y="21">ym_str</text>
   <rect x="141" y="47" width="72" height="32"/>
   <rect x="139" y="45" width="72" height="32" class="nonterminal"/>
   <text class="nonterminal" x="149" y="65">time_str</text>
   <rect x="141" y="91" width="36" height="32"/>
   <rect x="139" y="89" width="36" height="32" class="nonterminal"/>
   <text class="nonterminal" x="149" y="109">int</text>
   <rect x="217" y="123" width="24" height="32" rx="10"/>
   <rect x="215"
         y="121"
         width="24"
         height="32"
         class="terminal"
         rx="10"/>
   <text class="terminal" x="225" y="141">.</text>
   <rect x="261" y="123" width="46" height="32"/>
   <rect x="259" y="121" width="46" height="32" class="nonterminal"/>
   <text class="nonterminal" x="269" y="141">frac</text>
   <rect x="367" y="123" width="80" height="32"/>
   <rect x="365" y="121" width="80" height="32" class="nonterminal"/>
   <text class="nonterminal" x="375" y="141">time_unit</text>
   <path class="line"
         d="m17 17 h2 m20 0 h10 m0 0 h40 m-70 0 h20 m50 0 h20 m-90 0 q10 0 10 10 m70 0 q0 -10 10 -10 m-80 10 v12 m70 0 v-12 m-70 12 q0 10 10 10 m50 0 q10 0 10 -10 m-60 10 h10 m30 0 h10 m-60 -10 v20 m70 0 v-20 m-70 20 v24 m70 0 v-24 m-70 24 q0 10 10 10 m50 0 q10 0 10 -10 m-60 10 h10 m26 0 h10 m0 0 h4 m40 -76 h10 m64 0 h10 m0 0 h262 m-366 0 h20 m346 0 h20 m-386 0 q10 0 10 10 m366 0 q0 -10 10 -10 m-376 10 v24 m366 0 v-24 m-366 24 q0 10 10 10 m346 0 q10 0 10 -10 m-356 10 h10 m72 0 h10 m0 0 h254 m-356 -10 v20 m366 0 v-20 m-366 20 v24 m366 0 v-24 m-366 24 q0 10 10 10 m346 0 q10 0 10 -10 m-356 10 h10 m36 0 h10 m20 0 h10 m0 0 h100 m-130 0 h20 m110 0 h20 m-150 0 q10 0 10 10 m130 0 q0 -10 10 -10 m-140 10 v12 m130 0 v-12 m-130 12 q0 10 10 10 m110 0 q10 0 10 -10 m-120 10 h10 m24 0 h10 m0 0 h10 m46 0 h10 m40 -32 h10 m0 0 h90 m-120 0 h20 m100 0 h20 m-140 0 q10 0 10 10 m120 0 q0 -10 10 -10 m-130 10 v12 m120 0 v-12 m-120 12 q0 10 10 10 m100 0 q10 0 10 -10 m-110 10 h10 m80 0 h10 m43 -120 h-3"/>
   <polygon points="505 17 513 13 513 21"/>
   <polygon points="505 17 497 13 497 21"/>
</svg>
