<svg xmlns="http://www.w3.org/2000/svg" width="529" height="103">
   <polygon points="9 17 1 13 1 21"/>
   <polygon points="17 17 9 13 9 21"/>
   <rect x="31" y="3" width="22" height="32" rx="10"/>
   <rect x="29"
         y="1"
         width="22"
         height="32"
         class="terminal"
         rx="10"/>
   <text class="terminal" x="39" y="21">'</text>
   <rect x="73" y="3" width="92" height="32"/>
   <rect x="71" y="1" width="92" height="32" class="nonterminal"/>
   <text class="nonterminal" x="81" y="21">map_string</text>
   <rect x="185" y="3" width="22" height="32" rx="10"/>
   <rect x="183"
         y="1"
         width="22"
         height="32"
         class="terminal"
         rx="10"/>
   <text class="terminal" x="193" y="21">'</text>
   <rect x="227" y="3" width="28" height="32" rx="10"/>
   <rect x="225"
         y="1"
         width="28"
         height="32"
         class="terminal"
         rx="10"/>
   <text class="terminal" x="235" y="21">::</text>
   <rect x="275" y="3" width="52" height="32" rx="10"/>
   <rect x="273"
         y="1"
         width="52"
         height="32"
         class="terminal"
         rx="10"/>
   <text class="terminal" x="283" y="21">MAP</text>
   <rect x="347" y="3" width="26" height="32" rx="10"/>
   <rect x="345"
         y="1"
         width="26"
         height="32"
         class="terminal"
         rx="10"/>
   <text class="terminal" x="355" y="21">[</text>
   <rect x="393" y="3" width="56" height="32" rx="10"/>
   <rect x="391"
         y="1"
         width="56"
         height="32"
         class="terminal"
         rx="10"/>
   <text class="terminal" x="401" y="21">TEXT</text>
   <rect x="469" y="3" width="38" height="32" rx="10"/>
   <rect x="467"
         y="1"
         width="38"
         height="32"
         class="terminal"
         rx="10"/>
   <text class="terminal" x="477" y="21">=&gt;</text>
   <rect x="365" y="69" width="90" height="32"/>
   <rect x="363" y="67" width="90" height="32" class="nonterminal"/>
   <text class="nonterminal" x="373" y="87">value_type</text>
   <rect x="475" y="69" width="26" height="32" rx="10"/>
   <rect x="473"
         y="67"
         width="26"
         height="32"
         class="terminal"
         rx="10"/>
   <text class="terminal" x="483" y="87">]</text>
   <path class="line"
         d="m17 17 h2 m0 0 h10 m22 0 h10 m0 0 h10 m92 0 h10 m0 0 h10 m22 0 h10 m0 0 h10 m28 0 h10 m0 0 h10 m52 0 h10 m0 0 h10 m26 0 h10 m0 0 h10 m56 0 h10 m0 0 h10 m38 0 h10 m2 0 l2 0 m2 0 l2 0 m2 0 l2 0 m-186 66 l2 0 m2 0 l2 0 m2 0 l2 0 m2 0 h10 m90 0 h10 m0 0 h10 m26 0 h10 m3 0 h-3"/>
   <polygon points="519 83 527 79 527 87"/>
   <polygon points="519 83 511 79 511 87"/>
</svg>
