<svg xmlns="http://www.w3.org/2000/svg" width="185" height="37">
   <polygon points="9 17 1 13 1 21"/>
   <polygon points="17 17 9 13 9 21"/>
   <rect x="31" y="3" width="22" height="32" rx="10"/>
   <rect x="29"
         y="1"
         width="22"
         height="32"
         class="terminal"
         rx="10"/>
   <text class="terminal" x="39" y="21">'</text>
   <a xmlns:xlink="http://www.w3.org/1999/xlink"
      xlink:href="#text"
      xlink:title="text">
      <rect x="73" y="3" width="42" height="32"/>
      <rect x="71" y="1" width="42" height="32" class="nonterminal"/>
      <text class="nonterminal" x="81" y="21">text</text>
   </a>
   <rect x="135" y="3" width="22" height="32" rx="10"/>
   <rect x="133"
         y="1"
         width="22"
         height="32"
         class="terminal"
         rx="10"/>
   <text class="terminal" x="143" y="21">'</text>
   <path class="line"
         d="m17 17 h2 m0 0 h10 m22 0 h10 m0 0 h10 m42 0 h10 m0 0 h10 m22 0 h10 m3 0 h-3"/>
   <polygon points="175 17 183 13 183 21"/>
   <polygon points="175 17 167 13 167 21"/>
</svg>
