<svg xmlns="http://www.w3.org/2000/svg" width="343" height="81">
   <polygon points="9 17 1 13 1 21"/>
   <polygon points="17 17 9 13 9 21"/>
   <rect x="51" y="3" width="28" height="32" rx="10"/>
   <rect x="49"
         y="1"
         width="28"
         height="32"
         class="terminal"
         rx="10"/>
   <text class="terminal" x="59" y="21">e</text>
   <rect x="51" y="47" width="28" height="32" rx="10"/>
   <rect x="49"
         y="45"
         width="28"
         height="32"
         class="terminal"
         rx="10"/>
   <text class="terminal" x="59" y="65">E</text>
   <rect x="119" y="3" width="22" height="32" rx="10"/>
   <rect x="117"
         y="1"
         width="22"
         height="32"
         class="terminal"
         rx="10"/>
   <text class="terminal" x="127" y="21">'</text>
   <rect x="161" y="3" width="112" height="32"/>
   <rect x="159" y="1" width="112" height="32" class="nonterminal"/>
   <text class="nonterminal" x="169" y="21">escapable_text</text>
   <rect x="293" y="3" width="22" height="32" rx="10"/>
   <rect x="291"
         y="1"
         width="22"
         height="32"
         class="terminal"
         rx="10"/>
   <text class="terminal" x="301" y="21">'</text>
   <path class="line"
         d="m17 17 h2 m20 0 h10 m28 0 h10 m-68 0 h20 m48 0 h20 m-88 0 q10 0 10 10 m68 0 q0 -10 10 -10 m-78 10 v24 m68 0 v-24 m-68 24 q0 10 10 10 m48 0 q10 0 10 -10 m-58 10 h10 m28 0 h10 m20 -44 h10 m22 0 h10 m0 0 h10 m112 0 h10 m0 0 h10 m22 0 h10 m3 0 h-3"/>
   <polygon points="333 17 341 13 341 21"/>
   <polygon points="333 17 325 13 325 21"/>
</svg>
