<svg xmlns="http://www.w3.org/2000/svg" width="323" height="37">
   <polygon points="9 17 1 13 1 21"/>
   <polygon points="17 17 9 13 9 21"/>
   <rect x="31" y="3" width="22" height="32" rx="10"/>
   <rect x="29"
         y="1"
         width="22"
         height="32"
         class="terminal"
         rx="10"/>
   <text class="terminal" x="39" y="21">'</text>
   <a xmlns:xlink="http://www.w3.org/1999/xlink"
      xlink:href="#json_string"
      xlink:title="json_string">
      <rect x="73" y="3" width="88" height="32"/>
      <rect x="71" y="1" width="88" height="32" class="nonterminal"/>
      <text class="nonterminal" x="81" y="21">json_string</text>
   </a>
   <rect x="181" y="3" width="22" height="32" rx="10"/>
   <rect x="179"
         y="1"
         width="22"
         height="32"
         class="terminal"
         rx="10"/>
   <text class="terminal" x="189" y="21">'</text>
   <rect x="223" y="3" width="72" height="32" rx="10"/>
   <rect x="221"
         y="1"
         width="72"
         height="32"
         class="terminal"
         rx="10"/>
   <text class="terminal" x="231" y="21">::JSONB</text>
   <path class="line"
         d="m17 17 h2 m0 0 h10 m22 0 h10 m0 0 h10 m88 0 h10 m0 0 h10 m22 0 h10 m0 0 h10 m72 0 h10 m3 0 h-3"/>
   <polygon points="313 17 321 13 321 21"/>
   <polygon points="313 17 305 13 305 21"/>
</svg>
