<svg xmlns="http://www.w3.org/2000/svg" width="285" height="37">
   <polygon points="9 17 1 13 1 21"/>
   <polygon points="17 17 9 13 9 21"/>
   <rect x="31" y="3" width="52" height="32" rx="10"/>
   <rect x="29"
         y="1"
         width="52"
         height="32"
         class="terminal"
         rx="10"/>
   <text class="terminal" x="39" y="21">TIME</text>
   <rect x="103" y="3" width="22" height="32" rx="10"/>
   <rect x="101"
         y="1"
         width="22"
         height="32"
         class="terminal"
         rx="10"/>
   <text class="terminal" x="111" y="21">'</text>
   <a xmlns:xlink="http://www.w3.org/1999/xlink"
      xlink:href="#time_str"
      xlink:title="time_str">
      <rect x="145" y="3" width="70" height="32"/>
      <rect x="143" y="1" width="70" height="32" class="nonterminal"/>
      <text class="nonterminal" x="153" y="21">time_str</text>
   </a>
   <rect x="235" y="3" width="22" height="32" rx="10"/>
   <rect x="233"
         y="1"
         width="22"
         height="32"
         class="terminal"
         rx="10"/>
   <text class="terminal" x="243" y="21">'</text>
   <path class="line"
         d="m17 17 h2 m0 0 h10 m52 0 h10 m0 0 h10 m22 0 h10 m0 0 h10 m70 0 h10 m0 0 h10 m22 0 h10 m3 0 h-3"/>
   <polygon points="275 17 283 13 283 21"/>
   <polygon points="275 17 267 13 267 21"/>
</svg>
