<svg xmlns="http://www.w3.org/2000/svg" width="467" height="243">
   <polygon points="9 17 1 13 1 21"/>
   <polygon points="17 17 9 13 9 21"/>
   <rect x="31" y="3" width="58" height="32" rx="10"/>
   <rect x="29"
         y="1"
         width="58"
         height="32"
         class="terminal"
         rx="10"/>
   <text class="terminal" x="39" y="21">DATE</text>
   <rect x="109" y="3" width="22" height="32" rx="10"/>
   <rect x="107"
         y="1"
         width="22"
         height="32"
         class="terminal"
         rx="10"/>
   <text class="terminal" x="117" y="21">'</text>
   <rect x="151" y="3" width="74" height="32"/>
   <rect x="149" y="1" width="74" height="32" class="nonterminal"/>
   <text class="nonterminal" x="159" y="21">date_str</text>
   <rect x="285" y="67" width="28" height="32" rx="10"/>
   <rect x="283"
         y="65"
         width="28"
         height="32"
         class="terminal"
         rx="10"/>
   <text class="terminal" x="293" y="85">T</text>
   <rect x="353" y="35" width="72" height="32"/>
   <rect x="351" y="33" width="72" height="32" class="nonterminal"/>
   <text class="nonterminal" x="361" y="53">time_str</text>
   <rect x="229" y="165" width="30" height="32" rx="10"/>
   <rect x="227"
         y="163"
         width="30"
         height="32"
         class="terminal"
         rx="10"/>
   <text class="terminal" x="237" y="183">+</text>
   <rect x="229" y="209" width="26" height="32" rx="10"/>
   <rect x="227"
         y="207"
         width="26"
         height="32"
         class="terminal"
         rx="10"/>
   <text class="terminal" x="237" y="227">-</text>
   <rect x="299" y="165" width="78" height="32"/>
   <rect x="297" y="163" width="78" height="32" class="nonterminal"/>
   <text class="nonterminal" x="307" y="183">tz_offset</text>
   <rect x="417" y="133" width="22" height="32" rx="10"/>
   <rect x="415"
         y="131"
         width="22"
         height="32"
         class="terminal"
         rx="10"/>
   <text class="terminal" x="425" y="151">'</text>
   <path class="line"
         d="m17 17 h2 m0 0 h10 m58 0 h10 m0 0 h10 m22 0 h10 m0 0 h10 m74 0 h10 m20 0 h10 m0 0 h170 m-200 0 h20 m180 0 h20 m-220 0 q10 0 10 10 m200 0 q0 -10 10 -10 m-210 10 v12 m200 0 v-12 m-200 12 q0 10 10 10 m180 0 q10 0 10 -10 m-170 10 h10 m0 0 h38 m-68 0 h20 m48 0 h20 m-88 0 q10 0 10 10 m68 0 q0 -10 10 -10 m-78 10 v12 m68 0 v-12 m-68 12 q0 10 10 10 m48 0 q10 0 10 -10 m-58 10 h10 m28 0 h10 m20 -32 h10 m72 0 h10 m22 -32 l2 0 m2 0 l2 0 m2 0 l2 0 m-300 130 l2 0 m2 0 l2 0 m2 0 l2 0 m22 0 h10 m0 0 h178 m-208 0 h20 m188 0 h20 m-228 0 q10 0 10 10 m208 0 q0 -10 10 -10 m-218 10 v12 m208 0 v-12 m-208 12 q0 10 10 10 m188 0 q10 0 10 -10 m-178 10 h10 m30 0 h10 m-70 0 h20 m50 0 h20 m-90 0 q10 0 10 10 m70 0 q0 -10 10 -10 m-80 10 v24 m70 0 v-24 m-70 24 q0 10 10 10 m50 0 q10 0 10 -10 m-60 10 h10 m26 0 h10 m0 0 h4 m20 -44 h10 m78 0 h10 m20 -32 h10 m22 0 h10 m3 0 h-3"/>
   <polygon points="457 147 465 143 465 151"/>
   <polygon points="457 147 449 143 449 151"/>
</svg>
