<svg xmlns="http://www.w3.org/2000/svg" width="297" height="37">
   <polygon points="9 17 1 13 1 21"/>
   <polygon points="17 17 9 13 9 21"/>
   <rect x="31" y="3" width="22" height="32" rx="10"/>
   <rect x="29"
         y="1"
         width="22"
         height="32"
         class="terminal"
         rx="10"/>
   <text class="terminal" x="39" y="21">'</text>
   <rect x="73" y="3" width="34" height="32" rx="10"/>
   <rect x="71"
         y="1"
         width="34"
         height="32"
         class="terminal"
         rx="10"/>
   <text class="terminal" x="81" y="21">\x</text>
   <rect x="127" y="3" width="100" height="32" rx="10"/>
   <rect x="125"
         y="1"
         width="100"
         height="32"
         class="terminal"
         rx="10"/>
   <text class="terminal" x="135" y="21">binary string</text>
   <rect x="247" y="3" width="22" height="32" rx="10"/>
   <rect x="245"
         y="1"
         width="22"
         height="32"
         class="terminal"
         rx="10"/>
   <text class="terminal" x="255" y="21">'</text>
   <path class="line"
         d="m17 17 h2 m0 0 h10 m22 0 h10 m0 0 h10 m34 0 h10 m0 0 h10 m100 0 h10 m0 0 h10 m22 0 h10 m3 0 h-3"/>
   <polygon points="287 17 295 13 295 21"/>
   <polygon points="287 17 279 13 279 21"/>
</svg>
