<svg xmlns="http://www.w3.org/2000/svg" width="471" height="69">
   <polygon points="9 17 1 13 1 21"/>
   <polygon points="17 17 9 13 9 21"/>
   <rect x="31" y="3" width="72" height="32" rx="10"/>
   <rect x="29"
         y="1"
         width="72"
         height="32"
         class="terminal"
         rx="10"/>
   <text class="terminal" x="39" y="21">numeric</text>
   <rect x="143" y="35" width="24" height="32" rx="10"/>
   <rect x="141"
         y="33"
         width="24"
         height="32"
         class="terminal"
         rx="10"/>
   <text class="terminal" x="151" y="53">(</text>
   <a xmlns:xlink="http://www.w3.org/1999/xlink"
      xlink:href="#precision"
      xlink:title="precision">
      <rect x="187" y="35" width="76" height="32"/>
      <rect x="185" y="33" width="76" height="32" class="nonterminal"/>
      <text class="nonterminal" x="195" y="53">precision</text>
   </a>
   <rect x="283" y="35" width="24" height="32" rx="10"/>
   <rect x="281"
         y="33"
         width="24"
         height="32"
         class="terminal"
         rx="10"/>
   <text class="terminal" x="291" y="53">,</text>
   <a xmlns:xlink="http://www.w3.org/1999/xlink"
      xlink:href="#scale"
      xlink:title="scale">
      <rect x="327" y="35" width="52" height="32"/>
      <rect x="325" y="33" width="52" height="32" class="nonterminal"/>
      <text class="nonterminal" x="335" y="53">scale</text>
   </a>
   <rect x="399" y="35" width="24" height="32" rx="10"/>
   <rect x="397"
         y="33"
         width="24"
         height="32"
         class="terminal"
         rx="10"/>
   <text class="terminal" x="407" y="53">)</text>
   <path class="line"
         d="m17 17 h2 m0 0 h10 m72 0 h10 m20 0 h10 m0 0 h290 m-320 0 h20 m300 0 h20 m-340 0 q10 0 10 10 m320 0 q0 -10 10 -10 m-330 10 v12 m320 0 v-12 m-320 12 q0 10 10 10 m300 0 q10 0 10 -10 m-310 10 h10 m24 0 h10 m0 0 h10 m76 0 h10 m0 0 h10 m24 0 h10 m0 0 h10 m52 0 h10 m0 0 h10 m24 0 h10 m23 -32 h-3"/>
   <polygon points="461 17 469 13 469 21"/>
   <polygon points="461 17 453 13 453 21"/>
</svg>
