<svg xmlns="http://www.w3.org/2000/svg" width="485" height="69">
   <polygon points="9 17 1 13 1 21"/>
   <polygon points="17 17 9 13 9 21"/>
   <rect x="31" y="3" width="76" height="32" rx="10"/>
   <rect x="29"
         y="1"
         width="76"
         height="32"
         class="terminal"
         rx="10"/>
   <text class="terminal" x="39" y="21">numeric</text>
   <rect x="147" y="35" width="26" height="32" rx="10"/>
   <rect x="145"
         y="33"
         width="26"
         height="32"
         class="terminal"
         rx="10"/>
   <text class="terminal" x="155" y="53">(</text>
   <rect x="193" y="35" width="80" height="32"/>
   <rect x="191" y="33" width="80" height="32" class="nonterminal"/>
   <text class="nonterminal" x="201" y="53">precision</text>
   <rect x="293" y="35" width="24" height="32" rx="10"/>
   <rect x="291"
         y="33"
         width="24"
         height="32"
         class="terminal"
         rx="10"/>
   <text class="terminal" x="301" y="53">,</text>
   <rect x="337" y="35" width="54" height="32"/>
   <rect x="335" y="33" width="54" height="32" class="nonterminal"/>
   <text class="nonterminal" x="345" y="53">scale</text>
   <rect x="411" y="35" width="26" height="32" rx="10"/>
   <rect x="409"
         y="33"
         width="26"
         height="32"
         class="terminal"
         rx="10"/>
   <text class="terminal" x="419" y="53">)</text>
   <path class="line"
         d="m17 17 h2 m0 0 h10 m76 0 h10 m20 0 h10 m0 0 h300 m-330 0 h20 m310 0 h20 m-350 0 q10 0 10 10 m330 0 q0 -10 10 -10 m-340 10 v12 m330 0 v-12 m-330 12 q0 10 10 10 m310 0 q10 0 10 -10 m-320 10 h10 m26 0 h10 m0 0 h10 m80 0 h10 m0 0 h10 m24 0 h10 m0 0 h10 m54 0 h10 m0 0 h10 m26 0 h10 m23 -32 h-3"/>
   <polygon points="475 17 483 13 483 21"/>
   <polygon points="475 17 467 13 467 21"/>
</svg>
