<svg xmlns="http://www.w3.org/2000/svg" width="561" height="255">
   <polygon points="9 17 1 13 1 21"/>
   <polygon points="17 17 9 13 9 21"/>
   <rect x="51" y="3" width="100" height="32" rx="10"/>
   <rect x="49"
         y="1"
         width="100"
         height="32"
         class="terminal"
         rx="10"/>
   <text class="terminal" x="59" y="21">TIMESTAMP</text>
   <rect x="51" y="47" width="118" height="32" rx="10"/>
   <rect x="49"
         y="45"
         width="118"
         height="32"
         class="terminal"
         rx="10"/>
   <text class="terminal" x="59" y="65">TIMESTAMPTZ</text>
   <rect x="209" y="3" width="22" height="32" rx="10"/>
   <rect x="207"
         y="1"
         width="22"
         height="32"
         class="terminal"
         rx="10"/>
   <text class="terminal" x="217" y="21">'</text>
   <rect x="251" y="3" width="70" height="32"/>
   <rect x="249" y="1" width="70" height="32" class="nonterminal"/>
   <text class="nonterminal" x="259" y="21">date_str</text>
   <rect x="381" y="35" width="24" height="32" rx="10"/>
   <rect x="379"
         y="33"
         width="24"
         height="32"
         class="terminal"
         rx="10"/>
   <text class="terminal" x="389" y="53"/>
   <rect x="381" y="79" width="28" height="32" rx="10"/>
   <rect x="379"
         y="77"
         width="28"
         height="32"
         class="terminal"
         rx="10"/>
   <text class="terminal" x="389" y="97">T</text>
   <rect x="449" y="35" width="70" height="32"/>
   <rect x="447" y="33" width="70" height="32" class="nonterminal"/>
   <text class="nonterminal" x="457" y="53">time_str</text>
   <rect x="333" y="177" width="26" height="32" rx="10"/>
   <rect x="331"
         y="175"
         width="26"
         height="32"
         class="terminal"
         rx="10"/>
   <text class="terminal" x="341" y="195">+</text>
   <rect x="333" y="221" width="24" height="32" rx="10"/>
   <rect x="331"
         y="219"
         width="24"
         height="32"
         class="terminal"
         rx="10"/>
   <text class="terminal" x="341" y="239">-</text>
   <rect x="399" y="177" width="72" height="32"/>
   <rect x="397" y="175" width="72" height="32" class="nonterminal"/>
   <text class="nonterminal" x="407" y="195">tz_offset</text>
   <rect x="511" y="145" width="22" height="32" rx="10"/>
   <rect x="509"
         y="143"
         width="22"
         height="32"
         class="terminal"
         rx="10"/>
   <text class="terminal" x="519" y="163">'</text>
   <path class="line"
         d="m17 17 h2 m20 0 h10 m100 0 h10 m0 0 h18 m-158 0 h20 m138 0 h20 m-178 0 q10 0 10 10 m158 0 q0 -10 10 -10 m-168 10 v24 m158 0 v-24 m-158 24 q0 10 10 10 m138 0 q10 0 10 -10 m-148 10 h10 m118 0 h10 m20 -44 h10 m22 0 h10 m0 0 h10 m70 0 h10 m20 0 h10 m0 0 h168 m-198 0 h20 m178 0 h20 m-218 0 q10 0 10 10 m198 0 q0 -10 10 -10 m-208 10 v12 m198 0 v-12 m-198 12 q0 10 10 10 m178 0 q10 0 10 -10 m-168 10 h10 m24 0 h10 m0 0 h4 m-68 0 h20 m48 0 h20 m-88 0 q10 0 10 10 m68 0 q0 -10 10 -10 m-78 10 v24 m68 0 v-24 m-68 24 q0 10 10 10 m48 0 q10 0 10 -10 m-58 10 h10 m28 0 h10 m20 -44 h10 m70 0 h10 m22 -32 l2 0 m2 0 l2 0 m2 0 l2 0 m-290 142 l2 0 m2 0 l2 0 m2 0 l2 0 m22 0 h10 m0 0 h168 m-198 0 h20 m178 0 h20 m-218 0 q10 0 10 10 m198 0 q0 -10 10 -10 m-208 10 v12 m198 0 v-12 m-198 12 q0 10 10 10 m178 0 q10 0 10 -10 m-168 10 h10 m26 0 h10 m-66 0 h20 m46 0 h20 m-86 0 q10 0 10 10 m66 0 q0 -10 10 -10 m-76 10 v24 m66 0 v-24 m-66 24 q0 10 10 10 m46 0 q10 0 10 -10 m-56 10 h10 m24 0 h10 m0 0 h2 m20 -44 h10 m72 0 h10 m20 -32 h10 m22 0 h10 m3 0 h-3"/>
   <polygon points="551 159 559 155 559 163"/>
   <polygon points="551 159 543 155 543 163"/>
</svg>
