<svg xmlns="http://www.w3.org/2000/svg" width="523" height="211">
   <polygon points="9 17 1 13 1 21"/>
   <polygon points="17 17 9 13 9 21"/>
   <rect x="31" y="3" width="78" height="32" rx="10"/>
   <rect x="29"
         y="1"
         width="78"
         height="32"
         class="terminal"
         rx="10"/>
   <text class="terminal" x="39" y="21">UPDATE</text>
   <rect x="129" y="3" width="96" height="32"/>
   <rect x="127" y="1" width="96" height="32" class="nonterminal"/>
   <text class="nonterminal" x="137" y="21">table_name</text>
   <rect x="285" y="67" width="40" height="32" rx="10"/>
   <rect x="283"
         y="65"
         width="40"
         height="32"
         class="terminal"
         rx="10"/>
   <text class="terminal" x="293" y="85">AS</text>
   <rect x="365" y="35" width="50" height="32"/>
   <rect x="363" y="33" width="50" height="32" class="nonterminal"/>
   <text class="nonterminal" x="373" y="53">alias</text>
   <rect x="455" y="3" width="46" height="32" rx="10"/>
   <rect x="453"
         y="1"
         width="46"
         height="32"
         class="terminal"
         rx="10"/>
   <text class="terminal" x="463" y="21">SET</text>
   <rect x="59" y="177" width="110" height="32"/>
   <rect x="57" y="175" width="110" height="32" class="nonterminal"/>
   <text class="nonterminal" x="67" y="195">column_name</text>
   <rect x="189" y="177" width="28" height="32" rx="10"/>
   <rect x="187"
         y="175"
         width="28"
         height="32"
         class="terminal"
         rx="10"/>
   <text class="terminal" x="197" y="195">=</text>
   <rect x="237" y="177" width="48" height="32"/>
   <rect x="235" y="175" width="48" height="32" class="nonterminal"/>
   <text class="nonterminal" x="245" y="195">expr</text>
   <rect x="59" y="133" width="24" height="32" rx="10"/>
   <rect x="57"
         y="131"
         width="24"
         height="32"
         class="terminal"
         rx="10"/>
   <text class="terminal" x="67" y="151">,</text>
   <rect x="325" y="177" width="70" height="32" rx="10"/>
   <rect x="323"
         y="175"
         width="70"
         height="32"
         class="terminal"
         rx="10"/>
   <text class="terminal" x="333" y="195">WHERE</text>
   <rect x="415" y="177" width="80" height="32"/>
   <rect x="413" y="175" width="80" height="32" class="nonterminal"/>
   <text class="nonterminal" x="423" y="195">condition</text>
   <path class="line"
         d="m17 17 h2 m0 0 h10 m78 0 h10 m0 0 h10 m96 0 h10 m20 0 h10 m0 0 h160 m-190 0 h20 m170 0 h20 m-210 0 q10 0 10 10 m190 0 q0 -10 10 -10 m-200 10 v12 m190 0 v-12 m-190 12 q0 10 10 10 m170 0 q10 0 10 -10 m-160 10 h10 m0 0 h50 m-80 0 h20 m60 0 h20 m-100 0 q10 0 10 10 m80 0 q0 -10 10 -10 m-90 10 v12 m80 0 v-12 m-80 12 q0 10 10 10 m60 0 q10 0 10 -10 m-70 10 h10 m40 0 h10 m20 -32 h10 m50 0 h10 m20 -32 h10 m46 0 h10 m2 0 l2 0 m2 0 l2 0 m2 0 l2 0 m-506 174 l2 0 m2 0 l2 0 m2 0 l2 0 m22 0 h10 m110 0 h10 m0 0 h10 m28 0 h10 m0 0 h10 m48 0 h10 m-266 0 l20 0 m-1 0 q-9 0 -9 -10 l0 -24 q0 -10 10 -10 m246 44 l20 0 m-20 0 q10 0 10 -10 l0 -24 q0 -10 -10 -10 m-246 0 h10 m24 0 h10 m0 0 h202 m20 44 h10 m70 0 h10 m0 0 h10 m80 0 h10 m3 0 h-3"/>
   <polygon points="513 191 521 187 521 195"/>
   <polygon points="513 191 505 187 505 195"/>
</svg>
