<svg xmlns="http://www.w3.org/2000/svg" width="375" height="125">
   <polygon points="9 105 1 101 1 109"/>
   <polygon points="17 105 9 101 9 109"/>
   <rect x="31" y="91" width="76" height="32" rx="10"/>
   <rect x="29"
         y="89"
         width="76"
         height="32"
         class="terminal"
         rx="10"/>
   <text class="terminal" x="39" y="109">VALUES</text>
   <rect x="147" y="91" width="26" height="32" rx="10"/>
   <rect x="145"
         y="89"
         width="26"
         height="32"
         class="terminal"
         rx="10"/>
   <text class="terminal" x="155" y="109">(</text>
   <rect x="213" y="91" width="48" height="32"/>
   <rect x="211" y="89" width="48" height="32" class="nonterminal"/>
   <text class="nonterminal" x="221" y="109">expr</text>
   <rect x="213" y="47" width="24" height="32" rx="10"/>
   <rect x="211"
         y="45"
         width="24"
         height="32"
         class="terminal"
         rx="10"/>
   <text class="terminal" x="221" y="65">,</text>
   <rect x="301" y="91" width="26" height="32" rx="10"/>
   <rect x="299"
         y="89"
         width="26"
         height="32"
         class="terminal"
         rx="10"/>
   <text class="terminal" x="309" y="109">)</text>
   <rect x="147" y="3" width="24" height="32" rx="10"/>
   <rect x="145"
         y="1"
         width="24"
         height="32"
         class="terminal"
         rx="10"/>
   <text class="terminal" x="155" y="21">,</text>
   <path class="line"
         d="m17 105 h2 m0 0 h10 m76 0 h10 m20 0 h10 m26 0 h10 m20 0 h10 m48 0 h10 m-88 0 l20 0 m-1 0 q-9 0 -9 -10 l0 -24 q0 -10 10 -10 m68 44 l20 0 m-20 0 q10 0 10 -10 l0 -24 q0 -10 -10 -10 m-68 0 h10 m24 0 h10 m0 0 h24 m20 44 h10 m26 0 h10 m-220 0 l20 0 m-1 0 q-9 0 -9 -10 l0 -68 q0 -10 10 -10 m200 88 l20 0 m-20 0 q10 0 10 -10 l0 -68 q0 -10 -10 -10 m-200 0 h10 m24 0 h10 m0 0 h156 m23 88 h-3"/>
   <polygon points="365 105 373 101 373 109"/>
   <polygon points="365 105 357 101 357 109"/>
</svg>
