<svg xmlns="http://www.w3.org/2000/svg" width="165" height="125">
   <polygon points="9 17 1 13 1 21"/>
   <polygon points="17 17 9 13 9 21"/>
   <rect x="51" y="3" width="56" height="32" rx="10"/>
   <rect x="49"
         y="1"
         width="56"
         height="32"
         class="terminal"
         rx="10"/>
   <text class="terminal" x="59" y="21">TEXT</text>
   <rect x="51" y="47" width="58" height="32" rx="10"/>
   <rect x="49"
         y="45"
         width="58"
         height="32"
         class="terminal"
         rx="10"/>
   <text class="terminal" x="59" y="65">JSON</text>
   <rect x="51" y="91" width="66" height="32" rx="10"/>
   <rect x="49"
         y="89"
         width="66"
         height="32"
         class="terminal"
         rx="10"/>
   <text class="terminal" x="59" y="109">BYTES</text>
   <path class="line"
         d="m17 17 h2 m20 0 h10 m56 0 h10 m0 0 h10 m-106 0 h20 m86 0 h20 m-126 0 q10 0 10 10 m106 0 q0 -10 10 -10 m-116 10 v24 m106 0 v-24 m-106 24 q0 10 10 10 m86 0 q10 0 10 -10 m-96 10 h10 m58 0 h10 m0 0 h8 m-96 -10 v20 m106 0 v-20 m-106 20 v24 m106 0 v-24 m-106 24 q0 10 10 10 m86 0 q10 0 10 -10 m-96 10 h10 m66 0 h10 m23 -88 h-3"/>
   <polygon points="155 17 163 13 163 21"/>
   <polygon points="155 17 147 13 147 21"/>
</svg>
