<svg xmlns="http://www.w3.org/2000/svg" width="463" height="211">
   <polygon points="9 17 1 13 1 21"/>
   <polygon points="17 17 9 13 9 21"/>
   <rect x="51" y="3" width="60" height="32" rx="10"/>
   <rect x="49"
         y="1"
         width="60"
         height="32"
         class="terminal"
         rx="10"/>
   <text class="terminal" x="59" y="21">BODY</text>
   <rect x="51" y="47" width="86" height="32" rx="10"/>
   <rect x="49"
         y="45"
         width="86"
         height="32"
         class="terminal"
         rx="10"/>
   <text class="terminal" x="59" y="65">HEADERS</text>
   <rect x="51" y="91" width="76" height="32" rx="10"/>
   <rect x="49"
         y="89"
         width="76"
         height="32"
         class="terminal"
         rx="10"/>
   <text class="terminal" x="59" y="109">SECRET</text>
   <rect x="147" y="91" width="104" height="32"/>
   <rect x="145" y="89" width="104" height="32" class="nonterminal"/>
   <text class="nonterminal" x="155" y="109">secret_name</text>
   <rect x="311" y="35" width="40" height="32" rx="10"/>
   <rect x="309"
         y="33"
         width="40"
         height="32"
         class="terminal"
         rx="10"/>
   <text class="terminal" x="319" y="53">AS</text>
   <rect x="371" y="35" width="50" height="32"/>
   <rect x="369" y="33" width="50" height="32" class="nonterminal"/>
   <text class="nonterminal" x="379" y="53">alias</text>
   <rect x="349" y="177" width="66" height="32" rx="10"/>
   <rect x="347"
         y="175"
         width="66"
         height="32"
         class="terminal"
         rx="10"/>
   <text class="terminal" x="357" y="195">BYTES</text>
   <path class="line"
         d="m17 17 h2 m20 0 h10 m60 0 h10 m0 0 h140 m-240 0 h20 m220 0 h20 m-260 0 q10 0 10 10 m240 0 q0 -10 10 -10 m-250 10 v24 m240 0 v-24 m-240 24 q0 10 10 10 m220 0 q10 0 10 -10 m-230 10 h10 m86 0 h10 m0 0 h114 m-230 -10 v20 m240 0 v-20 m-240 20 v24 m240 0 v-24 m-240 24 q0 10 10 10 m220 0 q10 0 10 -10 m-230 10 h10 m76 0 h10 m0 0 h10 m104 0 h10 m40 -88 h10 m0 0 h120 m-150 0 h20 m130 0 h20 m-170 0 q10 0 10 10 m150 0 q0 -10 10 -10 m-160 10 v12 m150 0 v-12 m-150 12 q0 10 10 10 m130 0 q10 0 10 -10 m-140 10 h10 m40 0 h10 m0 0 h10 m50 0 h10 m22 -32 l2 0 m2 0 l2 0 m2 0 l2 0 m-156 142 l2 0 m2 0 l2 0 m2 0 l2 0 m22 0 h10 m0 0 h76 m-106 0 h20 m86 0 h20 m-126 0 q10 0 10 10 m106 0 q0 -10 10 -10 m-116 10 v12 m106 0 v-12 m-106 12 q0 10 10 10 m86 0 q10 0 10 -10 m-96 10 h10 m66 0 h10 m23 -32 h-3"/>
   <polygon points="453 159 461 155 461 163"/>
   <polygon points="453 159 445 155 445 163"/>
</svg>
