<svg xmlns="http://www.w3.org/2000/svg" width="481" height="125">
   <polygon points="9 17 1 13 1 21"/>
   <polygon points="17 17 9 13 9 21"/>
   <rect x="51" y="3" width="60" height="32" rx="10"/>
   <rect x="49"
         y="1"
         width="60"
         height="32"
         class="terminal"
         rx="10"/>
   <text class="terminal" x="59" y="21">BODY</text>
   <rect x="51" y="47" width="86" height="32" rx="10"/>
   <rect x="49"
         y="45"
         width="86"
         height="32"
         class="terminal"
         rx="10"/>
   <text class="terminal" x="59" y="65">HEADERS</text>
   <rect x="51" y="91" width="76" height="32" rx="10"/>
   <rect x="49"
         y="89"
         width="76"
         height="32"
         class="terminal"
         rx="10"/>
   <text class="terminal" x="59" y="109">SECRET</text>
   <rect x="197" y="35" width="40" height="32" rx="10"/>
   <rect x="195"
         y="33"
         width="40"
         height="32"
         class="terminal"
         rx="10"/>
   <text class="terminal" x="205" y="53">AS</text>
   <rect x="257" y="35" width="50" height="32"/>
   <rect x="255" y="33" width="50" height="32" class="nonterminal"/>
   <text class="nonterminal" x="265" y="53">alias</text>
   <rect x="367" y="35" width="66" height="32" rx="10"/>
   <rect x="365"
         y="33"
         width="66"
         height="32"
         class="terminal"
         rx="10"/>
   <text class="terminal" x="375" y="53">BYTES</text>
   <path class="line"
         d="m17 17 h2 m20 0 h10 m60 0 h10 m0 0 h26 m-126 0 h20 m106 0 h20 m-146 0 q10 0 10 10 m126 0 q0 -10 10 -10 m-136 10 v24 m126 0 v-24 m-126 24 q0 10 10 10 m106 0 q10 0 10 -10 m-116 10 h10 m86 0 h10 m-116 -10 v20 m126 0 v-20 m-126 20 v24 m126 0 v-24 m-126 24 q0 10 10 10 m106 0 q10 0 10 -10 m-116 10 h10 m76 0 h10 m0 0 h10 m40 -88 h10 m0 0 h120 m-150 0 h20 m130 0 h20 m-170 0 q10 0 10 10 m150 0 q0 -10 10 -10 m-160 10 v12 m150 0 v-12 m-150 12 q0 10 10 10 m130 0 q10 0 10 -10 m-140 10 h10 m40 0 h10 m0 0 h10 m50 0 h10 m40 -32 h10 m0 0 h76 m-106 0 h20 m86 0 h20 m-126 0 q10 0 10 10 m106 0 q0 -10 10 -10 m-116 10 v12 m106 0 v-12 m-106 12 q0 10 10 10 m86 0 q10 0 10 -10 m-96 10 h10 m66 0 h10 m23 -32 h-3"/>
   <polygon points="471 17 479 13 479 21"/>
   <polygon points="471 17 463 13 463 21"/>
</svg>
