<svg xmlns="http://www.w3.org/2000/svg" width="725" height="251">
   <polygon points="9 17 1 13 1 21"/>
   <polygon points="17 17 9 13 9 21"/>
   <rect x="31" y="3" width="58" height="32" rx="10"/>
   <rect x="29"
         y="1"
         width="58"
         height="32"
         class="terminal"
         rx="10"/>
   <text class="terminal" x="39" y="21">WITH</text>
   <rect x="109" y="3" width="26" height="32" rx="10"/>
   <rect x="107"
         y="1"
         width="26"
         height="32"
         class="terminal"
         rx="10"/>
   <text class="terminal" x="117" y="21">(</text>
   <rect x="155" y="3" width="58" height="32" rx="10"/>
   <rect x="153"
         y="1"
         width="58"
         height="32"
         class="terminal"
         rx="10"/>
   <text class="terminal" x="163" y="21">WAIT</text>
   <rect x="45" y="69" width="48" height="32" rx="10"/>
   <rect x="43"
         y="67"
         width="48"
         height="32"
         class="terminal"
         rx="10"/>
   <text class="terminal" x="53" y="87">FOR</text>
   <rect x="113" y="69" width="28" height="32" rx="10"/>
   <rect x="111"
         y="67"
         width="28"
         height="32"
         class="terminal"
         rx="10"/>
   <text class="terminal" x="121" y="87">=</text>
   <rect x="161" y="69" width="74" height="32"/>
   <rect x="159" y="67" width="74" height="32" class="nonterminal"/>
   <text class="nonterminal" x="169" y="87">duration</text>
   <rect x="45" y="135" width="62" height="32" rx="10"/>
   <rect x="43"
         y="133"
         width="62"
         height="32"
         class="terminal"
         rx="10"/>
   <text class="terminal" x="53" y="153">UNTIL</text>
   <rect x="127" y="135" width="68" height="32" rx="10"/>
   <rect x="125"
         y="133"
         width="68"
         height="32"
         class="terminal"
         rx="10"/>
   <text class="terminal" x="135" y="153">READY</text>
   <rect x="215" y="135" width="26" height="32" rx="10"/>
   <rect x="213"
         y="133"
         width="26"
         height="32"
         class="terminal"
         rx="10"/>
   <text class="terminal" x="223" y="153">(</text>
   <rect x="301" y="135" width="174" height="32"/>
   <rect x="299" y="133" width="174" height="32" class="nonterminal"/>
   <text class="nonterminal" x="309" y="153">wait_until_ready_option</text>
   <rect x="495" y="135" width="28" height="32" rx="10"/>
   <rect x="493"
         y="133"
         width="28"
         height="32"
         class="terminal"
         rx="10"/>
   <text class="terminal" x="503" y="153">=</text>
   <rect x="543" y="135" width="54" height="32"/>
   <rect x="541" y="133" width="54" height="32" class="nonterminal"/>
   <text class="nonterminal" x="551" y="153">value</text>
   <rect x="657" y="135" width="26" height="32" rx="10"/>
   <rect x="655"
         y="133"
         width="26"
         height="32"
         class="terminal"
         rx="10"/>
   <text class="terminal" x="665" y="153">)</text>
   <rect x="671" y="217" width="26" height="32" rx="10"/>
   <rect x="669"
         y="215"
         width="26"
         height="32"
         class="terminal"
         rx="10"/>
   <text class="terminal" x="679" y="235">)</text>
   <path class="line"
         d="m17 17 h2 m0 0 h10 m58 0 h10 m0 0 h10 m26 0 h10 m0 0 h10 m58 0 h10 m2 0 l2 0 m2 0 l2 0 m2 0 l2 0 m-232 66 l2 0 m2 0 l2 0 m2 0 l2 0 m22 0 h10 m48 0 h10 m0 0 h10 m28 0 h10 m0 0 h10 m74 0 h10 m0 0 h448 m-678 0 h20 m658 0 h20 m-698 0 q10 0 10 10 m678 0 q0 -10 10 -10 m-688 10 v46 m678 0 v-46 m-678 46 q0 10 10 10 m658 0 q10 0 10 -10 m-668 10 h10 m62 0 h10 m0 0 h10 m68 0 h10 m0 0 h10 m26 0 h10 m40 0 h10 m174 0 h10 m0 0 h10 m28 0 h10 m0 0 h10 m54 0 h10 m-336 0 l20 0 m-1 0 q-9 0 -9 -10 l0 -12 q0 -10 10 -10 m316 32 l20 0 m-20 0 q10 0 10 -10 l0 -12 q0 -10 -10 -10 m-316 0 h10 m0 0 h306 m-356 32 h20 m356 0 h20 m-396 0 q10 0 10 10 m376 0 q0 -10 10 -10 m-386 10 v14 m376 0 v-14 m-376 14 q0 10 10 10 m356 0 q10 0 10 -10 m-366 10 h10 m0 0 h346 m20 -34 h10 m26 0 h10 m22 -66 l2 0 m2 0 l2 0 m2 0 l2 0 m-76 148 l2 0 m2 0 l2 0 m2 0 l2 0 m2 0 h10 m26 0 h10 m3 0 h-3"/>
   <polygon points="715 231 723 227 723 235"/>
   <polygon points="715 231 707 227 707 235"/>
</svg>
