<svg xmlns="http://www.w3.org/2000/svg" width="503" height="129">
   <polygon points="9 61 1 57 1 65"/>
   <polygon points="17 61 9 57 9 65"/>
   <rect x="51" y="47" width="58" height="32" rx="10"/>
   <rect x="49"
         y="45"
         width="58"
         height="32"
         class="terminal"
         rx="10"/>
   <text class="terminal" x="59" y="65">WITH</text>
   <rect x="129" y="47" width="26" height="32" rx="10"/>
   <rect x="127"
         y="45"
         width="26"
         height="32"
         class="terminal"
         rx="10"/>
   <text class="terminal" x="137" y="65">(</text>
   <rect x="195" y="47" width="48" height="32"/>
   <rect x="193" y="45" width="48" height="32" class="nonterminal"/>
   <text class="nonterminal" x="203" y="65">field</text>
   <rect x="283" y="79" width="28" height="32" rx="10"/>
   <rect x="281"
         y="77"
         width="28"
         height="32"
         class="terminal"
         rx="10"/>
   <text class="terminal" x="291" y="97">=</text>
   <rect x="351" y="47" width="38" height="32"/>
   <rect x="349" y="45" width="38" height="32" class="nonterminal"/>
   <text class="nonterminal" x="359" y="65">val</text>
   <rect x="195" y="3" width="24" height="32" rx="10"/>
   <rect x="193"
         y="1"
         width="24"
         height="32"
         class="terminal"
         rx="10"/>
   <text class="terminal" x="203" y="21">,</text>
   <rect x="429" y="47" width="26" height="32" rx="10"/>
   <rect x="427"
         y="45"
         width="26"
         height="32"
         class="terminal"
         rx="10"/>
   <text class="terminal" x="437" y="65">)</text>
   <path class="line"
         d="m17 61 h2 m20 0 h10 m58 0 h10 m0 0 h10 m26 0 h10 m20 0 h10 m48 0 h10 m20 0 h10 m0 0 h38 m-68 0 h20 m48 0 h20 m-88 0 q10 0 10 10 m68 0 q0 -10 10 -10 m-78 10 v12 m68 0 v-12 m-68 12 q0 10 10 10 m48 0 q10 0 10 -10 m-58 10 h10 m28 0 h10 m20 -32 h10 m38 0 h10 m-234 0 l20 0 m-1 0 q-9 0 -9 -10 l0 -24 q0 -10 10 -10 m214 44 l20 0 m-20 0 q10 0 10 -10 l0 -24 q0 -10 -10 -10 m-214 0 h10 m24 0 h10 m0 0 h170 m20 44 h10 m26 0 h10 m-444 0 h20 m424 0 h20 m-464 0 q10 0 10 10 m444 0 q0 -10 10 -10 m-454 10 v46 m444 0 v-46 m-444 46 q0 10 10 10 m424 0 q10 0 10 -10 m-434 10 h10 m0 0 h414 m23 -66 h-3"/>
   <polygon points="493 61 501 57 501 65"/>
   <polygon points="493 61 485 57 485 65"/>
</svg>
