<svg xmlns="http://www.w3.org/2000/svg" width="473" height="135">
   <polygon points="9 17 1 13 1 21"/>
   <polygon points="17 17 9 13 9 21"/>
   <rect x="31" y="3" width="58" height="32" rx="10"/>
   <rect x="29"
         y="1"
         width="58"
         height="32"
         class="terminal"
         rx="10"/>
   <text class="terminal" x="39" y="21">WITH</text>
   <rect x="109" y="3" width="26" height="32" rx="10"/>
   <rect x="107"
         y="1"
         width="26"
         height="32"
         class="terminal"
         rx="10"/>
   <text class="terminal" x="117" y="21">(</text>
   <rect x="155" y="3" width="140" height="32" rx="10"/>
   <rect x="153"
         y="1"
         width="140"
         height="32"
         class="terminal"
         rx="10"/>
   <text class="terminal" x="163" y="21">RETAIN HISTORY</text>
   <rect x="335" y="35" width="28" height="32" rx="10"/>
   <rect x="333"
         y="33"
         width="28"
         height="32"
         class="terminal"
         rx="10"/>
   <text class="terminal" x="343" y="53">=</text>
   <rect x="403" y="3" width="48" height="32" rx="10"/>
   <rect x="401"
         y="1"
         width="48"
         height="32"
         class="terminal"
         rx="10"/>
   <text class="terminal" x="411" y="21">FOR</text>
   <rect x="271" y="101" width="128" height="32"/>
   <rect x="269" y="99" width="128" height="32" class="nonterminal"/>
   <text class="nonterminal" x="279" y="119">retention_period</text>
   <rect x="419" y="101" width="26" height="32" rx="10"/>
   <rect x="417"
         y="99"
         width="26"
         height="32"
         class="terminal"
         rx="10"/>
   <text class="terminal" x="427" y="119">)</text>
   <path class="line"
         d="m17 17 h2 m0 0 h10 m58 0 h10 m0 0 h10 m26 0 h10 m0 0 h10 m140 0 h10 m20 0 h10 m0 0 h38 m-68 0 h20 m48 0 h20 m-88 0 q10 0 10 10 m68 0 q0 -10 10 -10 m-78 10 v12 m68 0 v-12 m-68 12 q0 10 10 10 m48 0 q10 0 10 -10 m-58 10 h10 m28 0 h10 m20 -32 h10 m48 0 h10 m2 0 l2 0 m2 0 l2 0 m2 0 l2 0 m-224 98 l2 0 m2 0 l2 0 m2 0 l2 0 m2 0 h10 m128 0 h10 m0 0 h10 m26 0 h10 m3 0 h-3"/>
   <polygon points="463 115 471 111 471 119"/>
   <polygon points="463 115 455 111 455 119"/>
</svg>
