<svg xmlns="http://www.w3.org/2000/svg" width="565" height="185">
   <polygon points="9 33 1 29 1 37"/>
   <polygon points="17 33 9 29 9 37"/>
   <rect x="31" y="19" width="58" height="32" rx="10"/>
   <rect x="29"
         y="17"
         width="58"
         height="32"
         class="terminal"
         rx="10"/>
   <text class="terminal" x="39" y="37">WITH</text>
   <rect x="109" y="19" width="26" height="32" rx="10"/>
   <rect x="107"
         y="17"
         width="26"
         height="32"
         class="terminal"
         rx="10"/>
   <text class="terminal" x="117" y="37">(</text>
   <rect x="195" y="19" width="136" height="32"/>
   <rect x="193" y="17" width="136" height="32" class="nonterminal"/>
   <text class="nonterminal" x="203" y="37">static_credentials</text>
   <rect x="215" y="63" width="110" height="32" rx="10"/>
   <rect x="213"
         y="61"
         width="110"
         height="32"
         class="terminal"
         rx="10"/>
   <text class="terminal" x="223" y="81">profile_name</text>
   <rect x="215" y="107" width="76" height="32" rx="10"/>
   <rect x="213"
         y="105"
         width="76"
         height="32"
         class="terminal"
         rx="10"/>
   <text class="terminal" x="223" y="125">role_arn</text>
   <rect x="215" y="151" width="64" height="32" rx="10"/>
   <rect x="213"
         y="149"
         width="64"
         height="32"
         class="terminal"
         rx="10"/>
   <text class="terminal" x="223" y="169">region</text>
   <rect x="365" y="63" width="28" height="32" rx="10"/>
   <rect x="363"
         y="61"
         width="28"
         height="32"
         class="terminal"
         rx="10"/>
   <text class="terminal" x="373" y="81">=</text>
   <rect x="413" y="63" width="38" height="32"/>
   <rect x="411" y="61" width="38" height="32" class="nonterminal"/>
   <text class="nonterminal" x="421" y="81">val</text>
   <rect x="511" y="19" width="26" height="32" rx="10"/>
   <rect x="509"
         y="17"
         width="26"
         height="32"
         class="terminal"
         rx="10"/>
   <text class="terminal" x="519" y="37">)</text>
   <path class="line"
         d="m17 33 h2 m0 0 h10 m58 0 h10 m0 0 h10 m26 0 h10 m40 0 h10 m136 0 h10 m0 0 h120 m-296 0 h20 m276 0 h20 m-316 0 q10 0 10 10 m296 0 q0 -10 10 -10 m-306 10 v24 m296 0 v-24 m-296 24 q0 10 10 10 m276 0 q10 0 10 -10 m-266 10 h10 m110 0 h10 m-150 0 h20 m130 0 h20 m-170 0 q10 0 10 10 m150 0 q0 -10 10 -10 m-160 10 v24 m150 0 v-24 m-150 24 q0 10 10 10 m130 0 q10 0 10 -10 m-140 10 h10 m76 0 h10 m0 0 h34 m-140 -10 v20 m150 0 v-20 m-150 20 v24 m150 0 v-24 m-150 24 q0 10 10 10 m130 0 q10 0 10 -10 m-140 10 h10 m64 0 h10 m0 0 h46 m20 -88 h10 m28 0 h10 m0 0 h10 m38 0 h10 m-316 -44 l20 0 m-1 0 q-9 0 -9 -10 l0 -12 q0 -10 10 -10 m316 32 l20 0 m-20 0 q10 0 10 -10 l0 -12 q0 -10 -10 -10 m-316 0 h10 m0 0 h306 m20 32 h10 m26 0 h10 m3 0 h-3"/>
   <polygon points="555 33 563 29 563 37"/>
   <polygon points="555 33 547 29 547 37"/>
</svg>
