<svg xmlns="http://www.w3.org/2000/svg" width="543" height="113">
   <polygon points="9 17 1 13 1 21"/>
   <polygon points="17 17 9 13 9 21"/>
   <rect x="51" y="3" width="150" height="32" rx="10"/>
   <rect x="49"
         y="1"
         width="150"
         height="32"
         class="terminal"
         rx="10"/>
   <text class="terminal" x="59" y="21">ASSERT NOT NULL</text>
   <rect x="221" y="3" width="78" height="32"/>
   <rect x="219" y="1" width="78" height="32" class="nonterminal"/>
   <text class="nonterminal" x="229" y="21">col_ident</text>
   <rect x="51" y="47" width="140" height="32" rx="10"/>
   <rect x="49"
         y="45"
         width="140"
         height="32"
         class="terminal"
         rx="10"/>
   <text class="terminal" x="59" y="65">RETAIN HISTORY</text>
   <rect x="231" y="79" width="28" height="32" rx="10"/>
   <rect x="229"
         y="77"
         width="28"
         height="32"
         class="terminal"
         rx="10"/>
   <text class="terminal" x="239" y="97">=</text>
   <rect x="299" y="47" width="48" height="32" rx="10"/>
   <rect x="297"
         y="45"
         width="48"
         height="32"
         class="terminal"
         rx="10"/>
   <text class="terminal" x="307" y="65">FOR</text>
   <rect x="367" y="47" width="128" height="32"/>
   <rect x="365" y="45" width="128" height="32" class="nonterminal"/>
   <text class="nonterminal" x="375" y="65">retention_period</text>
   <path class="line"
         d="m17 17 h2 m20 0 h10 m150 0 h10 m0 0 h10 m78 0 h10 m0 0 h196 m-484 0 h20 m464 0 h20 m-504 0 q10 0 10 10 m484 0 q0 -10 10 -10 m-494 10 v24 m484 0 v-24 m-484 24 q0 10 10 10 m464 0 q10 0 10 -10 m-474 10 h10 m140 0 h10 m20 0 h10 m0 0 h38 m-68 0 h20 m48 0 h20 m-88 0 q10 0 10 10 m68 0 q0 -10 10 -10 m-78 10 v12 m68 0 v-12 m-68 12 q0 10 10 10 m48 0 q10 0 10 -10 m-58 10 h10 m28 0 h10 m20 -32 h10 m48 0 h10 m0 0 h10 m128 0 h10 m23 -44 h-3"/>
   <polygon points="533 17 541 13 541 21"/>
   <polygon points="533 17 525 13 525 21"/>
</svg>
