<svg xmlns="http://www.w3.org/2000/svg" width="423" height="81">
   <polygon points="9 61 1 57 1 65"/>
   <polygon points="17 61 9 57 9 65"/>
   <rect x="31" y="47" width="58" height="32" rx="10"/>
   <rect x="29"
         y="45"
         width="58"
         height="32"
         class="terminal"
         rx="10"/>
   <text class="terminal" x="39" y="65">WITH</text>
   <rect x="109" y="47" width="26" height="32" rx="10"/>
   <rect x="107"
         y="45"
         width="26"
         height="32"
         class="terminal"
         rx="10"/>
   <text class="terminal" x="117" y="65">(</text>
   <rect x="175" y="47" width="48" height="32"/>
   <rect x="173" y="45" width="48" height="32" class="nonterminal"/>
   <text class="nonterminal" x="183" y="65">field</text>
   <rect x="243" y="47" width="28" height="32" rx="10"/>
   <rect x="241"
         y="45"
         width="28"
         height="32"
         class="terminal"
         rx="10"/>
   <text class="terminal" x="251" y="65">=</text>
   <rect x="291" y="47" width="38" height="32"/>
   <rect x="289" y="45" width="38" height="32" class="nonterminal"/>
   <text class="nonterminal" x="299" y="65">val</text>
   <rect x="175" y="3" width="24" height="32" rx="10"/>
   <rect x="173"
         y="1"
         width="24"
         height="32"
         class="terminal"
         rx="10"/>
   <text class="terminal" x="183" y="21">,</text>
   <rect x="369" y="47" width="26" height="32" rx="10"/>
   <rect x="367"
         y="45"
         width="26"
         height="32"
         class="terminal"
         rx="10"/>
   <text class="terminal" x="377" y="65">)</text>
   <path class="line"
         d="m17 61 h2 m0 0 h10 m58 0 h10 m0 0 h10 m26 0 h10 m20 0 h10 m48 0 h10 m0 0 h10 m28 0 h10 m0 0 h10 m38 0 h10 m-194 0 l20 0 m-1 0 q-9 0 -9 -10 l0 -24 q0 -10 10 -10 m174 44 l20 0 m-20 0 q10 0 10 -10 l0 -24 q0 -10 -10 -10 m-174 0 h10 m24 0 h10 m0 0 h130 m20 44 h10 m26 0 h10 m3 0 h-3"/>
   <polygon points="413 61 421 57 421 65"/>
   <polygon points="413 61 405 57 405 65"/>
</svg>
