<svg xmlns="http://www.w3.org/2000/svg" width="405" height="97">
   <polygon points="9 61 1 57 1 65"/>
   <polygon points="17 61 9 57 9 65"/>
   <rect x="51" y="47" width="58" height="32" rx="10"/>
   <rect x="49"
         y="45"
         width="58"
         height="32"
         class="terminal"
         rx="10"/>
   <text class="terminal" x="59" y="65">WITH</text>
   <rect x="129" y="47" width="26" height="32" rx="10"/>
   <rect x="127"
         y="45"
         width="26"
         height="32"
         class="terminal"
         rx="10"/>
   <text class="terminal" x="137" y="65">(</text>
   <rect x="195" y="47" width="96" height="32"/>
   <rect x="193" y="45" width="96" height="32" class="nonterminal"/>
   <text class="nonterminal" x="203" y="65">with_option</text>
   <rect x="195" y="3" width="24" height="32" rx="10"/>
   <rect x="193"
         y="1"
         width="24"
         height="32"
         class="terminal"
         rx="10"/>
   <text class="terminal" x="203" y="21">,</text>
   <rect x="331" y="47" width="26" height="32" rx="10"/>
   <rect x="329"
         y="45"
         width="26"
         height="32"
         class="terminal"
         rx="10"/>
   <text class="terminal" x="339" y="65">)</text>
   <path class="line"
         d="m17 61 h2 m20 0 h10 m58 0 h10 m0 0 h10 m26 0 h10 m20 0 h10 m96 0 h10 m-136 0 l20 0 m-1 0 q-9 0 -9 -10 l0 -24 q0 -10 10 -10 m116 44 l20 0 m-20 0 q10 0 10 -10 l0 -24 q0 -10 -10 -10 m-116 0 h10 m24 0 h10 m0 0 h72 m20 44 h10 m26 0 h10 m-346 0 h20 m326 0 h20 m-366 0 q10 0 10 10 m346 0 q0 -10 10 -10 m-356 10 v14 m346 0 v-14 m-346 14 q0 10 10 10 m326 0 q10 0 10 -10 m-336 10 h10 m0 0 h316 m23 -34 h-3"/>
   <polygon points="395 61 403 57 403 65"/>
   <polygon points="395 61 387 57 387 65"/>
</svg>
