<svg xmlns="http://www.w3.org/2000/svg" width="413" height="81">
   <polygon points="9 61 1 57 1 65"/>
   <polygon points="17 61 9 57 9 65"/>
   <rect x="31" y="47" width="56" height="32" rx="10"/>
   <rect x="29"
         y="45"
         width="56"
         height="32"
         class="terminal"
         rx="10"/>
   <text class="terminal" x="39" y="65">WITH</text>
   <rect x="107" y="47" width="24" height="32" rx="10"/>
   <rect x="105"
         y="45"
         width="24"
         height="32"
         class="terminal"
         rx="10"/>
   <text class="terminal" x="115" y="65">(</text>
   <rect x="171" y="47" width="46" height="32"/>
   <rect x="169" y="45" width="46" height="32" class="nonterminal"/>
   <text class="nonterminal" x="179" y="65">field</text>
   <rect x="237" y="47" width="26" height="32" rx="10"/>
   <rect x="235"
         y="45"
         width="26"
         height="32"
         class="terminal"
         rx="10"/>
   <text class="terminal" x="245" y="65">=</text>
   <rect x="283" y="47" width="38" height="32"/>
   <rect x="281" y="45" width="38" height="32" class="nonterminal"/>
   <text class="nonterminal" x="291" y="65">val</text>
   <rect x="171" y="3" width="24" height="32" rx="10"/>
   <rect x="169"
         y="1"
         width="24"
         height="32"
         class="terminal"
         rx="10"/>
   <text class="terminal" x="179" y="21">,</text>
   <rect x="361" y="47" width="24" height="32" rx="10"/>
   <rect x="359"
         y="45"
         width="24"
         height="32"
         class="terminal"
         rx="10"/>
   <text class="terminal" x="369" y="65">)</text>
   <path class="line"
         d="m17 61 h2 m0 0 h10 m56 0 h10 m0 0 h10 m24 0 h10 m20 0 h10 m46 0 h10 m0 0 h10 m26 0 h10 m0 0 h10 m38 0 h10 m-190 0 l20 0 m-1 0 q-9 0 -9 -10 l0 -24 q0 -10 10 -10 m170 44 l20 0 m-20 0 q10 0 10 -10 l0 -24 q0 -10 -10 -10 m-170 0 h10 m24 0 h10 m0 0 h126 m20 44 h10 m24 0 h10 m3 0 h-3"/>
   <polygon points="403 61 411 57 411 65"/>
   <polygon points="403 61 395 57 395 65"/>
</svg>
