<svg width="128" height="128" viewBox="0 0 128 128" fill="none" xmlns="http://www.w3.org/2000/svg">
<path d="M79.9587 75.7245C81.3192 77.2183 82.7508 78.6321 84.2357 79.9926C84.4224 80.206 84.6003 80.4372 84.8048 80.6417C87.339 83.1759 89.8909 85.6834 92.4162 88.2264C93.6166 89.4446 94.9149 90.5739 95.973 91.9077H77.5668C77.3801 91.6854 77.2022 91.4542 76.9977 91.2497C73.9804 88.2502 70.9602 85.2417 67.9369 82.2244C57.6401 71.9573 47.3404 61.6901 37.0377 51.423C34.6369 49.0311 32.3072 46.5769 29.8086 44.3095V36.2446C33.0186 36.2446 36.2374 36.2446 39.4563 36.2446C39.712 36.2353 39.9668 36.2814 40.2031 36.3796C40.4394 36.4778 40.6518 36.6259 40.8256 36.8137C49.3203 45.2787 57.8209 53.7438 66.3275 62.2088C66.4939 62.3723 66.6691 62.5266 66.8521 62.6712C69.3507 65.1876 71.8404 67.7218 74.3568 70.2293C76.2064 72.0788 78.0914 73.8927 79.9587 75.7245Z" fill="#111111"/>
<path opacity="0.7" d="M95.9994 91.9067C94.9145 90.5729 93.6163 89.4436 92.4426 88.2254C89.9173 85.6824 87.3654 83.1749 84.8312 80.6407C84.6267 80.4362 84.4488 80.205 84.2621 79.9916C84.2621 79.6092 84.2621 79.2358 84.2621 78.8534C84.2621 65.8831 84.2621 52.9069 84.2621 39.9248C84.2506 39.2368 84.5055 38.5709 84.9734 38.0664C85.4705 37.3894 86.1407 36.8588 86.9136 36.5303C87.6865 36.2017 88.5336 36.0873 89.366 36.1991C91.7224 36.3769 94.1054 36.2702 96.4795 36.1991C97.2087 36.1991 97.3687 36.3947 97.3687 37.0883C97.3687 50.106 97.3687 63.1029 97.3687 76.0791C97.3687 81.0052 97.3687 85.9343 97.3687 90.8663C97.3687 91.2131 97.3687 91.5599 97.4221 91.9067H95.9994Z" fill="#111111"/>
<path d="M29.791 68.796V50.4165C30.0667 50.4787 30.2089 50.7188 30.3868 50.9056L36.0687 56.5163C46.5374 66.9554 57.0061 77.3944 67.4748 87.8335C68.8085 89.1673 70.2223 90.4388 71.4227 91.906H52.981C52.981 91.6392 52.7231 91.5236 52.5631 91.3636C46.1195 84.9259 39.664 78.4941 33.1966 72.0682C32.1236 70.9145 30.9866 69.8221 29.791 68.796H29.791Z" fill="#111111"/>
<path d="M46.8367 91.9056C41.3504 91.9056 35.8642 91.9056 30.3779 91.9056C29.8888 91.9056 29.791 91.8078 29.791 91.3276C29.791 85.868 29.791 80.3995 29.791 74.9221C30.1556 74.9221 30.3067 75.2689 30.529 75.4823C35.7871 80.7048 41.0363 85.9421 46.2765 91.1942C46.4899 91.381 46.8189 91.5321 46.8367 91.9056Z" fill="#111111"/>
<path opacity="0.7" d="M79.9588 75.7235C78.0915 73.8918 76.2064 72.0779 74.3569 70.2284C71.8405 67.7208 69.3508 65.1867 66.8522 62.6703C66.8522 60.7141 66.8522 58.7667 66.8522 56.8105C66.8326 56.6106 66.8576 56.4089 66.9252 56.2198C66.9928 56.0307 67.1015 55.8589 67.2434 55.7168L79.4875 43.535C79.5853 43.4372 79.7098 43.3571 79.7987 43.2771C80.0744 43.3749 79.9944 43.5794 79.9944 43.7306C79.9944 54.2526 79.9944 64.7717 79.9944 75.2878C79.9917 75.4337 79.9798 75.5792 79.9588 75.7235V75.7235Z" fill="#111111"/>
</svg>
