<svg xmlns="http://www.w3.org/2000/svg" width="760" height="600" fill="none" viewBox="0 0 760 600"><rect width="760" height="600" fill="#100C21" rx="24"/><g clip-path="url(#a)"><g clip-path="url(#b)"><rect width="30.625" height="30.625" fill="#7F4EFF" opacity=".995" rx="3.062" transform="matrix(.83205 -.5547 .83014 .55756 140.854 458.604)"/><rect width="30.625" height="30.625" fill="#7F4EFF" fill-opacity=".2" opacity=".64" rx="3.062" transform="matrix(.83205 -.5547 .83014 .55756 169.166 439.729)"/><rect width="30.625" height="30.625" fill="#7F4EFF" opacity=".2" rx="3.062" transform="matrix(.83205 -.5547 .83014 .55756 197.479 420.854)"/><rect width="30.625" height="30.625" fill="#7F4EFF" opacity=".2" rx="3.062" transform="matrix(.83205 -.5547 .83014 .55756 225.791 401.979)"/><rect width="30.625" height="30.625" fill="#7F4EFF" opacity=".2" rx="3.062" transform="matrix(.83205 -.5547 .83014 .55756 254.104 383.104)"/><rect width="30.625" height="30.625" fill="#7F4EFF" opacity=".2" rx="3.062" transform="matrix(.83205 -.5547 .83014 .55756 282.414 364.229)"/><rect width="30.625" height="30.625" fill="#7F4EFF" opacity=".2" rx="3.062" transform="matrix(.83205 -.5547 .83014 .55756 310.729 345.354)"/><rect width="30.625" height="30.625" fill="#7F4EFF" opacity=".2" rx="3.062" transform="matrix(.83205 -.5547 .83014 .55756 339.041 326.479)"/><rect width="30.625" height="30.625" fill="#7F4EFF" opacity=".2" rx="3.062" transform="matrix(.83205 -.5547 .83014 .55756 367.352 307.604)"/><rect width="30.625" height="30.625" fill="#7F4EFF" opacity=".2" rx="3.062" transform="matrix(.83205 -.5547 .83014 .55756 395.664 288.729)"/><rect width="30.625" height="30.625" fill="#7F4EFF" opacity=".2" rx="3.062" transform="matrix(.83205 -.5547 .83014 .55756 423.977 269.854)"/><rect width="30.625" height="30.625" fill="#7F4EFF" opacity=".2" rx="3.062" transform="matrix(.83205 -.5547 .83014 .55756 452.291 250.979)"/><rect width="30.625" height="30.625" fill="#7F4EFF" opacity=".2" rx="3.062" transform="matrix(.83205 -.5547 .83014 .55756 480.602 232.104)"/><rect width="30.625" height="30.625" fill="#7F4EFF" rx="3.062" transform="matrix(.83205 -.5547 .83014 .55756 508.916 213.23)"/><rect width="30.625" height="30.625" fill="#7F4EFF" rx="3.062" transform="matrix(.83205 -.5547 .83014 .55756 169.1 477.576)"/><rect width="30.625" height="30.625" fill="#7F4EFF" opacity=".2" rx="3.062" transform="matrix(.83205 -.5547 .83014 .55756 197.412 458.701)"/><rect width="30.625" height="30.625" fill="#7F4EFF" opacity=".2" rx="3.062" transform="matrix(.83205 -.5547 .83014 .55756 225.727 439.826)"/><rect width="30.625" height="30.625" fill="#7F4EFF" opacity=".2" rx="3.062" transform="matrix(.83205 -.5547 .83014 .55756 254.037 420.951)"/><rect width="30.625" height="30.625" fill="#7F4EFF" opacity=".2" rx="3.062" transform="matrix(.83205 -.5547 .83014 .55756 282.35 402.076)"/><rect width="30.625" height="30.625" fill="#7F4EFF" opacity=".2" rx="3.062" transform="matrix(.83205 -.5547 .83014 .55756 310.662 383.201)"/><rect width="30.625" height="30.625" fill="#7F4EFF" opacity=".2" rx="3.062" transform="matrix(.83205 -.5547 .83014 .55756 338.977 364.326)"/><rect width="30.625" height="30.625" fill="#7F4EFF" opacity=".2" rx="3.062" transform="matrix(.83205 -.5547 .83014 .55756 367.287 345.451)"/><rect width="30.625" height="30.625" fill="#7F4EFF" opacity=".2" rx="3.062" transform="matrix(.83205 -.5547 .83014 .55756 395.6 326.577)"/><rect width="30.625" height="30.625" fill="#7F4EFF" opacity=".2" rx="3.062" transform="matrix(.83205 -.5547 .83014 .55756 423.912 307.701)"/><rect width="30.625" height="30.625" fill="#7F4EFF" opacity=".2" rx="3.062" transform="matrix(.83205 -.5547 .83014 .55756 452.225 288.826)"/><rect width="30.625" height="30.625" fill="#7F4EFF" opacity=".2" rx="3.062" transform="matrix(.83205 -.5547 .83014 .55756 480.537 269.952)"/><rect width="30.625" height="30.625" fill="#7F4EFF" opacity=".2" rx="3.062" transform="matrix(.83205 -.5547 .83014 .55756 508.85 251.077)"/><rect width="30.625" height="30.625" fill="#7F4EFF" rx="3.062" transform="matrix(.83205 -.5547 .83014 .55756 537.162 232.201)"/><rect width="30.625" height="30.625" fill="#7F4EFF" rx="3.062" transform="matrix(.83205 -.5547 .83014 .55756 197.348 496.549)"/><rect width="30.625" height="30.625" fill="#7F4EFF" opacity=".2" rx="3.062" transform="matrix(.83205 -.5547 .83014 .55756 225.66 477.673)"/><rect width="30.625" height="30.625" fill="#7F4EFF" opacity=".2" rx="3.062" transform="matrix(.83205 -.5547 .83014 .55756 253.973 458.799)"/><rect width="30.625" height="30.625" fill="#7F4EFF" opacity=".2" rx="3.062" transform="matrix(.83205 -.5547 .83014 .55756 282.285 439.924)"/><rect width="30.625" height="30.625" fill="#7F4EFF" opacity=".2" rx="3.062" transform="matrix(.83205 -.5547 .83014 .55756 310.598 421.048)"/><rect width="30.625" height="30.625" fill="#7F4EFF" opacity=".2" rx="3.062" transform="matrix(.83205 -.5547 .83014 .55756 338.91 402.174)"/><rect width="30.625" height="30.625" fill="#7F4EFF" opacity=".2" rx="3.062" transform="matrix(.83205 -.5547 .83014 .55756 367.223 383.299)"/><rect width="30.625" height="30.625" fill="#7F4EFF" opacity=".2" rx="3.062" transform="matrix(.83205 -.5547 .83014 .55756 395.535 364.424)"/><rect width="30.625" height="30.625" fill="#7F4EFF" opacity=".2" rx="3.062" transform="matrix(.83205 -.5547 .83014 .55756 423.848 345.549)"/><rect width="30.625" height="30.625" fill="#7F4EFF" rx="3.062" transform="matrix(.83205 -.5547 .83014 .55756 452.158 326.674)"/><rect width="30.625" height="30.625" fill="#7F4EFF" rx="3.062" transform="matrix(.83205 -.5547 .83014 .55756 480.473 307.799)"/><rect width="30.625" height="30.625" fill="#7F4EFF" opacity=".2" rx="3.062" transform="matrix(.83205 -.5547 .83014 .55756 508.785 288.924)"/><rect width="30.625" height="30.625" fill="#7F4EFF" opacity=".2" rx="3.062" transform="matrix(.83205 -.5547 .83014 .55756 537.098 270.049)"/><rect width="30.625" height="30.625" fill="#7F4EFF" rx="3.062" transform="matrix(.83205 -.5547 .83014 .55756 565.408 251.174)"/><rect width="45" height="45" fill="#7F4EFF" rx="4.5" transform="matrix(.83205 -.5547 .83014 .55756 250.754 552.872)"/><rect width="30.625" height="30.625" fill="#7F4EFF" opacity=".2" rx="3.062" transform="matrix(.83205 -.5547 .83014 .55756 253.908 496.646)"/><rect width="30.625" height="30.625" fill="#7F4EFF" opacity=".2" rx="3.062" transform="matrix(.83205 -.5547 .83014 .55756 282.221 477.771)"/><rect width="30.625" height="30.625" fill="#7F4EFF" opacity=".2" rx="3.062" transform="matrix(.83205 -.5547 .83014 .55756 310.533 458.896)"/><rect width="30.625" height="30.625" fill="#7F4EFF" opacity=".2" rx="3.062" transform="matrix(.83205 -.5547 .83014 .55756 338.846 440.021)"/><rect width="30.625" height="30.625" fill="#7F4EFF" opacity=".2" rx="3.062" transform="matrix(.83205 -.5547 .83014 .55756 367.156 421.146)"/><rect width="30.625" height="30.625" fill="#7F4EFF" opacity=".2" rx="3.062" transform="matrix(.83205 -.5547 .83014 .55756 395.469 402.271)"/><rect width="30.625" height="30.625" fill="#7F4EFF" opacity=".2" rx="3.062" transform="matrix(.83205 -.5547 .83014 .55756 423.781 383.396)"/><rect width="30.625" height="30.625" fill="#7F4EFF" opacity=".2" rx="3.062" transform="matrix(.83205 -.5547 .83014 .55756 452.094 364.521)"/><rect width="45" height="45" fill="#7F4EFF" rx="4.5" transform="matrix(.83205 -.5547 .83014 .55756 625.176 303.257)"/><rect width="30.625" height="30.625" fill="#7F4EFF" rx="3.062" transform="matrix(.83205 -.5547 .83014 .55756 508.721 326.771)"/><rect width="30.625" height="30.625" fill="#7F4EFF" opacity=".2" rx="3.062" transform="matrix(.83205 -.5547 .83014 .55756 537.031 307.896)"/><rect width="30.625" height="30.625" fill="#7F4EFF" opacity=".2" rx="3.062" transform="matrix(.83205 -.5547 .83014 .55756 565.344 289.021)"/><rect width="30.625" height="30.625" fill="#7F4EFF" opacity=".996" rx="3.062" transform="matrix(.83205 -.5547 .83014 .55756 593.656 270.146)"/><rect width="30.625" height="30.625" fill="#7F4EFF" rx="3.062" transform="matrix(.83205 -.5547 .83014 .55756 253.844 534.493)"/><rect width="30.625" height="30.625" fill="#7F4EFF" opacity=".2" rx="3.062" transform="matrix(.83205 -.5547 .83014 .55756 282.156 515.617)"/><rect width="30.625" height="30.625" fill="#7F4EFF" opacity=".2" rx="3.062" transform="matrix(.83205 -.5547 .83014 .55756 310.467 496.742)"/><rect width="30.625" height="30.625" fill="#7F4EFF" opacity=".2" rx="3.062" transform="matrix(.83205 -.5547 .83014 .55756 338.779 477.868)"/><rect width="30.625" height="30.625" fill="#7F4EFF" opacity=".2" rx="3.062" transform="matrix(.83205 -.5547 .83014 .55756 367.092 458.993)"/><rect width="30.625" height="30.625" fill="#7F4EFF" opacity=".2" rx="3.062" transform="matrix(.83205 -.5547 .83014 .55756 395.404 440.117)"/><rect width="30.625" height="30.625" fill="#7F4EFF" opacity=".2" rx="3.062" transform="matrix(.83205 -.5547 .83014 .55756 423.717 421.243)"/><rect width="30.625" height="30.625" fill="#7F4EFF" opacity=".2" rx="3.062" transform="matrix(.83205 -.5547 .83014 .55756 452.029 402.368)"/><rect width="30.625" height="30.625" fill="#7F4EFF" opacity=".2" rx="3.062" transform="matrix(.83205 -.5547 .83014 .55756 480.342 383.493)"/><rect width="30.625" height="30.625" fill="#7F4EFF" opacity=".9" rx="3.062" transform="matrix(.83205 -.5547 .83014 .55756 508.654 364.618)"/><rect width="64.664" height="99.215" fill="#7F4EFF" opacity=".9" rx="3.062" transform="matrix(.83205 -.5547 .83014 .55756 451.705 326.382)"/><rect width="166.449" height="99.215" fill="#7F4EFF" opacity=".9" rx="3.062" transform="matrix(.83205 -.5547 .83014 .55756 283.307 440.487)"/><rect width="30.625" height="30.625" fill="#261A4D" opacity=".9" rx="3.062" transform="matrix(.83205 -.5547 .83014 .55756 565.279 326.868)"/><rect width="30.625" height="30.625" fill="#7F4EFF" opacity=".2" rx="3.062" transform="matrix(.83205 -.5547 .83014 .55756 593.592 307.993)"/><rect width="30.625" height="30.625" fill="#7F4EFF" rx="3.062" transform="matrix(.83205 -.5547 .83014 .55756 621.902 289.118)"/><rect width="30.625" height="30.625" fill="#7F4EFF" rx="3.062" transform="matrix(.83205 -.5547 .83014 .55756 282.09 553.465)"/><rect width="30.625" height="30.625" fill="#7F4EFF" opacity=".2" rx="3.062" transform="matrix(.83205 -.5547 .83014 .55756 310.402 534.59)"/><rect width="30.625" height="30.625" fill="#7F4EFF" opacity=".2" rx="3.062" transform="matrix(.83205 -.5547 .83014 .55756 338.715 515.715)"/><rect width="30.625" height="30.625" fill="#7F4EFF" opacity=".2" rx="3.062" transform="matrix(.83205 -.5547 .83014 .55756 367.027 496.84)"/><rect width="30.625" height="30.625" fill="#7F4EFF" opacity=".2" rx="3.062" transform="matrix(.83205 -.5547 .83014 .55756 395.34 477.965)"/><rect width="30.625" height="30.625" fill="#7F4EFF" opacity=".2" rx="3.062" transform="matrix(.83205 -.5547 .83014 .55756 423.652 459.09)"/><rect width="30.625" height="30.625" fill="#7F4EFF" opacity=".2" rx="3.062" transform="matrix(.83205 -.5547 .83014 .55756 451.965 440.215)"/><rect width="30.625" height="30.625" fill="#7F4EFF" opacity=".2" rx="3.062" transform="matrix(.83205 -.5547 .83014 .55756 480.277 421.34)"/><rect width="30.625" height="30.625" fill="#7F4EFF" opacity=".2" rx="3.062" transform="matrix(.83205 -.5547 .83014 .55756 508.59 402.465)"/><rect width="30.625" height="30.625" fill="#7F4EFF" opacity=".2" rx="3.062" transform="matrix(.83205 -.5547 .83014 .55756 536.902 383.591)"/><rect width="30.625" height="30.625" fill="#7F4EFF" opacity=".2" rx="3.062" transform="matrix(.83205 -.5547 .83014 .55756 565.213 364.715)"/><rect width="30.625" height="30.625" fill="#7F4EFF" opacity=".2" rx="3.062" transform="matrix(.83205 -.5547 .83014 .55756 593.525 345.84)"/><rect width="30.625" height="30.625" fill="#7F4EFF" opacity=".2" rx="3.062" transform="matrix(.83205 -.5547 .83014 .55756 621.84 326.966)"/><rect width="30.625" height="30.625" fill="#7F4EFF" rx="3.062" transform="matrix(.83205 -.5547 .83014 .55756 650.15 308.091)"/><rect width="30.625" height="30.625" fill="#7F4EFF" rx="3.062" transform="matrix(.83205 -.5547 .83014 .55756 310.336 572.437)"/><rect width="30.625" height="30.625" fill="#7F4EFF" opacity=".2" rx="3.062" transform="matrix(.83205 -.5547 .83014 .55756 338.65 553.562)"/><rect width="30.625" height="30.625" fill="#7F4EFF" opacity=".2" rx="3.062" transform="matrix(.83205 -.5547 .83014 .55756 366.963 534.687)"/><rect width="30.625" height="30.625" fill="#7F4EFF" opacity=".2" rx="3.062" transform="matrix(.83205 -.5547 .83014 .55756 395.275 515.812)"/><rect width="30.625" height="30.625" fill="#7F4EFF" opacity=".2" rx="3.062" transform="matrix(.83205 -.5547 .83014 .55756 423.586 496.938)"/><rect width="30.625" height="30.625" fill="#7F4EFF" opacity=".2" rx="3.062" transform="matrix(.83205 -.5547 .83014 .55756 451.9 478.062)"/><rect width="30.625" height="30.625" fill="#7F4EFF" opacity=".2" rx="3.062" transform="matrix(.83205 -.5547 .83014 .55756 480.213 459.188)"/><rect width="30.625" height="30.625" fill="#7F4EFF" opacity=".2" rx="3.062" transform="matrix(.83205 -.5547 .83014 .55756 508.525 440.312)"/><rect width="30.625" height="30.625" fill="#7F4EFF" opacity=".2" rx="3.062" transform="matrix(.83205 -.5547 .83014 .55756 536.836 421.438)"/><rect width="30.625" height="30.625" fill="#7F4EFF" opacity=".2" rx="3.062" transform="matrix(.83205 -.5547 .83014 .55756 565.148 402.562)"/><rect width="30.625" height="30.625" fill="#7F4EFF" opacity=".2" rx="3.062" transform="matrix(.83205 -.5547 .83014 .55756 593.463 383.688)"/><rect width="30.625" height="30.625" fill="#7F4EFF" opacity=".2" rx="3.062" transform="matrix(.83205 -.5547 .83014 .55756 621.773 364.812)"/><rect width="30.625" height="30.625" fill="#7F4EFF" opacity=".2" rx="3.062" transform="matrix(.83205 -.5547 .83014 .55756 650.086 345.938)"/><rect width="30.625" height="30.625" fill="#7F4EFF" rx="3.062" transform="matrix(.83205 -.5547 .83014 .55756 678.398 327.062)"/><g filter="url(#c)" opacity=".9"><rect width="64.664" height="99.215" fill="#7F4EFF" rx="3.062" transform="matrix(.83205 -.5547 .83014 .55756 452.385 324.525)"/></g><g filter="url(#d)" opacity=".9"><rect width="64.664" height="99.215" fill="#7F4EFF" rx="3.062" transform="matrix(.83205 -.5547 .83014 .55756 453.223 317.521)"/></g><g filter="url(#e)" opacity=".9"><rect width="64.664" height="99.215" fill="#7F4EFF" rx="3.062" transform="matrix(.83205 -.5547 .83014 .55756 453.223 309.354)"/></g></g><g filter="url(#f)"><rect width="394.716" height="236.83" stroke="#7F4EFF" stroke-width="7" rx="3.403" shape-rendering="crispEdges" transform="matrix(.83205 -.5547 -.83014 -.55756 369.602 568.995)"/></g><g clip-path="url(#g)" opacity=".65"><rect width="30.625" height="30.625" fill="#7F4EFF" fill-opacity=".2" opacity=".64" rx="3.062" transform="matrix(.83205 -.5547 .83014 .55756 -42.834 301.729)"/><rect width="30.625" height="30.625" fill="#7F4EFF" opacity=".2" rx="3.062" transform="matrix(.83205 -.5547 .83014 .55756 -14.521 282.854)"/><rect width="30.625" height="30.625" fill="#7F4EFF" opacity=".2" rx="3.062" transform="matrix(.83205 -.5547 .83014 .55756 13.791 263.979)"/><rect width="30.625" height="30.625" fill="#7F4EFF" opacity=".2" rx="3.062" transform="matrix(.83205 -.5547 .83014 .55756 42.103 245.104)"/><rect width="30.625" height="30.625" fill="#7F4EFF" opacity=".2" rx="3.062" transform="matrix(.83205 -.5547 .83014 .55756 70.414 226.229)"/><rect width="30.625" height="30.625" fill="#7F4EFF" opacity=".2" rx="3.062" transform="matrix(.83205 -.5547 .83014 .55756 98.728 207.354)"/><rect width="30.625" height="30.625" fill="#7F4EFF" opacity=".2" rx="3.062" transform="matrix(.83205 -.5547 .83014 .55756 127.041 188.479)"/><rect width="30.625" height="30.625" fill="#7F4EFF" opacity=".2" rx="3.062" transform="matrix(.83205 -.5547 .83014 .55756 155.352 169.604)"/><rect width="30.625" height="30.625" fill="#7F4EFF" opacity=".2" rx="3.062" transform="matrix(.83205 -.5547 .83014 .55756 183.664 150.729)"/><rect width="30.625" height="30.625" fill="#7F4EFF" opacity=".2" rx="3.062" transform="matrix(.83205 -.5547 .83014 .55756 211.977 131.854)"/><rect width="30.625" height="30.625" fill="#7F4EFF" opacity=".2" rx="3.062" transform="matrix(.83205 -.5547 .83014 .55756 240.291 112.979)"/><rect width="30.625" height="30.625" fill="#7F4EFF" opacity=".2" rx="3.062" transform="matrix(.83205 -.5547 .83014 .55756 268.602 94.105)"/><rect width="30.625" height="30.625" fill="#7F4EFF" rx="3.062" transform="matrix(.83205 -.5547 .83014 .55756 296.916 75.23)"/><rect width="30.625" height="30.625" fill="#7F4EFF" rx="3.062" transform="matrix(.83205 -.5547 .83014 .55756 -42.9 339.576)"/><rect width="30.625" height="30.625" fill="#7F4EFF" opacity=".2" rx="3.062" transform="matrix(.83205 -.5547 .83014 .55756 -14.588 320.701)"/><rect width="30.625" height="30.625" fill="#7F4EFF" opacity=".2" rx="3.062" transform="matrix(.83205 -.5547 .83014 .55756 13.727 301.826)"/><rect width="30.625" height="30.625" fill="#7F4EFF" opacity=".2" rx="3.062" transform="matrix(.83205 -.5547 .83014 .55756 42.037 282.951)"/><rect width="30.625" height="30.625" fill="#7F4EFF" opacity=".2" rx="3.062" transform="matrix(.83205 -.5547 .83014 .55756 70.35 264.076)"/><rect width="30.625" height="30.625" fill="#7F4EFF" opacity=".2" rx="3.062" transform="matrix(.83205 -.5547 .83014 .55756 98.662 245.201)"/><rect width="30.625" height="30.625" fill="#7F4EFF" opacity=".2" rx="3.062" transform="matrix(.83205 -.5547 .83014 .55756 126.977 226.326)"/><rect width="30.625" height="30.625" fill="#7F4EFF" opacity=".2" rx="3.062" transform="matrix(.83205 -.5547 .83014 .55756 155.287 207.451)"/><rect width="30.625" height="30.625" fill="#7F4EFF" opacity=".2" rx="3.062" transform="matrix(.83205 -.5547 .83014 .55756 183.6 188.577)"/><rect width="30.625" height="30.625" fill="#7F4EFF" opacity=".2" rx="3.062" transform="matrix(.83205 -.5547 .83014 .55756 211.912 169.701)"/><rect width="30.625" height="30.625" fill="#7F4EFF" opacity=".2" rx="3.062" transform="matrix(.83205 -.5547 .83014 .55756 240.225 150.826)"/><rect width="30.625" height="30.625" fill="#7F4EFF" opacity=".2" rx="3.062" transform="matrix(.83205 -.5547 .83014 .55756 268.537 131.952)"/><rect width="30.625" height="30.625" fill="#7F4EFF" opacity=".2" rx="3.062" transform="matrix(.83205 -.5547 .83014 .55756 296.85 113.077)"/><rect width="30.625" height="30.625" fill="#7F4EFF" rx="3.062" transform="matrix(.83205 -.5547 .83014 .55756 325.162 94.201)"/><rect width="30.625" height="30.625" fill="#7F4EFF" rx="3.062" transform="matrix(.83205 -.5547 .83014 .55756 -14.652 358.549)"/><rect width="30.625" height="30.625" fill="#7F4EFF" opacity=".2" rx="3.062" transform="matrix(.83205 -.5547 .83014 .55756 13.66 339.673)"/><rect width="30.625" height="30.625" fill="#7F4EFF" opacity=".2" rx="3.062" transform="matrix(.83205 -.5547 .83014 .55756 41.973 320.799)"/><rect width="30.625" height="30.625" fill="#7F4EFF" opacity=".2" rx="3.062" transform="matrix(.83205 -.5547 .83014 .55756 70.285 301.924)"/><rect width="30.625" height="30.625" fill="#7F4EFF" opacity=".2" rx="3.062" transform="matrix(.83205 -.5547 .83014 .55756 98.598 283.048)"/><rect width="30.625" height="30.625" fill="#7F4EFF" opacity=".2" rx="3.062" transform="matrix(.83205 -.5547 .83014 .55756 126.91 264.174)"/><rect width="30.625" height="30.625" fill="#7F4EFF" opacity=".2" rx="3.062" transform="matrix(.83205 -.5547 .83014 .55756 155.223 245.299)"/><rect width="30.625" height="30.625" fill="#7F4EFF" opacity=".2" rx="3.062" transform="matrix(.83205 -.5547 .83014 .55756 183.535 226.424)"/><rect width="30.625" height="30.625" fill="#7F4EFF" opacity=".2" rx="3.062" transform="matrix(.83205 -.5547 .83014 .55756 211.848 207.549)"/><rect width="30.625" height="30.625" fill="#7F4EFF" rx="3.062" transform="matrix(.83205 -.5547 .83014 .55756 240.158 188.674)"/><rect width="30.625" height="30.625" fill="#7F4EFF" rx="3.062" transform="matrix(.83205 -.5547 .83014 .55756 268.473 169.799)"/><rect width="30.625" height="30.625" fill="#7F4EFF" opacity=".2" rx="3.062" transform="matrix(.83205 -.5547 .83014 .55756 296.785 150.924)"/><rect width="30.625" height="30.625" fill="#7F4EFF" opacity=".2" rx="3.062" transform="matrix(.83205 -.5547 .83014 .55756 325.098 132.049)"/><rect width="30.625" height="30.625" fill="#7F4EFF" rx="3.062" transform="matrix(.83205 -.5547 .83014 .55756 353.408 113.174)"/><rect width="45" height="45" fill="#7F4EFF" rx="4.5" transform="matrix(.83205 -.5547 .83014 .55756 38.754 414.872)"/><rect width="30.625" height="30.625" fill="#7F4EFF" opacity=".2" rx="3.062" transform="matrix(.83205 -.5547 .83014 .55756 41.908 358.646)"/><rect width="30.625" height="30.625" fill="#7F4EFF" opacity=".2" rx="3.062" transform="matrix(.83205 -.5547 .83014 .55756 70.22 339.771)"/><rect width="30.625" height="30.625" fill="#7F4EFF" opacity=".2" rx="3.062" transform="matrix(.83205 -.5547 .83014 .55756 98.533 320.896)"/><rect width="30.625" height="30.625" fill="#7F4EFF" opacity=".2" rx="3.062" transform="matrix(.83205 -.5547 .83014 .55756 126.846 302.021)"/><rect width="30.625" height="30.625" fill="#7F4EFF" opacity=".2" rx="3.062" transform="matrix(.83205 -.5547 .83014 .55756 155.156 283.146)"/><rect width="30.625" height="30.625" fill="#7F4EFF" opacity=".2" rx="3.062" transform="matrix(.83205 -.5547 .83014 .55756 183.469 264.271)"/><rect width="30.625" height="30.625" fill="#7F4EFF" opacity=".2" rx="3.062" transform="matrix(.83205 -.5547 .83014 .55756 211.781 245.396)"/><rect width="30.625" height="30.625" fill="#7F4EFF" opacity=".2" rx="3.062" transform="matrix(.83205 -.5547 .83014 .55756 240.094 226.521)"/><rect width="30.625" height="30.625" fill="#7F4EFF" rx="3.062" transform="matrix(.83205 -.5547 .83014 .55756 296.721 188.771)"/><rect width="30.625" height="30.625" fill="#7F4EFF" opacity=".2" rx="3.062" transform="matrix(.83205 -.5547 .83014 .55756 325.031 169.896)"/><rect width="30.625" height="30.625" fill="#7F4EFF" opacity=".2" rx="3.062" transform="matrix(.83205 -.5547 .83014 .55756 353.344 151.021)"/><rect width="30.625" height="30.625" fill="#7F4EFF" opacity=".996" rx="3.062" transform="matrix(.83205 -.5547 .83014 .55756 381.656 132.146)"/><rect width="30.625" height="30.625" fill="#7F4EFF" rx="3.062" transform="matrix(.83205 -.5547 .83014 .55756 41.844 396.493)"/><rect width="30.625" height="30.625" fill="#7F4EFF" opacity=".2" rx="3.062" transform="matrix(.83205 -.5547 .83014 .55756 70.156 377.617)"/><rect width="30.625" height="30.625" fill="#7F4EFF" opacity=".2" rx="3.062" transform="matrix(.83205 -.5547 .83014 .55756 98.467 358.742)"/><rect width="30.625" height="30.625" fill="#7F4EFF" opacity=".2" rx="3.062" transform="matrix(.83205 -.5547 .83014 .55756 126.779 339.868)"/><rect width="30.625" height="30.625" fill="#7F4EFF" opacity=".2" rx="3.062" transform="matrix(.83205 -.5547 .83014 .55756 155.092 320.993)"/><rect width="30.625" height="30.625" fill="#7F4EFF" opacity=".2" rx="3.062" transform="matrix(.83205 -.5547 .83014 .55756 183.404 302.117)"/><rect width="30.625" height="30.625" fill="#7F4EFF" opacity=".2" rx="3.062" transform="matrix(.83205 -.5547 .83014 .55756 211.717 283.243)"/><rect width="30.625" height="30.625" fill="#7F4EFF" opacity=".2" rx="3.062" transform="matrix(.83205 -.5547 .83014 .55756 240.029 264.368)"/><rect width="30.625" height="30.625" fill="#7F4EFF" opacity=".2" rx="3.062" transform="matrix(.83205 -.5547 .83014 .55756 268.342 245.493)"/><rect width="30.625" height="30.625" fill="#7F4EFF" opacity=".9" rx="3.062" transform="matrix(.83205 -.5547 .83014 .55756 296.654 226.618)"/><rect width="64.664" height="99.215" fill="#7F4EFF" opacity=".9" rx="3.062" transform="matrix(.83205 -.5547 .83014 .55756 239.705 188.382)"/><g filter="url(#h)" opacity=".72"><rect width="166.449" height="99.215" fill="#7F4EFF" rx="3.062" transform="matrix(.83205 -.5547 .83014 .55756 71.307 302.487)"/></g><rect width="30.625" height="30.625" fill="#261A4D" opacity=".9" rx="3.062" transform="matrix(.83205 -.5547 .83014 .55756 353.279 188.868)"/><rect width="30.625" height="30.625" fill="#7F4EFF" opacity=".2" rx="3.062" transform="matrix(.83205 -.5547 .83014 .55756 381.592 169.993)"/><rect width="30.625" height="30.625" fill="#7F4EFF" rx="3.062" transform="matrix(.83205 -.5547 .83014 .55756 409.902 151.118)"/><rect width="30.625" height="30.625" fill="#7F4EFF" rx="3.062" transform="matrix(.83205 -.5547 .83014 .55756 70.09 415.465)"/><rect width="30.625" height="30.625" fill="#7F4EFF" opacity=".2" rx="3.062" transform="matrix(.83205 -.5547 .83014 .55756 98.402 396.59)"/><rect width="30.625" height="30.625" fill="#7F4EFF" opacity=".2" rx="3.062" transform="matrix(.83205 -.5547 .83014 .55756 126.715 377.715)"/><rect width="30.625" height="30.625" fill="#7F4EFF" opacity=".2" rx="3.062" transform="matrix(.83205 -.5547 .83014 .55756 155.027 358.84)"/><rect width="30.625" height="30.625" fill="#7F4EFF" opacity=".2" rx="3.062" transform="matrix(.83205 -.5547 .83014 .55756 183.34 339.965)"/><rect width="30.625" height="30.625" fill="#7F4EFF" opacity=".2" rx="3.062" transform="matrix(.83205 -.5547 .83014 .55756 211.652 321.09)"/><rect width="30.625" height="30.625" fill="#7F4EFF" opacity=".2" rx="3.062" transform="matrix(.83205 -.5547 .83014 .55756 239.965 302.215)"/><rect width="30.625" height="30.625" fill="#7F4EFF" opacity=".2" rx="3.062" transform="matrix(.83205 -.5547 .83014 .55756 268.277 283.34)"/><rect width="30.625" height="30.625" fill="#7F4EFF" opacity=".2" rx="3.062" transform="matrix(.83205 -.5547 .83014 .55756 296.59 264.465)"/><rect width="30.625" height="30.625" fill="#7F4EFF" opacity=".2" rx="3.062" transform="matrix(.83205 -.5547 .83014 .55756 324.902 245.591)"/><rect width="30.625" height="30.625" fill="#7F4EFF" opacity=".2" rx="3.062" transform="matrix(.83205 -.5547 .83014 .55756 353.213 226.715)"/><rect width="30.625" height="30.625" fill="#7F4EFF" opacity=".2" rx="3.062" transform="matrix(.83205 -.5547 .83014 .55756 381.525 207.84)"/><rect width="30.625" height="30.625" fill="#7F4EFF" opacity=".2" rx="3.062" transform="matrix(.83205 -.5547 .83014 .55756 409.84 188.966)"/><rect width="30.625" height="30.625" fill="#7F4EFF" rx="3.062" transform="matrix(.83205 -.5547 .83014 .55756 438.15 170.091)"/><rect width="30.625" height="30.625" fill="#7F4EFF" rx="3.062" transform="matrix(.83205 -.5547 .83014 .55756 98.336 434.437)"/><rect width="30.625" height="30.625" fill="#7F4EFF" opacity=".2" rx="3.062" transform="matrix(.83205 -.5547 .83014 .55756 126.65 415.562)"/><rect width="30.625" height="30.625" fill="#7F4EFF" opacity=".2" rx="3.062" transform="matrix(.83205 -.5547 .83014 .55756 154.963 396.687)"/><rect width="30.625" height="30.625" fill="#7F4EFF" opacity=".2" rx="3.062" transform="matrix(.83205 -.5547 .83014 .55756 183.275 377.812)"/><rect width="30.625" height="30.625" fill="#7F4EFF" opacity=".2" rx="3.062" transform="matrix(.83205 -.5547 .83014 .55756 211.586 358.938)"/><rect width="30.625" height="30.625" fill="#7F4EFF" opacity=".2" rx="3.062" transform="matrix(.83205 -.5547 .83014 .55756 239.9 340.062)"/><rect width="30.625" height="30.625" fill="#7F4EFF" opacity=".2" rx="3.062" transform="matrix(.83205 -.5547 .83014 .55756 268.213 321.188)"/><rect width="30.625" height="30.625" fill="#7F4EFF" opacity=".2" rx="3.062" transform="matrix(.83205 -.5547 .83014 .55756 296.525 302.312)"/><rect width="30.625" height="30.625" fill="#7F4EFF" opacity=".2" rx="3.062" transform="matrix(.83205 -.5547 .83014 .55756 324.836 283.438)"/><rect width="30.625" height="30.625" fill="#7F4EFF" opacity=".2" rx="3.062" transform="matrix(.83205 -.5547 .83014 .55756 353.148 264.562)"/><rect width="30.625" height="30.625" fill="#7F4EFF" opacity=".2" rx="3.062" transform="matrix(.83205 -.5547 .83014 .55756 381.463 245.688)"/><rect width="30.625" height="30.625" fill="#7F4EFF" opacity=".2" rx="3.062" transform="matrix(.83205 -.5547 .83014 .55756 409.773 226.812)"/><rect width="30.625" height="30.625" fill="#7F4EFF" opacity=".2" rx="3.062" transform="matrix(.83205 -.5547 .83014 .55756 438.086 207.938)"/><rect width="30.625" height="30.625" fill="#7F4EFF" rx="3.062" transform="matrix(.83205 -.5547 .83014 .55756 466.398 189.062)"/><g filter="url(#i)" opacity=".81"><rect width="64.664" height="99.215" fill="#7F4EFF" rx="3.062" transform="matrix(.83205 -.5547 .83014 .55756 241.223 179.521)"/></g></g><g clip-path="url(#j)" opacity=".34"><rect width="30.625" height="30.625" fill="#7F4EFF" opacity=".2" rx="3.062" transform="matrix(.83205 -.5547 .83014 .55756 -46.648 33.605)"/><rect width="30.625" height="30.625" fill="#7F4EFF" opacity=".2" rx="3.062" transform="matrix(.83205 -.5547 .83014 .55756 -18.336 14.73)"/><rect width="30.625" height="30.625" fill="#7F4EFF" opacity=".2" rx="3.062" transform="matrix(.83205 -.5547 .83014 .55756 9.977 -4.146)"/><rect width="30.625" height="30.625" fill="#7F4EFF" opacity=".2" rx="3.062" transform="matrix(.83205 -.5547 .83014 .55756 -46.713 71.451)"/><rect width="30.625" height="30.625" fill="#7F4EFF" opacity=".2" rx="3.062" transform="matrix(.83205 -.5547 .83014 .55756 -18.4 52.577)"/><rect width="30.625" height="30.625" fill="#7F4EFF" opacity=".2" rx="3.062" transform="matrix(.83205 -.5547 .83014 .55756 9.912 33.701)"/><rect width="30.625" height="30.625" fill="#7F4EFF" opacity=".2" rx="3.062" transform="matrix(.83205 -.5547 .83014 .55756 38.225 14.826)"/><rect width="30.625" height="30.625" fill="#7F4EFF" opacity=".2" rx="3.062" transform="matrix(.83205 -.5547 .83014 .55756 66.537 -4.048)"/><rect width="30.625" height="30.625" fill="#7F4EFF" opacity=".2" rx="3.062" transform="matrix(.83205 -.5547 .83014 .55756 -46.777 109.299)"/><rect width="30.625" height="30.625" fill="#7F4EFF" opacity=".2" rx="3.062" transform="matrix(.83205 -.5547 .83014 .55756 -18.465 90.424)"/><rect width="30.625" height="30.625" fill="#7F4EFF" opacity=".2" rx="3.062" transform="matrix(.83205 -.5547 .83014 .55756 9.848 71.549)"/><rect width="30.625" height="30.625" fill="#7F4EFF" rx="3.062" transform="matrix(.83205 -.5547 .83014 .55756 38.158 52.674)"/><rect width="30.625" height="30.625" fill="#7F4EFF" rx="3.062" transform="matrix(.83205 -.5547 .83014 .55756 66.473 33.799)"/><rect width="30.625" height="30.625" fill="#7F4EFF" opacity=".2" rx="3.062" transform="matrix(.83205 -.5547 .83014 .55756 94.785 14.924)"/><rect width="30.625" height="30.625" fill="#7F4EFF" opacity=".2" rx="3.062" transform="matrix(.83205 -.5547 .83014 .55756 123.098 -3.951)"/><rect width="30.625" height="30.625" fill="#7F4EFF" opacity=".2" rx="3.062" transform="matrix(.83205 -.5547 .83014 .55756 -46.844 147.146)"/><rect width="30.625" height="30.625" fill="#7F4EFF" opacity=".2" rx="3.062" transform="matrix(.83205 -.5547 .83014 .55756 -18.531 128.271)"/><rect width="30.625" height="30.625" fill="#7F4EFF" opacity=".2" rx="3.062" transform="matrix(.83205 -.5547 .83014 .55756 9.781 109.396)"/><rect width="30.625" height="30.625" fill="#7F4EFF" opacity=".2" rx="3.062" transform="matrix(.83205 -.5547 .83014 .55756 38.094 90.522)"/><rect width="30.625" height="30.625" fill="#7F4EFF" rx="3.062" transform="matrix(.83205 -.5547 .83014 .55756 94.72 52.77)"/><rect width="30.625" height="30.625" fill="#7F4EFF" opacity=".2" rx="3.062" transform="matrix(.83205 -.5547 .83014 .55756 123.031 33.897)"/><rect width="30.625" height="30.625" fill="#7F4EFF" opacity=".2" rx="3.062" transform="matrix(.83205 -.5547 .83014 .55756 151.344 15.021)"/><rect width="30.625" height="30.625" fill="#7F4EFF" opacity=".996" rx="3.062" transform="matrix(.83205 -.5547 .83014 .55756 179.656 -3.854)"/><rect width="30.625" height="30.625" fill="#7F4EFF" opacity=".2" rx="3.062" transform="matrix(.83205 -.5547 .83014 .55756 -46.908 184.993)"/><rect width="30.625" height="30.625" fill="#7F4EFF" opacity=".2" rx="3.062" transform="matrix(.83205 -.5547 .83014 .55756 -18.596 166.117)"/><rect width="30.625" height="30.625" fill="#7F4EFF" opacity=".2" rx="3.062" transform="matrix(.83205 -.5547 .83014 .55756 9.717 147.243)"/><rect width="30.625" height="30.625" fill="#7F4EFF" opacity=".2" rx="3.062" transform="matrix(.83205 -.5547 .83014 .55756 38.03 128.368)"/><rect width="30.625" height="30.625" fill="#7F4EFF" opacity=".2" rx="3.062" transform="matrix(.83205 -.5547 .83014 .55756 66.342 109.493)"/><rect width="30.625" height="30.625" fill="#7F4EFF" opacity=".36" rx="3.062" transform="matrix(.83205 -.5547 .83014 .55756 94.654 90.618)"/><g filter="url(#k)" opacity=".78"><rect width="64.664" height="99.215" fill="#7F4EFF" rx="3.062" transform="matrix(.83205 -.5547 .83014 .55756 37.705 52.382)"/></g><g filter="url(#l)" opacity=".48"><rect width="166.449" height="99.215" fill="#7F4EFF" rx="3.062" transform="matrix(.83205 -.5547 .83014 .55756 -130.693 166.487)"/></g><rect width="30.625" height="30.625" fill="#261A4D" opacity=".9" rx="3.062" transform="matrix(.83205 -.5547 .83014 .55756 151.279 52.868)"/><rect width="30.625" height="30.625" fill="#7F4EFF" opacity=".2" rx="3.062" transform="matrix(.83205 -.5547 .83014 .55756 179.592 33.993)"/><rect width="30.625" height="30.625" fill="#7F4EFF" rx="3.062" transform="matrix(.83205 -.5547 .83014 .55756 207.902 15.118)"/><rect width="30.625" height="30.625" fill="#7F4EFF" opacity=".2" rx="3.062" transform="matrix(.83205 -.5547 .83014 .55756 -46.973 222.84)"/><rect width="30.625" height="30.625" fill="#7F4EFF" opacity=".2" rx="3.062" transform="matrix(.83205 -.5547 .83014 .55756 -18.66 203.965)"/><rect width="30.625" height="30.625" fill="#7F4EFF" opacity=".2" rx="3.062" transform="matrix(.83205 -.5547 .83014 .55756 9.652 185.09)"/><rect width="30.625" height="30.625" fill="#7F4EFF" opacity=".2" rx="3.062" transform="matrix(.83205 -.5547 .83014 .55756 37.965 166.215)"/><rect width="30.625" height="30.625" fill="#7F4EFF" opacity=".2" rx="3.062" transform="matrix(.83205 -.5547 .83014 .55756 66.277 147.34)"/><rect width="30.625" height="30.625" fill="#7F4EFF" opacity=".2" rx="3.062" transform="matrix(.83205 -.5547 .83014 .55756 94.59 128.465)"/><rect width="30.625" height="30.625" fill="#7F4EFF" opacity=".2" rx="3.062" transform="matrix(.83205 -.5547 .83014 .55756 122.902 109.591)"/><rect width="30.625" height="30.625" fill="#7F4EFF" opacity=".2" rx="3.062" transform="matrix(.83205 -.5547 .83014 .55756 151.213 90.715)"/><rect width="30.625" height="30.625" fill="#7F4EFF" opacity=".2" rx="3.062" transform="matrix(.83205 -.5547 .83014 .55756 179.525 71.84)"/><rect width="30.625" height="30.625" fill="#7F4EFF" opacity=".2" rx="3.062" transform="matrix(.83205 -.5547 .83014 .55756 207.84 52.966)"/><rect width="30.625" height="30.625" fill="#7F4EFF" rx="3.062" transform="matrix(.83205 -.5547 .83014 .55756 236.15 34.09)"/><rect width="30.625" height="30.625" fill="#7F4EFF" opacity=".2" rx="3.062" transform="matrix(.83205 -.5547 .83014 .55756 -47.037 260.687)"/><rect width="30.625" height="30.625" fill="#7F4EFF" opacity=".2" rx="3.062" transform="matrix(.83205 -.5547 .83014 .55756 -18.725 241.812)"/><rect width="30.625" height="30.625" fill="#7F4EFF" opacity=".2" rx="3.062" transform="matrix(.83205 -.5547 .83014 .55756 9.586 222.938)"/><rect width="30.625" height="30.625" fill="#7F4EFF" opacity=".2" rx="3.062" transform="matrix(.83205 -.5547 .83014 .55756 37.9 204.062)"/><rect width="30.625" height="30.625" fill="#7F4EFF" opacity=".2" rx="3.062" transform="matrix(.83205 -.5547 .83014 .55756 66.213 185.188)"/><rect width="30.625" height="30.625" fill="#7F4EFF" opacity=".2" rx="3.062" transform="matrix(.83205 -.5547 .83014 .55756 94.525 166.312)"/><rect width="30.625" height="30.625" fill="#7F4EFF" opacity=".2" rx="3.062" transform="matrix(.83205 -.5547 .83014 .55756 122.836 147.438)"/><rect width="30.625" height="30.625" fill="#7F4EFF" opacity=".2" rx="3.062" transform="matrix(.83205 -.5547 .83014 .55756 151.148 128.562)"/><rect width="30.625" height="30.625" fill="#7F4EFF" opacity=".2" rx="3.062" transform="matrix(.83205 -.5547 .83014 .55756 179.463 109.688)"/><rect width="30.625" height="30.625" fill="#7F4EFF" opacity=".2" rx="3.062" transform="matrix(.83205 -.5547 .83014 .55756 207.773 90.813)"/><rect width="30.625" height="30.625" fill="#7F4EFF" opacity=".2" rx="3.062" transform="matrix(.83205 -.5547 .83014 .55756 236.086 71.938)"/><rect width="30.625" height="30.625" fill="#7F4EFF" rx="3.062" transform="matrix(.83205 -.5547 .83014 .55756 264.398 53.063)"/></g></g><defs><filter id="c" width="138.628" height="94.636" x="451.154" y="289.654" color-interpolation-filters="sRGB" filterUnits="userSpaceOnUse"><feFlood flood-opacity="0" result="BackgroundImageFix"/><feColorMatrix in="SourceAlpha" result="hardAlpha" values="0 0 0 0 0 0 0 0 0 0 0 0 0 0 0 0 0 0 127 0"/><feOffset dy="2.722"/><feGaussianBlur stdDeviation="1.361"/><feComposite in2="hardAlpha" operator="out"/><feColorMatrix values="0 0 0 0 0 0 0 0 0 0 0 0 0 0 0 0 0 0 1 0"/><feBlend in2="BackgroundImageFix" result="effect1_dropShadow_507_2502"/><feBlend in="SourceGraphic" in2="effect1_dropShadow_507_2502" result="shape"/></filter><filter id="d" width="138.628" height="94.636" x="451.992" y="282.649" color-interpolation-filters="sRGB" filterUnits="userSpaceOnUse"><feFlood flood-opacity="0" result="BackgroundImageFix"/><feColorMatrix in="SourceAlpha" result="hardAlpha" values="0 0 0 0 0 0 0 0 0 0 0 0 0 0 0 0 0 0 127 0"/><feOffset dy="2.722"/><feGaussianBlur stdDeviation="1.361"/><feComposite in2="hardAlpha" operator="out"/><feColorMatrix values="0 0 0 0 0 0 0 0 0 0 0 0 0 0 0 0 0 0 1 0"/><feBlend in2="BackgroundImageFix" result="effect1_dropShadow_507_2502"/><feBlend in="SourceGraphic" in2="effect1_dropShadow_507_2502" result="shape"/></filter><filter id="e" width="138.628" height="94.636" x="451.992" y="274.482" color-interpolation-filters="sRGB" filterUnits="userSpaceOnUse"><feFlood flood-opacity="0" result="BackgroundImageFix"/><feColorMatrix in="SourceAlpha" result="hardAlpha" values="0 0 0 0 0 0 0 0 0 0 0 0 0 0 0 0 0 0 127 0"/><feOffset dy="2.722"/><feGaussianBlur stdDeviation="1.361"/><feComposite in2="hardAlpha" operator="out"/><feColorMatrix values="0 0 0 0 0 0 0 0 0 0 0 0 0 0 0 0 0 0 1 0"/><feBlend in2="BackgroundImageFix" result="effect1_dropShadow_507_2502"/><feBlend in="SourceGraphic" in2="effect1_dropShadow_507_2502" result="shape"/></filter><filter id="f" width="597.994" height="422.339" x="144.682" y="176.203" color-interpolation-filters="sRGB" filterUnits="userSpaceOnUse"><feFlood flood-opacity="0" result="BackgroundImageFix"/><feColorMatrix in="SourceAlpha" result="hardAlpha" values="0 0 0 0 0 0 0 0 0 0 0 0 0 0 0 0 0 0 127 0"/><feMorphology in="SourceAlpha" operator="dilate" radius="17.014" result="effect1_dropShadow_507_2502"/><feOffset dx="8.167" dy="-6.125"/><feGaussianBlur stdDeviation="8.507"/><feComposite in2="hardAlpha" operator="out"/><feColorMatrix values="0 0 0 0 0 0 0 0 0 0 0 0 0 0 0 0 0 0 0.25 0"/><feBlend in2="BackgroundImageFix" result="effect1_dropShadow_507_2502"/><feBlend in="SourceGraphic" in2="effect1_dropShadow_507_2502" result="shape"/></filter><filter id="h" width="223.874" height="151.651" x="69.798" y="208.156" color-interpolation-filters="sRGB" filterUnits="userSpaceOnUse"><feFlood flood-opacity="0" result="BackgroundImageFix"/><feBlend in="SourceGraphic" in2="BackgroundImageFix" result="shape"/><feGaussianBlur result="effect1_foregroundBlur_507_2502" stdDeviation="1.5"/></filter><filter id="i" width="161.184" height="117.191" x="228.714" y="134.649" color-interpolation-filters="sRGB" filterUnits="userSpaceOnUse"><feFlood flood-opacity="0" result="BackgroundImageFix"/><feColorMatrix in="SourceAlpha" result="hardAlpha" values="0 0 0 0 0 0 0 0 0 0 0 0 0 0 0 0 0 0 127 0"/><feOffset dy="4"/><feGaussianBlur stdDeviation="7"/><feComposite in2="hardAlpha" operator="out"/><feColorMatrix values="0 0 0 0 0 0 0 0 0 0 0 0 0 0 0 0 0 0 0.25 0"/><feBlend in2="BackgroundImageFix" result="effect1_dropShadow_507_2502"/><feBlend in="SourceGraphic" in2="effect1_dropShadow_507_2502" result="shape"/></filter><filter id="k" width="141.184" height="97.191" x="35.196" y="13.511" color-interpolation-filters="sRGB" filterUnits="userSpaceOnUse"><feFlood flood-opacity="0" result="BackgroundImageFix"/><feBlend in="SourceGraphic" in2="BackgroundImageFix" result="shape"/><feGaussianBlur result="effect1_foregroundBlur_507_2502" stdDeviation="2"/></filter><filter id="l" width="235.874" height="163.651" x="-138.202" y="66.156" color-interpolation-filters="sRGB" filterUnits="userSpaceOnUse"><feFlood flood-opacity="0" result="BackgroundImageFix"/><feBlend in="SourceGraphic" in2="BackgroundImageFix" result="shape"/><feGaussianBlur result="effect1_foregroundBlur_507_2502" stdDeviation="4.5"/></filter><clipPath id="a"><rect width="717" height="588" y="6" fill="#fff" rx="25"/></clipPath><clipPath id="b"><path fill="#fff" d="M172 435.949 500.423 217 699.85 350.943l-328.423 218.95z"/></clipPath><clipPath id="g"><path fill="#fff" d="M-40 297.949 288.423 79 487.85 212.943l-328.423 218.95z"/></clipPath><clipPath id="j"><path fill="#fff" d="M-242 161.949 86.423-57 285.85 76.943l-328.423 218.95z"/></clipPath></defs></svg>
