<svg xmlns="http://www.w3.org/2000/svg" width="760" height="600" fill="none" viewBox="0 0 760 600"><g clip-path="url(#a)"><rect width="760" height="600" fill="#100C21" rx="24"/><path stroke="url(#b)" stroke-width="4" d="m147 43 368 333"/><path fill="#5A34B5" d="m489.269 389.037-41.105 16.442.437 19.672 41.105-16.442zM580.601 352.504l-41.105 16.442.437 19.672 41.105-16.442zM534.941 370.768l-41.105 16.442.437 19.671 41.105-16.442z" opacity=".21"/><path fill="#5A34B5" d="m489.816 413.61-41.105 16.442.437 19.671 41.105-16.442zM581.146 377.077l-41.105 16.443.437 19.671 41.105-16.442zM535.486 395.341l-41.105 16.442.437 19.672 41.105-16.442zM490.363 438.215l-41.105 16.442.437 19.672 41.105-16.442zM581.693 401.683l-41.105 16.442.437 19.671 41.105-16.442zM536.033 419.947l-41.105 16.442.437 19.671 41.105-16.442zM490.908 462.808l-41.105 16.442.437 19.671 41.105-16.442zM582.24 426.275l-41.105 16.442.437 19.671 41.105-16.442zM536.58 444.539l-41.105 16.442.437 19.672 41.105-16.442zM491.455 487.38l-41.105 16.442.437 19.672 41.105-16.442z" opacity=".2"/><path fill="#5A34B5" d="m441.845 408.007-41.105 16.442.437 19.672 41.106-16.442z" opacity=".21"/><path fill="#5A34B5" d="m442.392 432.579-41.105 16.442.437 19.672 41.105-16.442zM442.937 457.185l-41.105 16.442.437 19.671 41.105-16.442zM443.484 481.777l-41.105 16.442.437 19.671 41.105-16.442zM444.031 506.35l-41.105 16.442.437 19.671 41.105-16.442z" opacity=".2"/><path fill="#5A34B5" d="M393.605 427.302 352.5 443.744l.437 19.672 41.105-16.443z" opacity=".5"/><path fill="#5A34B5" d="m394.152 451.875-41.105 16.442.437 19.672 41.105-16.442zM394.699 476.481l-41.105 16.442.437 19.671 41.105-16.442zM395.244 501.074l-41.105 16.442.437 19.671 41.105-16.442zM395.791 525.646l-41.105 16.442.437 19.671 41.105-16.442zM582.785 450.848 541.68 467.29l.437 19.671 41.105-16.442zM537.127 469.112l-41.106 16.442.438 19.671 41.105-16.442z" opacity=".2"/><path fill="#5A34B5" d="m626.17 334.277-41.106 16.442.438 19.671 41.105-16.442zM671.859 316.001l-41.105 16.442.437 19.672 41.105-16.442z" opacity=".21"/><path fill="#5A34B5" d="m626.715 358.849-41.106 16.442.438 19.671 41.105-16.442zM672.406 340.574l-41.105 16.442.437 19.671 41.105-16.442zM627.261 383.454l-41.105 16.442.437 19.672 41.106-16.442zM672.953 365.178l-41.105 16.442.437 19.672 41.105-16.443zM627.808 408.047l-41.105 16.442.437 19.672 41.105-16.442zM673.5 389.771l-41.105 16.442.437 19.671 41.105-16.442zM628.355 432.619l-41.105 16.443.437 19.671 41.105-16.442z" opacity=".2"/><path fill="#7E4DFF" d="m674.045 414.343-41.106 16.442.438 19.672 41.105-16.442z"/><path stroke="#7E4DFF" stroke-width="4" d="m358 564-6-121 319-129 6 119z"/><path fill="#433080" fill-opacity=".28" d="m336.485 245.164-40.118 18.722.437 19.671 40.119-18.722zM425.624 203.565l-40.118 18.722.437 19.672 40.118-18.722zM381.06 224.362l-40.119 18.722.438 19.671 40.118-18.721zM337.032 269.736l-40.118 18.722.437 19.671 40.118-18.721zM426.169 228.139l-40.118 18.721.437 19.672 40.118-18.722zM381.606 248.934l-40.118 18.722.437 19.672 40.119-18.722zM337.577 294.342l-40.118 18.721.437 19.672 40.118-18.722zM426.716 252.744l-40.118 18.722.437 19.671 40.118-18.722zM382.153 273.54l-40.118 18.722.437 19.671 40.119-18.722zM338.124 318.934l-40.118 18.722.437 19.672 40.118-18.722zM427.263 277.336l-40.118 18.722.437 19.671 40.118-18.722zM382.7 298.133l-40.118 18.721.437 19.672 40.118-18.722zM338.671 343.507l-40.118 18.722.437 19.671 40.118-18.722zM290.2 266.764l-40.118 18.721.437 19.672 40.118-18.722zM290.745 291.337l-40.118 18.722.437 19.671 40.118-18.722zM291.292 315.941l-40.118 18.722.437 19.671 40.118-18.721zM291.839 340.534l-40.118 18.722.437 19.671 40.118-18.722zM292.386 365.106l-40.118 18.722.437 19.672 40.118-18.722z"/><path fill="#7E4DFF" stroke="#9747FF" stroke-width="2" d="m203.928 308.033 38.306-17.876.393 17.672-38.306 17.876z" opacity=".5"/><path fill="#433080" fill-opacity=".28" d="m243.665 313.307-40.118 18.722.437 19.672 40.118-18.722zM244.212 337.913l-40.118 18.722.437 19.671 40.118-18.722zM244.757 362.506l-40.118 18.722.437 19.671 40.118-18.722zM245.304 387.078 205.186 405.8l.437 19.671 40.118-18.722zM427.81 301.909l-40.119 18.722.438 19.671 40.118-18.722zM383.245 322.705l-40.118 18.722.437 19.671 40.118-18.722zM470.099 182.81l-40.119 18.722.438 19.672 40.118-18.722zM514.692 162.001l-40.118 18.722.437 19.671 40.119-18.722zM470.644 207.383l-40.119 18.721.438 19.672 40.118-18.722zM515.237 186.573l-40.118 18.722.437 19.671 40.118-18.721zM471.19 231.988l-40.118 18.722.437 19.671 40.119-18.721zM515.784 211.179 475.666 229.9l.437 19.672 40.118-18.722zM471.737 256.581l-40.118 18.722.437 19.671 40.118-18.722zM516.331 235.77l-40.118 18.722.437 19.672 40.118-18.722zM472.284 281.153l-40.118 18.722.437 19.671 40.118-18.721z"/><path fill="#7E4DFF" stroke="#9747FF" stroke-width="2" d="m477.688 279.642 38.306-17.876.393 17.672-38.306 17.876z"/><g opacity=".37"><path fill="#7560B7" fill-opacity=".28" d="m217.485 93.164-40.118 18.722.437 19.671 40.119-18.722zM306.624 51.565l-40.118 18.722.437 19.671 40.118-18.721zM262.06 72.362l-40.119 18.722.438 19.671 40.118-18.721zM218.032 117.736l-40.118 18.722.437 19.671 40.118-18.721zM307.169 76.139 267.051 94.86l.437 19.672 40.118-18.722zM262.606 96.934l-40.118 18.722.437 19.672 40.119-18.722zM218.577 142.342l-40.118 18.721.437 19.672 40.118-18.722zM307.716 100.744l-40.118 18.722.437 19.671 40.118-18.722zM263.153 121.54l-40.118 18.722.437 19.671 40.119-18.722zM219.124 166.934l-40.118 18.722.437 19.672 40.118-18.722zM308.263 125.336l-40.118 18.722.437 19.671 40.118-18.722zM263.7 146.133l-40.118 18.721.437 19.672 40.118-18.722zM219.671 191.507l-40.118 18.722.437 19.671 40.118-18.722zM171.2 114.764l-40.118 18.721.437 19.672 40.118-18.722zM171.745 139.337l-40.118 18.722.437 19.671 40.118-18.722zM172.292 163.941l-40.118 18.722.437 19.671 40.118-18.721zM172.839 188.534l-40.118 18.722.437 19.671 40.118-18.722zM173.386 213.106l-40.118 18.722.437 19.672 40.118-18.722z"/><path fill="#7E4DFF" stroke="#9747FF" stroke-width="2" d="m84.928 156.033 38.306-17.876.393 17.672-38.306 17.876z" opacity=".5"/><path fill="#7560B7" fill-opacity=".28" d="m124.665 161.307-40.118 18.722.437 19.672 40.118-18.722zM125.212 185.913l-40.118 18.722.437 19.671 40.118-18.722zM125.757 210.506l-40.118 18.722.437 19.671 40.118-18.722zM126.304 235.078 86.186 253.8l.437 19.671 40.118-18.722zM308.81 149.909l-40.119 18.722.438 19.671 40.118-18.722zM264.245 170.705l-40.118 18.722.437 19.671 40.118-18.722zM351.099 30.81 310.98 49.532l.438 19.672 40.118-18.722zM395.692 10l-40.118 18.723.437 19.671 40.119-18.722zM351.644 55.383l-40.119 18.722.438 19.67 40.118-18.72zM396.237 34.573l-40.118 18.722.437 19.671 40.118-18.721zM352.19 79.988 312.072 98.71l.437 19.671 40.119-18.722zM396.784 59.179 356.666 77.9l.437 19.672 40.118-18.722zM352.737 104.581l-40.118 18.722.437 19.671 40.118-18.722zM397.331 83.77l-40.118 18.722.437 19.672 40.118-18.722zM353.284 129.153l-40.118 18.722.437 19.671 40.118-18.721z"/><path fill="#7E4DFF" stroke="#9747FF" stroke-width="2" d="m358.688 127.642 38.306-17.876.393 17.672-38.306 17.876z"/></g></g><defs><linearGradient id="b" x1="331" x2="331" y1="43" y2="376" gradientUnits="userSpaceOnUse"><stop stop-color="#7E4DFF" stop-opacity="0"/><stop offset="1" stop-color="#7E4DFF"/></linearGradient><clipPath id="a"><rect width="760" height="600" fill="#fff" rx="24"/></clipPath></defs></svg>
