<svg xmlns="http://www.w3.org/2000/svg" width="67" height="56" fill="none" viewBox="0 0 67 56"><g fill="#fff" clip-path="url(#a)"><path d="M67.558-.392v8.203l-.013 48.566H54.37V4.384L58.499.18a1.78 1.78 0 0 1 1.373-.571z" opacity=".7"/><path fill-rule="evenodd" d="M47.406 37.9c-.93-1.192-1.857-2.38-2.767-3.29a1006 1006 0 0 1-5.026-5.056q-1.25-1.263-2.5-2.524v-5.843l.002-.013a1.78 1.78 0 0 1 .404-1.182L50.292 7.755v31.928l.003.392c.005.453.012 1.138-.003 1.24-.954-.936-1.921-2.177-2.886-3.415" clip-rule="evenodd" opacity=".7"/><path d="M-.055 14.768V33.2L23.2 56.377h18.495zM-.055 56.377h17.094L-.055 39.344zM47.93 56.377h18.314L11.012.18a1.78 1.78 0 0 0-1.373-.57H-.037v8.194z"/></g><defs><clipPath id="a"><path fill="#fff" d="M0 0h67v56H0z"/></clipPath></defs></svg>
