<svg xmlns="http://www.w3.org/2000/svg" width="243" height="43" fill="none" viewBox="0 0 243 43"><g fill="#111" clip-path="url(#a)"><path d="M81.219 12.067v22.49h3.909V19.074h.209l6.216 15.419h2.921l6.216-15.386h.208v15.452h3.91V12.067h-4.986l-6.677 16.297h-.263l-6.677-16.297zm32.704 22.831c2.647 0 4.228-1.24 4.953-2.658h.132v2.318h3.821v-11.29c0-4.458-3.635-5.798-6.852-5.798-3.548 0-6.271 1.581-7.15 4.656l3.712.527c.396-1.153 1.516-2.141 3.46-2.141 1.844 0 2.855.944 2.855 2.602v.066c0 1.143-1.197 1.197-4.173 1.516-3.273.351-6.403 1.329-6.403 5.128 0 3.317 2.427 5.074 5.645 5.074m1.032-2.921c-1.658 0-2.844-.758-2.844-2.218 0-1.527 1.329-2.164 3.108-2.416 1.043-.143 3.13-.407 3.646-.824v1.988c0 1.877-1.516 3.47-3.91 3.47m20.295-14.288h-3.328v-4.04h-3.975v4.04h-2.394v3.075h2.394v9.379c-.022 3.174 2.284 4.733 5.271 4.645 1.131-.033 1.911-.252 2.339-.395l-.67-3.108c-.219.055-.67.154-1.164.154-.999 0-1.801-.352-1.801-1.955v-8.72h3.328zm10.611 17.198c3.932 0 6.633-1.922 7.336-4.854l-3.712-.417c-.538 1.428-1.856 2.174-3.569 2.174-2.57 0-4.272-1.691-4.305-4.58h11.751v-1.218c0-5.92-3.558-8.522-7.71-8.522-4.832 0-7.983 3.547-7.983 8.752 0 5.294 3.107 8.665 8.192 8.665m-4.239-10.356c.121-2.152 1.713-3.964 4.085-3.964 2.285 0 3.822 1.669 3.844 3.964zm15.103 10.027h3.975V24.64c0-2.141 1.615-3.657 3.8-3.657.67 0 1.505.12 1.845.23v-3.656a9.5 9.5 0 0 0-1.428-.11c-1.932 0-3.547 1.098-4.162 3.053h-.175v-2.812h-3.855zm12.261 0h3.976V17.69h-3.976zm1.999-19.263c1.263 0 2.295-.966 2.295-2.152 0-1.197-1.032-2.164-2.295-2.164-1.274 0-2.306.967-2.306 2.164 0 1.186 1.032 2.152 2.306 2.152m10.919 19.603c2.646 0 4.228-1.24 4.952-2.658h.132v2.318h3.822v-11.29c0-4.458-3.635-5.798-6.853-5.798-3.547 0-6.27 1.581-7.149 4.656l3.712.527c.395-1.153 1.515-2.141 3.459-2.141 1.845 0 2.856.944 2.856 2.602v.066c0 1.143-1.198 1.197-4.174 1.516-3.272.351-6.402 1.329-6.402 5.128 0 3.317 2.427 5.074 5.645 5.074m1.032-2.921c-1.658 0-2.844-.758-2.844-2.218 0-1.527 1.328-2.164 3.108-2.416 1.043-.143 3.129-.407 3.645-.824v1.988c0 1.877-1.515 3.47-3.909 3.47m15.847-19.91h-3.976v22.49h3.976zm4.088 22.49h3.975V17.69h-3.975zm1.999-19.262c1.262 0 2.295-.966 2.295-2.152 0-1.197-1.033-2.164-2.295-2.164-1.274 0-2.307.967-2.307 2.164 0 1.186 1.033 2.152 2.307 2.152m5.845 19.263h13.848v-3.295h-8.566v-.143l8.28-10.718v-2.713H211v3.295h8.412v.143l-8.697 10.905zm24.569.33c3.931 0 6.633-1.923 7.336-4.855l-3.712-.417c-.538 1.428-1.856 2.174-3.569 2.174-2.57 0-4.272-1.691-4.305-4.58h11.751v-1.218c0-5.92-3.559-8.522-7.71-8.522-4.832 0-7.984 3.547-7.984 8.752 0 5.294 3.108 8.665 8.193 8.665m-4.239-10.357c.121-2.152 1.713-3.964 4.085-3.964 2.284 0 3.822 1.669 3.844 3.964z"/><path d="M51.466.379v6.227l-.009 36.864H41.455V4.004L44.59.812A1.35 1.35 0 0 1 45.632.38z" opacity=".7"/><path fill-rule="evenodd" d="M36.17 29.445c-.706-.904-1.41-1.807-2.101-2.498a758 758 0 0 1-3.815-3.837q-.948-.96-1.898-1.916v-4.436l.002-.009a1.35 1.35 0 0 1 .306-.897l9.696-9.29V30.8l.003.297c.003.344.009.864-.003.94-.724-.71-1.458-1.651-2.19-2.59" clip-rule="evenodd" opacity=".7"/><path d="M.143 11.886v13.992L17.796 43.47h14.04zM.143 43.47h12.976L.143 30.542zM36.568 43.47h13.901L8.544.813A1.35 1.35 0 0 0 7.5.38H.157V6.6z"/></g><defs><clipPath id="a"><path fill="#fff" d="M0 0h243v43H0z"/></clipPath></defs></svg>
