<svg xmlns="http://www.w3.org/2000/svg" width="243" height="43" fill="none" viewBox="0 0 243 43"><g fill="#fff" clip-path="url(#a)"><path d="M81.443 11.23h4.986l6.677 16.297h.264l6.677-16.297h4.986v22.491h-3.91V18.27h-.209l-6.215 15.385h-2.922l-6.215-15.418h-.209V33.72h-3.91zm32.705 22.832q-1.603 0-2.889-.572a4.7 4.7 0 0 1-2.02-1.713q-.736-1.131-.736-2.79 0-1.426.527-2.36a4.1 4.1 0 0 1 1.439-1.494 7.3 7.3 0 0 1 2.053-.845q1.153-.296 2.383-.429 1.483-.154 2.405-.274.923-.132 1.34-.396.428-.274.428-.845v-.066q0-1.24-.735-1.922-.736-.68-2.12-.68-1.46 0-2.317.636-.846.637-1.142 1.505l-3.712-.527q.44-1.538 1.45-2.57 1.01-1.043 2.47-1.56 1.46-.527 3.229-.527 1.22 0 2.427.286 1.208.285 2.208.944.999.648 1.603 1.768.615 1.12.615 2.8v11.29h-3.822v-2.317h-.132a4.8 4.8 0 0 1-1.021 1.318q-.648.603-1.636.977-.978.363-2.295.363m1.032-2.922q1.197 0 2.075-.472.879-.483 1.351-1.274a3.25 3.25 0 0 0 .483-1.724v-1.988q-.186.154-.637.286a9 9 0 0 1-.988.23q-.549.1-1.087.176-.538.077-.934.132a7 7 0 0 0-1.592.395q-.703.275-1.109.77-.406.482-.406 1.251 0 1.098.801 1.658.802.56 2.043.56m20.294-14.287v3.075h-9.697v-3.075zm-7.303-4.041h3.976v15.836q0 .801.241 1.23.254.417.659.57.406.154.901.154.374 0 .681-.055.318-.055.483-.099l.67 3.108a9 9 0 0 1-.912.242q-.582.133-1.427.154-1.494.043-2.691-.45a4.2 4.2 0 0 1-1.9-1.56q-.691-1.054-.681-2.636zm17.915 21.239q-2.537 0-4.382-1.055-1.835-1.065-2.822-3.009-.989-1.955-.989-4.601 0-2.603.989-4.569 1-1.975 2.789-3.075 1.79-1.109 4.206-1.109 1.56 0 2.943.505 1.395.494 2.46 1.538 1.076 1.042 1.691 2.658.615 1.602.615 3.821v1.22H139.76v-2.68h10.016q-.011-1.143-.495-2.032a3.6 3.6 0 0 0-1.35-1.417q-.857-.516-1.999-.516-1.22 0-2.142.593-.922.581-1.438 1.538a4.4 4.4 0 0 0-.516 2.075v2.34q0 1.47.538 2.525.538 1.044 1.504 1.604.967.549 2.263.549.867 0 1.57-.242a3.5 3.5 0 0 0 1.219-.736 3.1 3.1 0 0 0 .78-1.197l3.712.418a5.8 5.8 0 0 1-1.34 2.57q-.977 1.087-2.504 1.69-1.527.594-3.492.594m10.863-.33V16.853h3.855v2.811h.176q.46-1.46 1.581-2.251 1.131-.802 2.581-.802.33 0 .736.033.417.022.692.077v3.657q-.253-.088-.802-.154a7.4 7.4 0 0 0-1.043-.076q-1.088 0-1.955.472a3.46 3.46 0 0 0-1.351 1.285q-.494.823-.494 1.9v9.916zm12.262 0V16.853h3.975V33.72zm1.998-19.262a2.32 2.32 0 0 1-1.625-.626q-.681-.637-.681-1.527 0-.9.681-1.526a2.3 2.3 0 0 1 1.625-.637q.955 0 1.626.637.681.626.681 1.526 0 .89-.681 1.527-.67.626-1.626.626m10.919 19.603q-1.603 0-2.888-.572a4.7 4.7 0 0 1-2.021-1.713q-.735-1.131-.735-2.79 0-1.426.527-2.36a4.1 4.1 0 0 1 1.438-1.494 7.3 7.3 0 0 1 2.054-.845q1.153-.296 2.383-.429a94 94 0 0 0 2.405-.274q.923-.132 1.34-.396.428-.274.428-.845v-.066q0-1.24-.736-1.922-.735-.68-2.119-.68-1.46 0-2.317.636-.846.637-1.142 1.505l-3.712-.527q.439-1.538 1.449-2.57 1.01-1.043 2.471-1.56 1.46-.527 3.229-.527 1.22 0 2.427.286 1.208.285 2.207.944a4.75 4.75 0 0 1 1.604 1.768q.615 1.12.615 2.8v11.29h-3.822v-2.317h-.132a4.9 4.9 0 0 1-1.021 1.318q-.648.603-1.637.977-.977.363-2.295.363m1.033-2.922q1.197 0 2.075-.472.879-.483 1.351-1.274a3.25 3.25 0 0 0 .483-1.724v-1.988q-.186.154-.637.286a9 9 0 0 1-.988.23q-.55.1-1.087.176-.538.077-.934.132a7 7 0 0 0-1.592.395q-.704.275-1.109.77-.407.482-.407 1.251 0 1.098.802 1.658.801.56 2.043.56m15.846-19.91v22.491h-3.975v-22.49zm4.088 22.491V16.853h3.976V33.72zm1.999-19.262a2.32 2.32 0 0 1-1.625-.626q-.681-.637-.681-1.527 0-.9.681-1.526a2.3 2.3 0 0 1 1.625-.637q.956 0 1.625.637.681.626.681 1.526 0 .89-.681 1.527-.67.626-1.625.626m5.845 19.262v-2.526l8.698-10.905v-.142h-8.412v-3.295h13.277v2.712l-8.28 10.719v.143h8.565v3.294zm24.57.33q-2.537 0-4.382-1.055-1.834-1.065-2.823-3.009-.988-1.955-.988-4.601 0-2.603.988-4.569 1-1.975 2.79-3.075 1.79-1.109 4.206-1.109 1.56 0 2.943.505 1.395.494 2.46 1.538 1.076 1.042 1.691 2.658.615 1.602.615 3.821v1.22h-13.826v-2.68h10.015q-.01-1.143-.494-2.032a3.6 3.6 0 0 0-1.351-1.417q-.856-.516-1.998-.516-1.22 0-2.142.593-.922.581-1.438 1.538a4.4 4.4 0 0 0-.516 2.075v2.34q0 1.47.538 2.525.537 1.044 1.504 1.604.967.549 2.262.549.868 0 1.571-.242a3.5 3.5 0 0 0 1.219-.736 3.1 3.1 0 0 0 .78-1.197l3.711.418a5.8 5.8 0 0 1-1.339 2.57q-.978 1.087-2.504 1.69-1.527.594-3.492.594"/><path d="M51.691-.458V5.77l-.01 36.865H41.68V3.168l3.134-3.192a1.36 1.36 0 0 1 1.043-.434z" opacity=".7"/><path fill-rule="evenodd" d="M36.394 28.609c-.706-.905-1.41-1.808-2.1-2.498a767 767 0 0 1-3.815-3.838l-1.898-1.916v-4.435l.002-.01a1.36 1.36 0 0 1 .306-.897l9.696-9.289v24.236c0 .034 0 .15.002.297.004.345.01.864-.002.941-.724-.71-1.459-1.652-2.191-2.591" clip-rule="evenodd" opacity=".7"/><path d="M.368 11.05V25.04L18.02 42.634H32.06zM.368 42.634h12.976L.368 29.705zM36.793 42.634h13.901L8.768-.024a1.35 1.35 0 0 0-1.042-.433H.382v6.22z"/></g><defs><clipPath id="a"><path fill="#fff" d="M0 0h243v43H0z"/></clipPath></defs></svg>
