<svg xmlns="http://www.w3.org/2000/svg" width="67" height="56" fill="none" viewBox="0 0 67 56"><g fill="#111" clip-path="url(#a)"><path d="M67.413-.392v8.203l-.012 48.566H54.225V4.384L58.355.18a1.78 1.78 0 0 1 1.373-.571z" opacity=".7"/><path fill-rule="evenodd" d="M47.261 37.9c-.93-1.192-1.857-2.38-2.767-3.29a1006 1006 0 0 1-5.025-5.056q-1.25-1.263-2.501-2.524v-5.843l.003-.013a1.78 1.78 0 0 1 .403-1.182L50.148 7.755v31.928c-.001.044 0 .197.003.392.004.453.011 1.138-.003 1.24-.954-.936-1.922-2.177-2.887-3.415" clip-rule="evenodd" opacity=".7"/><path d="M-.2 14.768V33.2l23.257 23.177h18.495zM-.2 56.377h17.095L-.2 39.344zM47.787 56.377H66.1L10.867.18a1.78 1.78 0 0 0-1.373-.57H-.18v8.194z"/></g><defs><clipPath id="a"><path fill="#fff" d="M0 0h67v56H0z"/></clipPath></defs></svg>
