<?xml version="1.0" encoding="UTF-8" standalone="no"?>
<!DOCTYPE svg PUBLIC "-//W3C//DTD SVG 1.1//EN"
 "http://www.w3.org/Graphics/SVG/1.1/DTD/svg11.dtd">
<!-- Generated by graphviz version 2.43.0 (0)
 -->
<!-- Title: G Pages: 1 -->
<svg width="1220pt" height="2553pt"
 viewBox="0.00 0.00 1220.00 2552.93" xmlns="http://www.w3.org/2000/svg" xmlns:xlink="http://www.w3.org/1999/xlink">
<g id="graph0" class="graph" transform="scale(1 1) rotate(0) translate(4 2548.93)">
<title>G</title>
<polygon fill="white" stroke="transparent" points="-4,4 -4,-2548.93 1216,-2548.93 1216,4 -4,4"/>
<text text-anchor="middle" x="606" y="-7.8" font-family="Times,serif" font-size="14.00">select distinct a.* from a as a(a,b), b as b(b,c), c as c(c, d) cross join (d as d(d, e) cross join (f as f(f, h) cross join lateral(select a.a, b.b, c.c, d.d, e.e, f.f from e as e(e, f))))</text>
<g id="clust1" class="cluster">
<title>cluster0</title>
<polygon fill="none" stroke="black" points="356,-2251 356,-2431.29 963,-2431.29 963,-2251 356,-2251"/>
<text text-anchor="middle" x="406.5" y="-2416.09" font-family="Times,serif" font-size="14.00">Box0:Select</text>
</g>
<g id="clust3" class="cluster">
<title>cluster5</title>
<polygon fill="none" stroke="black" points="647,-1870 647,-2232 1125,-2232 1125,-1870 647,-1870"/>
<text text-anchor="middle" x="697.5" y="-2216.8" font-family="Times,serif" font-size="14.00">Box5:Select</text>
</g>
<g id="clust5" class="cluster">
<title>cluster8</title>
<polygon fill="none" stroke="black" points="827,-1535 827,-1851 1093,-1851 1093,-1535 827,-1535"/>
<text text-anchor="middle" x="877.5" y="-1835.8" font-family="Times,serif" font-size="14.00">Box8:Select</text>
</g>
<g id="clust7" class="cluster">
<title>cluster9</title>
<polygon fill="none" stroke="black" points="622,-1200 622,-1516 1103,-1516 1103,-1200 622,-1200"/>
<text text-anchor="middle" x="672.5" y="-1500.8" font-family="Times,serif" font-size="14.00">Box9:Select</text>
</g>
<g id="clust9" class="cluster">
<title>cluster12</title>
<polygon fill="none" stroke="black" points="772,-911 772,-1181 1038,-1181 1038,-911 772,-911"/>
<text text-anchor="middle" x="827" y="-1165.8" font-family="Times,serif" font-size="14.00">Box12:Select</text>
</g>
<g id="clust11" class="cluster">
<title>cluster13</title>
<polygon fill="none" stroke="black" points="509,-622 509,-892 985,-892 985,-622 509,-622"/>
<text text-anchor="middle" x="564" y="-876.8" font-family="Times,serif" font-size="14.00">Box13:Select</text>
</g>
<g id="clust13" class="cluster">
<title>cluster16</title>
<polygon fill="none" stroke="black" points="588,-379 588,-603 896,-603 896,-379 588,-379"/>
<text text-anchor="middle" x="643" y="-587.8" font-family="Times,serif" font-size="14.00">Box16:Select</text>
</g>
<g id="clust15" class="cluster">
<title>cluster18</title>
<polygon fill="none" stroke="black" points="475,-208.6 475,-356.4 741,-356.4 741,-208.6 475,-208.6"/>
<text text-anchor="middle" x="530" y="-341.2" font-family="Times,serif" font-size="14.00">Box18:Select</text>
</g>
<g id="clust17" class="cluster">
<title>cluster17</title>
<polygon fill="none" stroke="black" points="445,-31 445,-186 607,-186 607,-31 445,-31"/>
<text text-anchor="middle" x="514.5" y="-170.8" font-family="Times,serif" font-size="14.00">Box17:BaseTable</text>
</g>
<g id="clust19" class="cluster">
<title>cluster15</title>
<polygon fill="none" stroke="black" points="326,-422.95 326,-559.05 580,-559.05 580,-422.95 326,-422.95"/>
<text text-anchor="middle" x="381" y="-543.85" font-family="Times,serif" font-size="14.00">Box15:Select</text>
</g>
<g id="clust21" class="cluster">
<title>cluster14</title>
<polygon fill="none" stroke="black" points="290,-205 290,-360 452,-360 452,-205 290,-205"/>
<text text-anchor="middle" x="359.5" y="-344.8" font-family="Times,serif" font-size="14.00">Box14:BaseTable</text>
</g>
<g id="clust23" class="cluster">
<title>cluster11</title>
<polygon fill="none" stroke="black" points="402,-977.95 402,-1114.05 656,-1114.05 656,-977.95 402,-977.95"/>
<text text-anchor="middle" x="457" y="-1098.85" font-family="Times,serif" font-size="14.00">Box11:Select</text>
</g>
<g id="clust25" class="cluster">
<title>cluster10</title>
<polygon fill="none" stroke="black" points="339,-679.5 339,-834.5 501,-834.5 501,-679.5 339,-679.5"/>
<text text-anchor="middle" x="408.5" y="-819.3" font-family="Times,serif" font-size="14.00">Box10:BaseTable</text>
</g>
<g id="clust27" class="cluster">
<title>cluster7</title>
<polygon fill="none" stroke="black" points="526,-1624.95 526,-1761.05 780,-1761.05 780,-1624.95 526,-1624.95"/>
<text text-anchor="middle" x="576.5" y="-1745.85" font-family="Times,serif" font-size="14.00">Box7:Select</text>
</g>
<g id="clust29" class="cluster">
<title>cluster6</title>
<polygon fill="none" stroke="black" points="452,-1280.5 452,-1435.5 614,-1435.5 614,-1280.5 452,-1280.5"/>
<text text-anchor="middle" x="517" y="-1420.3" font-family="Times,serif" font-size="14.00">Box6:BaseTable</text>
</g>
<g id="clust31" class="cluster">
<title>cluster4</title>
<polygon fill="none" stroke="black" points="385,-1982.95 385,-2119.05 639,-2119.05 639,-1982.95 385,-1982.95"/>
<text text-anchor="middle" x="435.5" y="-2103.85" font-family="Times,serif" font-size="14.00">Box4:Select</text>
</g>
<g id="clust33" class="cluster">
<title>cluster3</title>
<polygon fill="none" stroke="black" points="349,-1615.5 349,-1770.5 511,-1770.5 511,-1615.5 349,-1615.5"/>
<text text-anchor="middle" x="414" y="-1755.3" font-family="Times,serif" font-size="14.00">Box3:BaseTable</text>
</g>
<g id="clust35" class="cluster">
<title>cluster2</title>
<polygon fill="none" stroke="black" points="123,-1982.95 123,-2119.05 377,-2119.05 377,-1982.95 123,-1982.95"/>
<text text-anchor="middle" x="173.5" y="-2103.85" font-family="Times,serif" font-size="14.00">Box2:Select</text>
</g>
<g id="clust37" class="cluster">
<title>cluster1</title>
<polygon fill="none" stroke="black" points="87,-1615.5 87,-1770.5 249,-1770.5 249,-1615.5 87,-1615.5"/>
<text text-anchor="middle" x="152" y="-1755.3" font-family="Times,serif" font-size="14.00">Box1:BaseTable</text>
</g>
<!-- boxhead0 -->
<g id="node1" class="node">
<title>boxhead0</title>
<polygon fill="none" stroke="black" points="817.5,-2283.64 817.5,-2352.64 954.5,-2352.64 954.5,-2283.64 817.5,-2283.64"/>
<text text-anchor="middle" x="886" y="-2337.44" font-family="Times,serif" font-size="14.00">Distinct: Enforce</text>
<polyline fill="none" stroke="black" points="817.5,-2329.64 954.5,-2329.64 "/>
<text text-anchor="middle" x="886" y="-2314.44" font-family="Times,serif" font-size="14.00">0: Q1.C0 as a</text>
<polyline fill="none" stroke="black" points="817.5,-2306.64 954.5,-2306.64 "/>
<text text-anchor="middle" x="886" y="-2291.44" font-family="Times,serif" font-size="14.00">1: Q1.C1 as b</text>
</g>
<!-- Q1 -->
<g id="node2" class="node">
<title>Q1</title>
<ellipse fill="none" stroke="black" cx="422" cy="-2318.14" rx="58.49" ry="58.49"/>
<text text-anchor="middle" x="422" y="-2314.44" font-family="Times,serif" font-size="14.00">Q1(F) as a</text>
</g>
<!-- boxhead2 -->
<g id="node35" class="node">
<title>boxhead2</title>
<polygon fill="none" stroke="black" points="223,-1993.5 223,-2062.5 369,-2062.5 369,-1993.5 223,-1993.5"/>
<text text-anchor="middle" x="296" y="-2047.3" font-family="Times,serif" font-size="14.00">Distinct: Preserve</text>
<polyline fill="none" stroke="black" points="223,-2039.5 369,-2039.5 "/>
<text text-anchor="middle" x="296" y="-2024.3" font-family="Times,serif" font-size="14.00">0: Q0.C0 as a</text>
<polyline fill="none" stroke="black" points="223,-2016.5 369,-2016.5 "/>
<text text-anchor="middle" x="296" y="-2001.3" font-family="Times,serif" font-size="14.00">1: Q0.C1 as b</text>
</g>
<!-- Q1&#45;&gt;boxhead2 -->
<g id="edge6" class="edge">
<title>Q1&#45;&gt;boxhead2</title>
<path fill="none" stroke="black" stroke-dasharray="5,2" d="M396.41,-2265.11C391.21,-2254.22 385.85,-2242.77 381,-2232 364.49,-2195.3 347.18,-2154.43 332.52,-2119.04"/>
</g>
<!-- Q3 -->
<g id="node3" class="node">
<title>Q3</title>
<ellipse fill="none" stroke="black" cx="558" cy="-2318.14" rx="59.29" ry="59.29"/>
<text text-anchor="middle" x="558" y="-2314.44" font-family="Times,serif" font-size="14.00">Q3(F) as b</text>
</g>
<!-- boxhead4 -->
<g id="node32" class="node">
<title>boxhead4</title>
<polygon fill="none" stroke="black" points="485,-1993.5 485,-2062.5 631,-2062.5 631,-1993.5 485,-1993.5"/>
<text text-anchor="middle" x="558" y="-2047.3" font-family="Times,serif" font-size="14.00">Distinct: Preserve</text>
<polyline fill="none" stroke="black" points="485,-2039.5 631,-2039.5 "/>
<text text-anchor="middle" x="558" y="-2024.3" font-family="Times,serif" font-size="14.00">0: Q2.C0 as b</text>
<polyline fill="none" stroke="black" points="485,-2016.5 631,-2016.5 "/>
<text text-anchor="middle" x="558" y="-2001.3" font-family="Times,serif" font-size="14.00">1: Q2.C1 as c</text>
</g>
<!-- Q3&#45;&gt;boxhead4 -->
<g id="edge7" class="edge">
<title>Q3&#45;&gt;boxhead4</title>
<path fill="none" stroke="black" stroke-dasharray="5,2" d="M558,-2258.83C558,-2218.72 558,-2164.66 558,-2119.04"/>
</g>
<!-- Q17 -->
<g id="node4" class="node">
<title>Q17</title>
<ellipse fill="none" stroke="black" cx="757" cy="-2318.14" rx="42.79" ry="42.79"/>
<text text-anchor="middle" x="757" y="-2314.44" font-family="Times,serif" font-size="14.00">Q17(F)</text>
</g>
<!-- Q17&#45;&gt;Q1 -->
<g id="edge2" class="edge">
<title>Q17&#45;&gt;Q1</title>
<path fill="none" stroke="red" d="M729.08,-2350.94C704.84,-2376.69 667.23,-2410.58 626,-2425.29 569.07,-2445.61 542.97,-2454.41 490,-2425.29 472.33,-2415.57 458.6,-2399.11 448.25,-2381.96"/>
<polygon fill="red" stroke="red" points="451.13,-2379.93 443.15,-2372.96 445.04,-2383.38 451.13,-2379.93"/>
<text text-anchor="middle" x="597" y="-2443.09" font-family="Times,serif" font-size="14.00">correlation</text>
</g>
<!-- Q17&#45;&gt;Q3 -->
<g id="edge1" class="edge">
<title>Q17&#45;&gt;Q3</title>
<path fill="none" stroke="red" d="M713.86,-2318.14C688.56,-2318.14 656,-2318.14 627.18,-2318.14"/>
<polygon fill="red" stroke="red" points="627.17,-2314.64 617.17,-2318.14 627.17,-2321.64 627.17,-2314.64"/>
<text text-anchor="middle" x="665.62" y="-2324.94" font-family="Times,serif" font-size="14.00">correlation</text>
</g>
<!-- boxhead5 -->
<g id="node5" class="node">
<title>boxhead5</title>
<polygon fill="none" stroke="black" points="971,-1878.5 971,-2177.5 1117,-2177.5 1117,-1878.5 971,-1878.5"/>
<text text-anchor="middle" x="1044" y="-2162.3" font-family="Times,serif" font-size="14.00">Distinct: Preserve</text>
<polyline fill="none" stroke="black" points="971,-2154.5 1117,-2154.5 "/>
<text text-anchor="middle" x="1044" y="-2139.3" font-family="Times,serif" font-size="14.00">0: Q5.C0 as c</text>
<polyline fill="none" stroke="black" points="971,-2131.5 1117,-2131.5 "/>
<text text-anchor="middle" x="1044" y="-2116.3" font-family="Times,serif" font-size="14.00">1: Q5.C1 as d</text>
<polyline fill="none" stroke="black" points="971,-2108.5 1117,-2108.5 "/>
<text text-anchor="middle" x="1044" y="-2093.3" font-family="Times,serif" font-size="14.00">2: Q16.C0 as d</text>
<polyline fill="none" stroke="black" points="971,-2085.5 1117,-2085.5 "/>
<text text-anchor="middle" x="1044" y="-2070.3" font-family="Times,serif" font-size="14.00">3: Q16.C1 as e</text>
<polyline fill="none" stroke="black" points="971,-2062.5 1117,-2062.5 "/>
<text text-anchor="middle" x="1044" y="-2047.3" font-family="Times,serif" font-size="14.00">4: Q16.C2 as f</text>
<polyline fill="none" stroke="black" points="971,-2039.5 1117,-2039.5 "/>
<text text-anchor="middle" x="1044" y="-2024.3" font-family="Times,serif" font-size="14.00">5: Q16.C3 as h</text>
<polyline fill="none" stroke="black" points="971,-2016.5 1117,-2016.5 "/>
<text text-anchor="middle" x="1044" y="-2001.3" font-family="Times,serif" font-size="14.00">6: Q16.C4 as a</text>
<polyline fill="none" stroke="black" points="971,-1993.5 1117,-1993.5 "/>
<text text-anchor="middle" x="1044" y="-1978.3" font-family="Times,serif" font-size="14.00">7: Q16.C5 as b</text>
<polyline fill="none" stroke="black" points="971,-1970.5 1117,-1970.5 "/>
<text text-anchor="middle" x="1044" y="-1955.3" font-family="Times,serif" font-size="14.00">8: Q16.C6 as c</text>
<polyline fill="none" stroke="black" points="971,-1947.5 1117,-1947.5 "/>
<text text-anchor="middle" x="1044" y="-1932.3" font-family="Times,serif" font-size="14.00">9: Q16.C7 as d</text>
<polyline fill="none" stroke="black" points="971,-1924.5 1117,-1924.5 "/>
<text text-anchor="middle" x="1044" y="-1909.3" font-family="Times,serif" font-size="14.00">10: Q16.C8 as e</text>
<polyline fill="none" stroke="black" points="971,-1901.5 1117,-1901.5 "/>
<text text-anchor="middle" x="1044" y="-1886.3" font-family="Times,serif" font-size="14.00">11: Q16.C9 as f</text>
</g>
<!-- Q17&#45;&gt;boxhead5 -->
<g id="edge8" class="edge">
<title>Q17&#45;&gt;boxhead5</title>
<path fill="none" stroke="black" stroke-dasharray="5,2" d="M777.98,-2280.36C786.21,-2269.15 796.66,-2257.97 809,-2251 868.67,-2217.31 907.67,-2273.75 962,-2232"/>
</g>
<!-- Q5 -->
<g id="node6" class="node">
<title>Q5</title>
<ellipse fill="none" stroke="black" cx="713" cy="-2028" rx="57.69" ry="57.69"/>
<text text-anchor="middle" x="713" y="-2024.3" font-family="Times,serif" font-size="14.00">Q5(F) as c</text>
</g>
<!-- boxhead7 -->
<g id="node29" class="node">
<title>boxhead7</title>
<polygon fill="none" stroke="black" points="626,-1635.5 626,-1704.5 772,-1704.5 772,-1635.5 626,-1635.5"/>
<text text-anchor="middle" x="699" y="-1689.3" font-family="Times,serif" font-size="14.00">Distinct: Preserve</text>
<polyline fill="none" stroke="black" points="626,-1681.5 772,-1681.5 "/>
<text text-anchor="middle" x="699" y="-1666.3" font-family="Times,serif" font-size="14.00">0: Q4.C0 as c</text>
<polyline fill="none" stroke="black" points="626,-1658.5 772,-1658.5 "/>
<text text-anchor="middle" x="699" y="-1643.3" font-family="Times,serif" font-size="14.00">1: Q4.C1 as d</text>
</g>
<!-- Q5&#45;&gt;boxhead7 -->
<g id="edge9" class="edge">
<title>Q5&#45;&gt;boxhead7</title>
<path fill="none" stroke="black" stroke-dasharray="5,2" d="M710.77,-1970.2C708.55,-1913.89 705.13,-1826.78 702.54,-1761.04"/>
</g>
<!-- Q16 -->
<g id="node7" class="node">
<title>Q16</title>
<ellipse fill="none" stroke="black" cx="910" cy="-2028" rx="42.79" ry="42.79"/>
<text text-anchor="middle" x="910" y="-2024.3" font-family="Times,serif" font-size="14.00">Q16(F)</text>
</g>
<!-- Q16&#45;&gt;Q5 -->
<g id="edge3" class="edge">
<title>Q16&#45;&gt;Q5</title>
<path fill="none" stroke="red" d="M867.06,-2028C842,-2028 809.81,-2028 781.34,-2028"/>
<polygon fill="red" stroke="red" points="781.04,-2024.5 771.04,-2028 781.04,-2031.5 781.04,-2024.5"/>
<text text-anchor="middle" x="818.97" y="-2034.8" font-family="Times,serif" font-size="14.00">correlation</text>
</g>
<!-- boxhead8 -->
<g id="node8" class="node">
<title>boxhead8</title>
<polygon fill="none" stroke="black" points="939,-1543.5 939,-1796.5 1085,-1796.5 1085,-1543.5 939,-1543.5"/>
<text text-anchor="middle" x="1012" y="-1781.3" font-family="Times,serif" font-size="14.00">Distinct: Preserve</text>
<polyline fill="none" stroke="black" points="939,-1773.5 1085,-1773.5 "/>
<text text-anchor="middle" x="1012" y="-1758.3" font-family="Times,serif" font-size="14.00">0: Q15.C0 as d</text>
<polyline fill="none" stroke="black" points="939,-1750.5 1085,-1750.5 "/>
<text text-anchor="middle" x="1012" y="-1735.3" font-family="Times,serif" font-size="14.00">1: Q15.C1 as e</text>
<polyline fill="none" stroke="black" points="939,-1727.5 1085,-1727.5 "/>
<text text-anchor="middle" x="1012" y="-1712.3" font-family="Times,serif" font-size="14.00">2: Q15.C2 as f</text>
<polyline fill="none" stroke="black" points="939,-1704.5 1085,-1704.5 "/>
<text text-anchor="middle" x="1012" y="-1689.3" font-family="Times,serif" font-size="14.00">3: Q15.C3 as h</text>
<polyline fill="none" stroke="black" points="939,-1681.5 1085,-1681.5 "/>
<text text-anchor="middle" x="1012" y="-1666.3" font-family="Times,serif" font-size="14.00">4: Q15.C4 as a</text>
<polyline fill="none" stroke="black" points="939,-1658.5 1085,-1658.5 "/>
<text text-anchor="middle" x="1012" y="-1643.3" font-family="Times,serif" font-size="14.00">5: Q15.C5 as b</text>
<polyline fill="none" stroke="black" points="939,-1635.5 1085,-1635.5 "/>
<text text-anchor="middle" x="1012" y="-1620.3" font-family="Times,serif" font-size="14.00">6: Q15.C6 as c</text>
<polyline fill="none" stroke="black" points="939,-1612.5 1085,-1612.5 "/>
<text text-anchor="middle" x="1012" y="-1597.3" font-family="Times,serif" font-size="14.00">7: Q15.C7 as d</text>
<polyline fill="none" stroke="black" points="939,-1589.5 1085,-1589.5 "/>
<text text-anchor="middle" x="1012" y="-1574.3" font-family="Times,serif" font-size="14.00">8: Q15.C8 as e</text>
<polyline fill="none" stroke="black" points="939,-1566.5 1085,-1566.5 "/>
<text text-anchor="middle" x="1012" y="-1551.3" font-family="Times,serif" font-size="14.00">9: Q15.C9 as f</text>
</g>
<!-- Q16&#45;&gt;boxhead8 -->
<g id="edge10" class="edge">
<title>Q16&#45;&gt;boxhead8</title>
<path fill="none" stroke="black" stroke-dasharray="5,2" d="M921.6,-1986.51C931.29,-1952.7 945.83,-1901.96 960.43,-1851"/>
</g>
<!-- Q15 -->
<g id="node9" class="node">
<title>Q15</title>
<ellipse fill="none" stroke="black" cx="878" cy="-1670" rx="42.79" ry="42.79"/>
<text text-anchor="middle" x="878" y="-1666.3" font-family="Times,serif" font-size="14.00">Q15(F)</text>
</g>
<!-- boxhead9 -->
<g id="node10" class="node">
<title>boxhead9</title>
<polygon fill="none" stroke="black" points="949,-1208.5 949,-1461.5 1095,-1461.5 1095,-1208.5 949,-1208.5"/>
<text text-anchor="middle" x="1022" y="-1446.3" font-family="Times,serif" font-size="14.00">Distinct: Preserve</text>
<polyline fill="none" stroke="black" points="949,-1438.5 1095,-1438.5 "/>
<text text-anchor="middle" x="1022" y="-1423.3" font-family="Times,serif" font-size="14.00">0: Q7.C0 as d</text>
<polyline fill="none" stroke="black" points="949,-1415.5 1095,-1415.5 "/>
<text text-anchor="middle" x="1022" y="-1400.3" font-family="Times,serif" font-size="14.00">1: Q7.C1 as e</text>
<polyline fill="none" stroke="black" points="949,-1392.5 1095,-1392.5 "/>
<text text-anchor="middle" x="1022" y="-1377.3" font-family="Times,serif" font-size="14.00">2: Q14.C0 as f</text>
<polyline fill="none" stroke="black" points="949,-1369.5 1095,-1369.5 "/>
<text text-anchor="middle" x="1022" y="-1354.3" font-family="Times,serif" font-size="14.00">3: Q14.C1 as h</text>
<polyline fill="none" stroke="black" points="949,-1346.5 1095,-1346.5 "/>
<text text-anchor="middle" x="1022" y="-1331.3" font-family="Times,serif" font-size="14.00">4: Q14.C2 as a</text>
<polyline fill="none" stroke="black" points="949,-1323.5 1095,-1323.5 "/>
<text text-anchor="middle" x="1022" y="-1308.3" font-family="Times,serif" font-size="14.00">5: Q14.C3 as b</text>
<polyline fill="none" stroke="black" points="949,-1300.5 1095,-1300.5 "/>
<text text-anchor="middle" x="1022" y="-1285.3" font-family="Times,serif" font-size="14.00">6: Q14.C4 as c</text>
<polyline fill="none" stroke="black" points="949,-1277.5 1095,-1277.5 "/>
<text text-anchor="middle" x="1022" y="-1262.3" font-family="Times,serif" font-size="14.00">7: Q14.C5 as d</text>
<polyline fill="none" stroke="black" points="949,-1254.5 1095,-1254.5 "/>
<text text-anchor="middle" x="1022" y="-1239.3" font-family="Times,serif" font-size="14.00">8: Q14.C6 as e</text>
<polyline fill="none" stroke="black" points="949,-1231.5 1095,-1231.5 "/>
<text text-anchor="middle" x="1022" y="-1216.3" font-family="Times,serif" font-size="14.00">9: Q14.C7 as f</text>
</g>
<!-- Q15&#45;&gt;boxhead9 -->
<g id="edge11" class="edge">
<title>Q15&#45;&gt;boxhead9</title>
<path fill="none" stroke="black" stroke-dasharray="5,2" d="M892.08,-1629.22C901.94,-1602.3 915.83,-1566.11 930,-1535 933.95,-1526.32 935.8,-1524.57 940,-1516"/>
</g>
<!-- Q7 -->
<g id="node11" class="node">
<title>Q7</title>
<ellipse fill="none" stroke="black" cx="689" cy="-1335" rx="59.29" ry="59.29"/>
<text text-anchor="middle" x="689" y="-1331.3" font-family="Times,serif" font-size="14.00">Q7(F) as d</text>
</g>
<!-- boxhead11 -->
<g id="node26" class="node">
<title>boxhead11</title>
<polygon fill="none" stroke="black" points="502,-988.5 502,-1057.5 648,-1057.5 648,-988.5 502,-988.5"/>
<text text-anchor="middle" x="575" y="-1042.3" font-family="Times,serif" font-size="14.00">Distinct: Preserve</text>
<polyline fill="none" stroke="black" points="502,-1034.5 648,-1034.5 "/>
<text text-anchor="middle" x="575" y="-1019.3" font-family="Times,serif" font-size="14.00">0: Q6.C0 as d</text>
<polyline fill="none" stroke="black" points="502,-1011.5 648,-1011.5 "/>
<text text-anchor="middle" x="575" y="-996.3" font-family="Times,serif" font-size="14.00">1: Q6.C1 as e</text>
</g>
<!-- Q7&#45;&gt;boxhead11 -->
<g id="edge12" class="edge">
<title>Q7&#45;&gt;boxhead11</title>
<path fill="none" stroke="black" stroke-dasharray="5,2" d="M668.88,-1279.29C652.08,-1233.6 627.78,-1167.52 608.11,-1114.04"/>
</g>
<!-- Q14 -->
<g id="node12" class="node">
<title>Q14</title>
<ellipse fill="none" stroke="black" cx="888" cy="-1335" rx="42.79" ry="42.79"/>
<text text-anchor="middle" x="888" y="-1331.3" font-family="Times,serif" font-size="14.00">Q14(F)</text>
</g>
<!-- Q14&#45;&gt;Q7 -->
<g id="edge4" class="edge">
<title>Q14&#45;&gt;Q7</title>
<path fill="none" stroke="red" d="M844.86,-1335C819.56,-1335 787,-1335 758.18,-1335"/>
<polygon fill="red" stroke="red" points="758.17,-1331.5 748.17,-1335 758.17,-1338.5 758.17,-1331.5"/>
<text text-anchor="middle" x="796.62" y="-1341.8" font-family="Times,serif" font-size="14.00">correlation</text>
</g>
<!-- boxhead12 -->
<g id="node13" class="node">
<title>boxhead12</title>
<polygon fill="none" stroke="black" points="884,-919.5 884,-1126.5 1030,-1126.5 1030,-919.5 884,-919.5"/>
<text text-anchor="middle" x="957" y="-1111.3" font-family="Times,serif" font-size="14.00">Distinct: Preserve</text>
<polyline fill="none" stroke="black" points="884,-1103.5 1030,-1103.5 "/>
<text text-anchor="middle" x="957" y="-1088.3" font-family="Times,serif" font-size="14.00">0: Q13.C0 as f</text>
<polyline fill="none" stroke="black" points="884,-1080.5 1030,-1080.5 "/>
<text text-anchor="middle" x="957" y="-1065.3" font-family="Times,serif" font-size="14.00">1: Q13.C1 as h</text>
<polyline fill="none" stroke="black" points="884,-1057.5 1030,-1057.5 "/>
<text text-anchor="middle" x="957" y="-1042.3" font-family="Times,serif" font-size="14.00">2: Q13.C2 as a</text>
<polyline fill="none" stroke="black" points="884,-1034.5 1030,-1034.5 "/>
<text text-anchor="middle" x="957" y="-1019.3" font-family="Times,serif" font-size="14.00">3: Q13.C3 as b</text>
<polyline fill="none" stroke="black" points="884,-1011.5 1030,-1011.5 "/>
<text text-anchor="middle" x="957" y="-996.3" font-family="Times,serif" font-size="14.00">4: Q13.C4 as c</text>
<polyline fill="none" stroke="black" points="884,-988.5 1030,-988.5 "/>
<text text-anchor="middle" x="957" y="-973.3" font-family="Times,serif" font-size="14.00">5: Q13.C5 as d</text>
<polyline fill="none" stroke="black" points="884,-965.5 1030,-965.5 "/>
<text text-anchor="middle" x="957" y="-950.3" font-family="Times,serif" font-size="14.00">6: Q13.C6 as e</text>
<polyline fill="none" stroke="black" points="884,-942.5 1030,-942.5 "/>
<text text-anchor="middle" x="957" y="-927.3" font-family="Times,serif" font-size="14.00">7: Q13.C7 as f</text>
</g>
<!-- Q14&#45;&gt;boxhead12 -->
<g id="edge13" class="edge">
<title>Q14&#45;&gt;boxhead12</title>
<path fill="none" stroke="black" stroke-dasharray="5,2" d="M897.16,-1292.83C903.66,-1263.63 912.84,-1222.41 922.06,-1181"/>
</g>
<!-- Q13 -->
<g id="node14" class="node">
<title>Q13</title>
<ellipse fill="none" stroke="black" cx="823" cy="-1023" rx="42.79" ry="42.79"/>
<text text-anchor="middle" x="823" y="-1019.3" font-family="Times,serif" font-size="14.00">Q13(F)</text>
</g>
<!-- boxhead13 -->
<g id="node15" class="node">
<title>boxhead13</title>
<polygon fill="none" stroke="black" points="831,-630.5 831,-837.5 977,-837.5 977,-630.5 831,-630.5"/>
<text text-anchor="middle" x="904" y="-822.3" font-family="Times,serif" font-size="14.00">Distinct: Preserve</text>
<polyline fill="none" stroke="black" points="831,-814.5 977,-814.5 "/>
<text text-anchor="middle" x="904" y="-799.3" font-family="Times,serif" font-size="14.00">0: Q9.C0 as f</text>
<polyline fill="none" stroke="black" points="831,-791.5 977,-791.5 "/>
<text text-anchor="middle" x="904" y="-776.3" font-family="Times,serif" font-size="14.00">1: Q9.C1 as h</text>
<polyline fill="none" stroke="black" points="831,-768.5 977,-768.5 "/>
<text text-anchor="middle" x="904" y="-753.3" font-family="Times,serif" font-size="14.00">2: Q12.C0 as a</text>
<polyline fill="none" stroke="black" points="831,-745.5 977,-745.5 "/>
<text text-anchor="middle" x="904" y="-730.3" font-family="Times,serif" font-size="14.00">3: Q12.C1 as b</text>
<polyline fill="none" stroke="black" points="831,-722.5 977,-722.5 "/>
<text text-anchor="middle" x="904" y="-707.3" font-family="Times,serif" font-size="14.00">4: Q12.C2 as c</text>
<polyline fill="none" stroke="black" points="831,-699.5 977,-699.5 "/>
<text text-anchor="middle" x="904" y="-684.3" font-family="Times,serif" font-size="14.00">5: Q12.C3 as d</text>
<polyline fill="none" stroke="black" points="831,-676.5 977,-676.5 "/>
<text text-anchor="middle" x="904" y="-661.3" font-family="Times,serif" font-size="14.00">6: Q12.C4 as e</text>
<polyline fill="none" stroke="black" points="831,-653.5 977,-653.5 "/>
<text text-anchor="middle" x="904" y="-638.3" font-family="Times,serif" font-size="14.00">7: Q12.C5 as f</text>
</g>
<!-- Q13&#45;&gt;boxhead13 -->
<g id="edge14" class="edge">
<title>Q13&#45;&gt;boxhead13</title>
<path fill="none" stroke="black" stroke-dasharray="5,2" d="M834.43,-981.49C841.22,-957.43 850.32,-925.2 859.69,-892"/>
</g>
<!-- Q9 -->
<g id="node16" class="node">
<title>Q9</title>
<ellipse fill="none" stroke="black" cx="574" cy="-734" rx="56.59" ry="56.59"/>
<text text-anchor="middle" x="574" y="-730.3" font-family="Times,serif" font-size="14.00">Q9(F) as f</text>
</g>
<!-- boxhead15 -->
<g id="node23" class="node">
<title>boxhead15</title>
<polygon fill="none" stroke="black" points="426,-433.5 426,-502.5 572,-502.5 572,-433.5 426,-433.5"/>
<text text-anchor="middle" x="499" y="-487.3" font-family="Times,serif" font-size="14.00">Distinct: Preserve</text>
<polyline fill="none" stroke="black" points="426,-479.5 572,-479.5 "/>
<text text-anchor="middle" x="499" y="-464.3" font-family="Times,serif" font-size="14.00">0: Q8.C0 as f</text>
<polyline fill="none" stroke="black" points="426,-456.5 572,-456.5 "/>
<text text-anchor="middle" x="499" y="-441.3" font-family="Times,serif" font-size="14.00">1: Q8.C1 as h</text>
</g>
<!-- Q9&#45;&gt;boxhead15 -->
<g id="edge15" class="edge">
<title>Q9&#45;&gt;boxhead15</title>
<path fill="none" stroke="black" stroke-dasharray="5,2" d="M558.73,-679.26C548.92,-644.73 535.94,-599.02 524.58,-559.04"/>
</g>
<!-- Q12 -->
<g id="node17" class="node">
<title>Q12</title>
<ellipse fill="none" stroke="black" cx="770" cy="-734" rx="42.79" ry="42.79"/>
<text text-anchor="middle" x="770" y="-730.3" font-family="Times,serif" font-size="14.00">Q12(F)</text>
</g>
<!-- Q12&#45;&gt;Q9 -->
<g id="edge5" class="edge">
<title>Q12&#45;&gt;Q9</title>
<path fill="none" stroke="red" d="M726.83,-734C701.65,-734 669.37,-734 640.96,-734"/>
<polygon fill="red" stroke="red" points="640.69,-730.5 630.69,-734 640.69,-737.5 640.69,-730.5"/>
<text text-anchor="middle" x="678.82" y="-740.8" font-family="Times,serif" font-size="14.00">correlation</text>
</g>
<!-- boxhead16 -->
<g id="node18" class="node">
<title>boxhead16</title>
<polygon fill="none" stroke="black" points="742,-387.5 742,-548.5 888,-548.5 888,-387.5 742,-387.5"/>
<text text-anchor="middle" x="815" y="-533.3" font-family="Times,serif" font-size="14.00">Distinct: Preserve</text>
<polyline fill="none" stroke="black" points="742,-525.5 888,-525.5 "/>
<text text-anchor="middle" x="815" y="-510.3" font-family="Times,serif" font-size="14.00">0: Q1.C0 as a</text>
<polyline fill="none" stroke="black" points="742,-502.5 888,-502.5 "/>
<text text-anchor="middle" x="815" y="-487.3" font-family="Times,serif" font-size="14.00">1: Q3.C0 as b</text>
<polyline fill="none" stroke="black" points="742,-479.5 888,-479.5 "/>
<text text-anchor="middle" x="815" y="-464.3" font-family="Times,serif" font-size="14.00">2: Q5.C0 as c</text>
<polyline fill="none" stroke="black" points="742,-456.5 888,-456.5 "/>
<text text-anchor="middle" x="815" y="-441.3" font-family="Times,serif" font-size="14.00">3: Q7.C0 as d</text>
<polyline fill="none" stroke="black" points="742,-433.5 888,-433.5 "/>
<text text-anchor="middle" x="815" y="-418.3" font-family="Times,serif" font-size="14.00">4: Q11.C0 as e</text>
<polyline fill="none" stroke="black" points="742,-410.5 888,-410.5 "/>
<text text-anchor="middle" x="815" y="-395.3" font-family="Times,serif" font-size="14.00">5: Q9.C0 as f</text>
</g>
<!-- Q12&#45;&gt;boxhead16 -->
<g id="edge16" class="edge">
<title>Q12&#45;&gt;boxhead16</title>
<path fill="none" stroke="black" stroke-dasharray="5,2" d="M777.08,-691.46C781.21,-667.24 786.67,-635.2 792.16,-603"/>
</g>
<!-- Q11 -->
<g id="node19" class="node">
<title>Q11</title>
<ellipse fill="none" stroke="black" cx="660" cy="-468" rx="64.19" ry="64.19"/>
<text text-anchor="middle" x="660" y="-464.3" font-family="Times,serif" font-size="14.00">Q11(F) as e</text>
</g>
<!-- boxhead18 -->
<g id="node20" class="node">
<title>boxhead18</title>
<polygon fill="none" stroke="black" points="587,-225 587,-294 733,-294 733,-225 587,-225"/>
<text text-anchor="middle" x="660" y="-278.8" font-family="Times,serif" font-size="14.00">Distinct: Preserve</text>
<polyline fill="none" stroke="black" points="587,-271 733,-271 "/>
<text text-anchor="middle" x="660" y="-255.8" font-family="Times,serif" font-size="14.00">0: Q10.C0 as e</text>
<polyline fill="none" stroke="black" points="587,-248 733,-248 "/>
<text text-anchor="middle" x="660" y="-232.8" font-family="Times,serif" font-size="14.00">1: Q10.C1 as f</text>
</g>
<!-- Q11&#45;&gt;boxhead18 -->
<g id="edge17" class="edge">
<title>Q11&#45;&gt;boxhead18</title>
<path fill="none" stroke="black" stroke-dasharray="5,2" d="M660,-403.64C660,-388.69 660,-372.42 660,-356.39"/>
</g>
<!-- Q10 -->
<g id="node21" class="node">
<title>Q10</title>
<ellipse fill="none" stroke="black" cx="526" cy="-259.5" rx="42.79" ry="42.79"/>
<text text-anchor="middle" x="526" y="-255.8" font-family="Times,serif" font-size="14.00">Q10(F)</text>
</g>
<!-- boxhead17 -->
<g id="node22" class="node">
<title>boxhead17</title>
<polygon fill="none" stroke="black" points="453,-39.5 453,-131.5 599,-131.5 599,-39.5 453,-39.5"/>
<text text-anchor="middle" x="526" y="-116.3" font-family="Times,serif" font-size="14.00">Distinct: Preserve</text>
<polyline fill="none" stroke="black" points="453,-108.5 599,-108.5 "/>
<text text-anchor="middle" x="526" y="-93.3" font-family="Times,serif" font-size="14.00">0: C0 as column1</text>
<polyline fill="none" stroke="black" points="453,-85.5 599,-85.5 "/>
<text text-anchor="middle" x="526" y="-70.3" font-family="Times,serif" font-size="14.00">1: C1 as column2</text>
<polyline fill="none" stroke="black" points="453,-62.5 599,-62.5 "/>
<text text-anchor="middle" x="526" y="-47.3" font-family="Times,serif" font-size="14.00">2: C2 as column3</text>
</g>
<!-- Q10&#45;&gt;boxhead17 -->
<g id="edge18" class="edge">
<title>Q10&#45;&gt;boxhead17</title>
<path fill="none" stroke="black" stroke-dasharray="5,2" d="M526,-216.42C526,-207.01 526,-196.65 526,-186"/>
</g>
<!-- Q8 -->
<g id="node24" class="node">
<title>Q8</title>
<ellipse fill="none" stroke="black" cx="371" cy="-468" rx="37.09" ry="37.09"/>
<text text-anchor="middle" x="371" y="-464.3" font-family="Times,serif" font-size="14.00">Q8(F)</text>
</g>
<!-- boxhead14 -->
<g id="node25" class="node">
<title>boxhead14</title>
<polygon fill="none" stroke="black" points="298,-213.5 298,-305.5 444,-305.5 444,-213.5 298,-213.5"/>
<text text-anchor="middle" x="371" y="-290.3" font-family="Times,serif" font-size="14.00">Distinct: Preserve</text>
<polyline fill="none" stroke="black" points="298,-282.5 444,-282.5 "/>
<text text-anchor="middle" x="371" y="-267.3" font-family="Times,serif" font-size="14.00">0: C0 as column1</text>
<polyline fill="none" stroke="black" points="298,-259.5 444,-259.5 "/>
<text text-anchor="middle" x="371" y="-244.3" font-family="Times,serif" font-size="14.00">1: C1 as column2</text>
<polyline fill="none" stroke="black" points="298,-236.5 444,-236.5 "/>
<text text-anchor="middle" x="371" y="-221.3" font-family="Times,serif" font-size="14.00">2: C2 as column3</text>
</g>
<!-- Q8&#45;&gt;boxhead14 -->
<g id="edge19" class="edge">
<title>Q8&#45;&gt;boxhead14</title>
<path fill="none" stroke="black" stroke-dasharray="5,2" d="M371,-430.56C371,-410.76 371,-385.23 371,-360"/>
</g>
<!-- Q6 -->
<g id="node27" class="node">
<title>Q6</title>
<ellipse fill="none" stroke="black" cx="447" cy="-1023" rx="37.09" ry="37.09"/>
<text text-anchor="middle" x="447" y="-1019.3" font-family="Times,serif" font-size="14.00">Q6(F)</text>
</g>
<!-- boxhead10 -->
<g id="node28" class="node">
<title>boxhead10</title>
<polygon fill="none" stroke="black" points="347,-688 347,-780 493,-780 493,-688 347,-688"/>
<text text-anchor="middle" x="420" y="-764.8" font-family="Times,serif" font-size="14.00">Distinct: Preserve</text>
<polyline fill="none" stroke="black" points="347,-757 493,-757 "/>
<text text-anchor="middle" x="420" y="-741.8" font-family="Times,serif" font-size="14.00">0: C0 as column1</text>
<polyline fill="none" stroke="black" points="347,-734 493,-734 "/>
<text text-anchor="middle" x="420" y="-718.8" font-family="Times,serif" font-size="14.00">1: C1 as column2</text>
<polyline fill="none" stroke="black" points="347,-711 493,-711 "/>
<text text-anchor="middle" x="420" y="-695.8" font-family="Times,serif" font-size="14.00">2: C2 as column3</text>
</g>
<!-- Q6&#45;&gt;boxhead10 -->
<g id="edge20" class="edge">
<title>Q6&#45;&gt;boxhead10</title>
<path fill="none" stroke="black" stroke-dasharray="5,2" d="M443.61,-985.94C440.05,-948.11 434.3,-886.96 429.36,-834.5"/>
</g>
<!-- Q4 -->
<g id="node30" class="node">
<title>Q4</title>
<ellipse fill="none" stroke="black" cx="571" cy="-1670" rx="37.09" ry="37.09"/>
<text text-anchor="middle" x="571" y="-1666.3" font-family="Times,serif" font-size="14.00">Q4(F)</text>
</g>
<!-- boxhead6 -->
<g id="node31" class="node">
<title>boxhead6</title>
<polygon fill="none" stroke="black" points="460,-1289 460,-1381 606,-1381 606,-1289 460,-1289"/>
<text text-anchor="middle" x="533" y="-1365.8" font-family="Times,serif" font-size="14.00">Distinct: Preserve</text>
<polyline fill="none" stroke="black" points="460,-1358 606,-1358 "/>
<text text-anchor="middle" x="533" y="-1342.8" font-family="Times,serif" font-size="14.00">0: C0 as column1</text>
<polyline fill="none" stroke="black" points="460,-1335 606,-1335 "/>
<text text-anchor="middle" x="533" y="-1319.8" font-family="Times,serif" font-size="14.00">1: C1 as column2</text>
<polyline fill="none" stroke="black" points="460,-1312 606,-1312 "/>
<text text-anchor="middle" x="533" y="-1296.8" font-family="Times,serif" font-size="14.00">2: C2 as column3</text>
</g>
<!-- Q4&#45;&gt;boxhead6 -->
<g id="edge21" class="edge">
<title>Q4&#45;&gt;boxhead6</title>
<path fill="none" stroke="black" stroke-dasharray="5,2" d="M566.9,-1633.05C561.55,-1586.15 551.97,-1502.21 544.35,-1435.5"/>
</g>
<!-- Q2 -->
<g id="node33" class="node">
<title>Q2</title>
<ellipse fill="none" stroke="black" cx="430" cy="-2028" rx="37.09" ry="37.09"/>
<text text-anchor="middle" x="430" y="-2024.3" font-family="Times,serif" font-size="14.00">Q2(F)</text>
</g>
<!-- boxhead3 -->
<g id="node34" class="node">
<title>boxhead3</title>
<polygon fill="none" stroke="black" points="357,-1624 357,-1716 503,-1716 503,-1624 357,-1624"/>
<text text-anchor="middle" x="430" y="-1700.8" font-family="Times,serif" font-size="14.00">Distinct: Preserve</text>
<polyline fill="none" stroke="black" points="357,-1693 503,-1693 "/>
<text text-anchor="middle" x="430" y="-1677.8" font-family="Times,serif" font-size="14.00">0: C0 as column1</text>
<polyline fill="none" stroke="black" points="357,-1670 503,-1670 "/>
<text text-anchor="middle" x="430" y="-1654.8" font-family="Times,serif" font-size="14.00">1: C1 as column2</text>
<polyline fill="none" stroke="black" points="357,-1647 503,-1647 "/>
<text text-anchor="middle" x="430" y="-1631.8" font-family="Times,serif" font-size="14.00">2: C2 as column3</text>
</g>
<!-- Q2&#45;&gt;boxhead3 -->
<g id="edge22" class="edge">
<title>Q2&#45;&gt;boxhead3</title>
<path fill="none" stroke="black" stroke-dasharray="5,2" d="M430,-1990.91C430,-1939.67 430,-1843.94 430,-1770.5"/>
</g>
<!-- Q0 -->
<g id="node36" class="node">
<title>Q0</title>
<ellipse fill="none" stroke="black" cx="168" cy="-2028" rx="37.09" ry="37.09"/>
<text text-anchor="middle" x="168" y="-2024.3" font-family="Times,serif" font-size="14.00">Q0(F)</text>
</g>
<!-- boxhead1 -->
<g id="node37" class="node">
<title>boxhead1</title>
<polygon fill="none" stroke="black" points="95,-1624 95,-1716 241,-1716 241,-1624 95,-1624"/>
<text text-anchor="middle" x="168" y="-1700.8" font-family="Times,serif" font-size="14.00">Distinct: Preserve</text>
<polyline fill="none" stroke="black" points="95,-1693 241,-1693 "/>
<text text-anchor="middle" x="168" y="-1677.8" font-family="Times,serif" font-size="14.00">0: C0 as column1</text>
<polyline fill="none" stroke="black" points="95,-1670 241,-1670 "/>
<text text-anchor="middle" x="168" y="-1654.8" font-family="Times,serif" font-size="14.00">1: C1 as column2</text>
<polyline fill="none" stroke="black" points="95,-1647 241,-1647 "/>
<text text-anchor="middle" x="168" y="-1631.8" font-family="Times,serif" font-size="14.00">2: C2 as column3</text>
</g>
<!-- Q0&#45;&gt;boxhead1 -->
<g id="edge23" class="edge">
<title>Q0&#45;&gt;boxhead1</title>
<path fill="none" stroke="black" stroke-dasharray="5,2" d="M168,-1990.91C168,-1939.67 168,-1843.94 168,-1770.5"/>
</g>
</g>
</svg>
