<?xml version="1.0" encoding="UTF-8" standalone="no"?>
<!DOCTYPE svg PUBLIC "-//W3C//DTD SVG 1.1//EN"
 "http://www.w3.org/Graphics/SVG/1.1/DTD/svg11.dtd">
<!-- Generated by graphviz version 2.43.0 (0)
 -->
<!-- Title: G Pages: 1 -->
<svg width="336pt" height="344pt"
 viewBox="0.00 0.00 336.00 344.29" xmlns="http://www.w3.org/2000/svg" xmlns:xlink="http://www.w3.org/1999/xlink">
<g id="graph0" class="graph" transform="scale(1 1) rotate(0) translate(4 340.29)">
<title>G</title>
<polygon fill="white" stroke="transparent" points="-4,4 -4,-340.29 332,-340.29 332,4 -4,4"/>
<text text-anchor="middle" x="124" y="-7.8" font-family="Times,serif" font-size="14.00">select * from t; (before rewrites)</text>
<g id="clust1" class="cluster">
<title>cluster0</title>
<polygon fill="none" stroke="black" points="22,-171 22,-328.29 320,-328.29 320,-171 22,-171"/>
<text text-anchor="middle" x="72.5" y="-313.09" font-family="Times,serif" font-size="14.00">Box0:Select</text>
</g>
<g id="clust3" class="cluster">
<title>cluster1</title>
<polygon fill="none" stroke="black" points="8,-31 8,-163 170,-163 170,-31 8,-31"/>
<text text-anchor="middle" x="79.5" y="-147.8" font-family="Times,serif" font-size="14.00">Box1:BaseTable T</text>
</g>
<!-- boxhead0 -->
<g id="node1" class="node">
<title>boxhead0</title>
<polygon fill="none" stroke="black" points="166,-192.14 166,-284.14 312,-284.14 312,-192.14 166,-192.14"/>
<text text-anchor="middle" x="239" y="-268.94" font-family="Times,serif" font-size="14.00">Distinct: Preserve</text>
<polyline fill="none" stroke="black" points="166,-261.14 312,-261.14 "/>
<text text-anchor="middle" x="239" y="-245.94" font-family="Times,serif" font-size="14.00">0: Q0.c0 as F1</text>
<polyline fill="none" stroke="black" points="166,-238.14 312,-238.14 "/>
<text text-anchor="middle" x="239" y="-222.94" font-family="Times,serif" font-size="14.00">1: Q0.c1 as F2</text>
<polyline fill="none" stroke="black" points="166,-215.14 312,-215.14 "/>
<text text-anchor="middle" x="239" y="-199.94" font-family="Times,serif" font-size="14.00">2: Q0.c2 as F3</text>
</g>
<!-- Q0 -->
<g id="node2" class="node">
<title>Q0</title>
<ellipse fill="none" stroke="black" cx="89" cy="-238.14" rx="59.29" ry="59.29"/>
<text text-anchor="middle" x="89" y="-234.44" font-family="Times,serif" font-size="14.00">Q0(F) as T</text>
</g>
<!-- boxhead1 -->
<g id="node3" class="node">
<title>boxhead1</title>
<polygon fill="none" stroke="black" points="16,-39.5 16,-131.5 162,-131.5 162,-39.5 16,-39.5"/>
<text text-anchor="middle" x="89" y="-116.3" font-family="Times,serif" font-size="14.00">Distinct: Preserve</text>
<polyline fill="none" stroke="black" points="16,-108.5 162,-108.5 "/>
<text text-anchor="middle" x="89" y="-93.3" font-family="Times,serif" font-size="14.00">0: c0 as F1</text>
<polyline fill="none" stroke="black" points="16,-85.5 162,-85.5 "/>
<text text-anchor="middle" x="89" y="-70.3" font-family="Times,serif" font-size="14.00">1: c1 as F2</text>
<polyline fill="none" stroke="black" points="16,-62.5 162,-62.5 "/>
<text text-anchor="middle" x="89" y="-47.3" font-family="Times,serif" font-size="14.00">2: c2 as F3</text>
</g>
<!-- Q0&#45;&gt;boxhead1 -->
<g id="edge1" class="edge">
<title>Q0&#45;&gt;boxhead1</title>
<path fill="none" stroke="black" stroke-dasharray="5,2" d="M89,-178.9C89,-173.68 89,-168.34 89,-163"/>
</g>
</g>
</svg>
