<?xml version="1.0" encoding="UTF-8" standalone="no"?>
<!DOCTYPE svg PUBLIC "-//W3C//DTD SVG 1.1//EN"
 "http://www.w3.org/Graphics/SVG/1.1/DTD/svg11.dtd">
<!-- Generated by graphviz version 2.43.0 (0)
 -->
<!-- Title: G Pages: 1 -->
<svg width="881pt" height="807pt"
 viewBox="0.00 0.00 881.00 806.99" xmlns="http://www.w3.org/2000/svg" xmlns:xlink="http://www.w3.org/1999/xlink">
<g id="graph0" class="graph" transform="scale(1 1) rotate(0) translate(4 802.99)">
<title>G</title>
<polygon fill="white" stroke="transparent" points="-4,4 -4,-802.99 877,-802.99 877,4 -4,4"/>
<text text-anchor="middle" x="436.5" y="-7.8" font-family="Times,serif" font-size="14.00">select * from t1, t2 left join (select t3.f1 as y from t3, t4) as x on true where y is null and t1.f1 = t2.f2; (before rewrites)</text>
<g id="clust1" class="cluster">
<title>cluster0</title>
<polygon fill="none" stroke="black" points="116,-566.99 116,-790.99 779,-790.99 779,-566.99 116,-566.99"/>
<text text-anchor="middle" x="166.5" y="-775.79" font-family="Times,serif" font-size="14.00">Box0:Select</text>
</g>
<g id="clust3" class="cluster">
<title>cluster2</title>
<polygon fill="none" stroke="black" points="256,-369.99 256,-547.99 704,-547.99 704,-369.99 256,-369.99"/>
<text text-anchor="middle" x="318.5" y="-532.79" font-family="Times,serif" font-size="14.00">Box2:OuterJoin</text>
</g>
<g id="clust5" class="cluster">
<title>cluster4</title>
<polygon fill="none" stroke="black" points="329,-182 329,-350.99 787,-350.99 787,-182 329,-182"/>
<text text-anchor="middle" x="379.5" y="-335.79" font-family="Times,serif" font-size="14.00">Box4:Select</text>
</g>
<g id="clust7" class="cluster">
<title>cluster6</title>
<polygon fill="none" stroke="black" points="475,-31 475,-163 637,-163 637,-31 475,-31"/>
<text text-anchor="middle" x="551" y="-147.8" font-family="Times,serif" font-size="14.00">Box6:BaseTable T4</text>
</g>
<g id="clust9" class="cluster">
<title>cluster5</title>
<polygon fill="none" stroke="black" points="305,-31 305,-163 467,-163 467,-31 305,-31"/>
<text text-anchor="middle" x="381" y="-147.8" font-family="Times,serif" font-size="14.00">Box5:BaseTable T3</text>
</g>
<g id="clust11" class="cluster">
<title>cluster3</title>
<polygon fill="none" stroke="black" points="159,-200.49 159,-332.49 321,-332.49 321,-200.49 159,-200.49"/>
<text text-anchor="middle" x="235" y="-317.29" font-family="Times,serif" font-size="14.00">Box3:BaseTable T2</text>
</g>
<g id="clust13" class="cluster">
<title>cluster1</title>
<polygon fill="none" stroke="black" points="86,-392.99 86,-524.99 248,-524.99 248,-392.99 86,-392.99"/>
<text text-anchor="middle" x="162" y="-509.79" font-family="Times,serif" font-size="14.00">Box1:BaseTable T1</text>
</g>
<!-- boxhead0 -->
<g id="node1" class="node">
<title>boxhead0</title>
<polygon fill="none" stroke="black" points="625,-575.49 625,-759.49 771,-759.49 771,-575.49 625,-575.49"/>
<text text-anchor="middle" x="698" y="-744.29" font-family="Times,serif" font-size="14.00">Distinct: Preserve</text>
<polyline fill="none" stroke="black" points="625,-736.49 771,-736.49 "/>
<text text-anchor="middle" x="698" y="-721.29" font-family="Times,serif" font-size="14.00">0: Q0.c0 as F1</text>
<polyline fill="none" stroke="black" points="625,-713.49 771,-713.49 "/>
<text text-anchor="middle" x="698" y="-698.29" font-family="Times,serif" font-size="14.00">1: Q0.c1 as F2</text>
<polyline fill="none" stroke="black" points="625,-690.49 771,-690.49 "/>
<text text-anchor="middle" x="698" y="-675.29" font-family="Times,serif" font-size="14.00">2: Q0.c2 as F3</text>
<polyline fill="none" stroke="black" points="625,-667.49 771,-667.49 "/>
<text text-anchor="middle" x="698" y="-652.29" font-family="Times,serif" font-size="14.00">3: Q5.c0 as F1</text>
<polyline fill="none" stroke="black" points="625,-644.49 771,-644.49 "/>
<text text-anchor="middle" x="698" y="-629.29" font-family="Times,serif" font-size="14.00">4: Q5.c1 as F2</text>
<polyline fill="none" stroke="black" points="625,-621.49 771,-621.49 "/>
<text text-anchor="middle" x="698" y="-606.29" font-family="Times,serif" font-size="14.00">5: Q5.c2 as F3</text>
<polyline fill="none" stroke="black" points="625,-598.49 771,-598.49 "/>
<text text-anchor="middle" x="698" y="-583.29" font-family="Times,serif" font-size="14.00">6: Q5.c3 as Y</text>
</g>
<!-- Q0 -->
<g id="node2" class="node">
<title>Q0</title>
<ellipse fill="none" stroke="black" cx="189" cy="-667.49" rx="64.99" ry="64.99"/>
<text text-anchor="middle" x="189" y="-663.79" font-family="Times,serif" font-size="14.00">Q0(F) as T1</text>
</g>
<!-- Q5 -->
<g id="node3" class="node">
<title>Q5</title>
<ellipse fill="none" stroke="black" cx="434" cy="-667.49" rx="37.09" ry="37.09"/>
<text text-anchor="middle" x="434" y="-663.79" font-family="Times,serif" font-size="14.00">Q5(F)</text>
</g>
<!-- Q0&#45;&gt;Q5 -->
<g id="edge2" class="edge">
<title>Q0&#45;&gt;Q5</title>
<path fill="none" stroke="black" d="M254.01,-667.49C299.66,-667.49 359.08,-667.49 396.9,-667.49"/>
<text text-anchor="middle" x="325.47" y="-674.29" font-family="Times,serif" font-size="14.00">(Q0.c0) = (Q5.c1)</text>
</g>
<!-- boxhead1 -->
<g id="node13" class="node">
<title>boxhead1</title>
<polygon fill="none" stroke="black" points="94,-401.49 94,-493.49 240,-493.49 240,-401.49 94,-401.49"/>
<text text-anchor="middle" x="167" y="-478.29" font-family="Times,serif" font-size="14.00">Distinct: Preserve</text>
<polyline fill="none" stroke="black" points="94,-470.49 240,-470.49 "/>
<text text-anchor="middle" x="167" y="-455.29" font-family="Times,serif" font-size="14.00">0: c0 as F1</text>
<polyline fill="none" stroke="black" points="94,-447.49 240,-447.49 "/>
<text text-anchor="middle" x="167" y="-432.29" font-family="Times,serif" font-size="14.00">1: c1 as F2</text>
<polyline fill="none" stroke="black" points="94,-424.49 240,-424.49 "/>
<text text-anchor="middle" x="167" y="-409.29" font-family="Times,serif" font-size="14.00">2: c2 as F3</text>
</g>
<!-- Q0&#45;&gt;boxhead1 -->
<g id="edge3" class="edge">
<title>Q0&#45;&gt;boxhead1</title>
<path fill="none" stroke="black" stroke-dasharray="5,2" d="M182.55,-602.55C180.1,-578.26 177.28,-550.33 174.72,-524.99"/>
</g>
<!-- Q5&#45;&gt;Q5 -->
<g id="edge1" class="edge">
<title>Q5&#45;&gt;Q5</title>
<path fill="none" stroke="black" d="M465.12,-687.93C478.07,-689.34 489.05,-682.53 489.05,-667.49 489.05,-652.45 478.07,-645.63 465.12,-647.04"/>
<text text-anchor="middle" x="548.05" y="-663.79" font-family="Times,serif" font-size="14.00">(Q5.c3) IS NULL</text>
</g>
<!-- boxhead2 -->
<g id="node4" class="node">
<title>boxhead2</title>
<polygon fill="none" stroke="black" points="550,-378.49 550,-516.49 696,-516.49 696,-378.49 550,-378.49"/>
<text text-anchor="middle" x="623" y="-501.29" font-family="Times,serif" font-size="14.00">Distinct: Preserve</text>
<polyline fill="none" stroke="black" points="550,-493.49 696,-493.49 "/>
<text text-anchor="middle" x="623" y="-478.29" font-family="Times,serif" font-size="14.00">0: Q1.c0 as F1</text>
<polyline fill="none" stroke="black" points="550,-470.49 696,-470.49 "/>
<text text-anchor="middle" x="623" y="-455.29" font-family="Times,serif" font-size="14.00">1: Q1.c1 as F2</text>
<polyline fill="none" stroke="black" points="550,-447.49 696,-447.49 "/>
<text text-anchor="middle" x="623" y="-432.29" font-family="Times,serif" font-size="14.00">2: Q1.c2 as F3</text>
<polyline fill="none" stroke="black" points="550,-424.49 696,-424.49 "/>
<text text-anchor="middle" x="623" y="-409.29" font-family="Times,serif" font-size="14.00">3: Q4.c0 as Y</text>
<polyline fill="none" stroke="black" points="550,-401.49 696,-401.49 "/>
<text text-anchor="middle" x="623" y="-386.29" font-family="Times,serif" font-size="14.00">TRUE</text>
</g>
<!-- Q5&#45;&gt;boxhead2 -->
<g id="edge4" class="edge">
<title>Q5&#45;&gt;boxhead2</title>
<path fill="none" stroke="black" stroke-dasharray="5,2" d="M459,-639.5C480.92,-615.68 513.48,-579.89 541,-547.99"/>
</g>
<!-- Q1 -->
<g id="node5" class="node">
<title>Q1</title>
<ellipse fill="none" stroke="black" cx="329" cy="-447.49" rx="64.99" ry="64.99"/>
<text text-anchor="middle" x="329" y="-443.79" font-family="Times,serif" font-size="14.00">Q1(P) as T2</text>
</g>
<!-- boxhead3 -->
<g id="node12" class="node">
<title>boxhead3</title>
<polygon fill="none" stroke="black" points="167,-208.99 167,-300.99 313,-300.99 313,-208.99 167,-208.99"/>
<text text-anchor="middle" x="240" y="-285.79" font-family="Times,serif" font-size="14.00">Distinct: Preserve</text>
<polyline fill="none" stroke="black" points="167,-277.99 313,-277.99 "/>
<text text-anchor="middle" x="240" y="-262.79" font-family="Times,serif" font-size="14.00">0: c0 as F1</text>
<polyline fill="none" stroke="black" points="167,-254.99 313,-254.99 "/>
<text text-anchor="middle" x="240" y="-239.79" font-family="Times,serif" font-size="14.00">1: c1 as F2</text>
<polyline fill="none" stroke="black" points="167,-231.99 313,-231.99 "/>
<text text-anchor="middle" x="240" y="-216.79" font-family="Times,serif" font-size="14.00">2: c2 as F3</text>
</g>
<!-- Q1&#45;&gt;boxhead3 -->
<g id="edge5" class="edge">
<title>Q1&#45;&gt;boxhead3</title>
<path fill="none" stroke="black" stroke-dasharray="5,2" d="M301.81,-388.3C293.59,-370.7 284.43,-351.1 275.74,-332.49"/>
</g>
<!-- Q4 -->
<g id="node6" class="node">
<title>Q4</title>
<ellipse fill="none" stroke="black" cx="472" cy="-447.49" rx="59.59" ry="59.59"/>
<text text-anchor="middle" x="472" y="-443.79" font-family="Times,serif" font-size="14.00">Q4(F) as X</text>
</g>
<!-- boxhead4 -->
<g id="node7" class="node">
<title>boxhead4</title>
<polygon fill="none" stroke="black" points="633,-231.99 633,-277.99 779,-277.99 779,-231.99 633,-231.99"/>
<text text-anchor="middle" x="706" y="-262.79" font-family="Times,serif" font-size="14.00">Distinct: Preserve</text>
<polyline fill="none" stroke="black" points="633,-254.99 779,-254.99 "/>
<text text-anchor="middle" x="706" y="-239.79" font-family="Times,serif" font-size="14.00">0: Q2.c0 as Y</text>
</g>
<!-- Q4&#45;&gt;boxhead4 -->
<g id="edge6" class="edge">
<title>Q4&#45;&gt;boxhead4</title>
<path fill="none" stroke="black" stroke-dasharray="5,2" d="M506.77,-398.8C516.73,-387.93 528.35,-377.41 541,-369.99 573.63,-350.83 591.58,-370.51 624,-350.99"/>
</g>
<!-- Q2 -->
<g id="node8" class="node">
<title>Q2</title>
<ellipse fill="none" stroke="black" cx="402" cy="-254.99" rx="64.99" ry="64.99"/>
<text text-anchor="middle" x="402" y="-251.29" font-family="Times,serif" font-size="14.00">Q2(F) as T3</text>
</g>
<!-- boxhead5 -->
<g id="node11" class="node">
<title>boxhead5</title>
<polygon fill="none" stroke="black" points="313,-39.5 313,-131.5 459,-131.5 459,-39.5 313,-39.5"/>
<text text-anchor="middle" x="386" y="-116.3" font-family="Times,serif" font-size="14.00">Distinct: Preserve</text>
<polyline fill="none" stroke="black" points="313,-108.5 459,-108.5 "/>
<text text-anchor="middle" x="386" y="-93.3" font-family="Times,serif" font-size="14.00">0: c0 as F1</text>
<polyline fill="none" stroke="black" points="313,-85.5 459,-85.5 "/>
<text text-anchor="middle" x="386" y="-70.3" font-family="Times,serif" font-size="14.00">1: c1 as F2</text>
<polyline fill="none" stroke="black" points="313,-62.5 459,-62.5 "/>
<text text-anchor="middle" x="386" y="-47.3" font-family="Times,serif" font-size="14.00">2: c2 as F3</text>
</g>
<!-- Q2&#45;&gt;boxhead5 -->
<g id="edge7" class="edge">
<title>Q2&#45;&gt;boxhead5</title>
<path fill="none" stroke="black" stroke-dasharray="5,2" d="M395.91,-190.19C395.06,-181.3 394.18,-172.09 393.31,-163"/>
</g>
<!-- Q3 -->
<g id="node9" class="node">
<title>Q3</title>
<ellipse fill="none" stroke="black" cx="550" cy="-254.99" rx="64.99" ry="64.99"/>
<text text-anchor="middle" x="550" y="-251.29" font-family="Times,serif" font-size="14.00">Q3(F) as T4</text>
</g>
<!-- boxhead6 -->
<g id="node10" class="node">
<title>boxhead6</title>
<polygon fill="none" stroke="black" points="483,-39.5 483,-131.5 629,-131.5 629,-39.5 483,-39.5"/>
<text text-anchor="middle" x="556" y="-116.3" font-family="Times,serif" font-size="14.00">Distinct: Preserve</text>
<polyline fill="none" stroke="black" points="483,-108.5 629,-108.5 "/>
<text text-anchor="middle" x="556" y="-93.3" font-family="Times,serif" font-size="14.00">0: c0 as F1</text>
<polyline fill="none" stroke="black" points="483,-85.5 629,-85.5 "/>
<text text-anchor="middle" x="556" y="-70.3" font-family="Times,serif" font-size="14.00">1: c1 as F2</text>
<polyline fill="none" stroke="black" points="483,-62.5 629,-62.5 "/>
<text text-anchor="middle" x="556" y="-47.3" font-family="Times,serif" font-size="14.00">2: c2 as F3</text>
</g>
<!-- Q3&#45;&gt;boxhead6 -->
<g id="edge8" class="edge">
<title>Q3&#45;&gt;boxhead6</title>
<path fill="none" stroke="black" stroke-dasharray="5,2" d="M552.3,-189.72C552.62,-180.97 552.94,-171.93 553.26,-163"/>
</g>
</g>
</svg>
