<svg xmlns="http://www.w3.org/2000/svg" width="64" height="64" fill="none" viewBox="0 0 64 64"><path fill="url(#a)" d="M64 0H0v64h64z"/><path fill="#fff" fill-rule="evenodd" d="M28.807 29.582v-7.193h1.596v3.197l2.155-3.197h1.768l-2.498 3.363 2.704 3.83h-1.894l-2.235-3.477v3.477zM52.8 39.294l-.535.463c-1.078.944-2.528 1.416-3.979 1.416s-2.904-.473-3.983-1.419l-1.067-.924c-1.565-1.37-4.304-1.37-5.865-.003l-1.073.93c-2.155 1.888-5.805 1.89-7.963-.003l-1.066-.924c-1.565-1.37-4.304-1.37-5.866-.003l-1.073.93c-2.155 1.888-5.804 1.89-7.962-.003l-.532-.46 1.045-1.21.535.464c1.566 1.372 4.305 1.372 5.866.003l1.073-.93c2.155-1.887 5.804-1.887 7.962.003l1.067.924c1.565 1.372 4.304 1.372 5.865.003l1.073-.93c2.155-1.887 5.804-1.887 7.962.003l1.067.924c1.565 1.372 4.304 1.372 5.866.003l.538-.466zm-1.681 9.618 1.045 1.208-.535.464c-1.077.944-2.527 1.415-3.978 1.415s-2.904-.472-3.984-1.418l-1.067-.924c-1.565-1.37-4.304-1.37-5.866-.003l-1.073.93c-2.153 1.888-5.802 1.889-7.962-.003l-1.067-.924c-1.564-1.37-4.303-1.37-5.865-.003l-1.073.93c-2.154 1.888-5.803 1.889-7.962-.003l-.532-.46 1.045-1.21.535.464c1.566 1.37 4.305 1.371 5.866.003l1.073-.93c2.155-1.887 5.803-1.888 7.962.003l1.066.924c1.566 1.37 4.305 1.371 5.866.003l1.073-.93c2.156-1.887 5.803-1.888 7.962.003l1.067.924c1.565 1.37 4.305 1.371 5.865.003zm0-5.067 1.045 1.208-.535.463c-2.154 1.89-5.804 1.89-7.962-.002L42.6 44.59c-1.565-1.371-4.304-1.37-5.866-.003l-1.073.93c-1.077.944-2.527 1.415-3.977 1.415-1.452 0-2.905-.472-3.985-1.418l-1.067-.924c-1.564-1.371-4.303-1.37-5.865-.003l-1.073.93c-2.153 1.889-5.803 1.889-7.962-.003l-.532-.461 1.045-1.208.535.464c1.566 1.371 4.305 1.37 5.866.002l1.073-.93c2.155-1.887 5.805-1.889 7.962.003l1.066.924c1.566 1.372 4.305 1.371 5.866.003l1.073-.93c2.156-1.887 5.805-1.889 7.962.003l1.067.924c1.565 1.372 4.305 1.371 5.865.003zM19.226 30.381a1.6 1.6 0 0 1 0 3.197 1.6 1.6 0 0 1 0-3.197m11.976-16.783a1.6 1.6 0 0 1 0 3.197 1.6 1.6 0 0 1 0-3.197M44.774 31.98a1.6 1.6 0 0 1-1.597 1.599 1.6 1.6 0 0 1 0-3.197 1.6 1.6 0 0 1 1.597 1.598M31.202 18.393c.531 0 1.026-.143 1.468-.375l8.134 11.843a3.16 3.16 0 0 0-.706 1.319H22.305a3.16 3.16 0 0 0-.705-1.319l8.133-11.843c.442.232.937.375 1.469.375M19.226 35.176a3.19 3.19 0 0 0 3.08-2.398h17.792a3.19 3.19 0 0 0 3.08 2.398 3.2 3.2 0 0 0 3.193-3.197 3.2 3.2 0 0 0-3.194-3.197c-.368 0-.716.076-1.047.19l-8.26-12.028c.33-.502.525-1.102.525-1.747A3.2 3.2 0 0 0 31.202 12a3.2 3.2 0 0 0-3.194 3.197c0 .645.195 1.245.525 1.747l-8.26 12.029a3.2 3.2 0 0 0-1.047-.19 3.2 3.2 0 0 0-3.193 3.196 3.2 3.2 0 0 0 3.193 3.197" clip-rule="evenodd"/><defs><linearGradient id="a" x1="0" x2="6400" y1="6400" y2="0" gradientUnits="userSpaceOnUse"><stop stop-color="#4D27A8"/><stop offset="1" stop-color="#A166FF"/></linearGradient></defs></svg>
