<svg xmlns="http://www.w3.org/2000/svg" width="64" height="64" fill="none" viewBox="0 0 64 64"><path fill="url(#a)" d="M64 0H0v64h64z"/><path fill="#fff" fill-rule="evenodd" d="m12.331 11.2 7.435 7.434-1.131 1.132L11.2 12.33V18.4H9.6v-8a.8.8 0 0 1 .8-.8h8v1.6zm42.07-.8v8h-1.6v-6.069l-7.435 7.435-1.132-1.132L51.67 11.2H45.6V9.6h8a.8.8 0 0 1 .8.8m-1.6 35.2h1.6v8a.8.8 0 0 1-.8.8h-8v-1.6h6.068l-7.434-7.434 1.13-1.132L52.8 51.67zm-.4-14.23c0-2.655-3.067-5.278-8.2-7.016l.512-1.516C50.614 24.836 54 27.946 54 31.37c0 3.426-3.386 6.536-9.288 8.533l-.513-1.516c5.136-1.737 8.201-4.36 8.201-7.017m-40.756 0c0 2.544 2.87 5.098 7.677 6.832l-.543 1.505c-5.55-2.002-8.734-5.04-8.734-8.337 0-3.295 3.183-6.333 8.734-8.336l.543 1.504c-4.807 1.736-7.677 4.29-7.677 6.832m8.12 13.996L12.332 52.8h6.07v1.6h-8a.8.8 0 0 1-.8-.8v-8h1.6v6.069l7.433-7.435zM32 25.029c-5.717 0-8.8-1.477-8.8-2.08 0-.604 3.083-2.08 8.8-2.08 5.716 0 8.8 1.476 8.8 2.08 0 .603-3.084 2.08-8.8 2.08m.023 6.196c-5.473 0-8.823-1.495-8.823-2.309v-3.889c1.97 1.087 5.466 1.602 8.8 1.602s6.83-.515 8.8-1.602v3.889c0 .814-3.332 2.309-8.777 2.309m0 6.109c-5.473 0-8.823-1.496-8.823-2.31V31.09c1.945 1.143 5.394 1.735 8.823 1.735 3.41 0 6.84-.591 8.777-1.731v3.93c0 .815-3.332 2.31-8.777 2.31M32 42.814c-5.693 0-8.8-1.53-8.8-2.316v-3.3c1.945 1.144 5.394 1.736 8.823 1.736 3.41 0 6.84-.59 8.777-1.732v3.296c0 .786-3.106 2.316-8.8 2.316m0-23.545c-5.009 0-10.4 1.151-10.4 3.68v17.549c0 2.57 5.232 3.916 10.4 3.916s10.4-1.345 10.4-3.916v-17.55c0-2.528-5.391-3.68-10.4-3.68" clip-rule="evenodd"/><defs><linearGradient id="a" x1="0" x2="6400" y1="6400" y2="0" gradientUnits="userSpaceOnUse"><stop stop-color="#2E27AD"/><stop offset="1" stop-color="#527FFF"/></linearGradient></defs></svg>
