<svg xmlns="http://www.w3.org/2000/svg" width="64" height="64" fill="none" viewBox="0 0 64 64"><path fill="url(#a)" d="M64 0H0v64h64z"/><path fill="#fff" fill-rule="evenodd" d="M36.075 14.438h-2.407v-1.614h2.407v-2.422h1.604v2.422h2.407v1.614h-2.407v2.422h-1.604zm9.625 8.88h-2.406v-1.615h2.407v-2.422h1.604v2.422h2.406v1.614h-2.406v2.422H45.7zm-4.177 25.51c-1.532-3.892-5.068-7.45-8.938-8.992 3.87-1.542 7.406-5.1 8.938-8.994 1.532 3.894 5.068 7.452 8.937 8.994-3.87 1.542-7.405 5.1-8.937 8.993m12.877-9.8c-5.642 0-12.075-6.473-12.075-12.15a.804.804 0 0 0-.802-.808.804.804 0 0 0-.802.807c0 5.678-6.433 12.151-12.076 12.151a.805.805 0 0 0-.802.808c0 .446.36.807.802.807 5.643 0 12.076 6.473 12.076 12.152 0 .445.358.807.802.807a.804.804 0 0 0 .802-.807c0-5.68 6.432-12.152 12.075-12.152.443 0 .802-.361.802-.807a.805.805 0 0 0-.802-.808M10.406 23.125c2.336 1.71 6.874 2.614 11.23 2.614s8.894-.905 11.23-2.614v7.731c-1.156 1.547-5.406 3.07-11.07 3.07-6.518 0-11.39-2.05-11.39-3.883zm11.23-6.265c6.958 0 11.23 2.115 11.23 3.632s-4.272 3.633-11.23 3.633-11.23-2.116-11.23-3.633 4.272-3.632 11.23-3.632m11.23 30.296c0 1.86-4.804 3.942-11.234 3.942-6.425 0-11.226-2.082-11.226-3.942v-5.159c2.365 1.805 6.994 2.761 11.436 2.761 3.09 0 6.077-.44 8.408-1.237l-.515-1.529c-2.17.742-4.974 1.152-7.893 1.152-6.545 0-11.436-2.05-11.436-3.884v-6.475c2.358 1.802 6.968 2.756 11.39 2.756 4.74 0 8.804-.982 11.07-2.538v2.423h1.605V20.492c0-3.408-6.613-5.247-12.835-5.247-5.969 0-12.28 1.697-12.784 4.844h-.05v27.067c0 3.608 6.61 5.556 12.83 5.556 6.224 0 12.839-1.948 12.839-5.556v-2.85h-1.605z" clip-rule="evenodd"/><defs><linearGradient id="a" x1="0" x2="6400" y1="6400" y2="0" gradientUnits="userSpaceOnUse"><stop stop-color="#2E27AD"/><stop offset="1" stop-color="#527FFF"/></linearGradient></defs></svg>
