<svg xmlns="http://www.w3.org/2000/svg" width="64" height="64" fill="none" viewBox="0 0 64 64"><path fill="url(#a)" d="M64 0H0v64h64z"/><path fill="#fff" fill-rule="evenodd" d="M33.396 32.924c.774.875 1.804 2.218 1.804 3.774 0 3.12-2.513 5.66-5.6 5.66h-6.4c-3.087 0-5.6-2.54-5.6-5.66s2.513-5.66 5.6-5.66h3.2v1.617h-3.2c-2.206 0-4 1.814-4 4.043s1.794 4.042 4 4.042h6.4c2.206 0 4-1.813 4-4.042 0-1.002-.797-2.019-1.396-2.695zM44.8 35.081c0 3.12-2.513 5.66-5.6 5.66H36v-1.618h3.2c2.206 0 4-1.813 4-4.042s-1.794-4.043-4-4.043h-6.4c-2.205 0-4 1.814-4 4.043 0 .72.37 1.457.692 2.02l-1.384.81c-.423-.737-.908-1.726-.908-2.83 0-3.12 2.513-5.66 5.6-5.66h6.4c3.087 0 5.6 2.54 5.6 5.66m1.024 9.702H18.177c-3.768-.003-6.762-2.714-6.963-6.303a10 10 0 0 1-.014-.504c0-4.623 3.29-6.164 5.284-6.674a.81.81 0 0 0 .643-.917c-.048-.402-.072-.81-.072-1.21 0-3.714 2.631-7.713 5.992-9.103 4.048-1.673 8.335-.84 11.47 2.232 1.22 1.197 2.173 2.725 2.831 4.543.1.278.343.478.631.523a.8.8 0 0 0 .757-.309c.983-1.3 2.573-1.847 4.059-1.388 1.727.533 2.846 2.308 2.99 4.746a.81.81 0 0 0 .64.745c2.909.592 6.375 2.265 6.375 6.877 0 5.866-4.37 6.742-6.976 6.742m1.503-15.074c-.339-2.828-1.83-4.893-4.065-5.582-1.714-.528-3.519-.136-4.886.997-.703-1.546-1.624-2.881-2.745-3.98-3.605-3.534-8.536-4.494-13.19-2.568-3.983 1.648-6.986 6.204-6.986 10.598q0 .368.024.738c-2.177.705-5.879 2.692-5.879 8.064q0 .3.016.593c.25 4.46 3.93 7.827 8.56 7.831h27.648c2.012 0 8.576-.602 8.576-8.36 0-4.272-2.505-7.212-7.073-8.33" clip-rule="evenodd"/><defs><linearGradient id="a" x1="0" x2="6400" y1="6400" y2="0" gradientUnits="userSpaceOnUse"><stop stop-color="#4D27A8"/><stop offset="1" stop-color="#A166FF"/></linearGradient></defs></svg>
