<svg xmlns="http://www.w3.org/2000/svg" width="64" height="64" fill="none" viewBox="0 0 64 64"><path fill="#173361" fill-rule="evenodd" d="M45.842 33.786c1.637-.149 3.274-.149 4.912-.298v-1.19c-1.638-.15-3.275-.15-4.912-.298l-4.912-.149c-2.828-.149-5.804-.149-8.632-.149 0-2.828 0-5.804-.15-8.632L32 18.158c-.149-1.637-.149-3.274-.298-4.912h-1.34c-.148 1.638-.148 3.275-.297 4.912l-.149 4.912v4.018c-.595-1.19-1.041-2.53-1.637-3.72l-2.084-4.466c-.744-1.488-1.34-2.976-2.083-4.465l-1.191.447c.595 1.637 1.042 3.125 1.637 4.614l1.786 4.614c.447 1.34 1.042 2.53 1.489 3.87-1.042-.894-1.935-1.935-2.977-2.828l-3.572-3.424c-1.19-1.042-2.382-2.232-3.721-3.274l-1.042 1.042c1.042 1.19 2.232 2.381 3.274 3.72l3.424 3.573c.893 1.042 1.935 1.935 2.828 2.976-1.191-.446-2.53-1.041-3.87-1.488l-4.614-1.786c-1.488-.595-3.126-1.19-4.614-1.637l-.595 1.34c1.488.743 2.976 1.339 4.465 2.083l4.465 2.084c1.19.595 2.53 1.042 3.72 1.637h-4.018l-4.911.149c-1.638.149-3.275.149-4.912.297v1.34c1.637.149 3.274.149 4.912.298l4.911.149c2.977.148 5.805.148 8.633.148 0 2.828 0 5.805.148 8.633l.15 4.912c.148 1.637.148 3.274.297 4.911h1.19c.15-1.637.15-3.274.298-4.911l.15-4.912c0-1.34 0-2.828.148-4.168.595 1.34 1.042 2.53 1.637 3.87l2.084 4.465c.744 1.489 1.34 2.977 2.084 4.466l1.19-.447c-.446-1.637-1.041-3.126-1.637-4.614l-1.488-4.912c-.447-1.34-1.042-2.53-1.489-3.87 1.042 1.042 1.935 1.935 2.977 2.829l3.572 3.423c1.191 1.042 2.382 2.232 3.721 3.274l.893-.893c-1.042-1.19-2.232-2.381-3.274-3.72l-3.423-3.573c-.894-1.042-1.935-2.084-2.828-2.977 1.34.447 2.53 1.042 3.87 1.489l4.613 1.786c1.489.595 3.126 1.19 4.614 1.637l.447-1.19c-1.489-.745-2.977-1.489-4.465-2.084l-4.465-2.084c-1.34-.595-2.53-1.19-3.87-1.637 1.34 0 2.828 0 4.167-.15z" clip-rule="evenodd"/><path fill="#173361" fill-rule="evenodd" d="M32 64C14.288 64 0 49.712 0 32S14.288 0 32 0s32 14.288 32 32-14.288 32-32 32m0-61.023C16.074 2.977 2.977 16.074 2.977 32S16.074 61.023 32 61.023 61.023 47.926 61.023 32 47.926 2.977 32 2.977" clip-rule="evenodd"/></svg>
