<svg xmlns="http://www.w3.org/2000/svg" width="64" height="65" fill="none" viewBox="0 0 64 65"><path fill="#FF6492" d="M59.733 16.529 32.033.462v11.113l27.7 16z"/><path fill="#141446" d="m59.733 27.642-8.296 4.887-19.47-11.314-11.107 6.427-8.297-4.486 19.404-11.514c0-.067 27.766 16 27.766 16"/><path fill="#A14474" d="m20.927 27.642-8.297-4.486v9.373c-.067-.068 8.297-4.888 8.297-4.888"/><path fill="#141446" d="m4.267 48.395 27.7-15.934 27.7 15.934-27.7 16.066z"/><path fill="#FF6492" d="M59.733 37.349 31.967 21.08v11.448l27.7 15.933V37.349z"/><path fill="#7A77FF" d="M12.563 32.462v-9.373l19.404-11.514V.462l-27.7 16.067v31.866l27.7-15.934v-11.38z"/></svg>
