<svg xmlns="http://www.w3.org/2000/svg" width="64" height="64" fill="none" viewBox="0 0 64 64"><path fill="#632CA6" fill-rule="evenodd" d="m52.02 45.433-5.315-3.51-4.434 7.415-5.158-1.51-4.54 6.939.232 2.184 24.69-4.554-1.434-15.443zm-23.025-6.658 3.961-.545c.641.288 1.088.398 1.856.594 1.197.312 2.583.611 4.635-.424.477-.237 1.472-1.147 1.874-1.666l16.23-2.948 1.656 20.06-27.805 5.016zm30.15-7.228-1.603.305L54.464.02 2.02 6.108l6.461 52.484 6.139-.892c-.49-.7-1.254-1.548-2.557-2.633-1.808-1.504-1.169-4.057-.103-5.67 1.411-2.725 8.681-6.187 8.27-10.543-.148-1.583-.4-3.645-1.868-5.057a5 5 0 0 0 .044 1.15s-.603-.77-.904-1.82c-.298-.402-.532-.53-.85-1.068-.226.622-.196 1.343-.196 1.343s-.493-1.166-.573-2.15c-.292.44-.366 1.277-.366 1.277s-.641-1.839-.495-2.83c-.293-.861-1.16-2.572-.914-6.46 1.6 1.123 5.124.857 6.497-1.169.456-.67.767-2.502-.228-6.11-.64-2.314-2.223-5.76-2.84-7.067l-.074.053c.326 1.053.996 3.261 1.254 4.331.779 3.247.988 4.377.622 5.874-.31 1.301-1.057 2.153-2.949 3.104-1.891.955-4.401-1.368-4.56-1.496-1.838-1.466-3.26-3.857-3.418-5.018-.165-1.272.732-2.035 1.184-3.075-.647.186-1.368.514-1.368.514s.86-.892 1.922-1.663c.44-.291.698-.477 1.161-.862-.67-.011-1.215.008-1.215.008s1.118-.605 2.278-1.046c-.849-.037-1.66-.006-1.66-.006s2.496-1.117 4.467-1.937c1.356-.557 2.68-.392 3.424.685.977 1.41 2.003 2.177 4.177 2.652 1.335-.592 1.74-.897 3.418-1.354 1.477-1.625 2.636-1.836 2.636-1.836s-.575.528-.729 1.358a19 19 0 0 1 1.755-1.212s-.355.44-.686 1.137l.077.115c.976-.587 2.125-1.05 2.125-1.05s-.329.416-.714.954c.737-.006 2.23.031 2.81.097 3.423.075 4.133-3.66 5.447-4.127 1.644-.588 2.379-.944 5.182 1.812 2.404 2.365 4.283 6.6 3.35 7.548-.781.787-2.325-.307-4.035-2.441a9.24 9.24 0 0 1-1.907-4.163c-.27-1.433-1.321-2.264-1.321-2.264s.61 1.358.61 2.557c0 .655.082 3.104 1.131 4.479-.103.2-.152.994-.267 1.146-1.22-1.477-3.842-2.534-4.27-2.845 1.448 1.186 4.773 3.913 6.05 6.525 1.209 2.471.497 4.736 1.108 5.322.174.168 2.598 3.192 3.064 4.711.813 2.648.049 5.43-1.016 7.156l-2.974.464c-.434-.12-.728-.181-1.118-.408.215-.38.642-1.33.647-1.526l-.168-.295c-.925 1.312-2.476 2.586-3.764 3.318-1.685.956-3.628.81-4.893.417-3.59-1.108-6.984-3.537-7.802-4.175 0 0-.026.51.129.624.905 1.022 2.978 2.87 4.983 4.159l-4.273.47 2.02 15.744c-.895.129-1.035.191-2.015.331-.864-3.056-2.517-5.05-4.324-6.213-1.593-1.025-3.79-1.255-5.893-.839l-.136.157c1.463-.152 3.19.06 4.963 1.184 1.74 1.102 3.144 3.947 3.66 5.66.661 2.19 1.119 4.533-.661 7.016-1.266 1.765-4.963 2.74-7.949.63.798 1.284 1.876 2.335 3.327 2.532 2.155.293 4.2-.08 5.608-1.528 1.202-1.237 1.84-3.823 1.672-6.547l1.902-.277.686 4.89 31.486-3.795zM39.987 18.269c-.088.2-.226.332-.018.986l.012.037.033.085.087.195c.373.765.784 1.487 1.47 1.855q.265-.045.551-.06c.644-.028 1.05.074 1.309.213.023-.128.028-.317.014-.594-.05-.969.192-2.616-1.668-3.483-.703-.327-1.687-.226-2.016.181a1 1 0 0 1 .155.034c.497.174.16.346.071.551m5.214 9.04c-.244-.135-1.384-.082-2.186.013-1.526.18-3.175.71-3.536.993-.656.508-.358 1.394.127 1.758 1.36 1.017 2.553 1.699 3.811 1.533.773-.102 1.455-1.327 1.937-2.438.33-.765.33-1.592-.153-1.86m-13.516-7.84c.43-.41-2.145-.948-4.143.416-1.473 1.006-1.52 3.164-.11 4.386.142.121.258.207.367.277a12.7 12.7 0 0 1 3.717-1.097c.298-.334.645-.922.558-1.986-.118-1.444-1.21-1.214-.39-1.996" clip-rule="evenodd"/></svg>
