<svg xmlns="http://www.w3.org/2000/svg" width="64" height="65" fill="none" viewBox="0 0 64 65"><path fill="#FCFBFB" d="M32.66 63.718c-7.219-1.821-13.643-8.528-19.907-20.742C3.816 25.536 2.672 9.636 9.995 4.828c2.51-1.565 6.17-1.507 9.414.142 1.8.916 2.312 1.494 3.339 3.75 1.262 2.78 1.755 5.963 1.968 12.695l.197 6.187 1.011-2.337c.557-1.285 1.68-3.494 2.496-4.937.818-1.426 1.489-2.984 1.489-3.462 0-.474-.356-1.715-.795-2.763-.814-1.95-.945-3.007-.598-4.777.198-1 .2-1.003 2.305-1.003l2.106-.001L34.24 6.61c1.482-1.937 4.357-4.296 6.837-5.578C42.515.282 43.13.16 45.466.16c2.41 0 2.887.102 4.261.91.846.5 1.47.978 1.387 1.061-.083.084-.976-.091-1.99-.388-2.526-.74-5.057-.474-7.633.802C35.385 5.57 29.184 16.97 31.6 20.69c.327.506 1.125.958 2.276 1.295 1.87.548 2.774.404 1.212-.195-3.275-1.254-2.598-4.232 2.194-9.65l2.732-3.087-.18-1.766c-.165-1.6-.114-1.805.533-2.154.89-.481 2.344-.21 3.403.638 1.005.798 4.134.871 6.774.163.96-.26 2.64-.475 3.72-.478 1.852-.004 1.995.05 2.182.798.11.44.119 1.013.02 1.273s.12 1.154.486 1.99c.824 1.88 1.133 6.316.608 8.753-.203.955-.935 2.91-1.628 4.36-1.733 3.59-1.8 4.135-.805 6.507C56.836 33.208 58.083 41 57.761 45.52c-.095 1.33-.553 4.295-1.02 6.572-.891 4.391-.821 5.93.318 6.892.26.219.477.859.477 1.423 0 1.193-.89 2.151-2.513 2.696-1.52.513-4.802.456-6.392-.115-1.898-.677-3.466-.6-4.77.231-.98.625-1.606.718-5.247.789-2.808.053-4.739-.072-6.01-.391zm-4.834-11.285C25 44.066 25.877 34.673 30.4 24.896l1.361-2.937-1.456-1.276-1.275 2.777c-5.184 11.284-5.98 21.222-2.265 28.627.983 1.962 1.873 3.494 2.039 3.494.044 0-.395-1.407-.973-3.125zm24.328-28.05.668-1.683-.145 1.4c-.082.799-.025 1.283.133 1.123.26-.262 1.898-4.392 1.898-4.809 0-.1-.432.187-.963.635-.983.833-2.748 1.478-4.071 1.48-.668.003-.712.106-.528 1.206.362 2.17.458 2.325 1.418 2.325.802 0 .992-.202 1.58-1.683z"/><path fill="#FBFBFB" d="M32.66 63.718c-7.219-1.821-13.643-8.528-19.907-20.742-6.838-13.368-9.191-25.742-6.36-33.34 2.035-5.482 7.473-7.373 13.038-4.552 1.8.917 2.312 1.494 3.339 3.75 1.262 2.78 1.755 5.964 1.968 12.696l.197 6.187 1.011-2.337c.557-1.286 1.68-3.494 2.497-4.937.817-1.427 1.488-2.985 1.488-3.462 0-.475-.356-1.715-.795-2.764-.814-1.949-.944-3.007-.598-4.776.198-1 .2-1.004 2.306-1.004h2.105l1.313-1.713c1.482-1.936 4.357-4.296 6.838-5.578 1.437-.75 2.05-.872 4.388-.872 2.41 0 2.888.102 4.262.91.846.5 1.469.978 1.386 1.062-.083.083-.976-.092-1.99-.388-2.526-.74-5.057-.475-7.633.801-6.106 3.027-12.307 14.426-9.89 18.145.327.507 1.126.959 2.277 1.295 1.87.548 2.773.404 1.211-.195-3.275-1.253-2.598-4.231 2.195-9.65l2.732-3.086-.181-1.767c-.164-1.6-.114-1.805.534-2.154.89-.48 2.343-.21 3.403.638 1.004.798 4.134.872 6.773.163.96-.26 2.64-.474 3.72-.478 1.852-.003 1.995.05 2.182.799.11.439.12 1.013.02 1.272s.12 1.154.487 1.991c.823 1.879 1.132 6.316.607 8.752-.203.955-.935 2.91-1.628 4.36-1.733 3.59-1.8 4.135-.805 6.508 1.708 4.07 2.955 11.86 2.633 16.381-.095 1.33-.553 4.296-1.02 6.572-.89 4.392-.82 5.93.318 6.892.261.22.477.86.477 1.424 0 1.192-.89 2.15-2.513 2.696-1.52.513-4.802.455-6.392-.116-1.898-.676-3.466-.6-4.77.232-.98.625-1.606.718-5.247.788-2.808.054-4.738-.071-6.01-.39zm-4.834-11.285C25 44.066 25.877 34.673 30.4 24.896l1.361-2.937-1.456-1.276-1.275 2.777c-5.184 11.284-5.98 21.222-2.265 28.627.983 1.962 1.873 3.494 2.039 3.494.044 0-.395-1.407-.973-3.125zm24.328-28.05.668-1.683-.145 1.4c-.082.799-.025 1.283.133 1.123.26-.262 1.898-4.392 1.898-4.809 0-.1-.432.187-.963.635-.983.833-2.748 1.478-4.071 1.48-.668.003-.712.106-.528 1.206.362 2.17.458 2.325 1.418 2.325.802 0 .992-.202 1.58-1.684z"/><path fill="#A08470" d="M32.66 63.718c-3.943-.997-8.618-4.2-11.957-8.207-5.597-6.7-11.576-18.658-14.056-28.019-.89-3.398-1.03-4.488-1.164-9.2-.134-4.777-.079-5.578.512-7.566.801-2.664 1.689-4.039 3.466-5.417 2.573-1.978 6.392-2.084 9.954-.276 1.8.917 2.312 1.494 3.34 3.75 1.262 2.78 1.755 5.964 1.968 12.696l.196 6.187 1.011-2.337c.557-1.286 1.68-3.494 2.497-4.937.817-1.427 1.488-2.985 1.488-3.462 0-.475-.356-1.715-.795-2.764-.814-1.949-.944-3.007-.598-4.776.199-1 .2-1.004 2.306-1.004h2.105l1.313-1.713c1.482-1.936 4.357-4.295 6.838-5.578 1.437-.75 2.051-.872 4.388-.872 2.41 0 2.888.103 4.262.91.846.5 1.469.978 1.386 1.062-.082.083-.976-.092-1.99-.388-2.526-.74-5.057-.475-7.633.801-6.106 3.027-12.307 14.426-9.89 18.145.328.506 1.126.959 2.277 1.295 1.87.548 2.773.404 1.212-.195-3.276-1.253-2.599-4.231 2.194-9.65l2.732-3.086-.181-1.767c-.164-1.6-.114-1.805.534-2.154.89-.48 2.344-.21 3.403.638 1.005.798 4.134.872 6.773.163.96-.26 2.64-.474 3.721-.478 1.85-.003 1.994.05 2.182.799.11.439.118 1.013.02 1.272-.1.26.12 1.155.486 1.991.824 1.879 1.132 6.316.607 8.752-.203.955-.935 2.91-1.628 4.36-1.733 3.59-1.8 4.135-.804 6.508 1.707 4.07 2.954 11.861 2.633 16.381-.095 1.33-.554 4.296-1.021 6.572-.89 4.392-.82 5.93.318 6.892.261.22.477.86.477 1.424 0 1.192-.89 2.15-2.512 2.696-1.52.513-4.802.455-6.392-.116-1.899-.676-3.467-.6-4.77.232-.98.625-1.607.718-5.248.788-2.808.054-4.738-.071-6.01-.39zm-4.834-11.285C25 44.066 25.877 34.673 30.4 24.896l1.361-2.937-1.456-1.276-1.275 2.777c-5.184 11.284-5.98 21.222-2.265 28.627.983 1.962 1.873 3.494 2.039 3.494.044 0-.395-1.407-.973-3.125zm24.328-28.05.668-1.683-.145 1.4c-.082.799-.025 1.283.133 1.123.26-.262 1.898-4.392 1.898-4.809 0-.1-.432.187-.963.635-.983.833-2.748 1.478-4.071 1.48-.668.003-.712.106-.528 1.206.363 2.17.458 2.325 1.418 2.325.802 0 .993-.202 1.58-1.683z"/><path fill="#45352F" d="M32.66 63.718c-7.123-1.969-13.642-9.009-19.78-21.319-5.184-10.386-7.378-18.657-7.028-26.255.288-6.22 2.029-9.65 5.692-11.252 2.054-.891 4.993-.773 7.41.298 2.808 1.238 3.816 2.668 4.993 7.021.547 2.042.683 3.75.817 10.002l.161 7.534.547-1.603c.601-1.757 2.83-6.348 3.975-8.143 1.072-1.712 1.161-3.398.279-5.321-.47-1.02-.741-2.206-.741-3.27-.005-2.578.079-2.668 2.496-2.69l2.112-.018 1.196-1.584c1.469-1.943 4.23-4.167 6.742-5.45C43.136.854 43.763.716 45.824.73c1.968.012 2.677.163 3.848.82.788.443 1.145.716.795.603-4.516-1.436-8.491-.368-12.34 3.334-4.77 4.553-8.013 12.31-6.423 15.356q.91 1.78-.41.346l-.624-.676-.62 1.237c-1.386 2.764-3.593 8.816-4.42 12.15-.757 3.052-.875 4.168-.871 8.175.005 4.167.093 4.905.855 7.213 1.02 3.09 3.594 7.47 4.866 8.239.181.111-.02-1.122-.446-2.741-.922-3.494-1.132-9.49-.403-11.573l.435-1.244.98 1.725c1.676 2.956 6.519 7.309 8.745 7.886 1.66.42 1.622-1.766-.117-6.476-1.501-4.071-1.8-5.61-1.813-9.457-.012-3.815.461-5.546 2.62-9.489 1.476-2.709 1.581-3.879.64-6.892-.347-1.119-.633-2.219-.636-2.443-.003-.226.747.155 1.666.846 2.347 1.77 5.438 3.27 7.187 3.463 1.298.154 1.628.065 2.5-.674 1.084-.92 2.312-3.75 2.312-5.321 0-.523.136-.95.303-.95.414 0 .744 1.95.598 3.495l-.121 1.28.88-.853c.487-.468 1.171-1.584 1.527-2.475l.643-1.622-.105 2.734c-.096 2.475-.248 3.04-1.597 5.963-.913 1.968-1.491 3.654-1.491 4.36 0 .638.429 2.24.954 3.558 2.235 5.642 2.83 14.33 1.43 20.87-1.058 4.937-1.045 6.572.052 7.886.694.83.795 1.164.557 1.834-.442 1.253-1.708 2.01-4.039 2.41-1.911.33-2.334.297-4.293-.34-2.764-.897-3.403-.884-5.216.096-1.386.744-1.793.799-5.724.773-2.48-.017-4.865-.208-5.788-.462zM51.614 26.21c.274-.22.665-.69.871-1.042.353-.609.363-.606.177.08-.292 1.078.388.879.986-.292.735-1.433 1.756-4.52 1.562-4.713-.09-.09-.557.213-1.034.673-1.069 1.026-2.3 1.52-3.784 1.52H49.26l.151 1.593c.219 2.296 1.05 3.11 2.214 2.174zm-.534-14.458c-3.212-1.523-3.976-3.655-1.75-4.744 1.454-.715 5.343-1.382 6.456-1.1.763.193.868.372.868 1.507 0 2.205-1.971 5.129-3.466 5.097-.282-.002-1.23-.343-2.105-.76zM40.235 9.87c.376-.583.398-.974.108-2.058-.665-2.484.864-3.036 4.006-1.442l1.785.907-1.68.532c-.922.293-2.264 1.039-2.98 1.657-1.507 1.302-1.888 1.427-1.23.404z"/></svg>
