<svg xmlns="http://www.w3.org/2000/svg" width="65" height="65" fill="none" viewBox="0 0 65 65"><path fill="#FF694A" d="M61.774 3.163c1.501 1.446 2.489 3.358 2.718 5.436 0 .869-.23 1.446-.75 2.544-.522 1.098-6.946 12.207-8.858 15.273-1.098 1.794-1.675 3.935-1.675 6.02 0 2.087.577 4.228 1.675 6.022 1.912 3.065 8.336 14.238 8.857 15.336.522 1.098.751 1.62.751 2.489-.229 2.086-1.154 3.99-2.663 5.38-1.446 1.502-3.358 2.49-5.38 2.663-.87 0-1.446-.229-2.49-.75-1.042-.522-12.38-6.772-15.446-8.684-.23-.118-.466-.292-.75-.403L22.6 45.521c.347 2.892 1.62 5.673 3.705 7.696.403.403.814.75 1.273 1.098-.348.174-.751.348-1.099.577-3.065 1.912-14.238 8.336-15.336 8.857-1.098.522-1.62.751-2.544.751-2.086-.23-3.99-1.154-5.381-2.663C1.717 60.391.729 58.48.5 56.401c.055-.869.292-1.738.75-2.489.522-1.098 6.946-12.27 8.858-15.336a11.5 11.5 0 0 0 1.675-6.02c0-2.142-.577-4.228-1.675-6.021-1.912-3.185-8.391-14.35-8.857-15.447-.467-.751-.696-1.62-.751-2.49a8.8 8.8 0 0 1 2.663-5.435C4.6 1.653 6.505.729 8.59.5c.869.055 1.738.292 2.544.75.925.404 9.087 5.152 13.424 7.696l.988.577q.524.344.869.522l.466.292 15.447 9.142c-.348-3.469-2.141-6.653-4.922-8.794.347-.174.75-.348 1.098-.577C41.57 8.196 52.743 1.717 53.84 1.25c.75-.459 1.62-.696 2.544-.751a8.82 8.82 0 0 1 5.381 2.663zM33.306 36.609l3.295-3.295c.466-.466.466-1.154 0-1.62L33.306 28.4c-.466-.466-1.154-.466-1.62 0l-3.295 3.295c-.466.466-.466 1.154 0 1.62l3.295 3.295c.403.403 1.154.403 1.62 0M61.774 3.163c1.501 1.446 2.489 3.358 2.718 5.436 0 .869-.23 1.446-.75 2.544-.522 1.098-6.946 12.207-8.858 15.273-1.098 1.794-1.675 3.935-1.675 6.02 0 2.087.577 4.228 1.675 6.022 1.912 3.065 8.336 14.238 8.857 15.336.522 1.098.751 1.62.751 2.489-.229 2.086-1.154 3.99-2.663 5.38-1.446 1.502-3.358 2.49-5.38 2.663-.87 0-1.446-.229-2.49-.75-1.042-.522-12.38-6.772-15.446-8.684-.23-.118-.466-.292-.75-.403L22.6 45.521c.347 2.892 1.62 5.673 3.705 7.696.403.403.814.75 1.273 1.098-.348.174-.751.348-1.099.577-3.065 1.912-14.238 8.336-15.336 8.857-1.098.522-1.62.751-2.544.751-2.086-.23-3.99-1.154-5.381-2.663C1.717 60.391.729 58.48.5 56.401c.055-.869.292-1.738.75-2.489.522-1.098 6.946-12.27 8.858-15.336a11.5 11.5 0 0 0 1.675-6.02c0-2.142-.577-4.228-1.675-6.021-1.912-3.185-8.391-14.35-8.857-15.447-.467-.751-.696-1.62-.751-2.49a8.8 8.8 0 0 1 2.663-5.435C4.6 1.653 6.505.729 8.59.5c.869.055 1.738.292 2.544.75.925.404 9.087 5.152 13.424 7.696l.988.577q.524.344.869.522l.466.292 15.447 9.142c-.348-3.469-2.141-6.653-4.922-8.794.347-.174.75-.348 1.098-.577C41.57 8.196 52.743 1.717 53.84 1.25c.75-.459 1.62-.696 2.544-.751a8.82 8.82 0 0 1 5.381 2.663zM33.306 36.609l3.295-3.295c.466-.466.466-1.154 0-1.62L33.306 28.4c-.466-.466-1.154-.466-1.62 0l-3.295 3.295c-.466.466-.466 1.154 0 1.62l3.295 3.295c.403.403 1.154.403 1.62 0"/></svg>
