<svg xmlns="http://www.w3.org/2000/svg" width="64" height="64" fill="none" viewBox="0 0 64 64"><path fill="#00ACD7" d="M4.83 27.254c-.125 0-.156-.062-.094-.156l.654-.841c.063-.094.219-.156.343-.156h11.124c.125 0 .156.094.093.187l-.53.81c-.062.094-.218.187-.31.187zM.125 30.12c-.125 0-.156-.062-.094-.156l.654-.841c.063-.094.219-.156.343-.156h14.209c.124 0 .187.094.155.187l-.249.748c-.031.124-.156.187-.28.187zM7.665 32.986c-.125 0-.156-.094-.093-.187l.436-.779c.062-.093.187-.187.311-.187h6.232c.125 0 .187.094.187.218l-.062.748c0 .124-.125.218-.218.218zM40.008 26.693c-1.963.499-3.303.872-5.235 1.37-.467.125-.498.157-.904-.31-.467-.53-.81-.873-1.464-1.184-1.963-.966-3.864-.686-5.64.467-2.119 1.37-3.209 3.395-3.178 5.919.031 2.492 1.745 4.548 4.207 4.89 2.118.28 3.894-.467 5.296-2.056.281-.342.53-.716.842-1.152h-6.014c-.654 0-.81-.405-.592-.935.405-.965 1.153-2.585 1.59-3.395.093-.187.31-.499.778-.499h11.342c-.062.841-.062 1.683-.187 2.524-.343 2.242-1.184 4.298-2.555 6.105-2.243 2.96-5.172 4.798-8.88 5.296-3.054.405-5.89-.187-8.382-2.056-2.306-1.744-3.614-4.05-3.957-6.916-.405-3.395.592-6.448 2.649-9.127 2.212-2.897 5.14-4.735 8.724-5.39 2.929-.529 5.733-.186 8.257 1.527 1.651 1.09 2.835 2.586 3.614 4.392.187.28.063.437-.311.53"/><path fill="#00ACD7" d="M50.321 43.92c-2.835-.062-5.421-.872-7.602-2.741-1.839-1.59-2.992-3.614-3.366-6.013-.56-3.52.405-6.635 2.524-9.407 2.275-2.991 5.017-4.549 8.725-5.203 3.178-.56 6.17-.249 8.88 1.589 2.462 1.682 3.988 3.956 4.393 6.947.53 4.205-.685 7.632-3.583 10.56-2.056 2.087-4.58 3.396-7.478 3.988-.841.155-1.683.187-2.493.28m7.416-12.585c-.031-.405-.031-.717-.093-1.028-.561-3.084-3.397-4.829-6.357-4.143-2.898.654-4.767 2.492-5.453 5.42-.56 2.43.624 4.89 2.867 5.888 1.714.747 3.428.654 5.079-.187 2.462-1.277 3.801-3.271 3.957-5.95"/></svg>
