<svg xmlns="http://www.w3.org/2000/svg" width="64" height="64" fill="none" viewBox="0 0 64 64"><path fill="url(#a)" d="M60.85 28.178c-.115-1.027-.229-2.281-.686-3.65-.343-1.37-.914-2.852-1.6-4.45-.8-1.483-1.828-3.194-3.085-4.677-.457-.57-1.029-1.255-1.714-1.825.914-3.537-1.143-6.617-1.143-6.617-3.428-.228-5.6 1.027-6.4 1.711-.113 0-.228-.114-.456-.228-.572-.228-1.143-.456-1.828-.684-.686-.229-1.258-.343-1.943-.57-.686-.115-1.257-.229-1.943-.343h-.343C38.224 2.053 33.996 0 33.996 0c-4.8 3.08-5.714 7.301-5.714 7.301v.228c-.228.114-.571.114-.8.229a14 14 0 0 1-1.142.342 8 8 0 0 0-1.143.456c-.686.342-1.485.685-2.171 1.027s-1.371.799-2.057 1.255c-.114 0-.114-.114-.114-.114-6.628-2.51-12.57.57-12.57.57-.571 7.187 2.628 11.636 3.314 12.435-.114.456-.343.913-.457 1.369-.457 1.597-.915 3.194-1.143 4.906v.684C3.829 33.768 2 39.928 2 39.928c5.142 5.933 11.084 6.275 11.084 6.275.8 1.37 1.6 2.624 2.629 3.879.457.456.8 1.027 1.257 1.483-1.829 5.362.228 9.811.228 9.811 5.714.228 9.485-2.51 10.284-3.08.572.228 1.143.342 1.715.57 1.714.457 3.542.685 5.37.799h2.286C39.595 63.544 44.28 64 44.28 64c3.314-3.536 3.543-7.073 3.543-7.872V55.9c.685-.456 1.37-1.027 2.057-1.597 1.37-1.255 2.514-2.624 3.542-4.107.114-.114.229-.228.229-.456 3.77.228 6.513-2.396 6.513-2.396-.686-3.993-2.857-5.932-3.314-6.275h-.114v-4.563c-.114-.456-.114-.912-.229-1.255-.343-1.71-1.028-3.308-1.942-4.791a17.6 17.6 0 0 0-3.2-3.879c-1.257-1.14-2.628-1.94-4.114-2.624s-2.97-1.027-4.456-1.255c-.8-.114-1.486-.114-2.286-.114h-1.142c-.343 0-.8.114-1.143.114a11.2 11.2 0 0 0-4.228 1.597c-1.257.799-2.4 1.712-3.2 2.738-.914 1.027-1.6 2.282-2.057 3.423-.457 1.255-.685 2.51-.8 3.65v1.826c.115.57.23 1.255.343 1.825.343 1.141.915 2.168 1.486 3.08.685.913 1.485 1.597 2.285 2.168.8.57 1.714 1.027 2.629 1.255.914.228 1.714.342 2.628.342h1.485c.114 0 .229 0 .343-.114.229 0 .343-.114.571-.114.343-.114.686-.228 1.029-.456.343-.114.571-.343.914-.57.114 0 .114-.115.229-.229a.603.603 0 0 0 .114-.913c-.229-.228-.572-.342-.8-.114-.114 0-.114.114-.229.114a5.6 5.6 0 0 1-.8.343c-.228.114-.57.114-.8.228h-1.828c-.685-.114-1.257-.228-1.942-.57-.686-.229-1.257-.685-1.829-1.142a5.05 5.05 0 0 1-1.37-1.71c-.344-.685-.686-1.37-.8-2.168-.115-.343-.115-.799-.115-1.141v-.57c0-.229 0-.457.114-.685.343-1.711 1.143-3.308 2.514-4.563.343-.342.686-.57 1.029-.913.342-.228.8-.456 1.142-.684a5.6 5.6 0 0 1 1.257-.457c.457-.114.915-.228 1.372-.228h1.371c.457 0 1.028.114 1.485.228 1.029.228 1.943.57 2.857 1.027 1.828 1.027 3.314 2.51 4.228 4.45.457.912.8 1.939.914 2.965 0 .229.115.57.115.799v1.825c0 .343 0 .57-.115.913 0 .228-.114.57-.114.798s-.114.57-.229.799a6.6 6.6 0 0 1-.57 1.597c-.458 1.027-1.03 2.054-1.715 2.966-1.371 1.826-3.2 3.423-5.37 4.335a16 16 0 0 1-3.315 1.027c-.57.114-1.142.114-1.714.228h-1.485a19 19 0 0 1-3.657-.684 21.5 21.5 0 0 1-3.428-1.37c-2.171-1.14-4.114-2.737-5.6-4.677-.8-.912-1.485-1.939-1.942-3.08-.571-1.026-1.028-2.167-1.257-3.422-.343-1.141-.571-2.396-.571-3.537V32.97c0-.57.114-1.141.114-1.826.114-.57.229-1.254.343-1.825.114-.57.229-1.255.457-1.825.343-1.141.8-2.282 1.257-3.423 1.028-2.167 2.285-4.107 3.885-5.59.343-.342.8-.798 1.257-1.14.457-.343.914-.685 1.371-.913.457-.342.915-.57 1.372-.799l.685-.342c.115 0 .229-.114.343-.114s.229-.114.343-.114c.457-.228 1.028-.342 1.485-.57.115 0 .229-.115.343-.115s.229-.114.343-.114c.229-.114.571-.114.8-.228.114 0 .229-.114.343-.114s.228 0 .343-.114c.114 0 .228 0 .457-.114h.457c.114 0 .228 0 .457-.114.114 0 .343 0 .457-.114h4c1.028 0 2.056.114 2.97.342 1.943.342 3.771 1.027 5.486 1.825 1.714.799 3.2 1.826 4.456 2.852l.229.228.228.229c.114.114.343.228.457.456.114.114.343.228.457.456l.457.457c.572.57 1.029 1.14 1.486 1.71a20.6 20.6 0 0 1 2.285 3.537c0 .115.115.115.115.229s.114.114.114.228c.114.114.114.228.228.456.115.114.115.228.229.456.114.114.114.229.229.343.228.57.457 1.026.57 1.483.23.798.458 1.483.572 2.053a.63.63 0 0 0 .572.342c.228 0 .457-.228.457-.456-.343-.913-.457-1.597-.457-2.51"/><defs><linearGradient id="a" x1="31.653" x2="31.653" y1="78.24" y2="19.883" gradientUnits="userSpaceOnUse"><stop stop-color="#FFF100"/><stop offset="1" stop-color="#F05A28"/></linearGradient></defs></svg>
