<svg xmlns="http://www.w3.org/2000/svg" width="64" height="64" fill="none" viewBox="0 0 64 64"><path fill="#4E7896" d="M23.244 49.48s-2.46 1.496 1.71 1.924c5.02.64 7.694.534 13.25-.534a20 20 0 0 0 3.526 1.71c-12.5 5.344-28.318-.32-18.486-3.1m-1.6-6.946s-2.672 2.03 1.496 2.46c5.45.534 9.724.64 17.1-.854a6.5 6.5 0 0 0 2.564 1.602c-15.068 4.488-31.952.426-21.16-3.208m29.494 12.18s1.816 1.496-2.03 2.672c-7.16 2.14-30.028 2.78-36.44 0-2.244-.96 2.03-2.35 3.4-2.564 1.39-.32 2.14-.32 2.14-.32-2.46-1.71-16.35 3.526-7.052 5.02 25.54 4.168 46.592-1.816 39.966-4.808zM24.4 35.266s-11.648 2.78-4.168 3.74c3.206.428 9.51.32 15.388-.106 4.808-.428 9.62-1.28 9.62-1.28s-1.71.748-2.886 1.496c-11.86 3.1-34.624 1.71-28.104-1.496 5.556-2.672 10.152-2.35 10.152-2.35zm20.84 11.648c11.968-6.2 6.412-12.18 2.564-11.434-.96.214-1.39.428-1.39.428s.32-.64 1.068-.854c7.588-2.672 13.572 8.014-2.46 12.18 0 0 .106-.106.214-.32zM25.58 63.798c11.54.748 29.174-.428 29.6-5.88 0 0-.854 2.14-9.51 3.74-9.832 1.816-22.014 1.6-29.174.428 0 0 1.496 1.282 9.084 1.712"/><path fill="#F58219" d="M37.992.002s6.626 6.732-6.304 16.884c-10.366 8.228-2.35 12.93 0 18.274-6.092-5.45-10.472-10.26-7.48-14.746C28.588 13.786 40.664 10.6 37.992.002m-3.4 30.67c3.1 3.526-.854 6.732-.854 6.732s7.908-4.06 4.274-9.084c-3.312-4.808-5.88-7.16 8.014-15.174 0 0-21.906 5.45-11.434 17.526"/></svg>
