<svg xmlns="http://www.w3.org/2000/svg" width="64" height="64" fill="none" viewBox="0 0 64 64"><path fill="#231F20" d="M43.356 35.418a8.3 8.3 0 0 0-6.251 2.84l-3.917-2.773c.415-1.145.654-2.374.654-3.661 0-1.265-.23-2.474-.633-3.602l3.91-2.743a8.3 8.3 0 0 0 6.237 2.825c4.596 0 8.336-3.74 8.336-8.336 0-4.597-3.74-8.336-8.336-8.336s-8.336 3.74-8.336 8.336a8.3 8.3 0 0 0 .348 2.367l-3.912 2.746a10.76 10.76 0 0 0-6.666-3.874v-4.714c3.776-.793 6.62-4.148 6.62-8.157C31.41 3.739 27.672 0 23.076 0s-8.336 3.74-8.336 8.336c0 3.955 2.771 7.269 6.472 8.118v4.775c-5.05.887-8.903 5.294-8.903 10.595 0 5.326 3.89 9.75 8.977 10.606v5.042c-3.738.822-6.546 4.155-6.546 8.137 0 4.597 3.74 8.337 8.336 8.337s8.336-3.74 8.336-8.336c0-3.983-2.808-7.316-6.547-8.138V42.43a10.76 10.76 0 0 0 6.554-3.812l3.944 2.791a8.3 8.3 0 0 0-.342 2.345c0 4.597 3.74 8.336 8.336 8.336s8.336-3.74 8.336-8.336c0-4.597-3.74-8.336-8.336-8.336m0-19.492a4.046 4.046 0 0 1 4.042 4.042 4.046 4.046 0 0 1-4.042 4.041 4.046 4.046 0 0 1-4.041-4.041 4.046 4.046 0 0 1 4.041-4.042m-24.323-7.59a4.046 4.046 0 0 1 4.042-4.042 4.046 4.046 0 0 1 4.041 4.042 4.046 4.046 0 0 1-4.041 4.041 4.046 4.046 0 0 1-4.042-4.041m8.083 47.274a4.046 4.046 0 0 1-4.041 4.041 4.046 4.046 0 0 1-4.042-4.042 4.046 4.046 0 0 1 4.042-4.041 4.046 4.046 0 0 1 4.041 4.041m-4.041-18.15a5.643 5.643 0 0 1-5.638-5.636 5.643 5.643 0 0 1 5.637-5.638 5.643 5.643 0 0 1 5.638 5.638 5.643 5.643 0 0 1-5.637 5.636m20.281 10.335a4.046 4.046 0 0 1-4.041-4.041 4.046 4.046 0 0 1 4.041-4.042 4.046 4.046 0 0 1 4.042 4.042 4.046 4.046 0 0 1-4.042 4.041"/></svg>
