<svg xmlns="http://www.w3.org/2000/svg" width="64" height="65" fill="none" viewBox="0 0 64 65"><path fill="#34A853" d="M31.89.806c-2.082 0-3.946 1.098-4.932 2.964-.987 1.867-.877 4.062.329 5.709l2.411-2.415c-.11-.22-.11-.44-.11-.769 0-1.317 1.097-2.415 2.412-2.415 1.316 0 2.302 1.098 2.302 2.415 0 1.318-1.096 2.415-2.302 2.415-.22 0-.548 0-.767-.11l-2.412 2.416c1.973 1.317 4.604 1.317 6.467-.22 1.864-1.537 2.631-3.952 1.864-6.257-.767-2.196-2.96-3.733-5.262-3.733"/><path fill="#FBBC04" d="M29.589 17.163c0-1.866-.658-3.732-1.754-5.27l-3.07 3.075c.987 1.756.658 3.952-.876 5.379l1.644 4.171c2.521-1.646 4.056-4.5 4.056-7.355"/><path fill="#EA4335" d="M20.93 21.554a4.52 4.52 0 0 1-4.276-2.964c-.657-1.756 0-3.732 1.425-4.94 1.425-1.207 3.617-1.207 5.152-.22l3.179-3.073c-2.96-2.415-7.235-2.635-10.413-.44-3.18 2.197-4.604 6.148-3.508 9.771s4.494 6.148 8.33 6.148c.549 0 1.206 0 1.754-.22z"/><path fill="#4285F4" d="M32 25.067c-1.973 0-3.837.33-5.7.878l2.412 6.038c1.096-.22 2.192-.439 3.288-.439 6.358 0 11.838 4.5 13.154 10.758 1.205 6.258-2.083 12.515-8.002 14.93s-12.715.439-16.333-4.83-2.85-12.405 1.645-16.906c.986-.988 1.973-1.756 3.178-2.305l-2.411-6.038c-8.988 4.391-13.263 14.93-9.975 24.48s13.373 14.93 23.129 12.625C46.25 61.952 52.717 52.73 51.62 42.632S42.084 25.067 32 25.067"/></svg>
