<svg xmlns="http://www.w3.org/2000/svg" width="64" height="64" fill="none" viewBox="0 0 64 64"><path fill="#509EE3" d="M10.897 20.235a3.89 3.89 0 0 0 3.896-3.882 3.89 3.89 0 0 0-3.896-3.882A3.89 3.89 0 0 0 7 16.353a3.89 3.89 0 0 0 3.897 3.882M10.897 31.177a3.89 3.89 0 0 0 3.896-3.883 3.89 3.89 0 0 0-3.896-3.882A3.89 3.89 0 0 0 7 27.294a3.89 3.89 0 0 0 3.897 3.883"/><path fill="#509EE3" d="M21.642 20.235a3.89 3.89 0 0 0 3.896-3.882 3.89 3.89 0 0 0-3.896-3.882 3.89 3.89 0 0 0-3.897 3.882 3.89 3.89 0 0 0 3.897 3.882" opacity=".2"/><path fill="#509EE3" d="M21.642 31.294a3.89 3.89 0 0 0 3.896-3.882 3.89 3.89 0 0 0-3.896-3.883 3.89 3.89 0 0 0-3.897 3.883 3.89 3.89 0 0 0 3.897 3.882"/><path fill="#509EE3" d="M32.387 20.235a3.89 3.89 0 0 0 3.896-3.882 3.89 3.89 0 0 0-3.896-3.882 3.89 3.89 0 0 0-3.897 3.882 3.89 3.89 0 0 0 3.897 3.882M32.387 7.765a3.89 3.89 0 0 0 3.896-3.883A3.89 3.89 0 0 0 32.387 0a3.89 3.89 0 0 0-3.897 3.882 3.89 3.89 0 0 0 3.897 3.883M32.387 31.294a3.89 3.89 0 0 0 3.896-3.882 3.89 3.89 0 0 0-3.896-3.883 3.89 3.89 0 0 0-3.897 3.883 3.89 3.89 0 0 0 3.897 3.882M43.132 20.235a3.89 3.89 0 0 0 3.897-3.882 3.89 3.89 0 0 0-3.897-3.882 3.89 3.89 0 0 0-3.897 3.882 3.89 3.89 0 0 0 3.897 3.882" opacity=".2"/><path fill="#509EE3" d="M53.877 20.235a3.89 3.89 0 0 0 3.896-3.882 3.89 3.89 0 0 0-3.896-3.882 3.89 3.89 0 0 0-3.897 3.882 3.89 3.89 0 0 0 3.897 3.882M43.132 31.294a3.89 3.89 0 0 0 3.897-3.882 3.89 3.89 0 0 0-3.897-3.883 3.89 3.89 0 0 0-3.897 3.883 3.89 3.89 0 0 0 3.897 3.882M53.877 31.294a3.89 3.89 0 0 0 3.896-3.882 3.89 3.89 0 0 0-3.896-3.883 3.89 3.89 0 0 0-3.897 3.883 3.89 3.89 0 0 0 3.897 3.882M10.897 42a3.89 3.89 0 0 0 3.896-3.882 3.89 3.89 0 0 0-3.896-3.883A3.89 3.89 0 0 0 7 38.118 3.89 3.89 0 0 0 10.897 42"/><path fill="#509EE3" d="M21.642 42.118a3.89 3.89 0 0 0 3.896-3.883 3.89 3.89 0 0 0-3.896-3.882 3.89 3.89 0 0 0-3.897 3.882 3.89 3.89 0 0 0 3.897 3.883" opacity=".2"/><path fill="#509EE3" d="M32.387 42.118a3.89 3.89 0 0 0 3.896-3.883 3.89 3.89 0 0 0-3.896-3.882 3.89 3.89 0 0 0-3.897 3.882 3.89 3.89 0 0 0 3.897 3.883"/><path fill="#509EE3" d="M43.132 42.118a3.89 3.89 0 0 0 3.897-3.883 3.89 3.89 0 0 0-3.897-3.882 3.89 3.89 0 0 0-3.897 3.882 3.89 3.89 0 0 0 3.897 3.883" opacity=".2"/><path fill="#509EE3" d="M53.877 42.118a3.89 3.89 0 0 0 3.896-3.883 3.89 3.89 0 0 0-3.896-3.882 3.89 3.89 0 0 0-3.897 3.882 3.89 3.89 0 0 0 3.897 3.883M10.897 52.941a3.89 3.89 0 0 0 3.896-3.882 3.89 3.89 0 0 0-3.896-3.883A3.89 3.89 0 0 0 7 49.06a3.89 3.89 0 0 0 3.897 3.882"/><path fill="#509EE3" d="M21.642 53.059a3.89 3.89 0 0 0 3.896-3.883 3.89 3.89 0 0 0-3.896-3.882 3.89 3.89 0 0 0-3.897 3.883 3.89 3.89 0 0 0 3.897 3.882M32.387 53.059a3.89 3.89 0 0 0 3.896-3.883 3.89 3.89 0 0 0-3.896-3.882 3.89 3.89 0 0 0-3.897 3.883 3.89 3.89 0 0 0 3.897 3.882M32.387 64a3.89 3.89 0 0 0 3.896-3.882 3.89 3.89 0 0 0-3.896-3.883 3.89 3.89 0 0 0-3.897 3.883A3.89 3.89 0 0 0 32.387 64M43.132 53.059a3.89 3.89 0 0 0 3.897-3.883 3.89 3.89 0 0 0-3.897-3.882 3.89 3.89 0 0 0-3.897 3.883 3.89 3.89 0 0 0 3.897 3.882" opacity=".2"/><path fill="#509EE3" d="M53.877 53.059a3.89 3.89 0 0 0 3.896-3.883 3.89 3.89 0 0 0-3.896-3.882 3.89 3.89 0 0 0-3.897 3.883 3.89 3.89 0 0 0 3.897 3.882"/></svg>
