<svg xmlns="http://www.w3.org/2000/svg" width="300" height="300" fill="none" viewBox="0 0 300 300"><path fill="#00E0D9" fill-rule="evenodd" d="M0 51.724C0 23.158 23.158 0 51.724 0h196.552C276.842 0 300 23.158 300 51.724v167.167c0 29.554-37.398 42.38-55.536 19.047l-56.705-72.944v88.454c0 25.71-20.842 46.552-46.552 46.552H51.724C23.158 300 0 276.842 0 248.276zM51.724 41.38c-5.713 0-10.345 4.632-10.345 10.345v196.552c0 5.713 4.632 10.345 10.345 10.345h91.035c2.856 0 3.62-2.316 3.62-5.173V134.831c0-29.554 37.398-42.38 55.537-19.047l56.705 72.944V51.724c0-5.713.541-10.345-5.173-10.345z" clip-rule="evenodd"/><path fill="url(#a)" fill-rule="evenodd" d="M0 51.724C0 23.158 23.158 0 51.724 0h196.552C276.842 0 300 23.158 300 51.724v167.167c0 29.554-37.398 42.38-55.536 19.047l-56.705-72.944v88.454c0 25.71-20.842 46.552-46.552 46.552H51.724C23.158 300 0 276.842 0 248.276zM51.724 41.38c-5.713 0-10.345 4.632-10.345 10.345v196.552c0 5.713 4.632 10.345 10.345 10.345h91.035c2.856 0 3.62-2.316 3.62-5.173V134.831c0-29.554 37.398-42.38 55.537-19.047l56.705 72.944V51.724c0-5.713.541-10.345-5.173-10.345z" clip-rule="evenodd"/><path fill="url(#b)" fill-opacity=".4" fill-rule="evenodd" d="M0 51.724C0 23.158 23.158 0 51.724 0h196.552C276.842 0 300 23.158 300 51.724v167.167c0 29.554-37.398 42.38-55.536 19.047l-56.705-72.944v88.454c0 25.71-20.842 46.552-46.552 46.552H51.724C23.158 300 0 276.842 0 248.276zM51.724 41.38c-5.713 0-10.345 4.632-10.345 10.345v196.552c0 5.713 4.632 10.345 10.345 10.345h91.035c2.856 0 3.62-2.316 3.62-5.173V134.831c0-29.554 37.398-42.38 55.537-19.047l56.705 72.944V51.724c0-5.713.541-10.345-5.173-10.345z" clip-rule="evenodd"/><path fill="#63F655" d="M248.275 0c28.567 0 51.724 23.158 51.724 51.724v167.167c0 29.554-37.398 42.38-55.536 19.047l-56.705-72.944v88.454c0 25.71-20.842 46.552-46.552 46.552a5.173 5.173 0 0 0 5.173-5.172V134.831c0-29.554 37.398-42.38 55.536-19.047l56.705 72.944V10.345C258.62 4.632 253.988 0 248.275 0"/><defs><linearGradient id="a" x1="300" x2="36.207" y1="300" y2="0" gradientUnits="userSpaceOnUse"><stop stop-color="#62F755"/><stop offset="1" stop-color="#8FF986" stop-opacity="0"/></linearGradient><linearGradient id="b" x1="300" x2="121.81" y1="300" y2="230.69" gradientUnits="userSpaceOnUse"><stop stop-opacity=".9"/><stop offset="1" stop-color="#1A1A1A" stop-opacity="0"/></linearGradient></defs></svg>
