<svg xmlns="http://www.w3.org/2000/svg" width="64" height="64" fill="none" viewBox="0 0 64 64"><path fill="#689F63" d="M31.633 51.16c-.211 0-.421-.056-.606-.162l-1.93-1.142c-.288-.16-.148-.218-.052-.25.384-.135.462-.165.872-.398.043-.024.1-.016.144.01l1.482.879c.053.029.13.029.18 0l5.779-3.333a.18.18 0 0 0 .088-.156v-6.663a.19.19 0 0 0-.09-.16l-5.777-3.33a.18.18 0 0 0-.178 0l-5.776 3.33a.18.18 0 0 0-.092.158v6.663c0 .064.035.125.09.155l1.583.913c.86.43 1.384-.076 1.384-.585v-6.576c0-.094.074-.166.168-.166h.732c.091 0 .167.072.167.166v6.579c0 1.145-.625 1.802-1.712 1.802-.334 0-.597 0-1.332-.36l-1.517-.874a1.22 1.22 0 0 1-.606-1.054v-6.663c0-.433.232-.838.607-1.052l5.785-3.334a1.27 1.27 0 0 1 1.215 0l5.779 3.335c.373.216.606.62.606 1.053v6.663c0 .432-.233.835-.606 1.052l-5.779 3.335a1.2 1.2 0 0 1-.609.161"/><path fill="#689F63" d="M33.418 46.568c-2.529 0-3.06-1.16-3.06-2.132 0-.093.076-.167.168-.167h.747c.082 0 .152.06.165.142.113.76.448 1.143 1.978 1.143 1.218 0 1.736-.275 1.736-.92 0-.372-.148-.648-2.04-.833-1.583-.156-2.561-.504-2.561-1.769 0-1.165.984-1.859 2.632-1.859 1.85 0 2.767.642 2.883 2.021a.17.17 0 0 1-.168.182h-.75a.166.166 0 0 1-.163-.13c-.18-.8-.617-1.055-1.805-1.055-1.33 0-1.485.462-1.485.81 0 .42.183.543 1.977.78 1.776.235 2.62.568 2.62 1.815 0 1.258-1.05 1.979-2.882 1.979m7.04-7.067h.194c.159 0 .189-.11.189-.176 0-.17-.117-.17-.182-.17h-.2zm-.236-.546h.43c.147 0 .436 0 .436.33 0 .23-.147.277-.235.306.172.012.183.124.206.283.012.1.03.272.066.33h-.265c-.007-.058-.048-.376-.048-.393-.017-.071-.042-.106-.13-.106h-.219v.5h-.241zm-.517.622c0 .517.418.936.932.936a.94.94 0 0 0 .936-.936.934.934 0 0 0-.937-.931.93.93 0 0 0-.932.93m2.048.004c0 .612-.502 1.112-1.114 1.112a1.116 1.116 0 0 1-1.114-1.112 1.113 1.113 0 1 1 2.227 0"/><path fill="#333" fill-rule="evenodd" d="M13.735 25.088a.74.74 0 0 0-.37-.643l-6.128-3.522a.7.7 0 0 0-.337-.097h-.063a.7.7 0 0 0-.339.097L.371 24.445a.75.75 0 0 0-.371.643l.013 9.488c0 .132.068.254.184.32a.35.35 0 0 0 .368 0l3.643-2.085a.75.75 0 0 0 .37-.642v-4.432c0-.264.14-.509.37-.64l1.55-.893a.74.74 0 0 1 .739 0l1.55.892c.23.132.37.376.37.64v4.433c0 .263.143.506.372.641l3.64 2.083a.36.36 0 0 0 .37 0 .37.37 0 0 0 .184-.32zm28.916 4.94a.18.18 0 0 1-.093.16L40.453 31.4a.19.19 0 0 1-.184 0l-2.105-1.213a.18.18 0 0 1-.093-.16V27.6c0-.066.035-.127.091-.16l2.104-1.215a.19.19 0 0 1 .186 0l2.105 1.214a.19.19 0 0 1 .093.16zm.568-17.981a.372.372 0 0 0-.55.323v9.395a.26.26 0 0 1-.389.224l-1.535-.883a.74.74 0 0 0-.74 0l-6.129 3.534a.74.74 0 0 0-.37.639v7.07a.74.74 0 0 0 .37.641l6.13 3.537c.229.131.51.131.74 0l6.13-3.538a.74.74 0 0 0 .37-.64V14.725a.74.74 0 0 0-.38-.646zm20.413 15.489a.74.74 0 0 0 .368-.64v-1.713a.74.74 0 0 0-.369-.64l-6.09-3.532a.74.74 0 0 0-.743 0l-6.128 3.534a.74.74 0 0 0-.37.64v7.068c0 .266.143.512.373.643l6.09 3.468c.224.129.498.13.726.004l3.683-2.045a.37.37 0 0 0 .003-.643l-6.166-3.536a.37.37 0 0 1-.187-.319v-2.217c0-.133.07-.255.185-.32l1.919-1.106a.37.37 0 0 1 .369 0l1.92 1.106a.37.37 0 0 1 .185.319v1.743c0 .132.07.255.185.32a.37.37 0 0 0 .37 0z" clip-rule="evenodd"/><path fill="#689F63" fill-rule="evenodd" d="M57.08 27.205a.14.14 0 0 1 .142 0l1.176.678c.044.026.07.073.07.123v1.357c0 .05-.026.098-.07.123l-1.176.678a.14.14 0 0 1-.142 0l-1.176-.678a.14.14 0 0 1-.072-.123v-1.357a.14.14 0 0 1 .07-.123z" clip-rule="evenodd"/><mask id="a" width="15" height="17" x="16" y="20" maskUnits="userSpaceOnUse" style="mask-type:luminance"><path fill="#fff" d="m23.253 21.046-6.095 3.515a.74.74 0 0 0-.369.637v7.034c0 .263.14.506.369.637l6.095 3.518a.74.74 0 0 0 .737 0l6.094-3.518a.74.74 0 0 0 .368-.637v-7.034a.74.74 0 0 0-.37-.637l-6.093-3.515a.74.74 0 0 0-.738 0"/></mask><g mask="url(#a)"><path fill="url(#b)" d="m36.611 23.964-17.175-8.41L10.63 33.5l17.174 8.412z"/></g><mask id="c" width="15" height="17" x="16" y="20" maskUnits="userSpaceOnUse" style="mask-type:luminance"><path fill="#fff" d="M16.94 32.679a.7.7 0 0 0 .217.19l5.229 3.017.87.5a.74.74 0 0 0 .57.07l6.429-11.76a.7.7 0 0 0-.172-.135l-3.99-2.303-2.11-1.212a.8.8 0 0 0-.191-.077z"/></mask><g mask="url(#c)"><path fill="url(#d)" d="M9.514 26.452 21.642 42.85 37.68 31.012 25.552 14.614z"/></g><mask id="e" width="14" height="17" x="17" y="20" maskUnits="userSpaceOnUse" style="mask-type:luminance"><path fill="#fff" d="M23.547 20.952a.74.74 0 0 0-.294.094l-6.078 3.505 6.554 11.926a.7.7 0 0 0 .262-.09l6.095-3.518a.74.74 0 0 0 .356-.502L23.76 20.964a.8.8 0 0 0-.21-.012"/></mask><g mask="url(#e)"><path fill="url(#f)" d="M17.175 20.95v15.527H30.44V20.95z"/></g><defs><linearGradient id="b" x1="28.018" x2="19.226" y1="19.746" y2="37.699" gradientUnits="userSpaceOnUse"><stop offset=".3" stop-color="#3E863D"/><stop offset=".5" stop-color="#55934F"/><stop offset=".8" stop-color="#5AAD45"/></linearGradient><linearGradient id="d" x1="15.651" x2="31.679" y1="34.745" y2="22.891" gradientUnits="userSpaceOnUse"><stop offset=".57" stop-color="#3E863D"/><stop offset=".72" stop-color="#619857"/><stop offset="1" stop-color="#76AC64"/></linearGradient><linearGradient id="f" x1="17.18" x2="30.442" y1="28.714" y2="28.714" gradientUnits="userSpaceOnUse"><stop offset=".16" stop-color="#6BBF47"/><stop offset=".38" stop-color="#79B461"/><stop offset=".47" stop-color="#75AC64"/><stop offset=".7" stop-color="#659E5A"/><stop offset=".9" stop-color="#3E863D"/></linearGradient></defs></svg>
