<svg xmlns="http://www.w3.org/2000/svg" width="64" height="64" fill="none" viewBox="0 0 64 64"><g clip-path="url(#a)"><mask id="b" width="64" height="34" x="0" y="15" maskUnits="userSpaceOnUse" style="mask-type:luminance"><path fill="#fff" d="M.9 32.26c0 9.035 13.924 16.36 31.1 16.36s31.1-7.325 31.1-16.36S49.176 15.9 32 15.9.9 23.225.9 32.26"/></mask><g mask="url(#b)"><path fill="url(#c)" d="M.9 32.26c0 9.035 13.924 16.36 31.1 16.36s31.1-7.325 31.1-16.36S49.176 15.9 32 15.9.9 23.225.9 32.26"/></g><mask id="d" width="66" height="37" x="-1" y="14" maskUnits="userSpaceOnUse" style="mask-type:luminance"><path fill="#fff" d="M-.396 14.037h64.792v36.445H-.396z"/></mask><g mask="url(#d)"><path fill="#777BB3" d="M32 47.405c16.505 0 29.885-6.78 29.885-15.145S48.505 17.115 32 17.115 2.115 23.895 2.115 32.26 15.495 47.405 32 47.405"/></g><mask id="e" width="66" height="37" x="-1" y="14" maskUnits="userSpaceOnUse" style="mask-type:luminance"><path fill="#fff" d="M-.396 14.037h64.792v36.445H-.396z"/></mask><g mask="url(#e)"><path fill="#000" d="M17.797 34.138c1.357 0 2.37-.25 3.011-.744.634-.488 1.072-1.334 1.302-2.515.214-1.103.133-1.873-.242-2.288-.383-.425-1.212-.64-2.463-.64h-2.169l-1.202 6.187zm-7.094 7.62a.337.337 0 0 1-.331-.401l3.187-16.395a.34.34 0 0 1 .33-.273h6.869c2.158 0 3.764.586 4.774 1.742 1.015 1.162 1.329 2.786.932 4.828a7.7 7.7 0 0 1-.826 2.295 7.7 7.7 0 0 1-1.52 1.905 6.7 6.7 0 0 1-2.5 1.499c-.901.293-2.057.442-3.437.442H15.4l-.794 4.085a.34.34 0 0 1-.331.273z"/><path fill="#fff" d="M17.514 28.288h1.891c1.51 0 2.034.331 2.212.529.296.328.352 1.019.162 1.998-.214 1.097-.61 1.875-1.177 2.311-.58.447-1.524.674-2.805.674h-1.354zm3.244-3.937H13.89c-.323 0-.601.23-.663.546l-3.186 16.395a.675.675 0 0 0 .662.804h3.572c.323 0 .6-.23.662-.546l.741-3.813h2.503c1.415 0 2.607-.154 3.54-.459a7 7 0 0 0 2.628-1.573 8 8 0 0 0 1.584-1.986c.404-.723.694-1.529.862-2.396.418-2.149.079-3.87-1.009-5.114-1.076-1.233-2.768-1.858-5.029-1.858m-5.133 10.124h2.172q2.16 0 3.217-.814t1.427-2.717q.355-1.828-.323-2.58-.678-.75-2.713-.75h-2.447zm5.133-9.449q3.1 0 4.52 1.627 1.421 1.626.855 4.541a7.3 7.3 0 0 1-.79 2.196 7.3 7.3 0 0 1-1.453 1.82 6.3 6.3 0 0 1-2.377 1.427q-1.308.425-3.332.425h-3.06l-.846 4.359h-3.572l3.187-16.395z"/><path fill="#000" d="M34.653 37.4a.337.337 0 0 1-.332-.402l1.41-7.254c.134-.69.101-1.185-.093-1.395-.119-.128-.476-.342-1.53-.342h-2.554l-1.772 9.12a.34.34 0 0 1-.332.273h-3.543a.337.337 0 0 1-.331-.402l3.186-16.395a.34.34 0 0 1 .331-.273h3.544a.337.337 0 0 1 .331.402l-.769 3.957h2.747c2.093 0 3.512.369 4.339 1.128.842.774 1.105 2.012.781 3.68l-1.483 7.63a.34.34 0 0 1-.33.273z"/><path fill="#fff" d="M32.637 19.992h-3.544c-.323 0-.6.23-.662.546l-3.187 16.395a.675.675 0 0 0 .663.804h3.543c.323 0 .601-.23.663-.546l1.719-8.847h2.275c1.054 0 1.275.225 1.284.235.063.069.147.387.009 1.1l-1.41 7.254a.675.675 0 0 0 .663.804h3.6c.322 0 .6-.23.662-.546l1.482-7.63c.348-1.79.05-3.134-.884-3.993-.892-.819-2.386-1.217-4.567-1.217h-2.338l.691-3.555a.675.675 0 0 0-.662-.804m0 .675-.847 4.36h3.156q2.979 0 4.11 1.038 1.13 1.04.679 3.368l-1.483 7.629h-3.6l1.41-7.254q.24-1.238-.177-1.688t-1.778-.45h-2.832l-1.825 9.392h-3.543l3.186-16.395z"/><path fill="#000" d="M45.673 34.138c1.357 0 2.37-.25 3.01-.744.635-.488 1.073-1.334 1.303-2.515.214-1.103.132-1.873-.243-2.288-.383-.425-1.211-.64-2.462-.64h-2.17l-1.201 6.187zm-7.094 7.62a.337.337 0 0 1-.331-.401l3.186-16.395a.34.34 0 0 1 .332-.273h6.867c2.159 0 3.765.586 4.775 1.742 1.015 1.162 1.329 2.786.932 4.828a7.7 7.7 0 0 1-.826 2.295 7.7 7.7 0 0 1-1.52 1.905 6.7 6.7 0 0 1-2.501 1.499c-.9.293-2.056.442-3.436.442h-2.781l-.794 4.085a.34.34 0 0 1-.332.273z"/><path fill="#fff" d="M45.39 28.288h1.89c1.51 0 2.035.331 2.213.529.296.328.352 1.019.161 1.998-.213 1.097-.609 1.875-1.176 2.311-.58.447-1.525.674-2.805.674h-1.354zm3.243-3.937h-6.867c-.323 0-.601.23-.663.546l-3.186 16.395a.675.675 0 0 0 .662.804h3.571c.324 0 .601-.23.663-.546l.74-3.813h2.504c1.415 0 2.606-.154 3.54-.459a7 7 0 0 0 2.628-1.573 8 8 0 0 0 1.583-1.986c.404-.723.694-1.529.863-2.396.418-2.149.078-3.87-1.009-5.114-1.077-1.233-2.769-1.858-5.029-1.858M43.5 34.475h2.173q2.16 0 3.217-.814t1.427-2.717q.354-1.828-.323-2.58-.678-.75-2.713-.75h-2.447zm5.133-9.449q3.1 0 4.52 1.627 1.422 1.626.855 4.541a7.3 7.3 0 0 1-.789 2.196 7.3 7.3 0 0 1-1.453 1.82 6.3 6.3 0 0 1-2.377 1.427q-1.308.425-3.332.425h-3.06l-.847 4.359H38.58l3.187-16.395z"/></g></g><defs><radialGradient id="c" cx="0" cy="0" r="1" gradientTransform="translate(19.573 21.651)scale(40.8388)" gradientUnits="userSpaceOnUse"><stop stop-color="#AEB2D5"/><stop offset=".3" stop-color="#AEB2D5"/><stop offset=".75" stop-color="#484C89"/><stop offset="1" stop-color="#484C89"/></radialGradient><clipPath id="a"><path fill="#fff" d="M0 15h64v34.519H0z"/></clipPath></defs></svg>
