<svg xmlns="http://www.w3.org/2000/svg" width="64" height="64" fill="none" viewBox="0 0 64 64"><path fill="#000" stroke="#000" stroke-width="5.374" d="M47.444 46.59c.407-3.391.285-3.888 2.81-3.34l.642.057c1.942.089 4.483-.312 5.976-1.006 3.213-1.49 5.119-3.98 1.95-3.326-7.227 1.491-7.724-.956-7.724-.956C58.73 26.695 61.92 12.32 59.166 8.802c-7.51-9.597-20.512-5.059-20.73-4.941l-.07.013c-1.427-.297-3.025-.474-4.82-.503-3.271-.053-5.753.858-7.636 2.286 0 0-23.193-9.556-22.114 12.017.229 4.589 6.578 34.725 14.15 25.622a140 140 0 0 1 5.441-6.142c1.328.882 2.918 1.332 4.586 1.17l.129-.11c-.04.414-.023.818.051 1.296-1.95 2.18-1.377 2.563-5.277 3.365-3.945.813-1.627 2.261-.114 2.64 1.835.458 6.079 1.108 8.948-2.907l-.115.458c.766.613.714 4.4.822 7.106.109 2.707.29 5.232.842 6.721.551 1.489 1.202 5.324 6.328 4.226 4.283-.918 7.558-2.24 7.856-14.529Z"/><path fill="#336791" d="M58.823 38.975c-7.228 1.49-7.725-.956-7.725-.956C58.73 26.694 61.92 12.319 59.167 8.8c-7.511-9.596-20.513-5.058-20.73-4.94l-.07.012c-1.428-.296-3.026-.473-4.823-.502-3.27-.053-5.751.858-7.634 2.285 0 0-23.194-9.555-22.115 12.018.23 4.589 6.578 34.725 14.15 25.622 2.767-3.328 5.441-6.142 5.441-6.142 1.329.882 2.919 1.332 4.586 1.17l.129-.11c-.04.414-.022.818.052 1.296-1.95 2.18-1.378 2.563-5.277 3.365-3.946.813-1.628 2.261-.115 2.64 1.835.458 6.08 1.108 8.948-2.907l-.114.458c.764.613 1.3 3.982 1.21 7.037s-.15 5.152.453 6.79c.602 1.639 1.202 5.324 6.328 4.226 4.284-.918 6.504-3.297 6.812-7.265.22-2.82.715-2.404.747-4.926l.397-1.194c.46-3.824.073-5.057 2.712-4.483l.642.056c1.942.088 4.484-.312 5.976-1.006 3.213-1.49 5.118-3.98 1.95-3.326"/><path stroke="#fff" stroke-linecap="round" stroke-linejoin="round" stroke-width="1.791" d="M32.02 41.167c-.2 7.115.05 14.28.745 16.021.697 1.741 2.188 5.128 7.315 4.03 4.283-.918 5.841-2.695 6.517-6.617.498-2.886 1.458-10.9 1.582-12.542M25.875 5.497S2.665-3.989 3.744 17.583c.229 4.59 6.578 34.727 14.15 25.624 2.767-3.329 5.27-5.94 5.27-5.94M38.411 3.766c-.803.252 12.911-5.014 20.705 4.945 2.753 3.519-.437 17.893-8.069 29.218"/><path stroke="#fff" stroke-linecap="round" stroke-linejoin="bevel" stroke-width="1.791" d="M51.047 37.93s.497 2.447 7.726.955c3.167-.654 1.26 1.836-1.951 3.327-2.637 1.224-8.547 1.537-8.643-.153-.249-4.362 3.11-3.037 2.868-4.13Zm0 0c-.22-.985-1.721-1.951-2.715-4.36-.867-2.103-11.897-18.228 3.059-15.833.548-.114-3.9-14.227-17.898-14.456-13.994-.23-13.535 17.21-13.535 17.21"/><path stroke="#fff" stroke-linecap="round" stroke-linejoin="round" stroke-width="1.791" d="M28.102 39.42c-1.951 2.18-1.378 2.563-5.277 3.366-3.946.813-1.628 2.26-.115 2.639 1.835.459 6.08 1.109 8.948-2.907.873-1.223-.006-3.174-1.205-3.671-.58-.24-1.355-.541-2.351.574"/><path stroke="#fff" stroke-linecap="round" stroke-linejoin="round" stroke-width="1.791" d="M27.974 39.383c-.197-1.282.421-2.806 1.083-4.59.995-2.677 3.29-5.354 1.454-13.844-1.369-6.327-10.547-1.316-10.553-.459-.005.858.415 4.349-.153 8.414-.742 5.304 3.375 9.79 8.116 9.33"/><path fill="#fff" stroke="#fff" stroke-width=".597" d="M25.79 20.362c-.041.293.537 1.075 1.29 1.18.752.104 1.396-.507 1.437-.8.04-.293-.537-.615-1.29-.72s-1.397.048-1.437.34Z"/><path fill="#fff" stroke="#fff" stroke-width=".299" d="M48.699 19.765c.04.293-.536 1.074-1.29 1.179-.753.105-1.396-.506-1.438-.799-.04-.293.538-.616 1.29-.72.753-.106 1.397.047 1.438.34Z"/><path stroke="#fff" stroke-linecap="round" stroke-linejoin="round" stroke-width="1.791" d="M51.39 17.737c.125 2.298-.494 3.864-.572 6.31-.116 3.556 1.695 7.627-1.033 11.702"/></svg>
