<svg xmlns="http://www.w3.org/2000/svg" width="64" height="64" fill="none" viewBox="0 0 64 64"><path fill="url(#a)" d="M31.631 2c-2.39.012-4.671.216-6.68.571-5.914 1.046-6.989 3.234-6.989 7.27v5.33h13.979v1.777H12.716c-4.062 0-7.62 2.443-8.732 7.09-1.283 5.328-1.34 8.652 0 14.214.994 4.14 3.367 7.09 7.43 7.09h4.805v-6.389c0-4.616 3.992-8.688 8.733-8.688h13.962c3.886 0 6.99-3.202 6.99-7.107V9.841c0-3.79-3.197-6.637-6.99-7.27a43.6 43.6 0 0 0-7.283-.57m-7.559 4.287c1.444 0 2.623 1.2 2.623 2.674 0 1.469-1.18 2.657-2.623 2.657-1.45 0-2.623-1.188-2.623-2.657 0-1.475 1.174-2.674 2.623-2.674"/><path fill="url(#b)" d="M47.646 16.948v6.21c0 4.815-4.08 8.868-8.732 8.868H24.952c-3.825 0-6.99 3.274-6.99 7.106V52.45c0 3.79 3.295 6.02 6.99 7.107 4.424 1.301 8.668 1.537 13.962 0 3.52-1.02 6.99-3.071 6.99-7.107v-5.33H31.94v-1.777h20.952c4.062 0 5.576-2.835 6.989-7.09 1.459-4.382 1.397-8.595 0-14.215-1.004-4.046-2.922-7.09-6.99-7.09zm-7.852 33.725c1.449 0 2.623 1.188 2.623 2.657 0 1.474-1.174 2.673-2.623 2.673-1.444 0-2.623-1.199-2.623-2.673 0-1.47 1.179-2.657 2.623-2.657"/><defs><linearGradient id="a" x1="3" x2="35.247" y1="2" y2="29.465" gradientUnits="userSpaceOnUse"><stop stop-color="#5A9FD4"/><stop offset="1" stop-color="#306998"/></linearGradient><linearGradient id="b" x1="39.458" x2="27.886" y1="52.882" y2="36.675" gradientUnits="userSpaceOnUse"><stop stop-color="#FFD43B"/><stop offset="1" stop-color="#FFE873"/></linearGradient></defs></svg>
