<svg xmlns="http://www.w3.org/2000/svg" width="64" height="64" fill="none" viewBox="0 0 64 64"><path fill="#E2401B" d="M42.609 41.43a48 48 0 0 1-2.228-4.628 19.7 19.7 0 0 0 6.489-4.584q4.296-4.212 4.296-11.9 0-8.91-5.817-13.85A20.9 20.9 0 0 0 31.373 1.53H6.488v56.747H18.6V37.883h4.606l2.81-.07c1.044 2.544 3.369 8.14 4.721 11.118zm-24.01-28.577h11.147q8.398 0 8.398 6.8 0 7.307-9.37 7.298H18.599zM55.126 54.198l-3.174-2.252-13.127 8.53 4.597 1.79 8.009-.017 5.808-4.15zM44.624 44.72l-12.173 7.687 3.422 5.373 12.95-8.184z"/></svg>
