<svg xmlns="http://www.w3.org/2000/svg" width="64" height="64" fill="none" viewBox="0 0 64 64"><path fill="url(#a)" fill-rule="evenodd" d="M49.584 42.242 13.044 64l47.312-3.22L64 12.94z" clip-rule="evenodd"/><path fill="url(#b)" fill-rule="evenodd" d="m60.434 60.748-4.067-28.145L45.29 47.27z" clip-rule="evenodd"/><path fill="url(#c)" fill-rule="evenodd" d="m60.489 60.748-29.792-2.345-17.495 5.536z" clip-rule="evenodd"/><path fill="url(#d)" fill-rule="evenodd" d="m13.244 63.945 7.442-24.45L4.31 43.008z" clip-rule="evenodd"/><path fill="url(#e)" fill-rule="evenodd" d="M45.287 47.35 38.44 20.452 18.842 38.874z" clip-rule="evenodd"/><path fill="url(#f)" fill-rule="evenodd" d="M62.446 20.831 43.921 5.66l-5.159 16.724z" clip-rule="evenodd"/><path fill="url(#g)" fill-rule="evenodd" d="M53.783.25 42.887 6.286 36.014.168z" clip-rule="evenodd"/><path fill="url(#h)" fill-rule="evenodd" d="m0 51.208 4.564-8.347-3.692-9.944z" clip-rule="evenodd"/><path fill="#fff" fill-rule="evenodd" d="M.627 32.603 4.34 43.169l16.142-3.632L38.91 22.363l5.2-16.565L35.924 0 22 5.225C17.614 9.315 9.103 17.41 8.796 17.563c-.304.155-5.62 10.233-8.17 15.04" clip-rule="evenodd"/><path fill="url(#i)" fill-rule="evenodd" d="M13.67 13.62C23.177 4.17 35.432-1.415 40.135 3.344c4.7 4.758-.284 16.322-9.79 25.77-9.507 9.45-21.61 15.342-26.31 10.583-4.704-4.755.129-16.626 9.635-26.075" clip-rule="evenodd"/><path fill="url(#j)" fill-rule="evenodd" d="m13.244 63.935 7.384-24.527 24.524 7.9c-8.867 8.338-18.729 15.387-31.908 16.627" clip-rule="evenodd"/><path fill="url(#k)" fill-rule="evenodd" d="M38.943 22.315 45.24 47.32c7.407-7.81 14.055-16.205 17.31-26.59z" clip-rule="evenodd"/><path fill="url(#l)" fill-rule="evenodd" d="M62.485 20.857c2.52-7.625 3.101-18.564-8.78-20.595l-9.749 5.4z" clip-rule="evenodd"/><path fill="#9E1209" fill-rule="evenodd" d="M0 51.098C.349 63.683 9.403 63.87 13.26 63.981L4.351 43.117z" clip-rule="evenodd"/><path fill="url(#m)" fill-rule="evenodd" d="M38.979 22.354c5.691 3.508 17.162 10.553 17.395 10.682.36.205 4.945-7.75 5.985-12.247z" clip-rule="evenodd"/><path fill="url(#n)" fill-rule="evenodd" d="m20.618 39.408 9.872 19.098c5.837-3.174 10.408-7.042 14.594-11.185z" clip-rule="evenodd"/><path fill="url(#o)" fill-rule="evenodd" d="M4.312 43.143 2.914 59.844c2.639 3.615 6.27 3.93 10.078 3.647-2.756-6.876-8.26-20.627-8.68-20.348" clip-rule="evenodd"/><path fill="url(#p)" fill-rule="evenodd" d="m43.898 5.704 19.611 2.76c-1.047-4.447-4.26-7.317-9.74-8.215z" clip-rule="evenodd"/><defs><linearGradient id="a" x1="56.229" x2="42.671" y1="69.82" y2="45.949" gradientUnits="userSpaceOnUse"><stop stop-color="#FB7655"/><stop offset=".41" stop-color="#E42B1E"/><stop offset=".99" stop-color="#900"/><stop offset="1" stop-color="#900"/></linearGradient><linearGradient id="b" x1="62.955" x2="45.525" y1="49.74" y2="38.076" gradientUnits="userSpaceOnUse"><stop stop-color="#871101"/><stop offset=".99" stop-color="#911209"/><stop offset="1" stop-color="#911209"/></linearGradient><linearGradient id="c" x1="49.033" x2="31.603" y1="70.545" y2="58.881" gradientUnits="userSpaceOnUse"><stop stop-color="#871101"/><stop offset=".99" stop-color="#911209"/><stop offset="1" stop-color="#911209"/></linearGradient><linearGradient id="d" x1="12.5" x2="15.212" y1="41.264" y2="58.841" gradientUnits="userSpaceOnUse"><stop stop-color="#fff"/><stop offset=".23" stop-color="#E57252"/><stop offset=".46" stop-color="#DE3B20"/><stop offset=".99" stop-color="#A60003"/><stop offset="1" stop-color="#A60003"/></linearGradient><linearGradient id="e" x1="31.053" x2="32.052" y1="24.85" y2="42.79" gradientUnits="userSpaceOnUse"><stop stop-color="#fff"/><stop offset=".23" stop-color="#E4714E"/><stop offset=".56" stop-color="#BE1A0D"/><stop offset=".99" stop-color="#A80D00"/><stop offset="1" stop-color="#A80D00"/></linearGradient><linearGradient id="f" x1="47.517" x2="50.508" y1="8.267" y2="21.121" gradientUnits="userSpaceOnUse"><stop stop-color="#fff"/><stop offset=".18" stop-color="#E46342"/><stop offset=".4" stop-color="#C82410"/><stop offset=".99" stop-color="#A80D00"/><stop offset="1" stop-color="#A80D00"/></linearGradient><linearGradient id="g" x1="38.432" x2="51.267" y1="3.739" y2="-2.662" gradientUnits="userSpaceOnUse"><stop stop-color="#fff"/><stop offset=".54" stop-color="#C81F11"/><stop offset=".99" stop-color="#BF0905"/><stop offset="1" stop-color="#BF0905"/></linearGradient><linearGradient id="h" x1="1.261" x2="2.322" y1="36.783" y2="47.377" gradientUnits="userSpaceOnUse"><stop stop-color="#fff"/><stop offset=".31" stop-color="#DE4024"/><stop offset=".99" stop-color="#BF190B"/><stop offset="1" stop-color="#BF190B"/></linearGradient><linearGradient id="i" x1="-5.994" x2="43.754" y1="50.241" y2="-.772" gradientUnits="userSpaceOnUse"><stop stop-color="#BD0012"/><stop offset=".07" stop-color="#fff"/><stop offset=".17" stop-color="#fff"/><stop offset=".27" stop-color="#C82F1C"/><stop offset=".33" stop-color="#820C01"/><stop offset=".46" stop-color="#A31601"/><stop offset=".72" stop-color="#B31301"/><stop offset=".99" stop-color="#E82609"/><stop offset="1" stop-color="#E82609"/></linearGradient><linearGradient id="j" x1="32.003" x2="17.056" y1="55.401" y2="51.722" gradientUnits="userSpaceOnUse"><stop stop-color="#8C0C01"/><stop offset=".54" stop-color="#990C00"/><stop offset=".99" stop-color="#A80D0E"/><stop offset="1" stop-color="#A80D0E"/></linearGradient><linearGradient id="k" x1="57.667" x2="44.361" y1="37.417" y2="25.524" gradientUnits="userSpaceOnUse"><stop stop-color="#7E110B"/><stop offset=".99" stop-color="#9E0C00"/><stop offset="1" stop-color="#9E0C00"/></linearGradient><linearGradient id="l" x1="62.544" x2="55.913" y1="15.528" y2="8.458" gradientUnits="userSpaceOnUse"><stop stop-color="#79130D"/><stop offset=".99" stop-color="#9E120B"/><stop offset="1" stop-color="#9E120B"/></linearGradient><linearGradient id="o" x1="8.615" x2="3.199" y1="63.921" y2="45.597" gradientUnits="userSpaceOnUse"><stop stop-color="#8B2114"/><stop offset=".43" stop-color="#9E100A"/><stop offset=".99" stop-color="#B3100C"/><stop offset="1" stop-color="#B3100C"/></linearGradient><linearGradient id="p" x1="49.952" x2="62.043" y1="3.174" y2="8.496" gradientUnits="userSpaceOnUse"><stop stop-color="#B31000"/><stop offset=".44" stop-color="#910F08"/><stop offset=".99" stop-color="#791C12"/><stop offset="1" stop-color="#791C12"/></linearGradient><radialGradient id="m" cx="0" cy="0" r="1" gradientTransform="matrix(16.2665 0 0 16.3118 46.46 25.715)" gradientUnits="userSpaceOnUse"><stop stop-color="#A80D00"/><stop offset=".99" stop-color="#7E0E08"/><stop offset="1" stop-color="#7E0E08"/></radialGradient><radialGradient id="n" cx="0" cy="0" r="1" gradientTransform="matrix(21.6242 0 0 21.6844 23.933 47.212)" gradientUnits="userSpaceOnUse"><stop stop-color="#A30C00"/><stop offset=".99" stop-color="#800E08"/><stop offset="1" stop-color="#800E08"/></radialGradient></defs></svg>
