<svg xmlns="http://www.w3.org/2000/svg" width="64" height="64" fill="none" viewBox="0 0 64 64"><g fill="#000" clip-path="url(#a)"><path d="M32.03 3.43C16.296 3.43 3.49 16.24 3.49 31.97s12.812 28.54 28.54 28.54 28.54-12.812 28.54-28.54S47.759 3.43 32.03 3.43m-.042 2.535c.488.013.952.216 1.292.567a1.88 1.88 0 0 1-1.346 3.189 1.878 1.878 0 1 1 .054-3.756m4.299 3.092a23.1 23.1 0 0 1 15.819 11.266l-2.216 5c-.38.863.012 1.877.87 2.263l4.262 1.89c.132 1.333.148 2.674.048 4.01h-2.373c-.235 0-.332.156-.332.386v1.087c0 2.56-1.443 3.121-2.71 3.26-1.208.139-2.543-.507-2.712-1.244-.712-4.003-1.895-4.854-3.767-6.334 2.324-1.473 4.74-3.652 4.74-6.562 0-3.146-2.156-5.126-3.623-6.099-2.065-1.358-4.347-1.63-4.963-1.63H14.817a23.1 23.1 0 0 1 12.926-7.293l2.893 3.03a1.7 1.7 0 0 0 2.415.055zM9.6 22.956a1.878 1.878 0 1 1-.109 3.754 1.878 1.878 0 0 1 .109-3.754m44.77.084a1.878 1.878 0 1 1-.109 3.754 1.878 1.878 0 0 1 .109-3.754m-41.232.302h3.273v14.756H9.805a23.1 23.1 0 0 1-.748-8.821l4.045-1.8a1.71 1.71 0 0 0 .87-2.257zm13.658.157h7.794c.405 0 2.844.465 2.844 2.294 0 1.516-1.872 2.06-3.411 2.06h-7.234zm0 10.602h5.97c.544 0 2.917.157 3.672 3.188.235.93.76 3.96 1.117 4.933.356 1.087 1.799 3.26 3.339 3.26h9.745a23 23 0 0 1-2.138 2.476l-3.967-.852a1.715 1.715 0 0 0-2.034 1.317l-.942 4.395a23.1 23.1 0 0 1-19.267-.09l-.942-4.396a1.71 1.71 0 0 0-2.028-1.316l-3.883.833a23 23 0 0 1-2.004-2.367h18.88c.211 0 .356-.036.356-.235v-6.678c0-.193-.145-.235-.356-.235h-5.525zm-8.713 15.294a1.878 1.878 0 1 1-.109 3.755 1.878 1.878 0 0 1 .109-3.755m27.804.084a1.878 1.878 0 1 1-.11 3.754 1.878 1.878 0 0 1 .11-3.754"/><path fill-rule="evenodd" stroke="#000" stroke-linecap="round" stroke-linejoin="round" stroke-width="1.811" d="M58.977 31.97a26.947 26.947 0 1 1-53.894 0 26.947 26.947 0 0 1 53.894 0m-.508-2.602 4.203 2.602-4.203 2.602 3.611 3.375-4.625 1.733 2.886 4.015-4.884.797 2.052 4.504-4.944-.175L53.7 53.64l-4.818-1.135.175 4.945-4.505-2.053-.797 4.885-4.015-2.886-1.733 4.625-3.375-3.61-2.602 4.201-2.602-4.202-3.375 3.61-1.733-4.624-4.015 2.886-.797-4.885-4.504 2.053.175-4.945-4.818 1.135 1.135-4.818-4.945.175 2.053-4.504-4.885-.797 2.886-4.015-4.625-1.733 3.61-3.375L1.39 31.97l4.202-2.602-3.61-3.375 4.624-1.733-2.886-4.016 4.885-.796-2.053-4.505 4.945.175L10.36 10.3l4.818 1.135-.175-4.944 4.504 2.052.797-4.884 4.015 2.886 1.733-4.625 3.375 3.61 2.602-4.202 2.602 4.203 3.376-3.611 1.732 4.625 4.015-2.886.797 4.884 4.505-2.052-.175 4.945L53.7 10.3l-1.136 4.818 4.945-.175-2.052 4.505 4.884.796-2.886 4.016 4.625 1.732z" clip-rule="evenodd"/></g><defs><clipPath id="a"><path fill="#fff" d="M0 0h64v64H0z"/></clipPath></defs></svg>
