<svg xmlns="http://www.w3.org/2000/svg" width="64" height="64" fill="none" viewBox="0 0 64 64"><path fill="#52BD94" d="M60.866 20.65H25.772c-.668 0-1.21.54-1.21 1.207v4.075c0 .666.541 1.206 1.21 1.206h35.094c.669 0 1.21-.54 1.21-1.207v-4.074c0-.666-.541-1.206-1.21-1.206M37.655 36.862H2.56c-.668 0-1.21.54-1.21 1.206v4.075c0 .666.542 1.206 1.21 1.206h35.095c.668 0 1.21-.54 1.21-1.206v-4.075c0-.666-.542-1.206-1.21-1.206"/><path fill="#52BD94" fill-rule="evenodd" d="M5.855 25.091a1.224 1.224 0 0 0 1.473-.826A25.54 25.54 0 0 1 18.945 9.893a25.67 25.67 0 0 1 18.3-2.806 1.203 1.203 0 0 0 1.406-.87l1.058-3.939a1.21 1.21 0 0 0-.92-1.494A32.2 32.2 0 0 0 15.652 4.3a32.03 32.03 0 0 0-14.6 18.235 1.197 1.197 0 0 0 .851 1.502zM57.586 38.909a1.223 1.223 0 0 0-1.474.826 25.54 25.54 0 0 1-11.617 14.372 25.67 25.67 0 0 1-18.3 2.806 1.203 1.203 0 0 0-1.405.87l-1.059 3.939a1.21 1.21 0 0 0 .474 1.298c.134.095.286.161.446.196a32.2 32.2 0 0 0 23.138-3.515 32.03 32.03 0 0 0 14.6-18.235 1.2 1.2 0 0 0-.852-1.502z" clip-rule="evenodd"/><path fill="#52BD94" d="M50.262 13.528A3.56 3.56 0 0 0 53.83 9.97a3.56 3.56 0 0 0-3.568-3.556 3.56 3.56 0 0 0-3.568 3.556 3.56 3.56 0 0 0 3.568 3.557M13.176 57.586a3.56 3.56 0 0 0 3.568-3.557 3.56 3.56 0 0 0-3.568-3.557 3.56 3.56 0 0 0-3.568 3.557 3.56 3.56 0 0 0 3.568 3.557"/></svg>
