<svg xmlns="http://www.w3.org/2000/svg" width="66" height="65" fill="none" viewBox="0 0 66 65"><path fill="#E8762C" d="M43.163 34.515h-8.925v9.796H30.72v-9.796h-8.991v-3.396h8.99v-9.796h3.519v9.796h8.925z"/><path fill="#C72035" d="M25.247 46.597h-8.013V37.78h-2.997v8.816H6.093v2.613h8.144v8.685h2.997V49.21h8.013z"/><path fill="#59879B" d="M59.45 15.707h-8.078V6.956h-2.997v8.75h-8.013v2.744h8.013v8.685h2.997V18.45h8.079z"/><path fill="#5B6591" d="M39.32 56.131h-5.408v-6.073h-2.606v6.073h-5.538v2.351h5.538v6.204h2.606v-6.204h5.407z"/><path fill="#EB912C" d="M25.182 15.641h-8.144V6.956h-2.931v8.685H5.963v2.613h8.144v8.881h2.931v-8.881h8.144z"/><path fill="#5B6591" d="M65.64 31.641h-5.407v-6.073H57.56v6.073H52.09v2.351h5.472v6.074h2.672v-6.074h5.407z"/><path fill="#1F447E" d="M58.93 46.597h-8.014V37.78h-2.997v8.816h-8.078v2.613h8.078v8.685h2.997V49.21h8.013z"/><path fill="#7099A6" d="M38.929 6.76H33.52V.686h-1.954V6.76h-5.408v1.828h5.408v5.943h1.954V8.588h5.407zM13.13 31.903H7.721V25.96H5.767v5.943H.36v1.828h5.407v5.943h1.955v-5.943h5.407z"/></svg>
