<svg xmlns="http://www.w3.org/2000/svg" width="65" height="64" fill="none" viewBox="0 0 65 64"><path fill="url(#a)" fill-rule="evenodd" d="M46.345 63.563a3.98 3.98 0 0 0 3.174-.122l13.177-6.34a4 4 0 0 0 2.265-3.605V10.505A4 4 0 0 0 62.696 6.9L49.519.56a3.985 3.985 0 0 0-4.546.773L19.748 24.347l-10.987-8.34a2.664 2.664 0 0 0-3.404.15l-3.524 3.206a2.67 2.67 0 0 0-.002 3.944L11.359 32l-9.528 8.693a2.67 2.67 0 0 0 .002 3.944l3.524 3.206c.95.864 2.381.927 3.404.15l10.987-8.34 25.225 23.014c.4.399.868.7 1.372.896m2.626-46.092L29.83 32l19.14 14.529z" clip-rule="evenodd"/><path fill="#0065A9" d="M62.735 6.91 49.548.56A3.99 3.99 0 0 0 45 1.333L1.831 40.693a2.667 2.667 0 0 0 .003 3.944l3.526 3.206c.95.864 2.382.927 3.406.15L60.75 8.558C62.495 7.234 65 8.477 65 10.667v-.153a4 4 0 0 0-2.265-3.604"/><path fill="#007ACC" d="m62.735 57.09-13.187 6.35A3.99 3.99 0 0 1 45 62.667L1.831 23.307a2.667 2.667 0 0 1 .003-3.944l3.526-3.206a2.67 2.67 0 0 1 3.406-.15L60.75 55.442c1.744 1.323 4.249.08 4.249-2.11v.154a4 4 0 0 1-2.265 3.603"/><path fill="#1F9CF0" d="M49.549 63.44A3.99 3.99 0 0 1 45 62.668c1.476 1.476 4 .43 4-1.657V2.99c0-2.087-2.524-3.133-4-1.657A3.99 3.99 0 0 1 49.549.56L62.734 6.9A4 4 0 0 1 65 10.505v42.992a4 4 0 0 1-2.267 3.604z"/><defs><linearGradient id="a" x1="32.961" x2="32.961" y1=".165" y2="63.835" gradientUnits="userSpaceOnUse"><stop stop-color="#fff"/><stop offset="1" stop-color="#fff" stop-opacity="0"/></linearGradient></defs></svg>
