<svg xmlns="http://www.w3.org/2000/svg" width="64" height="64" fill="none" viewBox="0 0 64 64"><g fill="#E52344" clip-path="url(#a)"><path d="m4.942 36.255-1.322 1.29v-.004l-2.653 2.59v.448l2.653 2.589 3.967 3.872V33.677l-2.645 2.574zM14.22 38.167l-2.652-2.577v-5.8l-1.402 1.36v3.076l-1.259-1.221V48.33l2.66 2.605v-.008l1.323 1.29 2.653 2.59V25.91l-1.315 1.283zM22.166 34.7l-2.651 2.588.002-9.27v-5.99l-1.327 1.295v3.4l.005 11.853-1.332 1.3V55.2l3.981-3.886 2.654-2.59V18.142l-1.332 1.301zM30.127 26.935l-2.654 2.59V14.269l-1.333 1.3v15.247l-1.316 1.296-.005 15.329 2.654-2.59 1.332-1.302v.011l2.649-2.584V10.382l-1.333 1.3zM38.738 16.18l-.66-.644v15.28l-2.655-2.59V12.868l-.655-.64v.077l-.66-.645-.006 15.264-1.328-1.285v15.313l2.649 2.585 1.321 1.29 2.66 2.595V16.754l-.666-.65zM46.692 23.946l-.661-.656v3.476l-.006 10.77v1.04l-1.327-1.296-1.321-1.29V20.634l-.672-.656v.077l-.65-.645v15.280000000000001l-1.333-1.29v15.313l2.655 2.59 1.321 1.29 2.649 2.585V24.509l-.656-.64zM55.298 32.201l-1.314-1.275v3.385l-2.653 2.585V28.36l-1.322-1.275v.023l.008 11.07-1.339 1.303v15.326l2.653-2.59 1.322-1.29v.008l2.653-2.597v-1.746l-.008-14.321zM60.601 37.333v.006l-1.314-1.272v-.002L56.634 33.5v13.54l2.653-2.582v-.007l1.314-1.283 2.653-2.59v-.672z"/></g><defs><clipPath id="a"><path fill="#fff" d="M0 9h64v46.703H0z"/></clipPath></defs></svg>
