<svg xmlns="http://www.w3.org/2000/svg" width="64" height="64" fill="none" viewBox="0 0 64 64"><path fill="#000" d="M30.766 3.067h-.072l-.715.143q-2.361.286-4.616 1.324a13.6 13.6 0 0 0-3.97 2.755q-2.935 2.647-4.08 6.511a14.1 14.1 0 0 0-.572 4.508q.072 2.362.859 4.508a14.7 14.7 0 0 0 3.72 5.582l.93.858-5.938 9.66q-1.86-.07-3.22.501-2.147.93-3.22 2.862a7.4 7.4 0 0 0-.644 2.219 6.2 6.2 0 0 0 .143 2.29q.572 2.145 2.361 3.434a7.5 7.5 0 0 0 2.362 1.038 6.7 6.7 0 0 0 2.576.143 6.4 6.4 0 0 0 2.468-.895 6.7 6.7 0 0 0 1.968-1.789q.858-1.215 1.037-2.79.18-1.575-.393-2.934-.072-.358-.501-1.002l-.215-.43 8.444-13.738q.43-.644.572-1.002l-.715-.214q-.645-.143-.93-.287a10.2 10.2 0 0 1-2.97-1.967 9 9 0 0 1-2.04-2.827 8.33 8.33 0 0 1-.643-5.366 8.2 8.2 0 0 1 1.216-3.077 9.9 9.9 0 0 1 2.218-2.433q2.648-1.932 5.868-1.932a8.9 8.9 0 0 1 3.757.68 9.15 9.15 0 0 1 3.184 2.182 8 8 0 0 1 1.896 2.755 9.4 9.4 0 0 1 .751 3.256q0 1.216-.429 3.005l5.009 1.36.572.071q1.002-3.076.501-6.154a13.6 13.6 0 0 0-1.395-4.543 14.1 14.1 0 0 0-2.826-3.829q-3.005-3.005-7.37-4.007-.43-.142-1.289-.286l-1.001-.143zm1.288 8.873q-1.216 0-2.433.5a6.6 6.6 0 0 0-2.182 1.468 5.7 5.7 0 0 0-1.396 2.254q-.572 1.43-.286 3.148.214 1.289 1.002 2.433a5.55 5.55 0 0 0 2.003 1.789q1.718 1.073 4.008.93.215.286.357.573l8.014 13.667q.216.428.43.644 1.932-1.86 4.186-2.54t4.65-.251 4.187 1.86q2.29 1.79 3.113 4.401a8.8 8.8 0 0 1 .035 5.26 8.7 8.7 0 0 1-2.039 3.577 9.4 9.4 0 0 1-3.47 2.361q-2.219.93-4.759.609-2.54-.323-4.544-1.753-.285-.215-.93-.716l-.358-.43q-.286.216-.787.716l-3.363 3.292a15.7 15.7 0 0 0 3.721 2.755 15.1 15.1 0 0 0 4.365 1.538l1.574.286h2.79l2.004-.357q4.58-.93 7.872-4.294a14.1 14.1 0 0 0 2.611-3.613 14.4 14.4 0 0 0 1.396-4.258 15.4 15.4 0 0 0-.144-5.116q-.5-2.54-1.788-4.615a15.4 15.4 0 0 0-3.149-3.65 15.7 15.7 0 0 0-4.078-2.504 15.4 15.4 0 0 0-5.045-1.145 16.7 16.7 0 0 0-5.116.5l-1.217.359-5.796-9.803q.93-1.36 1.145-2.648.358-2.29-.93-4.293a6.06 6.06 0 0 0-3.149-2.505 7.5 7.5 0 0 0-2.504-.43M11.875 30.83q-4.15.93-7.155 3.793-3.363 3.148-4.365 7.513l-.286 1.718V46.5l.143.787q.142.93.286 1.431a13.6 13.6 0 0 0 1.753 4.222 14.8 14.8 0 0 0 3.041 3.506q3.577 2.934 8.229 3.507a16.7 16.7 0 0 0 5.438-.322 16 16 0 0 0 5.01-2.04q3.792-2.433 5.58-6.511.501-1.217 1.002-3.22.43-.072 1.288 0l8.945.143q1.002 0 1.43.071.789 1.431 1.79 2.219 1.002.786 2.254 1.145a7.6 7.6 0 0 0 2.54.286 6.95 6.95 0 0 0 3.578-1.431q1.932-1.503 2.29-3.864.143-1.217-.108-2.362a5.8 5.8 0 0 0-.966-2.146 6.6 6.6 0 0 0-2.934-2.29 6.2 6.2 0 0 0-2.54-.465 7.1 7.1 0 0 0-2.54.536q-2.003.859-3.077 2.648l-.215.43q-1.002 0-3.005-.072l-8.086-.072q-1.072-.07-3.077-.071l-3.577-.072.214 1.217q.573 3.076-.93 5.796-1.002 1.931-2.862 3.22a9.1 9.1 0 0 1-4.079 1.574q-2.505.429-5.009-.537t-4.078-3.041q-2.004-2.505-1.932-5.653.071-2.647 1.645-4.937a8.7 8.7 0 0 1 2.29-2.29 9.7 9.7 0 0 1 2.934-1.36l.644-.214z"/></svg>
