<svg xmlns="http://www.w3.org/2000/svg" width="24" height="24" viewBox="0 0 24 24" fill="none">
<path d="M5 10H19V12H21V6C21 4.9 20.1 4 19 4H18V2H16V4H8V2H6V4H5C3.89 4 3.01 4.9 3.01 6L3 20C3 20.5304 3.21071 21.0391 3.58579 21.4142C3.96086 21.7893 4.46957 22 5 22H12V20H5V10ZM5 6H19V8H5V6ZM22.84 16.28L22.13 16.99L20.01 14.87L20.72 14.16C20.8125 14.0673 20.9224 13.9937 21.0434 13.9436C21.1643 13.8934 21.294 13.8676 21.425 13.8676C21.556 13.8676 21.6856 13.8934 21.8066 13.9436C21.9276 13.9937 22.0375 14.0673 22.13 14.16L22.84 14.87C23.23 15.26 23.23 15.89 22.84 16.28ZM19.3 15.58L21.42 17.7L16.12 23H14V20.88L19.3 15.58Z" fill="currentColor"/>
</svg>
