<svg focusable="false" viewBox="0 0 24 24" xmlns="http://www.w3.org/2000/svg">
<path d="M15.2763 12.9698C14.5578 12.9698 13.9137 13.2803 13.4726 13.7692L12.3423 12.9886C12.4623 12.6663 12.5312 12.3202 12.5312 11.958C12.5312 11.6021 12.4647 11.2618 12.3487 10.9443L13.4764 10.172C13.9175 10.6584 14.5599 10.9673 15.2763 10.9673C16.6024 10.9673 17.6815 9.91473 17.6815 8.62078C17.6815 7.32684 16.6024 6.27429 15.2763 6.27429C13.9502 6.27429 12.8711 7.32684 12.8711 8.62078C12.8711 8.85238 12.907 9.07571 12.9714 9.28722L11.8429 10.06C11.3714 9.48942 10.6927 9.09104 9.91934 8.96944V7.64254C11.0088 7.4193 11.8297 6.47492 11.8297 5.3465C11.8297 4.05255 10.7507 3 9.42454 3C8.09841 3 7.01935 4.05255 7.01935 5.3465C7.01935 6.45981 7.81898 7.39254 8.88667 7.63172V8.97585C7.42955 9.22538 6.31787 10.466 6.31787 11.958C6.31787 13.4573 7.44056 14.7025 8.9082 14.9436V16.3629C7.82959 16.5942 7.01935 17.5326 7.01935 18.6535C7.01935 19.9474 8.09841 21 9.42454 21C10.7507 21 11.8297 19.9474 11.8297 18.6535C11.8297 17.5326 11.0195 16.5942 9.94087 16.3629V14.9435C10.6837 14.8214 11.3558 14.4401 11.8319 13.8706L12.9697 14.6563C12.9065 14.8659 12.8711 15.087 12.8711 15.3162C12.8711 16.6102 13.9502 17.6627 15.2763 17.6627C16.6024 17.6627 17.6815 16.6102 17.6815 15.3162C17.6815 14.0223 16.6024 12.9698 15.2763 12.9698ZM15.2763 7.48309C15.9194 7.48309 16.4424 7.99358 16.4424 8.62078C16.4424 9.24799 15.9194 9.75843 15.2763 9.75843C14.6333 9.75843 14.1102 9.24799 14.1102 8.62078C14.1102 7.99358 14.6333 7.48309 15.2763 7.48309ZM8.25839 5.3465C8.25839 4.71929 8.78147 4.20885 9.42454 4.20885C10.0676 4.20885 10.5906 4.71929 10.5906 5.3465C10.5906 5.9737 10.0676 6.48415 9.42454 6.48415C8.78147 6.48415 8.25839 5.9737 8.25839 5.3465ZM10.5906 18.6535C10.5906 19.2807 10.0676 19.7912 9.42454 19.7912C8.78147 19.7912 8.25839 19.2807 8.25839 18.6535C8.25839 18.0263 8.78147 17.5159 9.42454 17.5159C10.0676 17.5159 10.5906 18.0263 10.5906 18.6535ZM9.42445 13.5447C8.52757 13.5447 7.79794 12.833 7.79794 11.958C7.79794 11.083 8.52757 10.3712 9.42445 10.3712C10.3213 10.3712 11.0509 11.083 11.0509 11.958C11.0509 12.833 10.3213 13.5447 9.42445 13.5447ZM15.2763 16.4539C14.6333 16.4539 14.1102 15.9435 14.1102 15.3162C14.1102 14.689 14.6333 14.1786 15.2763 14.1786C15.9194 14.1786 16.4424 14.689 16.4424 15.3162C16.4424 15.9435 15.9194 16.4539 15.2763 16.4539Z" fill="currentColor"/></svg>
