<svg xmlns="http://www.w3.org/2000/svg" width="17" height="16" viewBox="0 0 17 16" fill="none">
<path d="M7.99217 8.66377H8.00491C8.83126 8.66377 9.50483 9.26096 9.50698 9.99622C9.50913 10.7322 8.8374 11.3326 8.00967 11.3345H8.00599C7.18041 11.3345 6.50715 10.738 6.505 10.0033C6.50439 9.82757 6.42547 9.6592 6.28554 9.5351C6.14562 9.411 5.95609 9.3413 5.75849 9.34126H5.75665C5.55863 9.34177 5.36895 9.4122 5.22931 9.53707C5.08967 9.66194 5.0115 9.83103 5.01198 10.0071C5.01567 11.2443 5.97728 12.276 7.2667 12.5702L7.269 13.3379C7.26961 13.5137 7.34853 13.6821 7.48845 13.8062C7.62838 13.9303 7.81791 14 8.01551 14H8.01735C8.1154 13.9998 8.21244 13.9824 8.30293 13.9488C8.39342 13.9152 8.47558 13.8661 8.54473 13.8042C8.61388 13.7424 8.66866 13.6691 8.70594 13.5884C8.74322 13.5077 8.76228 13.4213 8.76201 13.3341L8.75971 12.5665C10.0479 12.2662 11.0037 11.2299 11 9.99226C10.9957 8.52625 9.65284 7.33582 8.00461 7.33582C8.00031 7.33514 7.99616 7.33582 7.99294 7.33582C7.17012 7.33582 6.49532 6.74409 6.49302 6.0046C6.49087 5.26865 7.16229 4.66764 7.98925 4.66559H7.99294C8.81928 4.66559 9.49286 5.26278 9.49501 5.99804C9.49562 6.1738 9.57453 6.34217 9.71446 6.46627C9.85438 6.59036 10.0439 6.66007 10.2415 6.6601H10.2434C10.4414 6.6596 10.631 6.58916 10.7707 6.46429C10.9103 6.33942 10.9885 6.17034 10.988 5.99422C10.9843 4.75654 10.0224 3.72412 8.73223 3.42982L8.72992 2.66206C8.72931 2.48631 8.6504 2.31793 8.51047 2.19383C8.37055 2.06974 8.18102 2.00004 7.98342 2H7.98158C7.88352 2.00023 7.78648 2.01764 7.69599 2.05123C7.6055 2.08482 7.52334 2.13393 7.45419 2.19576C7.38504 2.2576 7.33027 2.33094 7.29298 2.4116C7.2557 2.49227 7.23665 2.57867 7.23691 2.66588L7.23922 3.43365C5.9518 3.73409 4.99633 4.77033 5.00001 6.00842C5.00446 7.47648 6.34209 8.66377 7.99217 8.66377Z" fill="currentColor"/>
<path d="M2.31788 10.3319C2.33223 10.3099 2.34224 10.2852 2.34732 10.2592C2.3524 10.2332 2.35247 10.2065 2.34751 10.1804C2.34256 10.1544 2.33268 10.1297 2.31843 10.1076C2.30419 10.0855 2.28587 10.0665 2.26451 10.0518L1.09235 9.24012C1.05183 9.21222 1.00249 9.20234 0.954875 9.2096C0.91536 9.21483 0.85071 9.24768 0.818647 9.29813L0.0333015 10.5035C0.0189508 10.5255 0.00894739 10.5502 0.0038629 10.5762C-0.00122158 10.6022 -0.00128742 10.629 0.00366914 10.655C0.00862571 10.681 0.0185075 10.7057 0.0327497 10.7278C0.046992 10.7499 0.0653155 10.7689 0.086673 10.7837C0.129796 10.8135 0.182645 10.8244 0.233606 10.8141C0.284566 10.8038 0.329469 10.7731 0.358444 10.7286L0.886076 9.91881C1.70969 13.4701 4.78711 16 8.37745 16C12.1676 16 15.4436 13.0901 15.9979 9.23111C16.0055 9.17815 15.9924 9.12424 15.9614 9.08124C15.9305 9.03825 15.8842 9.00968 15.8329 9.00182C15.7259 8.98725 15.6264 9.06157 15.6104 9.17194C15.0844 12.8344 11.9749 15.5962 8.37749 15.5962C4.97884 15.5962 2.06448 13.2079 1.27341 9.85188L2.04619 10.387C2.06753 10.4018 2.09149 10.4121 2.1167 10.4174C2.14191 10.4226 2.16788 10.4227 2.19312 10.4176C2.21835 10.4124 2.24236 10.4022 2.26377 10.3875C2.28518 10.3729 2.30357 10.354 2.31788 10.3319Z" fill="currentColor"/>
<path d="M14.5373 5.66808C14.522 5.69008 14.5114 5.71478 14.506 5.74078C14.5006 5.76677 14.5005 5.79354 14.5058 5.81956C14.511 5.84557 14.5215 5.87033 14.5367 5.89241C14.5518 5.91449 14.5713 5.93346 14.594 5.94823L15.8394 6.75988C15.8824 6.78778 15.9349 6.79766 15.9854 6.7904C16.0274 6.78517 16.0961 6.75232 16.1302 6.70187L16.9646 5.4965C16.9799 5.4745 16.9905 5.4498 16.9959 5.4238C17.0013 5.39781 17.0014 5.37104 16.9961 5.34503C16.9908 5.31901 16.9803 5.29425 16.9652 5.27217C16.9501 5.2501 16.9306 5.23113 16.9079 5.21635C16.8621 5.18652 16.8059 5.17555 16.7518 5.18587C16.6976 5.19619 16.6499 5.22694 16.6192 5.27137L16.0585 6.08119C15.1835 2.52995 11.9137 0 8.09896 0C4.07198 0 0.591139 2.90992 0.00224113 6.76889C-0.00583458 6.82185 0.00810051 6.87576 0.0409832 6.91876C0.073864 6.96175 0.122999 6.99032 0.177586 6.99818C0.291256 7.01275 0.396923 6.93843 0.413914 6.82806C0.972813 3.16562 4.27668 0.403768 8.09891 0.403768C11.71 0.403768 14.8065 2.79208 15.647 6.14812L14.8259 5.61302C14.8033 5.59821 14.7778 5.58789 14.751 5.58265C14.7242 5.5774 14.6966 5.57733 14.6698 5.58245C14.643 5.58756 14.6175 5.59776 14.5947 5.61245C14.572 5.62714 14.5525 5.64605 14.5373 5.66808Z" fill="currentColor"/>
</svg>
